%TF.GenerationSoftware,KiCad,Pcbnew,5.1.6-c6e7f7d~86~ubuntu18.04.1*%
%TF.CreationDate,2020-05-20T11:00:07-07:00*%
%TF.ProjectId,Cal_Station,43616c5f-5374-4617-9469-6f6e2e6b6963,rev?*%
%TF.SameCoordinates,Original*%
%TF.FileFunction,Copper,L4,Bot*%
%TF.FilePolarity,Positive*%
%FSLAX46Y46*%
G04 Gerber Fmt 4.6, Leading zero omitted, Abs format (unit mm)*
G04 Created by KiCad (PCBNEW 5.1.6-c6e7f7d~86~ubuntu18.04.1) date 2020-05-20 11:00:07*
%MOMM*%
%LPD*%
G01*
G04 APERTURE LIST*
%TA.AperFunction,ComponentPad*%
%ADD10C,3.000000*%
%TD*%
%TA.AperFunction,ComponentPad*%
%ADD11C,1.500000*%
%TD*%
%TA.AperFunction,ComponentPad*%
%ADD12C,1.900000*%
%TD*%
%TA.AperFunction,ComponentPad*%
%ADD13R,1.900000X1.900000*%
%TD*%
%TA.AperFunction,ComponentPad*%
%ADD14C,0.800000*%
%TD*%
%TA.AperFunction,ComponentPad*%
%ADD15C,6.400000*%
%TD*%
%TA.AperFunction,ComponentPad*%
%ADD16C,5.400000*%
%TD*%
%TA.AperFunction,Conductor*%
%ADD17R,1.900000X2.500000*%
%TD*%
%TA.AperFunction,ViaPad*%
%ADD18C,0.500000*%
%TD*%
%TA.AperFunction,ComponentPad*%
%ADD19O,1.700000X1.700000*%
%TD*%
%TA.AperFunction,ComponentPad*%
%ADD20R,1.700000X1.700000*%
%TD*%
%TA.AperFunction,ComponentPad*%
%ADD21C,2.000000*%
%TD*%
%TA.AperFunction,ComponentPad*%
%ADD22R,2.000000X2.000000*%
%TD*%
%TA.AperFunction,ComponentPad*%
%ADD23C,2.400000*%
%TD*%
%TA.AperFunction,ComponentPad*%
%ADD24R,2.400000X2.400000*%
%TD*%
%TA.AperFunction,ViaPad*%
%ADD25C,0.600000*%
%TD*%
%TA.AperFunction,ViaPad*%
%ADD26C,0.800000*%
%TD*%
%TA.AperFunction,Conductor*%
%ADD27C,0.650000*%
%TD*%
%TA.AperFunction,Conductor*%
%ADD28C,0.750000*%
%TD*%
%TA.AperFunction,Conductor*%
%ADD29C,1.000000*%
%TD*%
%TA.AperFunction,Conductor*%
%ADD30C,0.600000*%
%TD*%
%TA.AperFunction,Conductor*%
%ADD31C,0.350000*%
%TD*%
%TA.AperFunction,Conductor*%
%ADD32C,0.250000*%
%TD*%
%TA.AperFunction,Conductor*%
%ADD33C,0.450000*%
%TD*%
G04 APERTURE END LIST*
D10*
%TO.P,TP18,1*%
%TO.N,+6V*%
X109610000Y-41240000D03*
%TD*%
%TO.P,TP17,1*%
%TO.N,PI_GND*%
X104560000Y-41240000D03*
%TD*%
D11*
%TO.P,K17,4*%
%TO.N,Vref_OUT*%
X42980000Y-70820000D03*
%TO.P,K17,9*%
%TO.N,PI_GND*%
X52930000Y-70815000D03*
D12*
X50580000Y-70820000D03*
%TO.P,K17,4*%
%TO.N,Vref_OUT*%
X45500000Y-70820000D03*
%TO.P,K17,8*%
%TO.N,Net-(K17-Pad8)*%
X50580000Y-68280000D03*
%TO.P,K17,7*%
%TO.N,K17_SET*%
X50580000Y-65740000D03*
%TO.P,K17,10*%
%TO.N,/34401_A/GNDA*%
X50580000Y-73360000D03*
%TO.P,K17,6*%
%TO.N,CAL_RESET*%
X45500000Y-78440000D03*
D13*
%TO.P,K17,1*%
%TO.N,PI_+5V*%
X45500000Y-65740000D03*
D12*
%TO.P,K17,12*%
X50580000Y-78440000D03*
%TO.P,K17,3*%
%TO.N,Net-(K17-Pad3)*%
X45500000Y-68280000D03*
%TO.P,K17,5*%
%TO.N,DAC_AUX_BUF*%
X45500000Y-73360000D03*
D11*
%TO.P,K17,12*%
%TO.N,PI_+5V*%
X52880000Y-78440000D03*
%TO.P,K17,10*%
%TO.N,/34401_A/GNDA*%
X52930000Y-73365000D03*
%TO.P,K17,8*%
%TO.N,Net-(K17-Pad8)*%
X52930000Y-68315000D03*
%TO.P,K17,7*%
%TO.N,K17_SET*%
X52980000Y-65715000D03*
%TO.P,K17,1*%
%TO.N,PI_+5V*%
X42980000Y-65740000D03*
%TO.P,K17,3*%
%TO.N,Net-(K17-Pad3)*%
X42980000Y-68280000D03*
%TO.P,K17,5*%
%TO.N,DAC_AUX_BUF*%
X42980000Y-73360000D03*
%TO.P,K17,6*%
%TO.N,CAL_RESET*%
X42980000Y-78290000D03*
%TD*%
%TO.P,K16,4*%
%TO.N,Net-(K16-Pad4)*%
X44410000Y-48550000D03*
%TO.P,K16,9*%
X54360000Y-48545000D03*
D12*
X52010000Y-48550000D03*
%TO.P,K16,4*%
X46930000Y-48550000D03*
%TO.P,K16,8*%
%TO.N,Net-(K16-Pad8)*%
X52010000Y-46010000D03*
%TO.P,K16,7*%
%TO.N,K16_SET*%
X52010000Y-43470000D03*
%TO.P,K16,10*%
%TO.N,/34401_A/GNDA*%
X52010000Y-51090000D03*
%TO.P,K16,6*%
%TO.N,CAL_RESET*%
X46930000Y-56170000D03*
D13*
%TO.P,K16,1*%
%TO.N,PI_+5V*%
X46930000Y-43470000D03*
D12*
%TO.P,K16,12*%
X52010000Y-56170000D03*
%TO.P,K16,3*%
%TO.N,Net-(K16-Pad3)*%
X46930000Y-46010000D03*
%TO.P,K16,5*%
%TO.N,DAC_AUX_BUF*%
X46930000Y-51090000D03*
D11*
%TO.P,K16,12*%
%TO.N,PI_+5V*%
X54310000Y-56170000D03*
%TO.P,K16,10*%
%TO.N,/34401_A/GNDA*%
X54360000Y-51095000D03*
%TO.P,K16,8*%
%TO.N,Net-(K16-Pad8)*%
X54360000Y-46045000D03*
%TO.P,K16,7*%
%TO.N,K16_SET*%
X54410000Y-43445000D03*
%TO.P,K16,1*%
%TO.N,PI_+5V*%
X44410000Y-43470000D03*
%TO.P,K16,3*%
%TO.N,Net-(K16-Pad3)*%
X44410000Y-46010000D03*
%TO.P,K16,5*%
%TO.N,DAC_AUX_BUF*%
X44410000Y-51090000D03*
%TO.P,K16,6*%
%TO.N,CAL_RESET*%
X44410000Y-56020000D03*
%TD*%
%TO.P,C65,2*%
%TO.N,PI_GND*%
%TA.AperFunction,SMDPad,CuDef*%
G36*
G01*
X116055000Y-111975000D02*
X117905000Y-111975000D01*
G75*
G02*
X118155000Y-112225000I0J-250000D01*
G01*
X118155000Y-113225000D01*
G75*
G02*
X117905000Y-113475000I-250000J0D01*
G01*
X116055000Y-113475000D01*
G75*
G02*
X115805000Y-113225000I0J250000D01*
G01*
X115805000Y-112225000D01*
G75*
G02*
X116055000Y-111975000I250000J0D01*
G01*
G37*
%TD.AperFunction*%
%TO.P,C65,1*%
%TO.N,Vref_OUT*%
%TA.AperFunction,SMDPad,CuDef*%
G36*
G01*
X116055000Y-108725000D02*
X117905000Y-108725000D01*
G75*
G02*
X118155000Y-108975000I0J-250000D01*
G01*
X118155000Y-109975000D01*
G75*
G02*
X117905000Y-110225000I-250000J0D01*
G01*
X116055000Y-110225000D01*
G75*
G02*
X115805000Y-109975000I0J250000D01*
G01*
X115805000Y-108975000D01*
G75*
G02*
X116055000Y-108725000I250000J0D01*
G01*
G37*
%TD.AperFunction*%
%TD*%
%TO.P,C62,2*%
%TO.N,PI_GND*%
%TA.AperFunction,SMDPad,CuDef*%
G36*
G01*
X106365000Y-119045000D02*
X108215000Y-119045000D01*
G75*
G02*
X108465000Y-119295000I0J-250000D01*
G01*
X108465000Y-120295000D01*
G75*
G02*
X108215000Y-120545000I-250000J0D01*
G01*
X106365000Y-120545000D01*
G75*
G02*
X106115000Y-120295000I0J250000D01*
G01*
X106115000Y-119295000D01*
G75*
G02*
X106365000Y-119045000I250000J0D01*
G01*
G37*
%TD.AperFunction*%
%TO.P,C62,1*%
%TO.N,+5V*%
%TA.AperFunction,SMDPad,CuDef*%
G36*
G01*
X106365000Y-115795000D02*
X108215000Y-115795000D01*
G75*
G02*
X108465000Y-116045000I0J-250000D01*
G01*
X108465000Y-117045000D01*
G75*
G02*
X108215000Y-117295000I-250000J0D01*
G01*
X106365000Y-117295000D01*
G75*
G02*
X106115000Y-117045000I0J250000D01*
G01*
X106115000Y-116045000D01*
G75*
G02*
X106365000Y-115795000I250000J0D01*
G01*
G37*
%TD.AperFunction*%
%TD*%
%TO.P,C58,2*%
%TO.N,PI_GND*%
%TA.AperFunction,SMDPad,CuDef*%
G36*
G01*
X117945000Y-118655000D02*
X119795000Y-118655000D01*
G75*
G02*
X120045000Y-118905000I0J-250000D01*
G01*
X120045000Y-119905000D01*
G75*
G02*
X119795000Y-120155000I-250000J0D01*
G01*
X117945000Y-120155000D01*
G75*
G02*
X117695000Y-119905000I0J250000D01*
G01*
X117695000Y-118905000D01*
G75*
G02*
X117945000Y-118655000I250000J0D01*
G01*
G37*
%TD.AperFunction*%
%TO.P,C58,1*%
%TO.N,Vref_OUT*%
%TA.AperFunction,SMDPad,CuDef*%
G36*
G01*
X117945000Y-115405000D02*
X119795000Y-115405000D01*
G75*
G02*
X120045000Y-115655000I0J-250000D01*
G01*
X120045000Y-116655000D01*
G75*
G02*
X119795000Y-116905000I-250000J0D01*
G01*
X117945000Y-116905000D01*
G75*
G02*
X117695000Y-116655000I0J250000D01*
G01*
X117695000Y-115655000D01*
G75*
G02*
X117945000Y-115405000I250000J0D01*
G01*
G37*
%TD.AperFunction*%
%TD*%
%TO.P,C47,2*%
%TO.N,PI_GND*%
%TA.AperFunction,SMDPad,CuDef*%
G36*
G01*
X105225000Y-112795000D02*
X105225000Y-114645000D01*
G75*
G02*
X104975000Y-114895000I-250000J0D01*
G01*
X103975000Y-114895000D01*
G75*
G02*
X103725000Y-114645000I0J250000D01*
G01*
X103725000Y-112795000D01*
G75*
G02*
X103975000Y-112545000I250000J0D01*
G01*
X104975000Y-112545000D01*
G75*
G02*
X105225000Y-112795000I0J-250000D01*
G01*
G37*
%TD.AperFunction*%
%TO.P,C47,1*%
%TO.N,+5V*%
%TA.AperFunction,SMDPad,CuDef*%
G36*
G01*
X108475000Y-112795000D02*
X108475000Y-114645000D01*
G75*
G02*
X108225000Y-114895000I-250000J0D01*
G01*
X107225000Y-114895000D01*
G75*
G02*
X106975000Y-114645000I0J250000D01*
G01*
X106975000Y-112795000D01*
G75*
G02*
X107225000Y-112545000I250000J0D01*
G01*
X108225000Y-112545000D01*
G75*
G02*
X108475000Y-112795000I0J-250000D01*
G01*
G37*
%TD.AperFunction*%
%TD*%
D14*
%TO.P,H8,1*%
%TO.N,N/C*%
X46377056Y-30992944D03*
X44680000Y-30290000D03*
X42982944Y-30992944D03*
X42280000Y-32690000D03*
X42982944Y-34387056D03*
X44680000Y-35090000D03*
X46377056Y-34387056D03*
X47080000Y-32690000D03*
D15*
X44680000Y-32690000D03*
%TD*%
D14*
%TO.P,H7,1*%
%TO.N,N/C*%
X184527056Y-30992944D03*
X182830000Y-30290000D03*
X181132944Y-30992944D03*
X180430000Y-32690000D03*
X181132944Y-34387056D03*
X182830000Y-35090000D03*
X184527056Y-34387056D03*
X185230000Y-32690000D03*
D15*
X182830000Y-32690000D03*
%TD*%
D14*
%TO.P,H6,1*%
%TO.N,N/C*%
X46377056Y-142782944D03*
X44680000Y-142080000D03*
X42982944Y-142782944D03*
X42280000Y-144480000D03*
X42982944Y-146177056D03*
X44680000Y-146880000D03*
X46377056Y-146177056D03*
X47080000Y-144480000D03*
D15*
X44680000Y-144480000D03*
%TD*%
D14*
%TO.P,H5,1*%
%TO.N,N/C*%
X184527056Y-142802944D03*
X182830000Y-142100000D03*
X181132944Y-142802944D03*
X180430000Y-144500000D03*
X181132944Y-146197056D03*
X182830000Y-146900000D03*
X184527056Y-146197056D03*
X185230000Y-144500000D03*
D15*
X182830000Y-144500000D03*
%TD*%
D14*
%TO.P,H4,1*%
%TO.N,N/C*%
X112601891Y-30688109D03*
X111170000Y-30095000D03*
X109738109Y-30688109D03*
X109145000Y-32120000D03*
X109738109Y-33551891D03*
X111170000Y-34145000D03*
X112601891Y-33551891D03*
X113195000Y-32120000D03*
D16*
X111170000Y-32120000D03*
%TD*%
D14*
%TO.P,H3,1*%
%TO.N,N/C*%
X63601891Y-88688109D03*
X62170000Y-88095000D03*
X60738109Y-88688109D03*
X60145000Y-90120000D03*
X60738109Y-91551891D03*
X62170000Y-92145000D03*
X63601891Y-91551891D03*
X64195000Y-90120000D03*
D16*
X62170000Y-90120000D03*
%TD*%
D14*
%TO.P,H2,1*%
%TO.N,N/C*%
X112601891Y-88688109D03*
X111170000Y-88095000D03*
X109738109Y-88688109D03*
X109145000Y-90120000D03*
X109738109Y-91551891D03*
X111170000Y-92145000D03*
X112601891Y-91551891D03*
X113195000Y-90120000D03*
D16*
X111170000Y-90120000D03*
%TD*%
D14*
%TO.P,H1,1*%
%TO.N,N/C*%
X63601891Y-30688109D03*
X62170000Y-30095000D03*
X60738109Y-30688109D03*
X60145000Y-32120000D03*
X60738109Y-33551891D03*
X62170000Y-34145000D03*
X63601891Y-33551891D03*
X64195000Y-32120000D03*
D16*
X62170000Y-32120000D03*
%TD*%
D11*
%TO.P,K14,4*%
%TO.N,/34401_B/REF100+*%
X164544000Y-101742000D03*
%TO.P,K14,9*%
%TO.N,/34401_B/REF100_RTN*%
X164549000Y-111692000D03*
D12*
X164544000Y-109342000D03*
%TO.P,K14,4*%
%TO.N,/34401_B/REF100+*%
X164544000Y-104262000D03*
%TO.P,K14,8*%
%TO.N,Net-(K14-Pad8)*%
X167084000Y-109342000D03*
%TO.P,K14,7*%
%TO.N,K14_SET*%
X169624000Y-109342000D03*
%TO.P,K14,10*%
%TO.N,/34401_B/34401B_RTN*%
X162004000Y-109342000D03*
%TO.P,K14,6*%
%TO.N,K14_RESET*%
X156924000Y-104262000D03*
D13*
%TO.P,K14,1*%
%TO.N,+5V*%
X169624000Y-104262000D03*
D12*
%TO.P,K14,12*%
X156924000Y-109342000D03*
%TO.P,K14,3*%
%TO.N,Net-(K14-Pad3)*%
X167084000Y-104262000D03*
%TO.P,K14,5*%
%TO.N,/34401_B/34401B_I+*%
X162004000Y-104262000D03*
D11*
%TO.P,K14,12*%
%TO.N,+5V*%
X156924000Y-111642000D03*
%TO.P,K14,10*%
%TO.N,/34401_B/34401B_RTN*%
X161999000Y-111692000D03*
%TO.P,K14,8*%
%TO.N,Net-(K14-Pad8)*%
X167049000Y-111692000D03*
%TO.P,K14,7*%
%TO.N,K14_SET*%
X169649000Y-111742000D03*
%TO.P,K14,1*%
%TO.N,+5V*%
X169624000Y-101742000D03*
%TO.P,K14,3*%
%TO.N,Net-(K14-Pad3)*%
X167084000Y-101742000D03*
%TO.P,K14,5*%
%TO.N,/34401_B/34401B_I+*%
X162004000Y-101742000D03*
%TO.P,K14,6*%
%TO.N,K14_RESET*%
X157074000Y-101742000D03*
%TD*%
D10*
%TO.P,J28,1*%
%TO.N,/34401_B/REF100+*%
X142130000Y-94000000D03*
%TD*%
%TO.P,J27,1*%
%TO.N,/34401_B/REF100_RTN*%
X149790000Y-94000000D03*
%TD*%
%TO.P,J26,1*%
%TO.N,/34401_B/34401B_I+*%
X162930000Y-49260000D03*
%TD*%
%TO.P,J25,1*%
%TO.N,/34401_B/34401B_RTN*%
X155320000Y-49400000D03*
%TD*%
%TO.P,J24,1*%
%TO.N,/34401_B/34401B_V+*%
X147750000Y-49660000D03*
%TD*%
%TO.P,J23,1*%
%TO.N,/34401_B/I_LOAD*%
X159204000Y-86946000D03*
%TD*%
%TO.P,J22,1*%
%TO.N,/34401_B/VLoad_div8*%
X152092000Y-87200000D03*
%TD*%
%TO.P,J20,1*%
%TO.N,/34401_B/GND*%
X145488000Y-87200000D03*
%TD*%
%TO.P,J19,1*%
%TO.N,/34401_A/34401A_RTN*%
X116620000Y-58990000D03*
%TD*%
%TO.P,J18,1*%
%TO.N,/34401_A/34401A_V+*%
X122190000Y-58810000D03*
%TD*%
%TO.P,J17,1*%
%TO.N,/34401_B/CoolerV*%
X138630000Y-87200000D03*
%TD*%
%TO.P,J16,1*%
%TO.N,/34401_A/LOAD_RTN*%
X79580000Y-80000000D03*
%TD*%
%TO.P,J15,1*%
%TO.N,/34401_A/LOAD+*%
X70430000Y-80000000D03*
%TD*%
%TO.P,J14,1*%
%TO.N,DAC_AUX_BUF*%
X128320000Y-94300000D03*
%TD*%
%TO.P,J13,1*%
%TO.N,/34401_A/GNDA*%
X128290000Y-87300000D03*
%TD*%
%TO.P,J12,1*%
%TO.N,DAC_AUX*%
X121320000Y-94300000D03*
%TD*%
%TO.P,J11,1*%
%TO.N,/34401_A/GNDA*%
X121360000Y-87300000D03*
%TD*%
%TO.P,J10,1*%
%TO.N,/34401_B/LOAD_RTN*%
X166570000Y-86946000D03*
%TD*%
%TO.P,J9,1*%
%TO.N,/34401_A/2V5_filt*%
X115720000Y-87280000D03*
%TD*%
%TO.P,J8,1*%
%TO.N,/34401_A/COOLERV_div4*%
X106950000Y-87300000D03*
%TD*%
%TO.P,J7,1*%
%TO.N,Net-(J7-Pad1)*%
X100660000Y-87300000D03*
%TD*%
%TO.P,J6,1*%
%TO.N,/PWR_IN*%
X86436000Y-87562000D03*
%TD*%
%TO.P,J5,1*%
%TO.N,Net-(J5-Pad1)*%
X93294000Y-87562000D03*
%TD*%
%TO.P,J4,1*%
%TO.N,Net-(J3-Pad1)*%
X79578000Y-95436000D03*
%TD*%
%TO.P,J3,1*%
%TO.N,Net-(J3-Pad1)*%
X79580000Y-87560000D03*
%TD*%
%TO.P,J2,1*%
%TO.N,/PWR_RTN*%
X70180000Y-95436000D03*
%TD*%
%TO.P,J1,1*%
%TO.N,/PWR_RTN*%
X70430000Y-87816000D03*
%TD*%
D17*
%TO.N,PI_GND*%
%TO.C,U2*%
X79170000Y-42010000D03*
D18*
X79870000Y-43010000D03*
X78470000Y-43010000D03*
X79870000Y-42010000D03*
X78470000Y-42010000D03*
X79870000Y-41010000D03*
X78470000Y-41010000D03*
%TD*%
D17*
%TO.N,PI_GND*%
%TO.C,U1*%
X70906000Y-106862000D03*
D18*
X70206000Y-105862000D03*
X71606000Y-105862000D03*
X70206000Y-106862000D03*
X71606000Y-106862000D03*
X70206000Y-107862000D03*
X71606000Y-107862000D03*
%TD*%
D10*
%TO.P,TP14,1*%
%TO.N,Net-(K3-Pad5)*%
X124580000Y-138900000D03*
%TD*%
%TO.P,TP13,1*%
%TO.N,Net-(K3-Pad10)*%
X129980000Y-138840000D03*
%TD*%
%TO.P,TP12,1*%
%TO.N,Net-(K2-Pad5)*%
X146920000Y-140060000D03*
%TD*%
%TO.P,TP11,1*%
%TO.N,Net-(K2-Pad10)*%
X152650000Y-139980000D03*
%TD*%
%TO.P,TP10,1*%
%TO.N,Net-(K7-Pad5)*%
X169050000Y-139230000D03*
%TD*%
%TO.P,TP9,1*%
%TO.N,Net-(K7-Pad10)*%
X174750000Y-139200000D03*
%TD*%
%TO.P,TP8,1*%
%TO.N,Net-(K6-Pad5)*%
X55870000Y-138730000D03*
%TD*%
%TO.P,TP7,1*%
%TO.N,Net-(K6-Pad10)*%
X60950000Y-138540000D03*
%TD*%
%TO.P,TP6,1*%
%TO.N,Net-(K5-Pad5)*%
X78730000Y-138740000D03*
%TD*%
%TO.P,TP5,1*%
%TO.N,Net-(K5-Pad10)*%
X84010000Y-138480000D03*
%TD*%
%TO.P,TP4,1*%
%TO.N,Net-(K4-Pad5)*%
X101740000Y-138830000D03*
%TD*%
%TO.P,TP3,1*%
%TO.N,Net-(K4-Pad10)*%
X107210000Y-138750000D03*
%TD*%
D19*
%TO.P,PI1,40*%
%TO.N,K11_SET_SIGNL*%
X60900000Y-37130000D03*
%TO.P,PI1,39*%
%TO.N,PI_GND*%
X63440000Y-37130000D03*
%TO.P,PI1,38*%
%TO.N,K12_SET_SIGNL*%
X60900000Y-39670000D03*
%TO.P,PI1,37*%
%TO.N,K10_SET_SIGNL*%
X63440000Y-39670000D03*
%TO.P,PI1,36*%
%TO.N,K13_SET_SIGNL*%
X60900000Y-42210000D03*
%TO.P,PI1,35*%
%TO.N,K9_SET_SIGNL*%
X63440000Y-42210000D03*
%TO.P,PI1,34*%
%TO.N,PI_GND*%
X60900000Y-44750000D03*
%TO.P,PI1,33*%
%TO.N,K8_SET_SIGNL*%
X63440000Y-44750000D03*
%TO.P,PI1,32*%
%TO.N,K14_SET_SIGNL*%
X60900000Y-47290000D03*
%TO.P,PI1,31*%
%TO.N,RES_ARRAY_RESET_SIGNL*%
X63440000Y-47290000D03*
%TO.P,PI1,30*%
%TO.N,PI_GND*%
X60900000Y-49830000D03*
%TO.P,PI1,29*%
%TO.N,K7_SET_SIGNL*%
X63440000Y-49830000D03*
%TO.P,PI1,28*%
%TO.N,Net-(PI1-Pad28)*%
X60900000Y-52370000D03*
%TO.P,PI1,27*%
%TO.N,Net-(PI1-Pad27)*%
X63440000Y-52370000D03*
%TO.P,PI1,26*%
%TO.N,K15_SET_SIGNL*%
X60900000Y-54910000D03*
%TO.P,PI1,25*%
%TO.N,PI_GND*%
X63440000Y-54910000D03*
%TO.P,PI1,24*%
%TO.N,BANK_A_RESET_SIGNL*%
X60900000Y-57450000D03*
%TO.P,PI1,23*%
%TO.N,K6_SET_SIGNL*%
X63440000Y-57450000D03*
%TO.P,PI1,22*%
%TO.N,BANK_B_RESET_SIGNL*%
X60900000Y-59990000D03*
%TO.P,PI1,21*%
%TO.N,K5_SET_SIGNL*%
X63440000Y-59990000D03*
%TO.P,PI1,20*%
%TO.N,PI_GND*%
X60900000Y-62530000D03*
%TO.P,PI1,19*%
%TO.N,K4_SET_SIGNL*%
X63440000Y-62530000D03*
%TO.P,PI1,18*%
%TO.N,K16_SET_SIGNL*%
X60900000Y-65070000D03*
%TO.P,PI1,17*%
%TO.N,Net-(PI1-Pad17)*%
X63440000Y-65070000D03*
%TO.P,PI1,16*%
%TO.N,K17_SET_SIGNL*%
X60900000Y-67610000D03*
%TO.P,PI1,15*%
%TO.N,K3_SET_SIGNL*%
X63440000Y-67610000D03*
%TO.P,PI1,14*%
%TO.N,PI_GND*%
X60900000Y-70150000D03*
%TO.P,PI1,13*%
%TO.N,K2_SET_SIGNL*%
X63440000Y-70150000D03*
%TO.P,PI1,12*%
%TO.N,CAL_RESET_SIGNL*%
X60900000Y-72690000D03*
%TO.P,PI1,11*%
%TO.N,K1_RESET_SIGNL*%
X63440000Y-72690000D03*
%TO.P,PI1,10*%
%TO.N,RX*%
X60900000Y-75230000D03*
%TO.P,PI1,9*%
%TO.N,PI_GND*%
X63440000Y-75230000D03*
%TO.P,PI1,8*%
%TO.N,TX*%
X60900000Y-77770000D03*
%TO.P,PI1,7*%
%TO.N,K1_SET_SGNL*%
X63440000Y-77770000D03*
%TO.P,PI1,6*%
%TO.N,PI_GND*%
X60900000Y-80310000D03*
%TO.P,PI1,5*%
%TO.N,Net-(PI1-Pad5)*%
X63440000Y-80310000D03*
%TO.P,PI1,4*%
%TO.N,PI_+5V*%
X60900000Y-82850000D03*
%TO.P,PI1,3*%
%TO.N,LTC2057_SHDN*%
X63440000Y-82850000D03*
%TO.P,PI1,2*%
%TO.N,PI_+5V*%
X60900000Y-85390000D03*
D20*
%TO.P,PI1,1*%
%TO.N,Net-(PI1-Pad1)*%
X63440000Y-85390000D03*
%TD*%
D11*
%TO.P,K15,4*%
%TO.N,/34401_B/VLoad_div8*%
X138574000Y-65652000D03*
%TO.P,K15,9*%
%TO.N,/34401_B/LOAD_RTN*%
X148524000Y-65647000D03*
D12*
X146174000Y-65652000D03*
%TO.P,K15,4*%
%TO.N,/34401_B/VLoad_div8*%
X141094000Y-65652000D03*
%TO.P,K15,8*%
%TO.N,Net-(K15-Pad8)*%
X146174000Y-63112000D03*
%TO.P,K15,7*%
%TO.N,K15_SET*%
X146174000Y-60572000D03*
%TO.P,K15,10*%
%TO.N,/34401_B/34401B_RTN*%
X146174000Y-68192000D03*
%TO.P,K15,6*%
%TO.N,K15_RESET*%
X141094000Y-73272000D03*
D13*
%TO.P,K15,1*%
%TO.N,+5V*%
X141094000Y-60572000D03*
D12*
%TO.P,K15,12*%
X146174000Y-73272000D03*
%TO.P,K15,3*%
%TO.N,Net-(K15-Pad3)*%
X141094000Y-63112000D03*
%TO.P,K15,5*%
%TO.N,/34401_B/34401B_V+*%
X141094000Y-68192000D03*
D11*
%TO.P,K15,12*%
%TO.N,+5V*%
X148474000Y-73272000D03*
%TO.P,K15,10*%
%TO.N,/34401_B/34401B_RTN*%
X148524000Y-68197000D03*
%TO.P,K15,8*%
%TO.N,Net-(K15-Pad8)*%
X148524000Y-63147000D03*
%TO.P,K15,7*%
%TO.N,K15_SET*%
X148574000Y-60547000D03*
%TO.P,K15,1*%
%TO.N,+5V*%
X138574000Y-60572000D03*
%TO.P,K15,3*%
%TO.N,Net-(K15-Pad3)*%
X138574000Y-63112000D03*
%TO.P,K15,5*%
%TO.N,/34401_B/34401B_V+*%
X138574000Y-68192000D03*
%TO.P,K15,6*%
%TO.N,K15_RESET*%
X138574000Y-73122000D03*
%TD*%
%TO.P,K13,4*%
%TO.N,/34401_B/CoolerV*%
X126740000Y-46170000D03*
%TO.P,K13,9*%
%TO.N,/34401_B/GND*%
X136690000Y-46165000D03*
D12*
X134340000Y-46170000D03*
%TO.P,K13,4*%
%TO.N,/34401_B/CoolerV*%
X129260000Y-46170000D03*
%TO.P,K13,8*%
%TO.N,Net-(K13-Pad8)*%
X134340000Y-43630000D03*
%TO.P,K13,7*%
%TO.N,K13_SET*%
X134340000Y-41090000D03*
%TO.P,K13,10*%
%TO.N,/34401_B/34401B_RTN*%
X134340000Y-48710000D03*
%TO.P,K13,6*%
%TO.N,K13_RESET*%
X129260000Y-53790000D03*
D13*
%TO.P,K13,1*%
%TO.N,+5V*%
X129260000Y-41090000D03*
D12*
%TO.P,K13,12*%
X134340000Y-53790000D03*
%TO.P,K13,3*%
%TO.N,Net-(K13-Pad3)*%
X129260000Y-43630000D03*
%TO.P,K13,5*%
%TO.N,/34401_B/34401B_V+*%
X129260000Y-48710000D03*
D11*
%TO.P,K13,12*%
%TO.N,+5V*%
X136640000Y-53790000D03*
%TO.P,K13,10*%
%TO.N,/34401_B/34401B_RTN*%
X136690000Y-48715000D03*
%TO.P,K13,8*%
%TO.N,Net-(K13-Pad8)*%
X136690000Y-43665000D03*
%TO.P,K13,7*%
%TO.N,K13_SET*%
X136740000Y-41065000D03*
%TO.P,K13,1*%
%TO.N,+5V*%
X126740000Y-41090000D03*
%TO.P,K13,3*%
%TO.N,Net-(K13-Pad3)*%
X126740000Y-43630000D03*
%TO.P,K13,5*%
%TO.N,/34401_B/34401B_V+*%
X126740000Y-48710000D03*
%TO.P,K13,6*%
%TO.N,K13_RESET*%
X126740000Y-53640000D03*
%TD*%
%TO.P,K12,4*%
%TO.N,/34401_B/I_LOAD*%
X158240000Y-74140000D03*
%TO.P,K12,9*%
%TO.N,/34401_B/LOAD_RTN*%
X168190000Y-74135000D03*
D12*
X165840000Y-74140000D03*
%TO.P,K12,4*%
%TO.N,/34401_B/I_LOAD*%
X160760000Y-74140000D03*
%TO.P,K12,8*%
%TO.N,Net-(K12-Pad8)*%
X165840000Y-71600000D03*
%TO.P,K12,7*%
%TO.N,K12_SET*%
X165840000Y-69060000D03*
%TO.P,K12,10*%
%TO.N,/34401_B/34401B_RTN*%
X165840000Y-76680000D03*
%TO.P,K12,6*%
%TO.N,K12_RESET*%
X160760000Y-81760000D03*
D13*
%TO.P,K12,1*%
%TO.N,+5V*%
X160760000Y-69060000D03*
D12*
%TO.P,K12,12*%
X165840000Y-81760000D03*
%TO.P,K12,3*%
%TO.N,Net-(K12-Pad3)*%
X160760000Y-71600000D03*
%TO.P,K12,5*%
%TO.N,/34401_B/34401B_I+*%
X160760000Y-76680000D03*
D11*
%TO.P,K12,12*%
%TO.N,+5V*%
X168140000Y-81760000D03*
%TO.P,K12,10*%
%TO.N,/34401_B/34401B_RTN*%
X168190000Y-76685000D03*
%TO.P,K12,8*%
%TO.N,Net-(K12-Pad8)*%
X168190000Y-71635000D03*
%TO.P,K12,7*%
%TO.N,K12_SET*%
X168240000Y-69035000D03*
%TO.P,K12,1*%
%TO.N,+5V*%
X158240000Y-69060000D03*
%TO.P,K12,3*%
%TO.N,Net-(K12-Pad3)*%
X158240000Y-71600000D03*
%TO.P,K12,5*%
%TO.N,/34401_B/34401B_I+*%
X158240000Y-76680000D03*
%TO.P,K12,6*%
%TO.N,K12_RESET*%
X158240000Y-81610000D03*
%TD*%
%TO.P,K11,4*%
%TO.N,/34401_A/COOLERV_div4*%
X96192000Y-63522000D03*
%TO.P,K11,9*%
%TO.N,/34401_A/GNDA*%
X106142000Y-63517000D03*
D12*
X103792000Y-63522000D03*
%TO.P,K11,4*%
%TO.N,/34401_A/COOLERV_div4*%
X98712000Y-63522000D03*
%TO.P,K11,8*%
%TO.N,Net-(K11-Pad8)*%
X103792000Y-60982000D03*
%TO.P,K11,7*%
%TO.N,K11_SET*%
X103792000Y-58442000D03*
%TO.P,K11,10*%
%TO.N,/34401_A/34401A_RTN*%
X103792000Y-66062000D03*
%TO.P,K11,6*%
%TO.N,K11_RESET*%
X98712000Y-71142000D03*
D13*
%TO.P,K11,1*%
%TO.N,+5V*%
X98712000Y-58442000D03*
D12*
%TO.P,K11,12*%
X103792000Y-71142000D03*
%TO.P,K11,3*%
%TO.N,Net-(K11-Pad3)*%
X98712000Y-60982000D03*
%TO.P,K11,5*%
%TO.N,/34401_A/34401A_V+*%
X98712000Y-66062000D03*
D11*
%TO.P,K11,12*%
%TO.N,+5V*%
X106092000Y-71142000D03*
%TO.P,K11,10*%
%TO.N,/34401_A/34401A_RTN*%
X106142000Y-66067000D03*
%TO.P,K11,8*%
%TO.N,Net-(K11-Pad8)*%
X106142000Y-61017000D03*
%TO.P,K11,7*%
%TO.N,K11_SET*%
X106192000Y-58417000D03*
%TO.P,K11,1*%
%TO.N,+5V*%
X96192000Y-58442000D03*
%TO.P,K11,3*%
%TO.N,Net-(K11-Pad3)*%
X96192000Y-60982000D03*
%TO.P,K11,5*%
%TO.N,/34401_A/34401A_V+*%
X96192000Y-66062000D03*
%TO.P,K11,6*%
%TO.N,K11_RESET*%
X96192000Y-70992000D03*
%TD*%
%TO.P,K10,4*%
%TO.N,DAC_AUX_BUF*%
X123710000Y-68960000D03*
%TO.P,K10,9*%
%TO.N,/34401_A/GNDA*%
X123715000Y-78910000D03*
D12*
X123710000Y-76560000D03*
%TO.P,K10,4*%
%TO.N,DAC_AUX_BUF*%
X123710000Y-71480000D03*
%TO.P,K10,8*%
%TO.N,Net-(K10-Pad8)*%
X126250000Y-76560000D03*
%TO.P,K10,7*%
%TO.N,K10_SET*%
X128790000Y-76560000D03*
%TO.P,K10,10*%
%TO.N,/34401_A/34401A_RTN*%
X121170000Y-76560000D03*
%TO.P,K10,6*%
%TO.N,K10_RESET*%
X116090000Y-71480000D03*
D13*
%TO.P,K10,1*%
%TO.N,+5V*%
X128790000Y-71480000D03*
D12*
%TO.P,K10,12*%
X116090000Y-76560000D03*
%TO.P,K10,3*%
%TO.N,Net-(K10-Pad3)*%
X126250000Y-71480000D03*
%TO.P,K10,5*%
%TO.N,/34401_A/34401A_V+*%
X121170000Y-71480000D03*
D11*
%TO.P,K10,12*%
%TO.N,+5V*%
X116090000Y-78860000D03*
%TO.P,K10,10*%
%TO.N,/34401_A/34401A_RTN*%
X121165000Y-78910000D03*
%TO.P,K10,8*%
%TO.N,Net-(K10-Pad8)*%
X126215000Y-78910000D03*
%TO.P,K10,7*%
%TO.N,K10_SET*%
X128815000Y-78960000D03*
%TO.P,K10,1*%
%TO.N,+5V*%
X128790000Y-68960000D03*
%TO.P,K10,3*%
%TO.N,Net-(K10-Pad3)*%
X126250000Y-68960000D03*
%TO.P,K10,5*%
%TO.N,/34401_A/34401A_V+*%
X121170000Y-68960000D03*
%TO.P,K10,6*%
%TO.N,K10_RESET*%
X116240000Y-68960000D03*
%TD*%
%TO.P,K9,4*%
%TO.N,/34401_A/2V5_filt*%
X129078000Y-103578000D03*
%TO.P,K9,9*%
%TO.N,/34401_A/GNDA*%
X129083000Y-113528000D03*
D12*
X129078000Y-111178000D03*
%TO.P,K9,4*%
%TO.N,/34401_A/2V5_filt*%
X129078000Y-106098000D03*
%TO.P,K9,8*%
%TO.N,Net-(K9-Pad8)*%
X131618000Y-111178000D03*
%TO.P,K9,7*%
%TO.N,K9_SET*%
X134158000Y-111178000D03*
%TO.P,K9,10*%
%TO.N,/34401_A/34401A_RTN*%
X126538000Y-111178000D03*
%TO.P,K9,6*%
%TO.N,K9_RESET*%
X121458000Y-106098000D03*
D13*
%TO.P,K9,1*%
%TO.N,+5V*%
X134158000Y-106098000D03*
D12*
%TO.P,K9,12*%
X121458000Y-111178000D03*
%TO.P,K9,3*%
%TO.N,Net-(K9-Pad3)*%
X131618000Y-106098000D03*
%TO.P,K9,5*%
%TO.N,/34401_A/34401A_V+*%
X126538000Y-106098000D03*
D11*
%TO.P,K9,12*%
%TO.N,+5V*%
X121458000Y-113478000D03*
%TO.P,K9,10*%
%TO.N,/34401_A/34401A_RTN*%
X126533000Y-113528000D03*
%TO.P,K9,8*%
%TO.N,Net-(K9-Pad8)*%
X131583000Y-113528000D03*
%TO.P,K9,7*%
%TO.N,K9_SET*%
X134183000Y-113578000D03*
%TO.P,K9,1*%
%TO.N,+5V*%
X134158000Y-103578000D03*
%TO.P,K9,3*%
%TO.N,Net-(K9-Pad3)*%
X131618000Y-103578000D03*
%TO.P,K9,5*%
%TO.N,/34401_A/34401A_V+*%
X126538000Y-103578000D03*
%TO.P,K9,6*%
%TO.N,K9_RESET*%
X121608000Y-103578000D03*
%TD*%
%TO.P,K8,4*%
%TO.N,/34401_A/LOAD+*%
X78890000Y-73704360D03*
%TO.P,K8,9*%
%TO.N,/34401_A/LOAD_RTN*%
X78885000Y-63754360D03*
D12*
X78890000Y-66104360D03*
%TO.P,K8,4*%
%TO.N,/34401_A/LOAD+*%
X78890000Y-71184360D03*
%TO.P,K8,8*%
%TO.N,Net-(K8-Pad8)*%
X76350000Y-66104360D03*
%TO.P,K8,7*%
%TO.N,K8_SET*%
X73810000Y-66104360D03*
%TO.P,K8,10*%
%TO.N,/34401_A/34401A_RTN*%
X81430000Y-66104360D03*
%TO.P,K8,6*%
%TO.N,K8_RESET*%
X86510000Y-71184360D03*
D13*
%TO.P,K8,1*%
%TO.N,+5V*%
X73810000Y-71184360D03*
D12*
%TO.P,K8,12*%
X86510000Y-66104360D03*
%TO.P,K8,3*%
%TO.N,Net-(K8-Pad3)*%
X76350000Y-71184360D03*
%TO.P,K8,5*%
%TO.N,/34401_A/34401A_V+*%
X81430000Y-71184360D03*
D11*
%TO.P,K8,12*%
%TO.N,+5V*%
X86510000Y-63804360D03*
%TO.P,K8,10*%
%TO.N,/34401_A/34401A_RTN*%
X81435000Y-63754360D03*
%TO.P,K8,8*%
%TO.N,Net-(K8-Pad8)*%
X76385000Y-63754360D03*
%TO.P,K8,7*%
%TO.N,K8_SET*%
X73785000Y-63704360D03*
%TO.P,K8,1*%
%TO.N,+5V*%
X73810000Y-73704360D03*
%TO.P,K8,3*%
%TO.N,Net-(K8-Pad3)*%
X76350000Y-73704360D03*
%TO.P,K8,5*%
%TO.N,/34401_A/34401A_V+*%
X81430000Y-73704360D03*
%TO.P,K8,6*%
%TO.N,K8_RESET*%
X86360000Y-73704360D03*
%TD*%
%TO.P,K7,4*%
%TO.N,/Resistor_Array/RES_RTN*%
X165910000Y-134250000D03*
%TO.P,K7,9*%
%TO.N,/Resistor_Array/RES_IN*%
X165905000Y-124300000D03*
D12*
X165910000Y-126650000D03*
%TO.P,K7,4*%
%TO.N,/Resistor_Array/RES_RTN*%
X165910000Y-131730000D03*
%TO.P,K7,8*%
%TO.N,Net-(K7-Pad8)*%
X163370000Y-126650000D03*
%TO.P,K7,7*%
%TO.N,K7_SET*%
X160830000Y-126650000D03*
%TO.P,K7,10*%
%TO.N,Net-(K7-Pad10)*%
X168450000Y-126650000D03*
%TO.P,K7,6*%
%TO.N,K7_RESET*%
X173530000Y-131730000D03*
D13*
%TO.P,K7,1*%
%TO.N,+5V*%
X160830000Y-131730000D03*
D12*
%TO.P,K7,12*%
X173530000Y-126650000D03*
%TO.P,K7,3*%
%TO.N,Net-(K7-Pad3)*%
X163370000Y-131730000D03*
%TO.P,K7,5*%
%TO.N,Net-(K7-Pad5)*%
X168450000Y-131730000D03*
D11*
%TO.P,K7,12*%
%TO.N,+5V*%
X173530000Y-124350000D03*
%TO.P,K7,10*%
%TO.N,Net-(K7-Pad10)*%
X168455000Y-124300000D03*
%TO.P,K7,8*%
%TO.N,Net-(K7-Pad8)*%
X163405000Y-124300000D03*
%TO.P,K7,7*%
%TO.N,K7_SET*%
X160805000Y-124250000D03*
%TO.P,K7,1*%
%TO.N,+5V*%
X160830000Y-134250000D03*
%TO.P,K7,3*%
%TO.N,Net-(K7-Pad3)*%
X163370000Y-134250000D03*
%TO.P,K7,5*%
%TO.N,Net-(K7-Pad5)*%
X168450000Y-134250000D03*
%TO.P,K7,6*%
%TO.N,K7_RESET*%
X173380000Y-134250000D03*
%TD*%
%TO.P,K6,4*%
%TO.N,/Resistor_Array/RES_RTN*%
X53650000Y-133512000D03*
%TO.P,K6,9*%
%TO.N,/Resistor_Array/RES_IN*%
X53645000Y-123562000D03*
D12*
X53650000Y-125912000D03*
%TO.P,K6,4*%
%TO.N,/Resistor_Array/RES_RTN*%
X53650000Y-130992000D03*
%TO.P,K6,8*%
%TO.N,Net-(K6-Pad8)*%
X51110000Y-125912000D03*
%TO.P,K6,7*%
%TO.N,K6_SET*%
X48570000Y-125912000D03*
%TO.P,K6,10*%
%TO.N,Net-(K6-Pad10)*%
X56190000Y-125912000D03*
%TO.P,K6,6*%
%TO.N,K6_RESET*%
X61270000Y-130992000D03*
D13*
%TO.P,K6,1*%
%TO.N,+5V*%
X48570000Y-130992000D03*
D12*
%TO.P,K6,12*%
X61270000Y-125912000D03*
%TO.P,K6,3*%
%TO.N,Net-(K6-Pad3)*%
X51110000Y-130992000D03*
%TO.P,K6,5*%
%TO.N,Net-(K6-Pad5)*%
X56190000Y-130992000D03*
D11*
%TO.P,K6,12*%
%TO.N,+5V*%
X61270000Y-123612000D03*
%TO.P,K6,10*%
%TO.N,Net-(K6-Pad10)*%
X56195000Y-123562000D03*
%TO.P,K6,8*%
%TO.N,Net-(K6-Pad8)*%
X51145000Y-123562000D03*
%TO.P,K6,7*%
%TO.N,K6_SET*%
X48545000Y-123512000D03*
%TO.P,K6,1*%
%TO.N,+5V*%
X48570000Y-133512000D03*
%TO.P,K6,3*%
%TO.N,Net-(K6-Pad3)*%
X51110000Y-133512000D03*
%TO.P,K6,5*%
%TO.N,Net-(K6-Pad5)*%
X56190000Y-133512000D03*
%TO.P,K6,6*%
%TO.N,K6_RESET*%
X61120000Y-133512000D03*
%TD*%
%TO.P,K5,4*%
%TO.N,/Resistor_Array/RES_RTN*%
X76980000Y-133400000D03*
%TO.P,K5,9*%
%TO.N,/Resistor_Array/RES_IN*%
X76975000Y-123450000D03*
D12*
X76980000Y-125800000D03*
%TO.P,K5,4*%
%TO.N,/Resistor_Array/RES_RTN*%
X76980000Y-130880000D03*
%TO.P,K5,8*%
%TO.N,Net-(K5-Pad8)*%
X74440000Y-125800000D03*
%TO.P,K5,7*%
%TO.N,K5_SET*%
X71900000Y-125800000D03*
%TO.P,K5,10*%
%TO.N,Net-(K5-Pad10)*%
X79520000Y-125800000D03*
%TO.P,K5,6*%
%TO.N,K5_RESET*%
X84600000Y-130880000D03*
D13*
%TO.P,K5,1*%
%TO.N,+5V*%
X71900000Y-130880000D03*
D12*
%TO.P,K5,12*%
X84600000Y-125800000D03*
%TO.P,K5,3*%
%TO.N,Net-(K5-Pad3)*%
X74440000Y-130880000D03*
%TO.P,K5,5*%
%TO.N,Net-(K5-Pad5)*%
X79520000Y-130880000D03*
D11*
%TO.P,K5,12*%
%TO.N,+5V*%
X84600000Y-123500000D03*
%TO.P,K5,10*%
%TO.N,Net-(K5-Pad10)*%
X79525000Y-123450000D03*
%TO.P,K5,8*%
%TO.N,Net-(K5-Pad8)*%
X74475000Y-123450000D03*
%TO.P,K5,7*%
%TO.N,K5_SET*%
X71875000Y-123400000D03*
%TO.P,K5,1*%
%TO.N,+5V*%
X71900000Y-133400000D03*
%TO.P,K5,3*%
%TO.N,Net-(K5-Pad3)*%
X74440000Y-133400000D03*
%TO.P,K5,5*%
%TO.N,Net-(K5-Pad5)*%
X79520000Y-133400000D03*
%TO.P,K5,6*%
%TO.N,K5_RESET*%
X84450000Y-133400000D03*
%TD*%
%TO.P,K4,4*%
%TO.N,/Resistor_Array/RES_RTN*%
X99200000Y-133688000D03*
%TO.P,K4,9*%
%TO.N,/Resistor_Array/RES_IN*%
X99195000Y-123738000D03*
D12*
X99200000Y-126088000D03*
%TO.P,K4,4*%
%TO.N,/Resistor_Array/RES_RTN*%
X99200000Y-131168000D03*
%TO.P,K4,8*%
%TO.N,Net-(K4-Pad8)*%
X96660000Y-126088000D03*
%TO.P,K4,7*%
%TO.N,K4_SET*%
X94120000Y-126088000D03*
%TO.P,K4,10*%
%TO.N,Net-(K4-Pad10)*%
X101740000Y-126088000D03*
%TO.P,K4,6*%
%TO.N,K4_RESET*%
X106820000Y-131168000D03*
D13*
%TO.P,K4,1*%
%TO.N,+5V*%
X94120000Y-131168000D03*
D12*
%TO.P,K4,12*%
X106820000Y-126088000D03*
%TO.P,K4,3*%
%TO.N,Net-(K4-Pad3)*%
X96660000Y-131168000D03*
%TO.P,K4,5*%
%TO.N,Net-(K4-Pad5)*%
X101740000Y-131168000D03*
D11*
%TO.P,K4,12*%
%TO.N,+5V*%
X106820000Y-123788000D03*
%TO.P,K4,10*%
%TO.N,Net-(K4-Pad10)*%
X101745000Y-123738000D03*
%TO.P,K4,8*%
%TO.N,Net-(K4-Pad8)*%
X96695000Y-123738000D03*
%TO.P,K4,7*%
%TO.N,K4_SET*%
X94095000Y-123688000D03*
%TO.P,K4,1*%
%TO.N,+5V*%
X94120000Y-133688000D03*
%TO.P,K4,3*%
%TO.N,Net-(K4-Pad3)*%
X96660000Y-133688000D03*
%TO.P,K4,5*%
%TO.N,Net-(K4-Pad5)*%
X101740000Y-133688000D03*
%TO.P,K4,6*%
%TO.N,K4_RESET*%
X106670000Y-133688000D03*
%TD*%
%TO.P,K3,4*%
%TO.N,/Resistor_Array/RES_RTN*%
X122240000Y-133844000D03*
%TO.P,K3,9*%
%TO.N,/Resistor_Array/RES_IN*%
X122235000Y-123894000D03*
D12*
X122240000Y-126244000D03*
%TO.P,K3,4*%
%TO.N,/Resistor_Array/RES_RTN*%
X122240000Y-131324000D03*
%TO.P,K3,8*%
%TO.N,Net-(K3-Pad8)*%
X119700000Y-126244000D03*
%TO.P,K3,7*%
%TO.N,K3_SET*%
X117160000Y-126244000D03*
%TO.P,K3,10*%
%TO.N,Net-(K3-Pad10)*%
X124780000Y-126244000D03*
%TO.P,K3,6*%
%TO.N,K3_RESET*%
X129860000Y-131324000D03*
D13*
%TO.P,K3,1*%
%TO.N,+5V*%
X117160000Y-131324000D03*
D12*
%TO.P,K3,12*%
X129860000Y-126244000D03*
%TO.P,K3,3*%
%TO.N,Net-(K3-Pad3)*%
X119700000Y-131324000D03*
%TO.P,K3,5*%
%TO.N,Net-(K3-Pad5)*%
X124780000Y-131324000D03*
D11*
%TO.P,K3,12*%
%TO.N,+5V*%
X129860000Y-123944000D03*
%TO.P,K3,10*%
%TO.N,Net-(K3-Pad10)*%
X124785000Y-123894000D03*
%TO.P,K3,8*%
%TO.N,Net-(K3-Pad8)*%
X119735000Y-123894000D03*
%TO.P,K3,7*%
%TO.N,K3_SET*%
X117135000Y-123844000D03*
%TO.P,K3,1*%
%TO.N,+5V*%
X117160000Y-133844000D03*
%TO.P,K3,3*%
%TO.N,Net-(K3-Pad3)*%
X119700000Y-133844000D03*
%TO.P,K3,5*%
%TO.N,Net-(K3-Pad5)*%
X124780000Y-133844000D03*
%TO.P,K3,6*%
%TO.N,K3_RESET*%
X129710000Y-133844000D03*
%TD*%
%TO.P,K2,4*%
%TO.N,/Resistor_Array/RES_RTN*%
X144396000Y-134372000D03*
%TO.P,K2,9*%
%TO.N,/Resistor_Array/RES_IN*%
X144391000Y-124422000D03*
D12*
X144396000Y-126772000D03*
%TO.P,K2,4*%
%TO.N,/Resistor_Array/RES_RTN*%
X144396000Y-131852000D03*
%TO.P,K2,8*%
%TO.N,Net-(K2-Pad8)*%
X141856000Y-126772000D03*
%TO.P,K2,7*%
%TO.N,K2_SET*%
X139316000Y-126772000D03*
%TO.P,K2,10*%
%TO.N,Net-(K2-Pad10)*%
X146936000Y-126772000D03*
%TO.P,K2,6*%
%TO.N,K2_RESET*%
X152016000Y-131852000D03*
D13*
%TO.P,K2,1*%
%TO.N,+5V*%
X139316000Y-131852000D03*
D12*
%TO.P,K2,12*%
X152016000Y-126772000D03*
%TO.P,K2,3*%
%TO.N,Net-(K2-Pad3)*%
X141856000Y-131852000D03*
%TO.P,K2,5*%
%TO.N,Net-(K2-Pad5)*%
X146936000Y-131852000D03*
D11*
%TO.P,K2,12*%
%TO.N,+5V*%
X152016000Y-124472000D03*
%TO.P,K2,10*%
%TO.N,Net-(K2-Pad10)*%
X146941000Y-124422000D03*
%TO.P,K2,8*%
%TO.N,Net-(K2-Pad8)*%
X141891000Y-124422000D03*
%TO.P,K2,7*%
%TO.N,K2_SET*%
X139291000Y-124372000D03*
%TO.P,K2,1*%
%TO.N,+5V*%
X139316000Y-134372000D03*
%TO.P,K2,3*%
%TO.N,Net-(K2-Pad3)*%
X141856000Y-134372000D03*
%TO.P,K2,5*%
%TO.N,Net-(K2-Pad5)*%
X146936000Y-134372000D03*
%TO.P,K2,6*%
%TO.N,K2_RESET*%
X151866000Y-134372000D03*
%TD*%
%TO.P,K1,4*%
%TO.N,/PWR_IN*%
X100752360Y-104864000D03*
%TO.P,K1,9*%
%TO.N,/PWR_RTN*%
X90802360Y-104869000D03*
D12*
X93152360Y-104864000D03*
%TO.P,K1,4*%
%TO.N,/PWR_IN*%
X98232360Y-104864000D03*
%TO.P,K1,8*%
%TO.N,/Resistor_Array/RES_RTN*%
X93152360Y-107404000D03*
%TO.P,K1,7*%
%TO.N,K1_SET*%
X93152360Y-109944000D03*
%TO.P,K1,10*%
%TO.N,Net-(J5-Pad1)*%
X93152360Y-102324000D03*
%TO.P,K1,6*%
%TO.N,K1_RESET*%
X98232360Y-97244000D03*
D13*
%TO.P,K1,1*%
%TO.N,+5V*%
X98232360Y-109944000D03*
D12*
%TO.P,K1,12*%
X93152360Y-97244000D03*
%TO.P,K1,3*%
%TO.N,/Resistor_Array/RES_IN*%
X98232360Y-107404000D03*
%TO.P,K1,5*%
%TO.N,Net-(J7-Pad1)*%
X98232360Y-102324000D03*
D11*
%TO.P,K1,12*%
%TO.N,+5V*%
X90852360Y-97244000D03*
%TO.P,K1,10*%
%TO.N,Net-(J5-Pad1)*%
X90802360Y-102319000D03*
%TO.P,K1,8*%
%TO.N,/Resistor_Array/RES_RTN*%
X90802360Y-107369000D03*
%TO.P,K1,7*%
%TO.N,K1_SET*%
X90752360Y-109969000D03*
%TO.P,K1,1*%
%TO.N,+5V*%
X100752360Y-109944000D03*
%TO.P,K1,3*%
%TO.N,/Resistor_Array/RES_IN*%
X100752360Y-107404000D03*
%TO.P,K1,5*%
%TO.N,Net-(J7-Pad1)*%
X100752360Y-102324000D03*
%TO.P,K1,6*%
%TO.N,K1_RESET*%
X100752360Y-97394000D03*
%TD*%
D21*
%TO.P,C49,2*%
%TO.N,PI_GND*%
X71190000Y-33800000D03*
D22*
%TO.P,C49,1*%
%TO.N,+5V*%
X76190000Y-33800000D03*
%TD*%
D21*
%TO.P,C48,2*%
%TO.N,PI_GND*%
X59026000Y-113012000D03*
D22*
%TO.P,C48,1*%
%TO.N,PI_+5V*%
X59026000Y-108012000D03*
%TD*%
D23*
%TO.P,C35,2*%
%TO.N,PI_GND*%
X84390000Y-53430000D03*
D24*
%TO.P,C35,1*%
%TO.N,+6V*%
X79390000Y-53430000D03*
%TD*%
D25*
%TO.N,K1_RESET*%
X104678000Y-106092000D03*
X104678000Y-105452000D03*
X104678000Y-104822000D03*
%TO.N,+5V*%
X85326000Y-106934000D03*
X85330000Y-105450000D03*
X85320000Y-106150000D03*
X96453000Y-113777000D03*
X96453000Y-114377000D03*
X96453000Y-115023000D03*
X149570000Y-129120000D03*
X150220000Y-129120000D03*
X150960000Y-129120000D03*
X151650000Y-129120000D03*
X44070000Y-130710000D03*
X44070000Y-129860000D03*
X47540000Y-129320000D03*
X172395000Y-127785000D03*
X171945000Y-128235000D03*
X171465000Y-128715000D03*
X134608000Y-98082000D03*
X134608000Y-97412000D03*
X134608000Y-96672000D03*
X119050000Y-81820000D03*
X119530000Y-82300000D03*
X118555000Y-81325000D03*
X130182000Y-117588000D03*
X129552000Y-117588000D03*
X128902000Y-117588000D03*
X138680000Y-107200000D03*
X138680000Y-106490000D03*
X138680000Y-105740000D03*
X152454000Y-64446000D03*
X152454000Y-65106000D03*
X152454000Y-65756000D03*
X173195000Y-105195000D03*
X173510000Y-104690000D03*
X173510000Y-104060000D03*
X132005000Y-72275000D03*
X132120000Y-71640000D03*
X132120000Y-70980000D03*
X100155000Y-54595000D03*
X100155000Y-53915000D03*
X100155000Y-53295000D03*
X109540000Y-62170000D03*
X109540000Y-62760000D03*
X140560000Y-44950000D03*
X140560000Y-45550000D03*
X140560000Y-46170000D03*
D26*
X106360000Y-110530000D03*
X106360000Y-111390000D03*
X108710000Y-99150000D03*
X108160000Y-98600000D03*
X105310000Y-93970000D03*
X104580000Y-93970000D03*
X111230000Y-104540000D03*
X112050000Y-104510000D03*
X107405000Y-116625000D03*
X106602500Y-115562500D03*
D25*
%TO.N,K2_RESET*%
X143778000Y-138282000D03*
X144668000Y-138282000D03*
%TO.N,K3_RESET*%
X121536000Y-137684000D03*
X120806000Y-137684000D03*
%TO.N,K4_RESET*%
X98430000Y-137590000D03*
X97760000Y-137590000D03*
%TO.N,K5_RESET*%
X76240000Y-137390000D03*
X75440000Y-137390000D03*
%TO.N,K6_RESET*%
X52204000Y-137396000D03*
X52884000Y-137396000D03*
%TO.N,K2_RESET_SIGNL*%
X178230000Y-135490000D03*
X178230000Y-136180000D03*
X155375000Y-137385000D03*
X155780000Y-137790000D03*
X156355000Y-138005000D03*
X111620000Y-135650000D03*
X112200000Y-135640000D03*
X112750000Y-135640000D03*
X67290000Y-134520000D03*
X67695000Y-134965000D03*
X68125000Y-135395000D03*
X84940000Y-135640000D03*
X85550000Y-135640000D03*
X86290000Y-135640000D03*
X116130000Y-38740000D03*
X117030000Y-38740000D03*
%TO.N,BANK_B_RESET*%
X136145000Y-75385000D03*
X136145000Y-74735000D03*
X136145000Y-74165000D03*
X129400000Y-62000000D03*
X129400000Y-62620000D03*
%TO.N,BANK_A_RESET*%
X109090000Y-71880000D03*
X109090000Y-72510000D03*
X109090000Y-73120000D03*
X91330000Y-77280000D03*
X91630000Y-77900000D03*
X92400000Y-78320000D03*
X99360000Y-78340000D03*
X98745000Y-78275000D03*
X103596000Y-81614000D03*
X102966000Y-81614000D03*
%TO.N,+6V*%
X66310000Y-42210000D03*
X66310000Y-41480000D03*
X66760000Y-40930000D03*
X67380000Y-40930000D03*
X82720000Y-108070000D03*
X82720000Y-108630000D03*
X82720000Y-109240000D03*
X69900000Y-76130000D03*
X69900000Y-75460000D03*
X69900000Y-74760000D03*
X69900000Y-74040000D03*
X69900000Y-73340000D03*
X83070000Y-96130000D03*
X83070000Y-95370000D03*
X83090000Y-97580000D03*
X83090000Y-96880000D03*
%TO.N,PI_GND*%
X75642500Y-47007500D03*
X76570000Y-46960000D03*
X77295000Y-46235000D03*
X77885000Y-45645000D03*
X79170000Y-44360000D03*
X78775500Y-101564500D03*
X81245500Y-101564500D03*
X76396500Y-102136500D03*
X72303000Y-102997000D03*
X74493000Y-102997000D03*
X154850000Y-125110000D03*
X155275000Y-125535000D03*
X156436000Y-131734000D03*
X156436000Y-131026000D03*
X179030000Y-130350000D03*
X179760000Y-130250000D03*
X179760000Y-129490000D03*
X42820000Y-127230000D03*
X42820000Y-126480000D03*
X43235000Y-125935000D03*
X89750000Y-133700000D03*
X90380000Y-133700000D03*
X91010000Y-133700000D03*
X66860000Y-130550000D03*
X67470000Y-130530000D03*
X88980000Y-126930000D03*
X89435000Y-126475000D03*
X134380000Y-127540000D03*
X134370000Y-126920000D03*
X134380000Y-126300000D03*
X139870000Y-110670000D03*
X139870000Y-111280000D03*
X139870000Y-111880000D03*
X92348000Y-115592000D03*
X92348000Y-116232000D03*
X112082000Y-126342000D03*
X111627000Y-126797000D03*
X117300000Y-107270000D03*
X117290000Y-106550000D03*
X110520000Y-74520000D03*
X110510000Y-73870000D03*
X166285000Y-63595000D03*
X165810000Y-63120000D03*
X165010000Y-62770000D03*
X146808000Y-55032000D03*
X146860000Y-54460000D03*
X147465000Y-55575000D03*
X173970000Y-109180000D03*
X173970000Y-108570000D03*
X152318000Y-105502000D03*
X152318000Y-106142000D03*
X152318000Y-106762000D03*
X98286000Y-92704000D03*
X97696000Y-92704000D03*
X97106000Y-92704000D03*
X99844000Y-76736000D03*
X99844000Y-77306000D03*
X103210000Y-53230000D03*
X103210000Y-53900000D03*
X92120000Y-72110000D03*
X92710000Y-72120000D03*
X92770000Y-72790000D03*
X139390000Y-79100000D03*
X140040000Y-79000000D03*
X140510000Y-78530000D03*
X133392000Y-76408000D03*
X133392000Y-75798000D03*
X130720000Y-59350000D03*
X130720000Y-59960000D03*
X67830000Y-65280000D03*
X68450000Y-65280000D03*
X155370000Y-98640000D03*
X154925000Y-99085000D03*
X154690000Y-99700000D03*
X134180000Y-36080000D03*
X133640000Y-35690000D03*
X132970000Y-35690000D03*
X71606000Y-116524000D03*
X71600000Y-117090000D03*
X71600000Y-115930000D03*
D26*
X110175000Y-99775000D03*
X110175000Y-98945000D03*
X105485000Y-95835000D03*
X104755000Y-95835000D03*
X110460000Y-120340000D03*
X109710000Y-120340000D03*
X108910000Y-120340000D03*
X101685000Y-114225000D03*
X102380000Y-113720000D03*
X111880000Y-112600000D03*
X111900000Y-109370000D03*
X111880000Y-116590000D03*
X110510000Y-110980000D03*
X109750000Y-111560000D03*
X116610000Y-117450000D03*
X115750000Y-117450000D03*
X52520000Y-36890000D03*
X52520000Y-37680000D03*
X59440000Y-80310000D03*
X51060000Y-59410000D03*
X51060000Y-60210000D03*
X51315000Y-90315000D03*
X50505000Y-90315000D03*
X59470000Y-94380000D03*
X60035000Y-94945000D03*
X96897500Y-39512500D03*
X94703750Y-38496250D03*
X93475000Y-38095000D03*
%TO.N,PI_+5V*%
X56080000Y-48270000D03*
X56235000Y-47475000D03*
X46520000Y-39600000D03*
X47350000Y-39600000D03*
D25*
%TO.N,K7_RESET*%
X164640000Y-138210000D03*
X165250000Y-138210000D03*
X173380000Y-135620000D03*
X173380000Y-136240000D03*
D26*
%TO.N,/34401_A/2V5_filt*%
X122250000Y-99020000D03*
X121440000Y-99020000D03*
X120630000Y-99020000D03*
%TO.N,/34401_A/GNDA*%
X67220000Y-51090000D03*
X66280000Y-51090000D03*
X95430000Y-51090000D03*
X94630000Y-51090000D03*
X93830000Y-51090000D03*
D25*
%TO.N,/34401_A/34401A_RTN*%
X95940000Y-68410000D03*
X96540000Y-68410000D03*
X97150000Y-68410000D03*
X97790000Y-68410000D03*
%TO.N,/Resistor_Array/RES_IN*%
X98120000Y-116960000D03*
X98120000Y-116350000D03*
X98120000Y-115710000D03*
X98120000Y-115020000D03*
X62620000Y-120610000D03*
X63310000Y-120610000D03*
X64030000Y-120610000D03*
X64770000Y-120610000D03*
%TO.N,K10_SET_SIGNL*%
X158680000Y-117220000D03*
X159320000Y-117220000D03*
%TO.N,K13_SET_SIGNL*%
X129270000Y-34870000D03*
X129910000Y-34870000D03*
X130560000Y-34870000D03*
%TO.N,K9_SET_SIGNL*%
X144322000Y-114348000D03*
X143702000Y-114348000D03*
X143022000Y-114348000D03*
%TO.N,K8_SET_SIGNL*%
X69120000Y-60260000D03*
X69130000Y-59640000D03*
%TO.N,RES_ARRAY_RESET_SIGNL*%
X112590000Y-36830000D03*
X111930000Y-36830000D03*
%TO.N,K7_SET_SIGNL*%
X158310000Y-119690000D03*
X157710000Y-119690000D03*
X157070000Y-119690000D03*
%TO.N,K15_SET_SIGNL*%
X145045000Y-53635000D03*
X144235000Y-53635000D03*
X134580000Y-51450000D03*
X133970000Y-51450000D03*
X129940000Y-51450000D03*
X130580000Y-51450000D03*
X90564999Y-56085001D03*
X91214999Y-56085001D03*
%TO.N,BANK_A_RESET_SIGNL*%
X90720000Y-66580000D03*
X90720000Y-65930000D03*
%TO.N,K6_SET_SIGNL*%
X43740000Y-119800000D03*
X43740000Y-118920000D03*
%TO.N,BANK_B_RESET_SIGNL*%
X87360000Y-58070000D03*
X88000000Y-58070000D03*
X111380000Y-46000000D03*
X110150000Y-46000000D03*
X110770000Y-46000000D03*
%TO.N,K5_SET_SIGNL*%
X65840000Y-119500000D03*
X65840000Y-118910000D03*
X67050000Y-62110000D03*
X67050000Y-61470000D03*
X67050000Y-60740000D03*
%TO.N,K4_SET_SIGNL*%
X68330000Y-118260000D03*
X67710000Y-118260000D03*
X67110000Y-118260000D03*
X67840000Y-67610000D03*
X68255000Y-67195000D03*
%TO.N,K3_SET_SIGNL*%
X103620000Y-117690000D03*
X104350000Y-117690000D03*
X56280000Y-71450000D03*
X56280000Y-70820000D03*
X56280000Y-70170000D03*
%TO.N,K2_SET_SIGNL*%
X130210000Y-119520000D03*
X129590000Y-119520000D03*
X103920000Y-115900000D03*
X103290000Y-115900000D03*
X56050000Y-75940000D03*
X56050000Y-75310000D03*
X56050000Y-74550000D03*
%TO.N,K1_RESET_SIGNL*%
X72050000Y-84980000D03*
X71470000Y-84980000D03*
X70860000Y-84980000D03*
X98070000Y-91150000D03*
X98710000Y-91150000D03*
X99300000Y-91150000D03*
D26*
%TO.N,K1_SET_SGNL*%
X65120000Y-93290000D03*
X64575000Y-93835000D03*
D25*
%TO.N,Net-(Q9-Pad1)*%
X113120000Y-38740000D03*
X112530000Y-38740000D03*
D26*
X120930000Y-30750000D03*
X121760000Y-30750000D03*
%TO.N,Vref_OUT*%
X119470000Y-115740000D03*
X118670000Y-115750000D03*
X117120000Y-110670000D03*
X116460000Y-110180000D03*
X118030000Y-115295000D03*
%TO.N,CAL_RESET*%
X52900000Y-88700000D03*
X52900000Y-87580000D03*
X48460000Y-96530000D03*
X48490000Y-95710000D03*
%TO.N,DAC_AUX*%
X112270000Y-97480000D03*
X111460000Y-97480000D03*
%TO.N,DAC_AUX_BUF*%
X108310000Y-108350000D03*
X107510000Y-108360000D03*
%TO.N,K16_SET_SIGNL*%
X58250000Y-40580000D03*
X58250000Y-39770000D03*
%TO.N,K17_SET_SIGNL*%
X55270000Y-59870000D03*
X55270000Y-60680000D03*
%TO.N,CAL_RESET_SIGNL*%
X51660000Y-84250000D03*
X50830000Y-84250000D03*
%TO.N,RX*%
X50780000Y-85360000D03*
X51590000Y-85350000D03*
%TO.N,TX*%
X53250000Y-86380000D03*
X52480000Y-86380000D03*
X48910000Y-81500000D03*
X49680000Y-81500000D03*
%TO.N,LTC2057_SHDN*%
X105570000Y-92680000D03*
X106370000Y-92680000D03*
X68450000Y-91310000D03*
X69270000Y-91310000D03*
X99550000Y-89900000D03*
X98760000Y-89900000D03*
%TD*%
D27*
%TO.N,+5V*%
X107405000Y-116365000D02*
X106602500Y-115562500D01*
X107405000Y-116625000D02*
X107405000Y-116365000D01*
X106602500Y-114842500D02*
X107725000Y-113720000D01*
X106602500Y-115562500D02*
X106602500Y-114842500D01*
D28*
X160830000Y-131730000D02*
X160430000Y-131730000D01*
X160430000Y-131730000D02*
X156170000Y-135990000D01*
X156170000Y-135990000D02*
X117570000Y-135990000D01*
X117160000Y-135580000D02*
X117160000Y-133844000D01*
X117570000Y-135990000D02*
X117160000Y-135580000D01*
X117160000Y-135580000D02*
X115450000Y-135580000D01*
X115450000Y-135580000D02*
X113990000Y-137040000D01*
X113990000Y-137040000D02*
X110590000Y-137040000D01*
X110590000Y-137040000D02*
X109300000Y-135750000D01*
X109300000Y-135750000D02*
X94540000Y-135750000D01*
X94120000Y-135330000D02*
X94120000Y-133688000D01*
X94540000Y-135750000D02*
X94120000Y-135330000D01*
X94540000Y-135750000D02*
X89270000Y-135750000D01*
X89270000Y-135750000D02*
X87400000Y-137620000D01*
X87400000Y-137620000D02*
X87400000Y-139660000D01*
X87400000Y-139660000D02*
X85700000Y-141360000D01*
X85700000Y-141360000D02*
X76290000Y-141360000D01*
X71900000Y-136970000D02*
X71900000Y-130880000D01*
X76290000Y-141360000D02*
X71900000Y-136970000D01*
X71900000Y-133400000D02*
X65900000Y-133400000D01*
X65900000Y-133400000D02*
X63980000Y-135320000D01*
X50378000Y-135320000D02*
X48570000Y-133512000D01*
X63980000Y-135320000D02*
X50378000Y-135320000D01*
X48570000Y-133512000D02*
X48570000Y-130992000D01*
%TO.N,PI_GND*%
X155100000Y-125110000D02*
X154850000Y-125110000D01*
X156436000Y-126446000D02*
X155100000Y-125110000D01*
D29*
X179760000Y-129490000D02*
X179760000Y-130250000D01*
X179130000Y-130250000D02*
X179030000Y-130350000D01*
X179760000Y-130250000D02*
X179130000Y-130250000D01*
X179030000Y-130350000D02*
X176990000Y-130350000D01*
X176990000Y-130350000D02*
X176280000Y-129640000D01*
X176280000Y-129640000D02*
X172110000Y-129640000D01*
X172110000Y-129640000D02*
X171540000Y-130210000D01*
X171540000Y-130210000D02*
X169890000Y-130210000D01*
X168664000Y-128984000D02*
X156436000Y-128984000D01*
X169890000Y-130210000D02*
X168664000Y-128984000D01*
D28*
X156436000Y-131734000D02*
X156436000Y-128984000D01*
X156436000Y-128984000D02*
X156436000Y-126446000D01*
X43235000Y-126065000D02*
X42820000Y-126480000D01*
X43235000Y-125935000D02*
X43235000Y-126065000D01*
X42820000Y-126480000D02*
X42820000Y-127230000D01*
D29*
X149120000Y-130220000D02*
X155120000Y-130150000D01*
X46170000Y-127230000D02*
X47070000Y-128130000D01*
X42820000Y-127230000D02*
X46170000Y-127230000D01*
D28*
X92680000Y-128130000D02*
X92847001Y-128297001D01*
D27*
X89750000Y-133700000D02*
X91010000Y-133700000D01*
D29*
X91010000Y-130134002D02*
X92847001Y-128297001D01*
X91010000Y-133700000D02*
X91010000Y-130134002D01*
D27*
X67470000Y-130530000D02*
X67020000Y-130080000D01*
X67020000Y-128460000D02*
X66690000Y-128130000D01*
X67020000Y-130080000D02*
X67020000Y-128460000D01*
D29*
X47070000Y-128130000D02*
X66690000Y-128130000D01*
X66690000Y-128130000D02*
X89190000Y-128130000D01*
X89190000Y-128130000D02*
X92680000Y-128130000D01*
D27*
X136337001Y-128297001D02*
X135057001Y-128297001D01*
X135057001Y-128297001D02*
X134370000Y-127610000D01*
X134370000Y-127740000D02*
X134370000Y-126290000D01*
D29*
X134380000Y-127540000D02*
X134380000Y-121470000D01*
X134380000Y-121470000D02*
X138530000Y-117320000D01*
X138530000Y-117320000D02*
X138530000Y-113220000D01*
D28*
X138530000Y-113220000D02*
X139870000Y-111880000D01*
X139870000Y-111880000D02*
X139870000Y-111280000D01*
X139870000Y-110670000D02*
X139870000Y-110670000D01*
X139870000Y-111280000D02*
X139870000Y-110670000D01*
X139870000Y-111880000D02*
X139870000Y-111880000D01*
X111477001Y-128297001D02*
X111477001Y-126946999D01*
X111477001Y-126946999D02*
X111627000Y-126797000D01*
D29*
X92847001Y-128297001D02*
X111477001Y-128297001D01*
X111477001Y-128297001D02*
X136337001Y-128297001D01*
D28*
X111627000Y-126797000D02*
X112082000Y-126342000D01*
D29*
X112082000Y-126342000D02*
X113710000Y-124714000D01*
D30*
X166285000Y-63595000D02*
X165810000Y-63120000D01*
X165810000Y-63120000D02*
X165430000Y-62740000D01*
X165040000Y-62740000D02*
X165010000Y-62770000D01*
X165430000Y-62740000D02*
X165040000Y-62740000D01*
D29*
X165010000Y-62770000D02*
X154660000Y-62770000D01*
X154660000Y-62770000D02*
X147465000Y-55575000D01*
D30*
X146860000Y-54970000D02*
X146860000Y-54460000D01*
X147465000Y-55575000D02*
X146860000Y-54970000D01*
D29*
X173970000Y-108570000D02*
X173970000Y-120010000D01*
X179760000Y-125800000D02*
X179760000Y-129490000D01*
X173970000Y-120010000D02*
X179760000Y-125800000D01*
X148410000Y-110670000D02*
X152318000Y-106762000D01*
X139870000Y-110670000D02*
X148410000Y-110670000D01*
D28*
X152318000Y-106762000D02*
X152318000Y-105502000D01*
D30*
X99844000Y-76736000D02*
X99844000Y-77306000D01*
D29*
X108546000Y-77306000D02*
X110500000Y-79260000D01*
X99844000Y-77306000D02*
X108546000Y-77306000D01*
X110500000Y-73830000D02*
X110500000Y-79260000D01*
X110500000Y-79260000D02*
X110500000Y-83810000D01*
X99844000Y-77306000D02*
X99844000Y-74266000D01*
X99844000Y-74266000D02*
X101300000Y-72810000D01*
X101300000Y-72810000D02*
X101300000Y-56290000D01*
D28*
X101300000Y-56290000D02*
X103210000Y-54380000D01*
X103210000Y-54380000D02*
X103210000Y-53900000D01*
X103210000Y-53230000D02*
X103210000Y-53230000D01*
X103210000Y-53900000D02*
X103210000Y-53230000D01*
X92700000Y-72110000D02*
X92710000Y-72120000D01*
X92120000Y-72110000D02*
X92700000Y-72110000D01*
X92710000Y-72730000D02*
X92770000Y-72790000D01*
X92710000Y-72120000D02*
X92710000Y-72730000D01*
D29*
X95328000Y-72790000D02*
X99844000Y-77306000D01*
X92770000Y-72790000D02*
X95328000Y-72790000D01*
D28*
X133392000Y-75798000D02*
X133392000Y-76408000D01*
D29*
X136698000Y-76408000D02*
X139390000Y-79100000D01*
X133392000Y-76408000D02*
X136698000Y-76408000D01*
D28*
X139940000Y-79100000D02*
X140040000Y-79000000D01*
X139390000Y-79100000D02*
X139940000Y-79100000D01*
X140040000Y-79000000D02*
X140510000Y-78530000D01*
X130720000Y-59350000D02*
X130720000Y-59960000D01*
D29*
X130720000Y-59350000D02*
X136690000Y-59350000D01*
X136690000Y-59350000D02*
X138720000Y-57320000D01*
X138720000Y-57320000D02*
X146420000Y-57320000D01*
D28*
X146860000Y-56880000D02*
X146860000Y-54460000D01*
X146420000Y-57320000D02*
X146860000Y-56880000D01*
X147465000Y-55065000D02*
X146860000Y-54460000D01*
X147465000Y-55575000D02*
X147465000Y-55065000D01*
D29*
X133392000Y-62632000D02*
X130720000Y-59960000D01*
X133392000Y-75798000D02*
X133392000Y-62632000D01*
X132420000Y-90840000D02*
X133950000Y-89310000D01*
D28*
X133950000Y-76966000D02*
X133392000Y-76408000D01*
D29*
X133950000Y-89310000D02*
X133950000Y-76966000D01*
X139870000Y-98290000D02*
X132420000Y-90840000D01*
X139870000Y-110670000D02*
X139870000Y-98290000D01*
D31*
X62125001Y-53595001D02*
X63440000Y-54910000D01*
X60900000Y-49830000D02*
X62125001Y-51055001D01*
X62125001Y-51055001D02*
X62125001Y-53595001D01*
X62125001Y-48604999D02*
X60900000Y-49830000D01*
X60900000Y-44750000D02*
X62125001Y-45975001D01*
X62125001Y-45975001D02*
X62125001Y-48604999D01*
X60900000Y-44750000D02*
X62125001Y-43524999D01*
X62125001Y-38444999D02*
X63440000Y-37130000D01*
X62125001Y-43524999D02*
X62125001Y-38444999D01*
X62214999Y-61215001D02*
X60900000Y-62530000D01*
X63440000Y-54910000D02*
X62214999Y-56135001D01*
X62214999Y-56135001D02*
X62214999Y-61215001D01*
X62125001Y-56224999D02*
X63440000Y-54910000D01*
X60900000Y-70150000D02*
X62125001Y-68924999D01*
X62125001Y-68924999D02*
X62125001Y-56224999D01*
X62125001Y-73915001D02*
X63440000Y-75230000D01*
X60900000Y-70150000D02*
X62125001Y-71375001D01*
X62125001Y-71375001D02*
X62125001Y-73915001D01*
X62125001Y-76544999D02*
X63440000Y-75230000D01*
X60900000Y-80310000D02*
X62125001Y-79084999D01*
X62125001Y-79084999D02*
X62125001Y-76544999D01*
D28*
X68450000Y-65280000D02*
X66940000Y-65280000D01*
X66940000Y-65280000D02*
X66670000Y-65550000D01*
X66670000Y-65550000D02*
X66670000Y-68200000D01*
D31*
X65945001Y-68924999D02*
X66670000Y-68200000D01*
X62125001Y-68924999D02*
X65945001Y-68924999D01*
D28*
X68450000Y-65280000D02*
X69430000Y-65280000D01*
X69430000Y-65280000D02*
X73080000Y-68930000D01*
D29*
X73080000Y-68930000D02*
X90290000Y-68930000D01*
D28*
X92770000Y-71410000D02*
X92770000Y-72790000D01*
D29*
X90290000Y-68930000D02*
X92770000Y-71410000D01*
D28*
X70906000Y-106862000D02*
X70906000Y-105826000D01*
D29*
X70906000Y-105826000D02*
X62060000Y-96980000D01*
D28*
X152318000Y-106762000D02*
X152318000Y-104302000D01*
X152318000Y-104302000D02*
X154690000Y-101930000D01*
X154690000Y-101930000D02*
X154690000Y-99700000D01*
X154690000Y-99320000D02*
X154925000Y-99085000D01*
X155370000Y-98640000D02*
X155370000Y-98640000D01*
X154925000Y-99085000D02*
X155370000Y-98640000D01*
X154690000Y-99700000D02*
X154690000Y-99320000D01*
X130720000Y-59350000D02*
X130720000Y-56650000D01*
X130720000Y-56650000D02*
X131950000Y-55420000D01*
X131950000Y-36710000D02*
X132970000Y-35690000D01*
X131950000Y-55420000D02*
X131950000Y-36710000D01*
X132970000Y-35690000D02*
X133640000Y-35690000D01*
X133790000Y-35690000D02*
X134180000Y-36080000D01*
X133640000Y-35690000D02*
X133790000Y-35690000D01*
X89435000Y-126475000D02*
X88980000Y-126930000D01*
X88980000Y-127920000D02*
X89190000Y-128130000D01*
X88980000Y-126930000D02*
X88980000Y-127920000D01*
X71606000Y-116524000D02*
X71606000Y-116524000D01*
D29*
X147600000Y-129180000D02*
X149110000Y-130220000D01*
X136337001Y-128297001D02*
X137220000Y-129180000D01*
X137220000Y-129180000D02*
X147600000Y-129180000D01*
X155160000Y-130130000D02*
X156436000Y-128984000D01*
D28*
X71606000Y-117044000D02*
X71606000Y-116524000D01*
X71600000Y-115930000D02*
X71606000Y-117044000D01*
X71606000Y-119374000D02*
X71600000Y-115930000D01*
X67020000Y-130080000D02*
X67020000Y-123960000D01*
X67020000Y-123960000D02*
X71606000Y-119374000D01*
X116850000Y-83810000D02*
X118610000Y-85570000D01*
X118610000Y-85570000D02*
X118610000Y-89760000D01*
X118610000Y-89760000D02*
X119690000Y-90840000D01*
D29*
X119690000Y-90840000D02*
X132420000Y-90840000D01*
D28*
X97106000Y-92704000D02*
X101286000Y-92704000D01*
X103950000Y-90040000D02*
X103950000Y-86090000D01*
X106230000Y-83810000D02*
X111770000Y-83810000D01*
X103950000Y-86090000D02*
X106230000Y-83810000D01*
X110500000Y-83810000D02*
X111770000Y-83810000D01*
X111770000Y-83810000D02*
X116850000Y-83810000D01*
X101286000Y-92704000D02*
X101620000Y-92370000D01*
X101620000Y-92370000D02*
X103950000Y-90040000D01*
D29*
X62060000Y-96980000D02*
X62060000Y-96970000D01*
X62060000Y-96970000D02*
X60035000Y-94945000D01*
X57960000Y-92870000D02*
X57960000Y-81380000D01*
X59030000Y-80310000D02*
X60900000Y-80310000D01*
X57960000Y-81380000D02*
X59030000Y-80310000D01*
X66670000Y-68200000D02*
X66670000Y-73760000D01*
X65200000Y-75230000D02*
X63440000Y-75230000D01*
X66670000Y-73760000D02*
X65200000Y-75230000D01*
X67860000Y-37130000D02*
X71190000Y-33800000D01*
X63440000Y-37130000D02*
X67860000Y-37130000D01*
D28*
X110175000Y-99775000D02*
X110175000Y-98605000D01*
X110175000Y-98605000D02*
X109070000Y-97500000D01*
X109070000Y-97500000D02*
X103730000Y-97500000D01*
X101286000Y-95056000D02*
X101286000Y-92704000D01*
X103730000Y-97500000D02*
X101286000Y-95056000D01*
X103730000Y-96860000D02*
X104755000Y-95835000D01*
X103730000Y-97500000D02*
X103730000Y-96860000D01*
X104755000Y-95835000D02*
X105485000Y-95835000D01*
D27*
X110460000Y-120340000D02*
X108910000Y-120340000D01*
X107835000Y-120340000D02*
X107290000Y-119795000D01*
X108910000Y-120340000D02*
X107835000Y-120340000D01*
X104475000Y-113720000D02*
X102380000Y-113720000D01*
X102190000Y-113720000D02*
X101685000Y-114225000D01*
X101685000Y-114225000D02*
X101630000Y-114280000D01*
X102380000Y-113720000D02*
X102190000Y-113720000D01*
D28*
X111900000Y-116570000D02*
X111880000Y-116590000D01*
X111900000Y-109370000D02*
X111900000Y-116570000D01*
X116855000Y-112600000D02*
X116980000Y-112725000D01*
X111880000Y-112600000D02*
X116855000Y-112600000D01*
X111880000Y-118920000D02*
X111880000Y-116590000D01*
X110460000Y-120340000D02*
X111880000Y-118920000D01*
X117300000Y-107270000D02*
X112530000Y-107270000D01*
X111900000Y-107900000D02*
X111900000Y-109370000D01*
X112530000Y-107270000D02*
X111900000Y-107900000D01*
X118565000Y-119405000D02*
X116610000Y-117450000D01*
X118870000Y-119405000D02*
X118565000Y-119405000D01*
X115750000Y-117450000D02*
X116610000Y-117450000D01*
X110460000Y-121464000D02*
X113710000Y-124714000D01*
X110460000Y-120340000D02*
X110460000Y-121464000D01*
X111590000Y-121470000D02*
X110460000Y-120340000D01*
X134380000Y-121470000D02*
X111590000Y-121470000D01*
D31*
X53284999Y-38444999D02*
X52520000Y-37680000D01*
X62125001Y-38444999D02*
X53284999Y-38444999D01*
D28*
X52520000Y-37680000D02*
X52520000Y-36890000D01*
D29*
X59470000Y-94380000D02*
X57960000Y-92870000D01*
X60035000Y-94945000D02*
X59470000Y-94380000D01*
D28*
X104560000Y-41240000D02*
X99310000Y-46490000D01*
X99310000Y-46490000D02*
X88340000Y-46490000D01*
X84390000Y-50440000D02*
X84390000Y-53430000D01*
X88340000Y-46490000D02*
X84390000Y-50440000D01*
X94302500Y-38095000D02*
X94703750Y-38496250D01*
X93475000Y-38095000D02*
X94302500Y-38095000D01*
X95881250Y-38496250D02*
X96897500Y-39512500D01*
X94703750Y-38496250D02*
X95881250Y-38496250D01*
X102832500Y-39512500D02*
X104560000Y-41240000D01*
X96897500Y-39512500D02*
X102832500Y-39512500D01*
%TO.N,/PWR_RTN*%
X93152360Y-104864000D02*
X88404000Y-104864000D01*
X88404000Y-104864000D02*
X83650000Y-100110000D01*
X74854000Y-100110000D02*
X70180000Y-95436000D01*
X83650000Y-100110000D02*
X74854000Y-100110000D01*
D30*
%TO.N,/34401_B/LOAD_RTN*%
X148519000Y-65652000D02*
X148524000Y-65647000D01*
X146174000Y-65652000D02*
X148519000Y-65652000D01*
D29*
X148524000Y-65647000D02*
X149997000Y-65647000D01*
X149997000Y-65647000D02*
X152360000Y-68010000D01*
X152360000Y-68010000D02*
X156220000Y-68010000D01*
X156220000Y-68010000D02*
X157750000Y-66480000D01*
X157750000Y-66480000D02*
X162370000Y-66480000D01*
X162370000Y-66480000D02*
X163540000Y-67650000D01*
X163540000Y-71840000D02*
X165840000Y-74140000D01*
X163540000Y-67650000D02*
X163540000Y-71840000D01*
D27*
%TO.N,/34401_A/GNDA*%
X121360000Y-87300000D02*
X121360000Y-84660000D01*
D29*
X121360000Y-84660000D02*
X123715000Y-82305000D01*
D27*
X123715000Y-82725000D02*
X123715000Y-81645000D01*
D29*
X128290000Y-87300000D02*
X123715000Y-82725000D01*
D27*
X123715000Y-82305000D02*
X123715000Y-81645000D01*
D29*
X123715000Y-81645000D02*
X123715000Y-78910000D01*
D27*
X123710000Y-76560000D02*
X123710000Y-74760000D01*
D29*
X123710000Y-74760000D02*
X122930000Y-73980000D01*
X122930000Y-73980000D02*
X112620000Y-73980000D01*
X109020000Y-70380000D02*
X109020000Y-64650000D01*
X107892000Y-63522000D02*
X103792000Y-63522000D01*
X109020000Y-64650000D02*
X107892000Y-63522000D01*
X112620000Y-73980000D02*
X109020000Y-70380000D01*
D28*
X52925000Y-73360000D02*
X52930000Y-73365000D01*
X50580000Y-73360000D02*
X52925000Y-73360000D01*
X93830000Y-51090000D02*
X106040000Y-51090000D01*
X106040000Y-51090000D02*
X109260000Y-54310000D01*
X109260000Y-54310000D02*
X109260000Y-60470000D01*
X109260000Y-60470000D02*
X107300000Y-62430000D01*
X107229000Y-62430000D02*
X106142000Y-63517000D01*
X107300000Y-62430000D02*
X107229000Y-62430000D01*
D27*
X49880000Y-53220000D02*
X52010000Y-51090000D01*
X49880000Y-56116998D02*
X49880000Y-53220000D01*
X48200000Y-57796998D02*
X49880000Y-56116998D01*
X50580000Y-73360000D02*
X48200000Y-70980000D01*
X48200000Y-70980000D02*
X48200000Y-57796998D01*
%TO.N,/34401_A/34401A_RTN*%
X121170000Y-78905000D02*
X121165000Y-78910000D01*
X103797000Y-66067000D02*
X103792000Y-66062000D01*
X106142000Y-66067000D02*
X103797000Y-66067000D01*
D29*
%TO.N,/34401_B/GND*%
X145488000Y-87200000D02*
X148948000Y-90660000D01*
X148948000Y-90660000D02*
X170670000Y-90660000D01*
X170670000Y-90660000D02*
X174800000Y-86530000D01*
X174800000Y-86530000D02*
X174800000Y-55180000D01*
X174800000Y-55180000D02*
X164020000Y-44400000D01*
X164020000Y-44400000D02*
X146610000Y-44400000D01*
X146610000Y-44400000D02*
X142390000Y-48620000D01*
X142390000Y-48620000D02*
X139800000Y-48620000D01*
X137345000Y-46165000D02*
X136690000Y-46165000D01*
X139800000Y-48620000D02*
X137345000Y-46165000D01*
X134345000Y-46165000D02*
X134340000Y-46170000D01*
X136690000Y-46165000D02*
X134345000Y-46165000D01*
D30*
%TO.N,/34401_B/REF100_RTN*%
X164544000Y-109342000D02*
X164544000Y-107944000D01*
X164544000Y-107944000D02*
X163550000Y-106950000D01*
X163550000Y-106950000D02*
X160460000Y-106950000D01*
X160460000Y-106950000D02*
X159400000Y-105890000D01*
X159400000Y-105890000D02*
X159400000Y-100810000D01*
X152590000Y-94000000D02*
X149790000Y-94000000D01*
X159400000Y-100810000D02*
X152590000Y-94000000D01*
D32*
%TO.N,K3_SET_SIGNL*%
X104350000Y-117690000D02*
X100120000Y-117690000D01*
X100120000Y-117690000D02*
X99550000Y-118260000D01*
X99550000Y-118260000D02*
X89720000Y-118260000D01*
X89720000Y-118260000D02*
X86430000Y-114970000D01*
X86430000Y-114970000D02*
X61440000Y-114970000D01*
X61440000Y-114970000D02*
X60550000Y-115860000D01*
X60550000Y-115860000D02*
X57830000Y-115860000D01*
X57830000Y-115860000D02*
X54640000Y-112670000D01*
X54640000Y-112670000D02*
X54640000Y-73200000D01*
X54640000Y-73200000D02*
X56280000Y-71560000D01*
D28*
X56280000Y-71560000D02*
X56280000Y-71450000D01*
X56280000Y-71450000D02*
X56280000Y-70820000D01*
X56280000Y-70820000D02*
X56280000Y-70170000D01*
D32*
%TO.N,K2_SET_SIGNL*%
X103920000Y-115900000D02*
X101000000Y-115900000D01*
X101000000Y-115900000D02*
X99230000Y-117670000D01*
X99230000Y-117670000D02*
X89970000Y-117670000D01*
X89970000Y-117670000D02*
X86660000Y-114360000D01*
X86660000Y-114360000D02*
X61240000Y-114360000D01*
X61240000Y-114360000D02*
X60260000Y-115340000D01*
X60260000Y-115340000D02*
X58310000Y-115340000D01*
X58310000Y-115340000D02*
X55300000Y-112330000D01*
X55300000Y-112330000D02*
X55300000Y-79430000D01*
X55300000Y-79430000D02*
X56050000Y-78680000D01*
X56050000Y-78680000D02*
X56050000Y-75990000D01*
D28*
X56050000Y-75990000D02*
X56050000Y-75940000D01*
X56050000Y-75940000D02*
X56050000Y-75310000D01*
X56050000Y-75310000D02*
X56050000Y-74550000D01*
X56050000Y-74550000D02*
X56050000Y-74550000D01*
D27*
%TO.N,Vref_OUT*%
X116950000Y-110670000D02*
X116460000Y-110180000D01*
X117120000Y-110670000D02*
X116950000Y-110670000D01*
X116980000Y-109660000D02*
X116460000Y-110180000D01*
X116980000Y-109475000D02*
X116980000Y-109660000D01*
D28*
X118030000Y-115315000D02*
X118870000Y-116155000D01*
X118030000Y-115295000D02*
X118030000Y-115315000D01*
X119055000Y-116155000D02*
X119470000Y-115740000D01*
X118870000Y-116155000D02*
X119055000Y-116155000D01*
X118475000Y-115740000D02*
X118030000Y-115295000D01*
X119470000Y-115740000D02*
X118475000Y-115740000D01*
D31*
%TO.N,K16_SET_SIGNL*%
X60900000Y-65070000D02*
X59860000Y-65070000D01*
X59860000Y-65070000D02*
X58250000Y-63460000D01*
X58250000Y-63460000D02*
X58250000Y-40480000D01*
D28*
X58250000Y-40480000D02*
X58250000Y-40370000D01*
X58250000Y-40370000D02*
X58250000Y-39770000D01*
X58250000Y-39770000D02*
X58250000Y-39770000D01*
X58250000Y-39770000D02*
X58250000Y-40580000D01*
D33*
%TO.N,LTC2057_SHDN*%
X68450000Y-91310000D02*
X95240000Y-91310000D01*
X95240000Y-91310000D02*
X96650000Y-89900000D01*
X96650000Y-89900000D02*
X98760000Y-89900000D01*
X99550000Y-89900000D02*
X99720000Y-89900000D01*
X98760000Y-89900000D02*
X99550000Y-89900000D01*
%TD*%
M02*
