%TF.GenerationSoftware,KiCad,Pcbnew,5.1.6-c6e7f7d~86~ubuntu18.04.1*%
%TF.CreationDate,2020-05-20T11:00:07-07:00*%
%TF.ProjectId,Cal_Station,43616c5f-5374-4617-9469-6f6e2e6b6963,rev?*%
%TF.SameCoordinates,Original*%
%TF.FileFunction,Soldermask,Top*%
%TF.FilePolarity,Negative*%
%FSLAX46Y46*%
G04 Gerber Fmt 4.6, Leading zero omitted, Abs format (unit mm)*
G04 Created by KiCad (PCBNEW 5.1.6-c6e7f7d~86~ubuntu18.04.1) date 2020-05-20 11:00:07*
%MOMM*%
%LPD*%
G01*
G04 APERTURE LIST*
%ADD10R,1.600000X0.820000*%
%ADD11R,0.820000X1.850000*%
%ADD12R,0.820000X2.600000*%
%ADD13C,3.100000*%
%ADD14C,2.600000*%
%ADD15R,1.440000X0.740000*%
%ADD16R,0.740000X1.440000*%
%ADD17C,1.600000*%
%ADD18C,2.000000*%
%ADD19R,2.000000X2.000000*%
%ADD20R,1.300000X1.000000*%
%ADD21C,0.900000*%
%ADD22C,6.500000*%
%ADD23C,5.500000*%
%ADD24R,2.614000X3.300000*%
%ADD25C,1.100000*%
%ADD26O,1.800000X1.800000*%
%ADD27R,1.800000X1.800000*%
%ADD28R,2.500000X4.300000*%
%ADD29R,1.000000X1.300000*%
%ADD30C,2.100000*%
%ADD31R,2.100000X2.100000*%
%ADD32C,2.500000*%
%ADD33R,2.500000X2.500000*%
G04 APERTURE END LIST*
%TO.C,FB2*%
G36*
G01*
X107668262Y-105710000D02*
X106711738Y-105710000D01*
G75*
G02*
X106440000Y-105438262I0J271738D01*
G01*
X106440000Y-104731738D01*
G75*
G02*
X106711738Y-104460000I271738J0D01*
G01*
X107668262Y-104460000D01*
G75*
G02*
X107940000Y-104731738I0J-271738D01*
G01*
X107940000Y-105438262D01*
G75*
G02*
X107668262Y-105710000I-271738J0D01*
G01*
G37*
G36*
G01*
X107668262Y-107760000D02*
X106711738Y-107760000D01*
G75*
G02*
X106440000Y-107488262I0J271738D01*
G01*
X106440000Y-106781738D01*
G75*
G02*
X106711738Y-106510000I271738J0D01*
G01*
X107668262Y-106510000D01*
G75*
G02*
X107940000Y-106781738I0J-271738D01*
G01*
X107940000Y-107488262D01*
G75*
G02*
X107668262Y-107760000I-271738J0D01*
G01*
G37*
%TD*%
D10*
%TO.C,U5*%
X109750000Y-107680000D03*
X109750000Y-108950000D03*
X109750000Y-110220000D03*
D11*
X111900000Y-111230000D03*
D10*
X114050000Y-110220000D03*
X114050000Y-108950000D03*
X114050000Y-107680000D03*
D12*
X111900000Y-107200000D03*
%TD*%
%TO.C,U4*%
G36*
G01*
X110000000Y-100060000D02*
X110350000Y-100060000D01*
G75*
G02*
X110525000Y-100235000I0J-175000D01*
G01*
X110525000Y-101735000D01*
G75*
G02*
X110350000Y-101910000I-175000J0D01*
G01*
X110000000Y-101910000D01*
G75*
G02*
X109825000Y-101735000I0J175000D01*
G01*
X109825000Y-100235000D01*
G75*
G02*
X110000000Y-100060000I175000J0D01*
G01*
G37*
G36*
G01*
X108730000Y-100060000D02*
X109080000Y-100060000D01*
G75*
G02*
X109255000Y-100235000I0J-175000D01*
G01*
X109255000Y-101735000D01*
G75*
G02*
X109080000Y-101910000I-175000J0D01*
G01*
X108730000Y-101910000D01*
G75*
G02*
X108555000Y-101735000I0J175000D01*
G01*
X108555000Y-100235000D01*
G75*
G02*
X108730000Y-100060000I175000J0D01*
G01*
G37*
G36*
G01*
X107460000Y-100060000D02*
X107810000Y-100060000D01*
G75*
G02*
X107985000Y-100235000I0J-175000D01*
G01*
X107985000Y-101735000D01*
G75*
G02*
X107810000Y-101910000I-175000J0D01*
G01*
X107460000Y-101910000D01*
G75*
G02*
X107285000Y-101735000I0J175000D01*
G01*
X107285000Y-100235000D01*
G75*
G02*
X107460000Y-100060000I175000J0D01*
G01*
G37*
G36*
G01*
X106190000Y-100060000D02*
X106540000Y-100060000D01*
G75*
G02*
X106715000Y-100235000I0J-175000D01*
G01*
X106715000Y-101735000D01*
G75*
G02*
X106540000Y-101910000I-175000J0D01*
G01*
X106190000Y-101910000D01*
G75*
G02*
X106015000Y-101735000I0J175000D01*
G01*
X106015000Y-100235000D01*
G75*
G02*
X106190000Y-100060000I175000J0D01*
G01*
G37*
G36*
G01*
X106190000Y-94910000D02*
X106540000Y-94910000D01*
G75*
G02*
X106715000Y-95085000I0J-175000D01*
G01*
X106715000Y-96585000D01*
G75*
G02*
X106540000Y-96760000I-175000J0D01*
G01*
X106190000Y-96760000D01*
G75*
G02*
X106015000Y-96585000I0J175000D01*
G01*
X106015000Y-95085000D01*
G75*
G02*
X106190000Y-94910000I175000J0D01*
G01*
G37*
G36*
G01*
X107460000Y-94910000D02*
X107810000Y-94910000D01*
G75*
G02*
X107985000Y-95085000I0J-175000D01*
G01*
X107985000Y-96585000D01*
G75*
G02*
X107810000Y-96760000I-175000J0D01*
G01*
X107460000Y-96760000D01*
G75*
G02*
X107285000Y-96585000I0J175000D01*
G01*
X107285000Y-95085000D01*
G75*
G02*
X107460000Y-94910000I175000J0D01*
G01*
G37*
G36*
G01*
X108730000Y-94910000D02*
X109080000Y-94910000D01*
G75*
G02*
X109255000Y-95085000I0J-175000D01*
G01*
X109255000Y-96585000D01*
G75*
G02*
X109080000Y-96760000I-175000J0D01*
G01*
X108730000Y-96760000D01*
G75*
G02*
X108555000Y-96585000I0J175000D01*
G01*
X108555000Y-95085000D01*
G75*
G02*
X108730000Y-94910000I175000J0D01*
G01*
G37*
G36*
G01*
X110000000Y-94910000D02*
X110350000Y-94910000D01*
G75*
G02*
X110525000Y-95085000I0J-175000D01*
G01*
X110525000Y-96585000D01*
G75*
G02*
X110350000Y-96760000I-175000J0D01*
G01*
X110000000Y-96760000D01*
G75*
G02*
X109825000Y-96585000I0J175000D01*
G01*
X109825000Y-95085000D01*
G75*
G02*
X110000000Y-94910000I175000J0D01*
G01*
G37*
%TD*%
D10*
%TO.C,U3*%
X109730000Y-114910000D03*
X109730000Y-116180000D03*
X109730000Y-117450000D03*
D11*
X111880000Y-118460000D03*
D10*
X114030000Y-117450000D03*
X114030000Y-116180000D03*
X114030000Y-114910000D03*
D12*
X111880000Y-114430000D03*
%TD*%
D13*
%TO.C,TP18*%
X109610000Y-41240000D03*
%TD*%
%TO.C,TP17*%
X104560000Y-41240000D03*
%TD*%
D14*
%TO.C,TP16*%
X42570000Y-90340000D03*
%TD*%
%TO.C,TP15*%
X42720000Y-86610000D03*
%TD*%
%TO.C,R58*%
G36*
G01*
X115970000Y-108692500D02*
X115970000Y-109087500D01*
G75*
G02*
X115797500Y-109260000I-172500J0D01*
G01*
X115452500Y-109260000D01*
G75*
G02*
X115280000Y-109087500I0J172500D01*
G01*
X115280000Y-108692500D01*
G75*
G02*
X115452500Y-108520000I172500J0D01*
G01*
X115797500Y-108520000D01*
G75*
G02*
X115970000Y-108692500I0J-172500D01*
G01*
G37*
G36*
G01*
X116940000Y-108692500D02*
X116940000Y-109087500D01*
G75*
G02*
X116767500Y-109260000I-172500J0D01*
G01*
X116422500Y-109260000D01*
G75*
G02*
X116250000Y-109087500I0J172500D01*
G01*
X116250000Y-108692500D01*
G75*
G02*
X116422500Y-108520000I172500J0D01*
G01*
X116767500Y-108520000D01*
G75*
G02*
X116940000Y-108692500I0J-172500D01*
G01*
G37*
%TD*%
%TO.C,R57*%
G36*
G01*
X109860000Y-105172500D02*
X109860000Y-105567500D01*
G75*
G02*
X109687500Y-105740000I-172500J0D01*
G01*
X109342500Y-105740000D01*
G75*
G02*
X109170000Y-105567500I0J172500D01*
G01*
X109170000Y-105172500D01*
G75*
G02*
X109342500Y-105000000I172500J0D01*
G01*
X109687500Y-105000000D01*
G75*
G02*
X109860000Y-105172500I0J-172500D01*
G01*
G37*
G36*
G01*
X110830000Y-105172500D02*
X110830000Y-105567500D01*
G75*
G02*
X110657500Y-105740000I-172500J0D01*
G01*
X110312500Y-105740000D01*
G75*
G02*
X110140000Y-105567500I0J172500D01*
G01*
X110140000Y-105172500D01*
G75*
G02*
X110312500Y-105000000I172500J0D01*
G01*
X110657500Y-105000000D01*
G75*
G02*
X110830000Y-105172500I0J-172500D01*
G01*
G37*
%TD*%
%TO.C,R56*%
G36*
G01*
X107797500Y-102950000D02*
X107402500Y-102950000D01*
G75*
G02*
X107230000Y-102777500I0J172500D01*
G01*
X107230000Y-102432500D01*
G75*
G02*
X107402500Y-102260000I172500J0D01*
G01*
X107797500Y-102260000D01*
G75*
G02*
X107970000Y-102432500I0J-172500D01*
G01*
X107970000Y-102777500D01*
G75*
G02*
X107797500Y-102950000I-172500J0D01*
G01*
G37*
G36*
G01*
X107797500Y-103920000D02*
X107402500Y-103920000D01*
G75*
G02*
X107230000Y-103747500I0J172500D01*
G01*
X107230000Y-103402500D01*
G75*
G02*
X107402500Y-103230000I172500J0D01*
G01*
X107797500Y-103230000D01*
G75*
G02*
X107970000Y-103402500I0J-172500D01*
G01*
X107970000Y-103747500D01*
G75*
G02*
X107797500Y-103920000I-172500J0D01*
G01*
G37*
%TD*%
%TO.C,R55*%
G36*
G01*
X49630000Y-84447500D02*
X49630000Y-84052500D01*
G75*
G02*
X49802500Y-83880000I172500J0D01*
G01*
X50147500Y-83880000D01*
G75*
G02*
X50320000Y-84052500I0J-172500D01*
G01*
X50320000Y-84447500D01*
G75*
G02*
X50147500Y-84620000I-172500J0D01*
G01*
X49802500Y-84620000D01*
G75*
G02*
X49630000Y-84447500I0J172500D01*
G01*
G37*
G36*
G01*
X48660000Y-84447500D02*
X48660000Y-84052500D01*
G75*
G02*
X48832500Y-83880000I172500J0D01*
G01*
X49177500Y-83880000D01*
G75*
G02*
X49350000Y-84052500I0J-172500D01*
G01*
X49350000Y-84447500D01*
G75*
G02*
X49177500Y-84620000I-172500J0D01*
G01*
X48832500Y-84620000D01*
G75*
G02*
X48660000Y-84447500I0J172500D01*
G01*
G37*
%TD*%
%TO.C,R54*%
G36*
G01*
X46650000Y-90537500D02*
X46650000Y-90142500D01*
G75*
G02*
X46822500Y-89970000I172500J0D01*
G01*
X47167500Y-89970000D01*
G75*
G02*
X47340000Y-90142500I0J-172500D01*
G01*
X47340000Y-90537500D01*
G75*
G02*
X47167500Y-90710000I-172500J0D01*
G01*
X46822500Y-90710000D01*
G75*
G02*
X46650000Y-90537500I0J172500D01*
G01*
G37*
G36*
G01*
X45680000Y-90537500D02*
X45680000Y-90142500D01*
G75*
G02*
X45852500Y-89970000I172500J0D01*
G01*
X46197500Y-89970000D01*
G75*
G02*
X46370000Y-90142500I0J-172500D01*
G01*
X46370000Y-90537500D01*
G75*
G02*
X46197500Y-90710000I-172500J0D01*
G01*
X45852500Y-90710000D01*
G75*
G02*
X45680000Y-90537500I0J172500D01*
G01*
G37*
%TD*%
%TO.C,R53*%
G36*
G01*
X46650000Y-87617500D02*
X46650000Y-87222500D01*
G75*
G02*
X46822500Y-87050000I172500J0D01*
G01*
X47167500Y-87050000D01*
G75*
G02*
X47340000Y-87222500I0J-172500D01*
G01*
X47340000Y-87617500D01*
G75*
G02*
X47167500Y-87790000I-172500J0D01*
G01*
X46822500Y-87790000D01*
G75*
G02*
X46650000Y-87617500I0J172500D01*
G01*
G37*
G36*
G01*
X45680000Y-87617500D02*
X45680000Y-87222500D01*
G75*
G02*
X45852500Y-87050000I172500J0D01*
G01*
X46197500Y-87050000D01*
G75*
G02*
X46370000Y-87222500I0J-172500D01*
G01*
X46370000Y-87617500D01*
G75*
G02*
X46197500Y-87790000I-172500J0D01*
G01*
X45852500Y-87790000D01*
G75*
G02*
X45680000Y-87617500I0J172500D01*
G01*
G37*
%TD*%
%TO.C,R52*%
G36*
G01*
X105177500Y-97970000D02*
X104782500Y-97970000D01*
G75*
G02*
X104610000Y-97797500I0J172500D01*
G01*
X104610000Y-97452500D01*
G75*
G02*
X104782500Y-97280000I172500J0D01*
G01*
X105177500Y-97280000D01*
G75*
G02*
X105350000Y-97452500I0J-172500D01*
G01*
X105350000Y-97797500D01*
G75*
G02*
X105177500Y-97970000I-172500J0D01*
G01*
G37*
G36*
G01*
X105177500Y-98940000D02*
X104782500Y-98940000D01*
G75*
G02*
X104610000Y-98767500I0J172500D01*
G01*
X104610000Y-98422500D01*
G75*
G02*
X104782500Y-98250000I172500J0D01*
G01*
X105177500Y-98250000D01*
G75*
G02*
X105350000Y-98422500I0J-172500D01*
G01*
X105350000Y-98767500D01*
G75*
G02*
X105177500Y-98940000I-172500J0D01*
G01*
G37*
%TD*%
%TO.C,R51*%
G36*
G01*
X115930000Y-114762500D02*
X115930000Y-115157500D01*
G75*
G02*
X115757500Y-115330000I-172500J0D01*
G01*
X115412500Y-115330000D01*
G75*
G02*
X115240000Y-115157500I0J172500D01*
G01*
X115240000Y-114762500D01*
G75*
G02*
X115412500Y-114590000I172500J0D01*
G01*
X115757500Y-114590000D01*
G75*
G02*
X115930000Y-114762500I0J-172500D01*
G01*
G37*
G36*
G01*
X116900000Y-114762500D02*
X116900000Y-115157500D01*
G75*
G02*
X116727500Y-115330000I-172500J0D01*
G01*
X116382500Y-115330000D01*
G75*
G02*
X116210000Y-115157500I0J172500D01*
G01*
X116210000Y-114762500D01*
G75*
G02*
X116382500Y-114590000I172500J0D01*
G01*
X116727500Y-114590000D01*
G75*
G02*
X116900000Y-114762500I0J-172500D01*
G01*
G37*
%TD*%
%TO.C,R50*%
G36*
G01*
X55050000Y-38027500D02*
X55050000Y-37632500D01*
G75*
G02*
X55222500Y-37460000I172500J0D01*
G01*
X55567500Y-37460000D01*
G75*
G02*
X55740000Y-37632500I0J-172500D01*
G01*
X55740000Y-38027500D01*
G75*
G02*
X55567500Y-38200000I-172500J0D01*
G01*
X55222500Y-38200000D01*
G75*
G02*
X55050000Y-38027500I0J172500D01*
G01*
G37*
G36*
G01*
X54080000Y-38027500D02*
X54080000Y-37632500D01*
G75*
G02*
X54252500Y-37460000I172500J0D01*
G01*
X54597500Y-37460000D01*
G75*
G02*
X54770000Y-37632500I0J-172500D01*
G01*
X54770000Y-38027500D01*
G75*
G02*
X54597500Y-38200000I-172500J0D01*
G01*
X54252500Y-38200000D01*
G75*
G02*
X54080000Y-38027500I0J172500D01*
G01*
G37*
%TD*%
%TO.C,R41*%
G36*
G01*
X53167500Y-59440000D02*
X52772500Y-59440000D01*
G75*
G02*
X52600000Y-59267500I0J172500D01*
G01*
X52600000Y-58922500D01*
G75*
G02*
X52772500Y-58750000I172500J0D01*
G01*
X53167500Y-58750000D01*
G75*
G02*
X53340000Y-58922500I0J-172500D01*
G01*
X53340000Y-59267500D01*
G75*
G02*
X53167500Y-59440000I-172500J0D01*
G01*
G37*
G36*
G01*
X53167500Y-60410000D02*
X52772500Y-60410000D01*
G75*
G02*
X52600000Y-60237500I0J172500D01*
G01*
X52600000Y-59892500D01*
G75*
G02*
X52772500Y-59720000I172500J0D01*
G01*
X53167500Y-59720000D01*
G75*
G02*
X53340000Y-59892500I0J-172500D01*
G01*
X53340000Y-60237500D01*
G75*
G02*
X53167500Y-60410000I-172500J0D01*
G01*
G37*
%TD*%
%TO.C,R40*%
G36*
G01*
X107850000Y-115137500D02*
X107850000Y-114742500D01*
G75*
G02*
X108022500Y-114570000I172500J0D01*
G01*
X108367500Y-114570000D01*
G75*
G02*
X108540000Y-114742500I0J-172500D01*
G01*
X108540000Y-115137500D01*
G75*
G02*
X108367500Y-115310000I-172500J0D01*
G01*
X108022500Y-115310000D01*
G75*
G02*
X107850000Y-115137500I0J172500D01*
G01*
G37*
G36*
G01*
X106880000Y-115137500D02*
X106880000Y-114742500D01*
G75*
G02*
X107052500Y-114570000I172500J0D01*
G01*
X107397500Y-114570000D01*
G75*
G02*
X107570000Y-114742500I0J-172500D01*
G01*
X107570000Y-115137500D01*
G75*
G02*
X107397500Y-115310000I-172500J0D01*
G01*
X107052500Y-115310000D01*
G75*
G02*
X106880000Y-115137500I0J172500D01*
G01*
G37*
%TD*%
D15*
%TO.C,Q36*%
X49410000Y-86430000D03*
X49410000Y-88330000D03*
X51510000Y-87380000D03*
%TD*%
D16*
%TO.C,Q35*%
X54420000Y-39190000D03*
X52520000Y-39190000D03*
X53470000Y-41290000D03*
%TD*%
%TO.C,Q34*%
X52960000Y-61480000D03*
X51060000Y-61480000D03*
X52010000Y-63580000D03*
%TD*%
D17*
%TO.C,K17*%
X42980000Y-70820000D03*
X52930000Y-70815000D03*
D18*
X50580000Y-70820000D03*
X45500000Y-70820000D03*
X50580000Y-68280000D03*
X50580000Y-65740000D03*
X50580000Y-73360000D03*
X45500000Y-78440000D03*
D19*
X45500000Y-65740000D03*
D18*
X50580000Y-78440000D03*
X45500000Y-68280000D03*
X45500000Y-73360000D03*
D17*
X52880000Y-78440000D03*
X52930000Y-73365000D03*
X52930000Y-68315000D03*
X52980000Y-65715000D03*
X42980000Y-65740000D03*
X42980000Y-68280000D03*
X42980000Y-73360000D03*
X42980000Y-78290000D03*
%TD*%
%TO.C,K16*%
X44410000Y-48550000D03*
X54360000Y-48545000D03*
D18*
X52010000Y-48550000D03*
X46930000Y-48550000D03*
X52010000Y-46010000D03*
X52010000Y-43470000D03*
X52010000Y-51090000D03*
X46930000Y-56170000D03*
D19*
X46930000Y-43470000D03*
D18*
X52010000Y-56170000D03*
X46930000Y-46010000D03*
X46930000Y-51090000D03*
D17*
X54310000Y-56170000D03*
X54360000Y-51095000D03*
X54360000Y-46045000D03*
X54410000Y-43445000D03*
X44410000Y-43470000D03*
X44410000Y-46010000D03*
X44410000Y-51090000D03*
X44410000Y-56020000D03*
%TD*%
D20*
%TO.C,D36*%
X41380000Y-46240000D03*
X41380000Y-42940000D03*
%TD*%
%TO.C,D35*%
X56100000Y-65050000D03*
X56100000Y-68350000D03*
%TD*%
%TO.C,D34*%
X39850000Y-68420000D03*
X39850000Y-65120000D03*
%TD*%
%TO.C,D33*%
X57450000Y-42830000D03*
X57450000Y-46130000D03*
%TD*%
%TO.C,C66*%
G36*
G01*
X117551738Y-116720000D02*
X118508262Y-116720000D01*
G75*
G02*
X118780000Y-116991738I0J-271738D01*
G01*
X118780000Y-117698262D01*
G75*
G02*
X118508262Y-117970000I-271738J0D01*
G01*
X117551738Y-117970000D01*
G75*
G02*
X117280000Y-117698262I0J271738D01*
G01*
X117280000Y-116991738D01*
G75*
G02*
X117551738Y-116720000I271738J0D01*
G01*
G37*
G36*
G01*
X117551738Y-114670000D02*
X118508262Y-114670000D01*
G75*
G02*
X118780000Y-114941738I0J-271738D01*
G01*
X118780000Y-115648262D01*
G75*
G02*
X118508262Y-115920000I-271738J0D01*
G01*
X117551738Y-115920000D01*
G75*
G02*
X117280000Y-115648262I0J271738D01*
G01*
X117280000Y-114941738D01*
G75*
G02*
X117551738Y-114670000I271738J0D01*
G01*
G37*
%TD*%
%TO.C,C64*%
G36*
G01*
X107587500Y-111920000D02*
X108112500Y-111920000D01*
G75*
G02*
X108375000Y-112182500I0J-262500D01*
G01*
X108375000Y-112807500D01*
G75*
G02*
X108112500Y-113070000I-262500J0D01*
G01*
X107587500Y-113070000D01*
G75*
G02*
X107325000Y-112807500I0J262500D01*
G01*
X107325000Y-112182500D01*
G75*
G02*
X107587500Y-111920000I262500J0D01*
G01*
G37*
G36*
G01*
X107587500Y-110170000D02*
X108112500Y-110170000D01*
G75*
G02*
X108375000Y-110432500I0J-262500D01*
G01*
X108375000Y-111057500D01*
G75*
G02*
X108112500Y-111320000I-262500J0D01*
G01*
X107587500Y-111320000D01*
G75*
G02*
X107325000Y-111057500I0J262500D01*
G01*
X107325000Y-110432500D01*
G75*
G02*
X107587500Y-110170000I262500J0D01*
G01*
G37*
%TD*%
%TO.C,C63*%
G36*
G01*
X105911738Y-118050000D02*
X106868262Y-118050000D01*
G75*
G02*
X107140000Y-118321738I0J-271738D01*
G01*
X107140000Y-119028262D01*
G75*
G02*
X106868262Y-119300000I-271738J0D01*
G01*
X105911738Y-119300000D01*
G75*
G02*
X105640000Y-119028262I0J271738D01*
G01*
X105640000Y-118321738D01*
G75*
G02*
X105911738Y-118050000I271738J0D01*
G01*
G37*
G36*
G01*
X105911738Y-116000000D02*
X106868262Y-116000000D01*
G75*
G02*
X107140000Y-116271738I0J-271738D01*
G01*
X107140000Y-116978262D01*
G75*
G02*
X106868262Y-117250000I-271738J0D01*
G01*
X105911738Y-117250000D01*
G75*
G02*
X105640000Y-116978262I0J271738D01*
G01*
X105640000Y-116271738D01*
G75*
G02*
X105911738Y-116000000I271738J0D01*
G01*
G37*
%TD*%
%TO.C,C61*%
G36*
G01*
X48898262Y-98300000D02*
X47941738Y-98300000D01*
G75*
G02*
X47670000Y-98028262I0J271738D01*
G01*
X47670000Y-97321738D01*
G75*
G02*
X47941738Y-97050000I271738J0D01*
G01*
X48898262Y-97050000D01*
G75*
G02*
X49170000Y-97321738I0J-271738D01*
G01*
X49170000Y-98028262D01*
G75*
G02*
X48898262Y-98300000I-271738J0D01*
G01*
G37*
G36*
G01*
X48898262Y-100350000D02*
X47941738Y-100350000D01*
G75*
G02*
X47670000Y-100078262I0J271738D01*
G01*
X47670000Y-99371738D01*
G75*
G02*
X47941738Y-99100000I271738J0D01*
G01*
X48898262Y-99100000D01*
G75*
G02*
X49170000Y-99371738I0J-271738D01*
G01*
X49170000Y-100078262D01*
G75*
G02*
X48898262Y-100350000I-271738J0D01*
G01*
G37*
%TD*%
%TO.C,C60*%
G36*
G01*
X50098262Y-90940000D02*
X49141738Y-90940000D01*
G75*
G02*
X48870000Y-90668262I0J271738D01*
G01*
X48870000Y-89961738D01*
G75*
G02*
X49141738Y-89690000I271738J0D01*
G01*
X50098262Y-89690000D01*
G75*
G02*
X50370000Y-89961738I0J-271738D01*
G01*
X50370000Y-90668262D01*
G75*
G02*
X50098262Y-90940000I-271738J0D01*
G01*
G37*
G36*
G01*
X50098262Y-92990000D02*
X49141738Y-92990000D01*
G75*
G02*
X48870000Y-92718262I0J271738D01*
G01*
X48870000Y-92011738D01*
G75*
G02*
X49141738Y-91740000I271738J0D01*
G01*
X50098262Y-91740000D01*
G75*
G02*
X50370000Y-92011738I0J-271738D01*
G01*
X50370000Y-92718262D01*
G75*
G02*
X50098262Y-92990000I-271738J0D01*
G01*
G37*
%TD*%
%TO.C,C59*%
G36*
G01*
X115981738Y-112020000D02*
X116938262Y-112020000D01*
G75*
G02*
X117210000Y-112291738I0J-271738D01*
G01*
X117210000Y-112998262D01*
G75*
G02*
X116938262Y-113270000I-271738J0D01*
G01*
X115981738Y-113270000D01*
G75*
G02*
X115710000Y-112998262I0J271738D01*
G01*
X115710000Y-112291738D01*
G75*
G02*
X115981738Y-112020000I271738J0D01*
G01*
G37*
G36*
G01*
X115981738Y-109970000D02*
X116938262Y-109970000D01*
G75*
G02*
X117210000Y-110241738I0J-271738D01*
G01*
X117210000Y-110948262D01*
G75*
G02*
X116938262Y-111220000I-271738J0D01*
G01*
X115981738Y-111220000D01*
G75*
G02*
X115710000Y-110948262I0J271738D01*
G01*
X115710000Y-110241738D01*
G75*
G02*
X115981738Y-109970000I271738J0D01*
G01*
G37*
%TD*%
%TO.C,C57*%
G36*
G01*
X49970000Y-41648262D02*
X49970000Y-40691738D01*
G75*
G02*
X50241738Y-40420000I271738J0D01*
G01*
X50948262Y-40420000D01*
G75*
G02*
X51220000Y-40691738I0J-271738D01*
G01*
X51220000Y-41648262D01*
G75*
G02*
X50948262Y-41920000I-271738J0D01*
G01*
X50241738Y-41920000D01*
G75*
G02*
X49970000Y-41648262I0J271738D01*
G01*
G37*
G36*
G01*
X47920000Y-41648262D02*
X47920000Y-40691738D01*
G75*
G02*
X48191738Y-40420000I271738J0D01*
G01*
X48898262Y-40420000D01*
G75*
G02*
X49170000Y-40691738I0J-271738D01*
G01*
X49170000Y-41648262D01*
G75*
G02*
X48898262Y-41920000I-271738J0D01*
G01*
X48191738Y-41920000D01*
G75*
G02*
X47920000Y-41648262I0J271738D01*
G01*
G37*
%TD*%
%TO.C,C56*%
G36*
G01*
X48510000Y-63918262D02*
X48510000Y-62961738D01*
G75*
G02*
X48781738Y-62690000I271738J0D01*
G01*
X49488262Y-62690000D01*
G75*
G02*
X49760000Y-62961738I0J-271738D01*
G01*
X49760000Y-63918262D01*
G75*
G02*
X49488262Y-64190000I-271738J0D01*
G01*
X48781738Y-64190000D01*
G75*
G02*
X48510000Y-63918262I0J271738D01*
G01*
G37*
G36*
G01*
X46460000Y-63918262D02*
X46460000Y-62961738D01*
G75*
G02*
X46731738Y-62690000I271738J0D01*
G01*
X47438262Y-62690000D01*
G75*
G02*
X47710000Y-62961738I0J-271738D01*
G01*
X47710000Y-63918262D01*
G75*
G02*
X47438262Y-64190000I-271738J0D01*
G01*
X46731738Y-64190000D01*
G75*
G02*
X46460000Y-63918262I0J271738D01*
G01*
G37*
%TD*%
%TO.C,C55*%
G36*
G01*
X107867500Y-117740000D02*
X108392500Y-117740000D01*
G75*
G02*
X108655000Y-118002500I0J-262500D01*
G01*
X108655000Y-118627500D01*
G75*
G02*
X108392500Y-118890000I-262500J0D01*
G01*
X107867500Y-118890000D01*
G75*
G02*
X107605000Y-118627500I0J262500D01*
G01*
X107605000Y-118002500D01*
G75*
G02*
X107867500Y-117740000I262500J0D01*
G01*
G37*
G36*
G01*
X107867500Y-115990000D02*
X108392500Y-115990000D01*
G75*
G02*
X108655000Y-116252500I0J-262500D01*
G01*
X108655000Y-116877500D01*
G75*
G02*
X108392500Y-117140000I-262500J0D01*
G01*
X107867500Y-117140000D01*
G75*
G02*
X107605000Y-116877500I0J262500D01*
G01*
X107605000Y-116252500D01*
G75*
G02*
X107867500Y-115990000I262500J0D01*
G01*
G37*
%TD*%
%TO.C,C54*%
G36*
G01*
X103860000Y-112491738D02*
X103860000Y-113448262D01*
G75*
G02*
X103588262Y-113720000I-271738J0D01*
G01*
X102881738Y-113720000D01*
G75*
G02*
X102610000Y-113448262I0J271738D01*
G01*
X102610000Y-112491738D01*
G75*
G02*
X102881738Y-112220000I271738J0D01*
G01*
X103588262Y-112220000D01*
G75*
G02*
X103860000Y-112491738I0J-271738D01*
G01*
G37*
G36*
G01*
X105910000Y-112491738D02*
X105910000Y-113448262D01*
G75*
G02*
X105638262Y-113720000I-271738J0D01*
G01*
X104931738Y-113720000D01*
G75*
G02*
X104660000Y-113448262I0J271738D01*
G01*
X104660000Y-112491738D01*
G75*
G02*
X104931738Y-112220000I271738J0D01*
G01*
X105638262Y-112220000D01*
G75*
G02*
X105910000Y-112491738I0J-271738D01*
G01*
G37*
%TD*%
D21*
%TO.C,H8*%
X46377056Y-30992944D03*
X44680000Y-30290000D03*
X42982944Y-30992944D03*
X42280000Y-32690000D03*
X42982944Y-34387056D03*
X44680000Y-35090000D03*
X46377056Y-34387056D03*
X47080000Y-32690000D03*
D22*
X44680000Y-32690000D03*
%TD*%
D21*
%TO.C,H7*%
X184527056Y-30992944D03*
X182830000Y-30290000D03*
X181132944Y-30992944D03*
X180430000Y-32690000D03*
X181132944Y-34387056D03*
X182830000Y-35090000D03*
X184527056Y-34387056D03*
X185230000Y-32690000D03*
D22*
X182830000Y-32690000D03*
%TD*%
D21*
%TO.C,H6*%
X46377056Y-142782944D03*
X44680000Y-142080000D03*
X42982944Y-142782944D03*
X42280000Y-144480000D03*
X42982944Y-146177056D03*
X44680000Y-146880000D03*
X46377056Y-146177056D03*
X47080000Y-144480000D03*
D22*
X44680000Y-144480000D03*
%TD*%
D21*
%TO.C,H5*%
X184527056Y-142802944D03*
X182830000Y-142100000D03*
X181132944Y-142802944D03*
X180430000Y-144500000D03*
X181132944Y-146197056D03*
X182830000Y-146900000D03*
X184527056Y-146197056D03*
X185230000Y-144500000D03*
D22*
X182830000Y-144500000D03*
%TD*%
D21*
%TO.C,H4*%
X112601891Y-30688109D03*
X111170000Y-30095000D03*
X109738109Y-30688109D03*
X109145000Y-32120000D03*
X109738109Y-33551891D03*
X111170000Y-34145000D03*
X112601891Y-33551891D03*
X113195000Y-32120000D03*
D23*
X111170000Y-32120000D03*
%TD*%
D21*
%TO.C,H3*%
X63601891Y-88688109D03*
X62170000Y-88095000D03*
X60738109Y-88688109D03*
X60145000Y-90120000D03*
X60738109Y-91551891D03*
X62170000Y-92145000D03*
X63601891Y-91551891D03*
X64195000Y-90120000D03*
D23*
X62170000Y-90120000D03*
%TD*%
D21*
%TO.C,H2*%
X112601891Y-88688109D03*
X111170000Y-88095000D03*
X109738109Y-88688109D03*
X109145000Y-90120000D03*
X109738109Y-91551891D03*
X111170000Y-92145000D03*
X112601891Y-91551891D03*
X113195000Y-90120000D03*
D23*
X111170000Y-90120000D03*
%TD*%
D21*
%TO.C,H1*%
X63601891Y-30688109D03*
X62170000Y-30095000D03*
X60738109Y-30688109D03*
X60145000Y-32120000D03*
X60738109Y-33551891D03*
X62170000Y-34145000D03*
X63601891Y-33551891D03*
X64195000Y-32120000D03*
D23*
X62170000Y-32120000D03*
%TD*%
D17*
%TO.C,K14*%
X164544000Y-101742000D03*
X164549000Y-111692000D03*
D18*
X164544000Y-109342000D03*
X164544000Y-104262000D03*
X167084000Y-109342000D03*
X169624000Y-109342000D03*
X162004000Y-109342000D03*
X156924000Y-104262000D03*
D19*
X169624000Y-104262000D03*
D18*
X156924000Y-109342000D03*
X167084000Y-104262000D03*
X162004000Y-104262000D03*
D17*
X156924000Y-111642000D03*
X161999000Y-111692000D03*
X167049000Y-111692000D03*
X169649000Y-111742000D03*
X169624000Y-101742000D03*
X167084000Y-101742000D03*
X162004000Y-101742000D03*
X157074000Y-101742000D03*
%TD*%
D13*
%TO.C,J28*%
X142130000Y-94000000D03*
%TD*%
%TO.C,J27*%
X149790000Y-94000000D03*
%TD*%
%TO.C,J26*%
X162930000Y-49260000D03*
%TD*%
%TO.C,J25*%
X155320000Y-49400000D03*
%TD*%
%TO.C,J24*%
X147750000Y-49660000D03*
%TD*%
%TO.C,J23*%
X159204000Y-86946000D03*
%TD*%
%TO.C,J22*%
X152092000Y-87200000D03*
%TD*%
%TO.C,J20*%
X145488000Y-87200000D03*
%TD*%
%TO.C,J19*%
X116620000Y-58990000D03*
%TD*%
%TO.C,J18*%
X122190000Y-58810000D03*
%TD*%
%TO.C,J17*%
X138630000Y-87200000D03*
%TD*%
%TO.C,J16*%
X79580000Y-80000000D03*
%TD*%
%TO.C,J15*%
X70430000Y-80000000D03*
%TD*%
%TO.C,J14*%
X128320000Y-94300000D03*
%TD*%
%TO.C,J13*%
X128290000Y-87300000D03*
%TD*%
%TO.C,J12*%
X121320000Y-94300000D03*
%TD*%
%TO.C,J11*%
X121360000Y-87300000D03*
%TD*%
%TO.C,J10*%
X166570000Y-86946000D03*
%TD*%
%TO.C,J9*%
X115720000Y-87280000D03*
%TD*%
%TO.C,J8*%
X106950000Y-87300000D03*
%TD*%
%TO.C,J7*%
X100660000Y-87300000D03*
%TD*%
%TO.C,J6*%
X86436000Y-87562000D03*
%TD*%
%TO.C,J5*%
X93294000Y-87562000D03*
%TD*%
%TO.C,J4*%
X79578000Y-95436000D03*
%TD*%
%TO.C,J3*%
X79580000Y-87560000D03*
%TD*%
%TO.C,J2*%
X70180000Y-95436000D03*
%TD*%
%TO.C,J1*%
X70430000Y-87816000D03*
%TD*%
D24*
%TO.C,U2*%
X79170000Y-42010000D03*
G36*
G01*
X80945000Y-40280000D02*
X80945000Y-39930000D01*
G75*
G02*
X81120000Y-39755000I175000J0D01*
G01*
X82495000Y-39755000D01*
G75*
G02*
X82670000Y-39930000I0J-175000D01*
G01*
X82670000Y-40280000D01*
G75*
G02*
X82495000Y-40455000I-175000J0D01*
G01*
X81120000Y-40455000D01*
G75*
G02*
X80945000Y-40280000I0J175000D01*
G01*
G37*
G36*
G01*
X80945000Y-41550000D02*
X80945000Y-41200000D01*
G75*
G02*
X81120000Y-41025000I175000J0D01*
G01*
X82495000Y-41025000D01*
G75*
G02*
X82670000Y-41200000I0J-175000D01*
G01*
X82670000Y-41550000D01*
G75*
G02*
X82495000Y-41725000I-175000J0D01*
G01*
X81120000Y-41725000D01*
G75*
G02*
X80945000Y-41550000I0J175000D01*
G01*
G37*
G36*
G01*
X80945000Y-42820000D02*
X80945000Y-42470000D01*
G75*
G02*
X81120000Y-42295000I175000J0D01*
G01*
X82495000Y-42295000D01*
G75*
G02*
X82670000Y-42470000I0J-175000D01*
G01*
X82670000Y-42820000D01*
G75*
G02*
X82495000Y-42995000I-175000J0D01*
G01*
X81120000Y-42995000D01*
G75*
G02*
X80945000Y-42820000I0J175000D01*
G01*
G37*
G36*
G01*
X80945000Y-44090000D02*
X80945000Y-43740000D01*
G75*
G02*
X81120000Y-43565000I175000J0D01*
G01*
X82495000Y-43565000D01*
G75*
G02*
X82670000Y-43740000I0J-175000D01*
G01*
X82670000Y-44090000D01*
G75*
G02*
X82495000Y-44265000I-175000J0D01*
G01*
X81120000Y-44265000D01*
G75*
G02*
X80945000Y-44090000I0J175000D01*
G01*
G37*
G36*
G01*
X75670000Y-44090000D02*
X75670000Y-43740000D01*
G75*
G02*
X75845000Y-43565000I175000J0D01*
G01*
X77220000Y-43565000D01*
G75*
G02*
X77395000Y-43740000I0J-175000D01*
G01*
X77395000Y-44090000D01*
G75*
G02*
X77220000Y-44265000I-175000J0D01*
G01*
X75845000Y-44265000D01*
G75*
G02*
X75670000Y-44090000I0J175000D01*
G01*
G37*
G36*
G01*
X75670000Y-42820000D02*
X75670000Y-42470000D01*
G75*
G02*
X75845000Y-42295000I175000J0D01*
G01*
X77220000Y-42295000D01*
G75*
G02*
X77395000Y-42470000I0J-175000D01*
G01*
X77395000Y-42820000D01*
G75*
G02*
X77220000Y-42995000I-175000J0D01*
G01*
X75845000Y-42995000D01*
G75*
G02*
X75670000Y-42820000I0J175000D01*
G01*
G37*
G36*
G01*
X75670000Y-41550000D02*
X75670000Y-41200000D01*
G75*
G02*
X75845000Y-41025000I175000J0D01*
G01*
X77220000Y-41025000D01*
G75*
G02*
X77395000Y-41200000I0J-175000D01*
G01*
X77395000Y-41550000D01*
G75*
G02*
X77220000Y-41725000I-175000J0D01*
G01*
X75845000Y-41725000D01*
G75*
G02*
X75670000Y-41550000I0J175000D01*
G01*
G37*
G36*
G01*
X75670000Y-40280000D02*
X75670000Y-39930000D01*
G75*
G02*
X75845000Y-39755000I175000J0D01*
G01*
X77220000Y-39755000D01*
G75*
G02*
X77395000Y-39930000I0J-175000D01*
G01*
X77395000Y-40280000D01*
G75*
G02*
X77220000Y-40455000I-175000J0D01*
G01*
X75845000Y-40455000D01*
G75*
G02*
X75670000Y-40280000I0J175000D01*
G01*
G37*
%TD*%
%TO.C,U1*%
X70906000Y-106862000D03*
G36*
G01*
X69131000Y-108592000D02*
X69131000Y-108942000D01*
G75*
G02*
X68956000Y-109117000I-175000J0D01*
G01*
X67581000Y-109117000D01*
G75*
G02*
X67406000Y-108942000I0J175000D01*
G01*
X67406000Y-108592000D01*
G75*
G02*
X67581000Y-108417000I175000J0D01*
G01*
X68956000Y-108417000D01*
G75*
G02*
X69131000Y-108592000I0J-175000D01*
G01*
G37*
G36*
G01*
X69131000Y-107322000D02*
X69131000Y-107672000D01*
G75*
G02*
X68956000Y-107847000I-175000J0D01*
G01*
X67581000Y-107847000D01*
G75*
G02*
X67406000Y-107672000I0J175000D01*
G01*
X67406000Y-107322000D01*
G75*
G02*
X67581000Y-107147000I175000J0D01*
G01*
X68956000Y-107147000D01*
G75*
G02*
X69131000Y-107322000I0J-175000D01*
G01*
G37*
G36*
G01*
X69131000Y-106052000D02*
X69131000Y-106402000D01*
G75*
G02*
X68956000Y-106577000I-175000J0D01*
G01*
X67581000Y-106577000D01*
G75*
G02*
X67406000Y-106402000I0J175000D01*
G01*
X67406000Y-106052000D01*
G75*
G02*
X67581000Y-105877000I175000J0D01*
G01*
X68956000Y-105877000D01*
G75*
G02*
X69131000Y-106052000I0J-175000D01*
G01*
G37*
G36*
G01*
X69131000Y-104782000D02*
X69131000Y-105132000D01*
G75*
G02*
X68956000Y-105307000I-175000J0D01*
G01*
X67581000Y-105307000D01*
G75*
G02*
X67406000Y-105132000I0J175000D01*
G01*
X67406000Y-104782000D01*
G75*
G02*
X67581000Y-104607000I175000J0D01*
G01*
X68956000Y-104607000D01*
G75*
G02*
X69131000Y-104782000I0J-175000D01*
G01*
G37*
G36*
G01*
X74406000Y-104782000D02*
X74406000Y-105132000D01*
G75*
G02*
X74231000Y-105307000I-175000J0D01*
G01*
X72856000Y-105307000D01*
G75*
G02*
X72681000Y-105132000I0J175000D01*
G01*
X72681000Y-104782000D01*
G75*
G02*
X72856000Y-104607000I175000J0D01*
G01*
X74231000Y-104607000D01*
G75*
G02*
X74406000Y-104782000I0J-175000D01*
G01*
G37*
G36*
G01*
X74406000Y-106052000D02*
X74406000Y-106402000D01*
G75*
G02*
X74231000Y-106577000I-175000J0D01*
G01*
X72856000Y-106577000D01*
G75*
G02*
X72681000Y-106402000I0J175000D01*
G01*
X72681000Y-106052000D01*
G75*
G02*
X72856000Y-105877000I175000J0D01*
G01*
X74231000Y-105877000D01*
G75*
G02*
X74406000Y-106052000I0J-175000D01*
G01*
G37*
G36*
G01*
X74406000Y-107322000D02*
X74406000Y-107672000D01*
G75*
G02*
X74231000Y-107847000I-175000J0D01*
G01*
X72856000Y-107847000D01*
G75*
G02*
X72681000Y-107672000I0J175000D01*
G01*
X72681000Y-107322000D01*
G75*
G02*
X72856000Y-107147000I175000J0D01*
G01*
X74231000Y-107147000D01*
G75*
G02*
X74406000Y-107322000I0J-175000D01*
G01*
G37*
G36*
G01*
X74406000Y-108592000D02*
X74406000Y-108942000D01*
G75*
G02*
X74231000Y-109117000I-175000J0D01*
G01*
X72856000Y-109117000D01*
G75*
G02*
X72681000Y-108942000I0J175000D01*
G01*
X72681000Y-108592000D01*
G75*
G02*
X72856000Y-108417000I175000J0D01*
G01*
X74231000Y-108417000D01*
G75*
G02*
X74406000Y-108592000I0J-175000D01*
G01*
G37*
%TD*%
D13*
%TO.C,TP14*%
X124580000Y-138900000D03*
%TD*%
%TO.C,TP13*%
X129980000Y-138840000D03*
%TD*%
%TO.C,TP12*%
X146920000Y-140060000D03*
%TD*%
%TO.C,TP11*%
X152650000Y-139980000D03*
%TD*%
%TO.C,TP10*%
X169050000Y-139230000D03*
%TD*%
%TO.C,TP9*%
X174750000Y-139200000D03*
%TD*%
%TO.C,TP8*%
X55870000Y-138730000D03*
%TD*%
%TO.C,TP7*%
X60950000Y-138540000D03*
%TD*%
%TO.C,TP6*%
X78730000Y-138740000D03*
%TD*%
%TO.C,TP5*%
X84010000Y-138480000D03*
%TD*%
%TO.C,TP4*%
X101740000Y-138830000D03*
%TD*%
%TO.C,TP3*%
X107210000Y-138750000D03*
%TD*%
D25*
%TO.C,TP2*%
X88020000Y-60970000D03*
%TD*%
D17*
%TO.C,TP1*%
X51150000Y-97420000D03*
%TD*%
%TO.C,R49*%
G36*
G01*
X92247500Y-38440000D02*
X91852500Y-38440000D01*
G75*
G02*
X91680000Y-38267500I0J172500D01*
G01*
X91680000Y-37922500D01*
G75*
G02*
X91852500Y-37750000I172500J0D01*
G01*
X92247500Y-37750000D01*
G75*
G02*
X92420000Y-37922500I0J-172500D01*
G01*
X92420000Y-38267500D01*
G75*
G02*
X92247500Y-38440000I-172500J0D01*
G01*
G37*
G36*
G01*
X92247500Y-39410000D02*
X91852500Y-39410000D01*
G75*
G02*
X91680000Y-39237500I0J172500D01*
G01*
X91680000Y-38892500D01*
G75*
G02*
X91852500Y-38720000I172500J0D01*
G01*
X92247500Y-38720000D01*
G75*
G02*
X92420000Y-38892500I0J-172500D01*
G01*
X92420000Y-39237500D01*
G75*
G02*
X92247500Y-39410000I-172500J0D01*
G01*
G37*
%TD*%
%TO.C,R48*%
G36*
G01*
X51633500Y-109452000D02*
X51238500Y-109452000D01*
G75*
G02*
X51066000Y-109279500I0J172500D01*
G01*
X51066000Y-108934500D01*
G75*
G02*
X51238500Y-108762000I172500J0D01*
G01*
X51633500Y-108762000D01*
G75*
G02*
X51806000Y-108934500I0J-172500D01*
G01*
X51806000Y-109279500D01*
G75*
G02*
X51633500Y-109452000I-172500J0D01*
G01*
G37*
G36*
G01*
X51633500Y-110422000D02*
X51238500Y-110422000D01*
G75*
G02*
X51066000Y-110249500I0J172500D01*
G01*
X51066000Y-109904500D01*
G75*
G02*
X51238500Y-109732000I172500J0D01*
G01*
X51633500Y-109732000D01*
G75*
G02*
X51806000Y-109904500I0J-172500D01*
G01*
X51806000Y-110249500D01*
G75*
G02*
X51633500Y-110422000I-172500J0D01*
G01*
G37*
%TD*%
%TO.C,R47*%
G36*
G01*
X84482500Y-39850000D02*
X83957500Y-39850000D01*
G75*
G02*
X83695000Y-39587500I0J262500D01*
G01*
X83695000Y-38962500D01*
G75*
G02*
X83957500Y-38700000I262500J0D01*
G01*
X84482500Y-38700000D01*
G75*
G02*
X84745000Y-38962500I0J-262500D01*
G01*
X84745000Y-39587500D01*
G75*
G02*
X84482500Y-39850000I-262500J0D01*
G01*
G37*
G36*
G01*
X84482500Y-41600000D02*
X83957500Y-41600000D01*
G75*
G02*
X83695000Y-41337500I0J262500D01*
G01*
X83695000Y-40712500D01*
G75*
G02*
X83957500Y-40450000I262500J0D01*
G01*
X84482500Y-40450000D01*
G75*
G02*
X84745000Y-40712500I0J-262500D01*
G01*
X84745000Y-41337500D01*
G75*
G02*
X84482500Y-41600000I-262500J0D01*
G01*
G37*
%TD*%
%TO.C,R46*%
G36*
G01*
X84482500Y-43310000D02*
X83957500Y-43310000D01*
G75*
G02*
X83695000Y-43047500I0J262500D01*
G01*
X83695000Y-42422500D01*
G75*
G02*
X83957500Y-42160000I262500J0D01*
G01*
X84482500Y-42160000D01*
G75*
G02*
X84745000Y-42422500I0J-262500D01*
G01*
X84745000Y-43047500D01*
G75*
G02*
X84482500Y-43310000I-262500J0D01*
G01*
G37*
G36*
G01*
X84482500Y-45060000D02*
X83957500Y-45060000D01*
G75*
G02*
X83695000Y-44797500I0J262500D01*
G01*
X83695000Y-44172500D01*
G75*
G02*
X83957500Y-43910000I262500J0D01*
G01*
X84482500Y-43910000D01*
G75*
G02*
X84745000Y-44172500I0J-262500D01*
G01*
X84745000Y-44797500D01*
G75*
G02*
X84482500Y-45060000I-262500J0D01*
G01*
G37*
%TD*%
%TO.C,R45*%
G36*
G01*
X67466000Y-110714500D02*
X67466000Y-110189500D01*
G75*
G02*
X67728500Y-109927000I262500J0D01*
G01*
X68353500Y-109927000D01*
G75*
G02*
X68616000Y-110189500I0J-262500D01*
G01*
X68616000Y-110714500D01*
G75*
G02*
X68353500Y-110977000I-262500J0D01*
G01*
X67728500Y-110977000D01*
G75*
G02*
X67466000Y-110714500I0J262500D01*
G01*
G37*
G36*
G01*
X65716000Y-110714500D02*
X65716000Y-110189500D01*
G75*
G02*
X65978500Y-109927000I262500J0D01*
G01*
X66603500Y-109927000D01*
G75*
G02*
X66866000Y-110189500I0J-262500D01*
G01*
X66866000Y-110714500D01*
G75*
G02*
X66603500Y-110977000I-262500J0D01*
G01*
X65978500Y-110977000D01*
G75*
G02*
X65716000Y-110714500I0J262500D01*
G01*
G37*
%TD*%
%TO.C,R44*%
G36*
G01*
X66043500Y-107512000D02*
X66568500Y-107512000D01*
G75*
G02*
X66831000Y-107774500I0J-262500D01*
G01*
X66831000Y-108399500D01*
G75*
G02*
X66568500Y-108662000I-262500J0D01*
G01*
X66043500Y-108662000D01*
G75*
G02*
X65781000Y-108399500I0J262500D01*
G01*
X65781000Y-107774500D01*
G75*
G02*
X66043500Y-107512000I262500J0D01*
G01*
G37*
G36*
G01*
X66043500Y-105762000D02*
X66568500Y-105762000D01*
G75*
G02*
X66831000Y-106024500I0J-262500D01*
G01*
X66831000Y-106649500D01*
G75*
G02*
X66568500Y-106912000I-262500J0D01*
G01*
X66043500Y-106912000D01*
G75*
G02*
X65781000Y-106649500I0J262500D01*
G01*
X65781000Y-106024500D01*
G75*
G02*
X66043500Y-105762000I262500J0D01*
G01*
G37*
%TD*%
%TO.C,R43*%
G36*
G01*
X74672500Y-42130000D02*
X75067500Y-42130000D01*
G75*
G02*
X75240000Y-42302500I0J-172500D01*
G01*
X75240000Y-42647500D01*
G75*
G02*
X75067500Y-42820000I-172500J0D01*
G01*
X74672500Y-42820000D01*
G75*
G02*
X74500000Y-42647500I0J172500D01*
G01*
X74500000Y-42302500D01*
G75*
G02*
X74672500Y-42130000I172500J0D01*
G01*
G37*
G36*
G01*
X74672500Y-41160000D02*
X75067500Y-41160000D01*
G75*
G02*
X75240000Y-41332500I0J-172500D01*
G01*
X75240000Y-41677500D01*
G75*
G02*
X75067500Y-41850000I-172500J0D01*
G01*
X74672500Y-41850000D01*
G75*
G02*
X74500000Y-41677500I0J172500D01*
G01*
X74500000Y-41332500D01*
G75*
G02*
X74672500Y-41160000I172500J0D01*
G01*
G37*
%TD*%
%TO.C,R42*%
G36*
G01*
X75503500Y-106662000D02*
X75108500Y-106662000D01*
G75*
G02*
X74936000Y-106489500I0J172500D01*
G01*
X74936000Y-106144500D01*
G75*
G02*
X75108500Y-105972000I172500J0D01*
G01*
X75503500Y-105972000D01*
G75*
G02*
X75676000Y-106144500I0J-172500D01*
G01*
X75676000Y-106489500D01*
G75*
G02*
X75503500Y-106662000I-172500J0D01*
G01*
G37*
G36*
G01*
X75503500Y-107632000D02*
X75108500Y-107632000D01*
G75*
G02*
X74936000Y-107459500I0J172500D01*
G01*
X74936000Y-107114500D01*
G75*
G02*
X75108500Y-106942000I172500J0D01*
G01*
X75503500Y-106942000D01*
G75*
G02*
X75676000Y-107114500I0J-172500D01*
G01*
X75676000Y-107459500D01*
G75*
G02*
X75503500Y-107632000I-172500J0D01*
G01*
G37*
%TD*%
%TO.C,R39*%
G36*
G01*
X136490000Y-77702500D02*
X136490000Y-78097500D01*
G75*
G02*
X136317500Y-78270000I-172500J0D01*
G01*
X135972500Y-78270000D01*
G75*
G02*
X135800000Y-78097500I0J172500D01*
G01*
X135800000Y-77702500D01*
G75*
G02*
X135972500Y-77530000I172500J0D01*
G01*
X136317500Y-77530000D01*
G75*
G02*
X136490000Y-77702500I0J-172500D01*
G01*
G37*
G36*
G01*
X137460000Y-77702500D02*
X137460000Y-78097500D01*
G75*
G02*
X137287500Y-78270000I-172500J0D01*
G01*
X136942500Y-78270000D01*
G75*
G02*
X136770000Y-78097500I0J172500D01*
G01*
X136770000Y-77702500D01*
G75*
G02*
X136942500Y-77530000I172500J0D01*
G01*
X137287500Y-77530000D01*
G75*
G02*
X137460000Y-77702500I0J-172500D01*
G01*
G37*
%TD*%
%TO.C,R38*%
G36*
G01*
X152227500Y-99860000D02*
X151832500Y-99860000D01*
G75*
G02*
X151660000Y-99687500I0J172500D01*
G01*
X151660000Y-99342500D01*
G75*
G02*
X151832500Y-99170000I172500J0D01*
G01*
X152227500Y-99170000D01*
G75*
G02*
X152400000Y-99342500I0J-172500D01*
G01*
X152400000Y-99687500D01*
G75*
G02*
X152227500Y-99860000I-172500J0D01*
G01*
G37*
G36*
G01*
X152227500Y-100830000D02*
X151832500Y-100830000D01*
G75*
G02*
X151660000Y-100657500I0J172500D01*
G01*
X151660000Y-100312500D01*
G75*
G02*
X151832500Y-100140000I172500J0D01*
G01*
X152227500Y-100140000D01*
G75*
G02*
X152400000Y-100312500I0J-172500D01*
G01*
X152400000Y-100657500D01*
G75*
G02*
X152227500Y-100830000I-172500J0D01*
G01*
G37*
%TD*%
%TO.C,R37*%
G36*
G01*
X128250000Y-59462500D02*
X128250000Y-59857500D01*
G75*
G02*
X128077500Y-60030000I-172500J0D01*
G01*
X127732500Y-60030000D01*
G75*
G02*
X127560000Y-59857500I0J172500D01*
G01*
X127560000Y-59462500D01*
G75*
G02*
X127732500Y-59290000I172500J0D01*
G01*
X128077500Y-59290000D01*
G75*
G02*
X128250000Y-59462500I0J-172500D01*
G01*
G37*
G36*
G01*
X129220000Y-59462500D02*
X129220000Y-59857500D01*
G75*
G02*
X129047500Y-60030000I-172500J0D01*
G01*
X128702500Y-60030000D01*
G75*
G02*
X128530000Y-59857500I0J172500D01*
G01*
X128530000Y-59462500D01*
G75*
G02*
X128702500Y-59290000I172500J0D01*
G01*
X129047500Y-59290000D01*
G75*
G02*
X129220000Y-59462500I0J-172500D01*
G01*
G37*
%TD*%
%TO.C,R36*%
G36*
G01*
X160250000Y-91282500D02*
X160250000Y-91677500D01*
G75*
G02*
X160077500Y-91850000I-172500J0D01*
G01*
X159732500Y-91850000D01*
G75*
G02*
X159560000Y-91677500I0J172500D01*
G01*
X159560000Y-91282500D01*
G75*
G02*
X159732500Y-91110000I172500J0D01*
G01*
X160077500Y-91110000D01*
G75*
G02*
X160250000Y-91282500I0J-172500D01*
G01*
G37*
G36*
G01*
X161220000Y-91282500D02*
X161220000Y-91677500D01*
G75*
G02*
X161047500Y-91850000I-172500J0D01*
G01*
X160702500Y-91850000D01*
G75*
G02*
X160530000Y-91677500I0J172500D01*
G01*
X160530000Y-91282500D01*
G75*
G02*
X160702500Y-91110000I172500J0D01*
G01*
X161047500Y-91110000D01*
G75*
G02*
X161220000Y-91282500I0J-172500D01*
G01*
G37*
%TD*%
%TO.C,R35*%
G36*
G01*
X97652500Y-77870000D02*
X98047500Y-77870000D01*
G75*
G02*
X98220000Y-78042500I0J-172500D01*
G01*
X98220000Y-78387500D01*
G75*
G02*
X98047500Y-78560000I-172500J0D01*
G01*
X97652500Y-78560000D01*
G75*
G02*
X97480000Y-78387500I0J172500D01*
G01*
X97480000Y-78042500D01*
G75*
G02*
X97652500Y-77870000I172500J0D01*
G01*
G37*
G36*
G01*
X97652500Y-76900000D02*
X98047500Y-76900000D01*
G75*
G02*
X98220000Y-77072500I0J-172500D01*
G01*
X98220000Y-77417500D01*
G75*
G02*
X98047500Y-77590000I-172500J0D01*
G01*
X97652500Y-77590000D01*
G75*
G02*
X97480000Y-77417500I0J172500D01*
G01*
X97480000Y-77072500D01*
G75*
G02*
X97652500Y-76900000I172500J0D01*
G01*
G37*
%TD*%
%TO.C,R34*%
G36*
G01*
X111377500Y-68720000D02*
X110982500Y-68720000D01*
G75*
G02*
X110810000Y-68547500I0J172500D01*
G01*
X110810000Y-68202500D01*
G75*
G02*
X110982500Y-68030000I172500J0D01*
G01*
X111377500Y-68030000D01*
G75*
G02*
X111550000Y-68202500I0J-172500D01*
G01*
X111550000Y-68547500D01*
G75*
G02*
X111377500Y-68720000I-172500J0D01*
G01*
G37*
G36*
G01*
X111377500Y-69690000D02*
X110982500Y-69690000D01*
G75*
G02*
X110810000Y-69517500I0J172500D01*
G01*
X110810000Y-69172500D01*
G75*
G02*
X110982500Y-69000000I172500J0D01*
G01*
X111377500Y-69000000D01*
G75*
G02*
X111550000Y-69172500I0J-172500D01*
G01*
X111550000Y-69517500D01*
G75*
G02*
X111377500Y-69690000I-172500J0D01*
G01*
G37*
%TD*%
%TO.C,R33*%
G36*
G01*
X117040000Y-101922500D02*
X117040000Y-102317500D01*
G75*
G02*
X116867500Y-102490000I-172500J0D01*
G01*
X116522500Y-102490000D01*
G75*
G02*
X116350000Y-102317500I0J172500D01*
G01*
X116350000Y-101922500D01*
G75*
G02*
X116522500Y-101750000I172500J0D01*
G01*
X116867500Y-101750000D01*
G75*
G02*
X117040000Y-101922500I0J-172500D01*
G01*
G37*
G36*
G01*
X118010000Y-101922500D02*
X118010000Y-102317500D01*
G75*
G02*
X117837500Y-102490000I-172500J0D01*
G01*
X117492500Y-102490000D01*
G75*
G02*
X117320000Y-102317500I0J172500D01*
G01*
X117320000Y-101922500D01*
G75*
G02*
X117492500Y-101750000I172500J0D01*
G01*
X117837500Y-101750000D01*
G75*
G02*
X118010000Y-101922500I0J-172500D01*
G01*
G37*
%TD*%
%TO.C,R32*%
G36*
G01*
X91132500Y-76160000D02*
X91527500Y-76160000D01*
G75*
G02*
X91700000Y-76332500I0J-172500D01*
G01*
X91700000Y-76677500D01*
G75*
G02*
X91527500Y-76850000I-172500J0D01*
G01*
X91132500Y-76850000D01*
G75*
G02*
X90960000Y-76677500I0J172500D01*
G01*
X90960000Y-76332500D01*
G75*
G02*
X91132500Y-76160000I172500J0D01*
G01*
G37*
G36*
G01*
X91132500Y-75190000D02*
X91527500Y-75190000D01*
G75*
G02*
X91700000Y-75362500I0J-172500D01*
G01*
X91700000Y-75707500D01*
G75*
G02*
X91527500Y-75880000I-172500J0D01*
G01*
X91132500Y-75880000D01*
G75*
G02*
X90960000Y-75707500I0J172500D01*
G01*
X90960000Y-75362500D01*
G75*
G02*
X91132500Y-75190000I172500J0D01*
G01*
G37*
%TD*%
%TO.C,R31*%
G36*
G01*
X178032500Y-134480000D02*
X178427500Y-134480000D01*
G75*
G02*
X178600000Y-134652500I0J-172500D01*
G01*
X178600000Y-134997500D01*
G75*
G02*
X178427500Y-135170000I-172500J0D01*
G01*
X178032500Y-135170000D01*
G75*
G02*
X177860000Y-134997500I0J172500D01*
G01*
X177860000Y-134652500D01*
G75*
G02*
X178032500Y-134480000I172500J0D01*
G01*
G37*
G36*
G01*
X178032500Y-133510000D02*
X178427500Y-133510000D01*
G75*
G02*
X178600000Y-133682500I0J-172500D01*
G01*
X178600000Y-134027500D01*
G75*
G02*
X178427500Y-134200000I-172500J0D01*
G01*
X178032500Y-134200000D01*
G75*
G02*
X177860000Y-134027500I0J172500D01*
G01*
X177860000Y-133682500D01*
G75*
G02*
X178032500Y-133510000I172500J0D01*
G01*
G37*
%TD*%
%TO.C,R30*%
G36*
G01*
X148927500Y-53980000D02*
X148532500Y-53980000D01*
G75*
G02*
X148360000Y-53807500I0J172500D01*
G01*
X148360000Y-53462500D01*
G75*
G02*
X148532500Y-53290000I172500J0D01*
G01*
X148927500Y-53290000D01*
G75*
G02*
X149100000Y-53462500I0J-172500D01*
G01*
X149100000Y-53807500D01*
G75*
G02*
X148927500Y-53980000I-172500J0D01*
G01*
G37*
G36*
G01*
X148927500Y-54950000D02*
X148532500Y-54950000D01*
G75*
G02*
X148360000Y-54777500I0J172500D01*
G01*
X148360000Y-54432500D01*
G75*
G02*
X148532500Y-54260000I172500J0D01*
G01*
X148927500Y-54260000D01*
G75*
G02*
X149100000Y-54432500I0J-172500D01*
G01*
X149100000Y-54777500D01*
G75*
G02*
X148927500Y-54950000I-172500J0D01*
G01*
G37*
%TD*%
%TO.C,R29*%
G36*
G01*
X175637500Y-111110000D02*
X175242500Y-111110000D01*
G75*
G02*
X175070000Y-110937500I0J172500D01*
G01*
X175070000Y-110592500D01*
G75*
G02*
X175242500Y-110420000I172500J0D01*
G01*
X175637500Y-110420000D01*
G75*
G02*
X175810000Y-110592500I0J-172500D01*
G01*
X175810000Y-110937500D01*
G75*
G02*
X175637500Y-111110000I-172500J0D01*
G01*
G37*
G36*
G01*
X175637500Y-112080000D02*
X175242500Y-112080000D01*
G75*
G02*
X175070000Y-111907500I0J172500D01*
G01*
X175070000Y-111562500D01*
G75*
G02*
X175242500Y-111390000I172500J0D01*
G01*
X175637500Y-111390000D01*
G75*
G02*
X175810000Y-111562500I0J-172500D01*
G01*
X175810000Y-111907500D01*
G75*
G02*
X175637500Y-112080000I-172500J0D01*
G01*
G37*
%TD*%
%TO.C,R28*%
G36*
G01*
X136120000Y-34672500D02*
X136120000Y-35067500D01*
G75*
G02*
X135947500Y-35240000I-172500J0D01*
G01*
X135602500Y-35240000D01*
G75*
G02*
X135430000Y-35067500I0J172500D01*
G01*
X135430000Y-34672500D01*
G75*
G02*
X135602500Y-34500000I172500J0D01*
G01*
X135947500Y-34500000D01*
G75*
G02*
X136120000Y-34672500I0J-172500D01*
G01*
G37*
G36*
G01*
X137090000Y-34672500D02*
X137090000Y-35067500D01*
G75*
G02*
X136917500Y-35240000I-172500J0D01*
G01*
X136572500Y-35240000D01*
G75*
G02*
X136400000Y-35067500I0J172500D01*
G01*
X136400000Y-34672500D01*
G75*
G02*
X136572500Y-34500000I172500J0D01*
G01*
X136917500Y-34500000D01*
G75*
G02*
X137090000Y-34672500I0J-172500D01*
G01*
G37*
%TD*%
%TO.C,R27*%
G36*
G01*
X168597500Y-62530000D02*
X168202500Y-62530000D01*
G75*
G02*
X168030000Y-62357500I0J172500D01*
G01*
X168030000Y-62012500D01*
G75*
G02*
X168202500Y-61840000I172500J0D01*
G01*
X168597500Y-61840000D01*
G75*
G02*
X168770000Y-62012500I0J-172500D01*
G01*
X168770000Y-62357500D01*
G75*
G02*
X168597500Y-62530000I-172500J0D01*
G01*
G37*
G36*
G01*
X168597500Y-63500000D02*
X168202500Y-63500000D01*
G75*
G02*
X168030000Y-63327500I0J172500D01*
G01*
X168030000Y-62982500D01*
G75*
G02*
X168202500Y-62810000I172500J0D01*
G01*
X168597500Y-62810000D01*
G75*
G02*
X168770000Y-62982500I0J-172500D01*
G01*
X168770000Y-63327500D01*
G75*
G02*
X168597500Y-63500000I-172500J0D01*
G01*
G37*
%TD*%
%TO.C,R26*%
G36*
G01*
X106070000Y-51772500D02*
X106070000Y-52167500D01*
G75*
G02*
X105897500Y-52340000I-172500J0D01*
G01*
X105552500Y-52340000D01*
G75*
G02*
X105380000Y-52167500I0J172500D01*
G01*
X105380000Y-51772500D01*
G75*
G02*
X105552500Y-51600000I172500J0D01*
G01*
X105897500Y-51600000D01*
G75*
G02*
X106070000Y-51772500I0J-172500D01*
G01*
G37*
G36*
G01*
X107040000Y-51772500D02*
X107040000Y-52167500D01*
G75*
G02*
X106867500Y-52340000I-172500J0D01*
G01*
X106522500Y-52340000D01*
G75*
G02*
X106350000Y-52167500I0J172500D01*
G01*
X106350000Y-51772500D01*
G75*
G02*
X106522500Y-51600000I172500J0D01*
G01*
X106867500Y-51600000D01*
G75*
G02*
X107040000Y-51772500I0J-172500D01*
G01*
G37*
%TD*%
%TO.C,R25*%
G36*
G01*
X134582500Y-80660000D02*
X134977500Y-80660000D01*
G75*
G02*
X135150000Y-80832500I0J-172500D01*
G01*
X135150000Y-81177500D01*
G75*
G02*
X134977500Y-81350000I-172500J0D01*
G01*
X134582500Y-81350000D01*
G75*
G02*
X134410000Y-81177500I0J172500D01*
G01*
X134410000Y-80832500D01*
G75*
G02*
X134582500Y-80660000I172500J0D01*
G01*
G37*
G36*
G01*
X134582500Y-79690000D02*
X134977500Y-79690000D01*
G75*
G02*
X135150000Y-79862500I0J-172500D01*
G01*
X135150000Y-80207500D01*
G75*
G02*
X134977500Y-80380000I-172500J0D01*
G01*
X134582500Y-80380000D01*
G75*
G02*
X134410000Y-80207500I0J172500D01*
G01*
X134410000Y-79862500D01*
G75*
G02*
X134582500Y-79690000I172500J0D01*
G01*
G37*
%TD*%
%TO.C,R24*%
G36*
G01*
X140923000Y-114545500D02*
X140923000Y-114150500D01*
G75*
G02*
X141095500Y-113978000I172500J0D01*
G01*
X141440500Y-113978000D01*
G75*
G02*
X141613000Y-114150500I0J-172500D01*
G01*
X141613000Y-114545500D01*
G75*
G02*
X141440500Y-114718000I-172500J0D01*
G01*
X141095500Y-114718000D01*
G75*
G02*
X140923000Y-114545500I0J172500D01*
G01*
G37*
G36*
G01*
X139953000Y-114545500D02*
X139953000Y-114150500D01*
G75*
G02*
X140125500Y-113978000I172500J0D01*
G01*
X140470500Y-113978000D01*
G75*
G02*
X140643000Y-114150500I0J-172500D01*
G01*
X140643000Y-114545500D01*
G75*
G02*
X140470500Y-114718000I-172500J0D01*
G01*
X140125500Y-114718000D01*
G75*
G02*
X139953000Y-114545500I0J172500D01*
G01*
G37*
%TD*%
%TO.C,R23*%
G36*
G01*
X69317500Y-61220000D02*
X68922500Y-61220000D01*
G75*
G02*
X68750000Y-61047500I0J172500D01*
G01*
X68750000Y-60702500D01*
G75*
G02*
X68922500Y-60530000I172500J0D01*
G01*
X69317500Y-60530000D01*
G75*
G02*
X69490000Y-60702500I0J-172500D01*
G01*
X69490000Y-61047500D01*
G75*
G02*
X69317500Y-61220000I-172500J0D01*
G01*
G37*
G36*
G01*
X69317500Y-62190000D02*
X68922500Y-62190000D01*
G75*
G02*
X68750000Y-62017500I0J172500D01*
G01*
X68750000Y-61672500D01*
G75*
G02*
X68922500Y-61500000I172500J0D01*
G01*
X69317500Y-61500000D01*
G75*
G02*
X69490000Y-61672500I0J-172500D01*
G01*
X69490000Y-62017500D01*
G75*
G02*
X69317500Y-62190000I-172500J0D01*
G01*
G37*
%TD*%
%TO.C,R22*%
G36*
G01*
X156347500Y-121830000D02*
X155952500Y-121830000D01*
G75*
G02*
X155780000Y-121657500I0J172500D01*
G01*
X155780000Y-121312500D01*
G75*
G02*
X155952500Y-121140000I172500J0D01*
G01*
X156347500Y-121140000D01*
G75*
G02*
X156520000Y-121312500I0J-172500D01*
G01*
X156520000Y-121657500D01*
G75*
G02*
X156347500Y-121830000I-172500J0D01*
G01*
G37*
G36*
G01*
X156347500Y-122800000D02*
X155952500Y-122800000D01*
G75*
G02*
X155780000Y-122627500I0J172500D01*
G01*
X155780000Y-122282500D01*
G75*
G02*
X155952500Y-122110000I172500J0D01*
G01*
X156347500Y-122110000D01*
G75*
G02*
X156520000Y-122282500I0J-172500D01*
G01*
X156520000Y-122627500D01*
G75*
G02*
X156347500Y-122800000I-172500J0D01*
G01*
G37*
%TD*%
%TO.C,R21*%
G36*
G01*
X102790000Y-79532500D02*
X102790000Y-79927500D01*
G75*
G02*
X102617500Y-80100000I-172500J0D01*
G01*
X102272500Y-80100000D01*
G75*
G02*
X102100000Y-79927500I0J172500D01*
G01*
X102100000Y-79532500D01*
G75*
G02*
X102272500Y-79360000I172500J0D01*
G01*
X102617500Y-79360000D01*
G75*
G02*
X102790000Y-79532500I0J-172500D01*
G01*
G37*
G36*
G01*
X103760000Y-79532500D02*
X103760000Y-79927500D01*
G75*
G02*
X103587500Y-80100000I-172500J0D01*
G01*
X103242500Y-80100000D01*
G75*
G02*
X103070000Y-79927500I0J172500D01*
G01*
X103070000Y-79532500D01*
G75*
G02*
X103242500Y-79360000I172500J0D01*
G01*
X103587500Y-79360000D01*
G75*
G02*
X103760000Y-79532500I0J-172500D01*
G01*
G37*
%TD*%
%TO.C,R20*%
G36*
G01*
X113410000Y-45752500D02*
X113410000Y-46147500D01*
G75*
G02*
X113237500Y-46320000I-172500J0D01*
G01*
X112892500Y-46320000D01*
G75*
G02*
X112720000Y-46147500I0J172500D01*
G01*
X112720000Y-45752500D01*
G75*
G02*
X112892500Y-45580000I172500J0D01*
G01*
X113237500Y-45580000D01*
G75*
G02*
X113410000Y-45752500I0J-172500D01*
G01*
G37*
G36*
G01*
X114380000Y-45752500D02*
X114380000Y-46147500D01*
G75*
G02*
X114207500Y-46320000I-172500J0D01*
G01*
X113862500Y-46320000D01*
G75*
G02*
X113690000Y-46147500I0J172500D01*
G01*
X113690000Y-45752500D01*
G75*
G02*
X113862500Y-45580000I172500J0D01*
G01*
X114207500Y-45580000D01*
G75*
G02*
X114380000Y-45752500I0J-172500D01*
G01*
G37*
%TD*%
%TO.C,R19*%
G36*
G01*
X114990000Y-36632500D02*
X114990000Y-37027500D01*
G75*
G02*
X114817500Y-37200000I-172500J0D01*
G01*
X114472500Y-37200000D01*
G75*
G02*
X114300000Y-37027500I0J172500D01*
G01*
X114300000Y-36632500D01*
G75*
G02*
X114472500Y-36460000I172500J0D01*
G01*
X114817500Y-36460000D01*
G75*
G02*
X114990000Y-36632500I0J-172500D01*
G01*
G37*
G36*
G01*
X115960000Y-36632500D02*
X115960000Y-37027500D01*
G75*
G02*
X115787500Y-37200000I-172500J0D01*
G01*
X115442500Y-37200000D01*
G75*
G02*
X115270000Y-37027500I0J172500D01*
G01*
X115270000Y-36632500D01*
G75*
G02*
X115442500Y-36460000I172500J0D01*
G01*
X115787500Y-36460000D01*
G75*
G02*
X115960000Y-36632500I0J-172500D01*
G01*
G37*
%TD*%
%TO.C,R18*%
G36*
G01*
X66042500Y-133980000D02*
X66437500Y-133980000D01*
G75*
G02*
X66610000Y-134152500I0J-172500D01*
G01*
X66610000Y-134497500D01*
G75*
G02*
X66437500Y-134670000I-172500J0D01*
G01*
X66042500Y-134670000D01*
G75*
G02*
X65870000Y-134497500I0J172500D01*
G01*
X65870000Y-134152500D01*
G75*
G02*
X66042500Y-133980000I172500J0D01*
G01*
G37*
G36*
G01*
X66042500Y-133010000D02*
X66437500Y-133010000D01*
G75*
G02*
X66610000Y-133182500I0J-172500D01*
G01*
X66610000Y-133527500D01*
G75*
G02*
X66437500Y-133700000I-172500J0D01*
G01*
X66042500Y-133700000D01*
G75*
G02*
X65870000Y-133527500I0J172500D01*
G01*
X65870000Y-133182500D01*
G75*
G02*
X66042500Y-133010000I172500J0D01*
G01*
G37*
%TD*%
%TO.C,R17*%
G36*
G01*
X87042500Y-135740000D02*
X87437500Y-135740000D01*
G75*
G02*
X87610000Y-135912500I0J-172500D01*
G01*
X87610000Y-136257500D01*
G75*
G02*
X87437500Y-136430000I-172500J0D01*
G01*
X87042500Y-136430000D01*
G75*
G02*
X86870000Y-136257500I0J172500D01*
G01*
X86870000Y-135912500D01*
G75*
G02*
X87042500Y-135740000I172500J0D01*
G01*
G37*
G36*
G01*
X87042500Y-134770000D02*
X87437500Y-134770000D01*
G75*
G02*
X87610000Y-134942500I0J-172500D01*
G01*
X87610000Y-135287500D01*
G75*
G02*
X87437500Y-135460000I-172500J0D01*
G01*
X87042500Y-135460000D01*
G75*
G02*
X86870000Y-135287500I0J172500D01*
G01*
X86870000Y-134942500D01*
G75*
G02*
X87042500Y-134770000I172500J0D01*
G01*
G37*
%TD*%
%TO.C,R16*%
G36*
G01*
X111432500Y-133860000D02*
X111827500Y-133860000D01*
G75*
G02*
X112000000Y-134032500I0J-172500D01*
G01*
X112000000Y-134377500D01*
G75*
G02*
X111827500Y-134550000I-172500J0D01*
G01*
X111432500Y-134550000D01*
G75*
G02*
X111260000Y-134377500I0J172500D01*
G01*
X111260000Y-134032500D01*
G75*
G02*
X111432500Y-133860000I172500J0D01*
G01*
G37*
G36*
G01*
X111432500Y-132890000D02*
X111827500Y-132890000D01*
G75*
G02*
X112000000Y-133062500I0J-172500D01*
G01*
X112000000Y-133407500D01*
G75*
G02*
X111827500Y-133580000I-172500J0D01*
G01*
X111432500Y-133580000D01*
G75*
G02*
X111260000Y-133407500I0J172500D01*
G01*
X111260000Y-133062500D01*
G75*
G02*
X111432500Y-132890000I172500J0D01*
G01*
G37*
%TD*%
%TO.C,R15*%
G36*
G01*
X115270000Y-38937500D02*
X115270000Y-38542500D01*
G75*
G02*
X115442500Y-38370000I172500J0D01*
G01*
X115787500Y-38370000D01*
G75*
G02*
X115960000Y-38542500I0J-172500D01*
G01*
X115960000Y-38937500D01*
G75*
G02*
X115787500Y-39110000I-172500J0D01*
G01*
X115442500Y-39110000D01*
G75*
G02*
X115270000Y-38937500I0J172500D01*
G01*
G37*
G36*
G01*
X114300000Y-38937500D02*
X114300000Y-38542500D01*
G75*
G02*
X114472500Y-38370000I172500J0D01*
G01*
X114817500Y-38370000D01*
G75*
G02*
X114990000Y-38542500I0J-172500D01*
G01*
X114990000Y-38937500D01*
G75*
G02*
X114817500Y-39110000I-172500J0D01*
G01*
X114472500Y-39110000D01*
G75*
G02*
X114300000Y-38937500I0J172500D01*
G01*
G37*
%TD*%
%TO.C,R14*%
G36*
G01*
X156502500Y-136770000D02*
X156897500Y-136770000D01*
G75*
G02*
X157070000Y-136942500I0J-172500D01*
G01*
X157070000Y-137287500D01*
G75*
G02*
X156897500Y-137460000I-172500J0D01*
G01*
X156502500Y-137460000D01*
G75*
G02*
X156330000Y-137287500I0J172500D01*
G01*
X156330000Y-136942500D01*
G75*
G02*
X156502500Y-136770000I172500J0D01*
G01*
G37*
G36*
G01*
X156502500Y-135800000D02*
X156897500Y-135800000D01*
G75*
G02*
X157070000Y-135972500I0J-172500D01*
G01*
X157070000Y-136317500D01*
G75*
G02*
X156897500Y-136490000I-172500J0D01*
G01*
X156502500Y-136490000D01*
G75*
G02*
X156330000Y-136317500I0J172500D01*
G01*
X156330000Y-135972500D01*
G75*
G02*
X156502500Y-135800000I172500J0D01*
G01*
G37*
%TD*%
%TO.C,R13*%
G36*
G01*
X100820000Y-90902500D02*
X100820000Y-91297500D01*
G75*
G02*
X100647500Y-91470000I-172500J0D01*
G01*
X100302500Y-91470000D01*
G75*
G02*
X100130000Y-91297500I0J172500D01*
G01*
X100130000Y-90902500D01*
G75*
G02*
X100302500Y-90730000I172500J0D01*
G01*
X100647500Y-90730000D01*
G75*
G02*
X100820000Y-90902500I0J-172500D01*
G01*
G37*
G36*
G01*
X101790000Y-90902500D02*
X101790000Y-91297500D01*
G75*
G02*
X101617500Y-91470000I-172500J0D01*
G01*
X101272500Y-91470000D01*
G75*
G02*
X101100000Y-91297500I0J172500D01*
G01*
X101100000Y-90902500D01*
G75*
G02*
X101272500Y-90730000I172500J0D01*
G01*
X101617500Y-90730000D01*
G75*
G02*
X101790000Y-90902500I0J-172500D01*
G01*
G37*
%TD*%
%TO.C,R12*%
G36*
G01*
X43937500Y-121080000D02*
X43542500Y-121080000D01*
G75*
G02*
X43370000Y-120907500I0J172500D01*
G01*
X43370000Y-120562500D01*
G75*
G02*
X43542500Y-120390000I172500J0D01*
G01*
X43937500Y-120390000D01*
G75*
G02*
X44110000Y-120562500I0J-172500D01*
G01*
X44110000Y-120907500D01*
G75*
G02*
X43937500Y-121080000I-172500J0D01*
G01*
G37*
G36*
G01*
X43937500Y-122050000D02*
X43542500Y-122050000D01*
G75*
G02*
X43370000Y-121877500I0J172500D01*
G01*
X43370000Y-121532500D01*
G75*
G02*
X43542500Y-121360000I172500J0D01*
G01*
X43937500Y-121360000D01*
G75*
G02*
X44110000Y-121532500I0J-172500D01*
G01*
X44110000Y-121877500D01*
G75*
G02*
X43937500Y-122050000I-172500J0D01*
G01*
G37*
%TD*%
%TO.C,R11*%
G36*
G01*
X64974000Y-123064500D02*
X64974000Y-123459500D01*
G75*
G02*
X64801500Y-123632000I-172500J0D01*
G01*
X64456500Y-123632000D01*
G75*
G02*
X64284000Y-123459500I0J172500D01*
G01*
X64284000Y-123064500D01*
G75*
G02*
X64456500Y-122892000I172500J0D01*
G01*
X64801500Y-122892000D01*
G75*
G02*
X64974000Y-123064500I0J-172500D01*
G01*
G37*
G36*
G01*
X65944000Y-123064500D02*
X65944000Y-123459500D01*
G75*
G02*
X65771500Y-123632000I-172500J0D01*
G01*
X65426500Y-123632000D01*
G75*
G02*
X65254000Y-123459500I0J172500D01*
G01*
X65254000Y-123064500D01*
G75*
G02*
X65426500Y-122892000I172500J0D01*
G01*
X65771500Y-122892000D01*
G75*
G02*
X65944000Y-123064500I0J-172500D01*
G01*
G37*
%TD*%
%TO.C,R10*%
G36*
G01*
X89567500Y-121150000D02*
X89172500Y-121150000D01*
G75*
G02*
X89000000Y-120977500I0J172500D01*
G01*
X89000000Y-120632500D01*
G75*
G02*
X89172500Y-120460000I172500J0D01*
G01*
X89567500Y-120460000D01*
G75*
G02*
X89740000Y-120632500I0J-172500D01*
G01*
X89740000Y-120977500D01*
G75*
G02*
X89567500Y-121150000I-172500J0D01*
G01*
G37*
G36*
G01*
X89567500Y-122120000D02*
X89172500Y-122120000D01*
G75*
G02*
X89000000Y-121947500I0J172500D01*
G01*
X89000000Y-121602500D01*
G75*
G02*
X89172500Y-121430000I172500J0D01*
G01*
X89567500Y-121430000D01*
G75*
G02*
X89740000Y-121602500I0J-172500D01*
G01*
X89740000Y-121947500D01*
G75*
G02*
X89567500Y-122120000I-172500J0D01*
G01*
G37*
%TD*%
%TO.C,R9*%
G36*
G01*
X112747500Y-121540000D02*
X112352500Y-121540000D01*
G75*
G02*
X112180000Y-121367500I0J172500D01*
G01*
X112180000Y-121022500D01*
G75*
G02*
X112352500Y-120850000I172500J0D01*
G01*
X112747500Y-120850000D01*
G75*
G02*
X112920000Y-121022500I0J-172500D01*
G01*
X112920000Y-121367500D01*
G75*
G02*
X112747500Y-121540000I-172500J0D01*
G01*
G37*
G36*
G01*
X112747500Y-122510000D02*
X112352500Y-122510000D01*
G75*
G02*
X112180000Y-122337500I0J172500D01*
G01*
X112180000Y-121992500D01*
G75*
G02*
X112352500Y-121820000I172500J0D01*
G01*
X112747500Y-121820000D01*
G75*
G02*
X112920000Y-121992500I0J-172500D01*
G01*
X112920000Y-122337500D01*
G75*
G02*
X112747500Y-122510000I-172500J0D01*
G01*
G37*
%TD*%
%TO.C,R8*%
G36*
G01*
X134667500Y-121910000D02*
X134272500Y-121910000D01*
G75*
G02*
X134100000Y-121737500I0J172500D01*
G01*
X134100000Y-121392500D01*
G75*
G02*
X134272500Y-121220000I172500J0D01*
G01*
X134667500Y-121220000D01*
G75*
G02*
X134840000Y-121392500I0J-172500D01*
G01*
X134840000Y-121737500D01*
G75*
G02*
X134667500Y-121910000I-172500J0D01*
G01*
G37*
G36*
G01*
X134667500Y-122880000D02*
X134272500Y-122880000D01*
G75*
G02*
X134100000Y-122707500I0J172500D01*
G01*
X134100000Y-122362500D01*
G75*
G02*
X134272500Y-122190000I172500J0D01*
G01*
X134667500Y-122190000D01*
G75*
G02*
X134840000Y-122362500I0J-172500D01*
G01*
X134840000Y-122707500D01*
G75*
G02*
X134667500Y-122880000I-172500J0D01*
G01*
G37*
%TD*%
%TO.C,R7*%
G36*
G01*
X90160500Y-116874000D02*
X90555500Y-116874000D01*
G75*
G02*
X90728000Y-117046500I0J-172500D01*
G01*
X90728000Y-117391500D01*
G75*
G02*
X90555500Y-117564000I-172500J0D01*
G01*
X90160500Y-117564000D01*
G75*
G02*
X89988000Y-117391500I0J172500D01*
G01*
X89988000Y-117046500D01*
G75*
G02*
X90160500Y-116874000I172500J0D01*
G01*
G37*
G36*
G01*
X90160500Y-115904000D02*
X90555500Y-115904000D01*
G75*
G02*
X90728000Y-116076500I0J-172500D01*
G01*
X90728000Y-116421500D01*
G75*
G02*
X90555500Y-116594000I-172500J0D01*
G01*
X90160500Y-116594000D01*
G75*
G02*
X89988000Y-116421500I0J172500D01*
G01*
X89988000Y-116076500D01*
G75*
G02*
X90160500Y-115904000I172500J0D01*
G01*
G37*
%TD*%
D16*
%TO.C,Q33*%
X138680000Y-77578000D03*
X140580000Y-77578000D03*
X139630000Y-75478000D03*
%TD*%
D15*
%TO.C,Q32*%
X152318000Y-102042000D03*
X152318000Y-103942000D03*
X154418000Y-102992000D03*
%TD*%
D16*
%TO.C,Q31*%
X128820000Y-58220000D03*
X130720000Y-58220000D03*
X129770000Y-56120000D03*
%TD*%
D15*
%TO.C,Q30*%
X162280000Y-91470000D03*
X162280000Y-93370000D03*
X164380000Y-92420000D03*
%TD*%
D16*
%TO.C,Q29*%
X97944000Y-75760000D03*
X99844000Y-75760000D03*
X98894000Y-73660000D03*
%TD*%
D15*
%TO.C,Q28*%
X111480000Y-70894000D03*
X111480000Y-72794000D03*
X113580000Y-71844000D03*
%TD*%
%TO.C,Q27*%
X117018000Y-103738000D03*
X117018000Y-105638000D03*
X119118000Y-104688000D03*
%TD*%
%TO.C,Q26*%
X91020000Y-74010000D03*
X91020000Y-72110000D03*
X88920000Y-73060000D03*
%TD*%
%TO.C,Q25*%
X177950000Y-132250000D03*
X177950000Y-130350000D03*
X175850000Y-131300000D03*
%TD*%
D16*
%TO.C,Q24*%
X148708000Y-56174000D03*
X146808000Y-56174000D03*
X147758000Y-58274000D03*
%TD*%
D15*
%TO.C,Q23*%
X173970000Y-111730000D03*
X173970000Y-109830000D03*
X171870000Y-110780000D03*
%TD*%
D16*
%TO.C,Q22*%
X136770000Y-36640000D03*
X134870000Y-36640000D03*
X135820000Y-38740000D03*
%TD*%
%TO.C,Q21*%
X168390000Y-64544000D03*
X166490000Y-64544000D03*
X167440000Y-66644000D03*
%TD*%
%TO.C,Q20*%
X106194000Y-53848000D03*
X104294000Y-53848000D03*
X105244000Y-55948000D03*
%TD*%
D15*
%TO.C,Q19*%
X133392000Y-79144000D03*
X133392000Y-77244000D03*
X131292000Y-78194000D03*
%TD*%
%TO.C,Q18*%
X138548000Y-114038000D03*
X138548000Y-112138000D03*
X136448000Y-113088000D03*
%TD*%
%TO.C,Q17*%
X69400000Y-63380000D03*
X69400000Y-65280000D03*
X71500000Y-64330000D03*
%TD*%
%TO.C,Q16*%
X156460000Y-124010000D03*
X156460000Y-125910000D03*
X158560000Y-124960000D03*
%TD*%
%TO.C,Q15*%
X104864000Y-79714000D03*
X104864000Y-81614000D03*
X106964000Y-80664000D03*
%TD*%
%TO.C,Q14*%
X115460000Y-45910000D03*
X115460000Y-47810000D03*
X117560000Y-46860000D03*
%TD*%
%TO.C,Q13*%
X117020000Y-36778000D03*
X117020000Y-38678000D03*
X119120000Y-37728000D03*
%TD*%
%TO.C,Q12*%
X65938000Y-131742000D03*
X65938000Y-129842000D03*
X63838000Y-130792000D03*
%TD*%
D16*
%TO.C,Q11*%
X87230000Y-133700000D03*
X89130000Y-133700000D03*
X88180000Y-131600000D03*
%TD*%
D15*
%TO.C,Q10*%
X111316000Y-131682000D03*
X111316000Y-129782000D03*
X109216000Y-130732000D03*
%TD*%
%TO.C,Q9*%
X134310000Y-132464000D03*
X134310000Y-130564000D03*
X132210000Y-131514000D03*
%TD*%
%TO.C,Q8*%
X156436000Y-134482000D03*
X156436000Y-132582000D03*
X154336000Y-133532000D03*
%TD*%
D16*
%TO.C,Q7*%
X100868000Y-92704000D03*
X98968000Y-92704000D03*
X99918000Y-94804000D03*
%TD*%
D15*
%TO.C,Q6*%
X44026000Y-123238000D03*
X44026000Y-125138000D03*
X46126000Y-124188000D03*
%TD*%
%TO.C,Q5*%
X67112000Y-123328000D03*
X67112000Y-125228000D03*
X69212000Y-124278000D03*
%TD*%
%TO.C,Q4*%
X89658000Y-123432000D03*
X89658000Y-125332000D03*
X91758000Y-124382000D03*
%TD*%
%TO.C,Q3*%
X112820000Y-123704000D03*
X112820000Y-125604000D03*
X114920000Y-124654000D03*
%TD*%
%TO.C,Q2*%
X134756000Y-124062000D03*
X134756000Y-125962000D03*
X136856000Y-125012000D03*
%TD*%
D16*
%TO.C,Q1*%
X90448000Y-114444000D03*
X92348000Y-114444000D03*
X91398000Y-112344000D03*
%TD*%
D26*
%TO.C,PI1*%
X60900000Y-37130000D03*
X63440000Y-37130000D03*
X60900000Y-39670000D03*
X63440000Y-39670000D03*
X60900000Y-42210000D03*
X63440000Y-42210000D03*
X60900000Y-44750000D03*
X63440000Y-44750000D03*
X60900000Y-47290000D03*
X63440000Y-47290000D03*
X60900000Y-49830000D03*
X63440000Y-49830000D03*
X60900000Y-52370000D03*
X63440000Y-52370000D03*
X60900000Y-54910000D03*
X63440000Y-54910000D03*
X60900000Y-57450000D03*
X63440000Y-57450000D03*
X60900000Y-59990000D03*
X63440000Y-59990000D03*
X60900000Y-62530000D03*
X63440000Y-62530000D03*
X60900000Y-65070000D03*
X63440000Y-65070000D03*
X60900000Y-67610000D03*
X63440000Y-67610000D03*
X60900000Y-70150000D03*
X63440000Y-70150000D03*
X60900000Y-72690000D03*
X63440000Y-72690000D03*
X60900000Y-75230000D03*
X63440000Y-75230000D03*
X60900000Y-77770000D03*
X63440000Y-77770000D03*
X60900000Y-80310000D03*
X63440000Y-80310000D03*
X60900000Y-82850000D03*
X63440000Y-82850000D03*
X60900000Y-85390000D03*
D27*
X63440000Y-85390000D03*
%TD*%
D28*
%TO.C,L4*%
X89810000Y-49170000D03*
X99410000Y-49170000D03*
%TD*%
%TO.C,L3*%
X65066000Y-99262000D03*
X55466000Y-99262000D03*
%TD*%
%TO.C,L2*%
G36*
G01*
X67560000Y-41987500D02*
X67560000Y-39872500D01*
G75*
G02*
X67752500Y-39680000I192500J0D01*
G01*
X68467500Y-39680000D01*
G75*
G02*
X68660000Y-39872500I0J-192500D01*
G01*
X68660000Y-41987500D01*
G75*
G02*
X68467500Y-42180000I-192500J0D01*
G01*
X67752500Y-42180000D01*
G75*
G02*
X67560000Y-41987500I0J192500D01*
G01*
G37*
G36*
G01*
X69760000Y-41987500D02*
X69760000Y-39872500D01*
G75*
G02*
X69952500Y-39680000I192500J0D01*
G01*
X70667500Y-39680000D01*
G75*
G02*
X70860000Y-39872500I0J-192500D01*
G01*
X70860000Y-41987500D01*
G75*
G02*
X70667500Y-42180000I-192500J0D01*
G01*
X69952500Y-42180000D01*
G75*
G02*
X69760000Y-41987500I0J192500D01*
G01*
G37*
%TD*%
%TO.C,L1*%
G36*
G01*
X81866000Y-108454500D02*
X81866000Y-110569500D01*
G75*
G02*
X81673500Y-110762000I-192500J0D01*
G01*
X80958500Y-110762000D01*
G75*
G02*
X80766000Y-110569500I0J192500D01*
G01*
X80766000Y-108454500D01*
G75*
G02*
X80958500Y-108262000I192500J0D01*
G01*
X81673500Y-108262000D01*
G75*
G02*
X81866000Y-108454500I0J-192500D01*
G01*
G37*
G36*
G01*
X79666000Y-108454500D02*
X79666000Y-110569500D01*
G75*
G02*
X79473500Y-110762000I-192500J0D01*
G01*
X78758500Y-110762000D01*
G75*
G02*
X78566000Y-110569500I0J192500D01*
G01*
X78566000Y-108454500D01*
G75*
G02*
X78758500Y-108262000I192500J0D01*
G01*
X79473500Y-108262000D01*
G75*
G02*
X79666000Y-108454500I0J-192500D01*
G01*
G37*
%TD*%
D17*
%TO.C,K15*%
X138574000Y-65652000D03*
X148524000Y-65647000D03*
D18*
X146174000Y-65652000D03*
X141094000Y-65652000D03*
X146174000Y-63112000D03*
X146174000Y-60572000D03*
X146174000Y-68192000D03*
X141094000Y-73272000D03*
D19*
X141094000Y-60572000D03*
D18*
X146174000Y-73272000D03*
X141094000Y-63112000D03*
X141094000Y-68192000D03*
D17*
X148474000Y-73272000D03*
X148524000Y-68197000D03*
X148524000Y-63147000D03*
X148574000Y-60547000D03*
X138574000Y-60572000D03*
X138574000Y-63112000D03*
X138574000Y-68192000D03*
X138574000Y-73122000D03*
%TD*%
%TO.C,K13*%
X126740000Y-46170000D03*
X136690000Y-46165000D03*
D18*
X134340000Y-46170000D03*
X129260000Y-46170000D03*
X134340000Y-43630000D03*
X134340000Y-41090000D03*
X134340000Y-48710000D03*
X129260000Y-53790000D03*
D19*
X129260000Y-41090000D03*
D18*
X134340000Y-53790000D03*
X129260000Y-43630000D03*
X129260000Y-48710000D03*
D17*
X136640000Y-53790000D03*
X136690000Y-48715000D03*
X136690000Y-43665000D03*
X136740000Y-41065000D03*
X126740000Y-41090000D03*
X126740000Y-43630000D03*
X126740000Y-48710000D03*
X126740000Y-53640000D03*
%TD*%
%TO.C,K12*%
X158240000Y-74140000D03*
X168190000Y-74135000D03*
D18*
X165840000Y-74140000D03*
X160760000Y-74140000D03*
X165840000Y-71600000D03*
X165840000Y-69060000D03*
X165840000Y-76680000D03*
X160760000Y-81760000D03*
D19*
X160760000Y-69060000D03*
D18*
X165840000Y-81760000D03*
X160760000Y-71600000D03*
X160760000Y-76680000D03*
D17*
X168140000Y-81760000D03*
X168190000Y-76685000D03*
X168190000Y-71635000D03*
X168240000Y-69035000D03*
X158240000Y-69060000D03*
X158240000Y-71600000D03*
X158240000Y-76680000D03*
X158240000Y-81610000D03*
%TD*%
%TO.C,K11*%
X96192000Y-63522000D03*
X106142000Y-63517000D03*
D18*
X103792000Y-63522000D03*
X98712000Y-63522000D03*
X103792000Y-60982000D03*
X103792000Y-58442000D03*
X103792000Y-66062000D03*
X98712000Y-71142000D03*
D19*
X98712000Y-58442000D03*
D18*
X103792000Y-71142000D03*
X98712000Y-60982000D03*
X98712000Y-66062000D03*
D17*
X106092000Y-71142000D03*
X106142000Y-66067000D03*
X106142000Y-61017000D03*
X106192000Y-58417000D03*
X96192000Y-58442000D03*
X96192000Y-60982000D03*
X96192000Y-66062000D03*
X96192000Y-70992000D03*
%TD*%
%TO.C,K10*%
X123710000Y-68960000D03*
X123715000Y-78910000D03*
D18*
X123710000Y-76560000D03*
X123710000Y-71480000D03*
X126250000Y-76560000D03*
X128790000Y-76560000D03*
X121170000Y-76560000D03*
X116090000Y-71480000D03*
D19*
X128790000Y-71480000D03*
D18*
X116090000Y-76560000D03*
X126250000Y-71480000D03*
X121170000Y-71480000D03*
D17*
X116090000Y-78860000D03*
X121165000Y-78910000D03*
X126215000Y-78910000D03*
X128815000Y-78960000D03*
X128790000Y-68960000D03*
X126250000Y-68960000D03*
X121170000Y-68960000D03*
X116240000Y-68960000D03*
%TD*%
%TO.C,K9*%
X129078000Y-103578000D03*
X129083000Y-113528000D03*
D18*
X129078000Y-111178000D03*
X129078000Y-106098000D03*
X131618000Y-111178000D03*
X134158000Y-111178000D03*
X126538000Y-111178000D03*
X121458000Y-106098000D03*
D19*
X134158000Y-106098000D03*
D18*
X121458000Y-111178000D03*
X131618000Y-106098000D03*
X126538000Y-106098000D03*
D17*
X121458000Y-113478000D03*
X126533000Y-113528000D03*
X131583000Y-113528000D03*
X134183000Y-113578000D03*
X134158000Y-103578000D03*
X131618000Y-103578000D03*
X126538000Y-103578000D03*
X121608000Y-103578000D03*
%TD*%
%TO.C,K8*%
X78890000Y-73704360D03*
X78885000Y-63754360D03*
D18*
X78890000Y-66104360D03*
X78890000Y-71184360D03*
X76350000Y-66104360D03*
X73810000Y-66104360D03*
X81430000Y-66104360D03*
X86510000Y-71184360D03*
D19*
X73810000Y-71184360D03*
D18*
X86510000Y-66104360D03*
X76350000Y-71184360D03*
X81430000Y-71184360D03*
D17*
X86510000Y-63804360D03*
X81435000Y-63754360D03*
X76385000Y-63754360D03*
X73785000Y-63704360D03*
X73810000Y-73704360D03*
X76350000Y-73704360D03*
X81430000Y-73704360D03*
X86360000Y-73704360D03*
%TD*%
%TO.C,K7*%
X165910000Y-134250000D03*
X165905000Y-124300000D03*
D18*
X165910000Y-126650000D03*
X165910000Y-131730000D03*
X163370000Y-126650000D03*
X160830000Y-126650000D03*
X168450000Y-126650000D03*
X173530000Y-131730000D03*
D19*
X160830000Y-131730000D03*
D18*
X173530000Y-126650000D03*
X163370000Y-131730000D03*
X168450000Y-131730000D03*
D17*
X173530000Y-124350000D03*
X168455000Y-124300000D03*
X163405000Y-124300000D03*
X160805000Y-124250000D03*
X160830000Y-134250000D03*
X163370000Y-134250000D03*
X168450000Y-134250000D03*
X173380000Y-134250000D03*
%TD*%
%TO.C,K6*%
X53650000Y-133512000D03*
X53645000Y-123562000D03*
D18*
X53650000Y-125912000D03*
X53650000Y-130992000D03*
X51110000Y-125912000D03*
X48570000Y-125912000D03*
X56190000Y-125912000D03*
X61270000Y-130992000D03*
D19*
X48570000Y-130992000D03*
D18*
X61270000Y-125912000D03*
X51110000Y-130992000D03*
X56190000Y-130992000D03*
D17*
X61270000Y-123612000D03*
X56195000Y-123562000D03*
X51145000Y-123562000D03*
X48545000Y-123512000D03*
X48570000Y-133512000D03*
X51110000Y-133512000D03*
X56190000Y-133512000D03*
X61120000Y-133512000D03*
%TD*%
%TO.C,K5*%
X76980000Y-133400000D03*
X76975000Y-123450000D03*
D18*
X76980000Y-125800000D03*
X76980000Y-130880000D03*
X74440000Y-125800000D03*
X71900000Y-125800000D03*
X79520000Y-125800000D03*
X84600000Y-130880000D03*
D19*
X71900000Y-130880000D03*
D18*
X84600000Y-125800000D03*
X74440000Y-130880000D03*
X79520000Y-130880000D03*
D17*
X84600000Y-123500000D03*
X79525000Y-123450000D03*
X74475000Y-123450000D03*
X71875000Y-123400000D03*
X71900000Y-133400000D03*
X74440000Y-133400000D03*
X79520000Y-133400000D03*
X84450000Y-133400000D03*
%TD*%
%TO.C,K4*%
X99200000Y-133688000D03*
X99195000Y-123738000D03*
D18*
X99200000Y-126088000D03*
X99200000Y-131168000D03*
X96660000Y-126088000D03*
X94120000Y-126088000D03*
X101740000Y-126088000D03*
X106820000Y-131168000D03*
D19*
X94120000Y-131168000D03*
D18*
X106820000Y-126088000D03*
X96660000Y-131168000D03*
X101740000Y-131168000D03*
D17*
X106820000Y-123788000D03*
X101745000Y-123738000D03*
X96695000Y-123738000D03*
X94095000Y-123688000D03*
X94120000Y-133688000D03*
X96660000Y-133688000D03*
X101740000Y-133688000D03*
X106670000Y-133688000D03*
%TD*%
%TO.C,K3*%
X122240000Y-133844000D03*
X122235000Y-123894000D03*
D18*
X122240000Y-126244000D03*
X122240000Y-131324000D03*
X119700000Y-126244000D03*
X117160000Y-126244000D03*
X124780000Y-126244000D03*
X129860000Y-131324000D03*
D19*
X117160000Y-131324000D03*
D18*
X129860000Y-126244000D03*
X119700000Y-131324000D03*
X124780000Y-131324000D03*
D17*
X129860000Y-123944000D03*
X124785000Y-123894000D03*
X119735000Y-123894000D03*
X117135000Y-123844000D03*
X117160000Y-133844000D03*
X119700000Y-133844000D03*
X124780000Y-133844000D03*
X129710000Y-133844000D03*
%TD*%
%TO.C,K2*%
X144396000Y-134372000D03*
X144391000Y-124422000D03*
D18*
X144396000Y-126772000D03*
X144396000Y-131852000D03*
X141856000Y-126772000D03*
X139316000Y-126772000D03*
X146936000Y-126772000D03*
X152016000Y-131852000D03*
D19*
X139316000Y-131852000D03*
D18*
X152016000Y-126772000D03*
X141856000Y-131852000D03*
X146936000Y-131852000D03*
D17*
X152016000Y-124472000D03*
X146941000Y-124422000D03*
X141891000Y-124422000D03*
X139291000Y-124372000D03*
X139316000Y-134372000D03*
X141856000Y-134372000D03*
X146936000Y-134372000D03*
X151866000Y-134372000D03*
%TD*%
%TO.C,K1*%
X100752360Y-104864000D03*
X90802360Y-104869000D03*
D18*
X93152360Y-104864000D03*
X98232360Y-104864000D03*
X93152360Y-107404000D03*
X93152360Y-109944000D03*
X93152360Y-102324000D03*
X98232360Y-97244000D03*
D19*
X98232360Y-109944000D03*
D18*
X93152360Y-97244000D03*
X98232360Y-107404000D03*
X98232360Y-102324000D03*
D17*
X90852360Y-97244000D03*
X90802360Y-102319000D03*
X90802360Y-107369000D03*
X90752360Y-109969000D03*
X100752360Y-109944000D03*
X100752360Y-107404000D03*
X100752360Y-102324000D03*
X100752360Y-97394000D03*
%TD*%
%TO.C,D32*%
G36*
G01*
X91561738Y-41930000D02*
X92518262Y-41930000D01*
G75*
G02*
X92790000Y-42201738I0J-271738D01*
G01*
X92790000Y-42908262D01*
G75*
G02*
X92518262Y-43180000I-271738J0D01*
G01*
X91561738Y-43180000D01*
G75*
G02*
X91290000Y-42908262I0J271738D01*
G01*
X91290000Y-42201738D01*
G75*
G02*
X91561738Y-41930000I271738J0D01*
G01*
G37*
G36*
G01*
X91561738Y-39880000D02*
X92518262Y-39880000D01*
G75*
G02*
X92790000Y-40151738I0J-271738D01*
G01*
X92790000Y-40858262D01*
G75*
G02*
X92518262Y-41130000I-271738J0D01*
G01*
X91561738Y-41130000D01*
G75*
G02*
X91290000Y-40858262I0J271738D01*
G01*
X91290000Y-40151738D01*
G75*
G02*
X91561738Y-39880000I271738J0D01*
G01*
G37*
%TD*%
%TO.C,D31*%
G36*
G01*
X50917738Y-113152000D02*
X51874262Y-113152000D01*
G75*
G02*
X52146000Y-113423738I0J-271738D01*
G01*
X52146000Y-114130262D01*
G75*
G02*
X51874262Y-114402000I-271738J0D01*
G01*
X50917738Y-114402000D01*
G75*
G02*
X50646000Y-114130262I0J271738D01*
G01*
X50646000Y-113423738D01*
G75*
G02*
X50917738Y-113152000I271738J0D01*
G01*
G37*
G36*
G01*
X50917738Y-111102000D02*
X51874262Y-111102000D01*
G75*
G02*
X52146000Y-111373738I0J-271738D01*
G01*
X52146000Y-112080262D01*
G75*
G02*
X51874262Y-112352000I-271738J0D01*
G01*
X50917738Y-112352000D01*
G75*
G02*
X50646000Y-112080262I0J271738D01*
G01*
X50646000Y-111373738D01*
G75*
G02*
X50917738Y-111102000I271738J0D01*
G01*
G37*
%TD*%
D20*
%TO.C,D30*%
X134624000Y-63372000D03*
X134624000Y-60072000D03*
%TD*%
%TO.C,D29*%
X152454000Y-60052000D03*
X152454000Y-63352000D03*
%TD*%
D29*
%TO.C,D28*%
X167030000Y-97860000D03*
X170330000Y-97860000D03*
%TD*%
%TO.C,D27*%
X170130000Y-115540000D03*
X166830000Y-115540000D03*
%TD*%
D20*
%TO.C,D26*%
X154390000Y-71920000D03*
X154390000Y-68620000D03*
%TD*%
%TO.C,D25*%
X172050000Y-68860000D03*
X172050000Y-72160000D03*
%TD*%
%TO.C,D24*%
X122890000Y-44040000D03*
X122890000Y-40740000D03*
%TD*%
%TO.C,D23*%
X140560000Y-40520000D03*
X140560000Y-43820000D03*
%TD*%
%TO.C,D22*%
X92290000Y-61374000D03*
X92290000Y-58074000D03*
%TD*%
%TO.C,D21*%
X110070000Y-57820000D03*
X110070000Y-61120000D03*
%TD*%
D29*
%TO.C,D20*%
X76550000Y-77720000D03*
X73250000Y-77720000D03*
%TD*%
%TO.C,D19*%
X73510000Y-59790000D03*
X76810000Y-59790000D03*
%TD*%
%TO.C,D18*%
X131308000Y-99678000D03*
X134608000Y-99678000D03*
%TD*%
%TO.C,D17*%
X134508000Y-117588000D03*
X131208000Y-117588000D03*
%TD*%
%TO.C,D16*%
X125866000Y-65240000D03*
X129166000Y-65240000D03*
%TD*%
%TO.C,D15*%
X129166000Y-82766000D03*
X125866000Y-82766000D03*
%TD*%
%TO.C,D14*%
X160910000Y-120350000D03*
X164210000Y-120350000D03*
%TD*%
%TO.C,D13*%
X48252000Y-119616000D03*
X51552000Y-119616000D03*
%TD*%
%TO.C,D12*%
X71440000Y-119480000D03*
X74740000Y-119480000D03*
%TD*%
%TO.C,D11*%
X93630000Y-119810000D03*
X96930000Y-119810000D03*
%TD*%
%TO.C,D10*%
X117240000Y-119704000D03*
X120540000Y-119704000D03*
%TD*%
%TO.C,D9*%
X138966000Y-120552000D03*
X142266000Y-120552000D03*
%TD*%
%TO.C,D8*%
X163810000Y-138210000D03*
X160510000Y-138210000D03*
%TD*%
%TO.C,D7*%
X51298000Y-137396000D03*
X47998000Y-137396000D03*
%TD*%
%TO.C,D6*%
X74650000Y-137390000D03*
X71350000Y-137390000D03*
%TD*%
%TO.C,D5*%
X96930000Y-137590000D03*
X93630000Y-137590000D03*
%TD*%
%TO.C,D4*%
X119930000Y-137684000D03*
X116630000Y-137684000D03*
%TD*%
%TO.C,D3*%
X143036000Y-138282000D03*
X139736000Y-138282000D03*
%TD*%
D20*
%TO.C,D2*%
X104678000Y-107084000D03*
X104678000Y-110384000D03*
%TD*%
%TO.C,D1*%
X86738000Y-110234000D03*
X86738000Y-106934000D03*
%TD*%
%TO.C,C53*%
G36*
G01*
X98827456Y-40225000D02*
X97512544Y-40225000D01*
G75*
G02*
X97245000Y-39957456I0J267544D01*
G01*
X97245000Y-38967544D01*
G75*
G02*
X97512544Y-38700000I267544J0D01*
G01*
X98827456Y-38700000D01*
G75*
G02*
X99095000Y-38967544I0J-267544D01*
G01*
X99095000Y-39957456D01*
G75*
G02*
X98827456Y-40225000I-267544J0D01*
G01*
G37*
G36*
G01*
X98827456Y-43200000D02*
X97512544Y-43200000D01*
G75*
G02*
X97245000Y-42932456I0J267544D01*
G01*
X97245000Y-41942544D01*
G75*
G02*
X97512544Y-41675000I267544J0D01*
G01*
X98827456Y-41675000D01*
G75*
G02*
X99095000Y-41942544I0J-267544D01*
G01*
X99095000Y-42932456D01*
G75*
G02*
X98827456Y-43200000I-267544J0D01*
G01*
G37*
%TD*%
%TO.C,C52*%
G36*
G01*
X51878544Y-104197000D02*
X53193456Y-104197000D01*
G75*
G02*
X53461000Y-104464544I0J-267544D01*
G01*
X53461000Y-105454456D01*
G75*
G02*
X53193456Y-105722000I-267544J0D01*
G01*
X51878544Y-105722000D01*
G75*
G02*
X51611000Y-105454456I0J267544D01*
G01*
X51611000Y-104464544D01*
G75*
G02*
X51878544Y-104197000I267544J0D01*
G01*
G37*
G36*
G01*
X51878544Y-101222000D02*
X53193456Y-101222000D01*
G75*
G02*
X53461000Y-101489544I0J-267544D01*
G01*
X53461000Y-102479456D01*
G75*
G02*
X53193456Y-102747000I-267544J0D01*
G01*
X51878544Y-102747000D01*
G75*
G02*
X51611000Y-102479456I0J267544D01*
G01*
X51611000Y-101489544D01*
G75*
G02*
X51878544Y-101222000I267544J0D01*
G01*
G37*
%TD*%
%TO.C,C51*%
G36*
G01*
X96377456Y-40275000D02*
X95062544Y-40275000D01*
G75*
G02*
X94795000Y-40007456I0J267544D01*
G01*
X94795000Y-39017544D01*
G75*
G02*
X95062544Y-38750000I267544J0D01*
G01*
X96377456Y-38750000D01*
G75*
G02*
X96645000Y-39017544I0J-267544D01*
G01*
X96645000Y-40007456D01*
G75*
G02*
X96377456Y-40275000I-267544J0D01*
G01*
G37*
G36*
G01*
X96377456Y-43250000D02*
X95062544Y-43250000D01*
G75*
G02*
X94795000Y-42982456I0J267544D01*
G01*
X94795000Y-41992544D01*
G75*
G02*
X95062544Y-41725000I267544J0D01*
G01*
X96377456Y-41725000D01*
G75*
G02*
X96645000Y-41992544I0J-267544D01*
G01*
X96645000Y-42982456D01*
G75*
G02*
X96377456Y-43250000I-267544J0D01*
G01*
G37*
%TD*%
%TO.C,C50*%
G36*
G01*
X49468544Y-104227000D02*
X50783456Y-104227000D01*
G75*
G02*
X51051000Y-104494544I0J-267544D01*
G01*
X51051000Y-105484456D01*
G75*
G02*
X50783456Y-105752000I-267544J0D01*
G01*
X49468544Y-105752000D01*
G75*
G02*
X49201000Y-105484456I0J267544D01*
G01*
X49201000Y-104494544D01*
G75*
G02*
X49468544Y-104227000I267544J0D01*
G01*
G37*
G36*
G01*
X49468544Y-101252000D02*
X50783456Y-101252000D01*
G75*
G02*
X51051000Y-101519544I0J-267544D01*
G01*
X51051000Y-102509456D01*
G75*
G02*
X50783456Y-102777000I-267544J0D01*
G01*
X49468544Y-102777000D01*
G75*
G02*
X49201000Y-102509456I0J267544D01*
G01*
X49201000Y-101519544D01*
G75*
G02*
X49468544Y-101252000I267544J0D01*
G01*
G37*
%TD*%
D30*
%TO.C,C49*%
X71190000Y-33800000D03*
D31*
X76190000Y-33800000D03*
%TD*%
D30*
%TO.C,C48*%
X59026000Y-113012000D03*
D31*
X59026000Y-108012000D03*
%TD*%
%TO.C,C46*%
G36*
G01*
X58012262Y-81309000D02*
X57055738Y-81309000D01*
G75*
G02*
X56784000Y-81037262I0J271738D01*
G01*
X56784000Y-80330738D01*
G75*
G02*
X57055738Y-80059000I271738J0D01*
G01*
X58012262Y-80059000D01*
G75*
G02*
X58284000Y-80330738I0J-271738D01*
G01*
X58284000Y-81037262D01*
G75*
G02*
X58012262Y-81309000I-271738J0D01*
G01*
G37*
G36*
G01*
X58012262Y-83359000D02*
X57055738Y-83359000D01*
G75*
G02*
X56784000Y-83087262I0J271738D01*
G01*
X56784000Y-82380738D01*
G75*
G02*
X57055738Y-82109000I271738J0D01*
G01*
X58012262Y-82109000D01*
G75*
G02*
X58284000Y-82380738I0J-271738D01*
G01*
X58284000Y-83087262D01*
G75*
G02*
X58012262Y-83359000I-271738J0D01*
G01*
G37*
%TD*%
%TO.C,C45*%
G36*
G01*
X88427456Y-40175000D02*
X87112544Y-40175000D01*
G75*
G02*
X86845000Y-39907456I0J267544D01*
G01*
X86845000Y-38917544D01*
G75*
G02*
X87112544Y-38650000I267544J0D01*
G01*
X88427456Y-38650000D01*
G75*
G02*
X88695000Y-38917544I0J-267544D01*
G01*
X88695000Y-39907456D01*
G75*
G02*
X88427456Y-40175000I-267544J0D01*
G01*
G37*
G36*
G01*
X88427456Y-43150000D02*
X87112544Y-43150000D01*
G75*
G02*
X86845000Y-42882456I0J267544D01*
G01*
X86845000Y-41892544D01*
G75*
G02*
X87112544Y-41625000I267544J0D01*
G01*
X88427456Y-41625000D01*
G75*
G02*
X88695000Y-41892544I0J-267544D01*
G01*
X88695000Y-42882456D01*
G75*
G02*
X88427456Y-43150000I-267544J0D01*
G01*
G37*
%TD*%
%TO.C,C44*%
G36*
G01*
X70391000Y-103369456D02*
X70391000Y-102054544D01*
G75*
G02*
X70658544Y-101787000I267544J0D01*
G01*
X71648456Y-101787000D01*
G75*
G02*
X71916000Y-102054544I0J-267544D01*
G01*
X71916000Y-103369456D01*
G75*
G02*
X71648456Y-103637000I-267544J0D01*
G01*
X70658544Y-103637000D01*
G75*
G02*
X70391000Y-103369456I0J267544D01*
G01*
G37*
G36*
G01*
X67416000Y-103369456D02*
X67416000Y-102054544D01*
G75*
G02*
X67683544Y-101787000I267544J0D01*
G01*
X68673456Y-101787000D01*
G75*
G02*
X68941000Y-102054544I0J-267544D01*
G01*
X68941000Y-103369456D01*
G75*
G02*
X68673456Y-103637000I-267544J0D01*
G01*
X67683544Y-103637000D01*
G75*
G02*
X67416000Y-103369456I0J267544D01*
G01*
G37*
%TD*%
%TO.C,C43*%
G36*
G01*
X74347500Y-45030000D02*
X74872500Y-45030000D01*
G75*
G02*
X75135000Y-45292500I0J-262500D01*
G01*
X75135000Y-45917500D01*
G75*
G02*
X74872500Y-46180000I-262500J0D01*
G01*
X74347500Y-46180000D01*
G75*
G02*
X74085000Y-45917500I0J262500D01*
G01*
X74085000Y-45292500D01*
G75*
G02*
X74347500Y-45030000I262500J0D01*
G01*
G37*
G36*
G01*
X74347500Y-43280000D02*
X74872500Y-43280000D01*
G75*
G02*
X75135000Y-43542500I0J-262500D01*
G01*
X75135000Y-44167500D01*
G75*
G02*
X74872500Y-44430000I-262500J0D01*
G01*
X74347500Y-44430000D01*
G75*
G02*
X74085000Y-44167500I0J262500D01*
G01*
X74085000Y-43542500D01*
G75*
G02*
X74347500Y-43280000I262500J0D01*
G01*
G37*
%TD*%
%TO.C,C42*%
G36*
G01*
X75798500Y-103572000D02*
X75273500Y-103572000D01*
G75*
G02*
X75011000Y-103309500I0J262500D01*
G01*
X75011000Y-102684500D01*
G75*
G02*
X75273500Y-102422000I262500J0D01*
G01*
X75798500Y-102422000D01*
G75*
G02*
X76061000Y-102684500I0J-262500D01*
G01*
X76061000Y-103309500D01*
G75*
G02*
X75798500Y-103572000I-262500J0D01*
G01*
G37*
G36*
G01*
X75798500Y-105322000D02*
X75273500Y-105322000D01*
G75*
G02*
X75011000Y-105059500I0J262500D01*
G01*
X75011000Y-104434500D01*
G75*
G02*
X75273500Y-104172000I262500J0D01*
G01*
X75798500Y-104172000D01*
G75*
G02*
X76061000Y-104434500I0J-262500D01*
G01*
X76061000Y-105059500D01*
G75*
G02*
X75798500Y-105322000I-262500J0D01*
G01*
G37*
%TD*%
%TO.C,C41*%
G36*
G01*
X71982544Y-46245000D02*
X73297456Y-46245000D01*
G75*
G02*
X73565000Y-46512544I0J-267544D01*
G01*
X73565000Y-47502456D01*
G75*
G02*
X73297456Y-47770000I-267544J0D01*
G01*
X71982544Y-47770000D01*
G75*
G02*
X71715000Y-47502456I0J267544D01*
G01*
X71715000Y-46512544D01*
G75*
G02*
X71982544Y-46245000I267544J0D01*
G01*
G37*
G36*
G01*
X71982544Y-43270000D02*
X73297456Y-43270000D01*
G75*
G02*
X73565000Y-43537544I0J-267544D01*
G01*
X73565000Y-44527456D01*
G75*
G02*
X73297456Y-44795000I-267544J0D01*
G01*
X71982544Y-44795000D01*
G75*
G02*
X71715000Y-44527456I0J267544D01*
G01*
X71715000Y-43537544D01*
G75*
G02*
X71982544Y-43270000I267544J0D01*
G01*
G37*
%TD*%
%TO.C,C40*%
G36*
G01*
X83053456Y-102327000D02*
X81738544Y-102327000D01*
G75*
G02*
X81471000Y-102059456I0J267544D01*
G01*
X81471000Y-101069544D01*
G75*
G02*
X81738544Y-100802000I267544J0D01*
G01*
X83053456Y-100802000D01*
G75*
G02*
X83321000Y-101069544I0J-267544D01*
G01*
X83321000Y-102059456D01*
G75*
G02*
X83053456Y-102327000I-267544J0D01*
G01*
G37*
G36*
G01*
X83053456Y-105302000D02*
X81738544Y-105302000D01*
G75*
G02*
X81471000Y-105034456I0J267544D01*
G01*
X81471000Y-104044544D01*
G75*
G02*
X81738544Y-103777000I267544J0D01*
G01*
X83053456Y-103777000D01*
G75*
G02*
X83321000Y-104044544I0J-267544D01*
G01*
X83321000Y-105034456D01*
G75*
G02*
X83053456Y-105302000I-267544J0D01*
G01*
G37*
%TD*%
%TO.C,C39*%
G36*
G01*
X67282544Y-46245000D02*
X68597456Y-46245000D01*
G75*
G02*
X68865000Y-46512544I0J-267544D01*
G01*
X68865000Y-47502456D01*
G75*
G02*
X68597456Y-47770000I-267544J0D01*
G01*
X67282544Y-47770000D01*
G75*
G02*
X67015000Y-47502456I0J267544D01*
G01*
X67015000Y-46512544D01*
G75*
G02*
X67282544Y-46245000I267544J0D01*
G01*
G37*
G36*
G01*
X67282544Y-43270000D02*
X68597456Y-43270000D01*
G75*
G02*
X68865000Y-43537544I0J-267544D01*
G01*
X68865000Y-44527456D01*
G75*
G02*
X68597456Y-44795000I-267544J0D01*
G01*
X67282544Y-44795000D01*
G75*
G02*
X67015000Y-44527456I0J267544D01*
G01*
X67015000Y-43537544D01*
G75*
G02*
X67282544Y-43270000I267544J0D01*
G01*
G37*
%TD*%
%TO.C,C38*%
G36*
G01*
X80663456Y-102297000D02*
X79348544Y-102297000D01*
G75*
G02*
X79081000Y-102029456I0J267544D01*
G01*
X79081000Y-101039544D01*
G75*
G02*
X79348544Y-100772000I267544J0D01*
G01*
X80663456Y-100772000D01*
G75*
G02*
X80931000Y-101039544I0J-267544D01*
G01*
X80931000Y-102029456D01*
G75*
G02*
X80663456Y-102297000I-267544J0D01*
G01*
G37*
G36*
G01*
X80663456Y-105272000D02*
X79348544Y-105272000D01*
G75*
G02*
X79081000Y-105004456I0J267544D01*
G01*
X79081000Y-104014544D01*
G75*
G02*
X79348544Y-103747000I267544J0D01*
G01*
X80663456Y-103747000D01*
G75*
G02*
X80931000Y-104014544I0J-267544D01*
G01*
X80931000Y-105004456D01*
G75*
G02*
X80663456Y-105272000I-267544J0D01*
G01*
G37*
%TD*%
%TO.C,C37*%
G36*
G01*
X69622544Y-46235000D02*
X70937456Y-46235000D01*
G75*
G02*
X71205000Y-46502544I0J-267544D01*
G01*
X71205000Y-47492456D01*
G75*
G02*
X70937456Y-47760000I-267544J0D01*
G01*
X69622544Y-47760000D01*
G75*
G02*
X69355000Y-47492456I0J267544D01*
G01*
X69355000Y-46502544D01*
G75*
G02*
X69622544Y-46235000I267544J0D01*
G01*
G37*
G36*
G01*
X69622544Y-43260000D02*
X70937456Y-43260000D01*
G75*
G02*
X71205000Y-43527544I0J-267544D01*
G01*
X71205000Y-44517456D01*
G75*
G02*
X70937456Y-44785000I-267544J0D01*
G01*
X69622544Y-44785000D01*
G75*
G02*
X69355000Y-44517456I0J267544D01*
G01*
X69355000Y-43527544D01*
G75*
G02*
X69622544Y-43260000I267544J0D01*
G01*
G37*
%TD*%
%TO.C,C36*%
G36*
G01*
X78233456Y-102327000D02*
X76918544Y-102327000D01*
G75*
G02*
X76651000Y-102059456I0J267544D01*
G01*
X76651000Y-101069544D01*
G75*
G02*
X76918544Y-100802000I267544J0D01*
G01*
X78233456Y-100802000D01*
G75*
G02*
X78501000Y-101069544I0J-267544D01*
G01*
X78501000Y-102059456D01*
G75*
G02*
X78233456Y-102327000I-267544J0D01*
G01*
G37*
G36*
G01*
X78233456Y-105302000D02*
X76918544Y-105302000D01*
G75*
G02*
X76651000Y-105034456I0J267544D01*
G01*
X76651000Y-104044544D01*
G75*
G02*
X76918544Y-103777000I267544J0D01*
G01*
X78233456Y-103777000D01*
G75*
G02*
X78501000Y-104044544I0J-267544D01*
G01*
X78501000Y-105034456D01*
G75*
G02*
X78233456Y-105302000I-267544J0D01*
G01*
G37*
%TD*%
D32*
%TO.C,C35*%
X84390000Y-53430000D03*
D33*
X79390000Y-53430000D03*
%TD*%
%TO.C,C34*%
G36*
G01*
X67752500Y-37230000D02*
X67227500Y-37230000D01*
G75*
G02*
X66965000Y-36967500I0J262500D01*
G01*
X66965000Y-36342500D01*
G75*
G02*
X67227500Y-36080000I262500J0D01*
G01*
X67752500Y-36080000D01*
G75*
G02*
X68015000Y-36342500I0J-262500D01*
G01*
X68015000Y-36967500D01*
G75*
G02*
X67752500Y-37230000I-262500J0D01*
G01*
G37*
G36*
G01*
X67752500Y-38980000D02*
X67227500Y-38980000D01*
G75*
G02*
X66965000Y-38717500I0J262500D01*
G01*
X66965000Y-38092500D01*
G75*
G02*
X67227500Y-37830000I262500J0D01*
G01*
X67752500Y-37830000D01*
G75*
G02*
X68015000Y-38092500I0J-262500D01*
G01*
X68015000Y-38717500D01*
G75*
G02*
X67752500Y-38980000I-262500J0D01*
G01*
G37*
%TD*%
%TO.C,C33*%
G36*
G01*
X105550000Y-83251738D02*
X105550000Y-84208262D01*
G75*
G02*
X105278262Y-84480000I-271738J0D01*
G01*
X104571738Y-84480000D01*
G75*
G02*
X104300000Y-84208262I0J271738D01*
G01*
X104300000Y-83251738D01*
G75*
G02*
X104571738Y-82980000I271738J0D01*
G01*
X105278262Y-82980000D01*
G75*
G02*
X105550000Y-83251738I0J-271738D01*
G01*
G37*
G36*
G01*
X107600000Y-83251738D02*
X107600000Y-84208262D01*
G75*
G02*
X107328262Y-84480000I-271738J0D01*
G01*
X106621738Y-84480000D01*
G75*
G02*
X106350000Y-84208262I0J271738D01*
G01*
X106350000Y-83251738D01*
G75*
G02*
X106621738Y-82980000I271738J0D01*
G01*
X107328262Y-82980000D01*
G75*
G02*
X107600000Y-83251738I0J-271738D01*
G01*
G37*
%TD*%
%TO.C,C32*%
G36*
G01*
X116140000Y-49411738D02*
X116140000Y-50368262D01*
G75*
G02*
X115868262Y-50640000I-271738J0D01*
G01*
X115161738Y-50640000D01*
G75*
G02*
X114890000Y-50368262I0J271738D01*
G01*
X114890000Y-49411738D01*
G75*
G02*
X115161738Y-49140000I271738J0D01*
G01*
X115868262Y-49140000D01*
G75*
G02*
X116140000Y-49411738I0J-271738D01*
G01*
G37*
G36*
G01*
X118190000Y-49411738D02*
X118190000Y-50368262D01*
G75*
G02*
X117918262Y-50640000I-271738J0D01*
G01*
X117211738Y-50640000D01*
G75*
G02*
X116940000Y-50368262I0J271738D01*
G01*
X116940000Y-49411738D01*
G75*
G02*
X117211738Y-49140000I271738J0D01*
G01*
X117918262Y-49140000D01*
G75*
G02*
X118190000Y-49411738I0J-271738D01*
G01*
G37*
%TD*%
%TO.C,C31*%
G36*
G01*
X117690000Y-40241738D02*
X117690000Y-41198262D01*
G75*
G02*
X117418262Y-41470000I-271738J0D01*
G01*
X116711738Y-41470000D01*
G75*
G02*
X116440000Y-41198262I0J271738D01*
G01*
X116440000Y-40241738D01*
G75*
G02*
X116711738Y-39970000I271738J0D01*
G01*
X117418262Y-39970000D01*
G75*
G02*
X117690000Y-40241738I0J-271738D01*
G01*
G37*
G36*
G01*
X119740000Y-40241738D02*
X119740000Y-41198262D01*
G75*
G02*
X119468262Y-41470000I-271738J0D01*
G01*
X118761738Y-41470000D01*
G75*
G02*
X118490000Y-41198262I0J271738D01*
G01*
X118490000Y-40241738D01*
G75*
G02*
X118761738Y-39970000I271738J0D01*
G01*
X119468262Y-39970000D01*
G75*
G02*
X119740000Y-40241738I0J-271738D01*
G01*
G37*
%TD*%
%TO.C,C30*%
G36*
G01*
X162760000Y-83711738D02*
X162760000Y-84668262D01*
G75*
G02*
X162488262Y-84940000I-271738J0D01*
G01*
X161781738Y-84940000D01*
G75*
G02*
X161510000Y-84668262I0J271738D01*
G01*
X161510000Y-83711738D01*
G75*
G02*
X161781738Y-83440000I271738J0D01*
G01*
X162488262Y-83440000D01*
G75*
G02*
X162760000Y-83711738I0J-271738D01*
G01*
G37*
G36*
G01*
X164810000Y-83711738D02*
X164810000Y-84668262D01*
G75*
G02*
X164538262Y-84940000I-271738J0D01*
G01*
X163831738Y-84940000D01*
G75*
G02*
X163560000Y-84668262I0J271738D01*
G01*
X163560000Y-83711738D01*
G75*
G02*
X163831738Y-83440000I271738J0D01*
G01*
X164538262Y-83440000D01*
G75*
G02*
X164810000Y-83711738I0J-271738D01*
G01*
G37*
%TD*%
%TO.C,C29*%
G36*
G01*
X143104000Y-75193738D02*
X143104000Y-76150262D01*
G75*
G02*
X142832262Y-76422000I-271738J0D01*
G01*
X142125738Y-76422000D01*
G75*
G02*
X141854000Y-76150262I0J271738D01*
G01*
X141854000Y-75193738D01*
G75*
G02*
X142125738Y-74922000I271738J0D01*
G01*
X142832262Y-74922000D01*
G75*
G02*
X143104000Y-75193738I0J-271738D01*
G01*
G37*
G36*
G01*
X145154000Y-75193738D02*
X145154000Y-76150262D01*
G75*
G02*
X144882262Y-76422000I-271738J0D01*
G01*
X144175738Y-76422000D01*
G75*
G02*
X143904000Y-76150262I0J271738D01*
G01*
X143904000Y-75193738D01*
G75*
G02*
X144175738Y-74922000I271738J0D01*
G01*
X144882262Y-74922000D01*
G75*
G02*
X145154000Y-75193738I0J-271738D01*
G01*
G37*
%TD*%
%TO.C,C28*%
G36*
G01*
X154928262Y-108460000D02*
X153971738Y-108460000D01*
G75*
G02*
X153700000Y-108188262I0J271738D01*
G01*
X153700000Y-107481738D01*
G75*
G02*
X153971738Y-107210000I271738J0D01*
G01*
X154928262Y-107210000D01*
G75*
G02*
X155200000Y-107481738I0J-271738D01*
G01*
X155200000Y-108188262D01*
G75*
G02*
X154928262Y-108460000I-271738J0D01*
G01*
G37*
G36*
G01*
X154928262Y-110510000D02*
X153971738Y-110510000D01*
G75*
G02*
X153700000Y-110238262I0J271738D01*
G01*
X153700000Y-109531738D01*
G75*
G02*
X153971738Y-109260000I271738J0D01*
G01*
X154928262Y-109260000D01*
G75*
G02*
X155200000Y-109531738I0J-271738D01*
G01*
X155200000Y-110238262D01*
G75*
G02*
X154928262Y-110510000I-271738J0D01*
G01*
G37*
%TD*%
%TO.C,C27*%
G36*
G01*
X133410000Y-55811738D02*
X133410000Y-56768262D01*
G75*
G02*
X133138262Y-57040000I-271738J0D01*
G01*
X132431738Y-57040000D01*
G75*
G02*
X132160000Y-56768262I0J271738D01*
G01*
X132160000Y-55811738D01*
G75*
G02*
X132431738Y-55540000I271738J0D01*
G01*
X133138262Y-55540000D01*
G75*
G02*
X133410000Y-55811738I0J-271738D01*
G01*
G37*
G36*
G01*
X135460000Y-55811738D02*
X135460000Y-56768262D01*
G75*
G02*
X135188262Y-57040000I-271738J0D01*
G01*
X134481738Y-57040000D01*
G75*
G02*
X134210000Y-56768262I0J271738D01*
G01*
X134210000Y-55811738D01*
G75*
G02*
X134481738Y-55540000I271738J0D01*
G01*
X135188262Y-55540000D01*
G75*
G02*
X135460000Y-55811738I0J-271738D01*
G01*
G37*
%TD*%
%TO.C,C26*%
G36*
G01*
X163770000Y-67118262D02*
X163770000Y-66161738D01*
G75*
G02*
X164041738Y-65890000I271738J0D01*
G01*
X164748262Y-65890000D01*
G75*
G02*
X165020000Y-66161738I0J-271738D01*
G01*
X165020000Y-67118262D01*
G75*
G02*
X164748262Y-67390000I-271738J0D01*
G01*
X164041738Y-67390000D01*
G75*
G02*
X163770000Y-67118262I0J271738D01*
G01*
G37*
G36*
G01*
X161720000Y-67118262D02*
X161720000Y-66161738D01*
G75*
G02*
X161991738Y-65890000I271738J0D01*
G01*
X162698262Y-65890000D01*
G75*
G02*
X162970000Y-66161738I0J-271738D01*
G01*
X162970000Y-67118262D01*
G75*
G02*
X162698262Y-67390000I-271738J0D01*
G01*
X161991738Y-67390000D01*
G75*
G02*
X161720000Y-67118262I0J271738D01*
G01*
G37*
%TD*%
%TO.C,C25*%
G36*
G01*
X144184000Y-58680262D02*
X144184000Y-57723738D01*
G75*
G02*
X144455738Y-57452000I271738J0D01*
G01*
X145162262Y-57452000D01*
G75*
G02*
X145434000Y-57723738I0J-271738D01*
G01*
X145434000Y-58680262D01*
G75*
G02*
X145162262Y-58952000I-271738J0D01*
G01*
X144455738Y-58952000D01*
G75*
G02*
X144184000Y-58680262I0J271738D01*
G01*
G37*
G36*
G01*
X142134000Y-58680262D02*
X142134000Y-57723738D01*
G75*
G02*
X142405738Y-57452000I271738J0D01*
G01*
X143112262Y-57452000D01*
G75*
G02*
X143384000Y-57723738I0J-271738D01*
G01*
X143384000Y-58680262D01*
G75*
G02*
X143112262Y-58952000I-271738J0D01*
G01*
X142405738Y-58952000D01*
G75*
G02*
X142134000Y-58680262I0J271738D01*
G01*
G37*
%TD*%
%TO.C,C24*%
G36*
G01*
X171561738Y-107290000D02*
X172518262Y-107290000D01*
G75*
G02*
X172790000Y-107561738I0J-271738D01*
G01*
X172790000Y-108268262D01*
G75*
G02*
X172518262Y-108540000I-271738J0D01*
G01*
X171561738Y-108540000D01*
G75*
G02*
X171290000Y-108268262I0J271738D01*
G01*
X171290000Y-107561738D01*
G75*
G02*
X171561738Y-107290000I271738J0D01*
G01*
G37*
G36*
G01*
X171561738Y-105240000D02*
X172518262Y-105240000D01*
G75*
G02*
X172790000Y-105511738I0J-271738D01*
G01*
X172790000Y-106218262D01*
G75*
G02*
X172518262Y-106490000I-271738J0D01*
G01*
X171561738Y-106490000D01*
G75*
G02*
X171290000Y-106218262I0J271738D01*
G01*
X171290000Y-105511738D01*
G75*
G02*
X171561738Y-105240000I271738J0D01*
G01*
G37*
%TD*%
%TO.C,C23*%
G36*
G01*
X132250000Y-39008262D02*
X132250000Y-38051738D01*
G75*
G02*
X132521738Y-37780000I271738J0D01*
G01*
X133228262Y-37780000D01*
G75*
G02*
X133500000Y-38051738I0J-271738D01*
G01*
X133500000Y-39008262D01*
G75*
G02*
X133228262Y-39280000I-271738J0D01*
G01*
X132521738Y-39280000D01*
G75*
G02*
X132250000Y-39008262I0J271738D01*
G01*
G37*
G36*
G01*
X130200000Y-39008262D02*
X130200000Y-38051738D01*
G75*
G02*
X130471738Y-37780000I271738J0D01*
G01*
X131178262Y-37780000D01*
G75*
G02*
X131450000Y-38051738I0J-271738D01*
G01*
X131450000Y-39008262D01*
G75*
G02*
X131178262Y-39280000I-271738J0D01*
G01*
X130471738Y-39280000D01*
G75*
G02*
X130200000Y-39008262I0J271738D01*
G01*
G37*
%TD*%
%TO.C,C22*%
G36*
G01*
X102812000Y-73215738D02*
X102812000Y-74172262D01*
G75*
G02*
X102540262Y-74444000I-271738J0D01*
G01*
X101833738Y-74444000D01*
G75*
G02*
X101562000Y-74172262I0J271738D01*
G01*
X101562000Y-73215738D01*
G75*
G02*
X101833738Y-72944000I271738J0D01*
G01*
X102540262Y-72944000D01*
G75*
G02*
X102812000Y-73215738I0J-271738D01*
G01*
G37*
G36*
G01*
X104862000Y-73215738D02*
X104862000Y-74172262D01*
G75*
G02*
X104590262Y-74444000I-271738J0D01*
G01*
X103883738Y-74444000D01*
G75*
G02*
X103612000Y-74172262I0J271738D01*
G01*
X103612000Y-73215738D01*
G75*
G02*
X103883738Y-72944000I271738J0D01*
G01*
X104590262Y-72944000D01*
G75*
G02*
X104862000Y-73215738I0J-271738D01*
G01*
G37*
%TD*%
%TO.C,C21*%
G36*
G01*
X114024262Y-75508000D02*
X113067738Y-75508000D01*
G75*
G02*
X112796000Y-75236262I0J271738D01*
G01*
X112796000Y-74529738D01*
G75*
G02*
X113067738Y-74258000I271738J0D01*
G01*
X114024262Y-74258000D01*
G75*
G02*
X114296000Y-74529738I0J-271738D01*
G01*
X114296000Y-75236262D01*
G75*
G02*
X114024262Y-75508000I-271738J0D01*
G01*
G37*
G36*
G01*
X114024262Y-77558000D02*
X113067738Y-77558000D01*
G75*
G02*
X112796000Y-77286262I0J271738D01*
G01*
X112796000Y-76579738D01*
G75*
G02*
X113067738Y-76308000I271738J0D01*
G01*
X114024262Y-76308000D01*
G75*
G02*
X114296000Y-76579738I0J-271738D01*
G01*
X114296000Y-77286262D01*
G75*
G02*
X114024262Y-77558000I-271738J0D01*
G01*
G37*
%TD*%
%TO.C,C20*%
G36*
G01*
X119516262Y-108288000D02*
X118559738Y-108288000D01*
G75*
G02*
X118288000Y-108016262I0J271738D01*
G01*
X118288000Y-107309738D01*
G75*
G02*
X118559738Y-107038000I271738J0D01*
G01*
X119516262Y-107038000D01*
G75*
G02*
X119788000Y-107309738I0J-271738D01*
G01*
X119788000Y-108016262D01*
G75*
G02*
X119516262Y-108288000I-271738J0D01*
G01*
G37*
G36*
G01*
X119516262Y-110338000D02*
X118559738Y-110338000D01*
G75*
G02*
X118288000Y-110066262I0J271738D01*
G01*
X118288000Y-109359738D01*
G75*
G02*
X118559738Y-109088000I271738J0D01*
G01*
X119516262Y-109088000D01*
G75*
G02*
X119788000Y-109359738I0J-271738D01*
G01*
X119788000Y-110066262D01*
G75*
G02*
X119516262Y-110338000I-271738J0D01*
G01*
G37*
%TD*%
%TO.C,C19*%
G36*
G01*
X88551738Y-69150000D02*
X89508262Y-69150000D01*
G75*
G02*
X89780000Y-69421738I0J-271738D01*
G01*
X89780000Y-70128262D01*
G75*
G02*
X89508262Y-70400000I-271738J0D01*
G01*
X88551738Y-70400000D01*
G75*
G02*
X88280000Y-70128262I0J271738D01*
G01*
X88280000Y-69421738D01*
G75*
G02*
X88551738Y-69150000I271738J0D01*
G01*
G37*
G36*
G01*
X88551738Y-67100000D02*
X89508262Y-67100000D01*
G75*
G02*
X89780000Y-67371738I0J-271738D01*
G01*
X89780000Y-68078262D01*
G75*
G02*
X89508262Y-68350000I-271738J0D01*
G01*
X88551738Y-68350000D01*
G75*
G02*
X88280000Y-68078262I0J271738D01*
G01*
X88280000Y-67371738D01*
G75*
G02*
X88551738Y-67100000I271738J0D01*
G01*
G37*
%TD*%
%TO.C,C18*%
G36*
G01*
X101580000Y-56392262D02*
X101580000Y-55435738D01*
G75*
G02*
X101851738Y-55164000I271738J0D01*
G01*
X102558262Y-55164000D01*
G75*
G02*
X102830000Y-55435738I0J-271738D01*
G01*
X102830000Y-56392262D01*
G75*
G02*
X102558262Y-56664000I-271738J0D01*
G01*
X101851738Y-56664000D01*
G75*
G02*
X101580000Y-56392262I0J271738D01*
G01*
G37*
G36*
G01*
X99530000Y-56392262D02*
X99530000Y-55435738D01*
G75*
G02*
X99801738Y-55164000I271738J0D01*
G01*
X100508262Y-55164000D01*
G75*
G02*
X100780000Y-55435738I0J-271738D01*
G01*
X100780000Y-56392262D01*
G75*
G02*
X100508262Y-56664000I-271738J0D01*
G01*
X99801738Y-56664000D01*
G75*
G02*
X99530000Y-56392262I0J271738D01*
G01*
G37*
%TD*%
%TO.C,C17*%
G36*
G01*
X131101738Y-74530000D02*
X132058262Y-74530000D01*
G75*
G02*
X132330000Y-74801738I0J-271738D01*
G01*
X132330000Y-75508262D01*
G75*
G02*
X132058262Y-75780000I-271738J0D01*
G01*
X131101738Y-75780000D01*
G75*
G02*
X130830000Y-75508262I0J271738D01*
G01*
X130830000Y-74801738D01*
G75*
G02*
X131101738Y-74530000I271738J0D01*
G01*
G37*
G36*
G01*
X131101738Y-72480000D02*
X132058262Y-72480000D01*
G75*
G02*
X132330000Y-72751738I0J-271738D01*
G01*
X132330000Y-73458262D01*
G75*
G02*
X132058262Y-73730000I-271738J0D01*
G01*
X131101738Y-73730000D01*
G75*
G02*
X130830000Y-73458262I0J271738D01*
G01*
X130830000Y-72751738D01*
G75*
G02*
X131101738Y-72480000I271738J0D01*
G01*
G37*
%TD*%
%TO.C,C16*%
G36*
G01*
X136129738Y-109438000D02*
X137086262Y-109438000D01*
G75*
G02*
X137358000Y-109709738I0J-271738D01*
G01*
X137358000Y-110416262D01*
G75*
G02*
X137086262Y-110688000I-271738J0D01*
G01*
X136129738Y-110688000D01*
G75*
G02*
X135858000Y-110416262I0J271738D01*
G01*
X135858000Y-109709738D01*
G75*
G02*
X136129738Y-109438000I271738J0D01*
G01*
G37*
G36*
G01*
X136129738Y-107388000D02*
X137086262Y-107388000D01*
G75*
G02*
X137358000Y-107659738I0J-271738D01*
G01*
X137358000Y-108366262D01*
G75*
G02*
X137086262Y-108638000I-271738J0D01*
G01*
X136129738Y-108638000D01*
G75*
G02*
X135858000Y-108366262I0J271738D01*
G01*
X135858000Y-107659738D01*
G75*
G02*
X136129738Y-107388000I271738J0D01*
G01*
G37*
%TD*%
%TO.C,C15*%
G36*
G01*
X71818262Y-67980000D02*
X70861738Y-67980000D01*
G75*
G02*
X70590000Y-67708262I0J271738D01*
G01*
X70590000Y-67001738D01*
G75*
G02*
X70861738Y-66730000I271738J0D01*
G01*
X71818262Y-66730000D01*
G75*
G02*
X72090000Y-67001738I0J-271738D01*
G01*
X72090000Y-67708262D01*
G75*
G02*
X71818262Y-67980000I-271738J0D01*
G01*
G37*
G36*
G01*
X71818262Y-70030000D02*
X70861738Y-70030000D01*
G75*
G02*
X70590000Y-69758262I0J271738D01*
G01*
X70590000Y-69051738D01*
G75*
G02*
X70861738Y-68780000I271738J0D01*
G01*
X71818262Y-68780000D01*
G75*
G02*
X72090000Y-69051738I0J-271738D01*
G01*
X72090000Y-69758262D01*
G75*
G02*
X71818262Y-70030000I-271738J0D01*
G01*
G37*
%TD*%
%TO.C,C14*%
G36*
G01*
X158888262Y-128520000D02*
X157931738Y-128520000D01*
G75*
G02*
X157660000Y-128248262I0J271738D01*
G01*
X157660000Y-127541738D01*
G75*
G02*
X157931738Y-127270000I271738J0D01*
G01*
X158888262Y-127270000D01*
G75*
G02*
X159160000Y-127541738I0J-271738D01*
G01*
X159160000Y-128248262D01*
G75*
G02*
X158888262Y-128520000I-271738J0D01*
G01*
G37*
G36*
G01*
X158888262Y-130570000D02*
X157931738Y-130570000D01*
G75*
G02*
X157660000Y-130298262I0J271738D01*
G01*
X157660000Y-129591738D01*
G75*
G02*
X157931738Y-129320000I271738J0D01*
G01*
X158888262Y-129320000D01*
G75*
G02*
X159160000Y-129591738I0J-271738D01*
G01*
X159160000Y-130298262D01*
G75*
G02*
X158888262Y-130570000I-271738J0D01*
G01*
G37*
%TD*%
%TO.C,C13*%
G36*
G01*
X46570262Y-127852000D02*
X45613738Y-127852000D01*
G75*
G02*
X45342000Y-127580262I0J271738D01*
G01*
X45342000Y-126873738D01*
G75*
G02*
X45613738Y-126602000I271738J0D01*
G01*
X46570262Y-126602000D01*
G75*
G02*
X46842000Y-126873738I0J-271738D01*
G01*
X46842000Y-127580262D01*
G75*
G02*
X46570262Y-127852000I-271738J0D01*
G01*
G37*
G36*
G01*
X46570262Y-129902000D02*
X45613738Y-129902000D01*
G75*
G02*
X45342000Y-129630262I0J271738D01*
G01*
X45342000Y-128923738D01*
G75*
G02*
X45613738Y-128652000I271738J0D01*
G01*
X46570262Y-128652000D01*
G75*
G02*
X46842000Y-128923738I0J-271738D01*
G01*
X46842000Y-129630262D01*
G75*
G02*
X46570262Y-129902000I-271738J0D01*
G01*
G37*
%TD*%
%TO.C,C12*%
G36*
G01*
X69728262Y-127860000D02*
X68771738Y-127860000D01*
G75*
G02*
X68500000Y-127588262I0J271738D01*
G01*
X68500000Y-126881738D01*
G75*
G02*
X68771738Y-126610000I271738J0D01*
G01*
X69728262Y-126610000D01*
G75*
G02*
X70000000Y-126881738I0J-271738D01*
G01*
X70000000Y-127588262D01*
G75*
G02*
X69728262Y-127860000I-271738J0D01*
G01*
G37*
G36*
G01*
X69728262Y-129910000D02*
X68771738Y-129910000D01*
G75*
G02*
X68500000Y-129638262I0J271738D01*
G01*
X68500000Y-128931738D01*
G75*
G02*
X68771738Y-128660000I271738J0D01*
G01*
X69728262Y-128660000D01*
G75*
G02*
X70000000Y-128931738I0J-271738D01*
G01*
X70000000Y-129638262D01*
G75*
G02*
X69728262Y-129910000I-271738J0D01*
G01*
G37*
%TD*%
%TO.C,C11*%
G36*
G01*
X91948262Y-128046000D02*
X90991738Y-128046000D01*
G75*
G02*
X90720000Y-127774262I0J271738D01*
G01*
X90720000Y-127067738D01*
G75*
G02*
X90991738Y-126796000I271738J0D01*
G01*
X91948262Y-126796000D01*
G75*
G02*
X92220000Y-127067738I0J-271738D01*
G01*
X92220000Y-127774262D01*
G75*
G02*
X91948262Y-128046000I-271738J0D01*
G01*
G37*
G36*
G01*
X91948262Y-130096000D02*
X90991738Y-130096000D01*
G75*
G02*
X90720000Y-129824262I0J271738D01*
G01*
X90720000Y-129117738D01*
G75*
G02*
X90991738Y-128846000I271738J0D01*
G01*
X91948262Y-128846000D01*
G75*
G02*
X92220000Y-129117738I0J-271738D01*
G01*
X92220000Y-129824262D01*
G75*
G02*
X91948262Y-130096000I-271738J0D01*
G01*
G37*
%TD*%
%TO.C,C10*%
G36*
G01*
X115238262Y-128164000D02*
X114281738Y-128164000D01*
G75*
G02*
X114010000Y-127892262I0J271738D01*
G01*
X114010000Y-127185738D01*
G75*
G02*
X114281738Y-126914000I271738J0D01*
G01*
X115238262Y-126914000D01*
G75*
G02*
X115510000Y-127185738I0J-271738D01*
G01*
X115510000Y-127892262D01*
G75*
G02*
X115238262Y-128164000I-271738J0D01*
G01*
G37*
G36*
G01*
X115238262Y-130214000D02*
X114281738Y-130214000D01*
G75*
G02*
X114010000Y-129942262I0J271738D01*
G01*
X114010000Y-129235738D01*
G75*
G02*
X114281738Y-128964000I271738J0D01*
G01*
X115238262Y-128964000D01*
G75*
G02*
X115510000Y-129235738I0J-271738D01*
G01*
X115510000Y-129942262D01*
G75*
G02*
X115238262Y-130214000I-271738J0D01*
G01*
G37*
%TD*%
%TO.C,C9*%
G36*
G01*
X137354262Y-128662000D02*
X136397738Y-128662000D01*
G75*
G02*
X136126000Y-128390262I0J271738D01*
G01*
X136126000Y-127683738D01*
G75*
G02*
X136397738Y-127412000I271738J0D01*
G01*
X137354262Y-127412000D01*
G75*
G02*
X137626000Y-127683738I0J-271738D01*
G01*
X137626000Y-128390262D01*
G75*
G02*
X137354262Y-128662000I-271738J0D01*
G01*
G37*
G36*
G01*
X137354262Y-130712000D02*
X136397738Y-130712000D01*
G75*
G02*
X136126000Y-130440262I0J271738D01*
G01*
X136126000Y-129733738D01*
G75*
G02*
X136397738Y-129462000I271738J0D01*
G01*
X137354262Y-129462000D01*
G75*
G02*
X137626000Y-129733738I0J-271738D01*
G01*
X137626000Y-130440262D01*
G75*
G02*
X137354262Y-130712000I-271738J0D01*
G01*
G37*
%TD*%
%TO.C,C8*%
G36*
G01*
X175511738Y-127560000D02*
X176468262Y-127560000D01*
G75*
G02*
X176740000Y-127831738I0J-271738D01*
G01*
X176740000Y-128538262D01*
G75*
G02*
X176468262Y-128810000I-271738J0D01*
G01*
X175511738Y-128810000D01*
G75*
G02*
X175240000Y-128538262I0J271738D01*
G01*
X175240000Y-127831738D01*
G75*
G02*
X175511738Y-127560000I271738J0D01*
G01*
G37*
G36*
G01*
X175511738Y-125510000D02*
X176468262Y-125510000D01*
G75*
G02*
X176740000Y-125781738I0J-271738D01*
G01*
X176740000Y-126488262D01*
G75*
G02*
X176468262Y-126760000I-271738J0D01*
G01*
X175511738Y-126760000D01*
G75*
G02*
X175240000Y-126488262I0J271738D01*
G01*
X175240000Y-125781738D01*
G75*
G02*
X175511738Y-125510000I271738J0D01*
G01*
G37*
%TD*%
%TO.C,C7*%
G36*
G01*
X63393738Y-126874000D02*
X64350262Y-126874000D01*
G75*
G02*
X64622000Y-127145738I0J-271738D01*
G01*
X64622000Y-127852262D01*
G75*
G02*
X64350262Y-128124000I-271738J0D01*
G01*
X63393738Y-128124000D01*
G75*
G02*
X63122000Y-127852262I0J271738D01*
G01*
X63122000Y-127145738D01*
G75*
G02*
X63393738Y-126874000I271738J0D01*
G01*
G37*
G36*
G01*
X63393738Y-124824000D02*
X64350262Y-124824000D01*
G75*
G02*
X64622000Y-125095738I0J-271738D01*
G01*
X64622000Y-125802262D01*
G75*
G02*
X64350262Y-126074000I-271738J0D01*
G01*
X63393738Y-126074000D01*
G75*
G02*
X63122000Y-125802262I0J271738D01*
G01*
X63122000Y-125095738D01*
G75*
G02*
X63393738Y-124824000I271738J0D01*
G01*
G37*
%TD*%
%TO.C,C6*%
G36*
G01*
X86641738Y-128940000D02*
X87598262Y-128940000D01*
G75*
G02*
X87870000Y-129211738I0J-271738D01*
G01*
X87870000Y-129918262D01*
G75*
G02*
X87598262Y-130190000I-271738J0D01*
G01*
X86641738Y-130190000D01*
G75*
G02*
X86370000Y-129918262I0J271738D01*
G01*
X86370000Y-129211738D01*
G75*
G02*
X86641738Y-128940000I271738J0D01*
G01*
G37*
G36*
G01*
X86641738Y-126890000D02*
X87598262Y-126890000D01*
G75*
G02*
X87870000Y-127161738I0J-271738D01*
G01*
X87870000Y-127868262D01*
G75*
G02*
X87598262Y-128140000I-271738J0D01*
G01*
X86641738Y-128140000D01*
G75*
G02*
X86370000Y-127868262I0J271738D01*
G01*
X86370000Y-127161738D01*
G75*
G02*
X86641738Y-126890000I271738J0D01*
G01*
G37*
%TD*%
%TO.C,C5*%
G36*
G01*
X109025738Y-127068000D02*
X109982262Y-127068000D01*
G75*
G02*
X110254000Y-127339738I0J-271738D01*
G01*
X110254000Y-128046262D01*
G75*
G02*
X109982262Y-128318000I-271738J0D01*
G01*
X109025738Y-128318000D01*
G75*
G02*
X108754000Y-128046262I0J271738D01*
G01*
X108754000Y-127339738D01*
G75*
G02*
X109025738Y-127068000I271738J0D01*
G01*
G37*
G36*
G01*
X109025738Y-125018000D02*
X109982262Y-125018000D01*
G75*
G02*
X110254000Y-125289738I0J-271738D01*
G01*
X110254000Y-125996262D01*
G75*
G02*
X109982262Y-126268000I-271738J0D01*
G01*
X109025738Y-126268000D01*
G75*
G02*
X108754000Y-125996262I0J271738D01*
G01*
X108754000Y-125289738D01*
G75*
G02*
X109025738Y-125018000I271738J0D01*
G01*
G37*
%TD*%
%TO.C,C4*%
G36*
G01*
X131881738Y-127944000D02*
X132838262Y-127944000D01*
G75*
G02*
X133110000Y-128215738I0J-271738D01*
G01*
X133110000Y-128922262D01*
G75*
G02*
X132838262Y-129194000I-271738J0D01*
G01*
X131881738Y-129194000D01*
G75*
G02*
X131610000Y-128922262I0J271738D01*
G01*
X131610000Y-128215738D01*
G75*
G02*
X131881738Y-127944000I271738J0D01*
G01*
G37*
G36*
G01*
X131881738Y-125894000D02*
X132838262Y-125894000D01*
G75*
G02*
X133110000Y-126165738I0J-271738D01*
G01*
X133110000Y-126872262D01*
G75*
G02*
X132838262Y-127144000I-271738J0D01*
G01*
X131881738Y-127144000D01*
G75*
G02*
X131610000Y-126872262I0J271738D01*
G01*
X131610000Y-126165738D01*
G75*
G02*
X131881738Y-125894000I271738J0D01*
G01*
G37*
%TD*%
%TO.C,C3*%
G36*
G01*
X153997738Y-129822000D02*
X154954262Y-129822000D01*
G75*
G02*
X155226000Y-130093738I0J-271738D01*
G01*
X155226000Y-130800262D01*
G75*
G02*
X154954262Y-131072000I-271738J0D01*
G01*
X153997738Y-131072000D01*
G75*
G02*
X153726000Y-130800262I0J271738D01*
G01*
X153726000Y-130093738D01*
G75*
G02*
X153997738Y-129822000I271738J0D01*
G01*
G37*
G36*
G01*
X153997738Y-127772000D02*
X154954262Y-127772000D01*
G75*
G02*
X155226000Y-128043738I0J-271738D01*
G01*
X155226000Y-128750262D01*
G75*
G02*
X154954262Y-129022000I-271738J0D01*
G01*
X153997738Y-129022000D01*
G75*
G02*
X153726000Y-128750262I0J271738D01*
G01*
X153726000Y-128043738D01*
G75*
G02*
X153997738Y-127772000I271738J0D01*
G01*
G37*
%TD*%
%TO.C,C2*%
G36*
G01*
X95028000Y-112065738D02*
X95028000Y-113022262D01*
G75*
G02*
X94756262Y-113294000I-271738J0D01*
G01*
X94049738Y-113294000D01*
G75*
G02*
X93778000Y-113022262I0J271738D01*
G01*
X93778000Y-112065738D01*
G75*
G02*
X94049738Y-111794000I271738J0D01*
G01*
X94756262Y-111794000D01*
G75*
G02*
X95028000Y-112065738I0J-271738D01*
G01*
G37*
G36*
G01*
X97078000Y-112065738D02*
X97078000Y-113022262D01*
G75*
G02*
X96806262Y-113294000I-271738J0D01*
G01*
X96099738Y-113294000D01*
G75*
G02*
X95828000Y-113022262I0J271738D01*
G01*
X95828000Y-112065738D01*
G75*
G02*
X96099738Y-111794000I271738J0D01*
G01*
X96806262Y-111794000D01*
G75*
G02*
X97078000Y-112065738I0J-271738D01*
G01*
G37*
%TD*%
%TO.C,C1*%
G36*
G01*
X96208000Y-95132262D02*
X96208000Y-94175738D01*
G75*
G02*
X96479738Y-93904000I271738J0D01*
G01*
X97186262Y-93904000D01*
G75*
G02*
X97458000Y-94175738I0J-271738D01*
G01*
X97458000Y-95132262D01*
G75*
G02*
X97186262Y-95404000I-271738J0D01*
G01*
X96479738Y-95404000D01*
G75*
G02*
X96208000Y-95132262I0J271738D01*
G01*
G37*
G36*
G01*
X94158000Y-95132262D02*
X94158000Y-94175738D01*
G75*
G02*
X94429738Y-93904000I271738J0D01*
G01*
X95136262Y-93904000D01*
G75*
G02*
X95408000Y-94175738I0J-271738D01*
G01*
X95408000Y-95132262D01*
G75*
G02*
X95136262Y-95404000I-271738J0D01*
G01*
X94429738Y-95404000D01*
G75*
G02*
X94158000Y-95132262I0J271738D01*
G01*
G37*
%TD*%
M02*
