%FSLAX45Y45*%
G04 Gerber Fmt 4.5, Leading zero omitted, Abs format (unit mm)*
G04 Created by KiCad (PCBNEW 5.1.6-c6e7f7d~86~ubuntu18.04.1) date 2020-05-20 11:00:11*
%MOMM*%
%LPD*%
G01*
G04 APERTURE LIST*
%TA.AperFunction,Profile*%
%ADD10C,0.050000*%
%TD*%
%ADD11C,0.200000*%
%ADD12C,0.300000*%
G04 APERTURE END LIST*
D10*
X3754000Y-2792000D02*
X3754000Y-14805000D01*
X18646000Y-2792000D02*
X3754000Y-2792000D01*
X18646000Y-14805000D02*
X18646000Y-2792000D01*
X3754000Y-14805000D02*
X18646000Y-14805000D01*
D11*
X7368500Y-6360436D02*
X7388500Y-6380436D01*
X7388500Y-6360436D02*
X7368500Y-6380436D01*
X7371000Y-7360436D02*
X7391000Y-7380436D01*
X7391000Y-7360436D02*
X7371000Y-7380436D01*
X7625000Y-7360436D02*
X7645000Y-7380436D01*
X7645000Y-7360436D02*
X7625000Y-7380436D01*
X7628500Y-6365436D02*
X7648500Y-6385436D01*
X7648500Y-6365436D02*
X7628500Y-6385436D01*
X7878500Y-6365436D02*
X7898500Y-6385436D01*
X7898500Y-6365436D02*
X7878500Y-6385436D01*
X7879000Y-7360436D02*
X7899000Y-7380436D01*
X7899000Y-7360436D02*
X7879000Y-7380436D01*
X8133000Y-7360436D02*
X8153000Y-7380436D01*
X8153000Y-7360436D02*
X8133000Y-7380436D01*
X8133500Y-6365436D02*
X8153500Y-6385436D01*
X8153500Y-6365436D02*
X8133500Y-6385436D01*
X8626000Y-7360436D02*
X8646000Y-7380436D01*
X8646000Y-7360436D02*
X8626000Y-7380436D01*
X8641000Y-6370436D02*
X8661000Y-6390436D01*
X8661000Y-6370436D02*
X8641000Y-6390436D01*
X4431000Y-4337000D02*
X4451000Y-4357000D01*
X4451000Y-4337000D02*
X4431000Y-4357000D01*
X4431000Y-4591000D02*
X4451000Y-4611000D01*
X4451000Y-4591000D02*
X4431000Y-4611000D01*
X4431000Y-4845000D02*
X4451000Y-4865000D01*
X4451000Y-4845000D02*
X4431000Y-4865000D01*
X4431000Y-5099000D02*
X4451000Y-5119000D01*
X4451000Y-5099000D02*
X4431000Y-5119000D01*
X4431000Y-5592000D02*
X4451000Y-5612000D01*
X4451000Y-5592000D02*
X4431000Y-5612000D01*
X5421000Y-5607000D02*
X5441000Y-5627000D01*
X5441000Y-5607000D02*
X5421000Y-5627000D01*
X5426000Y-4594500D02*
X5446000Y-4614500D01*
X5446000Y-4594500D02*
X5426000Y-4614500D01*
X5426000Y-4844500D02*
X5446000Y-4864500D01*
X5446000Y-4844500D02*
X5426000Y-4864500D01*
X5426000Y-5099500D02*
X5446000Y-5119500D01*
X5446000Y-5099500D02*
X5426000Y-5119500D01*
X5431000Y-4334500D02*
X5451000Y-4354500D01*
X5451000Y-4334500D02*
X5431000Y-4354500D01*
X9609200Y-5834200D02*
X9629200Y-5854200D01*
X9629200Y-5834200D02*
X9609200Y-5854200D01*
X9609200Y-6088200D02*
X9629200Y-6108200D01*
X9629200Y-6088200D02*
X9609200Y-6108200D01*
X9609200Y-6342200D02*
X9629200Y-6362200D01*
X9629200Y-6342200D02*
X9609200Y-6362200D01*
X9609200Y-6596200D02*
X9629200Y-6616200D01*
X9629200Y-6596200D02*
X9609200Y-6616200D01*
X9609200Y-7089200D02*
X9629200Y-7109200D01*
X9629200Y-7089200D02*
X9609200Y-7109200D01*
X10599200Y-7104200D02*
X10619200Y-7124200D01*
X10619200Y-7104200D02*
X10599200Y-7124200D01*
X10604200Y-6091700D02*
X10624200Y-6111700D01*
X10624200Y-6091700D02*
X10604200Y-6111700D01*
X10604200Y-6341700D02*
X10624200Y-6361700D01*
X10624200Y-6341700D02*
X10604200Y-6361700D01*
X10604200Y-6596700D02*
X10624200Y-6616700D01*
X10624200Y-6596700D02*
X10604200Y-6616700D01*
X10609200Y-5831700D02*
X10629200Y-5851700D01*
X10629200Y-5831700D02*
X10609200Y-5851700D01*
X9399500Y-12358800D02*
X9419500Y-12378800D01*
X9419500Y-12358800D02*
X9399500Y-12378800D01*
X9402000Y-13358800D02*
X9422000Y-13378800D01*
X9422000Y-13358800D02*
X9402000Y-13378800D01*
X9656000Y-13358800D02*
X9676000Y-13378800D01*
X9676000Y-13358800D02*
X9656000Y-13378800D01*
X9659500Y-12363800D02*
X9679500Y-12383800D01*
X9679500Y-12363800D02*
X9659500Y-12383800D01*
X9909500Y-12363800D02*
X9929500Y-12383800D01*
X9929500Y-12363800D02*
X9909500Y-12383800D01*
X9910000Y-13358800D02*
X9930000Y-13378800D01*
X9930000Y-13358800D02*
X9910000Y-13378800D01*
X10164000Y-13358800D02*
X10184000Y-13378800D01*
X10184000Y-13358800D02*
X10164000Y-13378800D01*
X10164500Y-12363800D02*
X10184500Y-12383800D01*
X10184500Y-12363800D02*
X10164500Y-12383800D01*
X10657000Y-13358800D02*
X10677000Y-13378800D01*
X10677000Y-13358800D02*
X10657000Y-13378800D01*
X10672000Y-12368800D02*
X10692000Y-12388800D01*
X10692000Y-12368800D02*
X10672000Y-12388800D01*
X4288000Y-6564000D02*
X4308000Y-6584000D01*
X4308000Y-6564000D02*
X4288000Y-6584000D01*
X4288000Y-6818000D02*
X4308000Y-6838000D01*
X4308000Y-6818000D02*
X4288000Y-6838000D01*
X4288000Y-7072000D02*
X4308000Y-7092000D01*
X4308000Y-7072000D02*
X4288000Y-7092000D01*
X4288000Y-7326000D02*
X4308000Y-7346000D01*
X4308000Y-7326000D02*
X4288000Y-7346000D01*
X4288000Y-7819000D02*
X4308000Y-7839000D01*
X4308000Y-7819000D02*
X4288000Y-7839000D01*
X5278000Y-7834000D02*
X5298000Y-7854000D01*
X5298000Y-7834000D02*
X5278000Y-7854000D01*
X5283000Y-6821500D02*
X5303000Y-6841500D01*
X5303000Y-6821500D02*
X5283000Y-6841500D01*
X5283000Y-7071500D02*
X5303000Y-7091500D01*
X5303000Y-7071500D02*
X5283000Y-7091500D01*
X5283000Y-7326500D02*
X5303000Y-7346500D01*
X5303000Y-7326500D02*
X5283000Y-7346500D01*
X5288000Y-6561500D02*
X5308000Y-6581500D01*
X5308000Y-6561500D02*
X5288000Y-6581500D01*
X13919100Y-12427200D02*
X13939100Y-12447200D01*
X13939100Y-12427200D02*
X13919100Y-12447200D01*
X13921600Y-13427200D02*
X13941600Y-13447200D01*
X13941600Y-13427200D02*
X13921600Y-13447200D01*
X14175600Y-13427200D02*
X14195600Y-13447200D01*
X14195600Y-13427200D02*
X14175600Y-13447200D01*
X14179100Y-12432200D02*
X14199100Y-12452200D01*
X14199100Y-12432200D02*
X14179100Y-12452200D01*
X14429100Y-12432200D02*
X14449100Y-12452200D01*
X14449100Y-12432200D02*
X14429100Y-12452200D01*
X14429600Y-13427200D02*
X14449600Y-13447200D01*
X14449600Y-13427200D02*
X14429600Y-13447200D01*
X14683600Y-13427200D02*
X14703600Y-13447200D01*
X14703600Y-13427200D02*
X14683600Y-13447200D01*
X14684100Y-12432200D02*
X14704100Y-12452200D01*
X14704100Y-12432200D02*
X14684100Y-12452200D01*
X15176600Y-13427200D02*
X15196600Y-13447200D01*
X15196600Y-13427200D02*
X15176600Y-13447200D01*
X15191600Y-12437200D02*
X15211600Y-12457200D01*
X15211600Y-12437200D02*
X15191600Y-12457200D01*
X4844500Y-12341200D02*
X4864500Y-12361200D01*
X4864500Y-12341200D02*
X4844500Y-12361200D01*
X4847000Y-13341200D02*
X4867000Y-13361200D01*
X4867000Y-13341200D02*
X4847000Y-13361200D01*
X5101000Y-13341200D02*
X5121000Y-13361200D01*
X5121000Y-13341200D02*
X5101000Y-13361200D01*
X5104500Y-12346200D02*
X5124500Y-12366200D01*
X5124500Y-12346200D02*
X5104500Y-12366200D01*
X5354500Y-12346200D02*
X5374500Y-12366200D01*
X5374500Y-12346200D02*
X5354500Y-12366200D01*
X5355000Y-13341200D02*
X5375000Y-13361200D01*
X5375000Y-13341200D02*
X5355000Y-13361200D01*
X5609000Y-13341200D02*
X5629000Y-13361200D01*
X5629000Y-13341200D02*
X5609000Y-13361200D01*
X5609500Y-12346200D02*
X5629500Y-12366200D01*
X5629500Y-12346200D02*
X5609500Y-12366200D01*
X6102000Y-13341200D02*
X6122000Y-13361200D01*
X6122000Y-13341200D02*
X6102000Y-13361200D01*
X6117000Y-12351200D02*
X6137000Y-12371200D01*
X6137000Y-12351200D02*
X6117000Y-12371200D01*
X12664000Y-4099000D02*
X12684000Y-4119000D01*
X12684000Y-4099000D02*
X12664000Y-4119000D01*
X12664000Y-4353000D02*
X12684000Y-4373000D01*
X12684000Y-4353000D02*
X12664000Y-4373000D01*
X12664000Y-4607000D02*
X12684000Y-4627000D01*
X12684000Y-4607000D02*
X12664000Y-4627000D01*
X12664000Y-4861000D02*
X12684000Y-4881000D01*
X12684000Y-4861000D02*
X12664000Y-4881000D01*
X12664000Y-5354000D02*
X12684000Y-5374000D01*
X12684000Y-5354000D02*
X12664000Y-5374000D01*
X13654000Y-5369000D02*
X13674000Y-5389000D01*
X13674000Y-5369000D02*
X13654000Y-5389000D01*
X13659000Y-4356500D02*
X13679000Y-4376500D01*
X13679000Y-4356500D02*
X13659000Y-4376500D01*
X13659000Y-4606500D02*
X13679000Y-4626500D01*
X13679000Y-4606500D02*
X13659000Y-4626500D01*
X13659000Y-4861500D02*
X13679000Y-4881500D01*
X13679000Y-4861500D02*
X13659000Y-4881500D01*
X13664000Y-4096500D02*
X13684000Y-4116500D01*
X13684000Y-4096500D02*
X13664000Y-4116500D01*
X11703500Y-12374400D02*
X11723500Y-12394400D01*
X11723500Y-12374400D02*
X11703500Y-12394400D01*
X11706000Y-13374400D02*
X11726000Y-13394400D01*
X11726000Y-13374400D02*
X11706000Y-13394400D01*
X11960000Y-13374400D02*
X11980000Y-13394400D01*
X11980000Y-13374400D02*
X11960000Y-13394400D01*
X11963500Y-12379400D02*
X11983500Y-12399400D01*
X11983500Y-12379400D02*
X11963500Y-12399400D01*
X12213500Y-12379400D02*
X12233500Y-12399400D01*
X12233500Y-12379400D02*
X12213500Y-12399400D01*
X12214000Y-13374400D02*
X12234000Y-13394400D01*
X12234000Y-13374400D02*
X12214000Y-13394400D01*
X12468000Y-13374400D02*
X12488000Y-13394400D01*
X12488000Y-13374400D02*
X12468000Y-13394400D01*
X12468500Y-12379400D02*
X12488500Y-12399400D01*
X12488500Y-12379400D02*
X12468500Y-12399400D01*
X12961000Y-13374400D02*
X12981000Y-13394400D01*
X12981000Y-13374400D02*
X12961000Y-13394400D01*
X12976000Y-12384400D02*
X12996000Y-12404400D01*
X12996000Y-12384400D02*
X12976000Y-12404400D01*
X7837000Y-4091000D02*
X7857000Y-4111000D01*
X7857000Y-4091000D02*
X7837000Y-4111000D01*
X7837000Y-4191000D02*
X7857000Y-4211000D01*
X7857000Y-4191000D02*
X7837000Y-4211000D01*
X7837000Y-4291000D02*
X7857000Y-4311000D01*
X7857000Y-4291000D02*
X7837000Y-4311000D01*
X7977000Y-4091000D02*
X7997000Y-4111000D01*
X7997000Y-4091000D02*
X7977000Y-4111000D01*
X7977000Y-4191000D02*
X7997000Y-4211000D01*
X7997000Y-4191000D02*
X7977000Y-4211000D01*
X7977000Y-4291000D02*
X7997000Y-4311000D01*
X7997000Y-4291000D02*
X7977000Y-4311000D01*
X13847400Y-6047200D02*
X13867400Y-6067200D01*
X13867400Y-6047200D02*
X13847400Y-6067200D01*
X13847400Y-6301200D02*
X13867400Y-6321200D01*
X13867400Y-6301200D02*
X13847400Y-6321200D01*
X13847400Y-6555200D02*
X13867400Y-6575200D01*
X13867400Y-6555200D02*
X13847400Y-6575200D01*
X13847400Y-6809200D02*
X13867400Y-6829200D01*
X13867400Y-6809200D02*
X13847400Y-6829200D01*
X13847400Y-7302200D02*
X13867400Y-7322200D01*
X13867400Y-7302200D02*
X13847400Y-7322200D01*
X14837400Y-7317200D02*
X14857400Y-7337200D01*
X14857400Y-7317200D02*
X14837400Y-7337200D01*
X14842400Y-6304700D02*
X14862400Y-6324700D01*
X14862400Y-6304700D02*
X14842400Y-6324700D01*
X14842400Y-6554700D02*
X14862400Y-6574700D01*
X14862400Y-6554700D02*
X14842400Y-6574700D01*
X14842400Y-6809700D02*
X14862400Y-6829700D01*
X14862400Y-6809700D02*
X14842400Y-6829700D01*
X14847400Y-6044700D02*
X14867400Y-6064700D01*
X14867400Y-6044700D02*
X14847400Y-6064700D01*
X9065236Y-10986900D02*
X9085236Y-11006900D01*
X9085236Y-10986900D02*
X9065236Y-11006900D01*
X9070236Y-10221900D02*
X9090236Y-10241900D01*
X9090236Y-10221900D02*
X9070236Y-10241900D01*
X9070236Y-10476900D02*
X9090236Y-10496900D01*
X9090236Y-10476900D02*
X9070236Y-10496900D01*
X9070236Y-10726900D02*
X9090236Y-10746900D01*
X9090236Y-10726900D02*
X9070236Y-10746900D01*
X9075236Y-9714400D02*
X9095236Y-9734400D01*
X9095236Y-9714400D02*
X9075236Y-9734400D01*
X10065236Y-9729400D02*
X10085236Y-9749400D01*
X10085236Y-9729400D02*
X10065236Y-9749400D01*
X10065236Y-10222400D02*
X10085236Y-10242400D01*
X10085236Y-10222400D02*
X10065236Y-10242400D01*
X10065236Y-10476400D02*
X10085236Y-10496400D01*
X10085236Y-10476400D02*
X10065236Y-10496400D01*
X10065236Y-10730400D02*
X10085236Y-10750400D01*
X10085236Y-10730400D02*
X10065236Y-10750400D01*
X10065236Y-10984400D02*
X10085236Y-11004400D01*
X10085236Y-10984400D02*
X10065236Y-11004400D01*
X15814000Y-6896000D02*
X15834000Y-6916000D01*
X15834000Y-6896000D02*
X15814000Y-6916000D01*
X15814000Y-7150000D02*
X15834000Y-7170000D01*
X15834000Y-7150000D02*
X15814000Y-7170000D01*
X15814000Y-7404000D02*
X15834000Y-7424000D01*
X15834000Y-7404000D02*
X15814000Y-7424000D01*
X15814000Y-7658000D02*
X15834000Y-7678000D01*
X15834000Y-7658000D02*
X15814000Y-7678000D01*
X15814000Y-8151000D02*
X15834000Y-8171000D01*
X15834000Y-8151000D02*
X15814000Y-8171000D01*
X16804000Y-8166000D02*
X16824000Y-8186000D01*
X16824000Y-8166000D02*
X16804000Y-8186000D01*
X16809000Y-7153500D02*
X16829000Y-7173500D01*
X16829000Y-7153500D02*
X16809000Y-7173500D01*
X16809000Y-7403500D02*
X16829000Y-7423500D01*
X16829000Y-7403500D02*
X16809000Y-7423500D01*
X16809000Y-7658500D02*
X16829000Y-7678500D01*
X16829000Y-7658500D02*
X16809000Y-7678500D01*
X16814000Y-6893500D02*
X16834000Y-6913500D01*
X16834000Y-6893500D02*
X16814000Y-6913500D01*
X15682400Y-11154200D02*
X15702400Y-11174200D01*
X15702400Y-11154200D02*
X15682400Y-11174200D01*
X15697400Y-10164200D02*
X15717400Y-10184200D01*
X15717400Y-10164200D02*
X15697400Y-10184200D01*
X16189900Y-11159200D02*
X16209900Y-11179200D01*
X16209900Y-11159200D02*
X16189900Y-11179200D01*
X16190400Y-10164200D02*
X16210400Y-10184200D01*
X16210400Y-10164200D02*
X16190400Y-10184200D01*
X16444400Y-10164200D02*
X16464400Y-10184200D01*
X16464400Y-10164200D02*
X16444400Y-10184200D01*
X16444900Y-11159200D02*
X16464900Y-11179200D01*
X16464900Y-11159200D02*
X16444900Y-11179200D01*
X16694900Y-11159200D02*
X16714900Y-11179200D01*
X16714900Y-11159200D02*
X16694900Y-11179200D01*
X16698400Y-10164200D02*
X16718400Y-10184200D01*
X16718400Y-10164200D02*
X16698400Y-10184200D01*
X16952400Y-10164200D02*
X16972400Y-10184200D01*
X16972400Y-10164200D02*
X16952400Y-10184200D01*
X16954900Y-11164200D02*
X16974900Y-11184200D01*
X16974900Y-11164200D02*
X16954900Y-11184200D01*
X7010600Y-10576200D02*
X7030600Y-10596200D01*
X7030600Y-10576200D02*
X7010600Y-10596200D01*
X7010600Y-10676200D02*
X7030600Y-10696200D01*
X7030600Y-10676200D02*
X7010600Y-10696200D01*
X7010600Y-10776200D02*
X7030600Y-10796200D01*
X7030600Y-10776200D02*
X7010600Y-10796200D01*
X7150600Y-10576200D02*
X7170600Y-10596200D01*
X7170600Y-10576200D02*
X7150600Y-10596200D01*
X7150600Y-10676200D02*
X7170600Y-10696200D01*
X7170600Y-10676200D02*
X7150600Y-10696200D01*
X7150600Y-10776200D02*
X7170600Y-10796200D01*
X7170600Y-10776200D02*
X7150600Y-10796200D01*
X12135800Y-11337800D02*
X12155800Y-11357800D01*
X12155800Y-11337800D02*
X12135800Y-11357800D01*
X12150800Y-10347800D02*
X12170800Y-10367800D01*
X12170800Y-10347800D02*
X12150800Y-10367800D01*
X12643300Y-11342800D02*
X12663300Y-11362800D01*
X12663300Y-11342800D02*
X12643300Y-11362800D01*
X12643800Y-10347800D02*
X12663800Y-10367800D01*
X12663800Y-10347800D02*
X12643800Y-10367800D01*
X12897800Y-10347800D02*
X12917800Y-10367800D01*
X12917800Y-10347800D02*
X12897800Y-10367800D01*
X12898300Y-11342800D02*
X12918300Y-11362800D01*
X12918300Y-11342800D02*
X12898300Y-11362800D01*
X13148300Y-11342800D02*
X13168300Y-11362800D01*
X13168300Y-11342800D02*
X13148300Y-11362800D01*
X13151800Y-10347800D02*
X13171800Y-10367800D01*
X13171800Y-10347800D02*
X13151800Y-10367800D01*
X13405800Y-10347800D02*
X13425800Y-10367800D01*
X13425800Y-10347800D02*
X13405800Y-10367800D01*
X13408300Y-11347800D02*
X13428300Y-11367800D01*
X13428300Y-11347800D02*
X13408300Y-11367800D01*
X16070500Y-12415000D02*
X16090500Y-12435000D01*
X16090500Y-12415000D02*
X16070500Y-12435000D01*
X16073000Y-13415000D02*
X16093000Y-13435000D01*
X16093000Y-13415000D02*
X16073000Y-13435000D01*
X16327000Y-13415000D02*
X16347000Y-13435000D01*
X16347000Y-13415000D02*
X16327000Y-13435000D01*
X16330500Y-12420000D02*
X16350500Y-12440000D01*
X16350500Y-12420000D02*
X16330500Y-12440000D01*
X16580500Y-12420000D02*
X16600500Y-12440000D01*
X16600500Y-12420000D02*
X16580500Y-12440000D01*
X16581000Y-13415000D02*
X16601000Y-13435000D01*
X16601000Y-13415000D02*
X16581000Y-13435000D01*
X16835000Y-13415000D02*
X16855000Y-13435000D01*
X16855000Y-13415000D02*
X16835000Y-13435000D01*
X16835500Y-12420000D02*
X16855500Y-12440000D01*
X16855500Y-12420000D02*
X16835500Y-12440000D01*
X17328000Y-13415000D02*
X17348000Y-13435000D01*
X17348000Y-13415000D02*
X17328000Y-13435000D01*
X17343000Y-12425000D02*
X17363000Y-12445000D01*
X17363000Y-12425000D02*
X17343000Y-12445000D01*
X11599000Y-7876000D02*
X11619000Y-7896000D01*
X11619000Y-7876000D02*
X11599000Y-7896000D01*
X11614000Y-6886000D02*
X11634000Y-6906000D01*
X11634000Y-6886000D02*
X11614000Y-6906000D01*
X12106500Y-7881000D02*
X12126500Y-7901000D01*
X12126500Y-7881000D02*
X12106500Y-7901000D01*
X12107000Y-6886000D02*
X12127000Y-6906000D01*
X12127000Y-6886000D02*
X12107000Y-6906000D01*
X12361000Y-6886000D02*
X12381000Y-6906000D01*
X12381000Y-6886000D02*
X12361000Y-6906000D01*
X12361500Y-7881000D02*
X12381500Y-7901000D01*
X12381500Y-7881000D02*
X12361500Y-7901000D01*
X12611500Y-7881000D02*
X12631500Y-7901000D01*
X12631500Y-7881000D02*
X12611500Y-7901000D01*
X12615000Y-6886000D02*
X12635000Y-6906000D01*
X12635000Y-6886000D02*
X12615000Y-6906000D01*
X12869000Y-6886000D02*
X12889000Y-6906000D01*
X12889000Y-6886000D02*
X12869000Y-6906000D01*
X12871500Y-7886000D02*
X12891500Y-7906000D01*
X12891500Y-7886000D02*
X12871500Y-7906000D01*
X7177500Y-12330000D02*
X7197500Y-12350000D01*
X7197500Y-12330000D02*
X7177500Y-12350000D01*
X7180000Y-13330000D02*
X7200000Y-13350000D01*
X7200000Y-13330000D02*
X7180000Y-13350000D01*
X7434000Y-13330000D02*
X7454000Y-13350000D01*
X7454000Y-13330000D02*
X7434000Y-13350000D01*
X7437500Y-12335000D02*
X7457500Y-12355000D01*
X7457500Y-12335000D02*
X7437500Y-12355000D01*
X7687500Y-12335000D02*
X7707500Y-12355000D01*
X7707500Y-12335000D02*
X7687500Y-12355000D01*
X7688000Y-13330000D02*
X7708000Y-13350000D01*
X7708000Y-13330000D02*
X7688000Y-13350000D01*
X7942000Y-13330000D02*
X7962000Y-13350000D01*
X7962000Y-13330000D02*
X7942000Y-13350000D01*
X7942500Y-12335000D02*
X7962500Y-12355000D01*
X7962500Y-12335000D02*
X7942500Y-12355000D01*
X8435000Y-13330000D02*
X8455000Y-13350000D01*
X8455000Y-13330000D02*
X8435000Y-13350000D01*
X8450000Y-12340000D02*
X8470000Y-12360000D01*
X8470000Y-12340000D02*
X8450000Y-12360000D01*
X4297000Y-12648000D02*
G75*
G03*
X4297000Y-12648000I-15000J0D01*
G01*
X4297000Y-12723000D02*
G75*
G03*
X4297000Y-12723000I-15000J0D01*
G01*
X4338500Y-12593500D02*
G75*
G03*
X4338500Y-12593500I-15000J0D01*
G01*
X4389000Y-11892000D02*
G75*
G03*
X4389000Y-11892000I-15000J0D01*
G01*
X4389000Y-11980000D02*
G75*
G03*
X4389000Y-11980000I-15000J0D01*
G01*
X4422000Y-12986000D02*
G75*
G03*
X4422000Y-12986000I-15000J0D01*
G01*
X4422000Y-13071000D02*
G75*
G03*
X4422000Y-13071000I-15000J0D01*
G01*
X4769000Y-12932000D02*
G75*
G03*
X4769000Y-12932000I-15000J0D01*
G01*
X5235400Y-13739600D02*
G75*
G03*
X5235400Y-13739600I-15000J0D01*
G01*
X5303400Y-13739600D02*
G75*
G03*
X5303400Y-13739600I-15000J0D01*
G01*
X5620000Y-7455000D02*
G75*
G03*
X5620000Y-7455000I-15000J0D01*
G01*
X5620000Y-7531000D02*
G75*
G03*
X5620000Y-7531000I-15000J0D01*
G01*
X5620000Y-7594000D02*
G75*
G03*
X5620000Y-7594000I-15000J0D01*
G01*
X5643000Y-7017000D02*
G75*
G03*
X5643000Y-7017000I-15000J0D01*
G01*
X5643000Y-7082000D02*
G75*
G03*
X5643000Y-7082000I-15000J0D01*
G01*
X5643000Y-7145000D02*
G75*
G03*
X5643000Y-7145000I-15000J0D01*
G01*
X6277000Y-12061000D02*
G75*
G03*
X6277000Y-12061000I-15000J0D01*
G01*
X6346000Y-12061000D02*
G75*
G03*
X6346000Y-12061000I-15000J0D01*
G01*
X6418000Y-12061000D02*
G75*
G03*
X6418000Y-12061000I-15000J0D01*
G01*
X6492000Y-12061000D02*
G75*
G03*
X6492000Y-12061000I-15000J0D01*
G01*
X6599000Y-11891000D02*
G75*
G03*
X6599000Y-11891000I-15000J0D01*
G01*
X6599000Y-11950000D02*
G75*
G03*
X6599000Y-11950000I-15000J0D01*
G01*
X6646000Y-4148000D02*
G75*
G03*
X6646000Y-4148000I-15000J0D01*
G01*
X6646000Y-4221000D02*
G75*
G03*
X6646000Y-4221000I-15000J0D01*
G01*
X6691000Y-4093000D02*
G75*
G03*
X6691000Y-4093000I-15000J0D01*
G01*
X6701000Y-13055000D02*
G75*
G03*
X6701000Y-13055000I-15000J0D01*
G01*
X6720000Y-6074000D02*
G75*
G03*
X6720000Y-6074000I-15000J0D01*
G01*
X6720000Y-6147000D02*
G75*
G03*
X6720000Y-6147000I-15000J0D01*
G01*
X6720000Y-6211000D02*
G75*
G03*
X6720000Y-6211000I-15000J0D01*
G01*
X6726000Y-11826000D02*
G75*
G03*
X6726000Y-11826000I-15000J0D01*
G01*
X6744000Y-13452000D02*
G75*
G03*
X6744000Y-13452000I-15000J0D01*
G01*
X6753000Y-4093000D02*
G75*
G03*
X6753000Y-4093000I-15000J0D01*
G01*
X6762000Y-13053000D02*
G75*
G03*
X6762000Y-13053000I-15000J0D01*
G01*
X6784500Y-13496500D02*
G75*
G03*
X6784500Y-13496500I-15000J0D01*
G01*
X6786000Y-11826000D02*
G75*
G03*
X6786000Y-11826000I-15000J0D01*
G01*
X6798000Y-6528000D02*
G75*
G03*
X6798000Y-6528000I-15000J0D01*
G01*
X6799000Y-6761000D02*
G75*
G03*
X6799000Y-6761000I-15000J0D01*
G01*
X6827500Y-13539500D02*
G75*
G03*
X6827500Y-13539500I-15000J0D01*
G01*
X6840500Y-6719500D02*
G75*
G03*
X6840500Y-6719500I-15000J0D01*
G01*
X6848000Y-11826000D02*
G75*
G03*
X6848000Y-11826000I-15000J0D01*
G01*
X6860000Y-6528000D02*
G75*
G03*
X6860000Y-6528000I-15000J0D01*
G01*
X6927000Y-6026000D02*
G75*
G03*
X6927000Y-6026000I-15000J0D01*
G01*
X6928000Y-5964000D02*
G75*
G03*
X6928000Y-5964000I-15000J0D01*
G01*
X7005000Y-7334000D02*
G75*
G03*
X7005000Y-7334000I-15000J0D01*
G01*
X7005000Y-7404000D02*
G75*
G03*
X7005000Y-7404000I-15000J0D01*
G01*
X7005000Y-7476000D02*
G75*
G03*
X7005000Y-7476000I-15000J0D01*
G01*
X7005000Y-7546000D02*
G75*
G03*
X7005000Y-7546000I-15000J0D01*
G01*
X7005000Y-7613000D02*
G75*
G03*
X7005000Y-7613000I-15000J0D01*
G01*
X7101000Y-8498000D02*
G75*
G03*
X7101000Y-8498000I-15000J0D01*
G01*
X7162000Y-8498000D02*
G75*
G03*
X7162000Y-8498000I-15000J0D01*
G01*
X7175000Y-11593000D02*
G75*
G03*
X7175000Y-11593000I-15000J0D01*
G01*
X7175000Y-11709000D02*
G75*
G03*
X7175000Y-11709000I-15000J0D01*
G01*
X7175600Y-11652400D02*
G75*
G03*
X7175600Y-11652400I-15000J0D01*
G01*
X7220000Y-8498000D02*
G75*
G03*
X7220000Y-8498000I-15000J0D01*
G01*
X7245300Y-10299700D02*
G75*
G03*
X7245300Y-10299700I-15000J0D01*
G01*
X7464300Y-10299700D02*
G75*
G03*
X7464300Y-10299700I-15000J0D01*
G01*
X7559000Y-13739000D02*
G75*
G03*
X7559000Y-13739000I-15000J0D01*
G01*
X7579250Y-4700750D02*
G75*
G03*
X7579250Y-4700750I-15000J0D01*
G01*
X7639000Y-13739000D02*
G75*
G03*
X7639000Y-13739000I-15000J0D01*
G01*
X7654650Y-10213650D02*
G75*
G03*
X7654650Y-10213650I-15000J0D01*
G01*
X7672000Y-4696000D02*
G75*
G03*
X7672000Y-4696000I-15000J0D01*
G01*
X7744500Y-4623500D02*
G75*
G03*
X7744500Y-4623500I-15000J0D01*
G01*
X7803500Y-4564500D02*
G75*
G03*
X7803500Y-4564500I-15000J0D01*
G01*
X7892550Y-10156450D02*
G75*
G03*
X7892550Y-10156450I-15000J0D01*
G01*
X7932000Y-4436000D02*
G75*
G03*
X7932000Y-4436000I-15000J0D01*
G01*
X8139550Y-10156450D02*
G75*
G03*
X8139550Y-10156450I-15000J0D01*
G01*
X8287000Y-10807000D02*
G75*
G03*
X8287000Y-10807000I-15000J0D01*
G01*
X8287000Y-10863000D02*
G75*
G03*
X8287000Y-10863000I-15000J0D01*
G01*
X8287000Y-10924000D02*
G75*
G03*
X8287000Y-10924000I-15000J0D01*
G01*
X8322000Y-9537000D02*
G75*
G03*
X8322000Y-9537000I-15000J0D01*
G01*
X8322000Y-9613000D02*
G75*
G03*
X8322000Y-9613000I-15000J0D01*
G01*
X8324000Y-9688000D02*
G75*
G03*
X8324000Y-9688000I-15000J0D01*
G01*
X8324000Y-9758000D02*
G75*
G03*
X8324000Y-9758000I-15000J0D01*
G01*
X8509000Y-13564000D02*
G75*
G03*
X8509000Y-13564000I-15000J0D01*
G01*
X8547000Y-10615000D02*
G75*
G03*
X8547000Y-10615000I-15000J0D01*
G01*
X8547600Y-10693400D02*
G75*
G03*
X8547600Y-10693400I-15000J0D01*
G01*
X8548000Y-10545000D02*
G75*
G03*
X8548000Y-10545000I-15000J0D01*
G01*
X8570000Y-13564000D02*
G75*
G03*
X8570000Y-13564000I-15000J0D01*
G01*
X8644000Y-13564000D02*
G75*
G03*
X8644000Y-13564000I-15000J0D01*
G01*
X8751000Y-5807000D02*
G75*
G03*
X8751000Y-5807000I-15000J0D01*
G01*
X8815000Y-5807000D02*
G75*
G03*
X8815000Y-5807000I-15000J0D01*
G01*
X8913000Y-12693000D02*
G75*
G03*
X8913000Y-12693000I-15000J0D01*
G01*
X8958500Y-12647500D02*
G75*
G03*
X8958500Y-12647500I-15000J0D01*
G01*
X8990000Y-13370000D02*
G75*
G03*
X8990000Y-13370000I-15000J0D01*
G01*
X9053000Y-13370000D02*
G75*
G03*
X9053000Y-13370000I-15000J0D01*
G01*
X9071500Y-5608500D02*
G75*
G03*
X9071500Y-5608500I-15000J0D01*
G01*
X9087000Y-6593000D02*
G75*
G03*
X9087000Y-6593000I-15000J0D01*
G01*
X9087000Y-6658000D02*
G75*
G03*
X9087000Y-6658000I-15000J0D01*
G01*
X9116000Y-13370000D02*
G75*
G03*
X9116000Y-13370000I-15000J0D01*
G01*
X9136500Y-5608500D02*
G75*
G03*
X9136500Y-5608500I-15000J0D01*
G01*
X9148000Y-7728000D02*
G75*
G03*
X9148000Y-7728000I-15000J0D01*
G01*
X9178000Y-7790000D02*
G75*
G03*
X9178000Y-7790000I-15000J0D01*
G01*
X9227000Y-7211000D02*
G75*
G03*
X9227000Y-7211000I-15000J0D01*
G01*
X9249800Y-11559200D02*
G75*
G03*
X9249800Y-11559200I-15000J0D01*
G01*
X9249800Y-11623200D02*
G75*
G03*
X9249800Y-11623200I-15000J0D01*
G01*
X9255000Y-7832000D02*
G75*
G03*
X9255000Y-7832000I-15000J0D01*
G01*
X9286000Y-7212000D02*
G75*
G03*
X9286000Y-7212000I-15000J0D01*
G01*
X9292000Y-7279000D02*
G75*
G03*
X9292000Y-7279000I-15000J0D01*
G01*
X9609000Y-6841000D02*
G75*
G03*
X9609000Y-6841000I-15000J0D01*
G01*
X9660300Y-11377700D02*
G75*
G03*
X9660300Y-11377700I-15000J0D01*
G01*
X9660300Y-11437700D02*
G75*
G03*
X9660300Y-11437700I-15000J0D01*
G01*
X9660300Y-11502300D02*
G75*
G03*
X9660300Y-11502300I-15000J0D01*
G01*
X9669000Y-6841000D02*
G75*
G03*
X9669000Y-6841000I-15000J0D01*
G01*
X9725600Y-9270400D02*
G75*
G03*
X9725600Y-9270400I-15000J0D01*
G01*
X9730000Y-6841000D02*
G75*
G03*
X9730000Y-6841000I-15000J0D01*
G01*
X9784600Y-9270400D02*
G75*
G03*
X9784600Y-9270400I-15000J0D01*
G01*
X9791000Y-13759000D02*
G75*
G03*
X9791000Y-13759000I-15000J0D01*
G01*
X9794000Y-6841000D02*
G75*
G03*
X9794000Y-6841000I-15000J0D01*
G01*
X9822000Y-9115000D02*
G75*
G03*
X9822000Y-9115000I-15000J0D01*
G01*
X9827000Y-11502000D02*
G75*
G03*
X9827000Y-11502000I-15000J0D01*
G01*
X9827000Y-11571000D02*
G75*
G03*
X9827000Y-11571000I-15000J0D01*
G01*
X9827000Y-11635000D02*
G75*
G03*
X9827000Y-11635000I-15000J0D01*
G01*
X9827000Y-11696000D02*
G75*
G03*
X9827000Y-11696000I-15000J0D01*
G01*
X9843600Y-9270400D02*
G75*
G03*
X9843600Y-9270400I-15000J0D01*
G01*
X9858000Y-13759000D02*
G75*
G03*
X9858000Y-13759000I-15000J0D01*
G01*
X9886000Y-9115000D02*
G75*
G03*
X9886000Y-9115000I-15000J0D01*
G01*
X9889500Y-7827500D02*
G75*
G03*
X9889500Y-7827500I-15000J0D01*
G01*
X9945000Y-9115000D02*
G75*
G03*
X9945000Y-9115000I-15000J0D01*
G01*
X9951000Y-7834000D02*
G75*
G03*
X9951000Y-7834000I-15000J0D01*
G01*
X9999400Y-7673600D02*
G75*
G03*
X9999400Y-7673600I-15000J0D01*
G01*
X9999400Y-7730600D02*
G75*
G03*
X9999400Y-7730600I-15000J0D01*
G01*
X10030500Y-5329500D02*
G75*
G03*
X10030500Y-5329500I-15000J0D01*
G01*
X10030500Y-5391500D02*
G75*
G03*
X10030500Y-5391500I-15000J0D01*
G01*
X10030500Y-5459500D02*
G75*
G03*
X10030500Y-5459500I-15000J0D01*
G01*
X10311600Y-8161400D02*
G75*
G03*
X10311600Y-8161400I-15000J0D01*
G01*
X10336000Y-5323000D02*
G75*
G03*
X10336000Y-5323000I-15000J0D01*
G01*
X10336000Y-5390000D02*
G75*
G03*
X10336000Y-5390000I-15000J0D01*
G01*
X10344000Y-11590000D02*
G75*
G03*
X10344000Y-11590000I-15000J0D01*
G01*
X10374600Y-8161400D02*
G75*
G03*
X10374600Y-8161400I-15000J0D01*
G01*
X10377000Y-11769000D02*
G75*
G03*
X10377000Y-11769000I-15000J0D01*
G01*
X10407000Y-11590000D02*
G75*
G03*
X10407000Y-11590000I-15000J0D01*
G01*
X10450000Y-11769000D02*
G75*
G03*
X10450000Y-11769000I-15000J0D01*
G01*
X10482800Y-10482200D02*
G75*
G03*
X10482800Y-10482200I-15000J0D01*
G01*
X10482800Y-10545200D02*
G75*
G03*
X10482800Y-10545200I-15000J0D01*
G01*
X10482800Y-10609200D02*
G75*
G03*
X10482800Y-10609200I-15000J0D01*
G01*
X10924000Y-7188000D02*
G75*
G03*
X10924000Y-7188000I-15000J0D01*
G01*
X10924000Y-7251000D02*
G75*
G03*
X10924000Y-7251000I-15000J0D01*
G01*
X10924000Y-7312000D02*
G75*
G03*
X10924000Y-7312000I-15000J0D01*
G01*
X10969000Y-6217000D02*
G75*
G03*
X10969000Y-6217000I-15000J0D01*
G01*
X10969000Y-6276000D02*
G75*
G03*
X10969000Y-6276000I-15000J0D01*
G01*
X11030000Y-4600000D02*
G75*
G03*
X11030000Y-4600000I-15000J0D01*
G01*
X11066000Y-7387000D02*
G75*
G03*
X11066000Y-7387000I-15000J0D01*
G01*
X11067000Y-7452000D02*
G75*
G03*
X11067000Y-7452000I-15000J0D01*
G01*
X11092000Y-4600000D02*
G75*
G03*
X11092000Y-4600000I-15000J0D01*
G01*
X11153000Y-4600000D02*
G75*
G03*
X11153000Y-4600000I-15000J0D01*
G01*
X11177000Y-13565000D02*
G75*
G03*
X11177000Y-13565000I-15000J0D01*
G01*
X11177700Y-12679700D02*
G75*
G03*
X11177700Y-12679700I-15000J0D01*
G01*
X11208000Y-3683000D02*
G75*
G03*
X11208000Y-3683000I-15000J0D01*
G01*
X11223200Y-12634200D02*
G75*
G03*
X11223200Y-12634200I-15000J0D01*
G01*
X11235000Y-13564000D02*
G75*
G03*
X11235000Y-13564000I-15000J0D01*
G01*
X11268000Y-3874000D02*
G75*
G03*
X11268000Y-3874000I-15000J0D01*
G01*
X11274000Y-3683000D02*
G75*
G03*
X11274000Y-3683000I-15000J0D01*
G01*
X11290000Y-13564000D02*
G75*
G03*
X11290000Y-13564000I-15000J0D01*
G01*
X11327000Y-3874000D02*
G75*
G03*
X11327000Y-3874000I-15000J0D01*
G01*
X11628000Y-3874000D02*
G75*
G03*
X11628000Y-3874000I-15000J0D01*
G01*
X11718000Y-3874000D02*
G75*
G03*
X11718000Y-3874000I-15000J0D01*
G01*
X11744000Y-10655000D02*
G75*
G03*
X11744000Y-10655000I-15000J0D01*
G01*
X11745000Y-10727000D02*
G75*
G03*
X11745000Y-10727000I-15000J0D01*
G01*
X11870500Y-8132500D02*
G75*
G03*
X11870500Y-8132500I-15000J0D01*
G01*
X11920000Y-8182000D02*
G75*
G03*
X11920000Y-8182000I-15000J0D01*
G01*
X11968000Y-8230000D02*
G75*
G03*
X11968000Y-8230000I-15000J0D01*
G01*
X12095600Y-13768400D02*
G75*
G03*
X12095600Y-13768400I-15000J0D01*
G01*
X12168600Y-13768400D02*
G75*
G03*
X12168600Y-13768400I-15000J0D01*
G01*
X12905200Y-11758800D02*
G75*
G03*
X12905200Y-11758800I-15000J0D01*
G01*
X12942000Y-3487000D02*
G75*
G03*
X12942000Y-3487000I-15000J0D01*
G01*
X12955000Y-6200000D02*
G75*
G03*
X12955000Y-6200000I-15000J0D01*
G01*
X12955000Y-6262000D02*
G75*
G03*
X12955000Y-6262000I-15000J0D01*
G01*
X12970200Y-11758800D02*
G75*
G03*
X12970200Y-11758800I-15000J0D01*
G01*
X12974000Y-11952000D02*
G75*
G03*
X12974000Y-11952000I-15000J0D01*
G01*
X13006000Y-3487000D02*
G75*
G03*
X13006000Y-3487000I-15000J0D01*
G01*
X13009000Y-5145000D02*
G75*
G03*
X13009000Y-5145000I-15000J0D01*
G01*
X13033200Y-11758800D02*
G75*
G03*
X13033200Y-11758800I-15000J0D01*
G01*
X13036000Y-11952000D02*
G75*
G03*
X13036000Y-11952000I-15000J0D01*
G01*
X13071000Y-3487000D02*
G75*
G03*
X13071000Y-3487000I-15000J0D01*
G01*
X13073000Y-5145000D02*
G75*
G03*
X13073000Y-5145000I-15000J0D01*
G01*
X13087000Y-5935000D02*
G75*
G03*
X13087000Y-5935000I-15000J0D01*
G01*
X13087000Y-5996000D02*
G75*
G03*
X13087000Y-5996000I-15000J0D01*
G01*
X13215500Y-7227500D02*
G75*
G03*
X13215500Y-7227500I-15000J0D01*
G01*
X13227000Y-7098000D02*
G75*
G03*
X13227000Y-7098000I-15000J0D01*
G01*
X13227000Y-7164000D02*
G75*
G03*
X13227000Y-7164000I-15000J0D01*
G01*
X13312000Y-3569000D02*
G75*
G03*
X13312000Y-3569000I-15000J0D01*
G01*
X13354200Y-7579800D02*
G75*
G03*
X13354200Y-7579800I-15000J0D01*
G01*
X13354200Y-7640800D02*
G75*
G03*
X13354200Y-7640800I-15000J0D01*
G01*
X13379000Y-3569000D02*
G75*
G03*
X13379000Y-3569000I-15000J0D01*
G01*
X13412000Y-5145000D02*
G75*
G03*
X13412000Y-5145000I-15000J0D01*
G01*
X13433000Y-3608000D02*
G75*
G03*
X13433000Y-3608000I-15000J0D01*
G01*
X13452000Y-12692000D02*
G75*
G03*
X13452000Y-12692000I-15000J0D01*
G01*
X13453000Y-12630000D02*
G75*
G03*
X13453000Y-12630000I-15000J0D01*
G01*
X13453000Y-12754000D02*
G75*
G03*
X13453000Y-12754000I-15000J0D01*
G01*
X13473000Y-5145000D02*
G75*
G03*
X13473000Y-5145000I-15000J0D01*
G01*
X13475800Y-9667200D02*
G75*
G03*
X13475800Y-9667200I-15000J0D01*
G01*
X13475800Y-9741200D02*
G75*
G03*
X13475800Y-9741200I-15000J0D01*
G01*
X13475800Y-9808200D02*
G75*
G03*
X13475800Y-9808200I-15000J0D01*
G01*
X13629500Y-7416500D02*
G75*
G03*
X13629500Y-7416500I-15000J0D01*
G01*
X13629500Y-7473500D02*
G75*
G03*
X13629500Y-7473500I-15000J0D01*
G01*
X13629500Y-7538500D02*
G75*
G03*
X13629500Y-7538500I-15000J0D01*
G01*
X13883000Y-10574000D02*
G75*
G03*
X13883000Y-10574000I-15000J0D01*
G01*
X13883000Y-10649000D02*
G75*
G03*
X13883000Y-10649000I-15000J0D01*
G01*
X13883000Y-10720000D02*
G75*
G03*
X13883000Y-10720000I-15000J0D01*
G01*
X13954000Y-7910000D02*
G75*
G03*
X13954000Y-7910000I-15000J0D01*
G01*
X14002000Y-11067000D02*
G75*
G03*
X14002000Y-11067000I-15000J0D01*
G01*
X14002000Y-11128000D02*
G75*
G03*
X14002000Y-11128000I-15000J0D01*
G01*
X14002000Y-11188000D02*
G75*
G03*
X14002000Y-11188000I-15000J0D01*
G01*
X14019000Y-7900000D02*
G75*
G03*
X14019000Y-7900000I-15000J0D01*
G01*
X14066000Y-7853000D02*
G75*
G03*
X14066000Y-7853000I-15000J0D01*
G01*
X14071000Y-4495000D02*
G75*
G03*
X14071000Y-4495000I-15000J0D01*
G01*
X14071000Y-4555000D02*
G75*
G03*
X14071000Y-4555000I-15000J0D01*
G01*
X14071000Y-4617000D02*
G75*
G03*
X14071000Y-4617000I-15000J0D01*
G01*
X14317200Y-11434800D02*
G75*
G03*
X14317200Y-11434800I-15000J0D01*
G01*
X14385200Y-11434800D02*
G75*
G03*
X14385200Y-11434800I-15000J0D01*
G01*
X14392800Y-13828200D02*
G75*
G03*
X14392800Y-13828200I-15000J0D01*
G01*
X14438500Y-5363500D02*
G75*
G03*
X14438500Y-5363500I-15000J0D01*
G01*
X14447200Y-11434800D02*
G75*
G03*
X14447200Y-11434800I-15000J0D01*
G01*
X14481800Y-13828200D02*
G75*
G03*
X14481800Y-13828200I-15000J0D01*
G01*
X14519500Y-5363500D02*
G75*
G03*
X14519500Y-5363500I-15000J0D01*
G01*
X14695800Y-5503200D02*
G75*
G03*
X14695800Y-5503200I-15000J0D01*
G01*
X14701000Y-5446000D02*
G75*
G03*
X14701000Y-5446000I-15000J0D01*
G01*
X14761500Y-5557500D02*
G75*
G03*
X14761500Y-5557500I-15000J0D01*
G01*
X14972000Y-12912000D02*
G75*
G03*
X14972000Y-12912000I-15000J0D01*
G01*
X15037000Y-12912000D02*
G75*
G03*
X15037000Y-12912000I-15000J0D01*
G01*
X15111000Y-12912000D02*
G75*
G03*
X15111000Y-12912000I-15000J0D01*
G01*
X15180000Y-12912000D02*
G75*
G03*
X15180000Y-12912000I-15000J0D01*
G01*
X15246800Y-10550200D02*
G75*
G03*
X15246800Y-10550200I-15000J0D01*
G01*
X15246800Y-10614200D02*
G75*
G03*
X15246800Y-10614200I-15000J0D01*
G01*
X15246800Y-10676200D02*
G75*
G03*
X15246800Y-10676200I-15000J0D01*
G01*
X15260400Y-6444600D02*
G75*
G03*
X15260400Y-6444600I-15000J0D01*
G01*
X15260400Y-6510600D02*
G75*
G03*
X15260400Y-6510600I-15000J0D01*
G01*
X15260400Y-6575600D02*
G75*
G03*
X15260400Y-6575600I-15000J0D01*
G01*
X15484000Y-9970000D02*
G75*
G03*
X15484000Y-9970000I-15000J0D01*
G01*
X15500000Y-12511000D02*
G75*
G03*
X15500000Y-12511000I-15000J0D01*
G01*
X15507500Y-9908500D02*
G75*
G03*
X15507500Y-9908500I-15000J0D01*
G01*
X15542500Y-12553500D02*
G75*
G03*
X15542500Y-12553500I-15000J0D01*
G01*
X15552000Y-9864000D02*
G75*
G03*
X15552000Y-9864000I-15000J0D01*
G01*
X15552500Y-13738500D02*
G75*
G03*
X15552500Y-13738500I-15000J0D01*
G01*
X15593000Y-13779000D02*
G75*
G03*
X15593000Y-13779000I-15000J0D01*
G01*
X15650500Y-13800500D02*
G75*
G03*
X15650500Y-13800500I-15000J0D01*
G01*
X15658600Y-13102600D02*
G75*
G03*
X15658600Y-13102600I-15000J0D01*
G01*
X15658600Y-13173400D02*
G75*
G03*
X15658600Y-13173400I-15000J0D01*
G01*
X15722000Y-11969000D02*
G75*
G03*
X15722000Y-11969000I-15000J0D01*
G01*
X15786000Y-11969000D02*
G75*
G03*
X15786000Y-11969000I-15000J0D01*
G01*
X15846000Y-11969000D02*
G75*
G03*
X15846000Y-11969000I-15000J0D01*
G01*
X15883000Y-11722000D02*
G75*
G03*
X15883000Y-11722000I-15000J0D01*
G01*
X15947000Y-11722000D02*
G75*
G03*
X15947000Y-11722000I-15000J0D01*
G01*
X16479000Y-13821000D02*
G75*
G03*
X16479000Y-13821000I-15000J0D01*
G01*
X16516000Y-6277000D02*
G75*
G03*
X16516000Y-6277000I-15000J0D01*
G01*
X16540000Y-13821000D02*
G75*
G03*
X16540000Y-13821000I-15000J0D01*
G01*
X16596000Y-6312000D02*
G75*
G03*
X16596000Y-6312000I-15000J0D01*
G01*
X16643500Y-6359500D02*
G75*
G03*
X16643500Y-6359500I-15000J0D01*
G01*
X17161500Y-12871500D02*
G75*
G03*
X17161500Y-12871500I-15000J0D01*
G01*
X17209500Y-12823500D02*
G75*
G03*
X17209500Y-12823500I-15000J0D01*
G01*
X17254500Y-12778500D02*
G75*
G03*
X17254500Y-12778500I-15000J0D01*
G01*
X17334500Y-10519500D02*
G75*
G03*
X17334500Y-10519500I-15000J0D01*
G01*
X17353000Y-13562000D02*
G75*
G03*
X17353000Y-13562000I-15000J0D01*
G01*
X17353000Y-13624000D02*
G75*
G03*
X17353000Y-13624000I-15000J0D01*
G01*
X17366000Y-10406000D02*
G75*
G03*
X17366000Y-10406000I-15000J0D01*
G01*
X17366000Y-10469000D02*
G75*
G03*
X17366000Y-10469000I-15000J0D01*
G01*
X17412000Y-10857000D02*
G75*
G03*
X17412000Y-10857000I-15000J0D01*
G01*
X17412000Y-10918000D02*
G75*
G03*
X17412000Y-10918000I-15000J0D01*
G01*
X17838000Y-13549000D02*
G75*
G03*
X17838000Y-13549000I-15000J0D01*
G01*
X17838000Y-13618000D02*
G75*
G03*
X17838000Y-13618000I-15000J0D01*
G01*
X17918000Y-13035000D02*
G75*
G03*
X17918000Y-13035000I-15000J0D01*
G01*
X17991000Y-12949000D02*
G75*
G03*
X17991000Y-12949000I-15000J0D01*
G01*
X17991000Y-13025000D02*
G75*
G03*
X17991000Y-13025000I-15000J0D01*
G01*
X4652000Y-3940000D02*
X4652000Y-3980000D01*
X4632000Y-3960000D02*
X4672000Y-3960000D01*
X4735000Y-3940000D02*
X4735000Y-3980000D01*
X4715000Y-3960000D02*
X4755000Y-3960000D01*
X4846000Y-9633000D02*
X4846000Y-9673000D01*
X4826000Y-9653000D02*
X4866000Y-9653000D01*
X4849000Y-9551000D02*
X4849000Y-9591000D01*
X4829000Y-9571000D02*
X4869000Y-9571000D01*
X4891000Y-8130000D02*
X4891000Y-8170000D01*
X4871000Y-8150000D02*
X4911000Y-8150000D01*
X4968000Y-8130000D02*
X4968000Y-8170000D01*
X4948000Y-8150000D02*
X4988000Y-8150000D01*
X5050500Y-9011500D02*
X5050500Y-9051500D01*
X5030500Y-9031500D02*
X5070500Y-9031500D01*
X5078000Y-8516000D02*
X5078000Y-8556000D01*
X5058000Y-8536000D02*
X5098000Y-8536000D01*
X5083000Y-8405000D02*
X5083000Y-8445000D01*
X5063000Y-8425000D02*
X5103000Y-8425000D01*
X5106000Y-5921000D02*
X5106000Y-5961000D01*
X5086000Y-5941000D02*
X5126000Y-5941000D01*
X5106000Y-6001000D02*
X5106000Y-6041000D01*
X5086000Y-6021000D02*
X5126000Y-6021000D01*
X5131500Y-9011500D02*
X5131500Y-9051500D01*
X5111500Y-9031500D02*
X5151500Y-9031500D01*
X5159000Y-8515000D02*
X5159000Y-8555000D01*
X5139000Y-8535000D02*
X5179000Y-8535000D01*
X5166000Y-8405000D02*
X5166000Y-8445000D01*
X5146000Y-8425000D02*
X5186000Y-8425000D01*
X5248000Y-8618000D02*
X5248000Y-8658000D01*
X5228000Y-8638000D02*
X5268000Y-8638000D01*
X5252000Y-3669000D02*
X5252000Y-3709000D01*
X5232000Y-3689000D02*
X5272000Y-3689000D01*
X5252000Y-3748000D02*
X5252000Y-3788000D01*
X5232000Y-3768000D02*
X5272000Y-3768000D01*
X5290000Y-8738000D02*
X5290000Y-8778000D01*
X5270000Y-8758000D02*
X5310000Y-8758000D01*
X5290000Y-8850000D02*
X5290000Y-8890000D01*
X5270000Y-8870000D02*
X5310000Y-8870000D01*
X5325000Y-8618000D02*
X5325000Y-8658000D01*
X5305000Y-8638000D02*
X5345000Y-8638000D01*
X5527000Y-5967000D02*
X5527000Y-6007000D01*
X5507000Y-5987000D02*
X5547000Y-5987000D01*
X5527000Y-6048000D02*
X5527000Y-6088000D01*
X5507000Y-6068000D02*
X5547000Y-6068000D01*
X5608000Y-4807000D02*
X5608000Y-4847000D01*
X5588000Y-4827000D02*
X5628000Y-4827000D01*
X5623500Y-4727500D02*
X5623500Y-4767500D01*
X5603500Y-4747500D02*
X5643500Y-4747500D01*
X5825000Y-3957000D02*
X5825000Y-3997000D01*
X5805000Y-3977000D02*
X5845000Y-3977000D01*
X5825000Y-4038000D02*
X5825000Y-4078000D01*
X5805000Y-4058000D02*
X5845000Y-4058000D01*
X5944000Y-8011000D02*
X5944000Y-8051000D01*
X5924000Y-8031000D02*
X5964000Y-8031000D01*
X5947000Y-9418000D02*
X5947000Y-9458000D01*
X5927000Y-9438000D02*
X5967000Y-9438000D01*
X6003500Y-9474500D02*
X6003500Y-9514500D01*
X5983500Y-9494500D02*
X6023500Y-9494500D01*
X6457500Y-9363500D02*
X6457500Y-9403500D01*
X6437500Y-9383500D02*
X6477500Y-9383500D01*
X6512000Y-9309000D02*
X6512000Y-9349000D01*
X6492000Y-9329000D02*
X6532000Y-9329000D01*
X6628000Y-5089000D02*
X6628000Y-5129000D01*
X6608000Y-5109000D02*
X6648000Y-5109000D01*
X6722000Y-5089000D02*
X6722000Y-5129000D01*
X6702000Y-5109000D02*
X6742000Y-5109000D01*
X6845000Y-9111000D02*
X6845000Y-9151000D01*
X6825000Y-9131000D02*
X6865000Y-9131000D01*
X6927000Y-9111000D02*
X6927000Y-9151000D01*
X6907000Y-9131000D02*
X6947000Y-9131000D01*
X9347500Y-3789500D02*
X9347500Y-3829500D01*
X9327500Y-3809500D02*
X9367500Y-3809500D01*
X9383000Y-5089000D02*
X9383000Y-5129000D01*
X9363000Y-5109000D02*
X9403000Y-5109000D01*
X9463000Y-5089000D02*
X9463000Y-5129000D01*
X9443000Y-5109000D02*
X9483000Y-5109000D01*
X9470375Y-3829625D02*
X9470375Y-3869625D01*
X9450375Y-3849625D02*
X9490375Y-3849625D01*
X9543000Y-5089000D02*
X9543000Y-5129000D01*
X9523000Y-5109000D02*
X9563000Y-5109000D01*
X9689750Y-3931250D02*
X9689750Y-3971250D01*
X9669750Y-3951250D02*
X9709750Y-3951250D01*
X9876000Y-8970000D02*
X9876000Y-9010000D01*
X9856000Y-8990000D02*
X9896000Y-8990000D01*
X9955000Y-8970000D02*
X9955000Y-9010000D01*
X9935000Y-8990000D02*
X9975000Y-8990000D01*
X10168500Y-11402500D02*
X10168500Y-11442500D01*
X10148500Y-11422500D02*
X10188500Y-11422500D01*
X10238000Y-11352000D02*
X10238000Y-11392000D01*
X10218000Y-11372000D02*
X10258000Y-11372000D01*
X10458000Y-9377000D02*
X10458000Y-9417000D01*
X10438000Y-9397000D02*
X10478000Y-9397000D01*
X10475500Y-9563500D02*
X10475500Y-9603500D01*
X10455500Y-9583500D02*
X10495500Y-9583500D01*
X10531000Y-9377000D02*
X10531000Y-9417000D01*
X10511000Y-9397000D02*
X10551000Y-9397000D01*
X10548500Y-9563500D02*
X10548500Y-9603500D01*
X10528500Y-9583500D02*
X10568500Y-9583500D01*
X10557000Y-9248000D02*
X10557000Y-9288000D01*
X10537000Y-9268000D02*
X10577000Y-9268000D01*
X10636000Y-11033000D02*
X10636000Y-11073000D01*
X10616000Y-11053000D02*
X10656000Y-11053000D01*
X10636000Y-11119000D02*
X10636000Y-11159000D01*
X10616000Y-11139000D02*
X10656000Y-11139000D01*
X10637000Y-9248000D02*
X10637000Y-9288000D01*
X10617000Y-9268000D02*
X10657000Y-9268000D01*
X10660250Y-11536250D02*
X10660250Y-11576250D01*
X10640250Y-11556250D02*
X10680250Y-11556250D01*
X10740500Y-11642500D02*
X10740500Y-11682500D01*
X10720500Y-11662500D02*
X10760500Y-11662500D01*
X10751000Y-10816000D02*
X10751000Y-10856000D01*
X10731000Y-10836000D02*
X10771000Y-10836000D01*
X10816000Y-9840000D02*
X10816000Y-9880000D01*
X10796000Y-9860000D02*
X10836000Y-9860000D01*
X10831000Y-10815000D02*
X10831000Y-10855000D01*
X10811000Y-10835000D02*
X10851000Y-10835000D01*
X10871000Y-9895000D02*
X10871000Y-9935000D01*
X10851000Y-9915000D02*
X10891000Y-9915000D01*
X10891000Y-12014000D02*
X10891000Y-12054000D01*
X10871000Y-12034000D02*
X10911000Y-12034000D01*
X10971000Y-12014000D02*
X10971000Y-12054000D01*
X10951000Y-12034000D02*
X10991000Y-12034000D01*
X10975000Y-11136000D02*
X10975000Y-11176000D01*
X10955000Y-11156000D02*
X10995000Y-11156000D01*
X11017500Y-9874500D02*
X11017500Y-9914500D01*
X10997500Y-9894500D02*
X11037500Y-9894500D01*
X11017500Y-9957500D02*
X11017500Y-9997500D01*
X10997500Y-9977500D02*
X11037500Y-9977500D01*
X11046000Y-12014000D02*
X11046000Y-12054000D01*
X11026000Y-12034000D02*
X11066000Y-12034000D01*
X11051000Y-11078000D02*
X11051000Y-11118000D01*
X11031000Y-11098000D02*
X11071000Y-11098000D01*
X11123000Y-10434000D02*
X11123000Y-10474000D01*
X11103000Y-10454000D02*
X11143000Y-10454000D01*
X11146000Y-9728000D02*
X11146000Y-9768000D01*
X11126000Y-9748000D02*
X11166000Y-9748000D01*
X11188000Y-11240000D02*
X11188000Y-11280000D01*
X11168000Y-11260000D02*
X11208000Y-11260000D01*
X11188000Y-11639000D02*
X11188000Y-11679000D01*
X11168000Y-11659000D02*
X11208000Y-11659000D01*
X11190000Y-10917000D02*
X11190000Y-10957000D01*
X11170000Y-10937000D02*
X11210000Y-10937000D01*
X11205000Y-10431000D02*
X11205000Y-10471000D01*
X11185000Y-10451000D02*
X11225000Y-10451000D01*
X11227000Y-9728000D02*
X11227000Y-9768000D01*
X11207000Y-9748000D02*
X11247000Y-9748000D01*
X11575000Y-11725000D02*
X11575000Y-11765000D01*
X11555000Y-11745000D02*
X11595000Y-11745000D01*
X11646000Y-10998000D02*
X11646000Y-11038000D01*
X11626000Y-11018000D02*
X11666000Y-11018000D01*
X11661000Y-11725000D02*
X11661000Y-11765000D01*
X11641000Y-11745000D02*
X11681000Y-11745000D01*
X11712000Y-11047000D02*
X11712000Y-11087000D01*
X11692000Y-11067000D02*
X11732000Y-11067000D01*
X11803000Y-11509500D02*
X11803000Y-11549500D01*
X11783000Y-11529500D02*
X11823000Y-11529500D01*
X11867000Y-11555000D02*
X11867000Y-11595000D01*
X11847000Y-11575000D02*
X11887000Y-11575000D01*
X11947000Y-11554000D02*
X11947000Y-11594000D01*
X11927000Y-11574000D02*
X11967000Y-11574000D01*
X12063000Y-9882000D02*
X12063000Y-9922000D01*
X12043000Y-9902000D02*
X12083000Y-9902000D01*
X12093000Y-3055000D02*
X12093000Y-3095000D01*
X12073000Y-3075000D02*
X12113000Y-3075000D01*
X12144000Y-9882000D02*
X12144000Y-9922000D01*
X12124000Y-9902000D02*
X12164000Y-9902000D01*
X12176000Y-3055000D02*
X12176000Y-3095000D01*
X12156000Y-3075000D02*
X12196000Y-3075000D01*
X12225000Y-9882000D02*
X12225000Y-9922000D01*
X12205000Y-9902000D02*
X12245000Y-9902000D01*
X6032178Y-3229678D02*
X6032178Y-3194322D01*
X5996822Y-3194322D01*
X5996822Y-3229678D01*
X6032178Y-3229678D01*
X6091489Y-3086489D02*
X6091489Y-3051133D01*
X6056133Y-3051133D01*
X6056133Y-3086489D01*
X6091489Y-3086489D01*
X6091489Y-3372867D02*
X6091489Y-3337511D01*
X6056133Y-3337511D01*
X6056133Y-3372867D01*
X6091489Y-3372867D01*
X6234678Y-3027178D02*
X6234678Y-2991822D01*
X6199322Y-2991822D01*
X6199322Y-3027178D01*
X6234678Y-3027178D01*
X6234678Y-3432178D02*
X6234678Y-3396822D01*
X6199322Y-3396822D01*
X6199322Y-3432178D01*
X6234678Y-3432178D01*
X6377867Y-3086489D02*
X6377867Y-3051133D01*
X6342511Y-3051133D01*
X6342511Y-3086489D01*
X6377867Y-3086489D01*
X6377867Y-3372867D02*
X6377867Y-3337511D01*
X6342511Y-3337511D01*
X6342511Y-3372867D01*
X6377867Y-3372867D01*
X6437178Y-3229678D02*
X6437178Y-3194322D01*
X6401822Y-3194322D01*
X6401822Y-3229678D01*
X6437178Y-3229678D01*
X4245678Y-3286678D02*
X4245678Y-3251322D01*
X4210322Y-3251322D01*
X4210322Y-3286678D01*
X4245678Y-3286678D01*
X4315972Y-3116972D02*
X4315972Y-3081617D01*
X4280617Y-3081617D01*
X4280617Y-3116972D01*
X4315972Y-3116972D01*
X4315972Y-3456383D02*
X4315972Y-3421028D01*
X4280617Y-3421028D01*
X4280617Y-3456383D01*
X4315972Y-3456383D01*
X4485678Y-3046678D02*
X4485678Y-3011322D01*
X4450322Y-3011322D01*
X4450322Y-3046678D01*
X4485678Y-3046678D01*
X4485678Y-3526678D02*
X4485678Y-3491322D01*
X4450322Y-3491322D01*
X4450322Y-3526678D01*
X4485678Y-3526678D01*
X4655383Y-3116972D02*
X4655383Y-3081617D01*
X4620028Y-3081617D01*
X4620028Y-3116972D01*
X4655383Y-3116972D01*
X4655383Y-3456383D02*
X4655383Y-3421028D01*
X4620028Y-3421028D01*
X4620028Y-3456383D01*
X4655383Y-3456383D01*
X4725678Y-3286678D02*
X4725678Y-3251322D01*
X4690322Y-3251322D01*
X4690322Y-3286678D01*
X4725678Y-3286678D01*
X6032178Y-9029678D02*
X6032178Y-8994322D01*
X5996822Y-8994322D01*
X5996822Y-9029678D01*
X6032178Y-9029678D01*
X6091489Y-8886489D02*
X6091489Y-8851133D01*
X6056133Y-8851133D01*
X6056133Y-8886489D01*
X6091489Y-8886489D01*
X6091489Y-9172867D02*
X6091489Y-9137511D01*
X6056133Y-9137511D01*
X6056133Y-9172867D01*
X6091489Y-9172867D01*
X6234678Y-8827178D02*
X6234678Y-8791822D01*
X6199322Y-8791822D01*
X6199322Y-8827178D01*
X6234678Y-8827178D01*
X6234678Y-9232178D02*
X6234678Y-9196822D01*
X6199322Y-9196822D01*
X6199322Y-9232178D01*
X6234678Y-9232178D01*
X6377867Y-8886489D02*
X6377867Y-8851133D01*
X6342511Y-8851133D01*
X6342511Y-8886489D01*
X6377867Y-8886489D01*
X6377867Y-9172867D02*
X6377867Y-9137511D01*
X6342511Y-9137511D01*
X6342511Y-9172867D01*
X6377867Y-9172867D01*
X6437178Y-9029678D02*
X6437178Y-8994322D01*
X6401822Y-8994322D01*
X6401822Y-9029678D01*
X6437178Y-9029678D01*
X4245678Y-14465678D02*
X4245678Y-14430322D01*
X4210322Y-14430322D01*
X4210322Y-14465678D01*
X4245678Y-14465678D01*
X4315972Y-14295972D02*
X4315972Y-14260617D01*
X4280617Y-14260617D01*
X4280617Y-14295972D01*
X4315972Y-14295972D01*
X4315972Y-14635383D02*
X4315972Y-14600028D01*
X4280617Y-14600028D01*
X4280617Y-14635383D01*
X4315972Y-14635383D01*
X4485678Y-14225678D02*
X4485678Y-14190322D01*
X4450322Y-14190322D01*
X4450322Y-14225678D01*
X4485678Y-14225678D01*
X4485678Y-14705678D02*
X4485678Y-14670322D01*
X4450322Y-14670322D01*
X4450322Y-14705678D01*
X4485678Y-14705678D01*
X4655383Y-14295972D02*
X4655383Y-14260617D01*
X4620028Y-14260617D01*
X4620028Y-14295972D01*
X4655383Y-14295972D01*
X4655383Y-14635383D02*
X4655383Y-14600028D01*
X4620028Y-14600028D01*
X4620028Y-14635383D01*
X4655383Y-14635383D01*
X4725678Y-14465678D02*
X4725678Y-14430322D01*
X4690322Y-14430322D01*
X4690322Y-14465678D01*
X4725678Y-14465678D01*
X10932178Y-3229678D02*
X10932178Y-3194322D01*
X10896822Y-3194322D01*
X10896822Y-3229678D01*
X10932178Y-3229678D01*
X10991489Y-3086489D02*
X10991489Y-3051133D01*
X10956133Y-3051133D01*
X10956133Y-3086489D01*
X10991489Y-3086489D01*
X10991489Y-3372867D02*
X10991489Y-3337511D01*
X10956133Y-3337511D01*
X10956133Y-3372867D01*
X10991489Y-3372867D01*
X11134678Y-3027178D02*
X11134678Y-2991822D01*
X11099322Y-2991822D01*
X11099322Y-3027178D01*
X11134678Y-3027178D01*
X11134678Y-3432178D02*
X11134678Y-3396822D01*
X11099322Y-3396822D01*
X11099322Y-3432178D01*
X11134678Y-3432178D01*
X11277867Y-3086489D02*
X11277867Y-3051133D01*
X11242511Y-3051133D01*
X11242511Y-3086489D01*
X11277867Y-3086489D01*
X11277867Y-3372867D02*
X11277867Y-3337511D01*
X11242511Y-3337511D01*
X11242511Y-3372867D01*
X11277867Y-3372867D01*
X11337178Y-3229678D02*
X11337178Y-3194322D01*
X11301822Y-3194322D01*
X11301822Y-3229678D01*
X11337178Y-3229678D01*
X18060678Y-3286678D02*
X18060678Y-3251322D01*
X18025322Y-3251322D01*
X18025322Y-3286678D01*
X18060678Y-3286678D01*
X18130972Y-3116972D02*
X18130972Y-3081617D01*
X18095617Y-3081617D01*
X18095617Y-3116972D01*
X18130972Y-3116972D01*
X18130972Y-3456383D02*
X18130972Y-3421028D01*
X18095617Y-3421028D01*
X18095617Y-3456383D01*
X18130972Y-3456383D01*
X18300678Y-3046678D02*
X18300678Y-3011322D01*
X18265322Y-3011322D01*
X18265322Y-3046678D01*
X18300678Y-3046678D01*
X18300678Y-3526678D02*
X18300678Y-3491322D01*
X18265322Y-3491322D01*
X18265322Y-3526678D01*
X18300678Y-3526678D01*
X18470383Y-3116972D02*
X18470383Y-3081617D01*
X18435028Y-3081617D01*
X18435028Y-3116972D01*
X18470383Y-3116972D01*
X18470383Y-3456383D02*
X18470383Y-3421028D01*
X18435028Y-3421028D01*
X18435028Y-3456383D01*
X18470383Y-3456383D01*
X18540678Y-3286678D02*
X18540678Y-3251322D01*
X18505322Y-3251322D01*
X18505322Y-3286678D01*
X18540678Y-3286678D01*
X18060678Y-14467678D02*
X18060678Y-14432322D01*
X18025322Y-14432322D01*
X18025322Y-14467678D01*
X18060678Y-14467678D01*
X18130972Y-14297972D02*
X18130972Y-14262617D01*
X18095617Y-14262617D01*
X18095617Y-14297972D01*
X18130972Y-14297972D01*
X18130972Y-14637383D02*
X18130972Y-14602028D01*
X18095617Y-14602028D01*
X18095617Y-14637383D01*
X18130972Y-14637383D01*
X18300678Y-14227678D02*
X18300678Y-14192322D01*
X18265322Y-14192322D01*
X18265322Y-14227678D01*
X18300678Y-14227678D01*
X18300678Y-14707678D02*
X18300678Y-14672322D01*
X18265322Y-14672322D01*
X18265322Y-14707678D01*
X18300678Y-14707678D01*
X18470383Y-14297972D02*
X18470383Y-14262617D01*
X18435028Y-14262617D01*
X18435028Y-14297972D01*
X18470383Y-14297972D01*
X18470383Y-14637383D02*
X18470383Y-14602028D01*
X18435028Y-14602028D01*
X18435028Y-14637383D01*
X18470383Y-14637383D01*
X18540678Y-14467678D02*
X18540678Y-14432322D01*
X18505322Y-14432322D01*
X18505322Y-14467678D01*
X18540678Y-14467678D01*
X10932178Y-9029678D02*
X10932178Y-8994322D01*
X10896822Y-8994322D01*
X10896822Y-9029678D01*
X10932178Y-9029678D01*
X10991489Y-8886489D02*
X10991489Y-8851133D01*
X10956133Y-8851133D01*
X10956133Y-8886489D01*
X10991489Y-8886489D01*
X10991489Y-9172867D02*
X10991489Y-9137511D01*
X10956133Y-9137511D01*
X10956133Y-9172867D01*
X10991489Y-9172867D01*
X11134678Y-8827178D02*
X11134678Y-8791822D01*
X11099322Y-8791822D01*
X11099322Y-8827178D01*
X11134678Y-8827178D01*
X11134678Y-9232178D02*
X11134678Y-9196822D01*
X11099322Y-9196822D01*
X11099322Y-9232178D01*
X11134678Y-9232178D01*
X11277867Y-8886489D02*
X11277867Y-8851133D01*
X11242511Y-8851133D01*
X11242511Y-8886489D01*
X11277867Y-8886489D01*
X11277867Y-9172867D02*
X11277867Y-9137511D01*
X11242511Y-9137511D01*
X11242511Y-9172867D01*
X11277867Y-9172867D01*
X11337178Y-9029678D02*
X11337178Y-8994322D01*
X11301822Y-8994322D01*
X11301822Y-9029678D01*
X11337178Y-9029678D01*
X7119000Y-3430000D02*
X7169000Y-3380000D01*
X7119000Y-3330000D01*
X7069000Y-3380000D01*
X7119000Y-3430000D01*
X7619000Y-3430000D02*
X7669000Y-3380000D01*
X7619000Y-3330000D01*
X7569000Y-3380000D01*
X7619000Y-3430000D01*
X6090000Y-3763000D02*
X6140000Y-3713000D01*
X6090000Y-3663000D01*
X6040000Y-3713000D01*
X6090000Y-3763000D01*
X6090000Y-4017000D02*
X6140000Y-3967000D01*
X6090000Y-3917000D01*
X6040000Y-3967000D01*
X6090000Y-4017000D01*
X6090000Y-4271000D02*
X6140000Y-4221000D01*
X6090000Y-4171000D01*
X6040000Y-4221000D01*
X6090000Y-4271000D01*
X6090000Y-4525000D02*
X6140000Y-4475000D01*
X6090000Y-4425000D01*
X6040000Y-4475000D01*
X6090000Y-4525000D01*
X6090000Y-4779000D02*
X6140000Y-4729000D01*
X6090000Y-4679000D01*
X6040000Y-4729000D01*
X6090000Y-4779000D01*
X6090000Y-5033000D02*
X6140000Y-4983000D01*
X6090000Y-4933000D01*
X6040000Y-4983000D01*
X6090000Y-5033000D01*
X6090000Y-5287000D02*
X6140000Y-5237000D01*
X6090000Y-5187000D01*
X6040000Y-5237000D01*
X6090000Y-5287000D01*
X6090000Y-5541000D02*
X6140000Y-5491000D01*
X6090000Y-5441000D01*
X6040000Y-5491000D01*
X6090000Y-5541000D01*
X6090000Y-5795000D02*
X6140000Y-5745000D01*
X6090000Y-5695000D01*
X6040000Y-5745000D01*
X6090000Y-5795000D01*
X6090000Y-6049000D02*
X6140000Y-5999000D01*
X6090000Y-5949000D01*
X6040000Y-5999000D01*
X6090000Y-6049000D01*
X6090000Y-6303000D02*
X6140000Y-6253000D01*
X6090000Y-6203000D01*
X6040000Y-6253000D01*
X6090000Y-6303000D01*
X6090000Y-6557000D02*
X6140000Y-6507000D01*
X6090000Y-6457000D01*
X6040000Y-6507000D01*
X6090000Y-6557000D01*
X6090000Y-6811000D02*
X6140000Y-6761000D01*
X6090000Y-6711000D01*
X6040000Y-6761000D01*
X6090000Y-6811000D01*
X6090000Y-7065000D02*
X6140000Y-7015000D01*
X6090000Y-6965000D01*
X6040000Y-7015000D01*
X6090000Y-7065000D01*
X6090000Y-7319000D02*
X6140000Y-7269000D01*
X6090000Y-7219000D01*
X6040000Y-7269000D01*
X6090000Y-7319000D01*
X6090000Y-7573000D02*
X6140000Y-7523000D01*
X6090000Y-7473000D01*
X6040000Y-7523000D01*
X6090000Y-7573000D01*
X6090000Y-7827000D02*
X6140000Y-7777000D01*
X6090000Y-7727000D01*
X6040000Y-7777000D01*
X6090000Y-7827000D01*
X6090000Y-8081000D02*
X6140000Y-8031000D01*
X6090000Y-7981000D01*
X6040000Y-8031000D01*
X6090000Y-8081000D01*
X6090000Y-8335000D02*
X6140000Y-8285000D01*
X6090000Y-8235000D01*
X6040000Y-8285000D01*
X6090000Y-8335000D01*
X6090000Y-8589000D02*
X6140000Y-8539000D01*
X6090000Y-8489000D01*
X6040000Y-8539000D01*
X6090000Y-8589000D01*
X6344000Y-3763000D02*
X6394000Y-3713000D01*
X6344000Y-3663000D01*
X6294000Y-3713000D01*
X6344000Y-3763000D01*
X6344000Y-4017000D02*
X6394000Y-3967000D01*
X6344000Y-3917000D01*
X6294000Y-3967000D01*
X6344000Y-4017000D01*
X6344000Y-4271000D02*
X6394000Y-4221000D01*
X6344000Y-4171000D01*
X6294000Y-4221000D01*
X6344000Y-4271000D01*
X6344000Y-4525000D02*
X6394000Y-4475000D01*
X6344000Y-4425000D01*
X6294000Y-4475000D01*
X6344000Y-4525000D01*
X6344000Y-4779000D02*
X6394000Y-4729000D01*
X6344000Y-4679000D01*
X6294000Y-4729000D01*
X6344000Y-4779000D01*
X6344000Y-5033000D02*
X6394000Y-4983000D01*
X6344000Y-4933000D01*
X6294000Y-4983000D01*
X6344000Y-5033000D01*
X6344000Y-5287000D02*
X6394000Y-5237000D01*
X6344000Y-5187000D01*
X6294000Y-5237000D01*
X6344000Y-5287000D01*
X6344000Y-5541000D02*
X6394000Y-5491000D01*
X6344000Y-5441000D01*
X6294000Y-5491000D01*
X6344000Y-5541000D01*
X6344000Y-5795000D02*
X6394000Y-5745000D01*
X6344000Y-5695000D01*
X6294000Y-5745000D01*
X6344000Y-5795000D01*
X6344000Y-6049000D02*
X6394000Y-5999000D01*
X6344000Y-5949000D01*
X6294000Y-5999000D01*
X6344000Y-6049000D01*
X6344000Y-6303000D02*
X6394000Y-6253000D01*
X6344000Y-6203000D01*
X6294000Y-6253000D01*
X6344000Y-6303000D01*
X6344000Y-6557000D02*
X6394000Y-6507000D01*
X6344000Y-6457000D01*
X6294000Y-6507000D01*
X6344000Y-6557000D01*
X6344000Y-6811000D02*
X6394000Y-6761000D01*
X6344000Y-6711000D01*
X6294000Y-6761000D01*
X6344000Y-6811000D01*
X6344000Y-7065000D02*
X6394000Y-7015000D01*
X6344000Y-6965000D01*
X6294000Y-7015000D01*
X6344000Y-7065000D01*
X6344000Y-7319000D02*
X6394000Y-7269000D01*
X6344000Y-7219000D01*
X6294000Y-7269000D01*
X6344000Y-7319000D01*
X6344000Y-7573000D02*
X6394000Y-7523000D01*
X6344000Y-7473000D01*
X6294000Y-7523000D01*
X6344000Y-7573000D01*
X6344000Y-7827000D02*
X6394000Y-7777000D01*
X6344000Y-7727000D01*
X6294000Y-7777000D01*
X6344000Y-7827000D01*
X6344000Y-8081000D02*
X6394000Y-8031000D01*
X6344000Y-7981000D01*
X6294000Y-8031000D01*
X6344000Y-8081000D01*
X6344000Y-8335000D02*
X6394000Y-8285000D01*
X6344000Y-8235000D01*
X6294000Y-8285000D01*
X6344000Y-8335000D01*
X6344000Y-8589000D02*
X6394000Y-8539000D01*
X6344000Y-8489000D01*
X6294000Y-8539000D01*
X6344000Y-8589000D01*
X5902600Y-10851200D02*
X5952600Y-10801200D01*
X5902600Y-10751200D01*
X5852600Y-10801200D01*
X5902600Y-10851200D01*
X5902600Y-11351200D02*
X5952600Y-11301200D01*
X5902600Y-11251200D01*
X5852600Y-11301200D01*
X5902600Y-11351200D01*
X4635500Y-4289500D02*
X4750500Y-4404500D01*
X4750500Y-4289500D02*
X4635500Y-4404500D01*
X4750500Y-4347000D02*
G75*
G03*
X4750500Y-4347000I-57500J0D01*
G01*
X4635500Y-4543500D02*
X4750500Y-4658500D01*
X4750500Y-4543500D02*
X4635500Y-4658500D01*
X4750500Y-4601000D02*
G75*
G03*
X4750500Y-4601000I-57500J0D01*
G01*
X4635500Y-4797500D02*
X4750500Y-4912500D01*
X4750500Y-4797500D02*
X4635500Y-4912500D01*
X4750500Y-4855000D02*
G75*
G03*
X4750500Y-4855000I-57500J0D01*
G01*
X4635500Y-5051500D02*
X4750500Y-5166500D01*
X4750500Y-5051500D02*
X4635500Y-5166500D01*
X4750500Y-5109000D02*
G75*
G03*
X4750500Y-5109000I-57500J0D01*
G01*
X4635500Y-5559500D02*
X4750500Y-5674500D01*
X4750500Y-5559500D02*
X4635500Y-5674500D01*
X4750500Y-5617000D02*
G75*
G03*
X4750500Y-5617000I-57500J0D01*
G01*
X5143500Y-4289500D02*
X5258500Y-4404500D01*
X5258500Y-4289500D02*
X5143500Y-4404500D01*
X5258500Y-4347000D02*
G75*
G03*
X5258500Y-4347000I-57500J0D01*
G01*
X5143500Y-4543500D02*
X5258500Y-4658500D01*
X5258500Y-4543500D02*
X5143500Y-4658500D01*
X5258500Y-4601000D02*
G75*
G03*
X5258500Y-4601000I-57500J0D01*
G01*
X5143500Y-4797500D02*
X5258500Y-4912500D01*
X5258500Y-4797500D02*
X5143500Y-4912500D01*
X5258500Y-4855000D02*
G75*
G03*
X5258500Y-4855000I-57500J0D01*
G01*
X5143500Y-5051500D02*
X5258500Y-5166500D01*
X5258500Y-5051500D02*
X5143500Y-5166500D01*
X5258500Y-5109000D02*
G75*
G03*
X5258500Y-5109000I-57500J0D01*
G01*
X5143500Y-5559500D02*
X5258500Y-5674500D01*
X5258500Y-5559500D02*
X5143500Y-5674500D01*
X5258500Y-5617000D02*
G75*
G03*
X5258500Y-5617000I-57500J0D01*
G01*
X9813700Y-5786700D02*
X9928700Y-5901700D01*
X9928700Y-5786700D02*
X9813700Y-5901700D01*
X9928700Y-5844200D02*
G75*
G03*
X9928700Y-5844200I-57500J0D01*
G01*
X9813700Y-6040700D02*
X9928700Y-6155700D01*
X9928700Y-6040700D02*
X9813700Y-6155700D01*
X9928700Y-6098200D02*
G75*
G03*
X9928700Y-6098200I-57500J0D01*
G01*
X9813700Y-6294700D02*
X9928700Y-6409700D01*
X9928700Y-6294700D02*
X9813700Y-6409700D01*
X9928700Y-6352200D02*
G75*
G03*
X9928700Y-6352200I-57500J0D01*
G01*
X9813700Y-6548700D02*
X9928700Y-6663700D01*
X9928700Y-6548700D02*
X9813700Y-6663700D01*
X9928700Y-6606200D02*
G75*
G03*
X9928700Y-6606200I-57500J0D01*
G01*
X9813700Y-7056700D02*
X9928700Y-7171700D01*
X9928700Y-7056700D02*
X9813700Y-7171700D01*
X9928700Y-7114200D02*
G75*
G03*
X9928700Y-7114200I-57500J0D01*
G01*
X10321700Y-5786700D02*
X10436700Y-5901700D01*
X10436700Y-5786700D02*
X10321700Y-5901700D01*
X10436700Y-5844200D02*
G75*
G03*
X10436700Y-5844200I-57500J0D01*
G01*
X10321700Y-6040700D02*
X10436700Y-6155700D01*
X10436700Y-6040700D02*
X10321700Y-6155700D01*
X10436700Y-6098200D02*
G75*
G03*
X10436700Y-6098200I-57500J0D01*
G01*
X10321700Y-6294700D02*
X10436700Y-6409700D01*
X10436700Y-6294700D02*
X10321700Y-6409700D01*
X10436700Y-6352200D02*
G75*
G03*
X10436700Y-6352200I-57500J0D01*
G01*
X10321700Y-6548700D02*
X10436700Y-6663700D01*
X10436700Y-6548700D02*
X10321700Y-6663700D01*
X10436700Y-6606200D02*
G75*
G03*
X10436700Y-6606200I-57500J0D01*
G01*
X10321700Y-7056700D02*
X10436700Y-7171700D01*
X10436700Y-7056700D02*
X10321700Y-7171700D01*
X10436700Y-7114200D02*
G75*
G03*
X10436700Y-7114200I-57500J0D01*
G01*
X9354500Y-12551300D02*
X9469500Y-12666300D01*
X9469500Y-12551300D02*
X9354500Y-12666300D01*
X9469500Y-12608800D02*
G75*
G03*
X9469500Y-12608800I-57500J0D01*
G01*
X9354500Y-13059300D02*
X9469500Y-13174300D01*
X9469500Y-13059300D02*
X9354500Y-13174300D01*
X9469500Y-13116800D02*
G75*
G03*
X9469500Y-13116800I-57500J0D01*
G01*
X9608500Y-12551300D02*
X9723500Y-12666300D01*
X9723500Y-12551300D02*
X9608500Y-12666300D01*
X9723500Y-12608800D02*
G75*
G03*
X9723500Y-12608800I-57500J0D01*
G01*
X9608500Y-13059300D02*
X9723500Y-13174300D01*
X9723500Y-13059300D02*
X9608500Y-13174300D01*
X9723500Y-13116800D02*
G75*
G03*
X9723500Y-13116800I-57500J0D01*
G01*
X9862500Y-12551300D02*
X9977500Y-12666300D01*
X9977500Y-12551300D02*
X9862500Y-12666300D01*
X9977500Y-12608800D02*
G75*
G03*
X9977500Y-12608800I-57500J0D01*
G01*
X9862500Y-13059300D02*
X9977500Y-13174300D01*
X9977500Y-13059300D02*
X9862500Y-13174300D01*
X9977500Y-13116800D02*
G75*
G03*
X9977500Y-13116800I-57500J0D01*
G01*
X10116500Y-12551300D02*
X10231500Y-12666300D01*
X10231500Y-12551300D02*
X10116500Y-12666300D01*
X10231500Y-12608800D02*
G75*
G03*
X10231500Y-12608800I-57500J0D01*
G01*
X10116500Y-13059300D02*
X10231500Y-13174300D01*
X10231500Y-13059300D02*
X10116500Y-13174300D01*
X10231500Y-13116800D02*
G75*
G03*
X10231500Y-13116800I-57500J0D01*
G01*
X10624500Y-12551300D02*
X10739500Y-12666300D01*
X10739500Y-12551300D02*
X10624500Y-12666300D01*
X10739500Y-12608800D02*
G75*
G03*
X10739500Y-12608800I-57500J0D01*
G01*
X10624500Y-13059300D02*
X10739500Y-13174300D01*
X10739500Y-13059300D02*
X10624500Y-13174300D01*
X10739500Y-13116800D02*
G75*
G03*
X10739500Y-13116800I-57500J0D01*
G01*
X4492500Y-6516500D02*
X4607500Y-6631500D01*
X4607500Y-6516500D02*
X4492500Y-6631500D01*
X4607500Y-6574000D02*
G75*
G03*
X4607500Y-6574000I-57500J0D01*
G01*
X4492500Y-6770500D02*
X4607500Y-6885500D01*
X4607500Y-6770500D02*
X4492500Y-6885500D01*
X4607500Y-6828000D02*
G75*
G03*
X4607500Y-6828000I-57500J0D01*
G01*
X4492500Y-7024500D02*
X4607500Y-7139500D01*
X4607500Y-7024500D02*
X4492500Y-7139500D01*
X4607500Y-7082000D02*
G75*
G03*
X4607500Y-7082000I-57500J0D01*
G01*
X4492500Y-7278500D02*
X4607500Y-7393500D01*
X4607500Y-7278500D02*
X4492500Y-7393500D01*
X4607500Y-7336000D02*
G75*
G03*
X4607500Y-7336000I-57500J0D01*
G01*
X4492500Y-7786500D02*
X4607500Y-7901500D01*
X4607500Y-7786500D02*
X4492500Y-7901500D01*
X4607500Y-7844000D02*
G75*
G03*
X4607500Y-7844000I-57500J0D01*
G01*
X5000500Y-6516500D02*
X5115500Y-6631500D01*
X5115500Y-6516500D02*
X5000500Y-6631500D01*
X5115500Y-6574000D02*
G75*
G03*
X5115500Y-6574000I-57500J0D01*
G01*
X5000500Y-6770500D02*
X5115500Y-6885500D01*
X5115500Y-6770500D02*
X5000500Y-6885500D01*
X5115500Y-6828000D02*
G75*
G03*
X5115500Y-6828000I-57500J0D01*
G01*
X5000500Y-7024500D02*
X5115500Y-7139500D01*
X5115500Y-7024500D02*
X5000500Y-7139500D01*
X5115500Y-7082000D02*
G75*
G03*
X5115500Y-7082000I-57500J0D01*
G01*
X5000500Y-7278500D02*
X5115500Y-7393500D01*
X5115500Y-7278500D02*
X5000500Y-7393500D01*
X5115500Y-7336000D02*
G75*
G03*
X5115500Y-7336000I-57500J0D01*
G01*
X5000500Y-7786500D02*
X5115500Y-7901500D01*
X5115500Y-7786500D02*
X5000500Y-7901500D01*
X5115500Y-7844000D02*
G75*
G03*
X5115500Y-7844000I-57500J0D01*
G01*
X13874100Y-12619700D02*
X13989100Y-12734700D01*
X13989100Y-12619700D02*
X13874100Y-12734700D01*
X13989100Y-12677200D02*
G75*
G03*
X13989100Y-12677200I-57500J0D01*
G01*
X13874100Y-13127700D02*
X13989100Y-13242700D01*
X13989100Y-13127700D02*
X13874100Y-13242700D01*
X13989100Y-13185200D02*
G75*
G03*
X13989100Y-13185200I-57500J0D01*
G01*
X14128100Y-12619700D02*
X14243100Y-12734700D01*
X14243100Y-12619700D02*
X14128100Y-12734700D01*
X14243100Y-12677200D02*
G75*
G03*
X14243100Y-12677200I-57500J0D01*
G01*
X14128100Y-13127700D02*
X14243100Y-13242700D01*
X14243100Y-13127700D02*
X14128100Y-13242700D01*
X14243100Y-13185200D02*
G75*
G03*
X14243100Y-13185200I-57500J0D01*
G01*
X14382100Y-12619700D02*
X14497100Y-12734700D01*
X14497100Y-12619700D02*
X14382100Y-12734700D01*
X14497100Y-12677200D02*
G75*
G03*
X14497100Y-12677200I-57500J0D01*
G01*
X14382100Y-13127700D02*
X14497100Y-13242700D01*
X14497100Y-13127700D02*
X14382100Y-13242700D01*
X14497100Y-13185200D02*
G75*
G03*
X14497100Y-13185200I-57500J0D01*
G01*
X14636100Y-12619700D02*
X14751100Y-12734700D01*
X14751100Y-12619700D02*
X14636100Y-12734700D01*
X14751100Y-12677200D02*
G75*
G03*
X14751100Y-12677200I-57500J0D01*
G01*
X14636100Y-13127700D02*
X14751100Y-13242700D01*
X14751100Y-13127700D02*
X14636100Y-13242700D01*
X14751100Y-13185200D02*
G75*
G03*
X14751100Y-13185200I-57500J0D01*
G01*
X15144100Y-12619700D02*
X15259100Y-12734700D01*
X15259100Y-12619700D02*
X15144100Y-12734700D01*
X15259100Y-12677200D02*
G75*
G03*
X15259100Y-12677200I-57500J0D01*
G01*
X15144100Y-13127700D02*
X15259100Y-13242700D01*
X15259100Y-13127700D02*
X15144100Y-13242700D01*
X15259100Y-13185200D02*
G75*
G03*
X15259100Y-13185200I-57500J0D01*
G01*
X4799500Y-12533700D02*
X4914500Y-12648700D01*
X4914500Y-12533700D02*
X4799500Y-12648700D01*
X4914500Y-12591200D02*
G75*
G03*
X4914500Y-12591200I-57500J0D01*
G01*
X4799500Y-13041700D02*
X4914500Y-13156700D01*
X4914500Y-13041700D02*
X4799500Y-13156700D01*
X4914500Y-13099200D02*
G75*
G03*
X4914500Y-13099200I-57500J0D01*
G01*
X5053500Y-12533700D02*
X5168500Y-12648700D01*
X5168500Y-12533700D02*
X5053500Y-12648700D01*
X5168500Y-12591200D02*
G75*
G03*
X5168500Y-12591200I-57500J0D01*
G01*
X5053500Y-13041700D02*
X5168500Y-13156700D01*
X5168500Y-13041700D02*
X5053500Y-13156700D01*
X5168500Y-13099200D02*
G75*
G03*
X5168500Y-13099200I-57500J0D01*
G01*
X5307500Y-12533700D02*
X5422500Y-12648700D01*
X5422500Y-12533700D02*
X5307500Y-12648700D01*
X5422500Y-12591200D02*
G75*
G03*
X5422500Y-12591200I-57500J0D01*
G01*
X5307500Y-13041700D02*
X5422500Y-13156700D01*
X5422500Y-13041700D02*
X5307500Y-13156700D01*
X5422500Y-13099200D02*
G75*
G03*
X5422500Y-13099200I-57500J0D01*
G01*
X5561500Y-12533700D02*
X5676500Y-12648700D01*
X5676500Y-12533700D02*
X5561500Y-12648700D01*
X5676500Y-12591200D02*
G75*
G03*
X5676500Y-12591200I-57500J0D01*
G01*
X5561500Y-13041700D02*
X5676500Y-13156700D01*
X5676500Y-13041700D02*
X5561500Y-13156700D01*
X5676500Y-13099200D02*
G75*
G03*
X5676500Y-13099200I-57500J0D01*
G01*
X6069500Y-12533700D02*
X6184500Y-12648700D01*
X6184500Y-12533700D02*
X6069500Y-12648700D01*
X6184500Y-12591200D02*
G75*
G03*
X6184500Y-12591200I-57500J0D01*
G01*
X6069500Y-13041700D02*
X6184500Y-13156700D01*
X6184500Y-13041700D02*
X6069500Y-13156700D01*
X6184500Y-13099200D02*
G75*
G03*
X6184500Y-13099200I-57500J0D01*
G01*
X12868500Y-4051500D02*
X12983500Y-4166500D01*
X12983500Y-4051500D02*
X12868500Y-4166500D01*
X12983500Y-4109000D02*
G75*
G03*
X12983500Y-4109000I-57500J0D01*
G01*
X12868500Y-4305500D02*
X12983500Y-4420500D01*
X12983500Y-4305500D02*
X12868500Y-4420500D01*
X12983500Y-4363000D02*
G75*
G03*
X12983500Y-4363000I-57500J0D01*
G01*
X12868500Y-4559500D02*
X12983500Y-4674500D01*
X12983500Y-4559500D02*
X12868500Y-4674500D01*
X12983500Y-4617000D02*
G75*
G03*
X12983500Y-4617000I-57500J0D01*
G01*
X12868500Y-4813500D02*
X12983500Y-4928500D01*
X12983500Y-4813500D02*
X12868500Y-4928500D01*
X12983500Y-4871000D02*
G75*
G03*
X12983500Y-4871000I-57500J0D01*
G01*
X12868500Y-5321500D02*
X12983500Y-5436500D01*
X12983500Y-5321500D02*
X12868500Y-5436500D01*
X12983500Y-5379000D02*
G75*
G03*
X12983500Y-5379000I-57500J0D01*
G01*
X13376500Y-4051500D02*
X13491500Y-4166500D01*
X13491500Y-4051500D02*
X13376500Y-4166500D01*
X13491500Y-4109000D02*
G75*
G03*
X13491500Y-4109000I-57500J0D01*
G01*
X13376500Y-4305500D02*
X13491500Y-4420500D01*
X13491500Y-4305500D02*
X13376500Y-4420500D01*
X13491500Y-4363000D02*
G75*
G03*
X13491500Y-4363000I-57500J0D01*
G01*
X13376500Y-4559500D02*
X13491500Y-4674500D01*
X13491500Y-4559500D02*
X13376500Y-4674500D01*
X13491500Y-4617000D02*
G75*
G03*
X13491500Y-4617000I-57500J0D01*
G01*
X13376500Y-4813500D02*
X13491500Y-4928500D01*
X13491500Y-4813500D02*
X13376500Y-4928500D01*
X13491500Y-4871000D02*
G75*
G03*
X13491500Y-4871000I-57500J0D01*
G01*
X13376500Y-5321500D02*
X13491500Y-5436500D01*
X13491500Y-5321500D02*
X13376500Y-5436500D01*
X13491500Y-5379000D02*
G75*
G03*
X13491500Y-5379000I-57500J0D01*
G01*
X11658500Y-12566900D02*
X11773500Y-12681900D01*
X11773500Y-12566900D02*
X11658500Y-12681900D01*
X11773500Y-12624400D02*
G75*
G03*
X11773500Y-12624400I-57500J0D01*
G01*
X11658500Y-13074900D02*
X11773500Y-13189900D01*
X11773500Y-13074900D02*
X11658500Y-13189900D01*
X11773500Y-13132400D02*
G75*
G03*
X11773500Y-13132400I-57500J0D01*
G01*
X11912500Y-12566900D02*
X12027500Y-12681900D01*
X12027500Y-12566900D02*
X11912500Y-12681900D01*
X12027500Y-12624400D02*
G75*
G03*
X12027500Y-12624400I-57500J0D01*
G01*
X11912500Y-13074900D02*
X12027500Y-13189900D01*
X12027500Y-13074900D02*
X11912500Y-13189900D01*
X12027500Y-13132400D02*
G75*
G03*
X12027500Y-13132400I-57500J0D01*
G01*
X12166500Y-12566900D02*
X12281500Y-12681900D01*
X12281500Y-12566900D02*
X12166500Y-12681900D01*
X12281500Y-12624400D02*
G75*
G03*
X12281500Y-12624400I-57500J0D01*
G01*
X12166500Y-13074900D02*
X12281500Y-13189900D01*
X12281500Y-13074900D02*
X12166500Y-13189900D01*
X12281500Y-13132400D02*
G75*
G03*
X12281500Y-13132400I-57500J0D01*
G01*
X12420500Y-12566900D02*
X12535500Y-12681900D01*
X12535500Y-12566900D02*
X12420500Y-12681900D01*
X12535500Y-12624400D02*
G75*
G03*
X12535500Y-12624400I-57500J0D01*
G01*
X12420500Y-13074900D02*
X12535500Y-13189900D01*
X12535500Y-13074900D02*
X12420500Y-13189900D01*
X12535500Y-13132400D02*
G75*
G03*
X12535500Y-13132400I-57500J0D01*
G01*
X12928500Y-12566900D02*
X13043500Y-12681900D01*
X13043500Y-12566900D02*
X12928500Y-12681900D01*
X13043500Y-12624400D02*
G75*
G03*
X13043500Y-12624400I-57500J0D01*
G01*
X12928500Y-13074900D02*
X13043500Y-13189900D01*
X13043500Y-13074900D02*
X12928500Y-13189900D01*
X13043500Y-13132400D02*
G75*
G03*
X13043500Y-13132400I-57500J0D01*
G01*
X14051900Y-5999700D02*
X14166900Y-6114700D01*
X14166900Y-5999700D02*
X14051900Y-6114700D01*
X14166900Y-6057200D02*
G75*
G03*
X14166900Y-6057200I-57500J0D01*
G01*
X14051900Y-6253700D02*
X14166900Y-6368700D01*
X14166900Y-6253700D02*
X14051900Y-6368700D01*
X14166900Y-6311200D02*
G75*
G03*
X14166900Y-6311200I-57500J0D01*
G01*
X14051900Y-6507700D02*
X14166900Y-6622700D01*
X14166900Y-6507700D02*
X14051900Y-6622700D01*
X14166900Y-6565200D02*
G75*
G03*
X14166900Y-6565200I-57500J0D01*
G01*
X14051900Y-6761700D02*
X14166900Y-6876700D01*
X14166900Y-6761700D02*
X14051900Y-6876700D01*
X14166900Y-6819200D02*
G75*
G03*
X14166900Y-6819200I-57500J0D01*
G01*
X14051900Y-7269700D02*
X14166900Y-7384700D01*
X14166900Y-7269700D02*
X14051900Y-7384700D01*
X14166900Y-7327200D02*
G75*
G03*
X14166900Y-7327200I-57500J0D01*
G01*
X14559900Y-5999700D02*
X14674900Y-6114700D01*
X14674900Y-5999700D02*
X14559900Y-6114700D01*
X14674900Y-6057200D02*
G75*
G03*
X14674900Y-6057200I-57500J0D01*
G01*
X14559900Y-6253700D02*
X14674900Y-6368700D01*
X14674900Y-6253700D02*
X14559900Y-6368700D01*
X14674900Y-6311200D02*
G75*
G03*
X14674900Y-6311200I-57500J0D01*
G01*
X14559900Y-6507700D02*
X14674900Y-6622700D01*
X14674900Y-6507700D02*
X14559900Y-6622700D01*
X14674900Y-6565200D02*
G75*
G03*
X14674900Y-6565200I-57500J0D01*
G01*
X14559900Y-6761700D02*
X14674900Y-6876700D01*
X14674900Y-6761700D02*
X14559900Y-6876700D01*
X14674900Y-6819200D02*
G75*
G03*
X14674900Y-6819200I-57500J0D01*
G01*
X14559900Y-7269700D02*
X14674900Y-7384700D01*
X14674900Y-7269700D02*
X14559900Y-7384700D01*
X14674900Y-7327200D02*
G75*
G03*
X14674900Y-7327200I-57500J0D01*
G01*
X9257736Y-9666900D02*
X9372736Y-9781900D01*
X9372736Y-9666900D02*
X9257736Y-9781900D01*
X9372736Y-9724400D02*
G75*
G03*
X9372736Y-9724400I-57500J0D01*
G01*
X9257736Y-10174900D02*
X9372736Y-10289900D01*
X9372736Y-10174900D02*
X9257736Y-10289900D01*
X9372736Y-10232400D02*
G75*
G03*
X9372736Y-10232400I-57500J0D01*
G01*
X9257736Y-10428900D02*
X9372736Y-10543900D01*
X9372736Y-10428900D02*
X9257736Y-10543900D01*
X9372736Y-10486400D02*
G75*
G03*
X9372736Y-10486400I-57500J0D01*
G01*
X9257736Y-10682900D02*
X9372736Y-10797900D01*
X9372736Y-10682900D02*
X9257736Y-10797900D01*
X9372736Y-10740400D02*
G75*
G03*
X9372736Y-10740400I-57500J0D01*
G01*
X9257736Y-10936900D02*
X9372736Y-11051900D01*
X9372736Y-10936900D02*
X9257736Y-11051900D01*
X9372736Y-10994400D02*
G75*
G03*
X9372736Y-10994400I-57500J0D01*
G01*
X9765736Y-9666900D02*
X9880736Y-9781900D01*
X9880736Y-9666900D02*
X9765736Y-9781900D01*
X9880736Y-9724400D02*
G75*
G03*
X9880736Y-9724400I-57500J0D01*
G01*
X9765736Y-10174900D02*
X9880736Y-10289900D01*
X9880736Y-10174900D02*
X9765736Y-10289900D01*
X9880736Y-10232400D02*
G75*
G03*
X9880736Y-10232400I-57500J0D01*
G01*
X9765736Y-10428900D02*
X9880736Y-10543900D01*
X9880736Y-10428900D02*
X9765736Y-10543900D01*
X9880736Y-10486400D02*
G75*
G03*
X9880736Y-10486400I-57500J0D01*
G01*
X9765736Y-10682900D02*
X9880736Y-10797900D01*
X9880736Y-10682900D02*
X9765736Y-10797900D01*
X9880736Y-10740400D02*
G75*
G03*
X9880736Y-10740400I-57500J0D01*
G01*
X9765736Y-10936900D02*
X9880736Y-11051900D01*
X9880736Y-10936900D02*
X9765736Y-11051900D01*
X9880736Y-10994400D02*
G75*
G03*
X9880736Y-10994400I-57500J0D01*
G01*
X16018500Y-6848500D02*
X16133500Y-6963500D01*
X16133500Y-6848500D02*
X16018500Y-6963500D01*
X16133500Y-6906000D02*
G75*
G03*
X16133500Y-6906000I-57500J0D01*
G01*
X16018500Y-7102500D02*
X16133500Y-7217500D01*
X16133500Y-7102500D02*
X16018500Y-7217500D01*
X16133500Y-7160000D02*
G75*
G03*
X16133500Y-7160000I-57500J0D01*
G01*
X16018500Y-7356500D02*
X16133500Y-7471500D01*
X16133500Y-7356500D02*
X16018500Y-7471500D01*
X16133500Y-7414000D02*
G75*
G03*
X16133500Y-7414000I-57500J0D01*
G01*
X16018500Y-7610500D02*
X16133500Y-7725500D01*
X16133500Y-7610500D02*
X16018500Y-7725500D01*
X16133500Y-7668000D02*
G75*
G03*
X16133500Y-7668000I-57500J0D01*
G01*
X16018500Y-8118500D02*
X16133500Y-8233500D01*
X16133500Y-8118500D02*
X16018500Y-8233500D01*
X16133500Y-8176000D02*
G75*
G03*
X16133500Y-8176000I-57500J0D01*
G01*
X16526500Y-6848500D02*
X16641500Y-6963500D01*
X16641500Y-6848500D02*
X16526500Y-6963500D01*
X16641500Y-6906000D02*
G75*
G03*
X16641500Y-6906000I-57500J0D01*
G01*
X16526500Y-7102500D02*
X16641500Y-7217500D01*
X16641500Y-7102500D02*
X16526500Y-7217500D01*
X16641500Y-7160000D02*
G75*
G03*
X16641500Y-7160000I-57500J0D01*
G01*
X16526500Y-7356500D02*
X16641500Y-7471500D01*
X16641500Y-7356500D02*
X16526500Y-7471500D01*
X16641500Y-7414000D02*
G75*
G03*
X16641500Y-7414000I-57500J0D01*
G01*
X16526500Y-7610500D02*
X16641500Y-7725500D01*
X16641500Y-7610500D02*
X16526500Y-7725500D01*
X16641500Y-7668000D02*
G75*
G03*
X16641500Y-7668000I-57500J0D01*
G01*
X16526500Y-8118500D02*
X16641500Y-8233500D01*
X16641500Y-8118500D02*
X16526500Y-8233500D01*
X16641500Y-8176000D02*
G75*
G03*
X16641500Y-8176000I-57500J0D01*
G01*
X15634900Y-10368700D02*
X15749900Y-10483700D01*
X15749900Y-10368700D02*
X15634900Y-10483700D01*
X15749900Y-10426200D02*
G75*
G03*
X15749900Y-10426200I-57500J0D01*
G01*
X15634900Y-10876700D02*
X15749900Y-10991700D01*
X15749900Y-10876700D02*
X15634900Y-10991700D01*
X15749900Y-10934200D02*
G75*
G03*
X15749900Y-10934200I-57500J0D01*
G01*
X16142900Y-10368700D02*
X16257900Y-10483700D01*
X16257900Y-10368700D02*
X16142900Y-10483700D01*
X16257900Y-10426200D02*
G75*
G03*
X16257900Y-10426200I-57500J0D01*
G01*
X16142900Y-10876700D02*
X16257900Y-10991700D01*
X16257900Y-10876700D02*
X16142900Y-10991700D01*
X16257900Y-10934200D02*
G75*
G03*
X16257900Y-10934200I-57500J0D01*
G01*
X16396900Y-10368700D02*
X16511900Y-10483700D01*
X16511900Y-10368700D02*
X16396900Y-10483700D01*
X16511900Y-10426200D02*
G75*
G03*
X16511900Y-10426200I-57500J0D01*
G01*
X16396900Y-10876700D02*
X16511900Y-10991700D01*
X16511900Y-10876700D02*
X16396900Y-10991700D01*
X16511900Y-10934200D02*
G75*
G03*
X16511900Y-10934200I-57500J0D01*
G01*
X16650900Y-10368700D02*
X16765900Y-10483700D01*
X16765900Y-10368700D02*
X16650900Y-10483700D01*
X16765900Y-10426200D02*
G75*
G03*
X16765900Y-10426200I-57500J0D01*
G01*
X16650900Y-10876700D02*
X16765900Y-10991700D01*
X16765900Y-10876700D02*
X16650900Y-10991700D01*
X16765900Y-10934200D02*
G75*
G03*
X16765900Y-10934200I-57500J0D01*
G01*
X16904900Y-10368700D02*
X17019900Y-10483700D01*
X17019900Y-10368700D02*
X16904900Y-10483700D01*
X17019900Y-10426200D02*
G75*
G03*
X17019900Y-10426200I-57500J0D01*
G01*
X16904900Y-10876700D02*
X17019900Y-10991700D01*
X17019900Y-10876700D02*
X16904900Y-10991700D01*
X17019900Y-10934200D02*
G75*
G03*
X17019900Y-10934200I-57500J0D01*
G01*
X12088300Y-10552300D02*
X12203300Y-10667300D01*
X12203300Y-10552300D02*
X12088300Y-10667300D01*
X12203300Y-10609800D02*
G75*
G03*
X12203300Y-10609800I-57500J0D01*
G01*
X12088300Y-11060300D02*
X12203300Y-11175300D01*
X12203300Y-11060300D02*
X12088300Y-11175300D01*
X12203300Y-11117800D02*
G75*
G03*
X12203300Y-11117800I-57500J0D01*
G01*
X12596300Y-10552300D02*
X12711300Y-10667300D01*
X12711300Y-10552300D02*
X12596300Y-10667300D01*
X12711300Y-10609800D02*
G75*
G03*
X12711300Y-10609800I-57500J0D01*
G01*
X12596300Y-11060300D02*
X12711300Y-11175300D01*
X12711300Y-11060300D02*
X12596300Y-11175300D01*
X12711300Y-11117800D02*
G75*
G03*
X12711300Y-11117800I-57500J0D01*
G01*
X12850300Y-10552300D02*
X12965300Y-10667300D01*
X12965300Y-10552300D02*
X12850300Y-10667300D01*
X12965300Y-10609800D02*
G75*
G03*
X12965300Y-10609800I-57500J0D01*
G01*
X12850300Y-11060300D02*
X12965300Y-11175300D01*
X12965300Y-11060300D02*
X12850300Y-11175300D01*
X12965300Y-11117800D02*
G75*
G03*
X12965300Y-11117800I-57500J0D01*
G01*
X13104300Y-10552300D02*
X13219300Y-10667300D01*
X13219300Y-10552300D02*
X13104300Y-10667300D01*
X13219300Y-10609800D02*
G75*
G03*
X13219300Y-10609800I-57500J0D01*
G01*
X13104300Y-11060300D02*
X13219300Y-11175300D01*
X13219300Y-11060300D02*
X13104300Y-11175300D01*
X13219300Y-11117800D02*
G75*
G03*
X13219300Y-11117800I-57500J0D01*
G01*
X13358300Y-10552300D02*
X13473300Y-10667300D01*
X13473300Y-10552300D02*
X13358300Y-10667300D01*
X13473300Y-10609800D02*
G75*
G03*
X13473300Y-10609800I-57500J0D01*
G01*
X13358300Y-11060300D02*
X13473300Y-11175300D01*
X13473300Y-11060300D02*
X13358300Y-11175300D01*
X13473300Y-11117800D02*
G75*
G03*
X13473300Y-11117800I-57500J0D01*
G01*
X16025500Y-12607500D02*
X16140500Y-12722500D01*
X16140500Y-12607500D02*
X16025500Y-12722500D01*
X16140500Y-12665000D02*
G75*
G03*
X16140500Y-12665000I-57500J0D01*
G01*
X16025500Y-13115500D02*
X16140500Y-13230500D01*
X16140500Y-13115500D02*
X16025500Y-13230500D01*
X16140500Y-13173000D02*
G75*
G03*
X16140500Y-13173000I-57500J0D01*
G01*
X16279500Y-12607500D02*
X16394500Y-12722500D01*
X16394500Y-12607500D02*
X16279500Y-12722500D01*
X16394500Y-12665000D02*
G75*
G03*
X16394500Y-12665000I-57500J0D01*
G01*
X16279500Y-13115500D02*
X16394500Y-13230500D01*
X16394500Y-13115500D02*
X16279500Y-13230500D01*
X16394500Y-13173000D02*
G75*
G03*
X16394500Y-13173000I-57500J0D01*
G01*
X16533500Y-12607500D02*
X16648500Y-12722500D01*
X16648500Y-12607500D02*
X16533500Y-12722500D01*
X16648500Y-12665000D02*
G75*
G03*
X16648500Y-12665000I-57500J0D01*
G01*
X16533500Y-13115500D02*
X16648500Y-13230500D01*
X16648500Y-13115500D02*
X16533500Y-13230500D01*
X16648500Y-13173000D02*
G75*
G03*
X16648500Y-13173000I-57500J0D01*
G01*
X16787500Y-12607500D02*
X16902500Y-12722500D01*
X16902500Y-12607500D02*
X16787500Y-12722500D01*
X16902500Y-12665000D02*
G75*
G03*
X16902500Y-12665000I-57500J0D01*
G01*
X16787500Y-13115500D02*
X16902500Y-13230500D01*
X16902500Y-13115500D02*
X16787500Y-13230500D01*
X16902500Y-13173000D02*
G75*
G03*
X16902500Y-13173000I-57500J0D01*
G01*
X17295500Y-12607500D02*
X17410500Y-12722500D01*
X17410500Y-12607500D02*
X17295500Y-12722500D01*
X17410500Y-12665000D02*
G75*
G03*
X17410500Y-12665000I-57500J0D01*
G01*
X17295500Y-13115500D02*
X17410500Y-13230500D01*
X17410500Y-13115500D02*
X17295500Y-13230500D01*
X17410500Y-13173000D02*
G75*
G03*
X17410500Y-13173000I-57500J0D01*
G01*
X11551500Y-7090500D02*
X11666500Y-7205500D01*
X11666500Y-7090500D02*
X11551500Y-7205500D01*
X11666500Y-7148000D02*
G75*
G03*
X11666500Y-7148000I-57500J0D01*
G01*
X11551500Y-7598500D02*
X11666500Y-7713500D01*
X11666500Y-7598500D02*
X11551500Y-7713500D01*
X11666500Y-7656000D02*
G75*
G03*
X11666500Y-7656000I-57500J0D01*
G01*
X12059500Y-7090500D02*
X12174500Y-7205500D01*
X12174500Y-7090500D02*
X12059500Y-7205500D01*
X12174500Y-7148000D02*
G75*
G03*
X12174500Y-7148000I-57500J0D01*
G01*
X12059500Y-7598500D02*
X12174500Y-7713500D01*
X12174500Y-7598500D02*
X12059500Y-7713500D01*
X12174500Y-7656000D02*
G75*
G03*
X12174500Y-7656000I-57500J0D01*
G01*
X12313500Y-7090500D02*
X12428500Y-7205500D01*
X12428500Y-7090500D02*
X12313500Y-7205500D01*
X12428500Y-7148000D02*
G75*
G03*
X12428500Y-7148000I-57500J0D01*
G01*
X12313500Y-7598500D02*
X12428500Y-7713500D01*
X12428500Y-7598500D02*
X12313500Y-7713500D01*
X12428500Y-7656000D02*
G75*
G03*
X12428500Y-7656000I-57500J0D01*
G01*
X12567500Y-7090500D02*
X12682500Y-7205500D01*
X12682500Y-7090500D02*
X12567500Y-7205500D01*
X12682500Y-7148000D02*
G75*
G03*
X12682500Y-7148000I-57500J0D01*
G01*
X12567500Y-7598500D02*
X12682500Y-7713500D01*
X12682500Y-7598500D02*
X12567500Y-7713500D01*
X12682500Y-7656000D02*
G75*
G03*
X12682500Y-7656000I-57500J0D01*
G01*
X12821500Y-7090500D02*
X12936500Y-7205500D01*
X12936500Y-7090500D02*
X12821500Y-7205500D01*
X12936500Y-7148000D02*
G75*
G03*
X12936500Y-7148000I-57500J0D01*
G01*
X12821500Y-7598500D02*
X12936500Y-7713500D01*
X12936500Y-7598500D02*
X12821500Y-7713500D01*
X12936500Y-7656000D02*
G75*
G03*
X12936500Y-7656000I-57500J0D01*
G01*
X7132500Y-12522500D02*
X7247500Y-12637500D01*
X7247500Y-12522500D02*
X7132500Y-12637500D01*
X7247500Y-12580000D02*
G75*
G03*
X7247500Y-12580000I-57500J0D01*
G01*
X7132500Y-13030500D02*
X7247500Y-13145500D01*
X7247500Y-13030500D02*
X7132500Y-13145500D01*
X7247500Y-13088000D02*
G75*
G03*
X7247500Y-13088000I-57500J0D01*
G01*
X7386500Y-12522500D02*
X7501500Y-12637500D01*
X7501500Y-12522500D02*
X7386500Y-12637500D01*
X7501500Y-12580000D02*
G75*
G03*
X7501500Y-12580000I-57500J0D01*
G01*
X7386500Y-13030500D02*
X7501500Y-13145500D01*
X7501500Y-13030500D02*
X7386500Y-13145500D01*
X7501500Y-13088000D02*
G75*
G03*
X7501500Y-13088000I-57500J0D01*
G01*
X7640500Y-12522500D02*
X7755500Y-12637500D01*
X7755500Y-12522500D02*
X7640500Y-12637500D01*
X7755500Y-12580000D02*
G75*
G03*
X7755500Y-12580000I-57500J0D01*
G01*
X7640500Y-13030500D02*
X7755500Y-13145500D01*
X7755500Y-13030500D02*
X7640500Y-13145500D01*
X7755500Y-13088000D02*
G75*
G03*
X7755500Y-13088000I-57500J0D01*
G01*
X7894500Y-12522500D02*
X8009500Y-12637500D01*
X8009500Y-12522500D02*
X7894500Y-12637500D01*
X8009500Y-12580000D02*
G75*
G03*
X8009500Y-12580000I-57500J0D01*
G01*
X7894500Y-13030500D02*
X8009500Y-13145500D01*
X8009500Y-13030500D02*
X7894500Y-13145500D01*
X8009500Y-13088000D02*
G75*
G03*
X8009500Y-13088000I-57500J0D01*
G01*
X8402500Y-12522500D02*
X8517500Y-12637500D01*
X8517500Y-12522500D02*
X8402500Y-12637500D01*
X8517500Y-12580000D02*
G75*
G03*
X8517500Y-12580000I-57500J0D01*
G01*
X8402500Y-13030500D02*
X8517500Y-13145500D01*
X8517500Y-13030500D02*
X8402500Y-13145500D01*
X8517500Y-13088000D02*
G75*
G03*
X8517500Y-13088000I-57500J0D01*
G01*
X7323500Y-6552936D02*
X7438500Y-6667936D01*
X7438500Y-6552936D02*
X7323500Y-6667936D01*
X7438500Y-6610436D02*
G75*
G03*
X7438500Y-6610436I-57500J0D01*
G01*
X7323500Y-7060936D02*
X7438500Y-7175936D01*
X7438500Y-7060936D02*
X7323500Y-7175936D01*
X7438500Y-7118436D02*
G75*
G03*
X7438500Y-7118436I-57500J0D01*
G01*
X7577500Y-6552936D02*
X7692500Y-6667936D01*
X7692500Y-6552936D02*
X7577500Y-6667936D01*
X7692500Y-6610436D02*
G75*
G03*
X7692500Y-6610436I-57500J0D01*
G01*
X7577500Y-7060936D02*
X7692500Y-7175936D01*
X7692500Y-7060936D02*
X7577500Y-7175936D01*
X7692500Y-7118436D02*
G75*
G03*
X7692500Y-7118436I-57500J0D01*
G01*
X7831500Y-6552936D02*
X7946500Y-6667936D01*
X7946500Y-6552936D02*
X7831500Y-6667936D01*
X7946500Y-6610436D02*
G75*
G03*
X7946500Y-6610436I-57500J0D01*
G01*
X7831500Y-7060936D02*
X7946500Y-7175936D01*
X7946500Y-7060936D02*
X7831500Y-7175936D01*
X7946500Y-7118436D02*
G75*
G03*
X7946500Y-7118436I-57500J0D01*
G01*
X8085500Y-6552936D02*
X8200500Y-6667936D01*
X8200500Y-6552936D02*
X8085500Y-6667936D01*
X8200500Y-6610436D02*
G75*
G03*
X8200500Y-6610436I-57500J0D01*
G01*
X8085500Y-7060936D02*
X8200500Y-7175936D01*
X8200500Y-7060936D02*
X8085500Y-7175936D01*
X8200500Y-7118436D02*
G75*
G03*
X8200500Y-7118436I-57500J0D01*
G01*
X8593500Y-6552936D02*
X8708500Y-6667936D01*
X8708500Y-6552936D02*
X8593500Y-6667936D01*
X8708500Y-6610436D02*
G75*
G03*
X8708500Y-6610436I-57500J0D01*
G01*
X8593500Y-7060936D02*
X8708500Y-7175936D01*
X8708500Y-7060936D02*
X8593500Y-7175936D01*
X8708500Y-7118436D02*
G75*
G03*
X8708500Y-7118436I-57500J0D01*
G01*
X7879000Y-5283000D02*
X7999000Y-5403000D01*
X7999000Y-5283000D02*
X7879000Y-5403000D01*
X7939000Y-5283000D02*
X7939000Y-5403000D01*
X7879000Y-5343000D02*
X7999000Y-5343000D01*
X8379000Y-5283000D02*
X8499000Y-5403000D01*
X8499000Y-5283000D02*
X8379000Y-5403000D01*
X8439000Y-5283000D02*
X8439000Y-5403000D01*
X8379000Y-5343000D02*
X8499000Y-5343000D01*
X12757000Y-9355000D02*
X12907000Y-9505000D01*
X12907000Y-9355000D02*
X12757000Y-9505000D01*
X12885033Y-9483034D02*
X12885033Y-9376967D01*
X12778966Y-9376967D01*
X12778966Y-9483034D01*
X12885033Y-9483034D01*
X12061000Y-8655000D02*
X12211000Y-8805000D01*
X12211000Y-8655000D02*
X12061000Y-8805000D01*
X12189033Y-8783034D02*
X12189033Y-8676967D01*
X12082966Y-8676967D01*
X12082966Y-8783034D01*
X12189033Y-8783034D01*
X15845400Y-8619600D02*
X15995400Y-8769600D01*
X15995400Y-8619600D02*
X15845400Y-8769600D01*
X15973433Y-8747634D02*
X15973433Y-8641567D01*
X15867366Y-8641567D01*
X15867366Y-8747634D01*
X15973433Y-8747634D01*
X10646000Y-13800000D02*
X10796000Y-13950000D01*
X10796000Y-13800000D02*
X10646000Y-13950000D01*
X10774034Y-13928033D02*
X10774034Y-13821966D01*
X10667967Y-13821966D01*
X10667967Y-13928033D01*
X10774034Y-13928033D01*
X7883000Y-8681000D02*
X8033000Y-8831000D01*
X8033000Y-8681000D02*
X7883000Y-8831000D01*
X8011033Y-8809034D02*
X8011033Y-8702967D01*
X7904966Y-8702967D01*
X7904966Y-8809034D01*
X8011033Y-8809034D01*
X13788000Y-8645000D02*
X13938000Y-8795000D01*
X13938000Y-8645000D02*
X13788000Y-8795000D01*
X13916033Y-8773034D02*
X13916033Y-8666967D01*
X13809966Y-8666967D01*
X13809966Y-8773034D01*
X13916033Y-8773034D01*
X12754000Y-8655000D02*
X12904000Y-8805000D01*
X12904000Y-8655000D02*
X12754000Y-8805000D01*
X12882033Y-8783034D02*
X12882033Y-8676967D01*
X12775966Y-8676967D01*
X12775966Y-8783034D01*
X12882033Y-8783034D01*
X11587000Y-5824000D02*
X11737000Y-5974000D01*
X11737000Y-5824000D02*
X11587000Y-5974000D01*
X11715033Y-5952033D02*
X11715033Y-5845966D01*
X11608966Y-5845966D01*
X11608966Y-5952033D01*
X11715033Y-5952033D01*
X15190000Y-13923000D02*
X15340000Y-14073000D01*
X15340000Y-13923000D02*
X15190000Y-14073000D01*
X15318033Y-14051033D02*
X15318033Y-13944966D01*
X15211966Y-13944966D01*
X15211966Y-14051033D01*
X15318033Y-14051033D01*
X15134200Y-8645000D02*
X15284200Y-8795000D01*
X15284200Y-8645000D02*
X15134200Y-8795000D01*
X15262233Y-8773034D02*
X15262233Y-8666967D01*
X15156166Y-8666967D01*
X15156166Y-8773034D01*
X15262233Y-8773034D01*
X7882800Y-9468600D02*
X8032800Y-9618600D01*
X8032800Y-9468600D02*
X7882800Y-9618600D01*
X8010833Y-9596634D02*
X8010833Y-9490567D01*
X7904766Y-9490567D01*
X7904766Y-9596634D01*
X8010833Y-9596634D01*
X8568600Y-8681200D02*
X8718600Y-8831200D01*
X8718600Y-8681200D02*
X8568600Y-8831200D01*
X8696634Y-8809234D02*
X8696634Y-8703167D01*
X8590567Y-8703167D01*
X8590567Y-8809234D01*
X8696634Y-8809234D01*
X5512000Y-13798000D02*
X5662000Y-13948000D01*
X5662000Y-13798000D02*
X5512000Y-13948000D01*
X5640033Y-13926033D02*
X5640033Y-13819966D01*
X5533967Y-13819966D01*
X5533967Y-13926033D01*
X5640033Y-13926033D01*
X7883000Y-7925000D02*
X8033000Y-8075000D01*
X8033000Y-7925000D02*
X7883000Y-8075000D01*
X8011033Y-8053033D02*
X8011033Y-7946966D01*
X7904966Y-7946966D01*
X7904966Y-8053033D01*
X8011033Y-8053033D01*
X16218000Y-4851000D02*
X16368000Y-5001000D01*
X16368000Y-4851000D02*
X16218000Y-5001000D01*
X16346033Y-4979034D02*
X16346033Y-4872967D01*
X16239966Y-4872967D01*
X16239966Y-4979034D01*
X16346033Y-4979034D01*
X9254400Y-8681200D02*
X9404400Y-8831200D01*
X9404400Y-8681200D02*
X9254400Y-8831200D01*
X9382434Y-8809234D02*
X9382434Y-8703167D01*
X9276367Y-8703167D01*
X9276367Y-8809234D01*
X9382434Y-8809234D01*
X10381000Y-4049000D02*
X10531000Y-4199000D01*
X10531000Y-4049000D02*
X10381000Y-4199000D01*
X10509034Y-4177033D02*
X10509034Y-4070966D01*
X10402967Y-4070966D01*
X10402967Y-4177033D01*
X10509034Y-4177033D01*
X14700000Y-4891000D02*
X14850000Y-5041000D01*
X14850000Y-4891000D02*
X14700000Y-5041000D01*
X14828033Y-5019034D02*
X14828033Y-4912967D01*
X14721966Y-4912967D01*
X14721966Y-5019034D01*
X14828033Y-5019034D01*
X16830000Y-13848000D02*
X16980000Y-13998000D01*
X16980000Y-13848000D02*
X16830000Y-13998000D01*
X16958034Y-13976033D02*
X16958034Y-13869966D01*
X16851967Y-13869966D01*
X16851967Y-13976033D01*
X16958034Y-13976033D01*
X16582000Y-8619600D02*
X16732000Y-8769600D01*
X16732000Y-8619600D02*
X16582000Y-8769600D01*
X16710033Y-8747634D02*
X16710033Y-8641567D01*
X16603966Y-8641567D01*
X16603966Y-8747634D01*
X16710033Y-8747634D01*
X11497000Y-8653000D02*
X11647000Y-8803000D01*
X11647000Y-8653000D02*
X11497000Y-8803000D01*
X11625033Y-8781034D02*
X11625033Y-8674967D01*
X11518966Y-8674967D01*
X11518966Y-8781034D01*
X11625033Y-8781034D01*
X6943000Y-9468600D02*
X7093000Y-9618600D01*
X7093000Y-9468600D02*
X6943000Y-9618600D01*
X7071033Y-9596634D02*
X7071033Y-9490567D01*
X6964966Y-9490567D01*
X6964966Y-9596634D01*
X7071033Y-9596634D01*
X6020000Y-13779000D02*
X6170000Y-13929000D01*
X6170000Y-13779000D02*
X6020000Y-13929000D01*
X6148033Y-13907033D02*
X6148033Y-13800966D01*
X6041966Y-13800966D01*
X6041966Y-13907033D01*
X6148033Y-13907033D01*
X7798000Y-13799000D02*
X7948000Y-13949000D01*
X7948000Y-13799000D02*
X7798000Y-13949000D01*
X7926033Y-13927033D02*
X7926033Y-13820966D01*
X7819966Y-13820966D01*
X7819966Y-13927033D01*
X7926033Y-13927033D01*
X14904000Y-9325000D02*
X15054000Y-9475000D01*
X15054000Y-9325000D02*
X14904000Y-9475000D01*
X15032033Y-9453034D02*
X15032033Y-9346967D01*
X14925966Y-9346967D01*
X14925966Y-9453034D01*
X15032033Y-9453034D01*
X9991000Y-8655000D02*
X10141000Y-8805000D01*
X10141000Y-8655000D02*
X9991000Y-8805000D01*
X10119034Y-8783034D02*
X10119034Y-8676967D01*
X10012967Y-8676967D01*
X10012967Y-8783034D01*
X10119034Y-8783034D01*
X12057000Y-9355000D02*
X12207000Y-9505000D01*
X12207000Y-9355000D02*
X12057000Y-9505000D01*
X12185033Y-9483034D02*
X12185033Y-9376967D01*
X12078966Y-9376967D01*
X12078966Y-9483034D01*
X12185033Y-9483034D01*
X14617000Y-13931000D02*
X14767000Y-14081000D01*
X14767000Y-13931000D02*
X14617000Y-14081000D01*
X14745033Y-14059033D02*
X14745033Y-13952966D01*
X14638966Y-13952966D01*
X14638966Y-14059033D01*
X14745033Y-14059033D01*
X12144000Y-5806000D02*
X12294000Y-5956000D01*
X12294000Y-5806000D02*
X12144000Y-5956000D01*
X12272033Y-5934033D02*
X12272033Y-5827966D01*
X12165966Y-5827966D01*
X12165966Y-5934033D01*
X12272033Y-5934033D01*
X6968000Y-7925000D02*
X7118000Y-8075000D01*
X7118000Y-7925000D02*
X6968000Y-8075000D01*
X7096033Y-8053033D02*
X7096033Y-7946966D01*
X6989966Y-7946966D01*
X6989966Y-8053033D01*
X7096033Y-8053033D01*
X15457000Y-4865000D02*
X15607000Y-5015000D01*
X15607000Y-4865000D02*
X15457000Y-5015000D01*
X15585033Y-4993034D02*
X15585033Y-4886967D01*
X15478966Y-4886967D01*
X15478966Y-4993034D01*
X15585033Y-4993034D01*
X12383000Y-13815000D02*
X12533000Y-13965000D01*
X12533000Y-13815000D02*
X12383000Y-13965000D01*
X12511033Y-13943033D02*
X12511033Y-13836966D01*
X12404966Y-13836966D01*
X12404966Y-13943033D01*
X12511033Y-13943033D01*
X6968000Y-8706600D02*
X7118000Y-8856600D01*
X7118000Y-8706600D02*
X6968000Y-8856600D01*
X7096033Y-8834634D02*
X7096033Y-8728567D01*
X6989966Y-8728567D01*
X6989966Y-8834634D01*
X7096033Y-8834634D01*
X14473800Y-8645000D02*
X14623800Y-8795000D01*
X14623800Y-8645000D02*
X14473800Y-8795000D01*
X14601833Y-8773034D02*
X14601833Y-8666967D01*
X14495766Y-8666967D01*
X14495766Y-8773034D01*
X14601833Y-8773034D01*
X10620000Y-8655000D02*
X10770000Y-8805000D01*
X10770000Y-8655000D02*
X10620000Y-8805000D01*
X10748034Y-8783034D02*
X10748034Y-8676967D01*
X10641967Y-8676967D01*
X10641967Y-8783034D01*
X10748034Y-8783034D01*
X14138000Y-9325000D02*
X14288000Y-9475000D01*
X14288000Y-9325000D02*
X14138000Y-9475000D01*
X14266033Y-9453034D02*
X14266033Y-9346967D01*
X14159966Y-9346967D01*
X14159966Y-9453034D01*
X14266033Y-9453034D01*
X10099000Y-13808000D02*
X10249000Y-13958000D01*
X10249000Y-13808000D02*
X10099000Y-13958000D01*
X10227034Y-13936033D02*
X10227034Y-13829966D01*
X10120967Y-13829966D01*
X10120967Y-13936033D01*
X10227034Y-13936033D01*
X8326000Y-13773000D02*
X8476000Y-13923000D01*
X8476000Y-13773000D02*
X8326000Y-13923000D01*
X8454034Y-13901033D02*
X8454034Y-13794966D01*
X8347966Y-13794966D01*
X8347966Y-13901033D01*
X8454034Y-13901033D01*
X17400000Y-13845000D02*
X17550000Y-13995000D01*
X17550000Y-13845000D02*
X17400000Y-13995000D01*
X17528034Y-13973033D02*
X17528034Y-13866966D01*
X17421967Y-13866966D01*
X17421967Y-13973033D01*
X17528034Y-13973033D01*
X12923000Y-13809000D02*
X13073000Y-13959000D01*
X13073000Y-13809000D02*
X12923000Y-13959000D01*
X13051033Y-13937033D02*
X13051033Y-13830966D01*
X12944966Y-13830966D01*
X12944966Y-13937033D01*
X13051033Y-13937033D01*
X10886000Y-4049000D02*
X11036000Y-4199000D01*
X11036000Y-4049000D02*
X10886000Y-4199000D01*
X11014034Y-4177033D02*
X11014034Y-4070966D01*
X10907967Y-4070966D01*
X10907967Y-4177033D01*
X11014034Y-4177033D01*
X6082000Y-3077000D02*
X6352000Y-3347000D01*
X6352000Y-3077000D02*
X6082000Y-3347000D01*
X6217000Y-3347000D02*
X6352000Y-3212000D01*
X6217000Y-3077000D01*
X6082000Y-3212000D01*
X6217000Y-3347000D01*
X6082000Y-8877000D02*
X6352000Y-9147000D01*
X6352000Y-8877000D02*
X6082000Y-9147000D01*
X6217000Y-9147000D02*
X6352000Y-9012000D01*
X6217000Y-8877000D01*
X6082000Y-9012000D01*
X6217000Y-9147000D01*
X10982000Y-3077000D02*
X11252000Y-3347000D01*
X11252000Y-3077000D02*
X10982000Y-3347000D01*
X11117000Y-3347000D02*
X11252000Y-3212000D01*
X11117000Y-3077000D01*
X10982000Y-3212000D01*
X11117000Y-3347000D01*
X10982000Y-8877000D02*
X11252000Y-9147000D01*
X11252000Y-8877000D02*
X10982000Y-9147000D01*
X11117000Y-9147000D02*
X11252000Y-9012000D01*
X11117000Y-8877000D01*
X10982000Y-9012000D01*
X11117000Y-9147000D01*
X4468000Y-14288000D02*
X4468000Y-14608000D01*
X4308000Y-14448000D02*
X4628000Y-14448000D01*
X4628000Y-14448000D02*
G75*
G03*
X4628000Y-14448000I-160000J0D01*
G01*
X18283000Y-3109000D02*
X18283000Y-3429000D01*
X18123000Y-3269000D02*
X18443000Y-3269000D01*
X18443000Y-3269000D02*
G75*
G03*
X18443000Y-3269000I-160000J0D01*
G01*
X18283000Y-14290000D02*
X18283000Y-14610000D01*
X18123000Y-14450000D02*
X18443000Y-14450000D01*
X18443000Y-14450000D02*
G75*
G03*
X18443000Y-14450000I-160000J0D01*
G01*
X4468000Y-3109000D02*
X4468000Y-3429000D01*
X4308000Y-3269000D02*
X4628000Y-3269000D01*
X4628000Y-3269000D02*
G75*
G03*
X4628000Y-3269000I-160000J0D01*
G01*
D12*
X4037928Y-15273214D02*
X4037928Y-14973214D01*
X4109357Y-14973214D01*
X4152214Y-14987500D01*
X4180786Y-15016071D01*
X4195071Y-15044643D01*
X4209357Y-15101786D01*
X4209357Y-15144643D01*
X4195071Y-15201786D01*
X4180786Y-15230357D01*
X4152214Y-15258929D01*
X4109357Y-15273214D01*
X4037928Y-15273214D01*
X4337928Y-15273214D02*
X4337928Y-15073214D01*
X4337928Y-15130357D02*
X4352214Y-15101786D01*
X4366500Y-15087500D01*
X4395071Y-15073214D01*
X4423643Y-15073214D01*
X4523643Y-15273214D02*
X4523643Y-15073214D01*
X4523643Y-14973214D02*
X4509357Y-14987500D01*
X4523643Y-15001786D01*
X4537928Y-14987500D01*
X4523643Y-14973214D01*
X4523643Y-15001786D01*
X4709357Y-15273214D02*
X4680786Y-15258929D01*
X4666500Y-15230357D01*
X4666500Y-14973214D01*
X4866500Y-15273214D02*
X4837928Y-15258929D01*
X4823643Y-15230357D01*
X4823643Y-14973214D01*
X5209357Y-15273214D02*
X5209357Y-14973214D01*
X5309357Y-15187500D01*
X5409357Y-14973214D01*
X5409357Y-15273214D01*
X5680786Y-15273214D02*
X5680786Y-15116071D01*
X5666500Y-15087500D01*
X5637928Y-15073214D01*
X5580786Y-15073214D01*
X5552214Y-15087500D01*
X5680786Y-15258929D02*
X5652214Y-15273214D01*
X5580786Y-15273214D01*
X5552214Y-15258929D01*
X5537928Y-15230357D01*
X5537928Y-15201786D01*
X5552214Y-15173214D01*
X5580786Y-15158929D01*
X5652214Y-15158929D01*
X5680786Y-15144643D01*
X5823643Y-15073214D02*
X5823643Y-15373214D01*
X5823643Y-15087500D02*
X5852214Y-15073214D01*
X5909357Y-15073214D01*
X5937928Y-15087500D01*
X5952214Y-15101786D01*
X5966500Y-15130357D01*
X5966500Y-15216071D01*
X5952214Y-15244643D01*
X5937928Y-15258929D01*
X5909357Y-15273214D01*
X5852214Y-15273214D01*
X5823643Y-15258929D01*
X6095071Y-15244643D02*
X6109357Y-15258929D01*
X6095071Y-15273214D01*
X6080786Y-15258929D01*
X6095071Y-15244643D01*
X6095071Y-15273214D01*
X6095071Y-15087500D02*
X6109357Y-15101786D01*
X6095071Y-15116071D01*
X6080786Y-15101786D01*
X6095071Y-15087500D01*
X6095071Y-15116071D01*
X3731500Y-15757500D02*
X3751500Y-15777500D01*
X3751500Y-15757500D02*
X3731500Y-15777500D01*
X4095071Y-15603214D02*
X4123643Y-15603214D01*
X4152214Y-15617500D01*
X4166500Y-15631786D01*
X4180786Y-15660357D01*
X4195071Y-15717500D01*
X4195071Y-15788929D01*
X4180786Y-15846071D01*
X4166500Y-15874643D01*
X4152214Y-15888929D01*
X4123643Y-15903214D01*
X4095071Y-15903214D01*
X4066500Y-15888929D01*
X4052214Y-15874643D01*
X4037928Y-15846071D01*
X4023643Y-15788929D01*
X4023643Y-15717500D01*
X4037928Y-15660357D01*
X4052214Y-15631786D01*
X4066500Y-15617500D01*
X4095071Y-15603214D01*
X4323643Y-15874643D02*
X4337928Y-15888929D01*
X4323643Y-15903214D01*
X4309357Y-15888929D01*
X4323643Y-15874643D01*
X4323643Y-15903214D01*
X4452214Y-15631786D02*
X4466500Y-15617500D01*
X4495071Y-15603214D01*
X4566500Y-15603214D01*
X4595071Y-15617500D01*
X4609357Y-15631786D01*
X4623643Y-15660357D01*
X4623643Y-15688929D01*
X4609357Y-15731786D01*
X4437928Y-15903214D01*
X4623643Y-15903214D01*
X4809357Y-15603214D02*
X4837928Y-15603214D01*
X4866500Y-15617500D01*
X4880786Y-15631786D01*
X4895071Y-15660357D01*
X4909357Y-15717500D01*
X4909357Y-15788929D01*
X4895071Y-15846071D01*
X4880786Y-15874643D01*
X4866500Y-15888929D01*
X4837928Y-15903214D01*
X4809357Y-15903214D01*
X4780786Y-15888929D01*
X4766500Y-15874643D01*
X4752214Y-15846071D01*
X4737928Y-15788929D01*
X4737928Y-15717500D01*
X4752214Y-15660357D01*
X4766500Y-15631786D01*
X4780786Y-15617500D01*
X4809357Y-15603214D01*
X5037928Y-15903214D02*
X5037928Y-15703214D01*
X5037928Y-15731786D02*
X5052214Y-15717500D01*
X5080786Y-15703214D01*
X5123643Y-15703214D01*
X5152214Y-15717500D01*
X5166500Y-15746071D01*
X5166500Y-15903214D01*
X5166500Y-15746071D02*
X5180786Y-15717500D01*
X5209357Y-15703214D01*
X5252214Y-15703214D01*
X5280786Y-15717500D01*
X5295071Y-15746071D01*
X5295071Y-15903214D01*
X5437928Y-15903214D02*
X5437928Y-15703214D01*
X5437928Y-15731786D02*
X5452214Y-15717500D01*
X5480786Y-15703214D01*
X5523643Y-15703214D01*
X5552214Y-15717500D01*
X5566500Y-15746071D01*
X5566500Y-15903214D01*
X5566500Y-15746071D02*
X5580786Y-15717500D01*
X5609357Y-15703214D01*
X5652214Y-15703214D01*
X5680786Y-15717500D01*
X5695071Y-15746071D01*
X5695071Y-15903214D01*
X6280786Y-15588929D02*
X6023643Y-15974643D01*
X6666500Y-15603214D02*
X6695071Y-15603214D01*
X6723643Y-15617500D01*
X6737928Y-15631786D01*
X6752214Y-15660357D01*
X6766500Y-15717500D01*
X6766500Y-15788929D01*
X6752214Y-15846071D01*
X6737928Y-15874643D01*
X6723643Y-15888929D01*
X6695071Y-15903214D01*
X6666500Y-15903214D01*
X6637928Y-15888929D01*
X6623643Y-15874643D01*
X6609357Y-15846071D01*
X6595071Y-15788929D01*
X6595071Y-15717500D01*
X6609357Y-15660357D01*
X6623643Y-15631786D01*
X6637928Y-15617500D01*
X6666500Y-15603214D01*
X6895071Y-15874643D02*
X6909357Y-15888929D01*
X6895071Y-15903214D01*
X6880786Y-15888929D01*
X6895071Y-15874643D01*
X6895071Y-15903214D01*
X7095071Y-15603214D02*
X7123643Y-15603214D01*
X7152214Y-15617500D01*
X7166500Y-15631786D01*
X7180786Y-15660357D01*
X7195071Y-15717500D01*
X7195071Y-15788929D01*
X7180786Y-15846071D01*
X7166500Y-15874643D01*
X7152214Y-15888929D01*
X7123643Y-15903214D01*
X7095071Y-15903214D01*
X7066500Y-15888929D01*
X7052214Y-15874643D01*
X7037928Y-15846071D01*
X7023643Y-15788929D01*
X7023643Y-15717500D01*
X7037928Y-15660357D01*
X7052214Y-15631786D01*
X7066500Y-15617500D01*
X7095071Y-15603214D01*
X7380786Y-15603214D02*
X7409357Y-15603214D01*
X7437928Y-15617500D01*
X7452214Y-15631786D01*
X7466500Y-15660357D01*
X7480786Y-15717500D01*
X7480786Y-15788929D01*
X7466500Y-15846071D01*
X7452214Y-15874643D01*
X7437928Y-15888929D01*
X7409357Y-15903214D01*
X7380786Y-15903214D01*
X7352214Y-15888929D01*
X7337928Y-15874643D01*
X7323643Y-15846071D01*
X7309357Y-15788929D01*
X7309357Y-15717500D01*
X7323643Y-15660357D01*
X7337928Y-15631786D01*
X7352214Y-15617500D01*
X7380786Y-15603214D01*
X7652214Y-15731786D02*
X7623643Y-15717500D01*
X7609357Y-15703214D01*
X7595071Y-15674643D01*
X7595071Y-15660357D01*
X7609357Y-15631786D01*
X7623643Y-15617500D01*
X7652214Y-15603214D01*
X7709357Y-15603214D01*
X7737928Y-15617500D01*
X7752214Y-15631786D01*
X7766500Y-15660357D01*
X7766500Y-15674643D01*
X7752214Y-15703214D01*
X7737928Y-15717500D01*
X7709357Y-15731786D01*
X7652214Y-15731786D01*
X7623643Y-15746071D01*
X7609357Y-15760357D01*
X7595071Y-15788929D01*
X7595071Y-15846071D01*
X7609357Y-15874643D01*
X7623643Y-15888929D01*
X7652214Y-15903214D01*
X7709357Y-15903214D01*
X7737928Y-15888929D01*
X7752214Y-15874643D01*
X7766500Y-15846071D01*
X7766500Y-15788929D01*
X7752214Y-15760357D01*
X7737928Y-15746071D01*
X7709357Y-15731786D01*
X7880786Y-15603214D02*
X7880786Y-15660357D01*
X7995071Y-15603214D02*
X7995071Y-15660357D01*
X8437928Y-16017500D02*
X8423643Y-16003214D01*
X8395071Y-15960357D01*
X8380786Y-15931786D01*
X8366500Y-15888929D01*
X8352214Y-15817500D01*
X8352214Y-15760357D01*
X8366500Y-15688929D01*
X8380786Y-15646071D01*
X8395071Y-15617500D01*
X8423643Y-15574643D01*
X8437928Y-15560357D01*
X8709357Y-15903214D02*
X8537928Y-15903214D01*
X8623643Y-15903214D02*
X8623643Y-15603214D01*
X8595071Y-15646071D01*
X8566500Y-15674643D01*
X8537928Y-15688929D01*
X8880786Y-15731786D02*
X8852214Y-15717500D01*
X8837928Y-15703214D01*
X8823643Y-15674643D01*
X8823643Y-15660357D01*
X8837928Y-15631786D01*
X8852214Y-15617500D01*
X8880786Y-15603214D01*
X8937928Y-15603214D01*
X8966500Y-15617500D01*
X8980786Y-15631786D01*
X8995071Y-15660357D01*
X8995071Y-15674643D01*
X8980786Y-15703214D01*
X8966500Y-15717500D01*
X8937928Y-15731786D01*
X8880786Y-15731786D01*
X8852214Y-15746071D01*
X8837928Y-15760357D01*
X8823643Y-15788929D01*
X8823643Y-15846071D01*
X8837928Y-15874643D01*
X8852214Y-15888929D01*
X8880786Y-15903214D01*
X8937928Y-15903214D01*
X8966500Y-15888929D01*
X8980786Y-15874643D01*
X8995071Y-15846071D01*
X8995071Y-15788929D01*
X8980786Y-15760357D01*
X8966500Y-15746071D01*
X8937928Y-15731786D01*
X9109357Y-15631786D02*
X9123643Y-15617500D01*
X9152214Y-15603214D01*
X9223643Y-15603214D01*
X9252214Y-15617500D01*
X9266500Y-15631786D01*
X9280786Y-15660357D01*
X9280786Y-15688929D01*
X9266500Y-15731786D01*
X9095071Y-15903214D01*
X9280786Y-15903214D01*
X9637928Y-15903214D02*
X9637928Y-15603214D01*
X9766500Y-15903214D02*
X9766500Y-15746071D01*
X9752214Y-15717500D01*
X9723643Y-15703214D01*
X9680786Y-15703214D01*
X9652214Y-15717500D01*
X9637928Y-15731786D01*
X9952214Y-15903214D02*
X9923643Y-15888929D01*
X9909357Y-15874643D01*
X9895071Y-15846071D01*
X9895071Y-15760357D01*
X9909357Y-15731786D01*
X9923643Y-15717500D01*
X9952214Y-15703214D01*
X9995071Y-15703214D01*
X10023643Y-15717500D01*
X10037928Y-15731786D01*
X10052214Y-15760357D01*
X10052214Y-15846071D01*
X10037928Y-15874643D01*
X10023643Y-15888929D01*
X9995071Y-15903214D01*
X9952214Y-15903214D01*
X10223643Y-15903214D02*
X10195071Y-15888929D01*
X10180786Y-15860357D01*
X10180786Y-15603214D01*
X10452214Y-15888929D02*
X10423643Y-15903214D01*
X10366500Y-15903214D01*
X10337928Y-15888929D01*
X10323643Y-15860357D01*
X10323643Y-15746071D01*
X10337928Y-15717500D01*
X10366500Y-15703214D01*
X10423643Y-15703214D01*
X10452214Y-15717500D01*
X10466500Y-15746071D01*
X10466500Y-15774643D01*
X10323643Y-15803214D01*
X10580786Y-15888929D02*
X10609357Y-15903214D01*
X10666500Y-15903214D01*
X10695071Y-15888929D01*
X10709357Y-15860357D01*
X10709357Y-15846071D01*
X10695071Y-15817500D01*
X10666500Y-15803214D01*
X10623643Y-15803214D01*
X10595071Y-15788929D01*
X10580786Y-15760357D01*
X10580786Y-15746071D01*
X10595071Y-15717500D01*
X10623643Y-15703214D01*
X10666500Y-15703214D01*
X10695071Y-15717500D01*
X10809357Y-16017500D02*
X10823643Y-16003214D01*
X10852214Y-15960357D01*
X10866500Y-15931786D01*
X10880786Y-15888929D01*
X10895071Y-15817500D01*
X10895071Y-15760357D01*
X10880786Y-15688929D01*
X10866500Y-15646071D01*
X10852214Y-15617500D01*
X10823643Y-15574643D01*
X10809357Y-15560357D01*
X3751500Y-16163500D02*
G75*
G03*
X3751500Y-16163500I-15000J0D01*
G01*
X4095071Y-15999214D02*
X4123643Y-15999214D01*
X4152214Y-16013500D01*
X4166500Y-16027786D01*
X4180786Y-16056357D01*
X4195071Y-16113500D01*
X4195071Y-16184929D01*
X4180786Y-16242071D01*
X4166500Y-16270643D01*
X4152214Y-16284929D01*
X4123643Y-16299214D01*
X4095071Y-16299214D01*
X4066500Y-16284929D01*
X4052214Y-16270643D01*
X4037928Y-16242071D01*
X4023643Y-16184929D01*
X4023643Y-16113500D01*
X4037928Y-16056357D01*
X4052214Y-16027786D01*
X4066500Y-16013500D01*
X4095071Y-15999214D01*
X4323643Y-16270643D02*
X4337928Y-16284929D01*
X4323643Y-16299214D01*
X4309357Y-16284929D01*
X4323643Y-16270643D01*
X4323643Y-16299214D01*
X4437928Y-15999214D02*
X4623643Y-15999214D01*
X4523643Y-16113500D01*
X4566500Y-16113500D01*
X4595071Y-16127786D01*
X4609357Y-16142071D01*
X4623643Y-16170643D01*
X4623643Y-16242071D01*
X4609357Y-16270643D01*
X4595071Y-16284929D01*
X4566500Y-16299214D01*
X4480786Y-16299214D01*
X4452214Y-16284929D01*
X4437928Y-16270643D01*
X4809357Y-15999214D02*
X4837928Y-15999214D01*
X4866500Y-16013500D01*
X4880786Y-16027786D01*
X4895071Y-16056357D01*
X4909357Y-16113500D01*
X4909357Y-16184929D01*
X4895071Y-16242071D01*
X4880786Y-16270643D01*
X4866500Y-16284929D01*
X4837928Y-16299214D01*
X4809357Y-16299214D01*
X4780786Y-16284929D01*
X4766500Y-16270643D01*
X4752214Y-16242071D01*
X4737928Y-16184929D01*
X4737928Y-16113500D01*
X4752214Y-16056357D01*
X4766500Y-16027786D01*
X4780786Y-16013500D01*
X4809357Y-15999214D01*
X5037928Y-16299214D02*
X5037928Y-16099214D01*
X5037928Y-16127786D02*
X5052214Y-16113500D01*
X5080786Y-16099214D01*
X5123643Y-16099214D01*
X5152214Y-16113500D01*
X5166500Y-16142071D01*
X5166500Y-16299214D01*
X5166500Y-16142071D02*
X5180786Y-16113500D01*
X5209357Y-16099214D01*
X5252214Y-16099214D01*
X5280786Y-16113500D01*
X5295071Y-16142071D01*
X5295071Y-16299214D01*
X5437928Y-16299214D02*
X5437928Y-16099214D01*
X5437928Y-16127786D02*
X5452214Y-16113500D01*
X5480786Y-16099214D01*
X5523643Y-16099214D01*
X5552214Y-16113500D01*
X5566500Y-16142071D01*
X5566500Y-16299214D01*
X5566500Y-16142071D02*
X5580786Y-16113500D01*
X5609357Y-16099214D01*
X5652214Y-16099214D01*
X5680786Y-16113500D01*
X5695071Y-16142071D01*
X5695071Y-16299214D01*
X6280786Y-15984929D02*
X6023643Y-16370643D01*
X6666500Y-15999214D02*
X6695071Y-15999214D01*
X6723643Y-16013500D01*
X6737928Y-16027786D01*
X6752214Y-16056357D01*
X6766500Y-16113500D01*
X6766500Y-16184929D01*
X6752214Y-16242071D01*
X6737928Y-16270643D01*
X6723643Y-16284929D01*
X6695071Y-16299214D01*
X6666500Y-16299214D01*
X6637928Y-16284929D01*
X6623643Y-16270643D01*
X6609357Y-16242071D01*
X6595071Y-16184929D01*
X6595071Y-16113500D01*
X6609357Y-16056357D01*
X6623643Y-16027786D01*
X6637928Y-16013500D01*
X6666500Y-15999214D01*
X6895071Y-16270643D02*
X6909357Y-16284929D01*
X6895071Y-16299214D01*
X6880786Y-16284929D01*
X6895071Y-16270643D01*
X6895071Y-16299214D01*
X7095071Y-15999214D02*
X7123643Y-15999214D01*
X7152214Y-16013500D01*
X7166500Y-16027786D01*
X7180786Y-16056357D01*
X7195071Y-16113500D01*
X7195071Y-16184929D01*
X7180786Y-16242071D01*
X7166500Y-16270643D01*
X7152214Y-16284929D01*
X7123643Y-16299214D01*
X7095071Y-16299214D01*
X7066500Y-16284929D01*
X7052214Y-16270643D01*
X7037928Y-16242071D01*
X7023643Y-16184929D01*
X7023643Y-16113500D01*
X7037928Y-16056357D01*
X7052214Y-16027786D01*
X7066500Y-16013500D01*
X7095071Y-15999214D01*
X7480786Y-16299214D02*
X7309357Y-16299214D01*
X7395071Y-16299214D02*
X7395071Y-15999214D01*
X7366500Y-16042071D01*
X7337928Y-16070643D01*
X7309357Y-16084929D01*
X7595071Y-16027786D02*
X7609357Y-16013500D01*
X7637928Y-15999214D01*
X7709357Y-15999214D01*
X7737928Y-16013500D01*
X7752214Y-16027786D01*
X7766500Y-16056357D01*
X7766500Y-16084929D01*
X7752214Y-16127786D01*
X7580786Y-16299214D01*
X7766500Y-16299214D01*
X7880786Y-15999214D02*
X7880786Y-16056357D01*
X7995071Y-15999214D02*
X7995071Y-16056357D01*
X8437928Y-16413500D02*
X8423643Y-16399214D01*
X8395071Y-16356357D01*
X8380786Y-16327786D01*
X8366500Y-16284929D01*
X8352214Y-16213500D01*
X8352214Y-16156357D01*
X8366500Y-16084929D01*
X8380786Y-16042071D01*
X8395071Y-16013500D01*
X8423643Y-15970643D01*
X8437928Y-15956357D01*
X8537928Y-16027786D02*
X8552214Y-16013500D01*
X8580786Y-15999214D01*
X8652214Y-15999214D01*
X8680786Y-16013500D01*
X8695071Y-16027786D01*
X8709357Y-16056357D01*
X8709357Y-16084929D01*
X8695071Y-16127786D01*
X8523643Y-16299214D01*
X8709357Y-16299214D01*
X8966500Y-15999214D02*
X8909357Y-15999214D01*
X8880786Y-16013500D01*
X8866500Y-16027786D01*
X8837928Y-16070643D01*
X8823643Y-16127786D01*
X8823643Y-16242071D01*
X8837928Y-16270643D01*
X8852214Y-16284929D01*
X8880786Y-16299214D01*
X8937928Y-16299214D01*
X8966500Y-16284929D01*
X8980786Y-16270643D01*
X8995071Y-16242071D01*
X8995071Y-16170643D01*
X8980786Y-16142071D01*
X8966500Y-16127786D01*
X8937928Y-16113500D01*
X8880786Y-16113500D01*
X8852214Y-16127786D01*
X8837928Y-16142071D01*
X8823643Y-16170643D01*
X9095071Y-15999214D02*
X9280786Y-15999214D01*
X9180786Y-16113500D01*
X9223643Y-16113500D01*
X9252214Y-16127786D01*
X9266500Y-16142071D01*
X9280786Y-16170643D01*
X9280786Y-16242071D01*
X9266500Y-16270643D01*
X9252214Y-16284929D01*
X9223643Y-16299214D01*
X9137928Y-16299214D01*
X9109357Y-16284929D01*
X9095071Y-16270643D01*
X9637928Y-16299214D02*
X9637928Y-15999214D01*
X9766500Y-16299214D02*
X9766500Y-16142071D01*
X9752214Y-16113500D01*
X9723643Y-16099214D01*
X9680786Y-16099214D01*
X9652214Y-16113500D01*
X9637928Y-16127786D01*
X9952214Y-16299214D02*
X9923643Y-16284929D01*
X9909357Y-16270643D01*
X9895071Y-16242071D01*
X9895071Y-16156357D01*
X9909357Y-16127786D01*
X9923643Y-16113500D01*
X9952214Y-16099214D01*
X9995071Y-16099214D01*
X10023643Y-16113500D01*
X10037928Y-16127786D01*
X10052214Y-16156357D01*
X10052214Y-16242071D01*
X10037928Y-16270643D01*
X10023643Y-16284929D01*
X9995071Y-16299214D01*
X9952214Y-16299214D01*
X10223643Y-16299214D02*
X10195071Y-16284929D01*
X10180786Y-16256357D01*
X10180786Y-15999214D01*
X10452214Y-16284929D02*
X10423643Y-16299214D01*
X10366500Y-16299214D01*
X10337928Y-16284929D01*
X10323643Y-16256357D01*
X10323643Y-16142071D01*
X10337928Y-16113500D01*
X10366500Y-16099214D01*
X10423643Y-16099214D01*
X10452214Y-16113500D01*
X10466500Y-16142071D01*
X10466500Y-16170643D01*
X10323643Y-16199214D01*
X10580786Y-16284929D02*
X10609357Y-16299214D01*
X10666500Y-16299214D01*
X10695071Y-16284929D01*
X10709357Y-16256357D01*
X10709357Y-16242071D01*
X10695071Y-16213500D01*
X10666500Y-16199214D01*
X10623643Y-16199214D01*
X10595071Y-16184929D01*
X10580786Y-16156357D01*
X10580786Y-16142071D01*
X10595071Y-16113500D01*
X10623643Y-16099214D01*
X10666500Y-16099214D01*
X10695071Y-16113500D01*
X10809357Y-16413500D02*
X10823643Y-16399214D01*
X10852214Y-16356357D01*
X10866500Y-16327786D01*
X10880786Y-16284929D01*
X10895071Y-16213500D01*
X10895071Y-16156357D01*
X10880786Y-16084929D01*
X10866500Y-16042071D01*
X10852214Y-16013500D01*
X10823643Y-15970643D01*
X10809357Y-15956357D01*
X3731500Y-16539500D02*
X3731500Y-16579500D01*
X3711500Y-16559500D02*
X3751500Y-16559500D01*
X4095071Y-16395214D02*
X4123643Y-16395214D01*
X4152214Y-16409500D01*
X4166500Y-16423786D01*
X4180786Y-16452357D01*
X4195071Y-16509500D01*
X4195071Y-16580929D01*
X4180786Y-16638071D01*
X4166500Y-16666643D01*
X4152214Y-16680929D01*
X4123643Y-16695214D01*
X4095071Y-16695214D01*
X4066500Y-16680929D01*
X4052214Y-16666643D01*
X4037928Y-16638071D01*
X4023643Y-16580929D01*
X4023643Y-16509500D01*
X4037928Y-16452357D01*
X4052214Y-16423786D01*
X4066500Y-16409500D01*
X4095071Y-16395214D01*
X4323643Y-16666643D02*
X4337928Y-16680929D01*
X4323643Y-16695214D01*
X4309357Y-16680929D01*
X4323643Y-16666643D01*
X4323643Y-16695214D01*
X4595071Y-16495214D02*
X4595071Y-16695214D01*
X4523643Y-16380929D02*
X4452214Y-16595214D01*
X4637928Y-16595214D01*
X4809357Y-16395214D02*
X4837928Y-16395214D01*
X4866500Y-16409500D01*
X4880786Y-16423786D01*
X4895071Y-16452357D01*
X4909357Y-16509500D01*
X4909357Y-16580929D01*
X4895071Y-16638071D01*
X4880786Y-16666643D01*
X4866500Y-16680929D01*
X4837928Y-16695214D01*
X4809357Y-16695214D01*
X4780786Y-16680929D01*
X4766500Y-16666643D01*
X4752214Y-16638071D01*
X4737928Y-16580929D01*
X4737928Y-16509500D01*
X4752214Y-16452357D01*
X4766500Y-16423786D01*
X4780786Y-16409500D01*
X4809357Y-16395214D01*
X5037928Y-16695214D02*
X5037928Y-16495214D01*
X5037928Y-16523786D02*
X5052214Y-16509500D01*
X5080786Y-16495214D01*
X5123643Y-16495214D01*
X5152214Y-16509500D01*
X5166500Y-16538071D01*
X5166500Y-16695214D01*
X5166500Y-16538071D02*
X5180786Y-16509500D01*
X5209357Y-16495214D01*
X5252214Y-16495214D01*
X5280786Y-16509500D01*
X5295071Y-16538071D01*
X5295071Y-16695214D01*
X5437928Y-16695214D02*
X5437928Y-16495214D01*
X5437928Y-16523786D02*
X5452214Y-16509500D01*
X5480786Y-16495214D01*
X5523643Y-16495214D01*
X5552214Y-16509500D01*
X5566500Y-16538071D01*
X5566500Y-16695214D01*
X5566500Y-16538071D02*
X5580786Y-16509500D01*
X5609357Y-16495214D01*
X5652214Y-16495214D01*
X5680786Y-16509500D01*
X5695071Y-16538071D01*
X5695071Y-16695214D01*
X6280786Y-16380929D02*
X6023643Y-16766643D01*
X6666500Y-16395214D02*
X6695071Y-16395214D01*
X6723643Y-16409500D01*
X6737928Y-16423786D01*
X6752214Y-16452357D01*
X6766500Y-16509500D01*
X6766500Y-16580929D01*
X6752214Y-16638071D01*
X6737928Y-16666643D01*
X6723643Y-16680929D01*
X6695071Y-16695214D01*
X6666500Y-16695214D01*
X6637928Y-16680929D01*
X6623643Y-16666643D01*
X6609357Y-16638071D01*
X6595071Y-16580929D01*
X6595071Y-16509500D01*
X6609357Y-16452357D01*
X6623643Y-16423786D01*
X6637928Y-16409500D01*
X6666500Y-16395214D01*
X6895071Y-16666643D02*
X6909357Y-16680929D01*
X6895071Y-16695214D01*
X6880786Y-16680929D01*
X6895071Y-16666643D01*
X6895071Y-16695214D01*
X7095071Y-16395214D02*
X7123643Y-16395214D01*
X7152214Y-16409500D01*
X7166500Y-16423786D01*
X7180786Y-16452357D01*
X7195071Y-16509500D01*
X7195071Y-16580929D01*
X7180786Y-16638071D01*
X7166500Y-16666643D01*
X7152214Y-16680929D01*
X7123643Y-16695214D01*
X7095071Y-16695214D01*
X7066500Y-16680929D01*
X7052214Y-16666643D01*
X7037928Y-16638071D01*
X7023643Y-16580929D01*
X7023643Y-16509500D01*
X7037928Y-16452357D01*
X7052214Y-16423786D01*
X7066500Y-16409500D01*
X7095071Y-16395214D01*
X7480786Y-16695214D02*
X7309357Y-16695214D01*
X7395071Y-16695214D02*
X7395071Y-16395214D01*
X7366500Y-16438071D01*
X7337928Y-16466643D01*
X7309357Y-16480929D01*
X7737928Y-16395214D02*
X7680786Y-16395214D01*
X7652214Y-16409500D01*
X7637928Y-16423786D01*
X7609357Y-16466643D01*
X7595071Y-16523786D01*
X7595071Y-16638071D01*
X7609357Y-16666643D01*
X7623643Y-16680929D01*
X7652214Y-16695214D01*
X7709357Y-16695214D01*
X7737928Y-16680929D01*
X7752214Y-16666643D01*
X7766500Y-16638071D01*
X7766500Y-16566643D01*
X7752214Y-16538071D01*
X7737928Y-16523786D01*
X7709357Y-16509500D01*
X7652214Y-16509500D01*
X7623643Y-16523786D01*
X7609357Y-16538071D01*
X7595071Y-16566643D01*
X7880786Y-16395214D02*
X7880786Y-16452357D01*
X7995071Y-16395214D02*
X7995071Y-16452357D01*
X8437928Y-16809500D02*
X8423643Y-16795214D01*
X8395071Y-16752357D01*
X8380786Y-16723786D01*
X8366500Y-16680929D01*
X8352214Y-16609500D01*
X8352214Y-16552357D01*
X8366500Y-16480929D01*
X8380786Y-16438071D01*
X8395071Y-16409500D01*
X8423643Y-16366643D01*
X8437928Y-16352357D01*
X8595071Y-16523786D02*
X8566500Y-16509500D01*
X8552214Y-16495214D01*
X8537928Y-16466643D01*
X8537928Y-16452357D01*
X8552214Y-16423786D01*
X8566500Y-16409500D01*
X8595071Y-16395214D01*
X8652214Y-16395214D01*
X8680786Y-16409500D01*
X8695071Y-16423786D01*
X8709357Y-16452357D01*
X8709357Y-16466643D01*
X8695071Y-16495214D01*
X8680786Y-16509500D01*
X8652214Y-16523786D01*
X8595071Y-16523786D01*
X8566500Y-16538071D01*
X8552214Y-16552357D01*
X8537928Y-16580929D01*
X8537928Y-16638071D01*
X8552214Y-16666643D01*
X8566500Y-16680929D01*
X8595071Y-16695214D01*
X8652214Y-16695214D01*
X8680786Y-16680929D01*
X8695071Y-16666643D01*
X8709357Y-16638071D01*
X8709357Y-16580929D01*
X8695071Y-16552357D01*
X8680786Y-16538071D01*
X8652214Y-16523786D01*
X8980786Y-16395214D02*
X8837928Y-16395214D01*
X8823643Y-16538071D01*
X8837928Y-16523786D01*
X8866500Y-16509500D01*
X8937928Y-16509500D01*
X8966500Y-16523786D01*
X8980786Y-16538071D01*
X8995071Y-16566643D01*
X8995071Y-16638071D01*
X8980786Y-16666643D01*
X8966500Y-16680929D01*
X8937928Y-16695214D01*
X8866500Y-16695214D01*
X8837928Y-16680929D01*
X8823643Y-16666643D01*
X9352214Y-16695214D02*
X9352214Y-16395214D01*
X9480786Y-16695214D02*
X9480786Y-16538071D01*
X9466500Y-16509500D01*
X9437928Y-16495214D01*
X9395071Y-16495214D01*
X9366500Y-16509500D01*
X9352214Y-16523786D01*
X9666500Y-16695214D02*
X9637928Y-16680929D01*
X9623643Y-16666643D01*
X9609357Y-16638071D01*
X9609357Y-16552357D01*
X9623643Y-16523786D01*
X9637928Y-16509500D01*
X9666500Y-16495214D01*
X9709357Y-16495214D01*
X9737928Y-16509500D01*
X9752214Y-16523786D01*
X9766500Y-16552357D01*
X9766500Y-16638071D01*
X9752214Y-16666643D01*
X9737928Y-16680929D01*
X9709357Y-16695214D01*
X9666500Y-16695214D01*
X9937928Y-16695214D02*
X9909357Y-16680929D01*
X9895071Y-16652357D01*
X9895071Y-16395214D01*
X10166500Y-16680929D02*
X10137928Y-16695214D01*
X10080786Y-16695214D01*
X10052214Y-16680929D01*
X10037928Y-16652357D01*
X10037928Y-16538071D01*
X10052214Y-16509500D01*
X10080786Y-16495214D01*
X10137928Y-16495214D01*
X10166500Y-16509500D01*
X10180786Y-16538071D01*
X10180786Y-16566643D01*
X10037928Y-16595214D01*
X10295071Y-16680929D02*
X10323643Y-16695214D01*
X10380786Y-16695214D01*
X10409357Y-16680929D01*
X10423643Y-16652357D01*
X10423643Y-16638071D01*
X10409357Y-16609500D01*
X10380786Y-16595214D01*
X10337928Y-16595214D01*
X10309357Y-16580929D01*
X10295071Y-16552357D01*
X10295071Y-16538071D01*
X10309357Y-16509500D01*
X10337928Y-16495214D01*
X10380786Y-16495214D01*
X10409357Y-16509500D01*
X10523643Y-16809500D02*
X10537928Y-16795214D01*
X10566500Y-16752357D01*
X10580786Y-16723786D01*
X10595071Y-16680929D01*
X10609357Y-16609500D01*
X10609357Y-16552357D01*
X10595071Y-16480929D01*
X10580786Y-16438071D01*
X10566500Y-16409500D01*
X10537928Y-16366643D01*
X10523643Y-16352357D01*
X3744178Y-16973178D02*
X3744178Y-16937822D01*
X3708822Y-16937822D01*
X3708822Y-16973178D01*
X3744178Y-16973178D01*
X4095071Y-16791214D02*
X4123643Y-16791214D01*
X4152214Y-16805500D01*
X4166500Y-16819786D01*
X4180786Y-16848357D01*
X4195071Y-16905500D01*
X4195071Y-16976929D01*
X4180786Y-17034072D01*
X4166500Y-17062643D01*
X4152214Y-17076929D01*
X4123643Y-17091214D01*
X4095071Y-17091214D01*
X4066500Y-17076929D01*
X4052214Y-17062643D01*
X4037928Y-17034072D01*
X4023643Y-16976929D01*
X4023643Y-16905500D01*
X4037928Y-16848357D01*
X4052214Y-16819786D01*
X4066500Y-16805500D01*
X4095071Y-16791214D01*
X4323643Y-17062643D02*
X4337928Y-17076929D01*
X4323643Y-17091214D01*
X4309357Y-17076929D01*
X4323643Y-17062643D01*
X4323643Y-17091214D01*
X4609357Y-16791214D02*
X4466500Y-16791214D01*
X4452214Y-16934072D01*
X4466500Y-16919786D01*
X4495071Y-16905500D01*
X4566500Y-16905500D01*
X4595071Y-16919786D01*
X4609357Y-16934072D01*
X4623643Y-16962643D01*
X4623643Y-17034072D01*
X4609357Y-17062643D01*
X4595071Y-17076929D01*
X4566500Y-17091214D01*
X4495071Y-17091214D01*
X4466500Y-17076929D01*
X4452214Y-17062643D01*
X4809357Y-16791214D02*
X4837928Y-16791214D01*
X4866500Y-16805500D01*
X4880786Y-16819786D01*
X4895071Y-16848357D01*
X4909357Y-16905500D01*
X4909357Y-16976929D01*
X4895071Y-17034072D01*
X4880786Y-17062643D01*
X4866500Y-17076929D01*
X4837928Y-17091214D01*
X4809357Y-17091214D01*
X4780786Y-17076929D01*
X4766500Y-17062643D01*
X4752214Y-17034072D01*
X4737928Y-16976929D01*
X4737928Y-16905500D01*
X4752214Y-16848357D01*
X4766500Y-16819786D01*
X4780786Y-16805500D01*
X4809357Y-16791214D01*
X5037928Y-17091214D02*
X5037928Y-16891214D01*
X5037928Y-16919786D02*
X5052214Y-16905500D01*
X5080786Y-16891214D01*
X5123643Y-16891214D01*
X5152214Y-16905500D01*
X5166500Y-16934072D01*
X5166500Y-17091214D01*
X5166500Y-16934072D02*
X5180786Y-16905500D01*
X5209357Y-16891214D01*
X5252214Y-16891214D01*
X5280786Y-16905500D01*
X5295071Y-16934072D01*
X5295071Y-17091214D01*
X5437928Y-17091214D02*
X5437928Y-16891214D01*
X5437928Y-16919786D02*
X5452214Y-16905500D01*
X5480786Y-16891214D01*
X5523643Y-16891214D01*
X5552214Y-16905500D01*
X5566500Y-16934072D01*
X5566500Y-17091214D01*
X5566500Y-16934072D02*
X5580786Y-16905500D01*
X5609357Y-16891214D01*
X5652214Y-16891214D01*
X5680786Y-16905500D01*
X5695071Y-16934072D01*
X5695071Y-17091214D01*
X6280786Y-16776929D02*
X6023643Y-17162643D01*
X6666500Y-16791214D02*
X6695071Y-16791214D01*
X6723643Y-16805500D01*
X6737928Y-16819786D01*
X6752214Y-16848357D01*
X6766500Y-16905500D01*
X6766500Y-16976929D01*
X6752214Y-17034072D01*
X6737928Y-17062643D01*
X6723643Y-17076929D01*
X6695071Y-17091214D01*
X6666500Y-17091214D01*
X6637928Y-17076929D01*
X6623643Y-17062643D01*
X6609357Y-17034072D01*
X6595071Y-16976929D01*
X6595071Y-16905500D01*
X6609357Y-16848357D01*
X6623643Y-16819786D01*
X6637928Y-16805500D01*
X6666500Y-16791214D01*
X6895071Y-17062643D02*
X6909357Y-17076929D01*
X6895071Y-17091214D01*
X6880786Y-17076929D01*
X6895071Y-17062643D01*
X6895071Y-17091214D01*
X7095071Y-16791214D02*
X7123643Y-16791214D01*
X7152214Y-16805500D01*
X7166500Y-16819786D01*
X7180786Y-16848357D01*
X7195071Y-16905500D01*
X7195071Y-16976929D01*
X7180786Y-17034072D01*
X7166500Y-17062643D01*
X7152214Y-17076929D01*
X7123643Y-17091214D01*
X7095071Y-17091214D01*
X7066500Y-17076929D01*
X7052214Y-17062643D01*
X7037928Y-17034072D01*
X7023643Y-16976929D01*
X7023643Y-16905500D01*
X7037928Y-16848357D01*
X7052214Y-16819786D01*
X7066500Y-16805500D01*
X7095071Y-16791214D01*
X7309357Y-16819786D02*
X7323643Y-16805500D01*
X7352214Y-16791214D01*
X7423643Y-16791214D01*
X7452214Y-16805500D01*
X7466500Y-16819786D01*
X7480786Y-16848357D01*
X7480786Y-16876929D01*
X7466500Y-16919786D01*
X7295071Y-17091214D01*
X7480786Y-17091214D01*
X7666500Y-16791214D02*
X7695071Y-16791214D01*
X7723643Y-16805500D01*
X7737928Y-16819786D01*
X7752214Y-16848357D01*
X7766500Y-16905500D01*
X7766500Y-16976929D01*
X7752214Y-17034072D01*
X7737928Y-17062643D01*
X7723643Y-17076929D01*
X7695071Y-17091214D01*
X7666500Y-17091214D01*
X7637928Y-17076929D01*
X7623643Y-17062643D01*
X7609357Y-17034072D01*
X7595071Y-16976929D01*
X7595071Y-16905500D01*
X7609357Y-16848357D01*
X7623643Y-16819786D01*
X7637928Y-16805500D01*
X7666500Y-16791214D01*
X7880786Y-16791214D02*
X7880786Y-16848357D01*
X7995071Y-16791214D02*
X7995071Y-16848357D01*
X8437928Y-17205500D02*
X8423643Y-17191214D01*
X8395071Y-17148357D01*
X8380786Y-17119786D01*
X8366500Y-17076929D01*
X8352214Y-17005500D01*
X8352214Y-16948357D01*
X8366500Y-16876929D01*
X8380786Y-16834072D01*
X8395071Y-16805500D01*
X8423643Y-16762643D01*
X8437928Y-16748357D01*
X8680786Y-16791214D02*
X8623643Y-16791214D01*
X8595071Y-16805500D01*
X8580786Y-16819786D01*
X8552214Y-16862643D01*
X8537928Y-16919786D01*
X8537928Y-17034072D01*
X8552214Y-17062643D01*
X8566500Y-17076929D01*
X8595071Y-17091214D01*
X8652214Y-17091214D01*
X8680786Y-17076929D01*
X8695071Y-17062643D01*
X8709357Y-17034072D01*
X8709357Y-16962643D01*
X8695071Y-16934072D01*
X8680786Y-16919786D01*
X8652214Y-16905500D01*
X8595071Y-16905500D01*
X8566500Y-16919786D01*
X8552214Y-16934072D01*
X8537928Y-16962643D01*
X8966500Y-16891214D02*
X8966500Y-17091214D01*
X8895071Y-16776929D02*
X8823643Y-16991214D01*
X9009357Y-16991214D01*
X9352214Y-17091214D02*
X9352214Y-16791214D01*
X9480786Y-17091214D02*
X9480786Y-16934072D01*
X9466500Y-16905500D01*
X9437928Y-16891214D01*
X9395071Y-16891214D01*
X9366500Y-16905500D01*
X9352214Y-16919786D01*
X9666500Y-17091214D02*
X9637928Y-17076929D01*
X9623643Y-17062643D01*
X9609357Y-17034072D01*
X9609357Y-16948357D01*
X9623643Y-16919786D01*
X9637928Y-16905500D01*
X9666500Y-16891214D01*
X9709357Y-16891214D01*
X9737928Y-16905500D01*
X9752214Y-16919786D01*
X9766500Y-16948357D01*
X9766500Y-17034072D01*
X9752214Y-17062643D01*
X9737928Y-17076929D01*
X9709357Y-17091214D01*
X9666500Y-17091214D01*
X9937928Y-17091214D02*
X9909357Y-17076929D01*
X9895071Y-17048357D01*
X9895071Y-16791214D01*
X10166500Y-17076929D02*
X10137928Y-17091214D01*
X10080786Y-17091214D01*
X10052214Y-17076929D01*
X10037928Y-17048357D01*
X10037928Y-16934072D01*
X10052214Y-16905500D01*
X10080786Y-16891214D01*
X10137928Y-16891214D01*
X10166500Y-16905500D01*
X10180786Y-16934072D01*
X10180786Y-16962643D01*
X10037928Y-16991214D01*
X10295071Y-17076929D02*
X10323643Y-17091214D01*
X10380786Y-17091214D01*
X10409357Y-17076929D01*
X10423643Y-17048357D01*
X10423643Y-17034072D01*
X10409357Y-17005500D01*
X10380786Y-16991214D01*
X10337928Y-16991214D01*
X10309357Y-16976929D01*
X10295071Y-16948357D01*
X10295071Y-16934072D01*
X10309357Y-16905500D01*
X10337928Y-16891214D01*
X10380786Y-16891214D01*
X10409357Y-16905500D01*
X10523643Y-17205500D02*
X10537928Y-17191214D01*
X10566500Y-17148357D01*
X10580786Y-17119786D01*
X10595071Y-17076929D01*
X10609357Y-17005500D01*
X10609357Y-16948357D01*
X10595071Y-16876929D01*
X10580786Y-16834072D01*
X10566500Y-16805500D01*
X10537928Y-16762643D01*
X10523643Y-16748357D01*
X3701500Y-17401500D02*
X3751500Y-17351500D01*
X3701500Y-17301500D01*
X3651500Y-17351500D01*
X3701500Y-17401500D01*
X4195071Y-17487214D02*
X4023643Y-17487214D01*
X4109357Y-17487214D02*
X4109357Y-17187214D01*
X4080786Y-17230072D01*
X4052214Y-17258643D01*
X4023643Y-17272929D01*
X4323643Y-17458643D02*
X4337928Y-17472929D01*
X4323643Y-17487214D01*
X4309357Y-17472929D01*
X4323643Y-17458643D01*
X4323643Y-17487214D01*
X4523643Y-17187214D02*
X4552214Y-17187214D01*
X4580786Y-17201500D01*
X4595071Y-17215786D01*
X4609357Y-17244357D01*
X4623643Y-17301500D01*
X4623643Y-17372929D01*
X4609357Y-17430072D01*
X4595071Y-17458643D01*
X4580786Y-17472929D01*
X4552214Y-17487214D01*
X4523643Y-17487214D01*
X4495071Y-17472929D01*
X4480786Y-17458643D01*
X4466500Y-17430072D01*
X4452214Y-17372929D01*
X4452214Y-17301500D01*
X4466500Y-17244357D01*
X4480786Y-17215786D01*
X4495071Y-17201500D01*
X4523643Y-17187214D01*
X4809357Y-17187214D02*
X4837928Y-17187214D01*
X4866500Y-17201500D01*
X4880786Y-17215786D01*
X4895071Y-17244357D01*
X4909357Y-17301500D01*
X4909357Y-17372929D01*
X4895071Y-17430072D01*
X4880786Y-17458643D01*
X4866500Y-17472929D01*
X4837928Y-17487214D01*
X4809357Y-17487214D01*
X4780786Y-17472929D01*
X4766500Y-17458643D01*
X4752214Y-17430072D01*
X4737928Y-17372929D01*
X4737928Y-17301500D01*
X4752214Y-17244357D01*
X4766500Y-17215786D01*
X4780786Y-17201500D01*
X4809357Y-17187214D01*
X5037928Y-17487214D02*
X5037928Y-17287214D01*
X5037928Y-17315786D02*
X5052214Y-17301500D01*
X5080786Y-17287214D01*
X5123643Y-17287214D01*
X5152214Y-17301500D01*
X5166500Y-17330072D01*
X5166500Y-17487214D01*
X5166500Y-17330072D02*
X5180786Y-17301500D01*
X5209357Y-17287214D01*
X5252214Y-17287214D01*
X5280786Y-17301500D01*
X5295071Y-17330072D01*
X5295071Y-17487214D01*
X5437928Y-17487214D02*
X5437928Y-17287214D01*
X5437928Y-17315786D02*
X5452214Y-17301500D01*
X5480786Y-17287214D01*
X5523643Y-17287214D01*
X5552214Y-17301500D01*
X5566500Y-17330072D01*
X5566500Y-17487214D01*
X5566500Y-17330072D02*
X5580786Y-17301500D01*
X5609357Y-17287214D01*
X5652214Y-17287214D01*
X5680786Y-17301500D01*
X5695071Y-17330072D01*
X5695071Y-17487214D01*
X6280786Y-17172929D02*
X6023643Y-17558643D01*
X6666500Y-17187214D02*
X6695071Y-17187214D01*
X6723643Y-17201500D01*
X6737928Y-17215786D01*
X6752214Y-17244357D01*
X6766500Y-17301500D01*
X6766500Y-17372929D01*
X6752214Y-17430072D01*
X6737928Y-17458643D01*
X6723643Y-17472929D01*
X6695071Y-17487214D01*
X6666500Y-17487214D01*
X6637928Y-17472929D01*
X6623643Y-17458643D01*
X6609357Y-17430072D01*
X6595071Y-17372929D01*
X6595071Y-17301500D01*
X6609357Y-17244357D01*
X6623643Y-17215786D01*
X6637928Y-17201500D01*
X6666500Y-17187214D01*
X6895071Y-17458643D02*
X6909357Y-17472929D01*
X6895071Y-17487214D01*
X6880786Y-17472929D01*
X6895071Y-17458643D01*
X6895071Y-17487214D01*
X7095071Y-17187214D02*
X7123643Y-17187214D01*
X7152214Y-17201500D01*
X7166500Y-17215786D01*
X7180786Y-17244357D01*
X7195071Y-17301500D01*
X7195071Y-17372929D01*
X7180786Y-17430072D01*
X7166500Y-17458643D01*
X7152214Y-17472929D01*
X7123643Y-17487214D01*
X7095071Y-17487214D01*
X7066500Y-17472929D01*
X7052214Y-17458643D01*
X7037928Y-17430072D01*
X7023643Y-17372929D01*
X7023643Y-17301500D01*
X7037928Y-17244357D01*
X7052214Y-17215786D01*
X7066500Y-17201500D01*
X7095071Y-17187214D01*
X7295071Y-17187214D02*
X7480786Y-17187214D01*
X7380786Y-17301500D01*
X7423643Y-17301500D01*
X7452214Y-17315786D01*
X7466500Y-17330072D01*
X7480786Y-17358643D01*
X7480786Y-17430072D01*
X7466500Y-17458643D01*
X7452214Y-17472929D01*
X7423643Y-17487214D01*
X7337928Y-17487214D01*
X7309357Y-17472929D01*
X7295071Y-17458643D01*
X7623643Y-17487214D02*
X7680786Y-17487214D01*
X7709357Y-17472929D01*
X7723643Y-17458643D01*
X7752214Y-17415786D01*
X7766500Y-17358643D01*
X7766500Y-17244357D01*
X7752214Y-17215786D01*
X7737928Y-17201500D01*
X7709357Y-17187214D01*
X7652214Y-17187214D01*
X7623643Y-17201500D01*
X7609357Y-17215786D01*
X7595071Y-17244357D01*
X7595071Y-17315786D01*
X7609357Y-17344357D01*
X7623643Y-17358643D01*
X7652214Y-17372929D01*
X7709357Y-17372929D01*
X7737928Y-17358643D01*
X7752214Y-17344357D01*
X7766500Y-17315786D01*
X7880786Y-17187214D02*
X7880786Y-17244357D01*
X7995071Y-17187214D02*
X7995071Y-17244357D01*
X8437928Y-17601500D02*
X8423643Y-17587214D01*
X8395071Y-17544357D01*
X8380786Y-17515786D01*
X8366500Y-17472929D01*
X8352214Y-17401500D01*
X8352214Y-17344357D01*
X8366500Y-17272929D01*
X8380786Y-17230072D01*
X8395071Y-17201500D01*
X8423643Y-17158643D01*
X8437928Y-17144357D01*
X8680786Y-17287214D02*
X8680786Y-17487214D01*
X8609357Y-17172929D02*
X8537928Y-17387214D01*
X8723643Y-17387214D01*
X8966500Y-17287214D02*
X8966500Y-17487214D01*
X8895071Y-17172929D02*
X8823643Y-17387214D01*
X9009357Y-17387214D01*
X9352214Y-17487214D02*
X9352214Y-17187214D01*
X9480786Y-17487214D02*
X9480786Y-17330072D01*
X9466500Y-17301500D01*
X9437928Y-17287214D01*
X9395071Y-17287214D01*
X9366500Y-17301500D01*
X9352214Y-17315786D01*
X9666500Y-17487214D02*
X9637928Y-17472929D01*
X9623643Y-17458643D01*
X9609357Y-17430072D01*
X9609357Y-17344357D01*
X9623643Y-17315786D01*
X9637928Y-17301500D01*
X9666500Y-17287214D01*
X9709357Y-17287214D01*
X9737928Y-17301500D01*
X9752214Y-17315786D01*
X9766500Y-17344357D01*
X9766500Y-17430072D01*
X9752214Y-17458643D01*
X9737928Y-17472929D01*
X9709357Y-17487214D01*
X9666500Y-17487214D01*
X9937928Y-17487214D02*
X9909357Y-17472929D01*
X9895071Y-17444357D01*
X9895071Y-17187214D01*
X10166500Y-17472929D02*
X10137928Y-17487214D01*
X10080786Y-17487214D01*
X10052214Y-17472929D01*
X10037928Y-17444357D01*
X10037928Y-17330072D01*
X10052214Y-17301500D01*
X10080786Y-17287214D01*
X10137928Y-17287214D01*
X10166500Y-17301500D01*
X10180786Y-17330072D01*
X10180786Y-17358643D01*
X10037928Y-17387214D01*
X10295071Y-17472929D02*
X10323643Y-17487214D01*
X10380786Y-17487214D01*
X10409357Y-17472929D01*
X10423643Y-17444357D01*
X10423643Y-17430072D01*
X10409357Y-17401500D01*
X10380786Y-17387214D01*
X10337928Y-17387214D01*
X10309357Y-17372929D01*
X10295071Y-17344357D01*
X10295071Y-17330072D01*
X10309357Y-17301500D01*
X10337928Y-17287214D01*
X10380786Y-17287214D01*
X10409357Y-17301500D01*
X10523643Y-17601500D02*
X10537928Y-17587214D01*
X10566500Y-17544357D01*
X10580786Y-17515786D01*
X10595071Y-17472929D01*
X10609357Y-17401500D01*
X10609357Y-17344357D01*
X10595071Y-17272929D01*
X10580786Y-17230072D01*
X10566500Y-17201500D01*
X10537928Y-17158643D01*
X10523643Y-17144357D01*
X3636500Y-17690000D02*
X3751500Y-17805000D01*
X3751500Y-17690000D02*
X3636500Y-17805000D01*
X3751500Y-17747500D02*
G75*
G03*
X3751500Y-17747500I-57500J0D01*
G01*
X4195071Y-17883214D02*
X4023643Y-17883214D01*
X4109357Y-17883214D02*
X4109357Y-17583214D01*
X4080786Y-17626072D01*
X4052214Y-17654643D01*
X4023643Y-17668929D01*
X4323643Y-17854643D02*
X4337928Y-17868929D01*
X4323643Y-17883214D01*
X4309357Y-17868929D01*
X4323643Y-17854643D01*
X4323643Y-17883214D01*
X4623643Y-17883214D02*
X4452214Y-17883214D01*
X4537928Y-17883214D02*
X4537928Y-17583214D01*
X4509357Y-17626072D01*
X4480786Y-17654643D01*
X4452214Y-17668929D01*
X4895071Y-17583214D02*
X4752214Y-17583214D01*
X4737928Y-17726072D01*
X4752214Y-17711786D01*
X4780786Y-17697500D01*
X4852214Y-17697500D01*
X4880786Y-17711786D01*
X4895071Y-17726072D01*
X4909357Y-17754643D01*
X4909357Y-17826072D01*
X4895071Y-17854643D01*
X4880786Y-17868929D01*
X4852214Y-17883214D01*
X4780786Y-17883214D01*
X4752214Y-17868929D01*
X4737928Y-17854643D01*
X5037928Y-17883214D02*
X5037928Y-17683214D01*
X5037928Y-17711786D02*
X5052214Y-17697500D01*
X5080786Y-17683214D01*
X5123643Y-17683214D01*
X5152214Y-17697500D01*
X5166500Y-17726072D01*
X5166500Y-17883214D01*
X5166500Y-17726072D02*
X5180786Y-17697500D01*
X5209357Y-17683214D01*
X5252214Y-17683214D01*
X5280786Y-17697500D01*
X5295071Y-17726072D01*
X5295071Y-17883214D01*
X5437928Y-17883214D02*
X5437928Y-17683214D01*
X5437928Y-17711786D02*
X5452214Y-17697500D01*
X5480786Y-17683214D01*
X5523643Y-17683214D01*
X5552214Y-17697500D01*
X5566500Y-17726072D01*
X5566500Y-17883214D01*
X5566500Y-17726072D02*
X5580786Y-17697500D01*
X5609357Y-17683214D01*
X5652214Y-17683214D01*
X5680786Y-17697500D01*
X5695071Y-17726072D01*
X5695071Y-17883214D01*
X6280786Y-17568929D02*
X6023643Y-17954643D01*
X6666500Y-17583214D02*
X6695071Y-17583214D01*
X6723643Y-17597500D01*
X6737928Y-17611786D01*
X6752214Y-17640357D01*
X6766500Y-17697500D01*
X6766500Y-17768929D01*
X6752214Y-17826072D01*
X6737928Y-17854643D01*
X6723643Y-17868929D01*
X6695071Y-17883214D01*
X6666500Y-17883214D01*
X6637928Y-17868929D01*
X6623643Y-17854643D01*
X6609357Y-17826072D01*
X6595071Y-17768929D01*
X6595071Y-17697500D01*
X6609357Y-17640357D01*
X6623643Y-17611786D01*
X6637928Y-17597500D01*
X6666500Y-17583214D01*
X6895071Y-17854643D02*
X6909357Y-17868929D01*
X6895071Y-17883214D01*
X6880786Y-17868929D01*
X6895071Y-17854643D01*
X6895071Y-17883214D01*
X7095071Y-17583214D02*
X7123643Y-17583214D01*
X7152214Y-17597500D01*
X7166500Y-17611786D01*
X7180786Y-17640357D01*
X7195071Y-17697500D01*
X7195071Y-17768929D01*
X7180786Y-17826072D01*
X7166500Y-17854643D01*
X7152214Y-17868929D01*
X7123643Y-17883214D01*
X7095071Y-17883214D01*
X7066500Y-17868929D01*
X7052214Y-17854643D01*
X7037928Y-17826072D01*
X7023643Y-17768929D01*
X7023643Y-17697500D01*
X7037928Y-17640357D01*
X7052214Y-17611786D01*
X7066500Y-17597500D01*
X7095071Y-17583214D01*
X7452214Y-17683214D02*
X7452214Y-17883214D01*
X7380786Y-17568929D02*
X7309357Y-17783214D01*
X7495071Y-17783214D01*
X7752214Y-17583214D02*
X7609357Y-17583214D01*
X7595071Y-17726072D01*
X7609357Y-17711786D01*
X7637928Y-17697500D01*
X7709357Y-17697500D01*
X7737928Y-17711786D01*
X7752214Y-17726072D01*
X7766500Y-17754643D01*
X7766500Y-17826072D01*
X7752214Y-17854643D01*
X7737928Y-17868929D01*
X7709357Y-17883214D01*
X7637928Y-17883214D01*
X7609357Y-17868929D01*
X7595071Y-17854643D01*
X7880786Y-17583214D02*
X7880786Y-17640357D01*
X7995071Y-17583214D02*
X7995071Y-17640357D01*
X8437928Y-17997500D02*
X8423643Y-17983214D01*
X8395071Y-17940357D01*
X8380786Y-17911786D01*
X8366500Y-17868929D01*
X8352214Y-17797500D01*
X8352214Y-17740357D01*
X8366500Y-17668929D01*
X8380786Y-17626072D01*
X8395071Y-17597500D01*
X8423643Y-17554643D01*
X8437928Y-17540357D01*
X8709357Y-17883214D02*
X8537928Y-17883214D01*
X8623643Y-17883214D02*
X8623643Y-17583214D01*
X8595071Y-17626072D01*
X8566500Y-17654643D01*
X8537928Y-17668929D01*
X8809357Y-17583214D02*
X9009357Y-17583214D01*
X8880786Y-17883214D01*
X9180786Y-17583214D02*
X9209357Y-17583214D01*
X9237928Y-17597500D01*
X9252214Y-17611786D01*
X9266500Y-17640357D01*
X9280786Y-17697500D01*
X9280786Y-17768929D01*
X9266500Y-17826072D01*
X9252214Y-17854643D01*
X9237928Y-17868929D01*
X9209357Y-17883214D01*
X9180786Y-17883214D01*
X9152214Y-17868929D01*
X9137928Y-17854643D01*
X9123643Y-17826072D01*
X9109357Y-17768929D01*
X9109357Y-17697500D01*
X9123643Y-17640357D01*
X9137928Y-17611786D01*
X9152214Y-17597500D01*
X9180786Y-17583214D01*
X9637928Y-17883214D02*
X9637928Y-17583214D01*
X9766500Y-17883214D02*
X9766500Y-17726072D01*
X9752214Y-17697500D01*
X9723643Y-17683214D01*
X9680786Y-17683214D01*
X9652214Y-17697500D01*
X9637928Y-17711786D01*
X9952214Y-17883214D02*
X9923643Y-17868929D01*
X9909357Y-17854643D01*
X9895071Y-17826072D01*
X9895071Y-17740357D01*
X9909357Y-17711786D01*
X9923643Y-17697500D01*
X9952214Y-17683214D01*
X9995071Y-17683214D01*
X10023643Y-17697500D01*
X10037928Y-17711786D01*
X10052214Y-17740357D01*
X10052214Y-17826072D01*
X10037928Y-17854643D01*
X10023643Y-17868929D01*
X9995071Y-17883214D01*
X9952214Y-17883214D01*
X10223643Y-17883214D02*
X10195071Y-17868929D01*
X10180786Y-17840357D01*
X10180786Y-17583214D01*
X10452214Y-17868929D02*
X10423643Y-17883214D01*
X10366500Y-17883214D01*
X10337928Y-17868929D01*
X10323643Y-17840357D01*
X10323643Y-17726072D01*
X10337928Y-17697500D01*
X10366500Y-17683214D01*
X10423643Y-17683214D01*
X10452214Y-17697500D01*
X10466500Y-17726072D01*
X10466500Y-17754643D01*
X10323643Y-17783214D01*
X10580786Y-17868929D02*
X10609357Y-17883214D01*
X10666500Y-17883214D01*
X10695071Y-17868929D01*
X10709357Y-17840357D01*
X10709357Y-17826072D01*
X10695071Y-17797500D01*
X10666500Y-17783214D01*
X10623643Y-17783214D01*
X10595071Y-17768929D01*
X10580786Y-17740357D01*
X10580786Y-17726072D01*
X10595071Y-17697500D01*
X10623643Y-17683214D01*
X10666500Y-17683214D01*
X10695071Y-17697500D01*
X10809357Y-17997500D02*
X10823643Y-17983214D01*
X10852214Y-17940357D01*
X10866500Y-17911786D01*
X10880786Y-17868929D01*
X10895071Y-17797500D01*
X10895071Y-17740357D01*
X10880786Y-17668929D01*
X10866500Y-17626072D01*
X10852214Y-17597500D01*
X10823643Y-17554643D01*
X10809357Y-17540357D01*
X3631500Y-18083500D02*
X3751500Y-18203500D01*
X3751500Y-18083500D02*
X3631500Y-18203500D01*
X3691500Y-18083500D02*
X3691500Y-18203500D01*
X3631500Y-18143500D02*
X3751500Y-18143500D01*
X4195071Y-18279214D02*
X4023643Y-18279214D01*
X4109357Y-18279214D02*
X4109357Y-17979214D01*
X4080786Y-18022072D01*
X4052214Y-18050643D01*
X4023643Y-18064929D01*
X4323643Y-18250643D02*
X4337928Y-18264929D01*
X4323643Y-18279214D01*
X4309357Y-18264929D01*
X4323643Y-18250643D01*
X4323643Y-18279214D01*
X4452214Y-18007786D02*
X4466500Y-17993500D01*
X4495071Y-17979214D01*
X4566500Y-17979214D01*
X4595071Y-17993500D01*
X4609357Y-18007786D01*
X4623643Y-18036357D01*
X4623643Y-18064929D01*
X4609357Y-18107786D01*
X4437928Y-18279214D01*
X4623643Y-18279214D01*
X4809357Y-17979214D02*
X4837928Y-17979214D01*
X4866500Y-17993500D01*
X4880786Y-18007786D01*
X4895071Y-18036357D01*
X4909357Y-18093500D01*
X4909357Y-18164929D01*
X4895071Y-18222072D01*
X4880786Y-18250643D01*
X4866500Y-18264929D01*
X4837928Y-18279214D01*
X4809357Y-18279214D01*
X4780786Y-18264929D01*
X4766500Y-18250643D01*
X4752214Y-18222072D01*
X4737928Y-18164929D01*
X4737928Y-18093500D01*
X4752214Y-18036357D01*
X4766500Y-18007786D01*
X4780786Y-17993500D01*
X4809357Y-17979214D01*
X5037928Y-18279214D02*
X5037928Y-18079214D01*
X5037928Y-18107786D02*
X5052214Y-18093500D01*
X5080786Y-18079214D01*
X5123643Y-18079214D01*
X5152214Y-18093500D01*
X5166500Y-18122072D01*
X5166500Y-18279214D01*
X5166500Y-18122072D02*
X5180786Y-18093500D01*
X5209357Y-18079214D01*
X5252214Y-18079214D01*
X5280786Y-18093500D01*
X5295071Y-18122072D01*
X5295071Y-18279214D01*
X5437928Y-18279214D02*
X5437928Y-18079214D01*
X5437928Y-18107786D02*
X5452214Y-18093500D01*
X5480786Y-18079214D01*
X5523643Y-18079214D01*
X5552214Y-18093500D01*
X5566500Y-18122072D01*
X5566500Y-18279214D01*
X5566500Y-18122072D02*
X5580786Y-18093500D01*
X5609357Y-18079214D01*
X5652214Y-18079214D01*
X5680786Y-18093500D01*
X5695071Y-18122072D01*
X5695071Y-18279214D01*
X6280786Y-17964929D02*
X6023643Y-18350643D01*
X6666500Y-17979214D02*
X6695071Y-17979214D01*
X6723643Y-17993500D01*
X6737928Y-18007786D01*
X6752214Y-18036357D01*
X6766500Y-18093500D01*
X6766500Y-18164929D01*
X6752214Y-18222072D01*
X6737928Y-18250643D01*
X6723643Y-18264929D01*
X6695071Y-18279214D01*
X6666500Y-18279214D01*
X6637928Y-18264929D01*
X6623643Y-18250643D01*
X6609357Y-18222072D01*
X6595071Y-18164929D01*
X6595071Y-18093500D01*
X6609357Y-18036357D01*
X6623643Y-18007786D01*
X6637928Y-17993500D01*
X6666500Y-17979214D01*
X6895071Y-18250643D02*
X6909357Y-18264929D01*
X6895071Y-18279214D01*
X6880786Y-18264929D01*
X6895071Y-18250643D01*
X6895071Y-18279214D01*
X7095071Y-17979214D02*
X7123643Y-17979214D01*
X7152214Y-17993500D01*
X7166500Y-18007786D01*
X7180786Y-18036357D01*
X7195071Y-18093500D01*
X7195071Y-18164929D01*
X7180786Y-18222072D01*
X7166500Y-18250643D01*
X7152214Y-18264929D01*
X7123643Y-18279214D01*
X7095071Y-18279214D01*
X7066500Y-18264929D01*
X7052214Y-18250643D01*
X7037928Y-18222072D01*
X7023643Y-18164929D01*
X7023643Y-18093500D01*
X7037928Y-18036357D01*
X7052214Y-18007786D01*
X7066500Y-17993500D01*
X7095071Y-17979214D01*
X7452214Y-18079214D02*
X7452214Y-18279214D01*
X7380786Y-17964929D02*
X7309357Y-18179214D01*
X7495071Y-18179214D01*
X7580786Y-17979214D02*
X7780786Y-17979214D01*
X7652214Y-18279214D01*
X7880786Y-17979214D02*
X7880786Y-18036357D01*
X7995071Y-17979214D02*
X7995071Y-18036357D01*
X8437928Y-18393500D02*
X8423643Y-18379214D01*
X8395071Y-18336357D01*
X8380786Y-18307786D01*
X8366500Y-18264929D01*
X8352214Y-18193500D01*
X8352214Y-18136357D01*
X8366500Y-18064929D01*
X8380786Y-18022072D01*
X8395071Y-17993500D01*
X8423643Y-17950643D01*
X8437928Y-17936357D01*
X8537928Y-18007786D02*
X8552214Y-17993500D01*
X8580786Y-17979214D01*
X8652214Y-17979214D01*
X8680786Y-17993500D01*
X8695071Y-18007786D01*
X8709357Y-18036357D01*
X8709357Y-18064929D01*
X8695071Y-18107786D01*
X8523643Y-18279214D01*
X8709357Y-18279214D01*
X9066500Y-18279214D02*
X9066500Y-17979214D01*
X9195071Y-18279214D02*
X9195071Y-18122072D01*
X9180786Y-18093500D01*
X9152214Y-18079214D01*
X9109357Y-18079214D01*
X9080786Y-18093500D01*
X9066500Y-18107786D01*
X9380786Y-18279214D02*
X9352214Y-18264929D01*
X9337928Y-18250643D01*
X9323643Y-18222072D01*
X9323643Y-18136357D01*
X9337928Y-18107786D01*
X9352214Y-18093500D01*
X9380786Y-18079214D01*
X9423643Y-18079214D01*
X9452214Y-18093500D01*
X9466500Y-18107786D01*
X9480786Y-18136357D01*
X9480786Y-18222072D01*
X9466500Y-18250643D01*
X9452214Y-18264929D01*
X9423643Y-18279214D01*
X9380786Y-18279214D01*
X9652214Y-18279214D02*
X9623643Y-18264929D01*
X9609357Y-18236357D01*
X9609357Y-17979214D01*
X9880786Y-18264929D02*
X9852214Y-18279214D01*
X9795071Y-18279214D01*
X9766500Y-18264929D01*
X9752214Y-18236357D01*
X9752214Y-18122072D01*
X9766500Y-18093500D01*
X9795071Y-18079214D01*
X9852214Y-18079214D01*
X9880786Y-18093500D01*
X9895071Y-18122072D01*
X9895071Y-18150643D01*
X9752214Y-18179214D01*
X10009357Y-18264929D02*
X10037928Y-18279214D01*
X10095071Y-18279214D01*
X10123643Y-18264929D01*
X10137928Y-18236357D01*
X10137928Y-18222072D01*
X10123643Y-18193500D01*
X10095071Y-18179214D01*
X10052214Y-18179214D01*
X10023643Y-18164929D01*
X10009357Y-18136357D01*
X10009357Y-18122072D01*
X10023643Y-18093500D01*
X10052214Y-18079214D01*
X10095071Y-18079214D01*
X10123643Y-18093500D01*
X10237928Y-18393500D02*
X10252214Y-18379214D01*
X10280786Y-18336357D01*
X10295071Y-18307786D01*
X10309357Y-18264929D01*
X10323643Y-18193500D01*
X10323643Y-18136357D01*
X10309357Y-18064929D01*
X10295071Y-18022072D01*
X10280786Y-17993500D01*
X10252214Y-17950643D01*
X10237928Y-17936357D01*
X3601500Y-18464500D02*
X3751500Y-18614500D01*
X3751500Y-18464500D02*
X3601500Y-18614500D01*
X3729533Y-18592534D02*
X3729533Y-18486467D01*
X3623466Y-18486467D01*
X3623466Y-18592534D01*
X3729533Y-18592534D01*
X4195071Y-18675214D02*
X4023643Y-18675214D01*
X4109357Y-18675214D02*
X4109357Y-18375214D01*
X4080786Y-18418072D01*
X4052214Y-18446643D01*
X4023643Y-18460929D01*
X4323643Y-18646643D02*
X4337928Y-18660929D01*
X4323643Y-18675214D01*
X4309357Y-18660929D01*
X4323643Y-18646643D01*
X4323643Y-18675214D01*
X4609357Y-18375214D02*
X4466500Y-18375214D01*
X4452214Y-18518072D01*
X4466500Y-18503786D01*
X4495071Y-18489500D01*
X4566500Y-18489500D01*
X4595071Y-18503786D01*
X4609357Y-18518072D01*
X4623643Y-18546643D01*
X4623643Y-18618072D01*
X4609357Y-18646643D01*
X4595071Y-18660929D01*
X4566500Y-18675214D01*
X4495071Y-18675214D01*
X4466500Y-18660929D01*
X4452214Y-18646643D01*
X4809357Y-18375214D02*
X4837928Y-18375214D01*
X4866500Y-18389500D01*
X4880786Y-18403786D01*
X4895071Y-18432357D01*
X4909357Y-18489500D01*
X4909357Y-18560929D01*
X4895071Y-18618072D01*
X4880786Y-18646643D01*
X4866500Y-18660929D01*
X4837928Y-18675214D01*
X4809357Y-18675214D01*
X4780786Y-18660929D01*
X4766500Y-18646643D01*
X4752214Y-18618072D01*
X4737928Y-18560929D01*
X4737928Y-18489500D01*
X4752214Y-18432357D01*
X4766500Y-18403786D01*
X4780786Y-18389500D01*
X4809357Y-18375214D01*
X5037928Y-18675214D02*
X5037928Y-18475214D01*
X5037928Y-18503786D02*
X5052214Y-18489500D01*
X5080786Y-18475214D01*
X5123643Y-18475214D01*
X5152214Y-18489500D01*
X5166500Y-18518072D01*
X5166500Y-18675214D01*
X5166500Y-18518072D02*
X5180786Y-18489500D01*
X5209357Y-18475214D01*
X5252214Y-18475214D01*
X5280786Y-18489500D01*
X5295071Y-18518072D01*
X5295071Y-18675214D01*
X5437928Y-18675214D02*
X5437928Y-18475214D01*
X5437928Y-18503786D02*
X5452214Y-18489500D01*
X5480786Y-18475214D01*
X5523643Y-18475214D01*
X5552214Y-18489500D01*
X5566500Y-18518072D01*
X5566500Y-18675214D01*
X5566500Y-18518072D02*
X5580786Y-18489500D01*
X5609357Y-18475214D01*
X5652214Y-18475214D01*
X5680786Y-18489500D01*
X5695071Y-18518072D01*
X5695071Y-18675214D01*
X6280786Y-18360929D02*
X6023643Y-18746643D01*
X6666500Y-18375214D02*
X6695071Y-18375214D01*
X6723643Y-18389500D01*
X6737928Y-18403786D01*
X6752214Y-18432357D01*
X6766500Y-18489500D01*
X6766500Y-18560929D01*
X6752214Y-18618072D01*
X6737928Y-18646643D01*
X6723643Y-18660929D01*
X6695071Y-18675214D01*
X6666500Y-18675214D01*
X6637928Y-18660929D01*
X6623643Y-18646643D01*
X6609357Y-18618072D01*
X6595071Y-18560929D01*
X6595071Y-18489500D01*
X6609357Y-18432357D01*
X6623643Y-18403786D01*
X6637928Y-18389500D01*
X6666500Y-18375214D01*
X6895071Y-18646643D02*
X6909357Y-18660929D01*
X6895071Y-18675214D01*
X6880786Y-18660929D01*
X6895071Y-18646643D01*
X6895071Y-18675214D01*
X7095071Y-18375214D02*
X7123643Y-18375214D01*
X7152214Y-18389500D01*
X7166500Y-18403786D01*
X7180786Y-18432357D01*
X7195071Y-18489500D01*
X7195071Y-18560929D01*
X7180786Y-18618072D01*
X7166500Y-18646643D01*
X7152214Y-18660929D01*
X7123643Y-18675214D01*
X7095071Y-18675214D01*
X7066500Y-18660929D01*
X7052214Y-18646643D01*
X7037928Y-18618072D01*
X7023643Y-18560929D01*
X7023643Y-18489500D01*
X7037928Y-18432357D01*
X7052214Y-18403786D01*
X7066500Y-18389500D01*
X7095071Y-18375214D01*
X7466500Y-18375214D02*
X7323643Y-18375214D01*
X7309357Y-18518072D01*
X7323643Y-18503786D01*
X7352214Y-18489500D01*
X7423643Y-18489500D01*
X7452214Y-18503786D01*
X7466500Y-18518072D01*
X7480786Y-18546643D01*
X7480786Y-18618072D01*
X7466500Y-18646643D01*
X7452214Y-18660929D01*
X7423643Y-18675214D01*
X7352214Y-18675214D01*
X7323643Y-18660929D01*
X7309357Y-18646643D01*
X7623643Y-18675214D02*
X7680786Y-18675214D01*
X7709357Y-18660929D01*
X7723643Y-18646643D01*
X7752214Y-18603786D01*
X7766500Y-18546643D01*
X7766500Y-18432357D01*
X7752214Y-18403786D01*
X7737928Y-18389500D01*
X7709357Y-18375214D01*
X7652214Y-18375214D01*
X7623643Y-18389500D01*
X7609357Y-18403786D01*
X7595071Y-18432357D01*
X7595071Y-18503786D01*
X7609357Y-18532357D01*
X7623643Y-18546643D01*
X7652214Y-18560929D01*
X7709357Y-18560929D01*
X7737928Y-18546643D01*
X7752214Y-18532357D01*
X7766500Y-18503786D01*
X7880786Y-18375214D02*
X7880786Y-18432357D01*
X7995071Y-18375214D02*
X7995071Y-18432357D01*
X8437928Y-18789500D02*
X8423643Y-18775214D01*
X8395071Y-18732357D01*
X8380786Y-18703786D01*
X8366500Y-18660929D01*
X8352214Y-18589500D01*
X8352214Y-18532357D01*
X8366500Y-18460929D01*
X8380786Y-18418072D01*
X8395071Y-18389500D01*
X8423643Y-18346643D01*
X8437928Y-18332357D01*
X8680786Y-18475214D02*
X8680786Y-18675214D01*
X8609357Y-18360929D02*
X8537928Y-18575214D01*
X8723643Y-18575214D01*
X8995071Y-18675214D02*
X8823643Y-18675214D01*
X8909357Y-18675214D02*
X8909357Y-18375214D01*
X8880786Y-18418072D01*
X8852214Y-18446643D01*
X8823643Y-18460929D01*
X9352214Y-18675214D02*
X9352214Y-18375214D01*
X9480786Y-18675214D02*
X9480786Y-18518072D01*
X9466500Y-18489500D01*
X9437928Y-18475214D01*
X9395071Y-18475214D01*
X9366500Y-18489500D01*
X9352214Y-18503786D01*
X9666500Y-18675214D02*
X9637928Y-18660929D01*
X9623643Y-18646643D01*
X9609357Y-18618072D01*
X9609357Y-18532357D01*
X9623643Y-18503786D01*
X9637928Y-18489500D01*
X9666500Y-18475214D01*
X9709357Y-18475214D01*
X9737928Y-18489500D01*
X9752214Y-18503786D01*
X9766500Y-18532357D01*
X9766500Y-18618072D01*
X9752214Y-18646643D01*
X9737928Y-18660929D01*
X9709357Y-18675214D01*
X9666500Y-18675214D01*
X9937928Y-18675214D02*
X9909357Y-18660929D01*
X9895071Y-18632357D01*
X9895071Y-18375214D01*
X10166500Y-18660929D02*
X10137928Y-18675214D01*
X10080786Y-18675214D01*
X10052214Y-18660929D01*
X10037928Y-18632357D01*
X10037928Y-18518072D01*
X10052214Y-18489500D01*
X10080786Y-18475214D01*
X10137928Y-18475214D01*
X10166500Y-18489500D01*
X10180786Y-18518072D01*
X10180786Y-18546643D01*
X10037928Y-18575214D01*
X10295071Y-18660929D02*
X10323643Y-18675214D01*
X10380786Y-18675214D01*
X10409357Y-18660929D01*
X10423643Y-18632357D01*
X10423643Y-18618072D01*
X10409357Y-18589500D01*
X10380786Y-18575214D01*
X10337928Y-18575214D01*
X10309357Y-18560929D01*
X10295071Y-18532357D01*
X10295071Y-18518072D01*
X10309357Y-18489500D01*
X10337928Y-18475214D01*
X10380786Y-18475214D01*
X10409357Y-18489500D01*
X10523643Y-18789500D02*
X10537928Y-18775214D01*
X10566500Y-18732357D01*
X10580786Y-18703786D01*
X10595071Y-18660929D01*
X10609357Y-18589500D01*
X10609357Y-18532357D01*
X10595071Y-18460929D01*
X10580786Y-18418072D01*
X10566500Y-18389500D01*
X10537928Y-18346643D01*
X10523643Y-18332357D01*
X3481500Y-18800500D02*
X3751500Y-19070500D01*
X3751500Y-18800500D02*
X3481500Y-19070500D01*
X3616500Y-19070500D02*
X3751500Y-18935500D01*
X3616500Y-18800500D01*
X3481500Y-18935500D01*
X3616500Y-19070500D01*
X4023643Y-18799786D02*
X4037928Y-18785500D01*
X4066500Y-18771214D01*
X4137928Y-18771214D01*
X4166500Y-18785500D01*
X4180786Y-18799786D01*
X4195071Y-18828357D01*
X4195071Y-18856929D01*
X4180786Y-18899786D01*
X4009357Y-19071214D01*
X4195071Y-19071214D01*
X4323643Y-19042643D02*
X4337928Y-19056929D01*
X4323643Y-19071214D01*
X4309357Y-19056929D01*
X4323643Y-19042643D01*
X4323643Y-19071214D01*
X4437928Y-18771214D02*
X4637928Y-18771214D01*
X4509357Y-19071214D01*
X4809357Y-18771214D02*
X4837928Y-18771214D01*
X4866500Y-18785500D01*
X4880786Y-18799786D01*
X4895071Y-18828357D01*
X4909357Y-18885500D01*
X4909357Y-18956929D01*
X4895071Y-19014072D01*
X4880786Y-19042643D01*
X4866500Y-19056929D01*
X4837928Y-19071214D01*
X4809357Y-19071214D01*
X4780786Y-19056929D01*
X4766500Y-19042643D01*
X4752214Y-19014072D01*
X4737928Y-18956929D01*
X4737928Y-18885500D01*
X4752214Y-18828357D01*
X4766500Y-18799786D01*
X4780786Y-18785500D01*
X4809357Y-18771214D01*
X5037928Y-19071214D02*
X5037928Y-18871214D01*
X5037928Y-18899786D02*
X5052214Y-18885500D01*
X5080786Y-18871214D01*
X5123643Y-18871214D01*
X5152214Y-18885500D01*
X5166500Y-18914072D01*
X5166500Y-19071214D01*
X5166500Y-18914072D02*
X5180786Y-18885500D01*
X5209357Y-18871214D01*
X5252214Y-18871214D01*
X5280786Y-18885500D01*
X5295071Y-18914072D01*
X5295071Y-19071214D01*
X5437928Y-19071214D02*
X5437928Y-18871214D01*
X5437928Y-18899786D02*
X5452214Y-18885500D01*
X5480786Y-18871214D01*
X5523643Y-18871214D01*
X5552214Y-18885500D01*
X5566500Y-18914072D01*
X5566500Y-19071214D01*
X5566500Y-18914072D02*
X5580786Y-18885500D01*
X5609357Y-18871214D01*
X5652214Y-18871214D01*
X5680786Y-18885500D01*
X5695071Y-18914072D01*
X5695071Y-19071214D01*
X6280786Y-18756929D02*
X6023643Y-19142643D01*
X6666500Y-18771214D02*
X6695071Y-18771214D01*
X6723643Y-18785500D01*
X6737928Y-18799786D01*
X6752214Y-18828357D01*
X6766500Y-18885500D01*
X6766500Y-18956929D01*
X6752214Y-19014072D01*
X6737928Y-19042643D01*
X6723643Y-19056929D01*
X6695071Y-19071214D01*
X6666500Y-19071214D01*
X6637928Y-19056929D01*
X6623643Y-19042643D01*
X6609357Y-19014072D01*
X6595071Y-18956929D01*
X6595071Y-18885500D01*
X6609357Y-18828357D01*
X6623643Y-18799786D01*
X6637928Y-18785500D01*
X6666500Y-18771214D01*
X6895071Y-19042643D02*
X6909357Y-19056929D01*
X6895071Y-19071214D01*
X6880786Y-19056929D01*
X6895071Y-19042643D01*
X6895071Y-19071214D01*
X7195071Y-19071214D02*
X7023643Y-19071214D01*
X7109357Y-19071214D02*
X7109357Y-18771214D01*
X7080786Y-18814072D01*
X7052214Y-18842643D01*
X7023643Y-18856929D01*
X7380786Y-18771214D02*
X7409357Y-18771214D01*
X7437928Y-18785500D01*
X7452214Y-18799786D01*
X7466500Y-18828357D01*
X7480786Y-18885500D01*
X7480786Y-18956929D01*
X7466500Y-19014072D01*
X7452214Y-19042643D01*
X7437928Y-19056929D01*
X7409357Y-19071214D01*
X7380786Y-19071214D01*
X7352214Y-19056929D01*
X7337928Y-19042643D01*
X7323643Y-19014072D01*
X7309357Y-18956929D01*
X7309357Y-18885500D01*
X7323643Y-18828357D01*
X7337928Y-18799786D01*
X7352214Y-18785500D01*
X7380786Y-18771214D01*
X7737928Y-18771214D02*
X7680786Y-18771214D01*
X7652214Y-18785500D01*
X7637928Y-18799786D01*
X7609357Y-18842643D01*
X7595071Y-18899786D01*
X7595071Y-19014072D01*
X7609357Y-19042643D01*
X7623643Y-19056929D01*
X7652214Y-19071214D01*
X7709357Y-19071214D01*
X7737928Y-19056929D01*
X7752214Y-19042643D01*
X7766500Y-19014072D01*
X7766500Y-18942643D01*
X7752214Y-18914072D01*
X7737928Y-18899786D01*
X7709357Y-18885500D01*
X7652214Y-18885500D01*
X7623643Y-18899786D01*
X7609357Y-18914072D01*
X7595071Y-18942643D01*
X7880786Y-18771214D02*
X7880786Y-18828357D01*
X7995071Y-18771214D02*
X7995071Y-18828357D01*
X8437928Y-19185500D02*
X8423643Y-19171214D01*
X8395071Y-19128357D01*
X8380786Y-19099786D01*
X8366500Y-19056929D01*
X8352214Y-18985500D01*
X8352214Y-18928357D01*
X8366500Y-18856929D01*
X8380786Y-18814072D01*
X8395071Y-18785500D01*
X8423643Y-18742643D01*
X8437928Y-18728357D01*
X8680786Y-18871214D02*
X8680786Y-19071214D01*
X8609357Y-18756929D02*
X8537928Y-18971214D01*
X8723643Y-18971214D01*
X9066500Y-19071214D02*
X9066500Y-18771214D01*
X9195071Y-19071214D02*
X9195071Y-18914072D01*
X9180786Y-18885500D01*
X9152214Y-18871214D01*
X9109357Y-18871214D01*
X9080786Y-18885500D01*
X9066500Y-18899786D01*
X9380786Y-19071214D02*
X9352214Y-19056929D01*
X9337928Y-19042643D01*
X9323643Y-19014072D01*
X9323643Y-18928357D01*
X9337928Y-18899786D01*
X9352214Y-18885500D01*
X9380786Y-18871214D01*
X9423643Y-18871214D01*
X9452214Y-18885500D01*
X9466500Y-18899786D01*
X9480786Y-18928357D01*
X9480786Y-19014072D01*
X9466500Y-19042643D01*
X9452214Y-19056929D01*
X9423643Y-19071214D01*
X9380786Y-19071214D01*
X9652214Y-19071214D02*
X9623643Y-19056929D01*
X9609357Y-19028357D01*
X9609357Y-18771214D01*
X9880786Y-19056929D02*
X9852214Y-19071214D01*
X9795071Y-19071214D01*
X9766500Y-19056929D01*
X9752214Y-19028357D01*
X9752214Y-18914072D01*
X9766500Y-18885500D01*
X9795071Y-18871214D01*
X9852214Y-18871214D01*
X9880786Y-18885500D01*
X9895071Y-18914072D01*
X9895071Y-18942643D01*
X9752214Y-18971214D01*
X10009357Y-19056929D02*
X10037928Y-19071214D01*
X10095071Y-19071214D01*
X10123643Y-19056929D01*
X10137928Y-19028357D01*
X10137928Y-19014072D01*
X10123643Y-18985500D01*
X10095071Y-18971214D01*
X10052214Y-18971214D01*
X10023643Y-18956929D01*
X10009357Y-18928357D01*
X10009357Y-18914072D01*
X10023643Y-18885500D01*
X10052214Y-18871214D01*
X10095071Y-18871214D01*
X10123643Y-18885500D01*
X10237928Y-19185500D02*
X10252214Y-19171214D01*
X10280786Y-19128357D01*
X10295071Y-19099786D01*
X10309357Y-19056929D01*
X10323643Y-18985500D01*
X10323643Y-18928357D01*
X10309357Y-18856929D01*
X10295071Y-18814072D01*
X10280786Y-18785500D01*
X10252214Y-18742643D01*
X10237928Y-18728357D01*
X3591500Y-19175500D02*
X3591500Y-19495500D01*
X3431500Y-19335500D02*
X3751500Y-19335500D01*
X3751500Y-19335500D02*
G75*
G03*
X3751500Y-19335500I-160000J0D01*
G01*
X4009357Y-19171214D02*
X4195071Y-19171214D01*
X4095071Y-19285500D01*
X4137928Y-19285500D01*
X4166500Y-19299786D01*
X4180786Y-19314072D01*
X4195071Y-19342643D01*
X4195071Y-19414072D01*
X4180786Y-19442643D01*
X4166500Y-19456929D01*
X4137928Y-19471214D01*
X4052214Y-19471214D01*
X4023643Y-19456929D01*
X4009357Y-19442643D01*
X4323643Y-19442643D02*
X4337928Y-19456929D01*
X4323643Y-19471214D01*
X4309357Y-19456929D01*
X4323643Y-19442643D01*
X4323643Y-19471214D01*
X4452214Y-19199786D02*
X4466500Y-19185500D01*
X4495071Y-19171214D01*
X4566500Y-19171214D01*
X4595071Y-19185500D01*
X4609357Y-19199786D01*
X4623643Y-19228357D01*
X4623643Y-19256929D01*
X4609357Y-19299786D01*
X4437928Y-19471214D01*
X4623643Y-19471214D01*
X4809357Y-19171214D02*
X4837928Y-19171214D01*
X4866500Y-19185500D01*
X4880786Y-19199786D01*
X4895071Y-19228357D01*
X4909357Y-19285500D01*
X4909357Y-19356929D01*
X4895071Y-19414072D01*
X4880786Y-19442643D01*
X4866500Y-19456929D01*
X4837928Y-19471214D01*
X4809357Y-19471214D01*
X4780786Y-19456929D01*
X4766500Y-19442643D01*
X4752214Y-19414072D01*
X4737928Y-19356929D01*
X4737928Y-19285500D01*
X4752214Y-19228357D01*
X4766500Y-19199786D01*
X4780786Y-19185500D01*
X4809357Y-19171214D01*
X5037928Y-19471214D02*
X5037928Y-19271214D01*
X5037928Y-19299786D02*
X5052214Y-19285500D01*
X5080786Y-19271214D01*
X5123643Y-19271214D01*
X5152214Y-19285500D01*
X5166500Y-19314072D01*
X5166500Y-19471214D01*
X5166500Y-19314072D02*
X5180786Y-19285500D01*
X5209357Y-19271214D01*
X5252214Y-19271214D01*
X5280786Y-19285500D01*
X5295071Y-19314072D01*
X5295071Y-19471214D01*
X5437928Y-19471214D02*
X5437928Y-19271214D01*
X5437928Y-19299786D02*
X5452214Y-19285500D01*
X5480786Y-19271214D01*
X5523643Y-19271214D01*
X5552214Y-19285500D01*
X5566500Y-19314072D01*
X5566500Y-19471214D01*
X5566500Y-19314072D02*
X5580786Y-19285500D01*
X5609357Y-19271214D01*
X5652214Y-19271214D01*
X5680786Y-19285500D01*
X5695071Y-19314072D01*
X5695071Y-19471214D01*
X6280786Y-19156929D02*
X6023643Y-19542643D01*
X6666500Y-19171214D02*
X6695071Y-19171214D01*
X6723643Y-19185500D01*
X6737928Y-19199786D01*
X6752214Y-19228357D01*
X6766500Y-19285500D01*
X6766500Y-19356929D01*
X6752214Y-19414072D01*
X6737928Y-19442643D01*
X6723643Y-19456929D01*
X6695071Y-19471214D01*
X6666500Y-19471214D01*
X6637928Y-19456929D01*
X6623643Y-19442643D01*
X6609357Y-19414072D01*
X6595071Y-19356929D01*
X6595071Y-19285500D01*
X6609357Y-19228357D01*
X6623643Y-19199786D01*
X6637928Y-19185500D01*
X6666500Y-19171214D01*
X6895071Y-19442643D02*
X6909357Y-19456929D01*
X6895071Y-19471214D01*
X6880786Y-19456929D01*
X6895071Y-19442643D01*
X6895071Y-19471214D01*
X7195071Y-19471214D02*
X7023643Y-19471214D01*
X7109357Y-19471214D02*
X7109357Y-19171214D01*
X7080786Y-19214072D01*
X7052214Y-19242643D01*
X7023643Y-19256929D01*
X7309357Y-19199786D02*
X7323643Y-19185500D01*
X7352214Y-19171214D01*
X7423643Y-19171214D01*
X7452214Y-19185500D01*
X7466500Y-19199786D01*
X7480786Y-19228357D01*
X7480786Y-19256929D01*
X7466500Y-19299786D01*
X7295071Y-19471214D01*
X7480786Y-19471214D01*
X7737928Y-19171214D02*
X7680786Y-19171214D01*
X7652214Y-19185500D01*
X7637928Y-19199786D01*
X7609357Y-19242643D01*
X7595071Y-19299786D01*
X7595071Y-19414072D01*
X7609357Y-19442643D01*
X7623643Y-19456929D01*
X7652214Y-19471214D01*
X7709357Y-19471214D01*
X7737928Y-19456929D01*
X7752214Y-19442643D01*
X7766500Y-19414072D01*
X7766500Y-19342643D01*
X7752214Y-19314072D01*
X7737928Y-19299786D01*
X7709357Y-19285500D01*
X7652214Y-19285500D01*
X7623643Y-19299786D01*
X7609357Y-19314072D01*
X7595071Y-19342643D01*
X7880786Y-19171214D02*
X7880786Y-19228357D01*
X7995071Y-19171214D02*
X7995071Y-19228357D01*
X8437928Y-19585500D02*
X8423643Y-19571214D01*
X8395071Y-19528357D01*
X8380786Y-19499786D01*
X8366500Y-19456929D01*
X8352214Y-19385500D01*
X8352214Y-19328357D01*
X8366500Y-19256929D01*
X8380786Y-19214072D01*
X8395071Y-19185500D01*
X8423643Y-19142643D01*
X8437928Y-19128357D01*
X8680786Y-19271214D02*
X8680786Y-19471214D01*
X8609357Y-19156929D02*
X8537928Y-19371214D01*
X8723643Y-19371214D01*
X9066500Y-19471214D02*
X9066500Y-19171214D01*
X9195071Y-19471214D02*
X9195071Y-19314072D01*
X9180786Y-19285500D01*
X9152214Y-19271214D01*
X9109357Y-19271214D01*
X9080786Y-19285500D01*
X9066500Y-19299786D01*
X9380786Y-19471214D02*
X9352214Y-19456929D01*
X9337928Y-19442643D01*
X9323643Y-19414072D01*
X9323643Y-19328357D01*
X9337928Y-19299786D01*
X9352214Y-19285500D01*
X9380786Y-19271214D01*
X9423643Y-19271214D01*
X9452214Y-19285500D01*
X9466500Y-19299786D01*
X9480786Y-19328357D01*
X9480786Y-19414072D01*
X9466500Y-19442643D01*
X9452214Y-19456929D01*
X9423643Y-19471214D01*
X9380786Y-19471214D01*
X9652214Y-19471214D02*
X9623643Y-19456929D01*
X9609357Y-19428357D01*
X9609357Y-19171214D01*
X9880786Y-19456929D02*
X9852214Y-19471214D01*
X9795071Y-19471214D01*
X9766500Y-19456929D01*
X9752214Y-19428357D01*
X9752214Y-19314072D01*
X9766500Y-19285500D01*
X9795071Y-19271214D01*
X9852214Y-19271214D01*
X9880786Y-19285500D01*
X9895071Y-19314072D01*
X9895071Y-19342643D01*
X9752214Y-19371214D01*
X10009357Y-19456929D02*
X10037928Y-19471214D01*
X10095071Y-19471214D01*
X10123643Y-19456929D01*
X10137928Y-19428357D01*
X10137928Y-19414072D01*
X10123643Y-19385500D01*
X10095071Y-19371214D01*
X10052214Y-19371214D01*
X10023643Y-19356929D01*
X10009357Y-19328357D01*
X10009357Y-19314072D01*
X10023643Y-19285500D01*
X10052214Y-19271214D01*
X10095071Y-19271214D01*
X10123643Y-19285500D01*
X10237928Y-19585500D02*
X10252214Y-19571214D01*
X10280786Y-19528357D01*
X10295071Y-19499786D01*
X10309357Y-19456929D01*
X10323643Y-19385500D01*
X10323643Y-19328357D01*
X10309357Y-19256929D01*
X10295071Y-19214072D01*
X10280786Y-19185500D01*
X10252214Y-19142643D01*
X10237928Y-19128357D01*
M02*
