%TF.GenerationSoftware,KiCad,Pcbnew,5.1.6-c6e7f7d~86~ubuntu18.04.1*%
%TF.CreationDate,2020-05-20T11:00:07-07:00*%
%TF.ProjectId,Cal_Station,43616c5f-5374-4617-9469-6f6e2e6b6963,rev?*%
%TF.SameCoordinates,Original*%
%TF.FileFunction,Copper,L2,Inr*%
%TF.FilePolarity,Positive*%
%FSLAX46Y46*%
G04 Gerber Fmt 4.6, Leading zero omitted, Abs format (unit mm)*
G04 Created by KiCad (PCBNEW 5.1.6-c6e7f7d~86~ubuntu18.04.1) date 2020-05-20 11:00:07*
%MOMM*%
%LPD*%
G01*
G04 APERTURE LIST*
%TA.AperFunction,ViaPad*%
%ADD10C,3.000000*%
%TD*%
%TA.AperFunction,ViaPad*%
%ADD11C,1.500000*%
%TD*%
%TA.AperFunction,ViaPad*%
%ADD12C,1.900000*%
%TD*%
%TA.AperFunction,ViaPad*%
%ADD13R,1.900000X1.900000*%
%TD*%
%TA.AperFunction,ViaPad*%
%ADD14C,0.800000*%
%TD*%
%TA.AperFunction,ViaPad*%
%ADD15C,6.400000*%
%TD*%
%TA.AperFunction,ViaPad*%
%ADD16C,5.400000*%
%TD*%
%TA.AperFunction,ViaPad*%
%ADD17C,0.500000*%
%TD*%
%TA.AperFunction,ViaPad*%
%ADD18O,1.700000X1.700000*%
%TD*%
%TA.AperFunction,ViaPad*%
%ADD19R,1.700000X1.700000*%
%TD*%
%TA.AperFunction,ViaPad*%
%ADD20C,2.000000*%
%TD*%
%TA.AperFunction,ViaPad*%
%ADD21R,2.000000X2.000000*%
%TD*%
%TA.AperFunction,ViaPad*%
%ADD22C,2.400000*%
%TD*%
%TA.AperFunction,ViaPad*%
%ADD23R,2.400000X2.400000*%
%TD*%
%TA.AperFunction,ViaPad*%
%ADD24C,0.600000*%
%TD*%
%TA.AperFunction,Conductor*%
%ADD25C,0.600000*%
%TD*%
%TA.AperFunction,Conductor*%
%ADD26C,0.650000*%
%TD*%
%TA.AperFunction,Conductor*%
%ADD27C,0.750000*%
%TD*%
%TA.AperFunction,Conductor*%
%ADD28C,1.000000*%
%TD*%
%TA.AperFunction,Conductor*%
%ADD29C,0.250000*%
%TD*%
%TA.AperFunction,Conductor*%
%ADD30C,0.450000*%
%TD*%
%TA.AperFunction,Conductor*%
%ADD31C,0.350000*%
%TD*%
G04 APERTURE END LIST*
D10*
%TO.N,+6V*%
%TO.C,TP18*%
X109610000Y-41240000D03*
%TD*%
%TO.N,PI_GND*%
%TO.C,TP17*%
X104560000Y-41240000D03*
%TD*%
D11*
%TO.N,Vref_OUT*%
%TO.C,K17*%
X42980000Y-70820000D03*
%TO.N,PI_GND*%
X52930000Y-70815000D03*
D12*
X50580000Y-70820000D03*
%TO.N,Vref_OUT*%
X45500000Y-70820000D03*
%TO.N,Net-(K17-Pad8)*%
X50580000Y-68280000D03*
%TO.N,K17_SET*%
X50580000Y-65740000D03*
%TO.N,/34401_A/GNDA*%
X50580000Y-73360000D03*
%TO.N,CAL_RESET*%
X45500000Y-78440000D03*
D13*
%TO.N,PI_+5V*%
X45500000Y-65740000D03*
D12*
X50580000Y-78440000D03*
%TO.N,Net-(K17-Pad3)*%
X45500000Y-68280000D03*
%TO.N,DAC_AUX_BUF*%
X45500000Y-73360000D03*
D11*
%TO.N,PI_+5V*%
X52880000Y-78440000D03*
%TO.N,/34401_A/GNDA*%
X52930000Y-73365000D03*
%TO.N,Net-(K17-Pad8)*%
X52930000Y-68315000D03*
%TO.N,K17_SET*%
X52980000Y-65715000D03*
%TO.N,PI_+5V*%
X42980000Y-65740000D03*
%TO.N,Net-(K17-Pad3)*%
X42980000Y-68280000D03*
%TO.N,DAC_AUX_BUF*%
X42980000Y-73360000D03*
%TO.N,CAL_RESET*%
X42980000Y-78290000D03*
%TD*%
%TO.N,Net-(K16-Pad4)*%
%TO.C,K16*%
X44410000Y-48550000D03*
X54360000Y-48545000D03*
D12*
X52010000Y-48550000D03*
X46930000Y-48550000D03*
%TO.N,Net-(K16-Pad8)*%
X52010000Y-46010000D03*
%TO.N,K16_SET*%
X52010000Y-43470000D03*
%TO.N,/34401_A/GNDA*%
X52010000Y-51090000D03*
%TO.N,CAL_RESET*%
X46930000Y-56170000D03*
D13*
%TO.N,PI_+5V*%
X46930000Y-43470000D03*
D12*
X52010000Y-56170000D03*
%TO.N,Net-(K16-Pad3)*%
X46930000Y-46010000D03*
%TO.N,DAC_AUX_BUF*%
X46930000Y-51090000D03*
D11*
%TO.N,PI_+5V*%
X54310000Y-56170000D03*
%TO.N,/34401_A/GNDA*%
X54360000Y-51095000D03*
%TO.N,Net-(K16-Pad8)*%
X54360000Y-46045000D03*
%TO.N,K16_SET*%
X54410000Y-43445000D03*
%TO.N,PI_+5V*%
X44410000Y-43470000D03*
%TO.N,Net-(K16-Pad3)*%
X44410000Y-46010000D03*
%TO.N,DAC_AUX_BUF*%
X44410000Y-51090000D03*
%TO.N,CAL_RESET*%
X44410000Y-56020000D03*
%TD*%
D14*
%TO.N,N/C*%
%TO.C,H8*%
X46377056Y-30992944D03*
X44680000Y-30290000D03*
X42982944Y-30992944D03*
X42280000Y-32690000D03*
X42982944Y-34387056D03*
X44680000Y-35090000D03*
X46377056Y-34387056D03*
X47080000Y-32690000D03*
D15*
X44680000Y-32690000D03*
%TD*%
D14*
%TO.N,N/C*%
%TO.C,H7*%
X184527056Y-30992944D03*
X182830000Y-30290000D03*
X181132944Y-30992944D03*
X180430000Y-32690000D03*
X181132944Y-34387056D03*
X182830000Y-35090000D03*
X184527056Y-34387056D03*
X185230000Y-32690000D03*
D15*
X182830000Y-32690000D03*
%TD*%
D14*
%TO.N,N/C*%
%TO.C,H6*%
X46377056Y-142782944D03*
X44680000Y-142080000D03*
X42982944Y-142782944D03*
X42280000Y-144480000D03*
X42982944Y-146177056D03*
X44680000Y-146880000D03*
X46377056Y-146177056D03*
X47080000Y-144480000D03*
D15*
X44680000Y-144480000D03*
%TD*%
D14*
%TO.N,N/C*%
%TO.C,H5*%
X184527056Y-142802944D03*
X182830000Y-142100000D03*
X181132944Y-142802944D03*
X180430000Y-144500000D03*
X181132944Y-146197056D03*
X182830000Y-146900000D03*
X184527056Y-146197056D03*
X185230000Y-144500000D03*
D15*
X182830000Y-144500000D03*
%TD*%
D14*
%TO.N,N/C*%
%TO.C,H4*%
X112601891Y-30688109D03*
X111170000Y-30095000D03*
X109738109Y-30688109D03*
X109145000Y-32120000D03*
X109738109Y-33551891D03*
X111170000Y-34145000D03*
X112601891Y-33551891D03*
X113195000Y-32120000D03*
D16*
X111170000Y-32120000D03*
%TD*%
D14*
%TO.N,N/C*%
%TO.C,H3*%
X63601891Y-88688109D03*
X62170000Y-88095000D03*
X60738109Y-88688109D03*
X60145000Y-90120000D03*
X60738109Y-91551891D03*
X62170000Y-92145000D03*
X63601891Y-91551891D03*
X64195000Y-90120000D03*
D16*
X62170000Y-90120000D03*
%TD*%
D14*
%TO.N,N/C*%
%TO.C,H2*%
X112601891Y-88688109D03*
X111170000Y-88095000D03*
X109738109Y-88688109D03*
X109145000Y-90120000D03*
X109738109Y-91551891D03*
X111170000Y-92145000D03*
X112601891Y-91551891D03*
X113195000Y-90120000D03*
D16*
X111170000Y-90120000D03*
%TD*%
D14*
%TO.N,N/C*%
%TO.C,H1*%
X63601891Y-30688109D03*
X62170000Y-30095000D03*
X60738109Y-30688109D03*
X60145000Y-32120000D03*
X60738109Y-33551891D03*
X62170000Y-34145000D03*
X63601891Y-33551891D03*
X64195000Y-32120000D03*
D16*
X62170000Y-32120000D03*
%TD*%
D11*
%TO.N,/34401_B/REF100+*%
%TO.C,K14*%
X164544000Y-101742000D03*
%TO.N,/34401_B/REF100_RTN*%
X164549000Y-111692000D03*
D12*
X164544000Y-109342000D03*
%TO.N,/34401_B/REF100+*%
X164544000Y-104262000D03*
%TO.N,Net-(K14-Pad8)*%
X167084000Y-109342000D03*
%TO.N,K14_SET*%
X169624000Y-109342000D03*
%TO.N,/34401_B/34401B_RTN*%
X162004000Y-109342000D03*
%TO.N,K14_RESET*%
X156924000Y-104262000D03*
D13*
%TO.N,+5V*%
X169624000Y-104262000D03*
D12*
X156924000Y-109342000D03*
%TO.N,Net-(K14-Pad3)*%
X167084000Y-104262000D03*
%TO.N,/34401_B/34401B_I+*%
X162004000Y-104262000D03*
D11*
%TO.N,+5V*%
X156924000Y-111642000D03*
%TO.N,/34401_B/34401B_RTN*%
X161999000Y-111692000D03*
%TO.N,Net-(K14-Pad8)*%
X167049000Y-111692000D03*
%TO.N,K14_SET*%
X169649000Y-111742000D03*
%TO.N,+5V*%
X169624000Y-101742000D03*
%TO.N,Net-(K14-Pad3)*%
X167084000Y-101742000D03*
%TO.N,/34401_B/34401B_I+*%
X162004000Y-101742000D03*
%TO.N,K14_RESET*%
X157074000Y-101742000D03*
%TD*%
D10*
%TO.N,/34401_B/REF100+*%
%TO.C,J28*%
X142130000Y-94000000D03*
%TD*%
%TO.N,/34401_B/REF100_RTN*%
%TO.C,J27*%
X149790000Y-94000000D03*
%TD*%
%TO.N,/34401_B/34401B_I+*%
%TO.C,J26*%
X162930000Y-49260000D03*
%TD*%
%TO.N,/34401_B/34401B_RTN*%
%TO.C,J25*%
X155320000Y-49400000D03*
%TD*%
%TO.N,/34401_B/34401B_V+*%
%TO.C,J24*%
X147750000Y-49660000D03*
%TD*%
%TO.N,/34401_B/I_LOAD*%
%TO.C,J23*%
X159204000Y-86946000D03*
%TD*%
%TO.N,/34401_B/VLoad_div8*%
%TO.C,J22*%
X152092000Y-87200000D03*
%TD*%
%TO.N,/34401_B/GND*%
%TO.C,J20*%
X145488000Y-87200000D03*
%TD*%
%TO.N,/34401_A/34401A_RTN*%
%TO.C,J19*%
X116620000Y-58990000D03*
%TD*%
%TO.N,/34401_A/34401A_V+*%
%TO.C,J18*%
X122190000Y-58810000D03*
%TD*%
%TO.N,/34401_B/CoolerV*%
%TO.C,J17*%
X138630000Y-87200000D03*
%TD*%
%TO.N,/34401_A/LOAD_RTN*%
%TO.C,J16*%
X79580000Y-80000000D03*
%TD*%
%TO.N,/34401_A/LOAD+*%
%TO.C,J15*%
X70430000Y-80000000D03*
%TD*%
%TO.N,DAC_AUX_BUF*%
%TO.C,J14*%
X128320000Y-94300000D03*
%TD*%
%TO.N,/34401_A/GNDA*%
%TO.C,J13*%
X128290000Y-87300000D03*
%TD*%
%TO.N,DAC_AUX*%
%TO.C,J12*%
X121320000Y-94300000D03*
%TD*%
%TO.N,/34401_A/GNDA*%
%TO.C,J11*%
X121360000Y-87300000D03*
%TD*%
%TO.N,/34401_B/LOAD_RTN*%
%TO.C,J10*%
X166570000Y-86946000D03*
%TD*%
%TO.N,/34401_A/2V5_filt*%
%TO.C,J9*%
X115720000Y-87280000D03*
%TD*%
%TO.N,/34401_A/COOLERV_div4*%
%TO.C,J8*%
X106950000Y-87300000D03*
%TD*%
%TO.N,Net-(J7-Pad1)*%
%TO.C,J7*%
X100660000Y-87300000D03*
%TD*%
%TO.N,/PWR_IN*%
%TO.C,J6*%
X86436000Y-87562000D03*
%TD*%
%TO.N,Net-(J5-Pad1)*%
%TO.C,J5*%
X93294000Y-87562000D03*
%TD*%
%TO.N,Net-(J3-Pad1)*%
%TO.C,J4*%
X79578000Y-95436000D03*
%TD*%
%TO.N,Net-(J3-Pad1)*%
%TO.C,J3*%
X79580000Y-87560000D03*
%TD*%
%TO.N,/PWR_RTN*%
%TO.C,J2*%
X70180000Y-95436000D03*
%TD*%
%TO.N,/PWR_RTN*%
%TO.C,J1*%
X70430000Y-87816000D03*
%TD*%
D17*
%TO.N,PI_GND*%
%TO.C,U2*%
X79870000Y-43010000D03*
X78470000Y-43010000D03*
X79870000Y-42010000D03*
X78470000Y-42010000D03*
X79870000Y-41010000D03*
X78470000Y-41010000D03*
%TD*%
%TO.N,PI_GND*%
%TO.C,U1*%
X70206000Y-105862000D03*
X71606000Y-105862000D03*
X70206000Y-106862000D03*
X71606000Y-106862000D03*
X70206000Y-107862000D03*
X71606000Y-107862000D03*
%TD*%
D10*
%TO.N,Net-(K3-Pad5)*%
%TO.C,TP14*%
X124580000Y-138900000D03*
%TD*%
%TO.N,Net-(K3-Pad10)*%
%TO.C,TP13*%
X129980000Y-138840000D03*
%TD*%
%TO.N,Net-(K2-Pad5)*%
%TO.C,TP12*%
X146920000Y-140060000D03*
%TD*%
%TO.N,Net-(K2-Pad10)*%
%TO.C,TP11*%
X152650000Y-139980000D03*
%TD*%
%TO.N,Net-(K7-Pad5)*%
%TO.C,TP10*%
X169050000Y-139230000D03*
%TD*%
%TO.N,Net-(K7-Pad10)*%
%TO.C,TP9*%
X174750000Y-139200000D03*
%TD*%
%TO.N,Net-(K6-Pad5)*%
%TO.C,TP8*%
X55870000Y-138730000D03*
%TD*%
%TO.N,Net-(K6-Pad10)*%
%TO.C,TP7*%
X60950000Y-138540000D03*
%TD*%
%TO.N,Net-(K5-Pad5)*%
%TO.C,TP6*%
X78730000Y-138740000D03*
%TD*%
%TO.N,Net-(K5-Pad10)*%
%TO.C,TP5*%
X84010000Y-138480000D03*
%TD*%
%TO.N,Net-(K4-Pad5)*%
%TO.C,TP4*%
X101740000Y-138830000D03*
%TD*%
%TO.N,Net-(K4-Pad10)*%
%TO.C,TP3*%
X107210000Y-138750000D03*
%TD*%
D18*
%TO.N,K11_SET_SIGNL*%
%TO.C,PI1*%
X60900000Y-37130000D03*
%TO.N,PI_GND*%
X63440000Y-37130000D03*
%TO.N,K12_SET_SIGNL*%
X60900000Y-39670000D03*
%TO.N,K10_SET_SIGNL*%
X63440000Y-39670000D03*
%TO.N,K13_SET_SIGNL*%
X60900000Y-42210000D03*
%TO.N,K9_SET_SIGNL*%
X63440000Y-42210000D03*
%TO.N,PI_GND*%
X60900000Y-44750000D03*
%TO.N,K8_SET_SIGNL*%
X63440000Y-44750000D03*
%TO.N,K14_SET_SIGNL*%
X60900000Y-47290000D03*
%TO.N,RES_ARRAY_RESET_SIGNL*%
X63440000Y-47290000D03*
%TO.N,PI_GND*%
X60900000Y-49830000D03*
%TO.N,K7_SET_SIGNL*%
X63440000Y-49830000D03*
%TO.N,Net-(PI1-Pad28)*%
X60900000Y-52370000D03*
%TO.N,Net-(PI1-Pad27)*%
X63440000Y-52370000D03*
%TO.N,K15_SET_SIGNL*%
X60900000Y-54910000D03*
%TO.N,PI_GND*%
X63440000Y-54910000D03*
%TO.N,BANK_A_RESET_SIGNL*%
X60900000Y-57450000D03*
%TO.N,K6_SET_SIGNL*%
X63440000Y-57450000D03*
%TO.N,BANK_B_RESET_SIGNL*%
X60900000Y-59990000D03*
%TO.N,K5_SET_SIGNL*%
X63440000Y-59990000D03*
%TO.N,PI_GND*%
X60900000Y-62530000D03*
%TO.N,K4_SET_SIGNL*%
X63440000Y-62530000D03*
%TO.N,K16_SET_SIGNL*%
X60900000Y-65070000D03*
%TO.N,Net-(PI1-Pad17)*%
X63440000Y-65070000D03*
%TO.N,K17_SET_SIGNL*%
X60900000Y-67610000D03*
%TO.N,K3_SET_SIGNL*%
X63440000Y-67610000D03*
%TO.N,PI_GND*%
X60900000Y-70150000D03*
%TO.N,K2_SET_SIGNL*%
X63440000Y-70150000D03*
%TO.N,CAL_RESET_SIGNL*%
X60900000Y-72690000D03*
%TO.N,K1_RESET_SIGNL*%
X63440000Y-72690000D03*
%TO.N,RX*%
X60900000Y-75230000D03*
%TO.N,PI_GND*%
X63440000Y-75230000D03*
%TO.N,TX*%
X60900000Y-77770000D03*
%TO.N,K1_SET_SGNL*%
X63440000Y-77770000D03*
%TO.N,PI_GND*%
X60900000Y-80310000D03*
%TO.N,Net-(PI1-Pad5)*%
X63440000Y-80310000D03*
%TO.N,PI_+5V*%
X60900000Y-82850000D03*
%TO.N,LTC2057_SHDN*%
X63440000Y-82850000D03*
%TO.N,PI_+5V*%
X60900000Y-85390000D03*
D19*
%TO.N,Net-(PI1-Pad1)*%
X63440000Y-85390000D03*
%TD*%
D11*
%TO.N,/34401_B/VLoad_div8*%
%TO.C,K15*%
X138574000Y-65652000D03*
%TO.N,/34401_B/LOAD_RTN*%
X148524000Y-65647000D03*
D12*
X146174000Y-65652000D03*
%TO.N,/34401_B/VLoad_div8*%
X141094000Y-65652000D03*
%TO.N,Net-(K15-Pad8)*%
X146174000Y-63112000D03*
%TO.N,K15_SET*%
X146174000Y-60572000D03*
%TO.N,/34401_B/34401B_RTN*%
X146174000Y-68192000D03*
%TO.N,K15_RESET*%
X141094000Y-73272000D03*
D13*
%TO.N,+5V*%
X141094000Y-60572000D03*
D12*
X146174000Y-73272000D03*
%TO.N,Net-(K15-Pad3)*%
X141094000Y-63112000D03*
%TO.N,/34401_B/34401B_V+*%
X141094000Y-68192000D03*
D11*
%TO.N,+5V*%
X148474000Y-73272000D03*
%TO.N,/34401_B/34401B_RTN*%
X148524000Y-68197000D03*
%TO.N,Net-(K15-Pad8)*%
X148524000Y-63147000D03*
%TO.N,K15_SET*%
X148574000Y-60547000D03*
%TO.N,+5V*%
X138574000Y-60572000D03*
%TO.N,Net-(K15-Pad3)*%
X138574000Y-63112000D03*
%TO.N,/34401_B/34401B_V+*%
X138574000Y-68192000D03*
%TO.N,K15_RESET*%
X138574000Y-73122000D03*
%TD*%
%TO.N,/34401_B/CoolerV*%
%TO.C,K13*%
X126740000Y-46170000D03*
%TO.N,/34401_B/GND*%
X136690000Y-46165000D03*
D12*
X134340000Y-46170000D03*
%TO.N,/34401_B/CoolerV*%
X129260000Y-46170000D03*
%TO.N,Net-(K13-Pad8)*%
X134340000Y-43630000D03*
%TO.N,K13_SET*%
X134340000Y-41090000D03*
%TO.N,/34401_B/34401B_RTN*%
X134340000Y-48710000D03*
%TO.N,K13_RESET*%
X129260000Y-53790000D03*
D13*
%TO.N,+5V*%
X129260000Y-41090000D03*
D12*
X134340000Y-53790000D03*
%TO.N,Net-(K13-Pad3)*%
X129260000Y-43630000D03*
%TO.N,/34401_B/34401B_V+*%
X129260000Y-48710000D03*
D11*
%TO.N,+5V*%
X136640000Y-53790000D03*
%TO.N,/34401_B/34401B_RTN*%
X136690000Y-48715000D03*
%TO.N,Net-(K13-Pad8)*%
X136690000Y-43665000D03*
%TO.N,K13_SET*%
X136740000Y-41065000D03*
%TO.N,+5V*%
X126740000Y-41090000D03*
%TO.N,Net-(K13-Pad3)*%
X126740000Y-43630000D03*
%TO.N,/34401_B/34401B_V+*%
X126740000Y-48710000D03*
%TO.N,K13_RESET*%
X126740000Y-53640000D03*
%TD*%
%TO.N,/34401_B/I_LOAD*%
%TO.C,K12*%
X158240000Y-74140000D03*
%TO.N,/34401_B/LOAD_RTN*%
X168190000Y-74135000D03*
D12*
X165840000Y-74140000D03*
%TO.N,/34401_B/I_LOAD*%
X160760000Y-74140000D03*
%TO.N,Net-(K12-Pad8)*%
X165840000Y-71600000D03*
%TO.N,K12_SET*%
X165840000Y-69060000D03*
%TO.N,/34401_B/34401B_RTN*%
X165840000Y-76680000D03*
%TO.N,K12_RESET*%
X160760000Y-81760000D03*
D13*
%TO.N,+5V*%
X160760000Y-69060000D03*
D12*
X165840000Y-81760000D03*
%TO.N,Net-(K12-Pad3)*%
X160760000Y-71600000D03*
%TO.N,/34401_B/34401B_I+*%
X160760000Y-76680000D03*
D11*
%TO.N,+5V*%
X168140000Y-81760000D03*
%TO.N,/34401_B/34401B_RTN*%
X168190000Y-76685000D03*
%TO.N,Net-(K12-Pad8)*%
X168190000Y-71635000D03*
%TO.N,K12_SET*%
X168240000Y-69035000D03*
%TO.N,+5V*%
X158240000Y-69060000D03*
%TO.N,Net-(K12-Pad3)*%
X158240000Y-71600000D03*
%TO.N,/34401_B/34401B_I+*%
X158240000Y-76680000D03*
%TO.N,K12_RESET*%
X158240000Y-81610000D03*
%TD*%
%TO.N,/34401_A/COOLERV_div4*%
%TO.C,K11*%
X96192000Y-63522000D03*
%TO.N,/34401_A/GNDA*%
X106142000Y-63517000D03*
D12*
X103792000Y-63522000D03*
%TO.N,/34401_A/COOLERV_div4*%
X98712000Y-63522000D03*
%TO.N,Net-(K11-Pad8)*%
X103792000Y-60982000D03*
%TO.N,K11_SET*%
X103792000Y-58442000D03*
%TO.N,/34401_A/34401A_RTN*%
X103792000Y-66062000D03*
%TO.N,K11_RESET*%
X98712000Y-71142000D03*
D13*
%TO.N,+5V*%
X98712000Y-58442000D03*
D12*
X103792000Y-71142000D03*
%TO.N,Net-(K11-Pad3)*%
X98712000Y-60982000D03*
%TO.N,/34401_A/34401A_V+*%
X98712000Y-66062000D03*
D11*
%TO.N,+5V*%
X106092000Y-71142000D03*
%TO.N,/34401_A/34401A_RTN*%
X106142000Y-66067000D03*
%TO.N,Net-(K11-Pad8)*%
X106142000Y-61017000D03*
%TO.N,K11_SET*%
X106192000Y-58417000D03*
%TO.N,+5V*%
X96192000Y-58442000D03*
%TO.N,Net-(K11-Pad3)*%
X96192000Y-60982000D03*
%TO.N,/34401_A/34401A_V+*%
X96192000Y-66062000D03*
%TO.N,K11_RESET*%
X96192000Y-70992000D03*
%TD*%
%TO.N,DAC_AUX_BUF*%
%TO.C,K10*%
X123710000Y-68960000D03*
%TO.N,/34401_A/GNDA*%
X123715000Y-78910000D03*
D12*
X123710000Y-76560000D03*
%TO.N,DAC_AUX_BUF*%
X123710000Y-71480000D03*
%TO.N,Net-(K10-Pad8)*%
X126250000Y-76560000D03*
%TO.N,K10_SET*%
X128790000Y-76560000D03*
%TO.N,/34401_A/34401A_RTN*%
X121170000Y-76560000D03*
%TO.N,K10_RESET*%
X116090000Y-71480000D03*
D13*
%TO.N,+5V*%
X128790000Y-71480000D03*
D12*
X116090000Y-76560000D03*
%TO.N,Net-(K10-Pad3)*%
X126250000Y-71480000D03*
%TO.N,/34401_A/34401A_V+*%
X121170000Y-71480000D03*
D11*
%TO.N,+5V*%
X116090000Y-78860000D03*
%TO.N,/34401_A/34401A_RTN*%
X121165000Y-78910000D03*
%TO.N,Net-(K10-Pad8)*%
X126215000Y-78910000D03*
%TO.N,K10_SET*%
X128815000Y-78960000D03*
%TO.N,+5V*%
X128790000Y-68960000D03*
%TO.N,Net-(K10-Pad3)*%
X126250000Y-68960000D03*
%TO.N,/34401_A/34401A_V+*%
X121170000Y-68960000D03*
%TO.N,K10_RESET*%
X116240000Y-68960000D03*
%TD*%
%TO.N,/34401_A/2V5_filt*%
%TO.C,K9*%
X129078000Y-103578000D03*
%TO.N,/34401_A/GNDA*%
X129083000Y-113528000D03*
D12*
X129078000Y-111178000D03*
%TO.N,/34401_A/2V5_filt*%
X129078000Y-106098000D03*
%TO.N,Net-(K9-Pad8)*%
X131618000Y-111178000D03*
%TO.N,K9_SET*%
X134158000Y-111178000D03*
%TO.N,/34401_A/34401A_RTN*%
X126538000Y-111178000D03*
%TO.N,K9_RESET*%
X121458000Y-106098000D03*
D13*
%TO.N,+5V*%
X134158000Y-106098000D03*
D12*
X121458000Y-111178000D03*
%TO.N,Net-(K9-Pad3)*%
X131618000Y-106098000D03*
%TO.N,/34401_A/34401A_V+*%
X126538000Y-106098000D03*
D11*
%TO.N,+5V*%
X121458000Y-113478000D03*
%TO.N,/34401_A/34401A_RTN*%
X126533000Y-113528000D03*
%TO.N,Net-(K9-Pad8)*%
X131583000Y-113528000D03*
%TO.N,K9_SET*%
X134183000Y-113578000D03*
%TO.N,+5V*%
X134158000Y-103578000D03*
%TO.N,Net-(K9-Pad3)*%
X131618000Y-103578000D03*
%TO.N,/34401_A/34401A_V+*%
X126538000Y-103578000D03*
%TO.N,K9_RESET*%
X121608000Y-103578000D03*
%TD*%
%TO.N,/34401_A/LOAD+*%
%TO.C,K8*%
X78890000Y-73704360D03*
%TO.N,/34401_A/LOAD_RTN*%
X78885000Y-63754360D03*
D12*
X78890000Y-66104360D03*
%TO.N,/34401_A/LOAD+*%
X78890000Y-71184360D03*
%TO.N,Net-(K8-Pad8)*%
X76350000Y-66104360D03*
%TO.N,K8_SET*%
X73810000Y-66104360D03*
%TO.N,/34401_A/34401A_RTN*%
X81430000Y-66104360D03*
%TO.N,K8_RESET*%
X86510000Y-71184360D03*
D13*
%TO.N,+5V*%
X73810000Y-71184360D03*
D12*
X86510000Y-66104360D03*
%TO.N,Net-(K8-Pad3)*%
X76350000Y-71184360D03*
%TO.N,/34401_A/34401A_V+*%
X81430000Y-71184360D03*
D11*
%TO.N,+5V*%
X86510000Y-63804360D03*
%TO.N,/34401_A/34401A_RTN*%
X81435000Y-63754360D03*
%TO.N,Net-(K8-Pad8)*%
X76385000Y-63754360D03*
%TO.N,K8_SET*%
X73785000Y-63704360D03*
%TO.N,+5V*%
X73810000Y-73704360D03*
%TO.N,Net-(K8-Pad3)*%
X76350000Y-73704360D03*
%TO.N,/34401_A/34401A_V+*%
X81430000Y-73704360D03*
%TO.N,K8_RESET*%
X86360000Y-73704360D03*
%TD*%
%TO.N,/Resistor_Array/RES_RTN*%
%TO.C,K7*%
X165910000Y-134250000D03*
%TO.N,/Resistor_Array/RES_IN*%
X165905000Y-124300000D03*
D12*
X165910000Y-126650000D03*
%TO.N,/Resistor_Array/RES_RTN*%
X165910000Y-131730000D03*
%TO.N,Net-(K7-Pad8)*%
X163370000Y-126650000D03*
%TO.N,K7_SET*%
X160830000Y-126650000D03*
%TO.N,Net-(K7-Pad10)*%
X168450000Y-126650000D03*
%TO.N,K7_RESET*%
X173530000Y-131730000D03*
D13*
%TO.N,+5V*%
X160830000Y-131730000D03*
D12*
X173530000Y-126650000D03*
%TO.N,Net-(K7-Pad3)*%
X163370000Y-131730000D03*
%TO.N,Net-(K7-Pad5)*%
X168450000Y-131730000D03*
D11*
%TO.N,+5V*%
X173530000Y-124350000D03*
%TO.N,Net-(K7-Pad10)*%
X168455000Y-124300000D03*
%TO.N,Net-(K7-Pad8)*%
X163405000Y-124300000D03*
%TO.N,K7_SET*%
X160805000Y-124250000D03*
%TO.N,+5V*%
X160830000Y-134250000D03*
%TO.N,Net-(K7-Pad3)*%
X163370000Y-134250000D03*
%TO.N,Net-(K7-Pad5)*%
X168450000Y-134250000D03*
%TO.N,K7_RESET*%
X173380000Y-134250000D03*
%TD*%
%TO.N,/Resistor_Array/RES_RTN*%
%TO.C,K6*%
X53650000Y-133512000D03*
%TO.N,/Resistor_Array/RES_IN*%
X53645000Y-123562000D03*
D12*
X53650000Y-125912000D03*
%TO.N,/Resistor_Array/RES_RTN*%
X53650000Y-130992000D03*
%TO.N,Net-(K6-Pad8)*%
X51110000Y-125912000D03*
%TO.N,K6_SET*%
X48570000Y-125912000D03*
%TO.N,Net-(K6-Pad10)*%
X56190000Y-125912000D03*
%TO.N,K6_RESET*%
X61270000Y-130992000D03*
D13*
%TO.N,+5V*%
X48570000Y-130992000D03*
D12*
X61270000Y-125912000D03*
%TO.N,Net-(K6-Pad3)*%
X51110000Y-130992000D03*
%TO.N,Net-(K6-Pad5)*%
X56190000Y-130992000D03*
D11*
%TO.N,+5V*%
X61270000Y-123612000D03*
%TO.N,Net-(K6-Pad10)*%
X56195000Y-123562000D03*
%TO.N,Net-(K6-Pad8)*%
X51145000Y-123562000D03*
%TO.N,K6_SET*%
X48545000Y-123512000D03*
%TO.N,+5V*%
X48570000Y-133512000D03*
%TO.N,Net-(K6-Pad3)*%
X51110000Y-133512000D03*
%TO.N,Net-(K6-Pad5)*%
X56190000Y-133512000D03*
%TO.N,K6_RESET*%
X61120000Y-133512000D03*
%TD*%
%TO.N,/Resistor_Array/RES_RTN*%
%TO.C,K5*%
X76980000Y-133400000D03*
%TO.N,/Resistor_Array/RES_IN*%
X76975000Y-123450000D03*
D12*
X76980000Y-125800000D03*
%TO.N,/Resistor_Array/RES_RTN*%
X76980000Y-130880000D03*
%TO.N,Net-(K5-Pad8)*%
X74440000Y-125800000D03*
%TO.N,K5_SET*%
X71900000Y-125800000D03*
%TO.N,Net-(K5-Pad10)*%
X79520000Y-125800000D03*
%TO.N,K5_RESET*%
X84600000Y-130880000D03*
D13*
%TO.N,+5V*%
X71900000Y-130880000D03*
D12*
X84600000Y-125800000D03*
%TO.N,Net-(K5-Pad3)*%
X74440000Y-130880000D03*
%TO.N,Net-(K5-Pad5)*%
X79520000Y-130880000D03*
D11*
%TO.N,+5V*%
X84600000Y-123500000D03*
%TO.N,Net-(K5-Pad10)*%
X79525000Y-123450000D03*
%TO.N,Net-(K5-Pad8)*%
X74475000Y-123450000D03*
%TO.N,K5_SET*%
X71875000Y-123400000D03*
%TO.N,+5V*%
X71900000Y-133400000D03*
%TO.N,Net-(K5-Pad3)*%
X74440000Y-133400000D03*
%TO.N,Net-(K5-Pad5)*%
X79520000Y-133400000D03*
%TO.N,K5_RESET*%
X84450000Y-133400000D03*
%TD*%
%TO.N,/Resistor_Array/RES_RTN*%
%TO.C,K4*%
X99200000Y-133688000D03*
%TO.N,/Resistor_Array/RES_IN*%
X99195000Y-123738000D03*
D12*
X99200000Y-126088000D03*
%TO.N,/Resistor_Array/RES_RTN*%
X99200000Y-131168000D03*
%TO.N,Net-(K4-Pad8)*%
X96660000Y-126088000D03*
%TO.N,K4_SET*%
X94120000Y-126088000D03*
%TO.N,Net-(K4-Pad10)*%
X101740000Y-126088000D03*
%TO.N,K4_RESET*%
X106820000Y-131168000D03*
D13*
%TO.N,+5V*%
X94120000Y-131168000D03*
D12*
X106820000Y-126088000D03*
%TO.N,Net-(K4-Pad3)*%
X96660000Y-131168000D03*
%TO.N,Net-(K4-Pad5)*%
X101740000Y-131168000D03*
D11*
%TO.N,+5V*%
X106820000Y-123788000D03*
%TO.N,Net-(K4-Pad10)*%
X101745000Y-123738000D03*
%TO.N,Net-(K4-Pad8)*%
X96695000Y-123738000D03*
%TO.N,K4_SET*%
X94095000Y-123688000D03*
%TO.N,+5V*%
X94120000Y-133688000D03*
%TO.N,Net-(K4-Pad3)*%
X96660000Y-133688000D03*
%TO.N,Net-(K4-Pad5)*%
X101740000Y-133688000D03*
%TO.N,K4_RESET*%
X106670000Y-133688000D03*
%TD*%
%TO.N,/Resistor_Array/RES_RTN*%
%TO.C,K3*%
X122240000Y-133844000D03*
%TO.N,/Resistor_Array/RES_IN*%
X122235000Y-123894000D03*
D12*
X122240000Y-126244000D03*
%TO.N,/Resistor_Array/RES_RTN*%
X122240000Y-131324000D03*
%TO.N,Net-(K3-Pad8)*%
X119700000Y-126244000D03*
%TO.N,K3_SET*%
X117160000Y-126244000D03*
%TO.N,Net-(K3-Pad10)*%
X124780000Y-126244000D03*
%TO.N,K3_RESET*%
X129860000Y-131324000D03*
D13*
%TO.N,+5V*%
X117160000Y-131324000D03*
D12*
X129860000Y-126244000D03*
%TO.N,Net-(K3-Pad3)*%
X119700000Y-131324000D03*
%TO.N,Net-(K3-Pad5)*%
X124780000Y-131324000D03*
D11*
%TO.N,+5V*%
X129860000Y-123944000D03*
%TO.N,Net-(K3-Pad10)*%
X124785000Y-123894000D03*
%TO.N,Net-(K3-Pad8)*%
X119735000Y-123894000D03*
%TO.N,K3_SET*%
X117135000Y-123844000D03*
%TO.N,+5V*%
X117160000Y-133844000D03*
%TO.N,Net-(K3-Pad3)*%
X119700000Y-133844000D03*
%TO.N,Net-(K3-Pad5)*%
X124780000Y-133844000D03*
%TO.N,K3_RESET*%
X129710000Y-133844000D03*
%TD*%
%TO.N,/Resistor_Array/RES_RTN*%
%TO.C,K2*%
X144396000Y-134372000D03*
%TO.N,/Resistor_Array/RES_IN*%
X144391000Y-124422000D03*
D12*
X144396000Y-126772000D03*
%TO.N,/Resistor_Array/RES_RTN*%
X144396000Y-131852000D03*
%TO.N,Net-(K2-Pad8)*%
X141856000Y-126772000D03*
%TO.N,K2_SET*%
X139316000Y-126772000D03*
%TO.N,Net-(K2-Pad10)*%
X146936000Y-126772000D03*
%TO.N,K2_RESET*%
X152016000Y-131852000D03*
D13*
%TO.N,+5V*%
X139316000Y-131852000D03*
D12*
X152016000Y-126772000D03*
%TO.N,Net-(K2-Pad3)*%
X141856000Y-131852000D03*
%TO.N,Net-(K2-Pad5)*%
X146936000Y-131852000D03*
D11*
%TO.N,+5V*%
X152016000Y-124472000D03*
%TO.N,Net-(K2-Pad10)*%
X146941000Y-124422000D03*
%TO.N,Net-(K2-Pad8)*%
X141891000Y-124422000D03*
%TO.N,K2_SET*%
X139291000Y-124372000D03*
%TO.N,+5V*%
X139316000Y-134372000D03*
%TO.N,Net-(K2-Pad3)*%
X141856000Y-134372000D03*
%TO.N,Net-(K2-Pad5)*%
X146936000Y-134372000D03*
%TO.N,K2_RESET*%
X151866000Y-134372000D03*
%TD*%
%TO.N,/PWR_IN*%
%TO.C,K1*%
X100752360Y-104864000D03*
%TO.N,/PWR_RTN*%
X90802360Y-104869000D03*
D12*
X93152360Y-104864000D03*
%TO.N,/PWR_IN*%
X98232360Y-104864000D03*
%TO.N,/Resistor_Array/RES_RTN*%
X93152360Y-107404000D03*
%TO.N,K1_SET*%
X93152360Y-109944000D03*
%TO.N,Net-(J5-Pad1)*%
X93152360Y-102324000D03*
%TO.N,K1_RESET*%
X98232360Y-97244000D03*
D13*
%TO.N,+5V*%
X98232360Y-109944000D03*
D12*
X93152360Y-97244000D03*
%TO.N,/Resistor_Array/RES_IN*%
X98232360Y-107404000D03*
%TO.N,Net-(J7-Pad1)*%
X98232360Y-102324000D03*
D11*
%TO.N,+5V*%
X90852360Y-97244000D03*
%TO.N,Net-(J5-Pad1)*%
X90802360Y-102319000D03*
%TO.N,/Resistor_Array/RES_RTN*%
X90802360Y-107369000D03*
%TO.N,K1_SET*%
X90752360Y-109969000D03*
%TO.N,+5V*%
X100752360Y-109944000D03*
%TO.N,/Resistor_Array/RES_IN*%
X100752360Y-107404000D03*
%TO.N,Net-(J7-Pad1)*%
X100752360Y-102324000D03*
%TO.N,K1_RESET*%
X100752360Y-97394000D03*
%TD*%
D20*
%TO.N,PI_GND*%
%TO.C,C49*%
X71190000Y-33800000D03*
D21*
%TO.N,+5V*%
X76190000Y-33800000D03*
%TD*%
D20*
%TO.N,PI_GND*%
%TO.C,C48*%
X59026000Y-113012000D03*
D21*
%TO.N,PI_+5V*%
X59026000Y-108012000D03*
%TD*%
D22*
%TO.N,PI_GND*%
%TO.C,C35*%
X84390000Y-53430000D03*
D23*
%TO.N,+6V*%
X79390000Y-53430000D03*
%TD*%
D24*
%TO.N,K1_RESET*%
X104678000Y-106092000D03*
X104678000Y-105452000D03*
X104678000Y-104822000D03*
%TO.N,+5V*%
X85326000Y-106934000D03*
X85330000Y-105450000D03*
X85320000Y-106150000D03*
X96453000Y-113777000D03*
X96453000Y-114377000D03*
X96453000Y-115023000D03*
X149570000Y-129120000D03*
X150220000Y-129120000D03*
X150960000Y-129120000D03*
X151650000Y-129120000D03*
X44070000Y-130710000D03*
X44070000Y-129860000D03*
X47540000Y-129320000D03*
X172395000Y-127785000D03*
X171945000Y-128235000D03*
X171465000Y-128715000D03*
X134608000Y-98082000D03*
X134608000Y-97412000D03*
X134608000Y-96672000D03*
X119050000Y-81820000D03*
X119530000Y-82300000D03*
X118555000Y-81325000D03*
X130182000Y-117588000D03*
X129552000Y-117588000D03*
X128902000Y-117588000D03*
X138680000Y-107200000D03*
X138680000Y-106490000D03*
X138680000Y-105740000D03*
X152454000Y-64446000D03*
X152454000Y-65106000D03*
X152454000Y-65756000D03*
X173195000Y-105195000D03*
X173510000Y-104690000D03*
X173510000Y-104060000D03*
X132005000Y-72275000D03*
X132120000Y-71640000D03*
X132120000Y-70980000D03*
X100155000Y-54595000D03*
X100155000Y-53915000D03*
X100155000Y-53295000D03*
X109540000Y-62170000D03*
X109540000Y-62760000D03*
X140560000Y-44950000D03*
X140560000Y-45550000D03*
X140560000Y-46170000D03*
D14*
X106360000Y-110530000D03*
X106360000Y-111390000D03*
X108710000Y-99150000D03*
X108160000Y-98600000D03*
X105310000Y-93970000D03*
X104580000Y-93970000D03*
X111230000Y-104540000D03*
X112050000Y-104510000D03*
X107405000Y-116625000D03*
X106602500Y-115562500D03*
D24*
%TO.N,K2_RESET*%
X143778000Y-138282000D03*
X144668000Y-138282000D03*
%TO.N,K3_RESET*%
X121536000Y-137684000D03*
X120806000Y-137684000D03*
%TO.N,K4_RESET*%
X98430000Y-137590000D03*
X97760000Y-137590000D03*
%TO.N,K5_RESET*%
X76240000Y-137390000D03*
X75440000Y-137390000D03*
%TO.N,K6_RESET*%
X52204000Y-137396000D03*
X52884000Y-137396000D03*
%TO.N,K2_RESET_SIGNL*%
X178230000Y-135490000D03*
X178230000Y-136180000D03*
X155375000Y-137385000D03*
X155780000Y-137790000D03*
X156355000Y-138005000D03*
X111620000Y-135650000D03*
X112200000Y-135640000D03*
X112750000Y-135640000D03*
X67290000Y-134520000D03*
X67695000Y-134965000D03*
X68125000Y-135395000D03*
X84940000Y-135640000D03*
X85550000Y-135640000D03*
X86290000Y-135640000D03*
X116130000Y-38740000D03*
X117030000Y-38740000D03*
%TO.N,BANK_B_RESET*%
X136145000Y-75385000D03*
X136145000Y-74735000D03*
X136145000Y-74165000D03*
X129400000Y-62000000D03*
X129400000Y-62620000D03*
%TO.N,BANK_A_RESET*%
X109090000Y-71880000D03*
X109090000Y-72510000D03*
X109090000Y-73120000D03*
X91330000Y-77280000D03*
X91630000Y-77900000D03*
X92400000Y-78320000D03*
X99360000Y-78340000D03*
X98745000Y-78275000D03*
X103596000Y-81614000D03*
X102966000Y-81614000D03*
%TO.N,+6V*%
X66310000Y-42210000D03*
X66310000Y-41480000D03*
X66760000Y-40930000D03*
X67380000Y-40930000D03*
X82720000Y-108070000D03*
X82720000Y-108630000D03*
X82720000Y-109240000D03*
X69900000Y-76130000D03*
X69900000Y-75460000D03*
X69900000Y-74760000D03*
X69900000Y-74040000D03*
X69900000Y-73340000D03*
X83070000Y-96130000D03*
X83070000Y-95370000D03*
X83090000Y-97580000D03*
X83090000Y-96880000D03*
%TO.N,PI_GND*%
X75642500Y-47007500D03*
X76570000Y-46960000D03*
X77295000Y-46235000D03*
X77885000Y-45645000D03*
X79170000Y-44360000D03*
X78775500Y-101564500D03*
X81245500Y-101564500D03*
X76396500Y-102136500D03*
X72303000Y-102997000D03*
X74493000Y-102997000D03*
X154850000Y-125110000D03*
X155275000Y-125535000D03*
X156436000Y-131734000D03*
X156436000Y-131026000D03*
X179030000Y-130350000D03*
X179760000Y-130250000D03*
X179760000Y-129490000D03*
X42820000Y-127230000D03*
X42820000Y-126480000D03*
X43235000Y-125935000D03*
X89750000Y-133700000D03*
X90380000Y-133700000D03*
X91010000Y-133700000D03*
X66860000Y-130550000D03*
X67470000Y-130530000D03*
X88980000Y-126930000D03*
X89435000Y-126475000D03*
X134380000Y-127540000D03*
X134370000Y-126920000D03*
X134380000Y-126300000D03*
X139870000Y-110670000D03*
X139870000Y-111280000D03*
X139870000Y-111880000D03*
X92348000Y-115592000D03*
X92348000Y-116232000D03*
X112082000Y-126342000D03*
X111627000Y-126797000D03*
X117300000Y-107270000D03*
X117290000Y-106550000D03*
X110520000Y-74520000D03*
X110510000Y-73870000D03*
X166285000Y-63595000D03*
X165810000Y-63120000D03*
X165010000Y-62770000D03*
X146808000Y-55032000D03*
X146860000Y-54460000D03*
X147465000Y-55575000D03*
X173970000Y-109180000D03*
X173970000Y-108570000D03*
X152318000Y-105502000D03*
X152318000Y-106142000D03*
X152318000Y-106762000D03*
X98286000Y-92704000D03*
X97696000Y-92704000D03*
X97106000Y-92704000D03*
X99844000Y-76736000D03*
X99844000Y-77306000D03*
X103210000Y-53230000D03*
X103210000Y-53900000D03*
X92120000Y-72110000D03*
X92710000Y-72120000D03*
X92770000Y-72790000D03*
X139390000Y-79100000D03*
X140040000Y-79000000D03*
X140510000Y-78530000D03*
X133392000Y-76408000D03*
X133392000Y-75798000D03*
X130720000Y-59350000D03*
X130720000Y-59960000D03*
X67830000Y-65280000D03*
X68450000Y-65280000D03*
X155370000Y-98640000D03*
X154925000Y-99085000D03*
X154690000Y-99700000D03*
X134180000Y-36080000D03*
X133640000Y-35690000D03*
X132970000Y-35690000D03*
X71606000Y-116524000D03*
X71600000Y-117090000D03*
X71600000Y-115930000D03*
D14*
X110175000Y-99775000D03*
X110175000Y-98945000D03*
X105485000Y-95835000D03*
X104755000Y-95835000D03*
X110460000Y-120340000D03*
X109710000Y-120340000D03*
X108910000Y-120340000D03*
X101685000Y-114225000D03*
X102380000Y-113720000D03*
X111880000Y-112600000D03*
X111900000Y-109370000D03*
X111880000Y-116590000D03*
X110510000Y-110980000D03*
X109750000Y-111560000D03*
X116610000Y-117450000D03*
X115750000Y-117450000D03*
X52520000Y-36890000D03*
X52520000Y-37680000D03*
X59440000Y-80310000D03*
X51060000Y-59410000D03*
X51060000Y-60210000D03*
X51315000Y-90315000D03*
X50505000Y-90315000D03*
X59470000Y-94380000D03*
X60035000Y-94945000D03*
X96897500Y-39512500D03*
X94703750Y-38496250D03*
X93475000Y-38095000D03*
%TO.N,PI_+5V*%
X56080000Y-48270000D03*
X56235000Y-47475000D03*
X46520000Y-39600000D03*
X47350000Y-39600000D03*
D24*
%TO.N,K7_RESET*%
X164640000Y-138210000D03*
X165250000Y-138210000D03*
X173380000Y-135620000D03*
X173380000Y-136240000D03*
D14*
%TO.N,/34401_A/2V5_filt*%
X122250000Y-99020000D03*
X121440000Y-99020000D03*
X120630000Y-99020000D03*
%TO.N,/34401_A/GNDA*%
X67220000Y-51090000D03*
X66280000Y-51090000D03*
X95430000Y-51090000D03*
X94630000Y-51090000D03*
X93830000Y-51090000D03*
D24*
%TO.N,/34401_A/34401A_RTN*%
X95940000Y-68410000D03*
X96540000Y-68410000D03*
X97150000Y-68410000D03*
X97790000Y-68410000D03*
%TO.N,/Resistor_Array/RES_IN*%
X98120000Y-116960000D03*
X98120000Y-116350000D03*
X98120000Y-115710000D03*
X98120000Y-115020000D03*
X62620000Y-120610000D03*
X63310000Y-120610000D03*
X64030000Y-120610000D03*
X64770000Y-120610000D03*
%TO.N,K10_SET_SIGNL*%
X158680000Y-117220000D03*
X159320000Y-117220000D03*
%TO.N,K13_SET_SIGNL*%
X129270000Y-34870000D03*
X129910000Y-34870000D03*
X130560000Y-34870000D03*
%TO.N,K9_SET_SIGNL*%
X144322000Y-114348000D03*
X143702000Y-114348000D03*
X143022000Y-114348000D03*
%TO.N,K8_SET_SIGNL*%
X69120000Y-60260000D03*
X69130000Y-59640000D03*
%TO.N,RES_ARRAY_RESET_SIGNL*%
X112590000Y-36830000D03*
X111930000Y-36830000D03*
%TO.N,K7_SET_SIGNL*%
X158310000Y-119690000D03*
X157710000Y-119690000D03*
X157070000Y-119690000D03*
%TO.N,K15_SET_SIGNL*%
X145045000Y-53635000D03*
X144235000Y-53635000D03*
X134580000Y-51450000D03*
X133970000Y-51450000D03*
X129940000Y-51450000D03*
X130580000Y-51450000D03*
X90564999Y-56085001D03*
X91214999Y-56085001D03*
%TO.N,BANK_A_RESET_SIGNL*%
X90720000Y-66580000D03*
X90720000Y-65930000D03*
%TO.N,K6_SET_SIGNL*%
X43740000Y-119800000D03*
X43740000Y-118920000D03*
%TO.N,BANK_B_RESET_SIGNL*%
X87360000Y-58070000D03*
X88000000Y-58070000D03*
X111380000Y-46000000D03*
X110150000Y-46000000D03*
X110770000Y-46000000D03*
%TO.N,K5_SET_SIGNL*%
X65840000Y-119500000D03*
X65840000Y-118910000D03*
X67050000Y-62110000D03*
X67050000Y-61470000D03*
X67050000Y-60740000D03*
%TO.N,K4_SET_SIGNL*%
X68330000Y-118260000D03*
X67710000Y-118260000D03*
X67110000Y-118260000D03*
X67840000Y-67610000D03*
X68255000Y-67195000D03*
%TO.N,K3_SET_SIGNL*%
X103620000Y-117690000D03*
X104350000Y-117690000D03*
X56280000Y-71450000D03*
X56280000Y-70820000D03*
X56280000Y-70170000D03*
%TO.N,K2_SET_SIGNL*%
X130210000Y-119520000D03*
X129590000Y-119520000D03*
X103920000Y-115900000D03*
X103290000Y-115900000D03*
X56050000Y-75940000D03*
X56050000Y-75310000D03*
X56050000Y-74550000D03*
%TO.N,K1_RESET_SIGNL*%
X72050000Y-84980000D03*
X71470000Y-84980000D03*
X70860000Y-84980000D03*
X98070000Y-91150000D03*
X98710000Y-91150000D03*
X99300000Y-91150000D03*
D14*
%TO.N,K1_SET_SGNL*%
X65120000Y-93290000D03*
X64575000Y-93835000D03*
D24*
%TO.N,Net-(Q9-Pad1)*%
X113120000Y-38740000D03*
X112530000Y-38740000D03*
D14*
X120930000Y-30750000D03*
X121760000Y-30750000D03*
%TO.N,Vref_OUT*%
X119470000Y-115740000D03*
X118670000Y-115750000D03*
X117120000Y-110670000D03*
X116460000Y-110180000D03*
X118030000Y-115295000D03*
%TO.N,CAL_RESET*%
X52900000Y-88700000D03*
X52900000Y-87580000D03*
X48460000Y-96530000D03*
X48490000Y-95710000D03*
%TO.N,DAC_AUX*%
X112270000Y-97480000D03*
X111460000Y-97480000D03*
%TO.N,DAC_AUX_BUF*%
X108310000Y-108350000D03*
X107510000Y-108360000D03*
%TO.N,K16_SET_SIGNL*%
X58250000Y-40580000D03*
X58250000Y-39770000D03*
%TO.N,K17_SET_SIGNL*%
X55270000Y-59870000D03*
X55270000Y-60680000D03*
%TO.N,CAL_RESET_SIGNL*%
X51660000Y-84250000D03*
X50830000Y-84250000D03*
%TO.N,RX*%
X50780000Y-85360000D03*
X51590000Y-85350000D03*
%TO.N,TX*%
X53250000Y-86380000D03*
X52480000Y-86380000D03*
X48910000Y-81500000D03*
X49680000Y-81500000D03*
%TO.N,LTC2057_SHDN*%
X105570000Y-92680000D03*
X106370000Y-92680000D03*
X68450000Y-91310000D03*
X69270000Y-91310000D03*
X99550000Y-89900000D03*
X98760000Y-89900000D03*
%TD*%
D25*
%TO.N,K1_RESET*%
X104678000Y-106092000D02*
X104678000Y-105022000D01*
X104678000Y-105022000D02*
X104678000Y-104822000D01*
X104678000Y-101319640D02*
X100752360Y-97394000D01*
X104678000Y-104822000D02*
X104678000Y-101319640D01*
D26*
%TO.N,+5V*%
X106360000Y-111390000D02*
X106360000Y-110530000D01*
X106360000Y-110530000D02*
X106360000Y-108290000D01*
D27*
X108710000Y-100080000D02*
X108710000Y-99150000D01*
X106360000Y-102430000D02*
X108710000Y-100080000D01*
X108710000Y-99150000D02*
X108160000Y-98600000D01*
D26*
X108160000Y-98600000D02*
X108160000Y-95760000D01*
X106370000Y-93970000D02*
X104580000Y-93970000D01*
X108160000Y-95760000D02*
X106370000Y-93970000D01*
X111230000Y-104540000D02*
X111230000Y-105240000D01*
X106450000Y-105240000D02*
X106360000Y-105330000D01*
X111230000Y-105240000D02*
X106450000Y-105240000D01*
D27*
X106360000Y-108290000D02*
X106360000Y-105330000D01*
X106360000Y-105330000D02*
X106360000Y-102430000D01*
D26*
X112020000Y-104540000D02*
X112050000Y-104510000D01*
X111230000Y-104540000D02*
X112020000Y-104540000D01*
D25*
%TO.N,K2_RESET_SIGNL*%
X178230000Y-135490000D02*
X178230000Y-136180000D01*
X178230000Y-136180000D02*
X178230000Y-140930000D01*
X178230000Y-140930000D02*
X177230000Y-141930000D01*
X177230000Y-141930000D02*
X161420000Y-141930000D01*
X161420000Y-141930000D02*
X157670000Y-138180000D01*
X157670000Y-138180000D02*
X156150000Y-138180000D01*
X156150000Y-138180000D02*
X154620000Y-136650000D01*
X154620000Y-136650000D02*
X133810000Y-136650000D01*
X133810000Y-136650000D02*
X132800000Y-135640000D01*
X132800000Y-135640000D02*
X112750000Y-135640000D01*
X112200000Y-135640000D02*
X110710000Y-135640000D01*
X112750000Y-135640000D02*
X112200000Y-135640000D01*
X110710000Y-135640000D02*
X86290000Y-135640000D01*
X68370000Y-135640000D02*
X68125000Y-135395000D01*
X67695000Y-134965000D02*
X67260000Y-134530000D01*
X68125000Y-135395000D02*
X67695000Y-134965000D01*
X84940000Y-135640000D02*
X68370000Y-135640000D01*
X85550000Y-135640000D02*
X84940000Y-135640000D01*
X86290000Y-135640000D02*
X85550000Y-135640000D01*
D26*
%TO.N,BANK_B_RESET*%
X136145000Y-75385000D02*
X136145000Y-74165000D01*
X136145000Y-74165000D02*
X136145000Y-71475000D01*
X136145000Y-71475000D02*
X129400000Y-64730000D01*
X129400000Y-64730000D02*
X129400000Y-62620000D01*
X129400000Y-62000000D02*
X129400000Y-62000000D01*
X129400000Y-62620000D02*
X129400000Y-62000000D01*
D27*
%TO.N,PI_GND*%
X88980000Y-126930000D02*
X89435000Y-126475000D01*
D28*
X89435000Y-126475000D02*
X89435000Y-120655000D01*
X92348000Y-117742000D02*
X92348000Y-115592000D01*
X89435000Y-120655000D02*
X92348000Y-117742000D01*
D27*
X71600000Y-105868000D02*
X71606000Y-105862000D01*
X71600000Y-117660000D02*
X71600000Y-105868000D01*
X70206000Y-105862000D02*
X71068000Y-105862000D01*
X71068000Y-105862000D02*
X71606000Y-105862000D01*
X70206000Y-105862000D02*
X70206000Y-107862000D01*
X70206000Y-107862000D02*
X71606000Y-107862000D01*
X71606000Y-106862000D02*
X70206000Y-106862000D01*
X101875000Y-114225000D02*
X102380000Y-113720000D01*
X101685000Y-114225000D02*
X101875000Y-114225000D01*
X107770000Y-113720000D02*
X110510000Y-110980000D01*
X102380000Y-113720000D02*
X107770000Y-113720000D01*
X111880000Y-112350000D02*
X110510000Y-110980000D01*
X111880000Y-112600000D02*
X111880000Y-112350000D01*
X111880000Y-116590000D02*
X111880000Y-112600000D01*
D26*
X54255001Y-69489999D02*
X54255001Y-61695001D01*
X52930000Y-70815000D02*
X54255001Y-69489999D01*
X52770000Y-60210000D02*
X51060000Y-60210000D01*
X54255001Y-61695001D02*
X52770000Y-60210000D01*
X51060000Y-60210000D02*
X51060000Y-59410000D01*
D27*
%TO.N,/PWR_RTN*%
X70434000Y-95182000D02*
X70180000Y-95436000D01*
X70434000Y-87816000D02*
X70434000Y-95182000D01*
%TO.N,/PWR_IN*%
X86436000Y-96636000D02*
X86436000Y-87562000D01*
X96738000Y-104864000D02*
X96004000Y-104130000D01*
X98232360Y-104864000D02*
X96738000Y-104864000D01*
X89358000Y-99558000D02*
X86436000Y-96636000D01*
X96004000Y-104130000D02*
X96004000Y-100574000D01*
X96004000Y-100574000D02*
X94988000Y-99558000D01*
X94988000Y-99558000D02*
X89358000Y-99558000D01*
D26*
%TO.N,/34401_A/COOLERV_div4*%
X98712000Y-63522000D02*
X100482000Y-63522000D01*
X100482000Y-63522000D02*
X101300000Y-64340000D01*
X101300000Y-64340000D02*
X101300000Y-77920000D01*
X107900000Y-84520000D02*
X107900000Y-87300000D01*
X101300000Y-77920000D02*
X107900000Y-84520000D01*
%TO.N,/34401_A/2V5_filt*%
X129078000Y-106098000D02*
X129078000Y-103578000D01*
X129078000Y-103578000D02*
X129078000Y-101398000D01*
X129078000Y-101398000D02*
X126700000Y-99020000D01*
X126700000Y-99020000D02*
X122250000Y-99020000D01*
X122250000Y-99020000D02*
X121440000Y-99020000D01*
X121440000Y-99020000D02*
X120630000Y-99020000D01*
D25*
%TO.N,/34401_B/LOAD_RTN*%
X166570000Y-86946000D02*
X168824000Y-86946000D01*
X168824000Y-86946000D02*
X170810000Y-84960000D01*
X170810000Y-84960000D02*
X170810000Y-75110000D01*
X169835000Y-74135000D02*
X168190000Y-74135000D01*
X170810000Y-75110000D02*
X169835000Y-74135000D01*
%TO.N,/34401_A/GNDA*%
X129078000Y-111178000D02*
X129078000Y-108792000D01*
X129078000Y-108792000D02*
X129240000Y-108630000D01*
X129240000Y-108630000D02*
X135930000Y-108630000D01*
X135930000Y-108630000D02*
X136800000Y-107760000D01*
X136800000Y-107760000D02*
X136800000Y-102960000D01*
X136800000Y-102960000D02*
X132040000Y-98200000D01*
X132040000Y-91050000D02*
X128290000Y-87300000D01*
X132040000Y-98200000D02*
X132040000Y-91050000D01*
X66280000Y-51090000D02*
X93830000Y-51090000D01*
X95430000Y-51090000D02*
X95550000Y-51090000D01*
X94630000Y-51090000D02*
X95430000Y-51090000D01*
X93830000Y-51090000D02*
X94630000Y-51090000D01*
D26*
%TO.N,/34401_A/LOAD+*%
X70430000Y-80000000D02*
X73400000Y-80000000D01*
X78890000Y-74510000D02*
X78890000Y-73704360D01*
X73400000Y-80000000D02*
X78890000Y-74510000D01*
X78890000Y-71184360D02*
X78890000Y-73704360D01*
%TO.N,/34401_A/LOAD_RTN*%
X78890000Y-66104360D02*
X78890000Y-67620000D01*
X78890000Y-67620000D02*
X80060000Y-68790000D01*
X80060000Y-68790000D02*
X82390000Y-68790000D01*
X82390000Y-68790000D02*
X83660000Y-70060000D01*
X83660000Y-70060000D02*
X83660000Y-75810000D01*
X79580000Y-79890000D02*
X79580000Y-80000000D01*
X83660000Y-75810000D02*
X79580000Y-79890000D01*
%TO.N,/34401_A/34401A_RTN*%
X121170000Y-76560000D02*
X121170000Y-78905000D01*
X121165000Y-78910000D02*
X121165000Y-82525000D01*
X121165000Y-82525000D02*
X119940000Y-83750000D01*
X116880000Y-83750000D02*
X107810000Y-74680000D01*
X107810000Y-67735000D02*
X106142000Y-66067000D01*
X107810000Y-74680000D02*
X107810000Y-67735000D01*
D25*
X126538000Y-111178000D02*
X124758000Y-111178000D01*
X124758000Y-111178000D02*
X124060000Y-110480000D01*
X124060000Y-110480000D02*
X124060000Y-102810000D01*
D26*
X117520000Y-83750000D02*
X116880000Y-83750000D01*
X81430000Y-66104360D02*
X83014360Y-66104360D01*
X83014360Y-66104360D02*
X85320000Y-68410000D01*
X85320000Y-68410000D02*
X95940000Y-68410000D01*
X95940000Y-68410000D02*
X96540000Y-68410000D01*
X96540000Y-68410000D02*
X97150000Y-68410000D01*
X97150000Y-68410000D02*
X97790000Y-68410000D01*
X97790000Y-68410000D02*
X98450000Y-68410000D01*
D27*
X119700000Y-100450000D02*
X119650000Y-100450000D01*
X119650000Y-100450000D02*
X117610000Y-98410000D01*
X117610000Y-98410000D02*
X117610000Y-89240000D01*
X118650000Y-88200000D02*
X118650000Y-83750000D01*
X117610000Y-89240000D02*
X118650000Y-88200000D01*
D26*
X119940000Y-83750000D02*
X118650000Y-83750000D01*
X118650000Y-83750000D02*
X117520000Y-83750000D01*
D27*
X121700000Y-100450000D02*
X124060000Y-102810000D01*
X119650000Y-100450000D02*
X121700000Y-100450000D01*
D25*
%TO.N,/34401_B/VLoad_div8*%
X152092000Y-87200000D02*
X152092000Y-78582000D01*
X152092000Y-78582000D02*
X149890000Y-76380000D01*
X149890000Y-76380000D02*
X145270000Y-76380000D01*
X145270000Y-76380000D02*
X143540000Y-74650000D01*
X143540000Y-74650000D02*
X143540000Y-66940000D01*
X142252000Y-65652000D02*
X138574000Y-65652000D01*
X143540000Y-66940000D02*
X142252000Y-65652000D01*
D27*
%TO.N,/34401_B/I_LOAD*%
X159204000Y-86946000D02*
X155710000Y-83452000D01*
X155710000Y-83452000D02*
X155710000Y-76040000D01*
X157610000Y-74140000D02*
X158240000Y-74140000D01*
X155710000Y-76040000D02*
X157610000Y-74140000D01*
X158240000Y-74140000D02*
X160760000Y-74140000D01*
D25*
%TO.N,/34401_B/34401B_V+*%
X141094000Y-68192000D02*
X137232000Y-68192000D01*
X137232000Y-68192000D02*
X136030000Y-66990000D01*
X136030000Y-66990000D02*
X136030000Y-59510000D01*
X145880000Y-49660000D02*
X147750000Y-49660000D01*
X136030000Y-59510000D02*
X145880000Y-49660000D01*
D27*
X138574000Y-68192000D02*
X137302000Y-68192000D01*
X137302000Y-68192000D02*
X133080000Y-63970000D01*
X133080000Y-63970000D02*
X133080000Y-56870000D01*
X133080000Y-56870000D02*
X131920000Y-55710000D01*
X131920000Y-55710000D02*
X131920000Y-49770000D01*
X130860000Y-48710000D02*
X129260000Y-48710000D01*
X131920000Y-49770000D02*
X130860000Y-48710000D01*
%TO.N,/34401_B/34401B_RTN*%
X148519000Y-68192000D02*
X148524000Y-68197000D01*
X146174000Y-68192000D02*
X148519000Y-68192000D01*
X148524000Y-68197000D02*
X153113000Y-68197000D01*
X155320000Y-65990000D02*
X155320000Y-49400000D01*
X153113000Y-68197000D02*
X155320000Y-65990000D01*
X162980000Y-67510000D02*
X161460000Y-65990000D01*
X162980000Y-75710000D02*
X162980000Y-67510000D01*
X161460000Y-65990000D02*
X155320000Y-65990000D01*
X165840000Y-76680000D02*
X163950000Y-76680000D01*
X163950000Y-76680000D02*
X162980000Y-75710000D01*
X161999000Y-109347000D02*
X162004000Y-109342000D01*
X161999000Y-111692000D02*
X161999000Y-109347000D01*
X162004000Y-109342000D02*
X159380000Y-106718000D01*
X159380000Y-106718000D02*
X159380000Y-95080000D01*
X159380000Y-95080000D02*
X155160000Y-90860000D01*
X155160000Y-90860000D02*
X155160000Y-85430000D01*
X155160000Y-85430000D02*
X153750000Y-84020000D01*
X153750000Y-68834000D02*
X153113000Y-68197000D01*
X153750000Y-84020000D02*
X153750000Y-68834000D01*
X155320000Y-49400000D02*
X151310000Y-45390000D01*
X151310000Y-45390000D02*
X145230000Y-45390000D01*
X141910000Y-48710000D02*
X134340000Y-48710000D01*
X145230000Y-45390000D02*
X141910000Y-48710000D01*
%TO.N,/Resistor_Array/RES_RTN*%
X99200000Y-131168000D02*
X96822000Y-128790000D01*
X76980000Y-130880000D02*
X76980000Y-129200000D01*
X76980000Y-129200000D02*
X77410000Y-128770000D01*
X53650000Y-130992000D02*
X53650000Y-129570000D01*
X53650000Y-129570000D02*
X54500000Y-128720000D01*
X97062000Y-129030000D02*
X96822000Y-128790000D01*
X122200000Y-129610000D02*
X121360000Y-128770000D01*
X122240000Y-131324000D02*
X122240000Y-129610000D01*
X122240000Y-129610000D02*
X122200000Y-129610000D01*
X144396000Y-131852000D02*
X141794000Y-129250000D01*
X121840000Y-129250000D02*
X121360000Y-128770000D01*
X77360000Y-128720000D02*
X77410000Y-128770000D01*
X54500000Y-128720000D02*
X77360000Y-128720000D01*
X92980000Y-128720000D02*
X93030000Y-128770000D01*
X77360000Y-128720000D02*
X92980000Y-128720000D01*
X121360000Y-128770000D02*
X93030000Y-128770000D01*
X93030000Y-128770000D02*
X92982000Y-128770000D01*
X141794000Y-129250000D02*
X121840000Y-129250000D01*
X95030000Y-117160000D02*
X95030000Y-109281640D01*
X91280000Y-120910000D02*
X95030000Y-117160000D01*
X95030000Y-109281640D02*
X93152360Y-107404000D01*
X96822000Y-128790000D02*
X92870000Y-128790000D01*
X91280000Y-127200000D02*
X91280000Y-120910000D01*
X92870000Y-128790000D02*
X91280000Y-127200000D01*
X141794000Y-129250000D02*
X147920000Y-129250000D01*
X147920000Y-129250000D02*
X148790000Y-130120000D01*
X148790000Y-130120000D02*
X153390000Y-130120000D01*
X153390000Y-130120000D02*
X154450000Y-129060000D01*
X154450000Y-129060000D02*
X164440000Y-129060000D01*
X165910000Y-130530000D02*
X165910000Y-131730000D01*
X164440000Y-129060000D02*
X165910000Y-130530000D01*
%TO.N,/Resistor_Array/RES_IN*%
X96888858Y-107404000D02*
X98232360Y-107404000D01*
X98120000Y-117350000D02*
X98120000Y-116960000D01*
X99195000Y-118425000D02*
X98120000Y-117350000D01*
X96290000Y-111690000D02*
X96290000Y-108002858D01*
X98120000Y-113520000D02*
X96290000Y-111690000D01*
X96290000Y-108002858D02*
X96888858Y-107404000D01*
X99195000Y-123738000D02*
X99195000Y-121615000D01*
X99195000Y-121615000D02*
X99195000Y-118425000D01*
X122235000Y-122945000D02*
X122235000Y-123894000D01*
X120905000Y-121615000D02*
X122235000Y-122945000D01*
X99195000Y-121615000D02*
X120375000Y-121615000D01*
X120375000Y-121615000D02*
X120905000Y-121615000D01*
X144391000Y-122771000D02*
X144391000Y-124422000D01*
X143235000Y-121615000D02*
X144391000Y-122771000D01*
X98120000Y-116960000D02*
X98120000Y-116350000D01*
X98120000Y-116350000D02*
X98120000Y-115710000D01*
X98120000Y-115710000D02*
X98120000Y-115020000D01*
X98120000Y-115020000D02*
X98120000Y-113520000D01*
X53650000Y-125912000D02*
X53650000Y-121980000D01*
X53650000Y-121980000D02*
X55020000Y-120610000D01*
X55020000Y-120610000D02*
X62620000Y-120610000D01*
X76980000Y-121820000D02*
X76980000Y-125800000D01*
X75770000Y-120610000D02*
X76980000Y-121820000D01*
X62620000Y-120610000D02*
X63310000Y-120610000D01*
X63310000Y-120610000D02*
X64030000Y-120610000D01*
X64030000Y-120610000D02*
X64770000Y-120610000D01*
X64770000Y-120610000D02*
X75770000Y-120610000D01*
X144396000Y-124427000D02*
X144391000Y-124422000D01*
X144396000Y-126772000D02*
X144396000Y-124427000D01*
X144391000Y-124422000D02*
X144391000Y-122469000D01*
X144391000Y-122469000D02*
X145230000Y-121630000D01*
X165910000Y-122850000D02*
X165910000Y-126650000D01*
X164690000Y-121630000D02*
X165910000Y-122850000D01*
X146475000Y-121615000D02*
X146490000Y-121630000D01*
X146490000Y-121630000D02*
X164690000Y-121630000D01*
X145230000Y-121630000D02*
X146490000Y-121630000D01*
X142185000Y-121615000D02*
X146475000Y-121615000D01*
X120375000Y-121615000D02*
X142185000Y-121615000D01*
X142185000Y-121615000D02*
X143235000Y-121615000D01*
%TO.N,K10_SET_SIGNL*%
X158680000Y-117220000D02*
X159320000Y-117220000D01*
D29*
X172170000Y-117220000D02*
X175140000Y-114250000D01*
X175140000Y-114250000D02*
X175140000Y-55210000D01*
X159320000Y-117220000D02*
X172170000Y-117220000D01*
X175140000Y-55210000D02*
X152670000Y-32740000D01*
X74350000Y-39670000D02*
X63440000Y-39670000D01*
X152670000Y-32740000D02*
X129960000Y-32740000D01*
X129960000Y-32740000D02*
X127230000Y-35470000D01*
X127230000Y-35470000D02*
X106970000Y-35470000D01*
X106415000Y-34915000D02*
X79105000Y-34915000D01*
X106970000Y-35470000D02*
X106415000Y-34915000D01*
X79105000Y-34915000D02*
X74350000Y-39670000D01*
D27*
%TO.N,K13_SET_SIGNL*%
X130560000Y-34870000D02*
X129270000Y-34870000D01*
D29*
X71205001Y-43574999D02*
X62554999Y-43574999D01*
X61190000Y-42210000D02*
X60900000Y-42210000D01*
X62554999Y-43574999D02*
X61190000Y-42210000D01*
X128370000Y-35770000D02*
X129270000Y-34870000D01*
X79050000Y-35730000D02*
X105970000Y-35730000D01*
X79050000Y-35730000D02*
X71205001Y-43574999D01*
X105970000Y-35730000D02*
X106320000Y-36080000D01*
X128060000Y-36080000D02*
X129270000Y-34870000D01*
X106320000Y-36080000D02*
X128060000Y-36080000D01*
D27*
%TO.N,K9_SET_SIGNL*%
X143022000Y-114348000D02*
X144322000Y-114348000D01*
D29*
X41510000Y-133660000D02*
X41510000Y-117050000D01*
X178260000Y-143450000D02*
X51000000Y-143450000D01*
X181180000Y-127950000D02*
X181180000Y-140530000D01*
X152428000Y-114348000D02*
X156830000Y-118750000D01*
X164240000Y-118750000D02*
X167700000Y-122210000D01*
X181180000Y-140530000D02*
X178260000Y-143450000D01*
X167700000Y-122210000D02*
X175440000Y-122210000D01*
X144322000Y-114348000D02*
X152428000Y-114348000D01*
X51000000Y-143450000D02*
X41510000Y-133660000D01*
X156830000Y-118750000D02*
X164240000Y-118750000D01*
X175440000Y-122210000D02*
X181180000Y-127950000D01*
X62260000Y-41030000D02*
X63440000Y-42210000D01*
X62260000Y-40940000D02*
X62260000Y-41030000D01*
X57660000Y-42780002D02*
X59500002Y-40940000D01*
X59500002Y-40940000D02*
X62260000Y-40940000D01*
X41510000Y-117050000D02*
X57660000Y-100620000D01*
X57660000Y-100620000D02*
X57660000Y-42780002D01*
D27*
%TO.N,RES_ARRAY_RESET_SIGNL*%
X112590000Y-36830000D02*
X111930000Y-36830000D01*
D29*
X111930000Y-36830000D02*
X78890000Y-36830000D01*
X68430000Y-47290000D02*
X63440000Y-47290000D01*
X78890000Y-36830000D02*
X68430000Y-47290000D01*
D27*
%TO.N,K7_SET_SIGNL*%
X157070000Y-119690000D02*
X158310000Y-119690000D01*
D29*
X42040000Y-133440000D02*
X42040000Y-117530000D01*
X51190000Y-142820000D02*
X42040000Y-133440000D01*
X177760000Y-142820000D02*
X51190000Y-142820000D01*
X164040000Y-119690000D02*
X167330000Y-122980000D01*
X167330000Y-122980000D02*
X175450000Y-122980000D01*
X158310000Y-119690000D02*
X164040000Y-119690000D01*
X175450000Y-122980000D02*
X180500000Y-128030000D01*
X180500000Y-128030000D02*
X180500000Y-140080000D01*
X180500000Y-140080000D02*
X177760000Y-142820000D01*
X62404999Y-51005001D02*
X63440000Y-49970000D01*
X59644999Y-51005001D02*
X62404999Y-51005001D01*
X42040000Y-117520000D02*
X58280000Y-101080000D01*
X63440000Y-49970000D02*
X63440000Y-49830000D01*
X58280000Y-52370000D02*
X59644999Y-51005001D01*
X58280000Y-101080000D02*
X58280000Y-52370000D01*
D27*
%TO.N,K15_SET_SIGNL*%
X90564999Y-56085001D02*
X91214999Y-56085001D01*
D29*
X91214999Y-56085001D02*
X121234999Y-56085001D01*
X125870000Y-51450000D02*
X130580000Y-51450000D01*
X121234999Y-56085001D02*
X125870000Y-51450000D01*
D27*
X129940000Y-51450000D02*
X130580000Y-51450000D01*
%TO.N,BANK_A_RESET_SIGNL*%
X90720000Y-66580000D02*
X90720000Y-65930000D01*
D29*
X90720000Y-65930000D02*
X90720000Y-64700000D01*
X90720000Y-64700000D02*
X87970000Y-61950000D01*
X87970000Y-61950000D02*
X73090000Y-61950000D01*
X73090000Y-61950000D02*
X69740000Y-58600000D01*
X69740000Y-58600000D02*
X68170000Y-58600000D01*
X62264999Y-56085001D02*
X60900000Y-57450000D01*
X68170000Y-58600000D02*
X65655001Y-56085001D01*
X65655001Y-56085001D02*
X62264999Y-56085001D01*
D26*
%TO.N,K6_SET_SIGNL*%
X43740000Y-119800000D02*
X43740000Y-118920000D01*
D29*
X43740000Y-118920000D02*
X43740000Y-117140000D01*
X43740000Y-117140000D02*
X66300000Y-94580000D01*
X66300000Y-94580000D02*
X66300000Y-58460000D01*
X65290000Y-57450000D02*
X63440000Y-57450000D01*
X66300000Y-58460000D02*
X65290000Y-57450000D01*
D27*
%TO.N,BANK_B_RESET_SIGNL*%
X87360000Y-58070000D02*
X88000000Y-58070000D01*
D29*
X88000000Y-58070000D02*
X88000000Y-56910000D01*
X88000000Y-56910000D02*
X90070000Y-54840000D01*
X90070000Y-54840000D02*
X98370000Y-54840000D01*
X98370000Y-54840000D02*
X99110000Y-54100000D01*
X99110000Y-54100000D02*
X99110000Y-52780000D01*
X99110000Y-52780000D02*
X105890000Y-46000000D01*
X105890000Y-46000000D02*
X110740000Y-46000000D01*
D27*
X111340000Y-46000000D02*
X110150000Y-46000000D01*
D29*
X111270000Y-46000000D02*
X111340000Y-46000000D01*
D27*
X110150000Y-46000000D02*
X110150000Y-46000000D01*
D29*
X110740000Y-46000000D02*
X111270000Y-46000000D01*
D26*
%TO.N,K5_SET_SIGNL*%
X65840000Y-119500000D02*
X65840000Y-118910000D01*
D29*
X65840000Y-118910000D02*
X65840000Y-96170000D01*
X65840000Y-96170000D02*
X67050000Y-94960000D01*
X67050000Y-94960000D02*
X67050000Y-62220000D01*
D25*
X67050000Y-62220000D02*
X67050000Y-62110000D01*
X67050000Y-62110000D02*
X67050000Y-61470000D01*
X67050000Y-61470000D02*
X67050000Y-60740000D01*
X67050000Y-60740000D02*
X67050000Y-60740000D01*
D27*
%TO.N,K4_SET_SIGNL*%
X68330000Y-118260000D02*
X67110000Y-118260000D01*
D29*
X67110000Y-118260000D02*
X66330000Y-117480000D01*
X66330000Y-117480000D02*
X66330000Y-96430000D01*
X66330000Y-96430000D02*
X67620000Y-95140000D01*
X67620000Y-95140000D02*
X67620000Y-67610000D01*
D26*
X67800000Y-67650000D02*
X67840000Y-67610000D01*
X67840000Y-67610000D02*
X68255000Y-67195000D01*
X68255000Y-67195000D02*
X68330000Y-67120000D01*
D27*
%TO.N,K2_SET_SIGNL*%
X130210000Y-119520000D02*
X129590000Y-119520000D01*
D29*
X130210000Y-119520000D02*
X107540000Y-119520000D01*
X107540000Y-119520000D02*
X103920000Y-115900000D01*
D27*
X103920000Y-115900000D02*
X103290000Y-115900000D01*
D29*
X103920000Y-115900000D02*
X103920000Y-115900000D01*
D27*
%TO.N,K1_RESET_SIGNL*%
X72050000Y-84980000D02*
X70860000Y-84980000D01*
D29*
X72050000Y-84980000D02*
X96710000Y-84980000D01*
X96710000Y-84980000D02*
X97420000Y-85690000D01*
X97420000Y-85690000D02*
X97420000Y-90570000D01*
X97420000Y-90570000D02*
X98000000Y-91150000D01*
D27*
X98000000Y-91150000D02*
X98070000Y-91150000D01*
X98070000Y-91150000D02*
X98710000Y-91150000D01*
X98710000Y-91150000D02*
X99300000Y-91150000D01*
D29*
%TO.N,K1_SET_SGNL*%
X63440000Y-77770000D02*
X64820000Y-77770000D01*
X64820000Y-77770000D02*
X65630000Y-78580000D01*
X65630000Y-78580000D02*
X65630000Y-91370000D01*
X65630000Y-91370000D02*
X65630000Y-92790000D01*
X65630000Y-92790000D02*
X65140000Y-93280000D01*
D27*
X65140000Y-93280000D02*
X65130000Y-93280000D01*
X65130000Y-93280000D02*
X65120000Y-93290000D01*
X65120000Y-93290000D02*
X64575000Y-93835000D01*
D30*
%TO.N,Vref_OUT*%
X118680000Y-115740000D02*
X118670000Y-115750000D01*
X118670000Y-115750000D02*
X118485000Y-115750000D01*
X118030000Y-111580000D02*
X117120000Y-110670000D01*
X118030000Y-115295000D02*
X118030000Y-111580000D01*
X116630000Y-110180000D02*
X117120000Y-110670000D01*
X116460000Y-110180000D02*
X116630000Y-110180000D01*
D27*
X119470000Y-115740000D02*
X118680000Y-115740000D01*
X118485000Y-115750000D02*
X118030000Y-115295000D01*
D25*
%TO.N,CAL_RESET*%
X45500000Y-78440000D02*
X45500000Y-81760000D01*
X51320000Y-87580000D02*
X52900000Y-87580000D01*
X45500000Y-81760000D02*
X51320000Y-87580000D01*
X52900000Y-87580000D02*
X52900000Y-88700000D01*
D26*
X52900000Y-88700000D02*
X52900000Y-92910000D01*
X52900000Y-92910000D02*
X50900000Y-94910000D01*
X50900000Y-94910000D02*
X49290000Y-94910000D01*
X49290000Y-94910000D02*
X48460000Y-95740000D01*
X48460000Y-95740000D02*
X48460000Y-95840000D01*
X48460000Y-96530000D02*
X48460000Y-96580000D01*
X48460000Y-95840000D02*
X48460000Y-96530000D01*
D25*
%TO.N,DAC_AUX_BUF*%
X130200000Y-73820000D02*
X126050000Y-73820000D01*
X124940000Y-90680000D02*
X124940000Y-84200000D01*
X126770000Y-82370000D02*
X130100000Y-82370000D01*
X126050000Y-73820000D02*
X123710000Y-71480000D01*
X131730000Y-80740000D02*
X131730000Y-75350000D01*
X131730000Y-75350000D02*
X130200000Y-73820000D01*
X124940000Y-84200000D02*
X126770000Y-82370000D01*
X130100000Y-82370000D02*
X131730000Y-80740000D01*
X124940000Y-90920000D02*
X128320000Y-94300000D01*
D31*
X124940000Y-90680000D02*
X124940000Y-90920000D01*
D26*
X45500000Y-73360000D02*
X47690000Y-71170000D01*
X47690000Y-71170000D02*
X47690000Y-59200000D01*
X47690000Y-59200000D02*
X48880000Y-58010000D01*
X48880000Y-53040000D02*
X46930000Y-51090000D01*
X48880000Y-58010000D02*
X48880000Y-53040000D01*
D30*
%TO.N,TX*%
X53250000Y-86380000D02*
X54140000Y-85490000D01*
X54140000Y-85490000D02*
X54140000Y-84070000D01*
X54140000Y-84070000D02*
X51570000Y-81500000D01*
X51570000Y-81500000D02*
X49680000Y-81500000D01*
X48910000Y-81500000D02*
X48910000Y-81500000D01*
X49680000Y-81500000D02*
X48910000Y-81500000D01*
D26*
%TO.N,LTC2057_SHDN*%
X102790000Y-89900000D02*
X105570000Y-92680000D01*
X98760000Y-89900000D02*
X102790000Y-89900000D01*
X105570000Y-92680000D02*
X106370000Y-92680000D01*
%TD*%
M02*
