M48
; DRILL file {KiCad 5.1.6-c6e7f7d~86~ubuntu18.04.1} date Thu May 28 18:16:56 2020
; FORMAT={-:-/ absolute / metric / decimal}
; #@! TF.CreationDate,2020-05-28T18:16:56-07:00
; #@! TF.GenerationSoftware,Kicad,Pcbnew,5.1.6-c6e7f7d~86~ubuntu18.04.1
; #@! TF.FileFunction,Plated,1,4,PTH
FMAT,2
METRIC
T1C0.300
T2C0.500
T3C1.000
T4C1.150
T5C1.200
T6C1.500
T7C2.700
T8C3.200
%
G90
G05
T1
X42.82Y-126.48
X42.82Y-127.38
X43.29Y-125.86
X43.74Y-118.92
X43.74Y-119.8
X44.07Y-129.86
X44.07Y-130.71
X46.04Y-39.59
X47.35Y-39.6
X47.54Y-129.32
X48.46Y-96.53
X48.69Y-81.49
X48.79Y-95.36
X49.68Y-81.5
X50.505Y-90.315
X50.77Y-84.05
X50.78Y-85.36
X51.06Y-60.21
X51.5Y-58.92
X51.63Y-84.15
X51.64Y-90.32
X51.88Y-85.36
X52.204Y-137.396
X52.48Y-86.38
X52.52Y-37.68
X52.53Y-36.43
X52.884Y-137.396
X52.9Y-87.58
X52.9Y-88.7
X53.51Y-86.14
X55.27Y-59.87
X55.3Y-61.18
X56.05Y-74.55
X56.05Y-75.94
X56.09Y-47.31
X56.28Y-70.82
X56.28Y-71.64
X56.29Y-69.9
X56.33Y-46.15
X56.44Y-75.22
X58.23Y-40.94
X58.25Y-39.77
X59.35Y-80.32
X59.47Y-94.38
X60.28Y-95.21
X62.22Y-120.64
X62.25Y-119.8
X63.14Y-119.93
X63.85Y-121.01
X64.37Y-93.97
X65.12Y-93.29
X65.84Y-118.91
X65.84Y-119.67
X66.11Y-41.36
X66.28Y-51.09
X66.35Y-42.34
X66.56Y-40.73
X66.58Y-130.1
X67.05Y-60.74
X67.05Y-61.57
X67.05Y-62.39
X67.11Y-118.26
X67.22Y-51.09
X67.29Y-134.52
X67.38Y-40.93
X67.47Y-130.53
X67.74Y-117.39
X67.75Y-135.03
X67.84Y-64.48
X67.84Y-67.61
X68.26Y-135.51
X68.37Y-118.26
X68.4Y-91.57
X68.45Y-65.28
X68.49Y-66.88
X69.06Y-90.71
X69.12Y-60.26
X69.13Y-59.41
X69.56Y-76.41
X69.9Y-73.34
X69.91Y-75.69
X69.92Y-74.89
X69.93Y-74.13
X70.48Y-84.97
X70.98Y-116.08
X71.23Y-84.98
X71.6Y-117.4
X72.05Y-84.98
X72.2Y-116.63
X72.303Y-102.997
X74.493Y-102.997
X75.44Y-137.39
X75.642Y-47.008
X76.24Y-137.39
X76.397Y-102.136
X76.75Y-46.77
X77.5Y-46.01
X78.19Y-45.32
X78.775Y-101.564
X79.17Y-44.36
X81.245Y-101.564
X82.72Y-107.7
X82.72Y-108.63
X82.72Y-109.52
X83.07Y-95.37
X83.09Y-96.27
X83.11Y-97.13
X83.11Y-98.11
X84.76Y-135.63
X85.32Y-106.15
X85.326Y-106.934
X85.33Y-105.45
X85.55Y-135.64
X86.29Y-135.64
X86.72Y-58.05
X88.0Y-58.07
X88.98Y-126.93
X89.435Y-126.475
X89.75Y-133.7
X90.47Y-133.7
X90.565Y-56.085
X90.72Y-65.37
X90.72Y-66.58
X91.23Y-133.7
X91.33Y-77.09
X91.62Y-56.08
X91.75Y-78.03
X92.12Y-72.11
X92.348Y-115.592
X92.348Y-116.232
X92.75Y-73.29
X92.78Y-72.52
X92.91Y-78.33
X93.27Y-50.97
X93.475Y-38.095
X94.44Y-50.09
X94.704Y-38.496
X95.43Y-51.09
X95.44Y-68.42
X96.17Y-114.91
X96.33Y-68.41
X96.43Y-113.76
X96.78Y-92.68
X96.897Y-39.512
X96.9Y-114.59
X97.15Y-68.41
X97.51Y-92.704
X97.65Y-91.12
X97.76Y-137.59
X98.08Y-68.39
X98.12Y-115.02
X98.12Y-116.96
X98.286Y-92.704
X98.43Y-137.59
X98.51Y-89.9
X98.53Y-91.15
X98.745Y-78.275
X98.83Y-116.26
X98.91Y-115.18
X99.35Y-89.9
X99.44Y-91.15
X99.77Y-78.45
X99.844Y-76.736
X99.9Y-54.77
X100.2Y-52.95
X100.24Y-77.4
X100.45Y-53.9
X101.685Y-114.225
X102.38Y-113.72
X102.75Y-81.61
X102.92Y-52.61
X103.07Y-115.9
X103.29Y-53.4
X103.596Y-81.614
X103.62Y-117.69
X103.92Y-115.9
X104.35Y-117.69
X104.44Y-95.82
X104.58Y-93.97
X104.678Y-104.822
X104.678Y-105.452
X104.678Y-106.092
X105.485Y-95.835
X105.57Y-92.68
X105.68Y-93.96
X106.36Y-110.53
X106.36Y-111.39
X106.602Y-115.562
X106.89Y-92.38
X107.32Y-108.82
X107.405Y-116.625
X108.02Y-98.55
X108.23Y-120.32
X108.31Y-108.35
X108.71Y-99.15
X109.09Y-72.18
X109.09Y-73.96
X109.11Y-73.01
X109.54Y-62.17
X109.54Y-63.17
X109.55Y-120.34
X109.67Y-111.83
X109.87Y-45.99
X110.175Y-99.775
X110.2Y-98.57
X110.35Y-75.29
X110.51Y-73.87
X110.51Y-110.98
X110.77Y-46.0
X110.8Y-120.33
X111.23Y-104.54
X111.46Y-97.48
X111.54Y-126.84
X111.67Y-36.83
X111.76Y-135.65
X111.8Y-45.99
X111.88Y-112.6
X111.88Y-116.59
X111.9Y-109.37
X112.21Y-38.73
X112.26Y-126.19
X112.38Y-104.52
X112.48Y-135.66
X112.52Y-98.26
X112.59Y-36.83
X113.12Y-38.74
X113.15Y-135.64
X115.5Y-117.47
X116.13Y-38.74
X116.46Y-110.18
X116.61Y-117.45
X117.03Y-38.74
X117.28Y-110.91
X117.29Y-106.55
X117.3Y-107.58
X118.03Y-115.295
X118.36Y-82.34
X118.555Y-81.325
X119.04Y-114.77
X119.51Y-82.02
X119.67Y-115.75
X120.63Y-99.02
X120.806Y-137.684
X120.93Y-30.75
X121.536Y-137.684
X121.7Y-99.02
X122.08Y-30.71
X122.66Y-99.0
X128.17Y-117.57
X128.92Y-35.15
X129.1Y-119.51
X129.11Y-117.57
X129.4Y-62.0
X129.42Y-62.96
X129.59Y-51.44
X129.91Y-34.87
X130.182Y-117.588
X130.21Y-119.52
X130.58Y-51.45
X130.72Y-59.35
X130.82Y-60.62
X130.95Y-34.85
X131.01Y-69.98
X131.94Y-70.44
X131.96Y-72.32
X132.72Y-35.88
X133.392Y-76.408
X133.42Y-75.18
X133.51Y-35.62
X133.69Y-51.45
X134.15Y-126.68
X134.18Y-36.08
X134.33Y-127.62
X134.58Y-51.45
X134.608Y-96.672
X134.608Y-98.082
X134.63Y-97.36
X135.04Y-126.96
X136.145Y-74.86
X136.16Y-72.95
X136.16Y-73.88
X138.68Y-105.74
X138.68Y-106.49
X138.68Y-107.2
X138.86Y-79.11
X140.1Y-79.43
X140.13Y-112.29
X140.3Y-111.44
X140.38Y-110.59
X140.51Y-78.53
X140.56Y-44.51
X140.56Y-46.17
X140.57Y-45.3
X142.57Y-114.33
X143.37Y-114.33
X143.778Y-138.282
X144.235Y-53.635
X144.322Y-114.348
X144.668Y-138.282
X145.045Y-53.635
X146.8Y-55.22
X146.86Y-54.46
X147.465Y-55.575
X149.4Y-128.73
X150.34Y-128.62
X151.19Y-128.52
X151.89Y-129.03
X152.318Y-105.502
X152.318Y-107.08
X152.32Y-106.29
X152.454Y-64.446
X152.46Y-65.96
X152.47Y-65.22
X154.62Y-124.86
X154.69Y-99.7
X155.06Y-98.98
X155.275Y-125.535
X155.375Y-137.385
X155.64Y-99.66
X156.12Y-138.08
X156.43Y-130.85
X156.436Y-131.734
X156.96Y-138.17
X157.07Y-119.69
X157.84Y-119.69
X158.64Y-119.68
X158.68Y-117.22
X159.8Y-117.21
X164.64Y-138.21
X165.01Y-62.77
X165.32Y-137.75
X165.78Y-63.08
X166.285Y-63.595
X171.23Y-128.3
X171.42Y-127.34
X172.395Y-127.785
X173.195Y-105.195
X173.37Y-136.49
X173.38Y-135.62
X173.51Y-103.72
X173.51Y-104.48
X173.97Y-109.18
X173.99Y-108.37
X178.23Y-135.49
X178.23Y-136.6
X179.03Y-130.35
X179.76Y-129.49
X179.76Y-130.25
X71.875Y-123.4
X71.9Y-133.4
X74.44Y-133.4
X74.475Y-123.45
X76.975Y-123.45
X76.98Y-133.4
X79.52Y-133.4
X79.525Y-123.45
X84.45Y-133.4
X84.6Y-123.5
X70.206Y-105.862
X70.206Y-106.862
X70.206Y-107.862
X71.606Y-105.862
X71.606Y-106.862
X71.606Y-107.862
X42.98Y-65.74
X42.98Y-68.28
X42.98Y-70.82
X42.98Y-73.36
X42.98Y-78.29
X52.88Y-78.44
X52.93Y-68.315
X52.93Y-70.815
X52.93Y-73.365
X52.98Y-65.715
X160.805Y-124.25
X160.83Y-134.25
X163.37Y-134.25
X163.405Y-124.3
X165.905Y-124.3
X165.91Y-134.25
X168.45Y-134.25
X168.455Y-124.3
X173.38Y-134.25
X173.53Y-124.35
X44.41Y-43.47
X44.41Y-46.01
X44.41Y-48.55
X44.41Y-51.09
X44.41Y-56.02
X54.31Y-56.17
X54.36Y-46.045
X54.36Y-48.545
X54.36Y-51.095
X54.41Y-43.445
X121.458Y-113.478
X121.608Y-103.578
X126.533Y-113.528
X126.538Y-103.578
X129.078Y-103.578
X129.083Y-113.528
X131.583Y-113.528
X131.618Y-103.578
X134.158Y-103.578
X134.183Y-113.578
X90.752Y-109.969
X90.802Y-102.319
X90.802Y-104.869
X90.802Y-107.369
X90.852Y-97.244
X100.752Y-97.394
X100.752Y-102.324
X100.752Y-104.864
X100.752Y-107.404
X100.752Y-109.944
X78.47Y-41.01
X78.47Y-42.01
X78.47Y-43.01
X79.87Y-41.01
X79.87Y-42.01
X79.87Y-43.01
X126.74Y-41.09
X126.74Y-43.63
X126.74Y-46.17
X126.74Y-48.71
X126.74Y-53.64
X136.64Y-53.79
X136.69Y-43.665
X136.69Y-46.165
X136.69Y-48.715
X136.74Y-41.065
X156.924Y-111.642
X157.074Y-101.742
X161.999Y-111.692
X162.004Y-101.742
X164.544Y-101.742
X164.549Y-111.692
X167.049Y-111.692
X167.084Y-101.742
X169.624Y-101.742
X169.649Y-111.742
X73.785Y-63.704
X73.81Y-73.704
X76.35Y-73.704
X76.385Y-63.754
X78.885Y-63.754
X78.89Y-73.704
X81.43Y-73.704
X81.435Y-63.754
X86.36Y-73.704
X86.51Y-63.804
X158.24Y-69.06
X158.24Y-71.6
X158.24Y-74.14
X158.24Y-76.68
X158.24Y-81.61
X168.14Y-81.76
X168.19Y-71.635
X168.19Y-74.135
X168.19Y-76.685
X168.24Y-69.035
X48.545Y-123.512
X48.57Y-133.512
X51.11Y-133.512
X51.145Y-123.562
X53.645Y-123.562
X53.65Y-133.512
X56.19Y-133.512
X56.195Y-123.562
X61.12Y-133.512
X61.27Y-123.612
X94.095Y-123.688
X94.12Y-133.688
X96.66Y-133.688
X96.695Y-123.738
X99.195Y-123.738
X99.2Y-133.688
X101.74Y-133.688
X101.745Y-123.738
X106.67Y-133.688
X106.82Y-123.788
X96.192Y-58.442
X96.192Y-60.982
X96.192Y-63.522
X96.192Y-66.062
X96.192Y-70.992
X106.092Y-71.142
X106.142Y-61.017
X106.142Y-63.517
X106.142Y-66.067
X106.192Y-58.417
X117.135Y-123.844
X117.16Y-133.844
X119.7Y-133.844
X119.735Y-123.894
X122.235Y-123.894
X122.24Y-133.844
X124.78Y-133.844
X124.785Y-123.894
X129.71Y-133.844
X129.86Y-123.944
X116.09Y-78.86
X116.24Y-68.96
X121.165Y-78.91
X121.17Y-68.96
X123.71Y-68.96
X123.715Y-78.91
X126.215Y-78.91
X126.25Y-68.96
X128.79Y-68.96
X128.815Y-78.96
X139.291Y-124.372
X139.316Y-134.372
X141.856Y-134.372
X141.891Y-124.422
X144.391Y-124.422
X144.396Y-134.372
X146.936Y-134.372
X146.941Y-124.422
X151.866Y-134.372
X152.016Y-124.472
X138.574Y-60.572
X138.574Y-63.112
X138.574Y-65.652
X138.574Y-68.192
X138.574Y-73.122
X148.474Y-73.272
X148.524Y-63.147
X148.524Y-65.647
X148.524Y-68.197
X148.574Y-60.547
T2
X180.43Y-32.69
X181.133Y-30.993
X181.133Y-34.387
X182.83Y-30.29
X182.83Y-35.09
X184.527Y-30.993
X184.527Y-34.387
X185.23Y-32.69
X60.145Y-90.12
X60.738Y-88.688
X60.738Y-91.552
X62.17Y-88.095
X62.17Y-92.145
X63.602Y-88.688
X63.602Y-91.552
X64.195Y-90.12
X109.145Y-32.12
X109.738Y-30.688
X109.738Y-33.552
X111.17Y-30.095
X111.17Y-34.145
X112.602Y-30.688
X112.602Y-33.552
X113.195Y-32.12
X109.145Y-90.12
X109.738Y-88.688
X109.738Y-91.552
X111.17Y-88.095
X111.17Y-92.145
X112.602Y-88.688
X112.602Y-91.552
X113.195Y-90.12
X42.28Y-32.69
X42.983Y-30.993
X42.983Y-34.387
X44.68Y-30.29
X44.68Y-35.09
X46.377Y-30.993
X46.377Y-34.387
X47.08Y-32.69
X180.43Y-144.5
X181.133Y-142.803
X181.133Y-146.197
X182.83Y-142.1
X182.83Y-146.9
X184.527Y-142.803
X184.527Y-146.197
X185.23Y-144.5
X60.145Y-32.12
X60.738Y-30.688
X60.738Y-33.552
X62.17Y-30.095
X62.17Y-34.145
X63.602Y-30.688
X63.602Y-33.552
X64.195Y-32.12
X42.28Y-144.48
X42.983Y-142.783
X42.983Y-146.177
X44.68Y-142.08
X44.68Y-146.88
X46.377Y-142.783
X46.377Y-146.177
X47.08Y-144.48
T3
X60.9Y-37.13
X60.9Y-39.67
X60.9Y-42.21
X60.9Y-44.75
X60.9Y-47.29
X60.9Y-49.83
X60.9Y-52.37
X60.9Y-54.91
X60.9Y-57.45
X60.9Y-59.99
X60.9Y-62.53
X60.9Y-65.07
X60.9Y-67.61
X60.9Y-70.15
X60.9Y-72.69
X60.9Y-75.23
X60.9Y-77.77
X60.9Y-80.31
X60.9Y-82.85
X60.9Y-85.39
X63.44Y-37.13
X63.44Y-39.67
X63.44Y-42.21
X63.44Y-44.75
X63.44Y-47.29
X63.44Y-49.83
X63.44Y-52.37
X63.44Y-54.91
X63.44Y-57.45
X63.44Y-59.99
X63.44Y-62.53
X63.44Y-65.07
X63.44Y-67.61
X63.44Y-70.15
X63.44Y-72.69
X63.44Y-75.23
X63.44Y-77.77
X63.44Y-80.31
X63.44Y-82.85
X63.44Y-85.39
X71.19Y-33.8
X76.19Y-33.8
X59.026Y-108.012
X59.026Y-113.012
T4
X71.9Y-125.8
X71.9Y-130.88
X74.44Y-125.8
X74.44Y-130.88
X76.98Y-125.8
X76.98Y-130.88
X79.52Y-125.8
X79.52Y-130.88
X84.6Y-125.8
X84.6Y-130.88
X45.5Y-65.74
X45.5Y-68.28
X45.5Y-70.82
X45.5Y-73.36
X45.5Y-78.44
X50.58Y-65.74
X50.58Y-68.28
X50.58Y-70.82
X50.58Y-73.36
X50.58Y-78.44
X160.83Y-126.65
X160.83Y-131.73
X163.37Y-126.65
X163.37Y-131.73
X165.91Y-126.65
X165.91Y-131.73
X168.45Y-126.65
X168.45Y-131.73
X173.53Y-126.65
X173.53Y-131.73
X46.93Y-43.47
X46.93Y-46.01
X46.93Y-48.55
X46.93Y-51.09
X46.93Y-56.17
X52.01Y-43.47
X52.01Y-46.01
X52.01Y-48.55
X52.01Y-51.09
X52.01Y-56.17
X121.458Y-106.098
X121.458Y-111.178
X126.538Y-106.098
X126.538Y-111.178
X129.078Y-106.098
X129.078Y-111.178
X131.618Y-106.098
X131.618Y-111.178
X134.158Y-106.098
X134.158Y-111.178
X93.152Y-97.244
X93.152Y-102.324
X93.152Y-104.864
X93.152Y-107.404
X93.152Y-109.944
X98.232Y-97.244
X98.232Y-102.324
X98.232Y-104.864
X98.232Y-107.404
X98.232Y-109.944
X129.26Y-41.09
X129.26Y-43.63
X129.26Y-46.17
X129.26Y-48.71
X129.26Y-53.79
X134.34Y-41.09
X134.34Y-43.63
X134.34Y-46.17
X134.34Y-48.71
X134.34Y-53.79
X156.924Y-104.262
X156.924Y-109.342
X162.004Y-104.262
X162.004Y-109.342
X164.544Y-104.262
X164.544Y-109.342
X167.084Y-104.262
X167.084Y-109.342
X169.624Y-104.262
X169.624Y-109.342
X73.81Y-66.104
X73.81Y-71.184
X76.35Y-66.104
X76.35Y-71.184
X78.89Y-66.104
X78.89Y-71.184
X81.43Y-66.104
X81.43Y-71.184
X86.51Y-66.104
X86.51Y-71.184
X160.76Y-69.06
X160.76Y-71.6
X160.76Y-74.14
X160.76Y-76.68
X160.76Y-81.76
X165.84Y-69.06
X165.84Y-71.6
X165.84Y-74.14
X165.84Y-76.68
X165.84Y-81.76
X48.57Y-125.912
X48.57Y-130.992
X51.11Y-125.912
X51.11Y-130.992
X53.65Y-125.912
X53.65Y-130.992
X56.19Y-125.912
X56.19Y-130.992
X61.27Y-125.912
X61.27Y-130.992
X94.12Y-126.088
X94.12Y-131.168
X96.66Y-126.088
X96.66Y-131.168
X99.2Y-126.088
X99.2Y-131.168
X101.74Y-126.088
X101.74Y-131.168
X106.82Y-126.088
X106.82Y-131.168
X98.712Y-58.442
X98.712Y-60.982
X98.712Y-63.522
X98.712Y-66.062
X98.712Y-71.142
X103.792Y-58.442
X103.792Y-60.982
X103.792Y-63.522
X103.792Y-66.062
X103.792Y-71.142
X117.16Y-126.244
X117.16Y-131.324
X119.7Y-126.244
X119.7Y-131.324
X122.24Y-126.244
X122.24Y-131.324
X124.78Y-126.244
X124.78Y-131.324
X129.86Y-126.244
X129.86Y-131.324
X116.09Y-71.48
X116.09Y-76.56
X121.17Y-71.48
X121.17Y-76.56
X123.71Y-71.48
X123.71Y-76.56
X126.25Y-71.48
X126.25Y-76.56
X128.79Y-71.48
X128.79Y-76.56
X139.316Y-126.772
X139.316Y-131.852
X141.856Y-126.772
X141.856Y-131.852
X144.396Y-126.772
X144.396Y-131.852
X146.936Y-126.772
X146.936Y-131.852
X152.016Y-126.772
X152.016Y-131.852
X141.094Y-60.572
X141.094Y-63.112
X141.094Y-65.652
X141.094Y-68.192
X141.094Y-73.272
X146.174Y-60.572
X146.174Y-63.112
X146.174Y-65.652
X146.174Y-68.192
X146.174Y-73.272
T5
X79.39Y-53.43
X84.39Y-53.43
T6
X149.79Y-94.0
X93.294Y-87.562
X116.62Y-58.99
X101.74Y-138.83
X60.95Y-138.54
X122.19Y-58.81
X79.578Y-87.562
X169.05Y-139.23
X70.43Y-80.0
X106.95Y-87.3
X70.434Y-87.816
X146.92Y-140.06
X70.18Y-95.436
X145.488Y-87.2
X107.21Y-138.75
X121.32Y-87.3
X128.32Y-87.3
X79.578Y-95.436
X128.32Y-94.3
X100.66Y-87.308
X78.73Y-138.74
X121.32Y-94.28
X174.75Y-139.2
X155.32Y-49.4
X166.57Y-86.946
X152.65Y-139.98
X147.75Y-49.66
X142.13Y-94.0
X55.87Y-138.73
X86.436Y-87.562
X84.01Y-138.48
X162.93Y-49.26
X152.092Y-87.2
X159.204Y-86.946
X138.63Y-87.2
X115.72Y-87.28
X104.56Y-41.24
X129.98Y-138.84
X109.61Y-41.24
X79.58Y-80.0
X124.58Y-138.9
T7
X62.17Y-90.12
X111.17Y-32.12
X111.17Y-90.12
X62.17Y-32.12
T8
X182.83Y-144.5
X44.68Y-144.48
X182.83Y-32.69
X44.68Y-32.69
T0
M30
