%TF.GenerationSoftware,KiCad,Pcbnew,5.1.6-c6e7f7d~86~ubuntu18.04.1*%
%TF.CreationDate,2020-05-28T18:17:00-07:00*%
%TF.ProjectId,Cal_Station,43616c5f-5374-4617-9469-6f6e2e6b6963,rev?*%
%TF.SameCoordinates,Original*%
%TF.FileFunction,Legend,Bot*%
%TF.FilePolarity,Positive*%
%FSLAX46Y46*%
G04 Gerber Fmt 4.6, Leading zero omitted, Abs format (unit mm)*
G04 Created by KiCad (PCBNEW 5.1.6-c6e7f7d~86~ubuntu18.04.1) date 2020-05-28 18:17:00*
%MOMM*%
%LPD*%
G01*
G04 APERTURE LIST*
%ADD10C,0.150000*%
%ADD11C,0.120000*%
G04 APERTURE END LIST*
D10*
%TO.C,K17*%
X54008840Y-78443960D02*
X54714960Y-78443960D01*
D11*
X55509360Y-70779440D02*
X55509360Y-70058520D01*
X56109360Y-71479440D02*
X56109360Y-70779440D01*
X55509360Y-71479440D02*
X55509360Y-72334360D01*
X55709360Y-71479440D02*
X55309360Y-70779440D01*
X56109360Y-70779440D02*
X54909360Y-70779440D01*
D10*
X54354280Y-78108680D02*
X54354280Y-78814800D01*
D11*
X54909360Y-71479440D02*
X56109360Y-71479440D01*
X54909360Y-70779440D02*
X54909360Y-71479440D01*
D10*
X54043080Y-66245920D02*
X54043080Y-65539800D01*
G36*
X45399120Y-63757120D02*
G01*
X45841080Y-63604720D01*
X45968080Y-63315160D01*
X45968080Y-63111960D01*
X45881720Y-62913840D01*
X45780120Y-62817320D01*
X45607400Y-62741120D01*
X45449920Y-62720800D01*
X45277200Y-62741120D01*
X45124800Y-62868120D01*
X45007960Y-62984960D01*
X44962240Y-63178000D01*
X44967320Y-63396440D01*
X45058760Y-63574240D01*
X45201000Y-63691080D01*
X45399120Y-63757120D01*
G37*
X45399120Y-63757120D02*
X45841080Y-63604720D01*
X45968080Y-63315160D01*
X45968080Y-63111960D01*
X45881720Y-62913840D01*
X45780120Y-62817320D01*
X45607400Y-62741120D01*
X45449920Y-62720800D01*
X45277200Y-62741120D01*
X45124800Y-62868120D01*
X45007960Y-62984960D01*
X44962240Y-63178000D01*
X44967320Y-63396440D01*
X45058760Y-63574240D01*
X45201000Y-63691080D01*
X45399120Y-63757120D01*
X46018414Y-63238960D02*
G75*
G03*
X46018414Y-63238960I-553254J0D01*
G01*
D11*
X40409360Y-70654440D02*
X40409360Y-69933520D01*
D10*
X41604280Y-77983680D02*
X41604280Y-78689800D01*
D11*
X39809360Y-71354440D02*
X41009360Y-71354440D01*
X40609360Y-71354440D02*
X40209360Y-70654440D01*
X41009360Y-70654440D02*
X39809360Y-70654440D01*
X39809360Y-70654440D02*
X39809360Y-71354440D01*
D10*
X41793080Y-66120920D02*
X41793080Y-65414800D01*
D11*
X41009360Y-71354440D02*
X41009360Y-70654440D01*
X40409360Y-71354440D02*
X40409360Y-72209360D01*
D10*
X41258840Y-78318960D02*
X41964960Y-78318960D01*
%TO.C,K16*%
X55438840Y-56173960D02*
X56144960Y-56173960D01*
D11*
X56939360Y-48509440D02*
X56939360Y-47788520D01*
X57539360Y-49209440D02*
X57539360Y-48509440D01*
X56939360Y-49209440D02*
X56939360Y-50064360D01*
X57139360Y-49209440D02*
X56739360Y-48509440D01*
X57539360Y-48509440D02*
X56339360Y-48509440D01*
D10*
X55784280Y-55838680D02*
X55784280Y-56544800D01*
D11*
X56339360Y-49209440D02*
X57539360Y-49209440D01*
X56339360Y-48509440D02*
X56339360Y-49209440D01*
D10*
X55473080Y-43975920D02*
X55473080Y-43269800D01*
G36*
X46829120Y-41487120D02*
G01*
X47271080Y-41334720D01*
X47398080Y-41045160D01*
X47398080Y-40841960D01*
X47311720Y-40643840D01*
X47210120Y-40547320D01*
X47037400Y-40471120D01*
X46879920Y-40450800D01*
X46707200Y-40471120D01*
X46554800Y-40598120D01*
X46437960Y-40714960D01*
X46392240Y-40908000D01*
X46397320Y-41126440D01*
X46488760Y-41304240D01*
X46631000Y-41421080D01*
X46829120Y-41487120D01*
G37*
X46829120Y-41487120D02*
X47271080Y-41334720D01*
X47398080Y-41045160D01*
X47398080Y-40841960D01*
X47311720Y-40643840D01*
X47210120Y-40547320D01*
X47037400Y-40471120D01*
X46879920Y-40450800D01*
X46707200Y-40471120D01*
X46554800Y-40598120D01*
X46437960Y-40714960D01*
X46392240Y-40908000D01*
X46397320Y-41126440D01*
X46488760Y-41304240D01*
X46631000Y-41421080D01*
X46829120Y-41487120D01*
X47448414Y-40968960D02*
G75*
G03*
X47448414Y-40968960I-553254J0D01*
G01*
D11*
X41839360Y-48384440D02*
X41839360Y-47663520D01*
D10*
X43034280Y-55713680D02*
X43034280Y-56419800D01*
D11*
X41239360Y-49084440D02*
X42439360Y-49084440D01*
X42039360Y-49084440D02*
X41639360Y-48384440D01*
X42439360Y-48384440D02*
X41239360Y-48384440D01*
X41239360Y-48384440D02*
X41239360Y-49084440D01*
D10*
X43223080Y-43850920D02*
X43223080Y-43144800D01*
D11*
X42439360Y-49084440D02*
X42439360Y-48384440D01*
X41839360Y-49084440D02*
X41839360Y-49939360D01*
D10*
X42688840Y-56048960D02*
X43394960Y-56048960D01*
%TO.C,K15*%
X149602840Y-73275960D02*
X150308960Y-73275960D01*
D11*
X151103360Y-65611440D02*
X151103360Y-64890520D01*
X151703360Y-66311440D02*
X151703360Y-65611440D01*
X151103360Y-66311440D02*
X151103360Y-67166360D01*
X151303360Y-66311440D02*
X150903360Y-65611440D01*
X151703360Y-65611440D02*
X150503360Y-65611440D01*
D10*
X149948280Y-72940680D02*
X149948280Y-73646800D01*
D11*
X150503360Y-66311440D02*
X151703360Y-66311440D01*
X150503360Y-65611440D02*
X150503360Y-66311440D01*
D10*
X149637080Y-61077920D02*
X149637080Y-60371800D01*
G36*
X140993120Y-58589120D02*
G01*
X141435080Y-58436720D01*
X141562080Y-58147160D01*
X141562080Y-57943960D01*
X141475720Y-57745840D01*
X141374120Y-57649320D01*
X141201400Y-57573120D01*
X141043920Y-57552800D01*
X140871200Y-57573120D01*
X140718800Y-57700120D01*
X140601960Y-57816960D01*
X140556240Y-58010000D01*
X140561320Y-58228440D01*
X140652760Y-58406240D01*
X140795000Y-58523080D01*
X140993120Y-58589120D01*
G37*
X140993120Y-58589120D02*
X141435080Y-58436720D01*
X141562080Y-58147160D01*
X141562080Y-57943960D01*
X141475720Y-57745840D01*
X141374120Y-57649320D01*
X141201400Y-57573120D01*
X141043920Y-57552800D01*
X140871200Y-57573120D01*
X140718800Y-57700120D01*
X140601960Y-57816960D01*
X140556240Y-58010000D01*
X140561320Y-58228440D01*
X140652760Y-58406240D01*
X140795000Y-58523080D01*
X140993120Y-58589120D01*
X141612414Y-58070960D02*
G75*
G03*
X141612414Y-58070960I-553254J0D01*
G01*
D11*
X136003360Y-65486440D02*
X136003360Y-64765520D01*
D10*
X137198280Y-72815680D02*
X137198280Y-73521800D01*
D11*
X135403360Y-66186440D02*
X136603360Y-66186440D01*
X136203360Y-66186440D02*
X135803360Y-65486440D01*
X136603360Y-65486440D02*
X135403360Y-65486440D01*
X135403360Y-65486440D02*
X135403360Y-66186440D01*
D10*
X137387080Y-60952920D02*
X137387080Y-60246800D01*
D11*
X136603360Y-66186440D02*
X136603360Y-65486440D01*
X136003360Y-66186440D02*
X136003360Y-67041360D01*
D10*
X136852840Y-73150960D02*
X137558960Y-73150960D01*
%TO.C,K14*%
X156920040Y-112770840D02*
X156920040Y-113476960D01*
D11*
X164584560Y-114271360D02*
X165305480Y-114271360D01*
X163884560Y-114871360D02*
X164584560Y-114871360D01*
X163884560Y-114271360D02*
X163029640Y-114271360D01*
X163884560Y-114471360D02*
X164584560Y-114071360D01*
X164584560Y-114871360D02*
X164584560Y-113671360D01*
D10*
X157255320Y-113116280D02*
X156549200Y-113116280D01*
D11*
X163884560Y-113671360D02*
X163884560Y-114871360D01*
X164584560Y-113671360D02*
X163884560Y-113671360D01*
D10*
X169118080Y-112805080D02*
X169824200Y-112805080D01*
G36*
X171606880Y-104161120D02*
G01*
X171759280Y-104603080D01*
X172048840Y-104730080D01*
X172252040Y-104730080D01*
X172450160Y-104643720D01*
X172546680Y-104542120D01*
X172622880Y-104369400D01*
X172643200Y-104211920D01*
X172622880Y-104039200D01*
X172495880Y-103886800D01*
X172379040Y-103769960D01*
X172186000Y-103724240D01*
X171967560Y-103729320D01*
X171789760Y-103820760D01*
X171672920Y-103963000D01*
X171606880Y-104161120D01*
G37*
X171606880Y-104161120D02*
X171759280Y-104603080D01*
X172048840Y-104730080D01*
X172252040Y-104730080D01*
X172450160Y-104643720D01*
X172546680Y-104542120D01*
X172622880Y-104369400D01*
X172643200Y-104211920D01*
X172622880Y-104039200D01*
X172495880Y-103886800D01*
X172379040Y-103769960D01*
X172186000Y-103724240D01*
X171967560Y-103729320D01*
X171789760Y-103820760D01*
X171672920Y-103963000D01*
X171606880Y-104161120D01*
X172678294Y-104227160D02*
G75*
G03*
X172678294Y-104227160I-553254J0D01*
G01*
D11*
X164709560Y-99171360D02*
X165430480Y-99171360D01*
D10*
X157380320Y-100366280D02*
X156674200Y-100366280D01*
D11*
X164009560Y-98571360D02*
X164009560Y-99771360D01*
X164009560Y-99371360D02*
X164709560Y-98971360D01*
X164709560Y-99771360D02*
X164709560Y-98571360D01*
X164709560Y-98571360D02*
X164009560Y-98571360D01*
D10*
X169243080Y-100555080D02*
X169949200Y-100555080D01*
D11*
X164009560Y-99771360D02*
X164709560Y-99771360D01*
X164009560Y-99171360D02*
X163154640Y-99171360D01*
D10*
X157045040Y-100020840D02*
X157045040Y-100726960D01*
%TO.C,K13*%
X137768840Y-53793960D02*
X138474960Y-53793960D01*
D11*
X139269360Y-46129440D02*
X139269360Y-45408520D01*
X139869360Y-46829440D02*
X139869360Y-46129440D01*
X139269360Y-46829440D02*
X139269360Y-47684360D01*
X139469360Y-46829440D02*
X139069360Y-46129440D01*
X139869360Y-46129440D02*
X138669360Y-46129440D01*
D10*
X138114280Y-53458680D02*
X138114280Y-54164800D01*
D11*
X138669360Y-46829440D02*
X139869360Y-46829440D01*
X138669360Y-46129440D02*
X138669360Y-46829440D01*
D10*
X137803080Y-41595920D02*
X137803080Y-40889800D01*
G36*
X129159120Y-39107120D02*
G01*
X129601080Y-38954720D01*
X129728080Y-38665160D01*
X129728080Y-38461960D01*
X129641720Y-38263840D01*
X129540120Y-38167320D01*
X129367400Y-38091120D01*
X129209920Y-38070800D01*
X129037200Y-38091120D01*
X128884800Y-38218120D01*
X128767960Y-38334960D01*
X128722240Y-38528000D01*
X128727320Y-38746440D01*
X128818760Y-38924240D01*
X128961000Y-39041080D01*
X129159120Y-39107120D01*
G37*
X129159120Y-39107120D02*
X129601080Y-38954720D01*
X129728080Y-38665160D01*
X129728080Y-38461960D01*
X129641720Y-38263840D01*
X129540120Y-38167320D01*
X129367400Y-38091120D01*
X129209920Y-38070800D01*
X129037200Y-38091120D01*
X128884800Y-38218120D01*
X128767960Y-38334960D01*
X128722240Y-38528000D01*
X128727320Y-38746440D01*
X128818760Y-38924240D01*
X128961000Y-39041080D01*
X129159120Y-39107120D01*
X129778414Y-38588960D02*
G75*
G03*
X129778414Y-38588960I-553254J0D01*
G01*
D11*
X124169360Y-46004440D02*
X124169360Y-45283520D01*
D10*
X125364280Y-53333680D02*
X125364280Y-54039800D01*
D11*
X123569360Y-46704440D02*
X124769360Y-46704440D01*
X124369360Y-46704440D02*
X123969360Y-46004440D01*
X124769360Y-46004440D02*
X123569360Y-46004440D01*
X123569360Y-46004440D02*
X123569360Y-46704440D01*
D10*
X125553080Y-41470920D02*
X125553080Y-40764800D01*
D11*
X124769360Y-46704440D02*
X124769360Y-46004440D01*
X124169360Y-46704440D02*
X124169360Y-47559360D01*
D10*
X125018840Y-53668960D02*
X125724960Y-53668960D01*
%TO.C,K12*%
X169268840Y-81763960D02*
X169974960Y-81763960D01*
D11*
X170769360Y-74099440D02*
X170769360Y-73378520D01*
X171369360Y-74799440D02*
X171369360Y-74099440D01*
X170769360Y-74799440D02*
X170769360Y-75654360D01*
X170969360Y-74799440D02*
X170569360Y-74099440D01*
X171369360Y-74099440D02*
X170169360Y-74099440D01*
D10*
X169614280Y-81428680D02*
X169614280Y-82134800D01*
D11*
X170169360Y-74799440D02*
X171369360Y-74799440D01*
X170169360Y-74099440D02*
X170169360Y-74799440D01*
D10*
X169303080Y-69565920D02*
X169303080Y-68859800D01*
G36*
X160659120Y-67077120D02*
G01*
X161101080Y-66924720D01*
X161228080Y-66635160D01*
X161228080Y-66431960D01*
X161141720Y-66233840D01*
X161040120Y-66137320D01*
X160867400Y-66061120D01*
X160709920Y-66040800D01*
X160537200Y-66061120D01*
X160384800Y-66188120D01*
X160267960Y-66304960D01*
X160222240Y-66498000D01*
X160227320Y-66716440D01*
X160318760Y-66894240D01*
X160461000Y-67011080D01*
X160659120Y-67077120D01*
G37*
X160659120Y-67077120D02*
X161101080Y-66924720D01*
X161228080Y-66635160D01*
X161228080Y-66431960D01*
X161141720Y-66233840D01*
X161040120Y-66137320D01*
X160867400Y-66061120D01*
X160709920Y-66040800D01*
X160537200Y-66061120D01*
X160384800Y-66188120D01*
X160267960Y-66304960D01*
X160222240Y-66498000D01*
X160227320Y-66716440D01*
X160318760Y-66894240D01*
X160461000Y-67011080D01*
X160659120Y-67077120D01*
X161278414Y-66558960D02*
G75*
G03*
X161278414Y-66558960I-553254J0D01*
G01*
D11*
X155669360Y-73974440D02*
X155669360Y-73253520D01*
D10*
X156864280Y-81303680D02*
X156864280Y-82009800D01*
D11*
X155069360Y-74674440D02*
X156269360Y-74674440D01*
X155869360Y-74674440D02*
X155469360Y-73974440D01*
X156269360Y-73974440D02*
X155069360Y-73974440D01*
X155069360Y-73974440D02*
X155069360Y-74674440D01*
D10*
X157053080Y-69440920D02*
X157053080Y-68734800D01*
D11*
X156269360Y-74674440D02*
X156269360Y-73974440D01*
X155669360Y-74674440D02*
X155669360Y-75529360D01*
D10*
X156518840Y-81638960D02*
X157224960Y-81638960D01*
%TO.C,K11*%
X107220840Y-71145960D02*
X107926960Y-71145960D01*
D11*
X108721360Y-63481440D02*
X108721360Y-62760520D01*
X109321360Y-64181440D02*
X109321360Y-63481440D01*
X108721360Y-64181440D02*
X108721360Y-65036360D01*
X108921360Y-64181440D02*
X108521360Y-63481440D01*
X109321360Y-63481440D02*
X108121360Y-63481440D01*
D10*
X107566280Y-70810680D02*
X107566280Y-71516800D01*
D11*
X108121360Y-64181440D02*
X109321360Y-64181440D01*
X108121360Y-63481440D02*
X108121360Y-64181440D01*
D10*
X107255080Y-58947920D02*
X107255080Y-58241800D01*
G36*
X98611120Y-56459120D02*
G01*
X99053080Y-56306720D01*
X99180080Y-56017160D01*
X99180080Y-55813960D01*
X99093720Y-55615840D01*
X98992120Y-55519320D01*
X98819400Y-55443120D01*
X98661920Y-55422800D01*
X98489200Y-55443120D01*
X98336800Y-55570120D01*
X98219960Y-55686960D01*
X98174240Y-55880000D01*
X98179320Y-56098440D01*
X98270760Y-56276240D01*
X98413000Y-56393080D01*
X98611120Y-56459120D01*
G37*
X98611120Y-56459120D02*
X99053080Y-56306720D01*
X99180080Y-56017160D01*
X99180080Y-55813960D01*
X99093720Y-55615840D01*
X98992120Y-55519320D01*
X98819400Y-55443120D01*
X98661920Y-55422800D01*
X98489200Y-55443120D01*
X98336800Y-55570120D01*
X98219960Y-55686960D01*
X98174240Y-55880000D01*
X98179320Y-56098440D01*
X98270760Y-56276240D01*
X98413000Y-56393080D01*
X98611120Y-56459120D01*
X99230414Y-55940960D02*
G75*
G03*
X99230414Y-55940960I-553254J0D01*
G01*
D11*
X93621360Y-63356440D02*
X93621360Y-62635520D01*
D10*
X94816280Y-70685680D02*
X94816280Y-71391800D01*
D11*
X93021360Y-64056440D02*
X94221360Y-64056440D01*
X93821360Y-64056440D02*
X93421360Y-63356440D01*
X94221360Y-63356440D02*
X93021360Y-63356440D01*
X93021360Y-63356440D02*
X93021360Y-64056440D01*
D10*
X95005080Y-58822920D02*
X95005080Y-58116800D01*
D11*
X94221360Y-64056440D02*
X94221360Y-63356440D01*
X93621360Y-64056440D02*
X93621360Y-64911360D01*
D10*
X94470840Y-71020960D02*
X95176960Y-71020960D01*
%TO.C,K10*%
X116086040Y-79988840D02*
X116086040Y-80694960D01*
D11*
X123750560Y-81489360D02*
X124471480Y-81489360D01*
X123050560Y-82089360D02*
X123750560Y-82089360D01*
X123050560Y-81489360D02*
X122195640Y-81489360D01*
X123050560Y-81689360D02*
X123750560Y-81289360D01*
X123750560Y-82089360D02*
X123750560Y-80889360D01*
D10*
X116421320Y-80334280D02*
X115715200Y-80334280D01*
D11*
X123050560Y-80889360D02*
X123050560Y-82089360D01*
X123750560Y-80889360D02*
X123050560Y-80889360D01*
D10*
X128284080Y-80023080D02*
X128990200Y-80023080D01*
G36*
X130772880Y-71379120D02*
G01*
X130925280Y-71821080D01*
X131214840Y-71948080D01*
X131418040Y-71948080D01*
X131616160Y-71861720D01*
X131712680Y-71760120D01*
X131788880Y-71587400D01*
X131809200Y-71429920D01*
X131788880Y-71257200D01*
X131661880Y-71104800D01*
X131545040Y-70987960D01*
X131352000Y-70942240D01*
X131133560Y-70947320D01*
X130955760Y-71038760D01*
X130838920Y-71181000D01*
X130772880Y-71379120D01*
G37*
X130772880Y-71379120D02*
X130925280Y-71821080D01*
X131214840Y-71948080D01*
X131418040Y-71948080D01*
X131616160Y-71861720D01*
X131712680Y-71760120D01*
X131788880Y-71587400D01*
X131809200Y-71429920D01*
X131788880Y-71257200D01*
X131661880Y-71104800D01*
X131545040Y-70987960D01*
X131352000Y-70942240D01*
X131133560Y-70947320D01*
X130955760Y-71038760D01*
X130838920Y-71181000D01*
X130772880Y-71379120D01*
X131844294Y-71445160D02*
G75*
G03*
X131844294Y-71445160I-553254J0D01*
G01*
D11*
X123875560Y-66389360D02*
X124596480Y-66389360D01*
D10*
X116546320Y-67584280D02*
X115840200Y-67584280D01*
D11*
X123175560Y-65789360D02*
X123175560Y-66989360D01*
X123175560Y-66589360D02*
X123875560Y-66189360D01*
X123875560Y-66989360D02*
X123875560Y-65789360D01*
X123875560Y-65789360D02*
X123175560Y-65789360D01*
D10*
X128409080Y-67773080D02*
X129115200Y-67773080D01*
D11*
X123175560Y-66989360D02*
X123875560Y-66989360D01*
X123175560Y-66389360D02*
X122320640Y-66389360D01*
D10*
X116211040Y-67238840D02*
X116211040Y-67944960D01*
%TO.C,K9*%
X121454040Y-114606840D02*
X121454040Y-115312960D01*
D11*
X129118560Y-116107360D02*
X129839480Y-116107360D01*
X128418560Y-116707360D02*
X129118560Y-116707360D01*
X128418560Y-116107360D02*
X127563640Y-116107360D01*
X128418560Y-116307360D02*
X129118560Y-115907360D01*
X129118560Y-116707360D02*
X129118560Y-115507360D01*
D10*
X121789320Y-114952280D02*
X121083200Y-114952280D01*
D11*
X128418560Y-115507360D02*
X128418560Y-116707360D01*
X129118560Y-115507360D02*
X128418560Y-115507360D01*
D10*
X133652080Y-114641080D02*
X134358200Y-114641080D01*
G36*
X136140880Y-105997120D02*
G01*
X136293280Y-106439080D01*
X136582840Y-106566080D01*
X136786040Y-106566080D01*
X136984160Y-106479720D01*
X137080680Y-106378120D01*
X137156880Y-106205400D01*
X137177200Y-106047920D01*
X137156880Y-105875200D01*
X137029880Y-105722800D01*
X136913040Y-105605960D01*
X136720000Y-105560240D01*
X136501560Y-105565320D01*
X136323760Y-105656760D01*
X136206920Y-105799000D01*
X136140880Y-105997120D01*
G37*
X136140880Y-105997120D02*
X136293280Y-106439080D01*
X136582840Y-106566080D01*
X136786040Y-106566080D01*
X136984160Y-106479720D01*
X137080680Y-106378120D01*
X137156880Y-106205400D01*
X137177200Y-106047920D01*
X137156880Y-105875200D01*
X137029880Y-105722800D01*
X136913040Y-105605960D01*
X136720000Y-105560240D01*
X136501560Y-105565320D01*
X136323760Y-105656760D01*
X136206920Y-105799000D01*
X136140880Y-105997120D01*
X137212294Y-106063160D02*
G75*
G03*
X137212294Y-106063160I-553254J0D01*
G01*
D11*
X129243560Y-101007360D02*
X129964480Y-101007360D01*
D10*
X121914320Y-102202280D02*
X121208200Y-102202280D01*
D11*
X128543560Y-100407360D02*
X128543560Y-101607360D01*
X128543560Y-101207360D02*
X129243560Y-100807360D01*
X129243560Y-101607360D02*
X129243560Y-100407360D01*
X129243560Y-100407360D02*
X128543560Y-100407360D01*
D10*
X133777080Y-102391080D02*
X134483200Y-102391080D01*
D11*
X128543560Y-101607360D02*
X129243560Y-101607360D01*
X128543560Y-101007360D02*
X127688640Y-101007360D01*
D10*
X121579040Y-101856840D02*
X121579040Y-102562960D01*
%TO.C,K8*%
X86513960Y-62675520D02*
X86513960Y-61969400D01*
D11*
X78849440Y-61175000D02*
X78128520Y-61175000D01*
X79549440Y-60575000D02*
X78849440Y-60575000D01*
X79549440Y-61175000D02*
X80404360Y-61175000D01*
X79549440Y-60975000D02*
X78849440Y-61375000D01*
X78849440Y-60575000D02*
X78849440Y-61775000D01*
D10*
X86178680Y-62330080D02*
X86884800Y-62330080D01*
D11*
X79549440Y-61775000D02*
X79549440Y-60575000D01*
X78849440Y-61775000D02*
X79549440Y-61775000D01*
D10*
X74315920Y-62641280D02*
X73609800Y-62641280D01*
G36*
X71827120Y-71285240D02*
G01*
X71674720Y-70843280D01*
X71385160Y-70716280D01*
X71181960Y-70716280D01*
X70983840Y-70802640D01*
X70887320Y-70904240D01*
X70811120Y-71076960D01*
X70790800Y-71234440D01*
X70811120Y-71407160D01*
X70938120Y-71559560D01*
X71054960Y-71676400D01*
X71248000Y-71722120D01*
X71466440Y-71717040D01*
X71644240Y-71625600D01*
X71761080Y-71483360D01*
X71827120Y-71285240D01*
G37*
X71827120Y-71285240D02*
X71674720Y-70843280D01*
X71385160Y-70716280D01*
X71181960Y-70716280D01*
X70983840Y-70802640D01*
X70887320Y-70904240D01*
X70811120Y-71076960D01*
X70790800Y-71234440D01*
X70811120Y-71407160D01*
X70938120Y-71559560D01*
X71054960Y-71676400D01*
X71248000Y-71722120D01*
X71466440Y-71717040D01*
X71644240Y-71625600D01*
X71761080Y-71483360D01*
X71827120Y-71285240D01*
X71862214Y-71219200D02*
G75*
G03*
X71862214Y-71219200I-553254J0D01*
G01*
D11*
X78724440Y-76275000D02*
X78003520Y-76275000D01*
D10*
X86053680Y-75080080D02*
X86759800Y-75080080D01*
D11*
X79424440Y-76875000D02*
X79424440Y-75675000D01*
X79424440Y-76075000D02*
X78724440Y-76475000D01*
X78724440Y-75675000D02*
X78724440Y-76875000D01*
X78724440Y-76875000D02*
X79424440Y-76875000D01*
D10*
X74190920Y-74891280D02*
X73484800Y-74891280D01*
D11*
X79424440Y-75675000D02*
X78724440Y-75675000D01*
X79424440Y-76275000D02*
X80279360Y-76275000D01*
D10*
X86388960Y-75425520D02*
X86388960Y-74719400D01*
%TO.C,K7*%
X173533960Y-123221160D02*
X173533960Y-122515040D01*
D11*
X165869440Y-121720640D02*
X165148520Y-121720640D01*
X166569440Y-121120640D02*
X165869440Y-121120640D01*
X166569440Y-121720640D02*
X167424360Y-121720640D01*
X166569440Y-121520640D02*
X165869440Y-121920640D01*
X165869440Y-121120640D02*
X165869440Y-122320640D01*
D10*
X173198680Y-122875720D02*
X173904800Y-122875720D01*
D11*
X166569440Y-122320640D02*
X166569440Y-121120640D01*
X165869440Y-122320640D02*
X166569440Y-122320640D01*
D10*
X161335920Y-123186920D02*
X160629800Y-123186920D01*
G36*
X158847120Y-131830880D02*
G01*
X158694720Y-131388920D01*
X158405160Y-131261920D01*
X158201960Y-131261920D01*
X158003840Y-131348280D01*
X157907320Y-131449880D01*
X157831120Y-131622600D01*
X157810800Y-131780080D01*
X157831120Y-131952800D01*
X157958120Y-132105200D01*
X158074960Y-132222040D01*
X158268000Y-132267760D01*
X158486440Y-132262680D01*
X158664240Y-132171240D01*
X158781080Y-132029000D01*
X158847120Y-131830880D01*
G37*
X158847120Y-131830880D02*
X158694720Y-131388920D01*
X158405160Y-131261920D01*
X158201960Y-131261920D01*
X158003840Y-131348280D01*
X157907320Y-131449880D01*
X157831120Y-131622600D01*
X157810800Y-131780080D01*
X157831120Y-131952800D01*
X157958120Y-132105200D01*
X158074960Y-132222040D01*
X158268000Y-132267760D01*
X158486440Y-132262680D01*
X158664240Y-132171240D01*
X158781080Y-132029000D01*
X158847120Y-131830880D01*
X158882214Y-131764840D02*
G75*
G03*
X158882214Y-131764840I-553254J0D01*
G01*
D11*
X165744440Y-136820640D02*
X165023520Y-136820640D01*
D10*
X173073680Y-135625720D02*
X173779800Y-135625720D01*
D11*
X166444440Y-137420640D02*
X166444440Y-136220640D01*
X166444440Y-136620640D02*
X165744440Y-137020640D01*
X165744440Y-136220640D02*
X165744440Y-137420640D01*
X165744440Y-137420640D02*
X166444440Y-137420640D01*
D10*
X161210920Y-135436920D02*
X160504800Y-135436920D01*
D11*
X166444440Y-136220640D02*
X165744440Y-136220640D01*
X166444440Y-136820640D02*
X167299360Y-136820640D01*
D10*
X173408960Y-135971160D02*
X173408960Y-135265040D01*
%TO.C,K6*%
X61273960Y-122483160D02*
X61273960Y-121777040D01*
D11*
X53609440Y-120982640D02*
X52888520Y-120982640D01*
X54309440Y-120382640D02*
X53609440Y-120382640D01*
X54309440Y-120982640D02*
X55164360Y-120982640D01*
X54309440Y-120782640D02*
X53609440Y-121182640D01*
X53609440Y-120382640D02*
X53609440Y-121582640D01*
D10*
X60938680Y-122137720D02*
X61644800Y-122137720D01*
D11*
X54309440Y-121582640D02*
X54309440Y-120382640D01*
X53609440Y-121582640D02*
X54309440Y-121582640D01*
D10*
X49075920Y-122448920D02*
X48369800Y-122448920D01*
G36*
X46587120Y-131092880D02*
G01*
X46434720Y-130650920D01*
X46145160Y-130523920D01*
X45941960Y-130523920D01*
X45743840Y-130610280D01*
X45647320Y-130711880D01*
X45571120Y-130884600D01*
X45550800Y-131042080D01*
X45571120Y-131214800D01*
X45698120Y-131367200D01*
X45814960Y-131484040D01*
X46008000Y-131529760D01*
X46226440Y-131524680D01*
X46404240Y-131433240D01*
X46521080Y-131291000D01*
X46587120Y-131092880D01*
G37*
X46587120Y-131092880D02*
X46434720Y-130650920D01*
X46145160Y-130523920D01*
X45941960Y-130523920D01*
X45743840Y-130610280D01*
X45647320Y-130711880D01*
X45571120Y-130884600D01*
X45550800Y-131042080D01*
X45571120Y-131214800D01*
X45698120Y-131367200D01*
X45814960Y-131484040D01*
X46008000Y-131529760D01*
X46226440Y-131524680D01*
X46404240Y-131433240D01*
X46521080Y-131291000D01*
X46587120Y-131092880D01*
X46622214Y-131026840D02*
G75*
G03*
X46622214Y-131026840I-553254J0D01*
G01*
D11*
X53484440Y-136082640D02*
X52763520Y-136082640D01*
D10*
X60813680Y-134887720D02*
X61519800Y-134887720D01*
D11*
X54184440Y-136682640D02*
X54184440Y-135482640D01*
X54184440Y-135882640D02*
X53484440Y-136282640D01*
X53484440Y-135482640D02*
X53484440Y-136682640D01*
X53484440Y-136682640D02*
X54184440Y-136682640D01*
D10*
X48950920Y-134698920D02*
X48244800Y-134698920D01*
D11*
X54184440Y-135482640D02*
X53484440Y-135482640D01*
X54184440Y-136082640D02*
X55039360Y-136082640D01*
D10*
X61148960Y-135233160D02*
X61148960Y-134527040D01*
%TO.C,K5*%
X84603960Y-122371160D02*
X84603960Y-121665040D01*
D11*
X76939440Y-120870640D02*
X76218520Y-120870640D01*
X77639440Y-120270640D02*
X76939440Y-120270640D01*
X77639440Y-120870640D02*
X78494360Y-120870640D01*
X77639440Y-120670640D02*
X76939440Y-121070640D01*
X76939440Y-120270640D02*
X76939440Y-121470640D01*
D10*
X84268680Y-122025720D02*
X84974800Y-122025720D01*
D11*
X77639440Y-121470640D02*
X77639440Y-120270640D01*
X76939440Y-121470640D02*
X77639440Y-121470640D01*
D10*
X72405920Y-122336920D02*
X71699800Y-122336920D01*
G36*
X69917120Y-130980880D02*
G01*
X69764720Y-130538920D01*
X69475160Y-130411920D01*
X69271960Y-130411920D01*
X69073840Y-130498280D01*
X68977320Y-130599880D01*
X68901120Y-130772600D01*
X68880800Y-130930080D01*
X68901120Y-131102800D01*
X69028120Y-131255200D01*
X69144960Y-131372040D01*
X69338000Y-131417760D01*
X69556440Y-131412680D01*
X69734240Y-131321240D01*
X69851080Y-131179000D01*
X69917120Y-130980880D01*
G37*
X69917120Y-130980880D02*
X69764720Y-130538920D01*
X69475160Y-130411920D01*
X69271960Y-130411920D01*
X69073840Y-130498280D01*
X68977320Y-130599880D01*
X68901120Y-130772600D01*
X68880800Y-130930080D01*
X68901120Y-131102800D01*
X69028120Y-131255200D01*
X69144960Y-131372040D01*
X69338000Y-131417760D01*
X69556440Y-131412680D01*
X69734240Y-131321240D01*
X69851080Y-131179000D01*
X69917120Y-130980880D01*
X69952214Y-130914840D02*
G75*
G03*
X69952214Y-130914840I-553254J0D01*
G01*
D11*
X76814440Y-135970640D02*
X76093520Y-135970640D01*
D10*
X84143680Y-134775720D02*
X84849800Y-134775720D01*
D11*
X77514440Y-136570640D02*
X77514440Y-135370640D01*
X77514440Y-135770640D02*
X76814440Y-136170640D01*
X76814440Y-135370640D02*
X76814440Y-136570640D01*
X76814440Y-136570640D02*
X77514440Y-136570640D01*
D10*
X72280920Y-134586920D02*
X71574800Y-134586920D01*
D11*
X77514440Y-135370640D02*
X76814440Y-135370640D01*
X77514440Y-135970640D02*
X78369360Y-135970640D01*
D10*
X84478960Y-135121160D02*
X84478960Y-134415040D01*
%TO.C,K4*%
X106823960Y-122659160D02*
X106823960Y-121953040D01*
D11*
X99159440Y-121158640D02*
X98438520Y-121158640D01*
X99859440Y-120558640D02*
X99159440Y-120558640D01*
X99859440Y-121158640D02*
X100714360Y-121158640D01*
X99859440Y-120958640D02*
X99159440Y-121358640D01*
X99159440Y-120558640D02*
X99159440Y-121758640D01*
D10*
X106488680Y-122313720D02*
X107194800Y-122313720D01*
D11*
X99859440Y-121758640D02*
X99859440Y-120558640D01*
X99159440Y-121758640D02*
X99859440Y-121758640D01*
D10*
X94625920Y-122624920D02*
X93919800Y-122624920D01*
G36*
X92137120Y-131268880D02*
G01*
X91984720Y-130826920D01*
X91695160Y-130699920D01*
X91491960Y-130699920D01*
X91293840Y-130786280D01*
X91197320Y-130887880D01*
X91121120Y-131060600D01*
X91100800Y-131218080D01*
X91121120Y-131390800D01*
X91248120Y-131543200D01*
X91364960Y-131660040D01*
X91558000Y-131705760D01*
X91776440Y-131700680D01*
X91954240Y-131609240D01*
X92071080Y-131467000D01*
X92137120Y-131268880D01*
G37*
X92137120Y-131268880D02*
X91984720Y-130826920D01*
X91695160Y-130699920D01*
X91491960Y-130699920D01*
X91293840Y-130786280D01*
X91197320Y-130887880D01*
X91121120Y-131060600D01*
X91100800Y-131218080D01*
X91121120Y-131390800D01*
X91248120Y-131543200D01*
X91364960Y-131660040D01*
X91558000Y-131705760D01*
X91776440Y-131700680D01*
X91954240Y-131609240D01*
X92071080Y-131467000D01*
X92137120Y-131268880D01*
X92172214Y-131202840D02*
G75*
G03*
X92172214Y-131202840I-553254J0D01*
G01*
D11*
X99034440Y-136258640D02*
X98313520Y-136258640D01*
D10*
X106363680Y-135063720D02*
X107069800Y-135063720D01*
D11*
X99734440Y-136858640D02*
X99734440Y-135658640D01*
X99734440Y-136058640D02*
X99034440Y-136458640D01*
X99034440Y-135658640D02*
X99034440Y-136858640D01*
X99034440Y-136858640D02*
X99734440Y-136858640D01*
D10*
X94500920Y-134874920D02*
X93794800Y-134874920D01*
D11*
X99734440Y-135658640D02*
X99034440Y-135658640D01*
X99734440Y-136258640D02*
X100589360Y-136258640D01*
D10*
X106698960Y-135409160D02*
X106698960Y-134703040D01*
%TO.C,K3*%
X129863960Y-122815160D02*
X129863960Y-122109040D01*
D11*
X122199440Y-121314640D02*
X121478520Y-121314640D01*
X122899440Y-120714640D02*
X122199440Y-120714640D01*
X122899440Y-121314640D02*
X123754360Y-121314640D01*
X122899440Y-121114640D02*
X122199440Y-121514640D01*
X122199440Y-120714640D02*
X122199440Y-121914640D01*
D10*
X129528680Y-122469720D02*
X130234800Y-122469720D01*
D11*
X122899440Y-121914640D02*
X122899440Y-120714640D01*
X122199440Y-121914640D02*
X122899440Y-121914640D01*
D10*
X117665920Y-122780920D02*
X116959800Y-122780920D01*
G36*
X115177120Y-131424880D02*
G01*
X115024720Y-130982920D01*
X114735160Y-130855920D01*
X114531960Y-130855920D01*
X114333840Y-130942280D01*
X114237320Y-131043880D01*
X114161120Y-131216600D01*
X114140800Y-131374080D01*
X114161120Y-131546800D01*
X114288120Y-131699200D01*
X114404960Y-131816040D01*
X114598000Y-131861760D01*
X114816440Y-131856680D01*
X114994240Y-131765240D01*
X115111080Y-131623000D01*
X115177120Y-131424880D01*
G37*
X115177120Y-131424880D02*
X115024720Y-130982920D01*
X114735160Y-130855920D01*
X114531960Y-130855920D01*
X114333840Y-130942280D01*
X114237320Y-131043880D01*
X114161120Y-131216600D01*
X114140800Y-131374080D01*
X114161120Y-131546800D01*
X114288120Y-131699200D01*
X114404960Y-131816040D01*
X114598000Y-131861760D01*
X114816440Y-131856680D01*
X114994240Y-131765240D01*
X115111080Y-131623000D01*
X115177120Y-131424880D01*
X115212214Y-131358840D02*
G75*
G03*
X115212214Y-131358840I-553254J0D01*
G01*
D11*
X122074440Y-136414640D02*
X121353520Y-136414640D01*
D10*
X129403680Y-135219720D02*
X130109800Y-135219720D01*
D11*
X122774440Y-137014640D02*
X122774440Y-135814640D01*
X122774440Y-136214640D02*
X122074440Y-136614640D01*
X122074440Y-135814640D02*
X122074440Y-137014640D01*
X122074440Y-137014640D02*
X122774440Y-137014640D01*
D10*
X117540920Y-135030920D02*
X116834800Y-135030920D01*
D11*
X122774440Y-135814640D02*
X122074440Y-135814640D01*
X122774440Y-136414640D02*
X123629360Y-136414640D01*
D10*
X129738960Y-135565160D02*
X129738960Y-134859040D01*
%TO.C,K2*%
X152019960Y-123343160D02*
X152019960Y-122637040D01*
D11*
X144355440Y-121842640D02*
X143634520Y-121842640D01*
X145055440Y-121242640D02*
X144355440Y-121242640D01*
X145055440Y-121842640D02*
X145910360Y-121842640D01*
X145055440Y-121642640D02*
X144355440Y-122042640D01*
X144355440Y-121242640D02*
X144355440Y-122442640D01*
D10*
X151684680Y-122997720D02*
X152390800Y-122997720D01*
D11*
X145055440Y-122442640D02*
X145055440Y-121242640D01*
X144355440Y-122442640D02*
X145055440Y-122442640D01*
D10*
X139821920Y-123308920D02*
X139115800Y-123308920D01*
G36*
X137333120Y-131952880D02*
G01*
X137180720Y-131510920D01*
X136891160Y-131383920D01*
X136687960Y-131383920D01*
X136489840Y-131470280D01*
X136393320Y-131571880D01*
X136317120Y-131744600D01*
X136296800Y-131902080D01*
X136317120Y-132074800D01*
X136444120Y-132227200D01*
X136560960Y-132344040D01*
X136754000Y-132389760D01*
X136972440Y-132384680D01*
X137150240Y-132293240D01*
X137267080Y-132151000D01*
X137333120Y-131952880D01*
G37*
X137333120Y-131952880D02*
X137180720Y-131510920D01*
X136891160Y-131383920D01*
X136687960Y-131383920D01*
X136489840Y-131470280D01*
X136393320Y-131571880D01*
X136317120Y-131744600D01*
X136296800Y-131902080D01*
X136317120Y-132074800D01*
X136444120Y-132227200D01*
X136560960Y-132344040D01*
X136754000Y-132389760D01*
X136972440Y-132384680D01*
X137150240Y-132293240D01*
X137267080Y-132151000D01*
X137333120Y-131952880D01*
X137368214Y-131886840D02*
G75*
G03*
X137368214Y-131886840I-553254J0D01*
G01*
D11*
X144230440Y-136942640D02*
X143509520Y-136942640D01*
D10*
X151559680Y-135747720D02*
X152265800Y-135747720D01*
D11*
X144930440Y-137542640D02*
X144930440Y-136342640D01*
X144930440Y-136742640D02*
X144230440Y-137142640D01*
X144230440Y-136342640D02*
X144230440Y-137542640D01*
X144230440Y-137542640D02*
X144930440Y-137542640D01*
D10*
X139696920Y-135558920D02*
X138990800Y-135558920D01*
D11*
X144930440Y-136342640D02*
X144230440Y-136342640D01*
X144930440Y-136942640D02*
X145785360Y-136942640D01*
D10*
X151894960Y-136093160D02*
X151894960Y-135387040D01*
%TO.C,K1*%
X89723520Y-97240040D02*
X89017400Y-97240040D01*
D11*
X88223000Y-104904560D02*
X88223000Y-105625480D01*
X87623000Y-104204560D02*
X87623000Y-104904560D01*
X88223000Y-104204560D02*
X88223000Y-103349640D01*
X88023000Y-104204560D02*
X88423000Y-104904560D01*
X87623000Y-104904560D02*
X88823000Y-104904560D01*
D10*
X89378080Y-97575320D02*
X89378080Y-96869200D01*
D11*
X88823000Y-104204560D02*
X87623000Y-104204560D01*
X88823000Y-104904560D02*
X88823000Y-104204560D01*
D10*
X89689280Y-109438080D02*
X89689280Y-110144200D01*
G36*
X98333240Y-111926880D02*
G01*
X97891280Y-112079280D01*
X97764280Y-112368840D01*
X97764280Y-112572040D01*
X97850640Y-112770160D01*
X97952240Y-112866680D01*
X98124960Y-112942880D01*
X98282440Y-112963200D01*
X98455160Y-112942880D01*
X98607560Y-112815880D01*
X98724400Y-112699040D01*
X98770120Y-112506000D01*
X98765040Y-112287560D01*
X98673600Y-112109760D01*
X98531360Y-111992920D01*
X98333240Y-111926880D01*
G37*
X98333240Y-111926880D02*
X97891280Y-112079280D01*
X97764280Y-112368840D01*
X97764280Y-112572040D01*
X97850640Y-112770160D01*
X97952240Y-112866680D01*
X98124960Y-112942880D01*
X98282440Y-112963200D01*
X98455160Y-112942880D01*
X98607560Y-112815880D01*
X98724400Y-112699040D01*
X98770120Y-112506000D01*
X98765040Y-112287560D01*
X98673600Y-112109760D01*
X98531360Y-111992920D01*
X98333240Y-111926880D01*
X98820454Y-112445040D02*
G75*
G03*
X98820454Y-112445040I-553254J0D01*
G01*
D11*
X103323000Y-105029560D02*
X103323000Y-105750480D01*
D10*
X102128080Y-97700320D02*
X102128080Y-96994200D01*
D11*
X103923000Y-104329560D02*
X102723000Y-104329560D01*
X103123000Y-104329560D02*
X103523000Y-105029560D01*
X102723000Y-105029560D02*
X103923000Y-105029560D01*
X103923000Y-105029560D02*
X103923000Y-104329560D01*
D10*
X101939280Y-109563080D02*
X101939280Y-110269200D01*
D11*
X102723000Y-104329560D02*
X102723000Y-105029560D01*
X103323000Y-104329560D02*
X103323000Y-103474640D01*
D10*
X102473520Y-97365040D02*
X101767400Y-97365040D01*
D11*
%TO.C,C65*%
X115470000Y-112850000D02*
X115470000Y-108465000D01*
X115470000Y-108465000D02*
X118490000Y-108465000D01*
X118490000Y-108465000D02*
X118490000Y-112850000D01*
%TO.C,C62*%
X105780000Y-119920000D02*
X105780000Y-115535000D01*
X105780000Y-115535000D02*
X108800000Y-115535000D01*
X108800000Y-115535000D02*
X108800000Y-119920000D01*
%TO.C,C58*%
X117360000Y-119530000D02*
X117360000Y-115145000D01*
X117360000Y-115145000D02*
X120380000Y-115145000D01*
X120380000Y-115145000D02*
X120380000Y-119530000D01*
%TO.C,C47*%
X104350000Y-112210000D02*
X108735000Y-112210000D01*
X108735000Y-112210000D02*
X108735000Y-115230000D01*
X108735000Y-115230000D02*
X104350000Y-115230000D01*
%TO.C,K17*%
D10*
X46858571Y-71017380D02*
X47391904Y-71017380D01*
X46553809Y-70826904D02*
X47125238Y-70636428D01*
X47125238Y-71131666D01*
X47391904Y-65918571D02*
X47391904Y-65461428D01*
X47391904Y-65690000D02*
X46591904Y-65690000D01*
X46706190Y-65613809D01*
X46782380Y-65537619D01*
X46820476Y-65461428D01*
X48716904Y-65498333D02*
X48716904Y-66031666D01*
X49516904Y-65688809D01*
X48959761Y-68138809D02*
X48921666Y-68062619D01*
X48883571Y-68024523D01*
X48807380Y-67986428D01*
X48769285Y-67986428D01*
X48693095Y-68024523D01*
X48655000Y-68062619D01*
X48616904Y-68138809D01*
X48616904Y-68291190D01*
X48655000Y-68367380D01*
X48693095Y-68405476D01*
X48769285Y-68443571D01*
X48807380Y-68443571D01*
X48883571Y-68405476D01*
X48921666Y-68367380D01*
X48959761Y-68291190D01*
X48959761Y-68138809D01*
X48997857Y-68062619D01*
X49035952Y-68024523D01*
X49112142Y-67986428D01*
X49264523Y-67986428D01*
X49340714Y-68024523D01*
X49378809Y-68062619D01*
X49416904Y-68138809D01*
X49416904Y-68291190D01*
X49378809Y-68367380D01*
X49340714Y-68405476D01*
X49264523Y-68443571D01*
X49112142Y-68443571D01*
X49035952Y-68405476D01*
X48997857Y-68367380D01*
X48959761Y-68291190D01*
X46591904Y-78667380D02*
X46591904Y-78515000D01*
X46630000Y-78438809D01*
X46668095Y-78400714D01*
X46782380Y-78324523D01*
X46934761Y-78286428D01*
X47239523Y-78286428D01*
X47315714Y-78324523D01*
X47353809Y-78362619D01*
X47391904Y-78438809D01*
X47391904Y-78591190D01*
X47353809Y-78667380D01*
X47315714Y-78705476D01*
X47239523Y-78743571D01*
X47049047Y-78743571D01*
X46972857Y-78705476D01*
X46934761Y-78667380D01*
X46896666Y-78591190D01*
X46896666Y-78438809D01*
X46934761Y-78362619D01*
X46972857Y-78324523D01*
X47049047Y-78286428D01*
X49516904Y-78237619D02*
X49516904Y-77780476D01*
X49516904Y-78009047D02*
X48716904Y-78009047D01*
X48831190Y-77932857D01*
X48907380Y-77856666D01*
X48945476Y-77780476D01*
X48793095Y-78542380D02*
X48755000Y-78580476D01*
X48716904Y-78656666D01*
X48716904Y-78847142D01*
X48755000Y-78923333D01*
X48793095Y-78961428D01*
X48869285Y-78999523D01*
X48945476Y-78999523D01*
X49059761Y-78961428D01*
X49516904Y-78504285D01*
X49516904Y-78999523D01*
X49441904Y-73312619D02*
X49441904Y-72855476D01*
X49441904Y-73084047D02*
X48641904Y-73084047D01*
X48756190Y-73007857D01*
X48832380Y-72931666D01*
X48870476Y-72855476D01*
X48641904Y-73807857D02*
X48641904Y-73884047D01*
X48680000Y-73960238D01*
X48718095Y-73998333D01*
X48794285Y-74036428D01*
X48946666Y-74074523D01*
X49137142Y-74074523D01*
X49289523Y-74036428D01*
X49365714Y-73998333D01*
X49403809Y-73960238D01*
X49441904Y-73884047D01*
X49441904Y-73807857D01*
X49403809Y-73731666D01*
X49365714Y-73693571D01*
X49289523Y-73655476D01*
X49137142Y-73617380D01*
X48946666Y-73617380D01*
X48794285Y-73655476D01*
X48718095Y-73693571D01*
X48680000Y-73731666D01*
X48641904Y-73807857D01*
X46566904Y-73655476D02*
X46566904Y-73274523D01*
X46947857Y-73236428D01*
X46909761Y-73274523D01*
X46871666Y-73350714D01*
X46871666Y-73541190D01*
X46909761Y-73617380D01*
X46947857Y-73655476D01*
X47024047Y-73693571D01*
X47214523Y-73693571D01*
X47290714Y-73655476D01*
X47328809Y-73617380D01*
X47366904Y-73541190D01*
X47366904Y-73350714D01*
X47328809Y-73274523D01*
X47290714Y-73236428D01*
X49416904Y-70537619D02*
X49416904Y-70690000D01*
X49378809Y-70766190D01*
X49340714Y-70804285D01*
X49226428Y-70880476D01*
X49074047Y-70918571D01*
X48769285Y-70918571D01*
X48693095Y-70880476D01*
X48655000Y-70842380D01*
X48616904Y-70766190D01*
X48616904Y-70613809D01*
X48655000Y-70537619D01*
X48693095Y-70499523D01*
X48769285Y-70461428D01*
X48959761Y-70461428D01*
X49035952Y-70499523D01*
X49074047Y-70537619D01*
X49112142Y-70613809D01*
X49112142Y-70766190D01*
X49074047Y-70842380D01*
X49035952Y-70880476D01*
X48959761Y-70918571D01*
X46541904Y-68098333D02*
X46541904Y-68593571D01*
X46846666Y-68326904D01*
X46846666Y-68441190D01*
X46884761Y-68517380D01*
X46922857Y-68555476D01*
X46999047Y-68593571D01*
X47189523Y-68593571D01*
X47265714Y-68555476D01*
X47303809Y-68517380D01*
X47341904Y-68441190D01*
X47341904Y-68212619D01*
X47303809Y-68136428D01*
X47265714Y-68098333D01*
%TO.C,K16*%
X48288571Y-48747380D02*
X48821904Y-48747380D01*
X47983809Y-48556904D02*
X48555238Y-48366428D01*
X48555238Y-48861666D01*
X48821904Y-43648571D02*
X48821904Y-43191428D01*
X48821904Y-43420000D02*
X48021904Y-43420000D01*
X48136190Y-43343809D01*
X48212380Y-43267619D01*
X48250476Y-43191428D01*
X50146904Y-43228333D02*
X50146904Y-43761666D01*
X50946904Y-43418809D01*
X50389761Y-45868809D02*
X50351666Y-45792619D01*
X50313571Y-45754523D01*
X50237380Y-45716428D01*
X50199285Y-45716428D01*
X50123095Y-45754523D01*
X50085000Y-45792619D01*
X50046904Y-45868809D01*
X50046904Y-46021190D01*
X50085000Y-46097380D01*
X50123095Y-46135476D01*
X50199285Y-46173571D01*
X50237380Y-46173571D01*
X50313571Y-46135476D01*
X50351666Y-46097380D01*
X50389761Y-46021190D01*
X50389761Y-45868809D01*
X50427857Y-45792619D01*
X50465952Y-45754523D01*
X50542142Y-45716428D01*
X50694523Y-45716428D01*
X50770714Y-45754523D01*
X50808809Y-45792619D01*
X50846904Y-45868809D01*
X50846904Y-46021190D01*
X50808809Y-46097380D01*
X50770714Y-46135476D01*
X50694523Y-46173571D01*
X50542142Y-46173571D01*
X50465952Y-46135476D01*
X50427857Y-46097380D01*
X50389761Y-46021190D01*
X48021904Y-56397380D02*
X48021904Y-56245000D01*
X48060000Y-56168809D01*
X48098095Y-56130714D01*
X48212380Y-56054523D01*
X48364761Y-56016428D01*
X48669523Y-56016428D01*
X48745714Y-56054523D01*
X48783809Y-56092619D01*
X48821904Y-56168809D01*
X48821904Y-56321190D01*
X48783809Y-56397380D01*
X48745714Y-56435476D01*
X48669523Y-56473571D01*
X48479047Y-56473571D01*
X48402857Y-56435476D01*
X48364761Y-56397380D01*
X48326666Y-56321190D01*
X48326666Y-56168809D01*
X48364761Y-56092619D01*
X48402857Y-56054523D01*
X48479047Y-56016428D01*
X50946904Y-55967619D02*
X50946904Y-55510476D01*
X50946904Y-55739047D02*
X50146904Y-55739047D01*
X50261190Y-55662857D01*
X50337380Y-55586666D01*
X50375476Y-55510476D01*
X50223095Y-56272380D02*
X50185000Y-56310476D01*
X50146904Y-56386666D01*
X50146904Y-56577142D01*
X50185000Y-56653333D01*
X50223095Y-56691428D01*
X50299285Y-56729523D01*
X50375476Y-56729523D01*
X50489761Y-56691428D01*
X50946904Y-56234285D01*
X50946904Y-56729523D01*
X50871904Y-51042619D02*
X50871904Y-50585476D01*
X50871904Y-50814047D02*
X50071904Y-50814047D01*
X50186190Y-50737857D01*
X50262380Y-50661666D01*
X50300476Y-50585476D01*
X50071904Y-51537857D02*
X50071904Y-51614047D01*
X50110000Y-51690238D01*
X50148095Y-51728333D01*
X50224285Y-51766428D01*
X50376666Y-51804523D01*
X50567142Y-51804523D01*
X50719523Y-51766428D01*
X50795714Y-51728333D01*
X50833809Y-51690238D01*
X50871904Y-51614047D01*
X50871904Y-51537857D01*
X50833809Y-51461666D01*
X50795714Y-51423571D01*
X50719523Y-51385476D01*
X50567142Y-51347380D01*
X50376666Y-51347380D01*
X50224285Y-51385476D01*
X50148095Y-51423571D01*
X50110000Y-51461666D01*
X50071904Y-51537857D01*
X47996904Y-51385476D02*
X47996904Y-51004523D01*
X48377857Y-50966428D01*
X48339761Y-51004523D01*
X48301666Y-51080714D01*
X48301666Y-51271190D01*
X48339761Y-51347380D01*
X48377857Y-51385476D01*
X48454047Y-51423571D01*
X48644523Y-51423571D01*
X48720714Y-51385476D01*
X48758809Y-51347380D01*
X48796904Y-51271190D01*
X48796904Y-51080714D01*
X48758809Y-51004523D01*
X48720714Y-50966428D01*
X50846904Y-48267619D02*
X50846904Y-48420000D01*
X50808809Y-48496190D01*
X50770714Y-48534285D01*
X50656428Y-48610476D01*
X50504047Y-48648571D01*
X50199285Y-48648571D01*
X50123095Y-48610476D01*
X50085000Y-48572380D01*
X50046904Y-48496190D01*
X50046904Y-48343809D01*
X50085000Y-48267619D01*
X50123095Y-48229523D01*
X50199285Y-48191428D01*
X50389761Y-48191428D01*
X50465952Y-48229523D01*
X50504047Y-48267619D01*
X50542142Y-48343809D01*
X50542142Y-48496190D01*
X50504047Y-48572380D01*
X50465952Y-48610476D01*
X50389761Y-48648571D01*
X47971904Y-45828333D02*
X47971904Y-46323571D01*
X48276666Y-46056904D01*
X48276666Y-46171190D01*
X48314761Y-46247380D01*
X48352857Y-46285476D01*
X48429047Y-46323571D01*
X48619523Y-46323571D01*
X48695714Y-46285476D01*
X48733809Y-46247380D01*
X48771904Y-46171190D01*
X48771904Y-45942619D01*
X48733809Y-45866428D01*
X48695714Y-45828333D01*
%TO.C,K15*%
X144310904Y-60330333D02*
X144310904Y-60863666D01*
X145110904Y-60520809D01*
X144553761Y-62970809D02*
X144515666Y-62894619D01*
X144477571Y-62856523D01*
X144401380Y-62818428D01*
X144363285Y-62818428D01*
X144287095Y-62856523D01*
X144249000Y-62894619D01*
X144210904Y-62970809D01*
X144210904Y-63123190D01*
X144249000Y-63199380D01*
X144287095Y-63237476D01*
X144363285Y-63275571D01*
X144401380Y-63275571D01*
X144477571Y-63237476D01*
X144515666Y-63199380D01*
X144553761Y-63123190D01*
X144553761Y-62970809D01*
X144591857Y-62894619D01*
X144629952Y-62856523D01*
X144706142Y-62818428D01*
X144858523Y-62818428D01*
X144934714Y-62856523D01*
X144972809Y-62894619D01*
X145010904Y-62970809D01*
X145010904Y-63123190D01*
X144972809Y-63199380D01*
X144934714Y-63237476D01*
X144858523Y-63275571D01*
X144706142Y-63275571D01*
X144629952Y-63237476D01*
X144591857Y-63199380D01*
X144553761Y-63123190D01*
X145010904Y-65369619D02*
X145010904Y-65522000D01*
X144972809Y-65598190D01*
X144934714Y-65636285D01*
X144820428Y-65712476D01*
X144668047Y-65750571D01*
X144363285Y-65750571D01*
X144287095Y-65712476D01*
X144249000Y-65674380D01*
X144210904Y-65598190D01*
X144210904Y-65445809D01*
X144249000Y-65369619D01*
X144287095Y-65331523D01*
X144363285Y-65293428D01*
X144553761Y-65293428D01*
X144629952Y-65331523D01*
X144668047Y-65369619D01*
X144706142Y-65445809D01*
X144706142Y-65598190D01*
X144668047Y-65674380D01*
X144629952Y-65712476D01*
X144553761Y-65750571D01*
X145035904Y-68144619D02*
X145035904Y-67687476D01*
X145035904Y-67916047D02*
X144235904Y-67916047D01*
X144350190Y-67839857D01*
X144426380Y-67763666D01*
X144464476Y-67687476D01*
X144235904Y-68639857D02*
X144235904Y-68716047D01*
X144274000Y-68792238D01*
X144312095Y-68830333D01*
X144388285Y-68868428D01*
X144540666Y-68906523D01*
X144731142Y-68906523D01*
X144883523Y-68868428D01*
X144959714Y-68830333D01*
X144997809Y-68792238D01*
X145035904Y-68716047D01*
X145035904Y-68639857D01*
X144997809Y-68563666D01*
X144959714Y-68525571D01*
X144883523Y-68487476D01*
X144731142Y-68449380D01*
X144540666Y-68449380D01*
X144388285Y-68487476D01*
X144312095Y-68525571D01*
X144274000Y-68563666D01*
X144235904Y-68639857D01*
X145110904Y-73069619D02*
X145110904Y-72612476D01*
X145110904Y-72841047D02*
X144310904Y-72841047D01*
X144425190Y-72764857D01*
X144501380Y-72688666D01*
X144539476Y-72612476D01*
X144387095Y-73374380D02*
X144349000Y-73412476D01*
X144310904Y-73488666D01*
X144310904Y-73679142D01*
X144349000Y-73755333D01*
X144387095Y-73793428D01*
X144463285Y-73831523D01*
X144539476Y-73831523D01*
X144653761Y-73793428D01*
X145110904Y-73336285D01*
X145110904Y-73831523D01*
X142185904Y-73499380D02*
X142185904Y-73347000D01*
X142224000Y-73270809D01*
X142262095Y-73232714D01*
X142376380Y-73156523D01*
X142528761Y-73118428D01*
X142833523Y-73118428D01*
X142909714Y-73156523D01*
X142947809Y-73194619D01*
X142985904Y-73270809D01*
X142985904Y-73423190D01*
X142947809Y-73499380D01*
X142909714Y-73537476D01*
X142833523Y-73575571D01*
X142643047Y-73575571D01*
X142566857Y-73537476D01*
X142528761Y-73499380D01*
X142490666Y-73423190D01*
X142490666Y-73270809D01*
X142528761Y-73194619D01*
X142566857Y-73156523D01*
X142643047Y-73118428D01*
X142160904Y-68487476D02*
X142160904Y-68106523D01*
X142541857Y-68068428D01*
X142503761Y-68106523D01*
X142465666Y-68182714D01*
X142465666Y-68373190D01*
X142503761Y-68449380D01*
X142541857Y-68487476D01*
X142618047Y-68525571D01*
X142808523Y-68525571D01*
X142884714Y-68487476D01*
X142922809Y-68449380D01*
X142960904Y-68373190D01*
X142960904Y-68182714D01*
X142922809Y-68106523D01*
X142884714Y-68068428D01*
X142452571Y-65849380D02*
X142985904Y-65849380D01*
X142147809Y-65658904D02*
X142719238Y-65468428D01*
X142719238Y-65963666D01*
X142135904Y-62930333D02*
X142135904Y-63425571D01*
X142440666Y-63158904D01*
X142440666Y-63273190D01*
X142478761Y-63349380D01*
X142516857Y-63387476D01*
X142593047Y-63425571D01*
X142783523Y-63425571D01*
X142859714Y-63387476D01*
X142897809Y-63349380D01*
X142935904Y-63273190D01*
X142935904Y-63044619D01*
X142897809Y-62968428D01*
X142859714Y-62930333D01*
X142985904Y-60750571D02*
X142985904Y-60293428D01*
X142985904Y-60522000D02*
X142185904Y-60522000D01*
X142300190Y-60445809D01*
X142376380Y-60369619D01*
X142414476Y-60293428D01*
X142452571Y-65849380D02*
X142985904Y-65849380D01*
X142147809Y-65658904D02*
X142719238Y-65468428D01*
X142719238Y-65963666D01*
X142985904Y-60750571D02*
X142985904Y-60293428D01*
X142985904Y-60522000D02*
X142185904Y-60522000D01*
X142300190Y-60445809D01*
X142376380Y-60369619D01*
X142414476Y-60293428D01*
X144310904Y-60330333D02*
X144310904Y-60863666D01*
X145110904Y-60520809D01*
X144553761Y-62970809D02*
X144515666Y-62894619D01*
X144477571Y-62856523D01*
X144401380Y-62818428D01*
X144363285Y-62818428D01*
X144287095Y-62856523D01*
X144249000Y-62894619D01*
X144210904Y-62970809D01*
X144210904Y-63123190D01*
X144249000Y-63199380D01*
X144287095Y-63237476D01*
X144363285Y-63275571D01*
X144401380Y-63275571D01*
X144477571Y-63237476D01*
X144515666Y-63199380D01*
X144553761Y-63123190D01*
X144553761Y-62970809D01*
X144591857Y-62894619D01*
X144629952Y-62856523D01*
X144706142Y-62818428D01*
X144858523Y-62818428D01*
X144934714Y-62856523D01*
X144972809Y-62894619D01*
X145010904Y-62970809D01*
X145010904Y-63123190D01*
X144972809Y-63199380D01*
X144934714Y-63237476D01*
X144858523Y-63275571D01*
X144706142Y-63275571D01*
X144629952Y-63237476D01*
X144591857Y-63199380D01*
X144553761Y-63123190D01*
X142185904Y-73499380D02*
X142185904Y-73347000D01*
X142224000Y-73270809D01*
X142262095Y-73232714D01*
X142376380Y-73156523D01*
X142528761Y-73118428D01*
X142833523Y-73118428D01*
X142909714Y-73156523D01*
X142947809Y-73194619D01*
X142985904Y-73270809D01*
X142985904Y-73423190D01*
X142947809Y-73499380D01*
X142909714Y-73537476D01*
X142833523Y-73575571D01*
X142643047Y-73575571D01*
X142566857Y-73537476D01*
X142528761Y-73499380D01*
X142490666Y-73423190D01*
X142490666Y-73270809D01*
X142528761Y-73194619D01*
X142566857Y-73156523D01*
X142643047Y-73118428D01*
X145110904Y-73069619D02*
X145110904Y-72612476D01*
X145110904Y-72841047D02*
X144310904Y-72841047D01*
X144425190Y-72764857D01*
X144501380Y-72688666D01*
X144539476Y-72612476D01*
X144387095Y-73374380D02*
X144349000Y-73412476D01*
X144310904Y-73488666D01*
X144310904Y-73679142D01*
X144349000Y-73755333D01*
X144387095Y-73793428D01*
X144463285Y-73831523D01*
X144539476Y-73831523D01*
X144653761Y-73793428D01*
X145110904Y-73336285D01*
X145110904Y-73831523D01*
X145035904Y-68144619D02*
X145035904Y-67687476D01*
X145035904Y-67916047D02*
X144235904Y-67916047D01*
X144350190Y-67839857D01*
X144426380Y-67763666D01*
X144464476Y-67687476D01*
X144235904Y-68639857D02*
X144235904Y-68716047D01*
X144274000Y-68792238D01*
X144312095Y-68830333D01*
X144388285Y-68868428D01*
X144540666Y-68906523D01*
X144731142Y-68906523D01*
X144883523Y-68868428D01*
X144959714Y-68830333D01*
X144997809Y-68792238D01*
X145035904Y-68716047D01*
X145035904Y-68639857D01*
X144997809Y-68563666D01*
X144959714Y-68525571D01*
X144883523Y-68487476D01*
X144731142Y-68449380D01*
X144540666Y-68449380D01*
X144388285Y-68487476D01*
X144312095Y-68525571D01*
X144274000Y-68563666D01*
X144235904Y-68639857D01*
X142160904Y-68487476D02*
X142160904Y-68106523D01*
X142541857Y-68068428D01*
X142503761Y-68106523D01*
X142465666Y-68182714D01*
X142465666Y-68373190D01*
X142503761Y-68449380D01*
X142541857Y-68487476D01*
X142618047Y-68525571D01*
X142808523Y-68525571D01*
X142884714Y-68487476D01*
X142922809Y-68449380D01*
X142960904Y-68373190D01*
X142960904Y-68182714D01*
X142922809Y-68106523D01*
X142884714Y-68068428D01*
X145010904Y-65369619D02*
X145010904Y-65522000D01*
X144972809Y-65598190D01*
X144934714Y-65636285D01*
X144820428Y-65712476D01*
X144668047Y-65750571D01*
X144363285Y-65750571D01*
X144287095Y-65712476D01*
X144249000Y-65674380D01*
X144210904Y-65598190D01*
X144210904Y-65445809D01*
X144249000Y-65369619D01*
X144287095Y-65331523D01*
X144363285Y-65293428D01*
X144553761Y-65293428D01*
X144629952Y-65331523D01*
X144668047Y-65369619D01*
X144706142Y-65445809D01*
X144706142Y-65598190D01*
X144668047Y-65674380D01*
X144629952Y-65712476D01*
X144553761Y-65750571D01*
X142135904Y-62930333D02*
X142135904Y-63425571D01*
X142440666Y-63158904D01*
X142440666Y-63273190D01*
X142478761Y-63349380D01*
X142516857Y-63387476D01*
X142593047Y-63425571D01*
X142783523Y-63425571D01*
X142859714Y-63387476D01*
X142897809Y-63349380D01*
X142935904Y-63273190D01*
X142935904Y-63044619D01*
X142897809Y-62968428D01*
X142859714Y-62930333D01*
%TO.C,K14*%
X169865666Y-107478904D02*
X169332333Y-107478904D01*
X169675190Y-108278904D01*
X167225190Y-107721761D02*
X167301380Y-107683666D01*
X167339476Y-107645571D01*
X167377571Y-107569380D01*
X167377571Y-107531285D01*
X167339476Y-107455095D01*
X167301380Y-107417000D01*
X167225190Y-107378904D01*
X167072809Y-107378904D01*
X166996619Y-107417000D01*
X166958523Y-107455095D01*
X166920428Y-107531285D01*
X166920428Y-107569380D01*
X166958523Y-107645571D01*
X166996619Y-107683666D01*
X167072809Y-107721761D01*
X167225190Y-107721761D01*
X167301380Y-107759857D01*
X167339476Y-107797952D01*
X167377571Y-107874142D01*
X167377571Y-108026523D01*
X167339476Y-108102714D01*
X167301380Y-108140809D01*
X167225190Y-108178904D01*
X167072809Y-108178904D01*
X166996619Y-108140809D01*
X166958523Y-108102714D01*
X166920428Y-108026523D01*
X166920428Y-107874142D01*
X166958523Y-107797952D01*
X166996619Y-107759857D01*
X167072809Y-107721761D01*
X164826380Y-108178904D02*
X164674000Y-108178904D01*
X164597809Y-108140809D01*
X164559714Y-108102714D01*
X164483523Y-107988428D01*
X164445428Y-107836047D01*
X164445428Y-107531285D01*
X164483523Y-107455095D01*
X164521619Y-107417000D01*
X164597809Y-107378904D01*
X164750190Y-107378904D01*
X164826380Y-107417000D01*
X164864476Y-107455095D01*
X164902571Y-107531285D01*
X164902571Y-107721761D01*
X164864476Y-107797952D01*
X164826380Y-107836047D01*
X164750190Y-107874142D01*
X164597809Y-107874142D01*
X164521619Y-107836047D01*
X164483523Y-107797952D01*
X164445428Y-107721761D01*
X162051380Y-108203904D02*
X162508523Y-108203904D01*
X162279952Y-108203904D02*
X162279952Y-107403904D01*
X162356142Y-107518190D01*
X162432333Y-107594380D01*
X162508523Y-107632476D01*
X161556142Y-107403904D02*
X161479952Y-107403904D01*
X161403761Y-107442000D01*
X161365666Y-107480095D01*
X161327571Y-107556285D01*
X161289476Y-107708666D01*
X161289476Y-107899142D01*
X161327571Y-108051523D01*
X161365666Y-108127714D01*
X161403761Y-108165809D01*
X161479952Y-108203904D01*
X161556142Y-108203904D01*
X161632333Y-108165809D01*
X161670428Y-108127714D01*
X161708523Y-108051523D01*
X161746619Y-107899142D01*
X161746619Y-107708666D01*
X161708523Y-107556285D01*
X161670428Y-107480095D01*
X161632333Y-107442000D01*
X161556142Y-107403904D01*
X157126380Y-108278904D02*
X157583523Y-108278904D01*
X157354952Y-108278904D02*
X157354952Y-107478904D01*
X157431142Y-107593190D01*
X157507333Y-107669380D01*
X157583523Y-107707476D01*
X156821619Y-107555095D02*
X156783523Y-107517000D01*
X156707333Y-107478904D01*
X156516857Y-107478904D01*
X156440666Y-107517000D01*
X156402571Y-107555095D01*
X156364476Y-107631285D01*
X156364476Y-107707476D01*
X156402571Y-107821761D01*
X156859714Y-108278904D01*
X156364476Y-108278904D01*
X156696619Y-105353904D02*
X156849000Y-105353904D01*
X156925190Y-105392000D01*
X156963285Y-105430095D01*
X157039476Y-105544380D01*
X157077571Y-105696761D01*
X157077571Y-106001523D01*
X157039476Y-106077714D01*
X157001380Y-106115809D01*
X156925190Y-106153904D01*
X156772809Y-106153904D01*
X156696619Y-106115809D01*
X156658523Y-106077714D01*
X156620428Y-106001523D01*
X156620428Y-105811047D01*
X156658523Y-105734857D01*
X156696619Y-105696761D01*
X156772809Y-105658666D01*
X156925190Y-105658666D01*
X157001380Y-105696761D01*
X157039476Y-105734857D01*
X157077571Y-105811047D01*
X161708523Y-105328904D02*
X162089476Y-105328904D01*
X162127571Y-105709857D01*
X162089476Y-105671761D01*
X162013285Y-105633666D01*
X161822809Y-105633666D01*
X161746619Y-105671761D01*
X161708523Y-105709857D01*
X161670428Y-105786047D01*
X161670428Y-105976523D01*
X161708523Y-106052714D01*
X161746619Y-106090809D01*
X161822809Y-106128904D01*
X162013285Y-106128904D01*
X162089476Y-106090809D01*
X162127571Y-106052714D01*
X164346619Y-105620571D02*
X164346619Y-106153904D01*
X164537095Y-105315809D02*
X164727571Y-105887238D01*
X164232333Y-105887238D01*
X167265666Y-105303904D02*
X166770428Y-105303904D01*
X167037095Y-105608666D01*
X166922809Y-105608666D01*
X166846619Y-105646761D01*
X166808523Y-105684857D01*
X166770428Y-105761047D01*
X166770428Y-105951523D01*
X166808523Y-106027714D01*
X166846619Y-106065809D01*
X166922809Y-106103904D01*
X167151380Y-106103904D01*
X167227571Y-106065809D01*
X167265666Y-106027714D01*
X169445428Y-106153904D02*
X169902571Y-106153904D01*
X169674000Y-106153904D02*
X169674000Y-105353904D01*
X169750190Y-105468190D01*
X169826380Y-105544380D01*
X169902571Y-105582476D01*
X164346619Y-105620571D02*
X164346619Y-106153904D01*
X164537095Y-105315809D02*
X164727571Y-105887238D01*
X164232333Y-105887238D01*
X169445428Y-106153904D02*
X169902571Y-106153904D01*
X169674000Y-106153904D02*
X169674000Y-105353904D01*
X169750190Y-105468190D01*
X169826380Y-105544380D01*
X169902571Y-105582476D01*
X169865666Y-107478904D02*
X169332333Y-107478904D01*
X169675190Y-108278904D01*
X167225190Y-107721761D02*
X167301380Y-107683666D01*
X167339476Y-107645571D01*
X167377571Y-107569380D01*
X167377571Y-107531285D01*
X167339476Y-107455095D01*
X167301380Y-107417000D01*
X167225190Y-107378904D01*
X167072809Y-107378904D01*
X166996619Y-107417000D01*
X166958523Y-107455095D01*
X166920428Y-107531285D01*
X166920428Y-107569380D01*
X166958523Y-107645571D01*
X166996619Y-107683666D01*
X167072809Y-107721761D01*
X167225190Y-107721761D01*
X167301380Y-107759857D01*
X167339476Y-107797952D01*
X167377571Y-107874142D01*
X167377571Y-108026523D01*
X167339476Y-108102714D01*
X167301380Y-108140809D01*
X167225190Y-108178904D01*
X167072809Y-108178904D01*
X166996619Y-108140809D01*
X166958523Y-108102714D01*
X166920428Y-108026523D01*
X166920428Y-107874142D01*
X166958523Y-107797952D01*
X166996619Y-107759857D01*
X167072809Y-107721761D01*
X156696619Y-105353904D02*
X156849000Y-105353904D01*
X156925190Y-105392000D01*
X156963285Y-105430095D01*
X157039476Y-105544380D01*
X157077571Y-105696761D01*
X157077571Y-106001523D01*
X157039476Y-106077714D01*
X157001380Y-106115809D01*
X156925190Y-106153904D01*
X156772809Y-106153904D01*
X156696619Y-106115809D01*
X156658523Y-106077714D01*
X156620428Y-106001523D01*
X156620428Y-105811047D01*
X156658523Y-105734857D01*
X156696619Y-105696761D01*
X156772809Y-105658666D01*
X156925190Y-105658666D01*
X157001380Y-105696761D01*
X157039476Y-105734857D01*
X157077571Y-105811047D01*
X157126380Y-108278904D02*
X157583523Y-108278904D01*
X157354952Y-108278904D02*
X157354952Y-107478904D01*
X157431142Y-107593190D01*
X157507333Y-107669380D01*
X157583523Y-107707476D01*
X156821619Y-107555095D02*
X156783523Y-107517000D01*
X156707333Y-107478904D01*
X156516857Y-107478904D01*
X156440666Y-107517000D01*
X156402571Y-107555095D01*
X156364476Y-107631285D01*
X156364476Y-107707476D01*
X156402571Y-107821761D01*
X156859714Y-108278904D01*
X156364476Y-108278904D01*
X162051380Y-108203904D02*
X162508523Y-108203904D01*
X162279952Y-108203904D02*
X162279952Y-107403904D01*
X162356142Y-107518190D01*
X162432333Y-107594380D01*
X162508523Y-107632476D01*
X161556142Y-107403904D02*
X161479952Y-107403904D01*
X161403761Y-107442000D01*
X161365666Y-107480095D01*
X161327571Y-107556285D01*
X161289476Y-107708666D01*
X161289476Y-107899142D01*
X161327571Y-108051523D01*
X161365666Y-108127714D01*
X161403761Y-108165809D01*
X161479952Y-108203904D01*
X161556142Y-108203904D01*
X161632333Y-108165809D01*
X161670428Y-108127714D01*
X161708523Y-108051523D01*
X161746619Y-107899142D01*
X161746619Y-107708666D01*
X161708523Y-107556285D01*
X161670428Y-107480095D01*
X161632333Y-107442000D01*
X161556142Y-107403904D01*
X161708523Y-105328904D02*
X162089476Y-105328904D01*
X162127571Y-105709857D01*
X162089476Y-105671761D01*
X162013285Y-105633666D01*
X161822809Y-105633666D01*
X161746619Y-105671761D01*
X161708523Y-105709857D01*
X161670428Y-105786047D01*
X161670428Y-105976523D01*
X161708523Y-106052714D01*
X161746619Y-106090809D01*
X161822809Y-106128904D01*
X162013285Y-106128904D01*
X162089476Y-106090809D01*
X162127571Y-106052714D01*
X164826380Y-108178904D02*
X164674000Y-108178904D01*
X164597809Y-108140809D01*
X164559714Y-108102714D01*
X164483523Y-107988428D01*
X164445428Y-107836047D01*
X164445428Y-107531285D01*
X164483523Y-107455095D01*
X164521619Y-107417000D01*
X164597809Y-107378904D01*
X164750190Y-107378904D01*
X164826380Y-107417000D01*
X164864476Y-107455095D01*
X164902571Y-107531285D01*
X164902571Y-107721761D01*
X164864476Y-107797952D01*
X164826380Y-107836047D01*
X164750190Y-107874142D01*
X164597809Y-107874142D01*
X164521619Y-107836047D01*
X164483523Y-107797952D01*
X164445428Y-107721761D01*
X167265666Y-105303904D02*
X166770428Y-105303904D01*
X167037095Y-105608666D01*
X166922809Y-105608666D01*
X166846619Y-105646761D01*
X166808523Y-105684857D01*
X166770428Y-105761047D01*
X166770428Y-105951523D01*
X166808523Y-106027714D01*
X166846619Y-106065809D01*
X166922809Y-106103904D01*
X167151380Y-106103904D01*
X167227571Y-106065809D01*
X167265666Y-106027714D01*
%TO.C,K13*%
X132476904Y-40848333D02*
X132476904Y-41381666D01*
X133276904Y-41038809D01*
X132719761Y-43488809D02*
X132681666Y-43412619D01*
X132643571Y-43374523D01*
X132567380Y-43336428D01*
X132529285Y-43336428D01*
X132453095Y-43374523D01*
X132415000Y-43412619D01*
X132376904Y-43488809D01*
X132376904Y-43641190D01*
X132415000Y-43717380D01*
X132453095Y-43755476D01*
X132529285Y-43793571D01*
X132567380Y-43793571D01*
X132643571Y-43755476D01*
X132681666Y-43717380D01*
X132719761Y-43641190D01*
X132719761Y-43488809D01*
X132757857Y-43412619D01*
X132795952Y-43374523D01*
X132872142Y-43336428D01*
X133024523Y-43336428D01*
X133100714Y-43374523D01*
X133138809Y-43412619D01*
X133176904Y-43488809D01*
X133176904Y-43641190D01*
X133138809Y-43717380D01*
X133100714Y-43755476D01*
X133024523Y-43793571D01*
X132872142Y-43793571D01*
X132795952Y-43755476D01*
X132757857Y-43717380D01*
X132719761Y-43641190D01*
X133176904Y-45887619D02*
X133176904Y-46040000D01*
X133138809Y-46116190D01*
X133100714Y-46154285D01*
X132986428Y-46230476D01*
X132834047Y-46268571D01*
X132529285Y-46268571D01*
X132453095Y-46230476D01*
X132415000Y-46192380D01*
X132376904Y-46116190D01*
X132376904Y-45963809D01*
X132415000Y-45887619D01*
X132453095Y-45849523D01*
X132529285Y-45811428D01*
X132719761Y-45811428D01*
X132795952Y-45849523D01*
X132834047Y-45887619D01*
X132872142Y-45963809D01*
X132872142Y-46116190D01*
X132834047Y-46192380D01*
X132795952Y-46230476D01*
X132719761Y-46268571D01*
X133201904Y-48662619D02*
X133201904Y-48205476D01*
X133201904Y-48434047D02*
X132401904Y-48434047D01*
X132516190Y-48357857D01*
X132592380Y-48281666D01*
X132630476Y-48205476D01*
X132401904Y-49157857D02*
X132401904Y-49234047D01*
X132440000Y-49310238D01*
X132478095Y-49348333D01*
X132554285Y-49386428D01*
X132706666Y-49424523D01*
X132897142Y-49424523D01*
X133049523Y-49386428D01*
X133125714Y-49348333D01*
X133163809Y-49310238D01*
X133201904Y-49234047D01*
X133201904Y-49157857D01*
X133163809Y-49081666D01*
X133125714Y-49043571D01*
X133049523Y-49005476D01*
X132897142Y-48967380D01*
X132706666Y-48967380D01*
X132554285Y-49005476D01*
X132478095Y-49043571D01*
X132440000Y-49081666D01*
X132401904Y-49157857D01*
X133276904Y-53587619D02*
X133276904Y-53130476D01*
X133276904Y-53359047D02*
X132476904Y-53359047D01*
X132591190Y-53282857D01*
X132667380Y-53206666D01*
X132705476Y-53130476D01*
X132553095Y-53892380D02*
X132515000Y-53930476D01*
X132476904Y-54006666D01*
X132476904Y-54197142D01*
X132515000Y-54273333D01*
X132553095Y-54311428D01*
X132629285Y-54349523D01*
X132705476Y-54349523D01*
X132819761Y-54311428D01*
X133276904Y-53854285D01*
X133276904Y-54349523D01*
X130351904Y-54017380D02*
X130351904Y-53865000D01*
X130390000Y-53788809D01*
X130428095Y-53750714D01*
X130542380Y-53674523D01*
X130694761Y-53636428D01*
X130999523Y-53636428D01*
X131075714Y-53674523D01*
X131113809Y-53712619D01*
X131151904Y-53788809D01*
X131151904Y-53941190D01*
X131113809Y-54017380D01*
X131075714Y-54055476D01*
X130999523Y-54093571D01*
X130809047Y-54093571D01*
X130732857Y-54055476D01*
X130694761Y-54017380D01*
X130656666Y-53941190D01*
X130656666Y-53788809D01*
X130694761Y-53712619D01*
X130732857Y-53674523D01*
X130809047Y-53636428D01*
X130326904Y-49005476D02*
X130326904Y-48624523D01*
X130707857Y-48586428D01*
X130669761Y-48624523D01*
X130631666Y-48700714D01*
X130631666Y-48891190D01*
X130669761Y-48967380D01*
X130707857Y-49005476D01*
X130784047Y-49043571D01*
X130974523Y-49043571D01*
X131050714Y-49005476D01*
X131088809Y-48967380D01*
X131126904Y-48891190D01*
X131126904Y-48700714D01*
X131088809Y-48624523D01*
X131050714Y-48586428D01*
X130618571Y-46367380D02*
X131151904Y-46367380D01*
X130313809Y-46176904D02*
X130885238Y-45986428D01*
X130885238Y-46481666D01*
X130301904Y-43448333D02*
X130301904Y-43943571D01*
X130606666Y-43676904D01*
X130606666Y-43791190D01*
X130644761Y-43867380D01*
X130682857Y-43905476D01*
X130759047Y-43943571D01*
X130949523Y-43943571D01*
X131025714Y-43905476D01*
X131063809Y-43867380D01*
X131101904Y-43791190D01*
X131101904Y-43562619D01*
X131063809Y-43486428D01*
X131025714Y-43448333D01*
X131151904Y-41268571D02*
X131151904Y-40811428D01*
X131151904Y-41040000D02*
X130351904Y-41040000D01*
X130466190Y-40963809D01*
X130542380Y-40887619D01*
X130580476Y-40811428D01*
X130618571Y-46367380D02*
X131151904Y-46367380D01*
X130313809Y-46176904D02*
X130885238Y-45986428D01*
X130885238Y-46481666D01*
X131151904Y-41268571D02*
X131151904Y-40811428D01*
X131151904Y-41040000D02*
X130351904Y-41040000D01*
X130466190Y-40963809D01*
X130542380Y-40887619D01*
X130580476Y-40811428D01*
X132476904Y-40848333D02*
X132476904Y-41381666D01*
X133276904Y-41038809D01*
X132719761Y-43488809D02*
X132681666Y-43412619D01*
X132643571Y-43374523D01*
X132567380Y-43336428D01*
X132529285Y-43336428D01*
X132453095Y-43374523D01*
X132415000Y-43412619D01*
X132376904Y-43488809D01*
X132376904Y-43641190D01*
X132415000Y-43717380D01*
X132453095Y-43755476D01*
X132529285Y-43793571D01*
X132567380Y-43793571D01*
X132643571Y-43755476D01*
X132681666Y-43717380D01*
X132719761Y-43641190D01*
X132719761Y-43488809D01*
X132757857Y-43412619D01*
X132795952Y-43374523D01*
X132872142Y-43336428D01*
X133024523Y-43336428D01*
X133100714Y-43374523D01*
X133138809Y-43412619D01*
X133176904Y-43488809D01*
X133176904Y-43641190D01*
X133138809Y-43717380D01*
X133100714Y-43755476D01*
X133024523Y-43793571D01*
X132872142Y-43793571D01*
X132795952Y-43755476D01*
X132757857Y-43717380D01*
X132719761Y-43641190D01*
X130351904Y-54017380D02*
X130351904Y-53865000D01*
X130390000Y-53788809D01*
X130428095Y-53750714D01*
X130542380Y-53674523D01*
X130694761Y-53636428D01*
X130999523Y-53636428D01*
X131075714Y-53674523D01*
X131113809Y-53712619D01*
X131151904Y-53788809D01*
X131151904Y-53941190D01*
X131113809Y-54017380D01*
X131075714Y-54055476D01*
X130999523Y-54093571D01*
X130809047Y-54093571D01*
X130732857Y-54055476D01*
X130694761Y-54017380D01*
X130656666Y-53941190D01*
X130656666Y-53788809D01*
X130694761Y-53712619D01*
X130732857Y-53674523D01*
X130809047Y-53636428D01*
X133276904Y-53587619D02*
X133276904Y-53130476D01*
X133276904Y-53359047D02*
X132476904Y-53359047D01*
X132591190Y-53282857D01*
X132667380Y-53206666D01*
X132705476Y-53130476D01*
X132553095Y-53892380D02*
X132515000Y-53930476D01*
X132476904Y-54006666D01*
X132476904Y-54197142D01*
X132515000Y-54273333D01*
X132553095Y-54311428D01*
X132629285Y-54349523D01*
X132705476Y-54349523D01*
X132819761Y-54311428D01*
X133276904Y-53854285D01*
X133276904Y-54349523D01*
X133201904Y-48662619D02*
X133201904Y-48205476D01*
X133201904Y-48434047D02*
X132401904Y-48434047D01*
X132516190Y-48357857D01*
X132592380Y-48281666D01*
X132630476Y-48205476D01*
X132401904Y-49157857D02*
X132401904Y-49234047D01*
X132440000Y-49310238D01*
X132478095Y-49348333D01*
X132554285Y-49386428D01*
X132706666Y-49424523D01*
X132897142Y-49424523D01*
X133049523Y-49386428D01*
X133125714Y-49348333D01*
X133163809Y-49310238D01*
X133201904Y-49234047D01*
X133201904Y-49157857D01*
X133163809Y-49081666D01*
X133125714Y-49043571D01*
X133049523Y-49005476D01*
X132897142Y-48967380D01*
X132706666Y-48967380D01*
X132554285Y-49005476D01*
X132478095Y-49043571D01*
X132440000Y-49081666D01*
X132401904Y-49157857D01*
X130326904Y-49005476D02*
X130326904Y-48624523D01*
X130707857Y-48586428D01*
X130669761Y-48624523D01*
X130631666Y-48700714D01*
X130631666Y-48891190D01*
X130669761Y-48967380D01*
X130707857Y-49005476D01*
X130784047Y-49043571D01*
X130974523Y-49043571D01*
X131050714Y-49005476D01*
X131088809Y-48967380D01*
X131126904Y-48891190D01*
X131126904Y-48700714D01*
X131088809Y-48624523D01*
X131050714Y-48586428D01*
X133176904Y-45887619D02*
X133176904Y-46040000D01*
X133138809Y-46116190D01*
X133100714Y-46154285D01*
X132986428Y-46230476D01*
X132834047Y-46268571D01*
X132529285Y-46268571D01*
X132453095Y-46230476D01*
X132415000Y-46192380D01*
X132376904Y-46116190D01*
X132376904Y-45963809D01*
X132415000Y-45887619D01*
X132453095Y-45849523D01*
X132529285Y-45811428D01*
X132719761Y-45811428D01*
X132795952Y-45849523D01*
X132834047Y-45887619D01*
X132872142Y-45963809D01*
X132872142Y-46116190D01*
X132834047Y-46192380D01*
X132795952Y-46230476D01*
X132719761Y-46268571D01*
X130301904Y-43448333D02*
X130301904Y-43943571D01*
X130606666Y-43676904D01*
X130606666Y-43791190D01*
X130644761Y-43867380D01*
X130682857Y-43905476D01*
X130759047Y-43943571D01*
X130949523Y-43943571D01*
X131025714Y-43905476D01*
X131063809Y-43867380D01*
X131101904Y-43791190D01*
X131101904Y-43562619D01*
X131063809Y-43486428D01*
X131025714Y-43448333D01*
%TO.C,K12*%
X163976904Y-68818333D02*
X163976904Y-69351666D01*
X164776904Y-69008809D01*
X164219761Y-71458809D02*
X164181666Y-71382619D01*
X164143571Y-71344523D01*
X164067380Y-71306428D01*
X164029285Y-71306428D01*
X163953095Y-71344523D01*
X163915000Y-71382619D01*
X163876904Y-71458809D01*
X163876904Y-71611190D01*
X163915000Y-71687380D01*
X163953095Y-71725476D01*
X164029285Y-71763571D01*
X164067380Y-71763571D01*
X164143571Y-71725476D01*
X164181666Y-71687380D01*
X164219761Y-71611190D01*
X164219761Y-71458809D01*
X164257857Y-71382619D01*
X164295952Y-71344523D01*
X164372142Y-71306428D01*
X164524523Y-71306428D01*
X164600714Y-71344523D01*
X164638809Y-71382619D01*
X164676904Y-71458809D01*
X164676904Y-71611190D01*
X164638809Y-71687380D01*
X164600714Y-71725476D01*
X164524523Y-71763571D01*
X164372142Y-71763571D01*
X164295952Y-71725476D01*
X164257857Y-71687380D01*
X164219761Y-71611190D01*
X164676904Y-73857619D02*
X164676904Y-74010000D01*
X164638809Y-74086190D01*
X164600714Y-74124285D01*
X164486428Y-74200476D01*
X164334047Y-74238571D01*
X164029285Y-74238571D01*
X163953095Y-74200476D01*
X163915000Y-74162380D01*
X163876904Y-74086190D01*
X163876904Y-73933809D01*
X163915000Y-73857619D01*
X163953095Y-73819523D01*
X164029285Y-73781428D01*
X164219761Y-73781428D01*
X164295952Y-73819523D01*
X164334047Y-73857619D01*
X164372142Y-73933809D01*
X164372142Y-74086190D01*
X164334047Y-74162380D01*
X164295952Y-74200476D01*
X164219761Y-74238571D01*
X164701904Y-76632619D02*
X164701904Y-76175476D01*
X164701904Y-76404047D02*
X163901904Y-76404047D01*
X164016190Y-76327857D01*
X164092380Y-76251666D01*
X164130476Y-76175476D01*
X163901904Y-77127857D02*
X163901904Y-77204047D01*
X163940000Y-77280238D01*
X163978095Y-77318333D01*
X164054285Y-77356428D01*
X164206666Y-77394523D01*
X164397142Y-77394523D01*
X164549523Y-77356428D01*
X164625714Y-77318333D01*
X164663809Y-77280238D01*
X164701904Y-77204047D01*
X164701904Y-77127857D01*
X164663809Y-77051666D01*
X164625714Y-77013571D01*
X164549523Y-76975476D01*
X164397142Y-76937380D01*
X164206666Y-76937380D01*
X164054285Y-76975476D01*
X163978095Y-77013571D01*
X163940000Y-77051666D01*
X163901904Y-77127857D01*
X164776904Y-81557619D02*
X164776904Y-81100476D01*
X164776904Y-81329047D02*
X163976904Y-81329047D01*
X164091190Y-81252857D01*
X164167380Y-81176666D01*
X164205476Y-81100476D01*
X164053095Y-81862380D02*
X164015000Y-81900476D01*
X163976904Y-81976666D01*
X163976904Y-82167142D01*
X164015000Y-82243333D01*
X164053095Y-82281428D01*
X164129285Y-82319523D01*
X164205476Y-82319523D01*
X164319761Y-82281428D01*
X164776904Y-81824285D01*
X164776904Y-82319523D01*
X161851904Y-81987380D02*
X161851904Y-81835000D01*
X161890000Y-81758809D01*
X161928095Y-81720714D01*
X162042380Y-81644523D01*
X162194761Y-81606428D01*
X162499523Y-81606428D01*
X162575714Y-81644523D01*
X162613809Y-81682619D01*
X162651904Y-81758809D01*
X162651904Y-81911190D01*
X162613809Y-81987380D01*
X162575714Y-82025476D01*
X162499523Y-82063571D01*
X162309047Y-82063571D01*
X162232857Y-82025476D01*
X162194761Y-81987380D01*
X162156666Y-81911190D01*
X162156666Y-81758809D01*
X162194761Y-81682619D01*
X162232857Y-81644523D01*
X162309047Y-81606428D01*
X161826904Y-76975476D02*
X161826904Y-76594523D01*
X162207857Y-76556428D01*
X162169761Y-76594523D01*
X162131666Y-76670714D01*
X162131666Y-76861190D01*
X162169761Y-76937380D01*
X162207857Y-76975476D01*
X162284047Y-77013571D01*
X162474523Y-77013571D01*
X162550714Y-76975476D01*
X162588809Y-76937380D01*
X162626904Y-76861190D01*
X162626904Y-76670714D01*
X162588809Y-76594523D01*
X162550714Y-76556428D01*
X162118571Y-74337380D02*
X162651904Y-74337380D01*
X161813809Y-74146904D02*
X162385238Y-73956428D01*
X162385238Y-74451666D01*
X161801904Y-71418333D02*
X161801904Y-71913571D01*
X162106666Y-71646904D01*
X162106666Y-71761190D01*
X162144761Y-71837380D01*
X162182857Y-71875476D01*
X162259047Y-71913571D01*
X162449523Y-71913571D01*
X162525714Y-71875476D01*
X162563809Y-71837380D01*
X162601904Y-71761190D01*
X162601904Y-71532619D01*
X162563809Y-71456428D01*
X162525714Y-71418333D01*
X162651904Y-69238571D02*
X162651904Y-68781428D01*
X162651904Y-69010000D02*
X161851904Y-69010000D01*
X161966190Y-68933809D01*
X162042380Y-68857619D01*
X162080476Y-68781428D01*
X162118571Y-74337380D02*
X162651904Y-74337380D01*
X161813809Y-74146904D02*
X162385238Y-73956428D01*
X162385238Y-74451666D01*
X162651904Y-69238571D02*
X162651904Y-68781428D01*
X162651904Y-69010000D02*
X161851904Y-69010000D01*
X161966190Y-68933809D01*
X162042380Y-68857619D01*
X162080476Y-68781428D01*
X163976904Y-68818333D02*
X163976904Y-69351666D01*
X164776904Y-69008809D01*
X164219761Y-71458809D02*
X164181666Y-71382619D01*
X164143571Y-71344523D01*
X164067380Y-71306428D01*
X164029285Y-71306428D01*
X163953095Y-71344523D01*
X163915000Y-71382619D01*
X163876904Y-71458809D01*
X163876904Y-71611190D01*
X163915000Y-71687380D01*
X163953095Y-71725476D01*
X164029285Y-71763571D01*
X164067380Y-71763571D01*
X164143571Y-71725476D01*
X164181666Y-71687380D01*
X164219761Y-71611190D01*
X164219761Y-71458809D01*
X164257857Y-71382619D01*
X164295952Y-71344523D01*
X164372142Y-71306428D01*
X164524523Y-71306428D01*
X164600714Y-71344523D01*
X164638809Y-71382619D01*
X164676904Y-71458809D01*
X164676904Y-71611190D01*
X164638809Y-71687380D01*
X164600714Y-71725476D01*
X164524523Y-71763571D01*
X164372142Y-71763571D01*
X164295952Y-71725476D01*
X164257857Y-71687380D01*
X164219761Y-71611190D01*
X161851904Y-81987380D02*
X161851904Y-81835000D01*
X161890000Y-81758809D01*
X161928095Y-81720714D01*
X162042380Y-81644523D01*
X162194761Y-81606428D01*
X162499523Y-81606428D01*
X162575714Y-81644523D01*
X162613809Y-81682619D01*
X162651904Y-81758809D01*
X162651904Y-81911190D01*
X162613809Y-81987380D01*
X162575714Y-82025476D01*
X162499523Y-82063571D01*
X162309047Y-82063571D01*
X162232857Y-82025476D01*
X162194761Y-81987380D01*
X162156666Y-81911190D01*
X162156666Y-81758809D01*
X162194761Y-81682619D01*
X162232857Y-81644523D01*
X162309047Y-81606428D01*
X164776904Y-81557619D02*
X164776904Y-81100476D01*
X164776904Y-81329047D02*
X163976904Y-81329047D01*
X164091190Y-81252857D01*
X164167380Y-81176666D01*
X164205476Y-81100476D01*
X164053095Y-81862380D02*
X164015000Y-81900476D01*
X163976904Y-81976666D01*
X163976904Y-82167142D01*
X164015000Y-82243333D01*
X164053095Y-82281428D01*
X164129285Y-82319523D01*
X164205476Y-82319523D01*
X164319761Y-82281428D01*
X164776904Y-81824285D01*
X164776904Y-82319523D01*
X164701904Y-76632619D02*
X164701904Y-76175476D01*
X164701904Y-76404047D02*
X163901904Y-76404047D01*
X164016190Y-76327857D01*
X164092380Y-76251666D01*
X164130476Y-76175476D01*
X163901904Y-77127857D02*
X163901904Y-77204047D01*
X163940000Y-77280238D01*
X163978095Y-77318333D01*
X164054285Y-77356428D01*
X164206666Y-77394523D01*
X164397142Y-77394523D01*
X164549523Y-77356428D01*
X164625714Y-77318333D01*
X164663809Y-77280238D01*
X164701904Y-77204047D01*
X164701904Y-77127857D01*
X164663809Y-77051666D01*
X164625714Y-77013571D01*
X164549523Y-76975476D01*
X164397142Y-76937380D01*
X164206666Y-76937380D01*
X164054285Y-76975476D01*
X163978095Y-77013571D01*
X163940000Y-77051666D01*
X163901904Y-77127857D01*
X161826904Y-76975476D02*
X161826904Y-76594523D01*
X162207857Y-76556428D01*
X162169761Y-76594523D01*
X162131666Y-76670714D01*
X162131666Y-76861190D01*
X162169761Y-76937380D01*
X162207857Y-76975476D01*
X162284047Y-77013571D01*
X162474523Y-77013571D01*
X162550714Y-76975476D01*
X162588809Y-76937380D01*
X162626904Y-76861190D01*
X162626904Y-76670714D01*
X162588809Y-76594523D01*
X162550714Y-76556428D01*
X164676904Y-73857619D02*
X164676904Y-74010000D01*
X164638809Y-74086190D01*
X164600714Y-74124285D01*
X164486428Y-74200476D01*
X164334047Y-74238571D01*
X164029285Y-74238571D01*
X163953095Y-74200476D01*
X163915000Y-74162380D01*
X163876904Y-74086190D01*
X163876904Y-73933809D01*
X163915000Y-73857619D01*
X163953095Y-73819523D01*
X164029285Y-73781428D01*
X164219761Y-73781428D01*
X164295952Y-73819523D01*
X164334047Y-73857619D01*
X164372142Y-73933809D01*
X164372142Y-74086190D01*
X164334047Y-74162380D01*
X164295952Y-74200476D01*
X164219761Y-74238571D01*
X161801904Y-71418333D02*
X161801904Y-71913571D01*
X162106666Y-71646904D01*
X162106666Y-71761190D01*
X162144761Y-71837380D01*
X162182857Y-71875476D01*
X162259047Y-71913571D01*
X162449523Y-71913571D01*
X162525714Y-71875476D01*
X162563809Y-71837380D01*
X162601904Y-71761190D01*
X162601904Y-71532619D01*
X162563809Y-71456428D01*
X162525714Y-71418333D01*
%TO.C,K11*%
X101928904Y-58200333D02*
X101928904Y-58733666D01*
X102728904Y-58390809D01*
X102171761Y-60840809D02*
X102133666Y-60764619D01*
X102095571Y-60726523D01*
X102019380Y-60688428D01*
X101981285Y-60688428D01*
X101905095Y-60726523D01*
X101867000Y-60764619D01*
X101828904Y-60840809D01*
X101828904Y-60993190D01*
X101867000Y-61069380D01*
X101905095Y-61107476D01*
X101981285Y-61145571D01*
X102019380Y-61145571D01*
X102095571Y-61107476D01*
X102133666Y-61069380D01*
X102171761Y-60993190D01*
X102171761Y-60840809D01*
X102209857Y-60764619D01*
X102247952Y-60726523D01*
X102324142Y-60688428D01*
X102476523Y-60688428D01*
X102552714Y-60726523D01*
X102590809Y-60764619D01*
X102628904Y-60840809D01*
X102628904Y-60993190D01*
X102590809Y-61069380D01*
X102552714Y-61107476D01*
X102476523Y-61145571D01*
X102324142Y-61145571D01*
X102247952Y-61107476D01*
X102209857Y-61069380D01*
X102171761Y-60993190D01*
X102628904Y-63239619D02*
X102628904Y-63392000D01*
X102590809Y-63468190D01*
X102552714Y-63506285D01*
X102438428Y-63582476D01*
X102286047Y-63620571D01*
X101981285Y-63620571D01*
X101905095Y-63582476D01*
X101867000Y-63544380D01*
X101828904Y-63468190D01*
X101828904Y-63315809D01*
X101867000Y-63239619D01*
X101905095Y-63201523D01*
X101981285Y-63163428D01*
X102171761Y-63163428D01*
X102247952Y-63201523D01*
X102286047Y-63239619D01*
X102324142Y-63315809D01*
X102324142Y-63468190D01*
X102286047Y-63544380D01*
X102247952Y-63582476D01*
X102171761Y-63620571D01*
X102653904Y-66014619D02*
X102653904Y-65557476D01*
X102653904Y-65786047D02*
X101853904Y-65786047D01*
X101968190Y-65709857D01*
X102044380Y-65633666D01*
X102082476Y-65557476D01*
X101853904Y-66509857D02*
X101853904Y-66586047D01*
X101892000Y-66662238D01*
X101930095Y-66700333D01*
X102006285Y-66738428D01*
X102158666Y-66776523D01*
X102349142Y-66776523D01*
X102501523Y-66738428D01*
X102577714Y-66700333D01*
X102615809Y-66662238D01*
X102653904Y-66586047D01*
X102653904Y-66509857D01*
X102615809Y-66433666D01*
X102577714Y-66395571D01*
X102501523Y-66357476D01*
X102349142Y-66319380D01*
X102158666Y-66319380D01*
X102006285Y-66357476D01*
X101930095Y-66395571D01*
X101892000Y-66433666D01*
X101853904Y-66509857D01*
X102728904Y-70939619D02*
X102728904Y-70482476D01*
X102728904Y-70711047D02*
X101928904Y-70711047D01*
X102043190Y-70634857D01*
X102119380Y-70558666D01*
X102157476Y-70482476D01*
X102005095Y-71244380D02*
X101967000Y-71282476D01*
X101928904Y-71358666D01*
X101928904Y-71549142D01*
X101967000Y-71625333D01*
X102005095Y-71663428D01*
X102081285Y-71701523D01*
X102157476Y-71701523D01*
X102271761Y-71663428D01*
X102728904Y-71206285D01*
X102728904Y-71701523D01*
X99803904Y-71369380D02*
X99803904Y-71217000D01*
X99842000Y-71140809D01*
X99880095Y-71102714D01*
X99994380Y-71026523D01*
X100146761Y-70988428D01*
X100451523Y-70988428D01*
X100527714Y-71026523D01*
X100565809Y-71064619D01*
X100603904Y-71140809D01*
X100603904Y-71293190D01*
X100565809Y-71369380D01*
X100527714Y-71407476D01*
X100451523Y-71445571D01*
X100261047Y-71445571D01*
X100184857Y-71407476D01*
X100146761Y-71369380D01*
X100108666Y-71293190D01*
X100108666Y-71140809D01*
X100146761Y-71064619D01*
X100184857Y-71026523D01*
X100261047Y-70988428D01*
X99778904Y-66357476D02*
X99778904Y-65976523D01*
X100159857Y-65938428D01*
X100121761Y-65976523D01*
X100083666Y-66052714D01*
X100083666Y-66243190D01*
X100121761Y-66319380D01*
X100159857Y-66357476D01*
X100236047Y-66395571D01*
X100426523Y-66395571D01*
X100502714Y-66357476D01*
X100540809Y-66319380D01*
X100578904Y-66243190D01*
X100578904Y-66052714D01*
X100540809Y-65976523D01*
X100502714Y-65938428D01*
X100070571Y-63719380D02*
X100603904Y-63719380D01*
X99765809Y-63528904D02*
X100337238Y-63338428D01*
X100337238Y-63833666D01*
X99753904Y-60800333D02*
X99753904Y-61295571D01*
X100058666Y-61028904D01*
X100058666Y-61143190D01*
X100096761Y-61219380D01*
X100134857Y-61257476D01*
X100211047Y-61295571D01*
X100401523Y-61295571D01*
X100477714Y-61257476D01*
X100515809Y-61219380D01*
X100553904Y-61143190D01*
X100553904Y-60914619D01*
X100515809Y-60838428D01*
X100477714Y-60800333D01*
X100603904Y-58620571D02*
X100603904Y-58163428D01*
X100603904Y-58392000D02*
X99803904Y-58392000D01*
X99918190Y-58315809D01*
X99994380Y-58239619D01*
X100032476Y-58163428D01*
X100070571Y-63719380D02*
X100603904Y-63719380D01*
X99765809Y-63528904D02*
X100337238Y-63338428D01*
X100337238Y-63833666D01*
X100603904Y-58620571D02*
X100603904Y-58163428D01*
X100603904Y-58392000D02*
X99803904Y-58392000D01*
X99918190Y-58315809D01*
X99994380Y-58239619D01*
X100032476Y-58163428D01*
X101928904Y-58200333D02*
X101928904Y-58733666D01*
X102728904Y-58390809D01*
X102171761Y-60840809D02*
X102133666Y-60764619D01*
X102095571Y-60726523D01*
X102019380Y-60688428D01*
X101981285Y-60688428D01*
X101905095Y-60726523D01*
X101867000Y-60764619D01*
X101828904Y-60840809D01*
X101828904Y-60993190D01*
X101867000Y-61069380D01*
X101905095Y-61107476D01*
X101981285Y-61145571D01*
X102019380Y-61145571D01*
X102095571Y-61107476D01*
X102133666Y-61069380D01*
X102171761Y-60993190D01*
X102171761Y-60840809D01*
X102209857Y-60764619D01*
X102247952Y-60726523D01*
X102324142Y-60688428D01*
X102476523Y-60688428D01*
X102552714Y-60726523D01*
X102590809Y-60764619D01*
X102628904Y-60840809D01*
X102628904Y-60993190D01*
X102590809Y-61069380D01*
X102552714Y-61107476D01*
X102476523Y-61145571D01*
X102324142Y-61145571D01*
X102247952Y-61107476D01*
X102209857Y-61069380D01*
X102171761Y-60993190D01*
X99803904Y-71369380D02*
X99803904Y-71217000D01*
X99842000Y-71140809D01*
X99880095Y-71102714D01*
X99994380Y-71026523D01*
X100146761Y-70988428D01*
X100451523Y-70988428D01*
X100527714Y-71026523D01*
X100565809Y-71064619D01*
X100603904Y-71140809D01*
X100603904Y-71293190D01*
X100565809Y-71369380D01*
X100527714Y-71407476D01*
X100451523Y-71445571D01*
X100261047Y-71445571D01*
X100184857Y-71407476D01*
X100146761Y-71369380D01*
X100108666Y-71293190D01*
X100108666Y-71140809D01*
X100146761Y-71064619D01*
X100184857Y-71026523D01*
X100261047Y-70988428D01*
X102728904Y-70939619D02*
X102728904Y-70482476D01*
X102728904Y-70711047D02*
X101928904Y-70711047D01*
X102043190Y-70634857D01*
X102119380Y-70558666D01*
X102157476Y-70482476D01*
X102005095Y-71244380D02*
X101967000Y-71282476D01*
X101928904Y-71358666D01*
X101928904Y-71549142D01*
X101967000Y-71625333D01*
X102005095Y-71663428D01*
X102081285Y-71701523D01*
X102157476Y-71701523D01*
X102271761Y-71663428D01*
X102728904Y-71206285D01*
X102728904Y-71701523D01*
X102653904Y-66014619D02*
X102653904Y-65557476D01*
X102653904Y-65786047D02*
X101853904Y-65786047D01*
X101968190Y-65709857D01*
X102044380Y-65633666D01*
X102082476Y-65557476D01*
X101853904Y-66509857D02*
X101853904Y-66586047D01*
X101892000Y-66662238D01*
X101930095Y-66700333D01*
X102006285Y-66738428D01*
X102158666Y-66776523D01*
X102349142Y-66776523D01*
X102501523Y-66738428D01*
X102577714Y-66700333D01*
X102615809Y-66662238D01*
X102653904Y-66586047D01*
X102653904Y-66509857D01*
X102615809Y-66433666D01*
X102577714Y-66395571D01*
X102501523Y-66357476D01*
X102349142Y-66319380D01*
X102158666Y-66319380D01*
X102006285Y-66357476D01*
X101930095Y-66395571D01*
X101892000Y-66433666D01*
X101853904Y-66509857D01*
X99778904Y-66357476D02*
X99778904Y-65976523D01*
X100159857Y-65938428D01*
X100121761Y-65976523D01*
X100083666Y-66052714D01*
X100083666Y-66243190D01*
X100121761Y-66319380D01*
X100159857Y-66357476D01*
X100236047Y-66395571D01*
X100426523Y-66395571D01*
X100502714Y-66357476D01*
X100540809Y-66319380D01*
X100578904Y-66243190D01*
X100578904Y-66052714D01*
X100540809Y-65976523D01*
X100502714Y-65938428D01*
X102628904Y-63239619D02*
X102628904Y-63392000D01*
X102590809Y-63468190D01*
X102552714Y-63506285D01*
X102438428Y-63582476D01*
X102286047Y-63620571D01*
X101981285Y-63620571D01*
X101905095Y-63582476D01*
X101867000Y-63544380D01*
X101828904Y-63468190D01*
X101828904Y-63315809D01*
X101867000Y-63239619D01*
X101905095Y-63201523D01*
X101981285Y-63163428D01*
X102171761Y-63163428D01*
X102247952Y-63201523D01*
X102286047Y-63239619D01*
X102324142Y-63315809D01*
X102324142Y-63468190D01*
X102286047Y-63544380D01*
X102247952Y-63582476D01*
X102171761Y-63620571D01*
X99753904Y-60800333D02*
X99753904Y-61295571D01*
X100058666Y-61028904D01*
X100058666Y-61143190D01*
X100096761Y-61219380D01*
X100134857Y-61257476D01*
X100211047Y-61295571D01*
X100401523Y-61295571D01*
X100477714Y-61257476D01*
X100515809Y-61219380D01*
X100553904Y-61143190D01*
X100553904Y-60914619D01*
X100515809Y-60838428D01*
X100477714Y-60800333D01*
%TO.C,K10*%
X129031666Y-74696904D02*
X128498333Y-74696904D01*
X128841190Y-75496904D01*
X126391190Y-74939761D02*
X126467380Y-74901666D01*
X126505476Y-74863571D01*
X126543571Y-74787380D01*
X126543571Y-74749285D01*
X126505476Y-74673095D01*
X126467380Y-74635000D01*
X126391190Y-74596904D01*
X126238809Y-74596904D01*
X126162619Y-74635000D01*
X126124523Y-74673095D01*
X126086428Y-74749285D01*
X126086428Y-74787380D01*
X126124523Y-74863571D01*
X126162619Y-74901666D01*
X126238809Y-74939761D01*
X126391190Y-74939761D01*
X126467380Y-74977857D01*
X126505476Y-75015952D01*
X126543571Y-75092142D01*
X126543571Y-75244523D01*
X126505476Y-75320714D01*
X126467380Y-75358809D01*
X126391190Y-75396904D01*
X126238809Y-75396904D01*
X126162619Y-75358809D01*
X126124523Y-75320714D01*
X126086428Y-75244523D01*
X126086428Y-75092142D01*
X126124523Y-75015952D01*
X126162619Y-74977857D01*
X126238809Y-74939761D01*
X123992380Y-75396904D02*
X123840000Y-75396904D01*
X123763809Y-75358809D01*
X123725714Y-75320714D01*
X123649523Y-75206428D01*
X123611428Y-75054047D01*
X123611428Y-74749285D01*
X123649523Y-74673095D01*
X123687619Y-74635000D01*
X123763809Y-74596904D01*
X123916190Y-74596904D01*
X123992380Y-74635000D01*
X124030476Y-74673095D01*
X124068571Y-74749285D01*
X124068571Y-74939761D01*
X124030476Y-75015952D01*
X123992380Y-75054047D01*
X123916190Y-75092142D01*
X123763809Y-75092142D01*
X123687619Y-75054047D01*
X123649523Y-75015952D01*
X123611428Y-74939761D01*
X121217380Y-75421904D02*
X121674523Y-75421904D01*
X121445952Y-75421904D02*
X121445952Y-74621904D01*
X121522142Y-74736190D01*
X121598333Y-74812380D01*
X121674523Y-74850476D01*
X120722142Y-74621904D02*
X120645952Y-74621904D01*
X120569761Y-74660000D01*
X120531666Y-74698095D01*
X120493571Y-74774285D01*
X120455476Y-74926666D01*
X120455476Y-75117142D01*
X120493571Y-75269523D01*
X120531666Y-75345714D01*
X120569761Y-75383809D01*
X120645952Y-75421904D01*
X120722142Y-75421904D01*
X120798333Y-75383809D01*
X120836428Y-75345714D01*
X120874523Y-75269523D01*
X120912619Y-75117142D01*
X120912619Y-74926666D01*
X120874523Y-74774285D01*
X120836428Y-74698095D01*
X120798333Y-74660000D01*
X120722142Y-74621904D01*
X116292380Y-75496904D02*
X116749523Y-75496904D01*
X116520952Y-75496904D02*
X116520952Y-74696904D01*
X116597142Y-74811190D01*
X116673333Y-74887380D01*
X116749523Y-74925476D01*
X115987619Y-74773095D02*
X115949523Y-74735000D01*
X115873333Y-74696904D01*
X115682857Y-74696904D01*
X115606666Y-74735000D01*
X115568571Y-74773095D01*
X115530476Y-74849285D01*
X115530476Y-74925476D01*
X115568571Y-75039761D01*
X116025714Y-75496904D01*
X115530476Y-75496904D01*
X115862619Y-72571904D02*
X116015000Y-72571904D01*
X116091190Y-72610000D01*
X116129285Y-72648095D01*
X116205476Y-72762380D01*
X116243571Y-72914761D01*
X116243571Y-73219523D01*
X116205476Y-73295714D01*
X116167380Y-73333809D01*
X116091190Y-73371904D01*
X115938809Y-73371904D01*
X115862619Y-73333809D01*
X115824523Y-73295714D01*
X115786428Y-73219523D01*
X115786428Y-73029047D01*
X115824523Y-72952857D01*
X115862619Y-72914761D01*
X115938809Y-72876666D01*
X116091190Y-72876666D01*
X116167380Y-72914761D01*
X116205476Y-72952857D01*
X116243571Y-73029047D01*
X120874523Y-72546904D02*
X121255476Y-72546904D01*
X121293571Y-72927857D01*
X121255476Y-72889761D01*
X121179285Y-72851666D01*
X120988809Y-72851666D01*
X120912619Y-72889761D01*
X120874523Y-72927857D01*
X120836428Y-73004047D01*
X120836428Y-73194523D01*
X120874523Y-73270714D01*
X120912619Y-73308809D01*
X120988809Y-73346904D01*
X121179285Y-73346904D01*
X121255476Y-73308809D01*
X121293571Y-73270714D01*
X123512619Y-72838571D02*
X123512619Y-73371904D01*
X123703095Y-72533809D02*
X123893571Y-73105238D01*
X123398333Y-73105238D01*
X126431666Y-72521904D02*
X125936428Y-72521904D01*
X126203095Y-72826666D01*
X126088809Y-72826666D01*
X126012619Y-72864761D01*
X125974523Y-72902857D01*
X125936428Y-72979047D01*
X125936428Y-73169523D01*
X125974523Y-73245714D01*
X126012619Y-73283809D01*
X126088809Y-73321904D01*
X126317380Y-73321904D01*
X126393571Y-73283809D01*
X126431666Y-73245714D01*
X128611428Y-73371904D02*
X129068571Y-73371904D01*
X128840000Y-73371904D02*
X128840000Y-72571904D01*
X128916190Y-72686190D01*
X128992380Y-72762380D01*
X129068571Y-72800476D01*
X123512619Y-72838571D02*
X123512619Y-73371904D01*
X123703095Y-72533809D02*
X123893571Y-73105238D01*
X123398333Y-73105238D01*
X128611428Y-73371904D02*
X129068571Y-73371904D01*
X128840000Y-73371904D02*
X128840000Y-72571904D01*
X128916190Y-72686190D01*
X128992380Y-72762380D01*
X129068571Y-72800476D01*
X129031666Y-74696904D02*
X128498333Y-74696904D01*
X128841190Y-75496904D01*
X126391190Y-74939761D02*
X126467380Y-74901666D01*
X126505476Y-74863571D01*
X126543571Y-74787380D01*
X126543571Y-74749285D01*
X126505476Y-74673095D01*
X126467380Y-74635000D01*
X126391190Y-74596904D01*
X126238809Y-74596904D01*
X126162619Y-74635000D01*
X126124523Y-74673095D01*
X126086428Y-74749285D01*
X126086428Y-74787380D01*
X126124523Y-74863571D01*
X126162619Y-74901666D01*
X126238809Y-74939761D01*
X126391190Y-74939761D01*
X126467380Y-74977857D01*
X126505476Y-75015952D01*
X126543571Y-75092142D01*
X126543571Y-75244523D01*
X126505476Y-75320714D01*
X126467380Y-75358809D01*
X126391190Y-75396904D01*
X126238809Y-75396904D01*
X126162619Y-75358809D01*
X126124523Y-75320714D01*
X126086428Y-75244523D01*
X126086428Y-75092142D01*
X126124523Y-75015952D01*
X126162619Y-74977857D01*
X126238809Y-74939761D01*
X115862619Y-72571904D02*
X116015000Y-72571904D01*
X116091190Y-72610000D01*
X116129285Y-72648095D01*
X116205476Y-72762380D01*
X116243571Y-72914761D01*
X116243571Y-73219523D01*
X116205476Y-73295714D01*
X116167380Y-73333809D01*
X116091190Y-73371904D01*
X115938809Y-73371904D01*
X115862619Y-73333809D01*
X115824523Y-73295714D01*
X115786428Y-73219523D01*
X115786428Y-73029047D01*
X115824523Y-72952857D01*
X115862619Y-72914761D01*
X115938809Y-72876666D01*
X116091190Y-72876666D01*
X116167380Y-72914761D01*
X116205476Y-72952857D01*
X116243571Y-73029047D01*
X116292380Y-75496904D02*
X116749523Y-75496904D01*
X116520952Y-75496904D02*
X116520952Y-74696904D01*
X116597142Y-74811190D01*
X116673333Y-74887380D01*
X116749523Y-74925476D01*
X115987619Y-74773095D02*
X115949523Y-74735000D01*
X115873333Y-74696904D01*
X115682857Y-74696904D01*
X115606666Y-74735000D01*
X115568571Y-74773095D01*
X115530476Y-74849285D01*
X115530476Y-74925476D01*
X115568571Y-75039761D01*
X116025714Y-75496904D01*
X115530476Y-75496904D01*
X121217380Y-75421904D02*
X121674523Y-75421904D01*
X121445952Y-75421904D02*
X121445952Y-74621904D01*
X121522142Y-74736190D01*
X121598333Y-74812380D01*
X121674523Y-74850476D01*
X120722142Y-74621904D02*
X120645952Y-74621904D01*
X120569761Y-74660000D01*
X120531666Y-74698095D01*
X120493571Y-74774285D01*
X120455476Y-74926666D01*
X120455476Y-75117142D01*
X120493571Y-75269523D01*
X120531666Y-75345714D01*
X120569761Y-75383809D01*
X120645952Y-75421904D01*
X120722142Y-75421904D01*
X120798333Y-75383809D01*
X120836428Y-75345714D01*
X120874523Y-75269523D01*
X120912619Y-75117142D01*
X120912619Y-74926666D01*
X120874523Y-74774285D01*
X120836428Y-74698095D01*
X120798333Y-74660000D01*
X120722142Y-74621904D01*
X120874523Y-72546904D02*
X121255476Y-72546904D01*
X121293571Y-72927857D01*
X121255476Y-72889761D01*
X121179285Y-72851666D01*
X120988809Y-72851666D01*
X120912619Y-72889761D01*
X120874523Y-72927857D01*
X120836428Y-73004047D01*
X120836428Y-73194523D01*
X120874523Y-73270714D01*
X120912619Y-73308809D01*
X120988809Y-73346904D01*
X121179285Y-73346904D01*
X121255476Y-73308809D01*
X121293571Y-73270714D01*
X123992380Y-75396904D02*
X123840000Y-75396904D01*
X123763809Y-75358809D01*
X123725714Y-75320714D01*
X123649523Y-75206428D01*
X123611428Y-75054047D01*
X123611428Y-74749285D01*
X123649523Y-74673095D01*
X123687619Y-74635000D01*
X123763809Y-74596904D01*
X123916190Y-74596904D01*
X123992380Y-74635000D01*
X124030476Y-74673095D01*
X124068571Y-74749285D01*
X124068571Y-74939761D01*
X124030476Y-75015952D01*
X123992380Y-75054047D01*
X123916190Y-75092142D01*
X123763809Y-75092142D01*
X123687619Y-75054047D01*
X123649523Y-75015952D01*
X123611428Y-74939761D01*
X126431666Y-72521904D02*
X125936428Y-72521904D01*
X126203095Y-72826666D01*
X126088809Y-72826666D01*
X126012619Y-72864761D01*
X125974523Y-72902857D01*
X125936428Y-72979047D01*
X125936428Y-73169523D01*
X125974523Y-73245714D01*
X126012619Y-73283809D01*
X126088809Y-73321904D01*
X126317380Y-73321904D01*
X126393571Y-73283809D01*
X126431666Y-73245714D01*
%TO.C,K9*%
X134399666Y-109314904D02*
X133866333Y-109314904D01*
X134209190Y-110114904D01*
X131759190Y-109557761D02*
X131835380Y-109519666D01*
X131873476Y-109481571D01*
X131911571Y-109405380D01*
X131911571Y-109367285D01*
X131873476Y-109291095D01*
X131835380Y-109253000D01*
X131759190Y-109214904D01*
X131606809Y-109214904D01*
X131530619Y-109253000D01*
X131492523Y-109291095D01*
X131454428Y-109367285D01*
X131454428Y-109405380D01*
X131492523Y-109481571D01*
X131530619Y-109519666D01*
X131606809Y-109557761D01*
X131759190Y-109557761D01*
X131835380Y-109595857D01*
X131873476Y-109633952D01*
X131911571Y-109710142D01*
X131911571Y-109862523D01*
X131873476Y-109938714D01*
X131835380Y-109976809D01*
X131759190Y-110014904D01*
X131606809Y-110014904D01*
X131530619Y-109976809D01*
X131492523Y-109938714D01*
X131454428Y-109862523D01*
X131454428Y-109710142D01*
X131492523Y-109633952D01*
X131530619Y-109595857D01*
X131606809Y-109557761D01*
X129360380Y-110014904D02*
X129208000Y-110014904D01*
X129131809Y-109976809D01*
X129093714Y-109938714D01*
X129017523Y-109824428D01*
X128979428Y-109672047D01*
X128979428Y-109367285D01*
X129017523Y-109291095D01*
X129055619Y-109253000D01*
X129131809Y-109214904D01*
X129284190Y-109214904D01*
X129360380Y-109253000D01*
X129398476Y-109291095D01*
X129436571Y-109367285D01*
X129436571Y-109557761D01*
X129398476Y-109633952D01*
X129360380Y-109672047D01*
X129284190Y-109710142D01*
X129131809Y-109710142D01*
X129055619Y-109672047D01*
X129017523Y-109633952D01*
X128979428Y-109557761D01*
X126585380Y-110039904D02*
X127042523Y-110039904D01*
X126813952Y-110039904D02*
X126813952Y-109239904D01*
X126890142Y-109354190D01*
X126966333Y-109430380D01*
X127042523Y-109468476D01*
X126090142Y-109239904D02*
X126013952Y-109239904D01*
X125937761Y-109278000D01*
X125899666Y-109316095D01*
X125861571Y-109392285D01*
X125823476Y-109544666D01*
X125823476Y-109735142D01*
X125861571Y-109887523D01*
X125899666Y-109963714D01*
X125937761Y-110001809D01*
X126013952Y-110039904D01*
X126090142Y-110039904D01*
X126166333Y-110001809D01*
X126204428Y-109963714D01*
X126242523Y-109887523D01*
X126280619Y-109735142D01*
X126280619Y-109544666D01*
X126242523Y-109392285D01*
X126204428Y-109316095D01*
X126166333Y-109278000D01*
X126090142Y-109239904D01*
X121660380Y-110114904D02*
X122117523Y-110114904D01*
X121888952Y-110114904D02*
X121888952Y-109314904D01*
X121965142Y-109429190D01*
X122041333Y-109505380D01*
X122117523Y-109543476D01*
X121355619Y-109391095D02*
X121317523Y-109353000D01*
X121241333Y-109314904D01*
X121050857Y-109314904D01*
X120974666Y-109353000D01*
X120936571Y-109391095D01*
X120898476Y-109467285D01*
X120898476Y-109543476D01*
X120936571Y-109657761D01*
X121393714Y-110114904D01*
X120898476Y-110114904D01*
X121230619Y-107189904D02*
X121383000Y-107189904D01*
X121459190Y-107228000D01*
X121497285Y-107266095D01*
X121573476Y-107380380D01*
X121611571Y-107532761D01*
X121611571Y-107837523D01*
X121573476Y-107913714D01*
X121535380Y-107951809D01*
X121459190Y-107989904D01*
X121306809Y-107989904D01*
X121230619Y-107951809D01*
X121192523Y-107913714D01*
X121154428Y-107837523D01*
X121154428Y-107647047D01*
X121192523Y-107570857D01*
X121230619Y-107532761D01*
X121306809Y-107494666D01*
X121459190Y-107494666D01*
X121535380Y-107532761D01*
X121573476Y-107570857D01*
X121611571Y-107647047D01*
X126242523Y-107164904D02*
X126623476Y-107164904D01*
X126661571Y-107545857D01*
X126623476Y-107507761D01*
X126547285Y-107469666D01*
X126356809Y-107469666D01*
X126280619Y-107507761D01*
X126242523Y-107545857D01*
X126204428Y-107622047D01*
X126204428Y-107812523D01*
X126242523Y-107888714D01*
X126280619Y-107926809D01*
X126356809Y-107964904D01*
X126547285Y-107964904D01*
X126623476Y-107926809D01*
X126661571Y-107888714D01*
X128880619Y-107456571D02*
X128880619Y-107989904D01*
X129071095Y-107151809D02*
X129261571Y-107723238D01*
X128766333Y-107723238D01*
X131799666Y-107139904D02*
X131304428Y-107139904D01*
X131571095Y-107444666D01*
X131456809Y-107444666D01*
X131380619Y-107482761D01*
X131342523Y-107520857D01*
X131304428Y-107597047D01*
X131304428Y-107787523D01*
X131342523Y-107863714D01*
X131380619Y-107901809D01*
X131456809Y-107939904D01*
X131685380Y-107939904D01*
X131761571Y-107901809D01*
X131799666Y-107863714D01*
X133979428Y-107989904D02*
X134436571Y-107989904D01*
X134208000Y-107989904D02*
X134208000Y-107189904D01*
X134284190Y-107304190D01*
X134360380Y-107380380D01*
X134436571Y-107418476D01*
X128880619Y-107456571D02*
X128880619Y-107989904D01*
X129071095Y-107151809D02*
X129261571Y-107723238D01*
X128766333Y-107723238D01*
X133979428Y-107989904D02*
X134436571Y-107989904D01*
X134208000Y-107989904D02*
X134208000Y-107189904D01*
X134284190Y-107304190D01*
X134360380Y-107380380D01*
X134436571Y-107418476D01*
X134399666Y-109314904D02*
X133866333Y-109314904D01*
X134209190Y-110114904D01*
X131759190Y-109557761D02*
X131835380Y-109519666D01*
X131873476Y-109481571D01*
X131911571Y-109405380D01*
X131911571Y-109367285D01*
X131873476Y-109291095D01*
X131835380Y-109253000D01*
X131759190Y-109214904D01*
X131606809Y-109214904D01*
X131530619Y-109253000D01*
X131492523Y-109291095D01*
X131454428Y-109367285D01*
X131454428Y-109405380D01*
X131492523Y-109481571D01*
X131530619Y-109519666D01*
X131606809Y-109557761D01*
X131759190Y-109557761D01*
X131835380Y-109595857D01*
X131873476Y-109633952D01*
X131911571Y-109710142D01*
X131911571Y-109862523D01*
X131873476Y-109938714D01*
X131835380Y-109976809D01*
X131759190Y-110014904D01*
X131606809Y-110014904D01*
X131530619Y-109976809D01*
X131492523Y-109938714D01*
X131454428Y-109862523D01*
X131454428Y-109710142D01*
X131492523Y-109633952D01*
X131530619Y-109595857D01*
X131606809Y-109557761D01*
X121230619Y-107189904D02*
X121383000Y-107189904D01*
X121459190Y-107228000D01*
X121497285Y-107266095D01*
X121573476Y-107380380D01*
X121611571Y-107532761D01*
X121611571Y-107837523D01*
X121573476Y-107913714D01*
X121535380Y-107951809D01*
X121459190Y-107989904D01*
X121306809Y-107989904D01*
X121230619Y-107951809D01*
X121192523Y-107913714D01*
X121154428Y-107837523D01*
X121154428Y-107647047D01*
X121192523Y-107570857D01*
X121230619Y-107532761D01*
X121306809Y-107494666D01*
X121459190Y-107494666D01*
X121535380Y-107532761D01*
X121573476Y-107570857D01*
X121611571Y-107647047D01*
X121660380Y-110114904D02*
X122117523Y-110114904D01*
X121888952Y-110114904D02*
X121888952Y-109314904D01*
X121965142Y-109429190D01*
X122041333Y-109505380D01*
X122117523Y-109543476D01*
X121355619Y-109391095D02*
X121317523Y-109353000D01*
X121241333Y-109314904D01*
X121050857Y-109314904D01*
X120974666Y-109353000D01*
X120936571Y-109391095D01*
X120898476Y-109467285D01*
X120898476Y-109543476D01*
X120936571Y-109657761D01*
X121393714Y-110114904D01*
X120898476Y-110114904D01*
X126585380Y-110039904D02*
X127042523Y-110039904D01*
X126813952Y-110039904D02*
X126813952Y-109239904D01*
X126890142Y-109354190D01*
X126966333Y-109430380D01*
X127042523Y-109468476D01*
X126090142Y-109239904D02*
X126013952Y-109239904D01*
X125937761Y-109278000D01*
X125899666Y-109316095D01*
X125861571Y-109392285D01*
X125823476Y-109544666D01*
X125823476Y-109735142D01*
X125861571Y-109887523D01*
X125899666Y-109963714D01*
X125937761Y-110001809D01*
X126013952Y-110039904D01*
X126090142Y-110039904D01*
X126166333Y-110001809D01*
X126204428Y-109963714D01*
X126242523Y-109887523D01*
X126280619Y-109735142D01*
X126280619Y-109544666D01*
X126242523Y-109392285D01*
X126204428Y-109316095D01*
X126166333Y-109278000D01*
X126090142Y-109239904D01*
X126242523Y-107164904D02*
X126623476Y-107164904D01*
X126661571Y-107545857D01*
X126623476Y-107507761D01*
X126547285Y-107469666D01*
X126356809Y-107469666D01*
X126280619Y-107507761D01*
X126242523Y-107545857D01*
X126204428Y-107622047D01*
X126204428Y-107812523D01*
X126242523Y-107888714D01*
X126280619Y-107926809D01*
X126356809Y-107964904D01*
X126547285Y-107964904D01*
X126623476Y-107926809D01*
X126661571Y-107888714D01*
X129360380Y-110014904D02*
X129208000Y-110014904D01*
X129131809Y-109976809D01*
X129093714Y-109938714D01*
X129017523Y-109824428D01*
X128979428Y-109672047D01*
X128979428Y-109367285D01*
X129017523Y-109291095D01*
X129055619Y-109253000D01*
X129131809Y-109214904D01*
X129284190Y-109214904D01*
X129360380Y-109253000D01*
X129398476Y-109291095D01*
X129436571Y-109367285D01*
X129436571Y-109557761D01*
X129398476Y-109633952D01*
X129360380Y-109672047D01*
X129284190Y-109710142D01*
X129131809Y-109710142D01*
X129055619Y-109672047D01*
X129017523Y-109633952D01*
X128979428Y-109557761D01*
X131799666Y-107139904D02*
X131304428Y-107139904D01*
X131571095Y-107444666D01*
X131456809Y-107444666D01*
X131380619Y-107482761D01*
X131342523Y-107520857D01*
X131304428Y-107597047D01*
X131304428Y-107787523D01*
X131342523Y-107863714D01*
X131380619Y-107901809D01*
X131456809Y-107939904D01*
X131685380Y-107939904D01*
X131761571Y-107901809D01*
X131799666Y-107863714D01*
%TO.C,K8*%
X74101666Y-67091264D02*
X73568333Y-67091264D01*
X73911190Y-67891264D01*
X76361190Y-67534121D02*
X76437380Y-67496026D01*
X76475476Y-67457931D01*
X76513571Y-67381740D01*
X76513571Y-67343645D01*
X76475476Y-67267455D01*
X76437380Y-67229360D01*
X76361190Y-67191264D01*
X76208809Y-67191264D01*
X76132619Y-67229360D01*
X76094523Y-67267455D01*
X76056428Y-67343645D01*
X76056428Y-67381740D01*
X76094523Y-67457931D01*
X76132619Y-67496026D01*
X76208809Y-67534121D01*
X76361190Y-67534121D01*
X76437380Y-67572217D01*
X76475476Y-67610312D01*
X76513571Y-67686502D01*
X76513571Y-67838883D01*
X76475476Y-67915074D01*
X76437380Y-67953169D01*
X76361190Y-67991264D01*
X76208809Y-67991264D01*
X76132619Y-67953169D01*
X76094523Y-67915074D01*
X76056428Y-67838883D01*
X76056428Y-67686502D01*
X76094523Y-67610312D01*
X76132619Y-67572217D01*
X76208809Y-67534121D01*
X78912380Y-67991264D02*
X78760000Y-67991264D01*
X78683809Y-67953169D01*
X78645714Y-67915074D01*
X78569523Y-67800788D01*
X78531428Y-67648407D01*
X78531428Y-67343645D01*
X78569523Y-67267455D01*
X78607619Y-67229360D01*
X78683809Y-67191264D01*
X78836190Y-67191264D01*
X78912380Y-67229360D01*
X78950476Y-67267455D01*
X78988571Y-67343645D01*
X78988571Y-67534121D01*
X78950476Y-67610312D01*
X78912380Y-67648407D01*
X78836190Y-67686502D01*
X78683809Y-67686502D01*
X78607619Y-67648407D01*
X78569523Y-67610312D01*
X78531428Y-67534121D01*
X81687380Y-67966264D02*
X82144523Y-67966264D01*
X81915952Y-67966264D02*
X81915952Y-67166264D01*
X81992142Y-67280550D01*
X82068333Y-67356740D01*
X82144523Y-67394836D01*
X81192142Y-67166264D02*
X81115952Y-67166264D01*
X81039761Y-67204360D01*
X81001666Y-67242455D01*
X80963571Y-67318645D01*
X80925476Y-67471026D01*
X80925476Y-67661502D01*
X80963571Y-67813883D01*
X81001666Y-67890074D01*
X81039761Y-67928169D01*
X81115952Y-67966264D01*
X81192142Y-67966264D01*
X81268333Y-67928169D01*
X81306428Y-67890074D01*
X81344523Y-67813883D01*
X81382619Y-67661502D01*
X81382619Y-67471026D01*
X81344523Y-67318645D01*
X81306428Y-67242455D01*
X81268333Y-67204360D01*
X81192142Y-67166264D01*
X86612380Y-67891264D02*
X87069523Y-67891264D01*
X86840952Y-67891264D02*
X86840952Y-67091264D01*
X86917142Y-67205550D01*
X86993333Y-67281740D01*
X87069523Y-67319836D01*
X86307619Y-67167455D02*
X86269523Y-67129360D01*
X86193333Y-67091264D01*
X86002857Y-67091264D01*
X85926666Y-67129360D01*
X85888571Y-67167455D01*
X85850476Y-67243645D01*
X85850476Y-67319836D01*
X85888571Y-67434121D01*
X86345714Y-67891264D01*
X85850476Y-67891264D01*
X86432619Y-69216264D02*
X86585000Y-69216264D01*
X86661190Y-69254360D01*
X86699285Y-69292455D01*
X86775476Y-69406740D01*
X86813571Y-69559121D01*
X86813571Y-69863883D01*
X86775476Y-69940074D01*
X86737380Y-69978169D01*
X86661190Y-70016264D01*
X86508809Y-70016264D01*
X86432619Y-69978169D01*
X86394523Y-69940074D01*
X86356428Y-69863883D01*
X86356428Y-69673407D01*
X86394523Y-69597217D01*
X86432619Y-69559121D01*
X86508809Y-69521026D01*
X86661190Y-69521026D01*
X86737380Y-69559121D01*
X86775476Y-69597217D01*
X86813571Y-69673407D01*
X81344523Y-69241264D02*
X81725476Y-69241264D01*
X81763571Y-69622217D01*
X81725476Y-69584121D01*
X81649285Y-69546026D01*
X81458809Y-69546026D01*
X81382619Y-69584121D01*
X81344523Y-69622217D01*
X81306428Y-69698407D01*
X81306428Y-69888883D01*
X81344523Y-69965074D01*
X81382619Y-70003169D01*
X81458809Y-70041264D01*
X81649285Y-70041264D01*
X81725476Y-70003169D01*
X81763571Y-69965074D01*
X78782619Y-69482931D02*
X78782619Y-70016264D01*
X78973095Y-69178169D02*
X79163571Y-69749598D01*
X78668333Y-69749598D01*
X76701666Y-69266264D02*
X76206428Y-69266264D01*
X76473095Y-69571026D01*
X76358809Y-69571026D01*
X76282619Y-69609121D01*
X76244523Y-69647217D01*
X76206428Y-69723407D01*
X76206428Y-69913883D01*
X76244523Y-69990074D01*
X76282619Y-70028169D01*
X76358809Y-70066264D01*
X76587380Y-70066264D01*
X76663571Y-70028169D01*
X76701666Y-69990074D01*
X73531428Y-70016264D02*
X73988571Y-70016264D01*
X73760000Y-70016264D02*
X73760000Y-69216264D01*
X73836190Y-69330550D01*
X73912380Y-69406740D01*
X73988571Y-69444836D01*
X78782619Y-69482931D02*
X78782619Y-70016264D01*
X78973095Y-69178169D02*
X79163571Y-69749598D01*
X78668333Y-69749598D01*
X73531428Y-70016264D02*
X73988571Y-70016264D01*
X73760000Y-70016264D02*
X73760000Y-69216264D01*
X73836190Y-69330550D01*
X73912380Y-69406740D01*
X73988571Y-69444836D01*
X74101666Y-67091264D02*
X73568333Y-67091264D01*
X73911190Y-67891264D01*
X76361190Y-67534121D02*
X76437380Y-67496026D01*
X76475476Y-67457931D01*
X76513571Y-67381740D01*
X76513571Y-67343645D01*
X76475476Y-67267455D01*
X76437380Y-67229360D01*
X76361190Y-67191264D01*
X76208809Y-67191264D01*
X76132619Y-67229360D01*
X76094523Y-67267455D01*
X76056428Y-67343645D01*
X76056428Y-67381740D01*
X76094523Y-67457931D01*
X76132619Y-67496026D01*
X76208809Y-67534121D01*
X76361190Y-67534121D01*
X76437380Y-67572217D01*
X76475476Y-67610312D01*
X76513571Y-67686502D01*
X76513571Y-67838883D01*
X76475476Y-67915074D01*
X76437380Y-67953169D01*
X76361190Y-67991264D01*
X76208809Y-67991264D01*
X76132619Y-67953169D01*
X76094523Y-67915074D01*
X76056428Y-67838883D01*
X76056428Y-67686502D01*
X76094523Y-67610312D01*
X76132619Y-67572217D01*
X76208809Y-67534121D01*
X86432619Y-69216264D02*
X86585000Y-69216264D01*
X86661190Y-69254360D01*
X86699285Y-69292455D01*
X86775476Y-69406740D01*
X86813571Y-69559121D01*
X86813571Y-69863883D01*
X86775476Y-69940074D01*
X86737380Y-69978169D01*
X86661190Y-70016264D01*
X86508809Y-70016264D01*
X86432619Y-69978169D01*
X86394523Y-69940074D01*
X86356428Y-69863883D01*
X86356428Y-69673407D01*
X86394523Y-69597217D01*
X86432619Y-69559121D01*
X86508809Y-69521026D01*
X86661190Y-69521026D01*
X86737380Y-69559121D01*
X86775476Y-69597217D01*
X86813571Y-69673407D01*
X86612380Y-67891264D02*
X87069523Y-67891264D01*
X86840952Y-67891264D02*
X86840952Y-67091264D01*
X86917142Y-67205550D01*
X86993333Y-67281740D01*
X87069523Y-67319836D01*
X86307619Y-67167455D02*
X86269523Y-67129360D01*
X86193333Y-67091264D01*
X86002857Y-67091264D01*
X85926666Y-67129360D01*
X85888571Y-67167455D01*
X85850476Y-67243645D01*
X85850476Y-67319836D01*
X85888571Y-67434121D01*
X86345714Y-67891264D01*
X85850476Y-67891264D01*
X81687380Y-67966264D02*
X82144523Y-67966264D01*
X81915952Y-67966264D02*
X81915952Y-67166264D01*
X81992142Y-67280550D01*
X82068333Y-67356740D01*
X82144523Y-67394836D01*
X81192142Y-67166264D02*
X81115952Y-67166264D01*
X81039761Y-67204360D01*
X81001666Y-67242455D01*
X80963571Y-67318645D01*
X80925476Y-67471026D01*
X80925476Y-67661502D01*
X80963571Y-67813883D01*
X81001666Y-67890074D01*
X81039761Y-67928169D01*
X81115952Y-67966264D01*
X81192142Y-67966264D01*
X81268333Y-67928169D01*
X81306428Y-67890074D01*
X81344523Y-67813883D01*
X81382619Y-67661502D01*
X81382619Y-67471026D01*
X81344523Y-67318645D01*
X81306428Y-67242455D01*
X81268333Y-67204360D01*
X81192142Y-67166264D01*
X81344523Y-69241264D02*
X81725476Y-69241264D01*
X81763571Y-69622217D01*
X81725476Y-69584121D01*
X81649285Y-69546026D01*
X81458809Y-69546026D01*
X81382619Y-69584121D01*
X81344523Y-69622217D01*
X81306428Y-69698407D01*
X81306428Y-69888883D01*
X81344523Y-69965074D01*
X81382619Y-70003169D01*
X81458809Y-70041264D01*
X81649285Y-70041264D01*
X81725476Y-70003169D01*
X81763571Y-69965074D01*
X78912380Y-67991264D02*
X78760000Y-67991264D01*
X78683809Y-67953169D01*
X78645714Y-67915074D01*
X78569523Y-67800788D01*
X78531428Y-67648407D01*
X78531428Y-67343645D01*
X78569523Y-67267455D01*
X78607619Y-67229360D01*
X78683809Y-67191264D01*
X78836190Y-67191264D01*
X78912380Y-67229360D01*
X78950476Y-67267455D01*
X78988571Y-67343645D01*
X78988571Y-67534121D01*
X78950476Y-67610312D01*
X78912380Y-67648407D01*
X78836190Y-67686502D01*
X78683809Y-67686502D01*
X78607619Y-67648407D01*
X78569523Y-67610312D01*
X78531428Y-67534121D01*
X76701666Y-69266264D02*
X76206428Y-69266264D01*
X76473095Y-69571026D01*
X76358809Y-69571026D01*
X76282619Y-69609121D01*
X76244523Y-69647217D01*
X76206428Y-69723407D01*
X76206428Y-69913883D01*
X76244523Y-69990074D01*
X76282619Y-70028169D01*
X76358809Y-70066264D01*
X76587380Y-70066264D01*
X76663571Y-70028169D01*
X76701666Y-69990074D01*
%TO.C,K7*%
X161121666Y-127636904D02*
X160588333Y-127636904D01*
X160931190Y-128436904D01*
X163381190Y-128079761D02*
X163457380Y-128041666D01*
X163495476Y-128003571D01*
X163533571Y-127927380D01*
X163533571Y-127889285D01*
X163495476Y-127813095D01*
X163457380Y-127775000D01*
X163381190Y-127736904D01*
X163228809Y-127736904D01*
X163152619Y-127775000D01*
X163114523Y-127813095D01*
X163076428Y-127889285D01*
X163076428Y-127927380D01*
X163114523Y-128003571D01*
X163152619Y-128041666D01*
X163228809Y-128079761D01*
X163381190Y-128079761D01*
X163457380Y-128117857D01*
X163495476Y-128155952D01*
X163533571Y-128232142D01*
X163533571Y-128384523D01*
X163495476Y-128460714D01*
X163457380Y-128498809D01*
X163381190Y-128536904D01*
X163228809Y-128536904D01*
X163152619Y-128498809D01*
X163114523Y-128460714D01*
X163076428Y-128384523D01*
X163076428Y-128232142D01*
X163114523Y-128155952D01*
X163152619Y-128117857D01*
X163228809Y-128079761D01*
X165932380Y-128536904D02*
X165780000Y-128536904D01*
X165703809Y-128498809D01*
X165665714Y-128460714D01*
X165589523Y-128346428D01*
X165551428Y-128194047D01*
X165551428Y-127889285D01*
X165589523Y-127813095D01*
X165627619Y-127775000D01*
X165703809Y-127736904D01*
X165856190Y-127736904D01*
X165932380Y-127775000D01*
X165970476Y-127813095D01*
X166008571Y-127889285D01*
X166008571Y-128079761D01*
X165970476Y-128155952D01*
X165932380Y-128194047D01*
X165856190Y-128232142D01*
X165703809Y-128232142D01*
X165627619Y-128194047D01*
X165589523Y-128155952D01*
X165551428Y-128079761D01*
X168707380Y-128511904D02*
X169164523Y-128511904D01*
X168935952Y-128511904D02*
X168935952Y-127711904D01*
X169012142Y-127826190D01*
X169088333Y-127902380D01*
X169164523Y-127940476D01*
X168212142Y-127711904D02*
X168135952Y-127711904D01*
X168059761Y-127750000D01*
X168021666Y-127788095D01*
X167983571Y-127864285D01*
X167945476Y-128016666D01*
X167945476Y-128207142D01*
X167983571Y-128359523D01*
X168021666Y-128435714D01*
X168059761Y-128473809D01*
X168135952Y-128511904D01*
X168212142Y-128511904D01*
X168288333Y-128473809D01*
X168326428Y-128435714D01*
X168364523Y-128359523D01*
X168402619Y-128207142D01*
X168402619Y-128016666D01*
X168364523Y-127864285D01*
X168326428Y-127788095D01*
X168288333Y-127750000D01*
X168212142Y-127711904D01*
X173632380Y-128436904D02*
X174089523Y-128436904D01*
X173860952Y-128436904D02*
X173860952Y-127636904D01*
X173937142Y-127751190D01*
X174013333Y-127827380D01*
X174089523Y-127865476D01*
X173327619Y-127713095D02*
X173289523Y-127675000D01*
X173213333Y-127636904D01*
X173022857Y-127636904D01*
X172946666Y-127675000D01*
X172908571Y-127713095D01*
X172870476Y-127789285D01*
X172870476Y-127865476D01*
X172908571Y-127979761D01*
X173365714Y-128436904D01*
X172870476Y-128436904D01*
X173452619Y-129761904D02*
X173605000Y-129761904D01*
X173681190Y-129800000D01*
X173719285Y-129838095D01*
X173795476Y-129952380D01*
X173833571Y-130104761D01*
X173833571Y-130409523D01*
X173795476Y-130485714D01*
X173757380Y-130523809D01*
X173681190Y-130561904D01*
X173528809Y-130561904D01*
X173452619Y-130523809D01*
X173414523Y-130485714D01*
X173376428Y-130409523D01*
X173376428Y-130219047D01*
X173414523Y-130142857D01*
X173452619Y-130104761D01*
X173528809Y-130066666D01*
X173681190Y-130066666D01*
X173757380Y-130104761D01*
X173795476Y-130142857D01*
X173833571Y-130219047D01*
X168364523Y-129786904D02*
X168745476Y-129786904D01*
X168783571Y-130167857D01*
X168745476Y-130129761D01*
X168669285Y-130091666D01*
X168478809Y-130091666D01*
X168402619Y-130129761D01*
X168364523Y-130167857D01*
X168326428Y-130244047D01*
X168326428Y-130434523D01*
X168364523Y-130510714D01*
X168402619Y-130548809D01*
X168478809Y-130586904D01*
X168669285Y-130586904D01*
X168745476Y-130548809D01*
X168783571Y-130510714D01*
X165802619Y-130028571D02*
X165802619Y-130561904D01*
X165993095Y-129723809D02*
X166183571Y-130295238D01*
X165688333Y-130295238D01*
X163721666Y-129811904D02*
X163226428Y-129811904D01*
X163493095Y-130116666D01*
X163378809Y-130116666D01*
X163302619Y-130154761D01*
X163264523Y-130192857D01*
X163226428Y-130269047D01*
X163226428Y-130459523D01*
X163264523Y-130535714D01*
X163302619Y-130573809D01*
X163378809Y-130611904D01*
X163607380Y-130611904D01*
X163683571Y-130573809D01*
X163721666Y-130535714D01*
X160551428Y-130561904D02*
X161008571Y-130561904D01*
X160780000Y-130561904D02*
X160780000Y-129761904D01*
X160856190Y-129876190D01*
X160932380Y-129952380D01*
X161008571Y-129990476D01*
X165802619Y-130028571D02*
X165802619Y-130561904D01*
X165993095Y-129723809D02*
X166183571Y-130295238D01*
X165688333Y-130295238D01*
X160551428Y-130561904D02*
X161008571Y-130561904D01*
X160780000Y-130561904D02*
X160780000Y-129761904D01*
X160856190Y-129876190D01*
X160932380Y-129952380D01*
X161008571Y-129990476D01*
X161121666Y-127636904D02*
X160588333Y-127636904D01*
X160931190Y-128436904D01*
X163381190Y-128079761D02*
X163457380Y-128041666D01*
X163495476Y-128003571D01*
X163533571Y-127927380D01*
X163533571Y-127889285D01*
X163495476Y-127813095D01*
X163457380Y-127775000D01*
X163381190Y-127736904D01*
X163228809Y-127736904D01*
X163152619Y-127775000D01*
X163114523Y-127813095D01*
X163076428Y-127889285D01*
X163076428Y-127927380D01*
X163114523Y-128003571D01*
X163152619Y-128041666D01*
X163228809Y-128079761D01*
X163381190Y-128079761D01*
X163457380Y-128117857D01*
X163495476Y-128155952D01*
X163533571Y-128232142D01*
X163533571Y-128384523D01*
X163495476Y-128460714D01*
X163457380Y-128498809D01*
X163381190Y-128536904D01*
X163228809Y-128536904D01*
X163152619Y-128498809D01*
X163114523Y-128460714D01*
X163076428Y-128384523D01*
X163076428Y-128232142D01*
X163114523Y-128155952D01*
X163152619Y-128117857D01*
X163228809Y-128079761D01*
X173452619Y-129761904D02*
X173605000Y-129761904D01*
X173681190Y-129800000D01*
X173719285Y-129838095D01*
X173795476Y-129952380D01*
X173833571Y-130104761D01*
X173833571Y-130409523D01*
X173795476Y-130485714D01*
X173757380Y-130523809D01*
X173681190Y-130561904D01*
X173528809Y-130561904D01*
X173452619Y-130523809D01*
X173414523Y-130485714D01*
X173376428Y-130409523D01*
X173376428Y-130219047D01*
X173414523Y-130142857D01*
X173452619Y-130104761D01*
X173528809Y-130066666D01*
X173681190Y-130066666D01*
X173757380Y-130104761D01*
X173795476Y-130142857D01*
X173833571Y-130219047D01*
X173632380Y-128436904D02*
X174089523Y-128436904D01*
X173860952Y-128436904D02*
X173860952Y-127636904D01*
X173937142Y-127751190D01*
X174013333Y-127827380D01*
X174089523Y-127865476D01*
X173327619Y-127713095D02*
X173289523Y-127675000D01*
X173213333Y-127636904D01*
X173022857Y-127636904D01*
X172946666Y-127675000D01*
X172908571Y-127713095D01*
X172870476Y-127789285D01*
X172870476Y-127865476D01*
X172908571Y-127979761D01*
X173365714Y-128436904D01*
X172870476Y-128436904D01*
X168707380Y-128511904D02*
X169164523Y-128511904D01*
X168935952Y-128511904D02*
X168935952Y-127711904D01*
X169012142Y-127826190D01*
X169088333Y-127902380D01*
X169164523Y-127940476D01*
X168212142Y-127711904D02*
X168135952Y-127711904D01*
X168059761Y-127750000D01*
X168021666Y-127788095D01*
X167983571Y-127864285D01*
X167945476Y-128016666D01*
X167945476Y-128207142D01*
X167983571Y-128359523D01*
X168021666Y-128435714D01*
X168059761Y-128473809D01*
X168135952Y-128511904D01*
X168212142Y-128511904D01*
X168288333Y-128473809D01*
X168326428Y-128435714D01*
X168364523Y-128359523D01*
X168402619Y-128207142D01*
X168402619Y-128016666D01*
X168364523Y-127864285D01*
X168326428Y-127788095D01*
X168288333Y-127750000D01*
X168212142Y-127711904D01*
X168364523Y-129786904D02*
X168745476Y-129786904D01*
X168783571Y-130167857D01*
X168745476Y-130129761D01*
X168669285Y-130091666D01*
X168478809Y-130091666D01*
X168402619Y-130129761D01*
X168364523Y-130167857D01*
X168326428Y-130244047D01*
X168326428Y-130434523D01*
X168364523Y-130510714D01*
X168402619Y-130548809D01*
X168478809Y-130586904D01*
X168669285Y-130586904D01*
X168745476Y-130548809D01*
X168783571Y-130510714D01*
X165932380Y-128536904D02*
X165780000Y-128536904D01*
X165703809Y-128498809D01*
X165665714Y-128460714D01*
X165589523Y-128346428D01*
X165551428Y-128194047D01*
X165551428Y-127889285D01*
X165589523Y-127813095D01*
X165627619Y-127775000D01*
X165703809Y-127736904D01*
X165856190Y-127736904D01*
X165932380Y-127775000D01*
X165970476Y-127813095D01*
X166008571Y-127889285D01*
X166008571Y-128079761D01*
X165970476Y-128155952D01*
X165932380Y-128194047D01*
X165856190Y-128232142D01*
X165703809Y-128232142D01*
X165627619Y-128194047D01*
X165589523Y-128155952D01*
X165551428Y-128079761D01*
X163721666Y-129811904D02*
X163226428Y-129811904D01*
X163493095Y-130116666D01*
X163378809Y-130116666D01*
X163302619Y-130154761D01*
X163264523Y-130192857D01*
X163226428Y-130269047D01*
X163226428Y-130459523D01*
X163264523Y-130535714D01*
X163302619Y-130573809D01*
X163378809Y-130611904D01*
X163607380Y-130611904D01*
X163683571Y-130573809D01*
X163721666Y-130535714D01*
%TO.C,K6*%
X48861666Y-126898904D02*
X48328333Y-126898904D01*
X48671190Y-127698904D01*
X51121190Y-127341761D02*
X51197380Y-127303666D01*
X51235476Y-127265571D01*
X51273571Y-127189380D01*
X51273571Y-127151285D01*
X51235476Y-127075095D01*
X51197380Y-127037000D01*
X51121190Y-126998904D01*
X50968809Y-126998904D01*
X50892619Y-127037000D01*
X50854523Y-127075095D01*
X50816428Y-127151285D01*
X50816428Y-127189380D01*
X50854523Y-127265571D01*
X50892619Y-127303666D01*
X50968809Y-127341761D01*
X51121190Y-127341761D01*
X51197380Y-127379857D01*
X51235476Y-127417952D01*
X51273571Y-127494142D01*
X51273571Y-127646523D01*
X51235476Y-127722714D01*
X51197380Y-127760809D01*
X51121190Y-127798904D01*
X50968809Y-127798904D01*
X50892619Y-127760809D01*
X50854523Y-127722714D01*
X50816428Y-127646523D01*
X50816428Y-127494142D01*
X50854523Y-127417952D01*
X50892619Y-127379857D01*
X50968809Y-127341761D01*
X53672380Y-127798904D02*
X53520000Y-127798904D01*
X53443809Y-127760809D01*
X53405714Y-127722714D01*
X53329523Y-127608428D01*
X53291428Y-127456047D01*
X53291428Y-127151285D01*
X53329523Y-127075095D01*
X53367619Y-127037000D01*
X53443809Y-126998904D01*
X53596190Y-126998904D01*
X53672380Y-127037000D01*
X53710476Y-127075095D01*
X53748571Y-127151285D01*
X53748571Y-127341761D01*
X53710476Y-127417952D01*
X53672380Y-127456047D01*
X53596190Y-127494142D01*
X53443809Y-127494142D01*
X53367619Y-127456047D01*
X53329523Y-127417952D01*
X53291428Y-127341761D01*
X56447380Y-127773904D02*
X56904523Y-127773904D01*
X56675952Y-127773904D02*
X56675952Y-126973904D01*
X56752142Y-127088190D01*
X56828333Y-127164380D01*
X56904523Y-127202476D01*
X55952142Y-126973904D02*
X55875952Y-126973904D01*
X55799761Y-127012000D01*
X55761666Y-127050095D01*
X55723571Y-127126285D01*
X55685476Y-127278666D01*
X55685476Y-127469142D01*
X55723571Y-127621523D01*
X55761666Y-127697714D01*
X55799761Y-127735809D01*
X55875952Y-127773904D01*
X55952142Y-127773904D01*
X56028333Y-127735809D01*
X56066428Y-127697714D01*
X56104523Y-127621523D01*
X56142619Y-127469142D01*
X56142619Y-127278666D01*
X56104523Y-127126285D01*
X56066428Y-127050095D01*
X56028333Y-127012000D01*
X55952142Y-126973904D01*
X61372380Y-127698904D02*
X61829523Y-127698904D01*
X61600952Y-127698904D02*
X61600952Y-126898904D01*
X61677142Y-127013190D01*
X61753333Y-127089380D01*
X61829523Y-127127476D01*
X61067619Y-126975095D02*
X61029523Y-126937000D01*
X60953333Y-126898904D01*
X60762857Y-126898904D01*
X60686666Y-126937000D01*
X60648571Y-126975095D01*
X60610476Y-127051285D01*
X60610476Y-127127476D01*
X60648571Y-127241761D01*
X61105714Y-127698904D01*
X60610476Y-127698904D01*
X61192619Y-129023904D02*
X61345000Y-129023904D01*
X61421190Y-129062000D01*
X61459285Y-129100095D01*
X61535476Y-129214380D01*
X61573571Y-129366761D01*
X61573571Y-129671523D01*
X61535476Y-129747714D01*
X61497380Y-129785809D01*
X61421190Y-129823904D01*
X61268809Y-129823904D01*
X61192619Y-129785809D01*
X61154523Y-129747714D01*
X61116428Y-129671523D01*
X61116428Y-129481047D01*
X61154523Y-129404857D01*
X61192619Y-129366761D01*
X61268809Y-129328666D01*
X61421190Y-129328666D01*
X61497380Y-129366761D01*
X61535476Y-129404857D01*
X61573571Y-129481047D01*
X56104523Y-129048904D02*
X56485476Y-129048904D01*
X56523571Y-129429857D01*
X56485476Y-129391761D01*
X56409285Y-129353666D01*
X56218809Y-129353666D01*
X56142619Y-129391761D01*
X56104523Y-129429857D01*
X56066428Y-129506047D01*
X56066428Y-129696523D01*
X56104523Y-129772714D01*
X56142619Y-129810809D01*
X56218809Y-129848904D01*
X56409285Y-129848904D01*
X56485476Y-129810809D01*
X56523571Y-129772714D01*
X53542619Y-129290571D02*
X53542619Y-129823904D01*
X53733095Y-128985809D02*
X53923571Y-129557238D01*
X53428333Y-129557238D01*
X51461666Y-129073904D02*
X50966428Y-129073904D01*
X51233095Y-129378666D01*
X51118809Y-129378666D01*
X51042619Y-129416761D01*
X51004523Y-129454857D01*
X50966428Y-129531047D01*
X50966428Y-129721523D01*
X51004523Y-129797714D01*
X51042619Y-129835809D01*
X51118809Y-129873904D01*
X51347380Y-129873904D01*
X51423571Y-129835809D01*
X51461666Y-129797714D01*
X48291428Y-129823904D02*
X48748571Y-129823904D01*
X48520000Y-129823904D02*
X48520000Y-129023904D01*
X48596190Y-129138190D01*
X48672380Y-129214380D01*
X48748571Y-129252476D01*
X53542619Y-129290571D02*
X53542619Y-129823904D01*
X53733095Y-128985809D02*
X53923571Y-129557238D01*
X53428333Y-129557238D01*
X48291428Y-129823904D02*
X48748571Y-129823904D01*
X48520000Y-129823904D02*
X48520000Y-129023904D01*
X48596190Y-129138190D01*
X48672380Y-129214380D01*
X48748571Y-129252476D01*
X48861666Y-126898904D02*
X48328333Y-126898904D01*
X48671190Y-127698904D01*
X51121190Y-127341761D02*
X51197380Y-127303666D01*
X51235476Y-127265571D01*
X51273571Y-127189380D01*
X51273571Y-127151285D01*
X51235476Y-127075095D01*
X51197380Y-127037000D01*
X51121190Y-126998904D01*
X50968809Y-126998904D01*
X50892619Y-127037000D01*
X50854523Y-127075095D01*
X50816428Y-127151285D01*
X50816428Y-127189380D01*
X50854523Y-127265571D01*
X50892619Y-127303666D01*
X50968809Y-127341761D01*
X51121190Y-127341761D01*
X51197380Y-127379857D01*
X51235476Y-127417952D01*
X51273571Y-127494142D01*
X51273571Y-127646523D01*
X51235476Y-127722714D01*
X51197380Y-127760809D01*
X51121190Y-127798904D01*
X50968809Y-127798904D01*
X50892619Y-127760809D01*
X50854523Y-127722714D01*
X50816428Y-127646523D01*
X50816428Y-127494142D01*
X50854523Y-127417952D01*
X50892619Y-127379857D01*
X50968809Y-127341761D01*
X61192619Y-129023904D02*
X61345000Y-129023904D01*
X61421190Y-129062000D01*
X61459285Y-129100095D01*
X61535476Y-129214380D01*
X61573571Y-129366761D01*
X61573571Y-129671523D01*
X61535476Y-129747714D01*
X61497380Y-129785809D01*
X61421190Y-129823904D01*
X61268809Y-129823904D01*
X61192619Y-129785809D01*
X61154523Y-129747714D01*
X61116428Y-129671523D01*
X61116428Y-129481047D01*
X61154523Y-129404857D01*
X61192619Y-129366761D01*
X61268809Y-129328666D01*
X61421190Y-129328666D01*
X61497380Y-129366761D01*
X61535476Y-129404857D01*
X61573571Y-129481047D01*
X61372380Y-127698904D02*
X61829523Y-127698904D01*
X61600952Y-127698904D02*
X61600952Y-126898904D01*
X61677142Y-127013190D01*
X61753333Y-127089380D01*
X61829523Y-127127476D01*
X61067619Y-126975095D02*
X61029523Y-126937000D01*
X60953333Y-126898904D01*
X60762857Y-126898904D01*
X60686666Y-126937000D01*
X60648571Y-126975095D01*
X60610476Y-127051285D01*
X60610476Y-127127476D01*
X60648571Y-127241761D01*
X61105714Y-127698904D01*
X60610476Y-127698904D01*
X56447380Y-127773904D02*
X56904523Y-127773904D01*
X56675952Y-127773904D02*
X56675952Y-126973904D01*
X56752142Y-127088190D01*
X56828333Y-127164380D01*
X56904523Y-127202476D01*
X55952142Y-126973904D02*
X55875952Y-126973904D01*
X55799761Y-127012000D01*
X55761666Y-127050095D01*
X55723571Y-127126285D01*
X55685476Y-127278666D01*
X55685476Y-127469142D01*
X55723571Y-127621523D01*
X55761666Y-127697714D01*
X55799761Y-127735809D01*
X55875952Y-127773904D01*
X55952142Y-127773904D01*
X56028333Y-127735809D01*
X56066428Y-127697714D01*
X56104523Y-127621523D01*
X56142619Y-127469142D01*
X56142619Y-127278666D01*
X56104523Y-127126285D01*
X56066428Y-127050095D01*
X56028333Y-127012000D01*
X55952142Y-126973904D01*
X56104523Y-129048904D02*
X56485476Y-129048904D01*
X56523571Y-129429857D01*
X56485476Y-129391761D01*
X56409285Y-129353666D01*
X56218809Y-129353666D01*
X56142619Y-129391761D01*
X56104523Y-129429857D01*
X56066428Y-129506047D01*
X56066428Y-129696523D01*
X56104523Y-129772714D01*
X56142619Y-129810809D01*
X56218809Y-129848904D01*
X56409285Y-129848904D01*
X56485476Y-129810809D01*
X56523571Y-129772714D01*
X53672380Y-127798904D02*
X53520000Y-127798904D01*
X53443809Y-127760809D01*
X53405714Y-127722714D01*
X53329523Y-127608428D01*
X53291428Y-127456047D01*
X53291428Y-127151285D01*
X53329523Y-127075095D01*
X53367619Y-127037000D01*
X53443809Y-126998904D01*
X53596190Y-126998904D01*
X53672380Y-127037000D01*
X53710476Y-127075095D01*
X53748571Y-127151285D01*
X53748571Y-127341761D01*
X53710476Y-127417952D01*
X53672380Y-127456047D01*
X53596190Y-127494142D01*
X53443809Y-127494142D01*
X53367619Y-127456047D01*
X53329523Y-127417952D01*
X53291428Y-127341761D01*
X51461666Y-129073904D02*
X50966428Y-129073904D01*
X51233095Y-129378666D01*
X51118809Y-129378666D01*
X51042619Y-129416761D01*
X51004523Y-129454857D01*
X50966428Y-129531047D01*
X50966428Y-129721523D01*
X51004523Y-129797714D01*
X51042619Y-129835809D01*
X51118809Y-129873904D01*
X51347380Y-129873904D01*
X51423571Y-129835809D01*
X51461666Y-129797714D01*
%TO.C,K5*%
X72191666Y-126786904D02*
X71658333Y-126786904D01*
X72001190Y-127586904D01*
X74451190Y-127229761D02*
X74527380Y-127191666D01*
X74565476Y-127153571D01*
X74603571Y-127077380D01*
X74603571Y-127039285D01*
X74565476Y-126963095D01*
X74527380Y-126925000D01*
X74451190Y-126886904D01*
X74298809Y-126886904D01*
X74222619Y-126925000D01*
X74184523Y-126963095D01*
X74146428Y-127039285D01*
X74146428Y-127077380D01*
X74184523Y-127153571D01*
X74222619Y-127191666D01*
X74298809Y-127229761D01*
X74451190Y-127229761D01*
X74527380Y-127267857D01*
X74565476Y-127305952D01*
X74603571Y-127382142D01*
X74603571Y-127534523D01*
X74565476Y-127610714D01*
X74527380Y-127648809D01*
X74451190Y-127686904D01*
X74298809Y-127686904D01*
X74222619Y-127648809D01*
X74184523Y-127610714D01*
X74146428Y-127534523D01*
X74146428Y-127382142D01*
X74184523Y-127305952D01*
X74222619Y-127267857D01*
X74298809Y-127229761D01*
X77002380Y-127686904D02*
X76850000Y-127686904D01*
X76773809Y-127648809D01*
X76735714Y-127610714D01*
X76659523Y-127496428D01*
X76621428Y-127344047D01*
X76621428Y-127039285D01*
X76659523Y-126963095D01*
X76697619Y-126925000D01*
X76773809Y-126886904D01*
X76926190Y-126886904D01*
X77002380Y-126925000D01*
X77040476Y-126963095D01*
X77078571Y-127039285D01*
X77078571Y-127229761D01*
X77040476Y-127305952D01*
X77002380Y-127344047D01*
X76926190Y-127382142D01*
X76773809Y-127382142D01*
X76697619Y-127344047D01*
X76659523Y-127305952D01*
X76621428Y-127229761D01*
X79777380Y-127661904D02*
X80234523Y-127661904D01*
X80005952Y-127661904D02*
X80005952Y-126861904D01*
X80082142Y-126976190D01*
X80158333Y-127052380D01*
X80234523Y-127090476D01*
X79282142Y-126861904D02*
X79205952Y-126861904D01*
X79129761Y-126900000D01*
X79091666Y-126938095D01*
X79053571Y-127014285D01*
X79015476Y-127166666D01*
X79015476Y-127357142D01*
X79053571Y-127509523D01*
X79091666Y-127585714D01*
X79129761Y-127623809D01*
X79205952Y-127661904D01*
X79282142Y-127661904D01*
X79358333Y-127623809D01*
X79396428Y-127585714D01*
X79434523Y-127509523D01*
X79472619Y-127357142D01*
X79472619Y-127166666D01*
X79434523Y-127014285D01*
X79396428Y-126938095D01*
X79358333Y-126900000D01*
X79282142Y-126861904D01*
X84702380Y-127586904D02*
X85159523Y-127586904D01*
X84930952Y-127586904D02*
X84930952Y-126786904D01*
X85007142Y-126901190D01*
X85083333Y-126977380D01*
X85159523Y-127015476D01*
X84397619Y-126863095D02*
X84359523Y-126825000D01*
X84283333Y-126786904D01*
X84092857Y-126786904D01*
X84016666Y-126825000D01*
X83978571Y-126863095D01*
X83940476Y-126939285D01*
X83940476Y-127015476D01*
X83978571Y-127129761D01*
X84435714Y-127586904D01*
X83940476Y-127586904D01*
X84522619Y-128911904D02*
X84675000Y-128911904D01*
X84751190Y-128950000D01*
X84789285Y-128988095D01*
X84865476Y-129102380D01*
X84903571Y-129254761D01*
X84903571Y-129559523D01*
X84865476Y-129635714D01*
X84827380Y-129673809D01*
X84751190Y-129711904D01*
X84598809Y-129711904D01*
X84522619Y-129673809D01*
X84484523Y-129635714D01*
X84446428Y-129559523D01*
X84446428Y-129369047D01*
X84484523Y-129292857D01*
X84522619Y-129254761D01*
X84598809Y-129216666D01*
X84751190Y-129216666D01*
X84827380Y-129254761D01*
X84865476Y-129292857D01*
X84903571Y-129369047D01*
X79434523Y-128936904D02*
X79815476Y-128936904D01*
X79853571Y-129317857D01*
X79815476Y-129279761D01*
X79739285Y-129241666D01*
X79548809Y-129241666D01*
X79472619Y-129279761D01*
X79434523Y-129317857D01*
X79396428Y-129394047D01*
X79396428Y-129584523D01*
X79434523Y-129660714D01*
X79472619Y-129698809D01*
X79548809Y-129736904D01*
X79739285Y-129736904D01*
X79815476Y-129698809D01*
X79853571Y-129660714D01*
X76872619Y-129178571D02*
X76872619Y-129711904D01*
X77063095Y-128873809D02*
X77253571Y-129445238D01*
X76758333Y-129445238D01*
X74791666Y-128961904D02*
X74296428Y-128961904D01*
X74563095Y-129266666D01*
X74448809Y-129266666D01*
X74372619Y-129304761D01*
X74334523Y-129342857D01*
X74296428Y-129419047D01*
X74296428Y-129609523D01*
X74334523Y-129685714D01*
X74372619Y-129723809D01*
X74448809Y-129761904D01*
X74677380Y-129761904D01*
X74753571Y-129723809D01*
X74791666Y-129685714D01*
X71621428Y-129711904D02*
X72078571Y-129711904D01*
X71850000Y-129711904D02*
X71850000Y-128911904D01*
X71926190Y-129026190D01*
X72002380Y-129102380D01*
X72078571Y-129140476D01*
X76872619Y-129178571D02*
X76872619Y-129711904D01*
X77063095Y-128873809D02*
X77253571Y-129445238D01*
X76758333Y-129445238D01*
X71621428Y-129711904D02*
X72078571Y-129711904D01*
X71850000Y-129711904D02*
X71850000Y-128911904D01*
X71926190Y-129026190D01*
X72002380Y-129102380D01*
X72078571Y-129140476D01*
X72191666Y-126786904D02*
X71658333Y-126786904D01*
X72001190Y-127586904D01*
X74451190Y-127229761D02*
X74527380Y-127191666D01*
X74565476Y-127153571D01*
X74603571Y-127077380D01*
X74603571Y-127039285D01*
X74565476Y-126963095D01*
X74527380Y-126925000D01*
X74451190Y-126886904D01*
X74298809Y-126886904D01*
X74222619Y-126925000D01*
X74184523Y-126963095D01*
X74146428Y-127039285D01*
X74146428Y-127077380D01*
X74184523Y-127153571D01*
X74222619Y-127191666D01*
X74298809Y-127229761D01*
X74451190Y-127229761D01*
X74527380Y-127267857D01*
X74565476Y-127305952D01*
X74603571Y-127382142D01*
X74603571Y-127534523D01*
X74565476Y-127610714D01*
X74527380Y-127648809D01*
X74451190Y-127686904D01*
X74298809Y-127686904D01*
X74222619Y-127648809D01*
X74184523Y-127610714D01*
X74146428Y-127534523D01*
X74146428Y-127382142D01*
X74184523Y-127305952D01*
X74222619Y-127267857D01*
X74298809Y-127229761D01*
X84522619Y-128911904D02*
X84675000Y-128911904D01*
X84751190Y-128950000D01*
X84789285Y-128988095D01*
X84865476Y-129102380D01*
X84903571Y-129254761D01*
X84903571Y-129559523D01*
X84865476Y-129635714D01*
X84827380Y-129673809D01*
X84751190Y-129711904D01*
X84598809Y-129711904D01*
X84522619Y-129673809D01*
X84484523Y-129635714D01*
X84446428Y-129559523D01*
X84446428Y-129369047D01*
X84484523Y-129292857D01*
X84522619Y-129254761D01*
X84598809Y-129216666D01*
X84751190Y-129216666D01*
X84827380Y-129254761D01*
X84865476Y-129292857D01*
X84903571Y-129369047D01*
X84702380Y-127586904D02*
X85159523Y-127586904D01*
X84930952Y-127586904D02*
X84930952Y-126786904D01*
X85007142Y-126901190D01*
X85083333Y-126977380D01*
X85159523Y-127015476D01*
X84397619Y-126863095D02*
X84359523Y-126825000D01*
X84283333Y-126786904D01*
X84092857Y-126786904D01*
X84016666Y-126825000D01*
X83978571Y-126863095D01*
X83940476Y-126939285D01*
X83940476Y-127015476D01*
X83978571Y-127129761D01*
X84435714Y-127586904D01*
X83940476Y-127586904D01*
X79777380Y-127661904D02*
X80234523Y-127661904D01*
X80005952Y-127661904D02*
X80005952Y-126861904D01*
X80082142Y-126976190D01*
X80158333Y-127052380D01*
X80234523Y-127090476D01*
X79282142Y-126861904D02*
X79205952Y-126861904D01*
X79129761Y-126900000D01*
X79091666Y-126938095D01*
X79053571Y-127014285D01*
X79015476Y-127166666D01*
X79015476Y-127357142D01*
X79053571Y-127509523D01*
X79091666Y-127585714D01*
X79129761Y-127623809D01*
X79205952Y-127661904D01*
X79282142Y-127661904D01*
X79358333Y-127623809D01*
X79396428Y-127585714D01*
X79434523Y-127509523D01*
X79472619Y-127357142D01*
X79472619Y-127166666D01*
X79434523Y-127014285D01*
X79396428Y-126938095D01*
X79358333Y-126900000D01*
X79282142Y-126861904D01*
X79434523Y-128936904D02*
X79815476Y-128936904D01*
X79853571Y-129317857D01*
X79815476Y-129279761D01*
X79739285Y-129241666D01*
X79548809Y-129241666D01*
X79472619Y-129279761D01*
X79434523Y-129317857D01*
X79396428Y-129394047D01*
X79396428Y-129584523D01*
X79434523Y-129660714D01*
X79472619Y-129698809D01*
X79548809Y-129736904D01*
X79739285Y-129736904D01*
X79815476Y-129698809D01*
X79853571Y-129660714D01*
X77002380Y-127686904D02*
X76850000Y-127686904D01*
X76773809Y-127648809D01*
X76735714Y-127610714D01*
X76659523Y-127496428D01*
X76621428Y-127344047D01*
X76621428Y-127039285D01*
X76659523Y-126963095D01*
X76697619Y-126925000D01*
X76773809Y-126886904D01*
X76926190Y-126886904D01*
X77002380Y-126925000D01*
X77040476Y-126963095D01*
X77078571Y-127039285D01*
X77078571Y-127229761D01*
X77040476Y-127305952D01*
X77002380Y-127344047D01*
X76926190Y-127382142D01*
X76773809Y-127382142D01*
X76697619Y-127344047D01*
X76659523Y-127305952D01*
X76621428Y-127229761D01*
X74791666Y-128961904D02*
X74296428Y-128961904D01*
X74563095Y-129266666D01*
X74448809Y-129266666D01*
X74372619Y-129304761D01*
X74334523Y-129342857D01*
X74296428Y-129419047D01*
X74296428Y-129609523D01*
X74334523Y-129685714D01*
X74372619Y-129723809D01*
X74448809Y-129761904D01*
X74677380Y-129761904D01*
X74753571Y-129723809D01*
X74791666Y-129685714D01*
%TO.C,K4*%
X94411666Y-127074904D02*
X93878333Y-127074904D01*
X94221190Y-127874904D01*
X96671190Y-127517761D02*
X96747380Y-127479666D01*
X96785476Y-127441571D01*
X96823571Y-127365380D01*
X96823571Y-127327285D01*
X96785476Y-127251095D01*
X96747380Y-127213000D01*
X96671190Y-127174904D01*
X96518809Y-127174904D01*
X96442619Y-127213000D01*
X96404523Y-127251095D01*
X96366428Y-127327285D01*
X96366428Y-127365380D01*
X96404523Y-127441571D01*
X96442619Y-127479666D01*
X96518809Y-127517761D01*
X96671190Y-127517761D01*
X96747380Y-127555857D01*
X96785476Y-127593952D01*
X96823571Y-127670142D01*
X96823571Y-127822523D01*
X96785476Y-127898714D01*
X96747380Y-127936809D01*
X96671190Y-127974904D01*
X96518809Y-127974904D01*
X96442619Y-127936809D01*
X96404523Y-127898714D01*
X96366428Y-127822523D01*
X96366428Y-127670142D01*
X96404523Y-127593952D01*
X96442619Y-127555857D01*
X96518809Y-127517761D01*
X99222380Y-127974904D02*
X99070000Y-127974904D01*
X98993809Y-127936809D01*
X98955714Y-127898714D01*
X98879523Y-127784428D01*
X98841428Y-127632047D01*
X98841428Y-127327285D01*
X98879523Y-127251095D01*
X98917619Y-127213000D01*
X98993809Y-127174904D01*
X99146190Y-127174904D01*
X99222380Y-127213000D01*
X99260476Y-127251095D01*
X99298571Y-127327285D01*
X99298571Y-127517761D01*
X99260476Y-127593952D01*
X99222380Y-127632047D01*
X99146190Y-127670142D01*
X98993809Y-127670142D01*
X98917619Y-127632047D01*
X98879523Y-127593952D01*
X98841428Y-127517761D01*
X101997380Y-127949904D02*
X102454523Y-127949904D01*
X102225952Y-127949904D02*
X102225952Y-127149904D01*
X102302142Y-127264190D01*
X102378333Y-127340380D01*
X102454523Y-127378476D01*
X101502142Y-127149904D02*
X101425952Y-127149904D01*
X101349761Y-127188000D01*
X101311666Y-127226095D01*
X101273571Y-127302285D01*
X101235476Y-127454666D01*
X101235476Y-127645142D01*
X101273571Y-127797523D01*
X101311666Y-127873714D01*
X101349761Y-127911809D01*
X101425952Y-127949904D01*
X101502142Y-127949904D01*
X101578333Y-127911809D01*
X101616428Y-127873714D01*
X101654523Y-127797523D01*
X101692619Y-127645142D01*
X101692619Y-127454666D01*
X101654523Y-127302285D01*
X101616428Y-127226095D01*
X101578333Y-127188000D01*
X101502142Y-127149904D01*
X106922380Y-127874904D02*
X107379523Y-127874904D01*
X107150952Y-127874904D02*
X107150952Y-127074904D01*
X107227142Y-127189190D01*
X107303333Y-127265380D01*
X107379523Y-127303476D01*
X106617619Y-127151095D02*
X106579523Y-127113000D01*
X106503333Y-127074904D01*
X106312857Y-127074904D01*
X106236666Y-127113000D01*
X106198571Y-127151095D01*
X106160476Y-127227285D01*
X106160476Y-127303476D01*
X106198571Y-127417761D01*
X106655714Y-127874904D01*
X106160476Y-127874904D01*
X106742619Y-129199904D02*
X106895000Y-129199904D01*
X106971190Y-129238000D01*
X107009285Y-129276095D01*
X107085476Y-129390380D01*
X107123571Y-129542761D01*
X107123571Y-129847523D01*
X107085476Y-129923714D01*
X107047380Y-129961809D01*
X106971190Y-129999904D01*
X106818809Y-129999904D01*
X106742619Y-129961809D01*
X106704523Y-129923714D01*
X106666428Y-129847523D01*
X106666428Y-129657047D01*
X106704523Y-129580857D01*
X106742619Y-129542761D01*
X106818809Y-129504666D01*
X106971190Y-129504666D01*
X107047380Y-129542761D01*
X107085476Y-129580857D01*
X107123571Y-129657047D01*
X101654523Y-129224904D02*
X102035476Y-129224904D01*
X102073571Y-129605857D01*
X102035476Y-129567761D01*
X101959285Y-129529666D01*
X101768809Y-129529666D01*
X101692619Y-129567761D01*
X101654523Y-129605857D01*
X101616428Y-129682047D01*
X101616428Y-129872523D01*
X101654523Y-129948714D01*
X101692619Y-129986809D01*
X101768809Y-130024904D01*
X101959285Y-130024904D01*
X102035476Y-129986809D01*
X102073571Y-129948714D01*
X99092619Y-129466571D02*
X99092619Y-129999904D01*
X99283095Y-129161809D02*
X99473571Y-129733238D01*
X98978333Y-129733238D01*
X97011666Y-129249904D02*
X96516428Y-129249904D01*
X96783095Y-129554666D01*
X96668809Y-129554666D01*
X96592619Y-129592761D01*
X96554523Y-129630857D01*
X96516428Y-129707047D01*
X96516428Y-129897523D01*
X96554523Y-129973714D01*
X96592619Y-130011809D01*
X96668809Y-130049904D01*
X96897380Y-130049904D01*
X96973571Y-130011809D01*
X97011666Y-129973714D01*
X93841428Y-129999904D02*
X94298571Y-129999904D01*
X94070000Y-129999904D02*
X94070000Y-129199904D01*
X94146190Y-129314190D01*
X94222380Y-129390380D01*
X94298571Y-129428476D01*
X99092619Y-129466571D02*
X99092619Y-129999904D01*
X99283095Y-129161809D02*
X99473571Y-129733238D01*
X98978333Y-129733238D01*
X93841428Y-129999904D02*
X94298571Y-129999904D01*
X94070000Y-129999904D02*
X94070000Y-129199904D01*
X94146190Y-129314190D01*
X94222380Y-129390380D01*
X94298571Y-129428476D01*
X94411666Y-127074904D02*
X93878333Y-127074904D01*
X94221190Y-127874904D01*
X96671190Y-127517761D02*
X96747380Y-127479666D01*
X96785476Y-127441571D01*
X96823571Y-127365380D01*
X96823571Y-127327285D01*
X96785476Y-127251095D01*
X96747380Y-127213000D01*
X96671190Y-127174904D01*
X96518809Y-127174904D01*
X96442619Y-127213000D01*
X96404523Y-127251095D01*
X96366428Y-127327285D01*
X96366428Y-127365380D01*
X96404523Y-127441571D01*
X96442619Y-127479666D01*
X96518809Y-127517761D01*
X96671190Y-127517761D01*
X96747380Y-127555857D01*
X96785476Y-127593952D01*
X96823571Y-127670142D01*
X96823571Y-127822523D01*
X96785476Y-127898714D01*
X96747380Y-127936809D01*
X96671190Y-127974904D01*
X96518809Y-127974904D01*
X96442619Y-127936809D01*
X96404523Y-127898714D01*
X96366428Y-127822523D01*
X96366428Y-127670142D01*
X96404523Y-127593952D01*
X96442619Y-127555857D01*
X96518809Y-127517761D01*
X106742619Y-129199904D02*
X106895000Y-129199904D01*
X106971190Y-129238000D01*
X107009285Y-129276095D01*
X107085476Y-129390380D01*
X107123571Y-129542761D01*
X107123571Y-129847523D01*
X107085476Y-129923714D01*
X107047380Y-129961809D01*
X106971190Y-129999904D01*
X106818809Y-129999904D01*
X106742619Y-129961809D01*
X106704523Y-129923714D01*
X106666428Y-129847523D01*
X106666428Y-129657047D01*
X106704523Y-129580857D01*
X106742619Y-129542761D01*
X106818809Y-129504666D01*
X106971190Y-129504666D01*
X107047380Y-129542761D01*
X107085476Y-129580857D01*
X107123571Y-129657047D01*
X106922380Y-127874904D02*
X107379523Y-127874904D01*
X107150952Y-127874904D02*
X107150952Y-127074904D01*
X107227142Y-127189190D01*
X107303333Y-127265380D01*
X107379523Y-127303476D01*
X106617619Y-127151095D02*
X106579523Y-127113000D01*
X106503333Y-127074904D01*
X106312857Y-127074904D01*
X106236666Y-127113000D01*
X106198571Y-127151095D01*
X106160476Y-127227285D01*
X106160476Y-127303476D01*
X106198571Y-127417761D01*
X106655714Y-127874904D01*
X106160476Y-127874904D01*
X101997380Y-127949904D02*
X102454523Y-127949904D01*
X102225952Y-127949904D02*
X102225952Y-127149904D01*
X102302142Y-127264190D01*
X102378333Y-127340380D01*
X102454523Y-127378476D01*
X101502142Y-127149904D02*
X101425952Y-127149904D01*
X101349761Y-127188000D01*
X101311666Y-127226095D01*
X101273571Y-127302285D01*
X101235476Y-127454666D01*
X101235476Y-127645142D01*
X101273571Y-127797523D01*
X101311666Y-127873714D01*
X101349761Y-127911809D01*
X101425952Y-127949904D01*
X101502142Y-127949904D01*
X101578333Y-127911809D01*
X101616428Y-127873714D01*
X101654523Y-127797523D01*
X101692619Y-127645142D01*
X101692619Y-127454666D01*
X101654523Y-127302285D01*
X101616428Y-127226095D01*
X101578333Y-127188000D01*
X101502142Y-127149904D01*
X101654523Y-129224904D02*
X102035476Y-129224904D01*
X102073571Y-129605857D01*
X102035476Y-129567761D01*
X101959285Y-129529666D01*
X101768809Y-129529666D01*
X101692619Y-129567761D01*
X101654523Y-129605857D01*
X101616428Y-129682047D01*
X101616428Y-129872523D01*
X101654523Y-129948714D01*
X101692619Y-129986809D01*
X101768809Y-130024904D01*
X101959285Y-130024904D01*
X102035476Y-129986809D01*
X102073571Y-129948714D01*
X99222380Y-127974904D02*
X99070000Y-127974904D01*
X98993809Y-127936809D01*
X98955714Y-127898714D01*
X98879523Y-127784428D01*
X98841428Y-127632047D01*
X98841428Y-127327285D01*
X98879523Y-127251095D01*
X98917619Y-127213000D01*
X98993809Y-127174904D01*
X99146190Y-127174904D01*
X99222380Y-127213000D01*
X99260476Y-127251095D01*
X99298571Y-127327285D01*
X99298571Y-127517761D01*
X99260476Y-127593952D01*
X99222380Y-127632047D01*
X99146190Y-127670142D01*
X98993809Y-127670142D01*
X98917619Y-127632047D01*
X98879523Y-127593952D01*
X98841428Y-127517761D01*
X97011666Y-129249904D02*
X96516428Y-129249904D01*
X96783095Y-129554666D01*
X96668809Y-129554666D01*
X96592619Y-129592761D01*
X96554523Y-129630857D01*
X96516428Y-129707047D01*
X96516428Y-129897523D01*
X96554523Y-129973714D01*
X96592619Y-130011809D01*
X96668809Y-130049904D01*
X96897380Y-130049904D01*
X96973571Y-130011809D01*
X97011666Y-129973714D01*
%TO.C,K3*%
X117451666Y-127230904D02*
X116918333Y-127230904D01*
X117261190Y-128030904D01*
X119711190Y-127673761D02*
X119787380Y-127635666D01*
X119825476Y-127597571D01*
X119863571Y-127521380D01*
X119863571Y-127483285D01*
X119825476Y-127407095D01*
X119787380Y-127369000D01*
X119711190Y-127330904D01*
X119558809Y-127330904D01*
X119482619Y-127369000D01*
X119444523Y-127407095D01*
X119406428Y-127483285D01*
X119406428Y-127521380D01*
X119444523Y-127597571D01*
X119482619Y-127635666D01*
X119558809Y-127673761D01*
X119711190Y-127673761D01*
X119787380Y-127711857D01*
X119825476Y-127749952D01*
X119863571Y-127826142D01*
X119863571Y-127978523D01*
X119825476Y-128054714D01*
X119787380Y-128092809D01*
X119711190Y-128130904D01*
X119558809Y-128130904D01*
X119482619Y-128092809D01*
X119444523Y-128054714D01*
X119406428Y-127978523D01*
X119406428Y-127826142D01*
X119444523Y-127749952D01*
X119482619Y-127711857D01*
X119558809Y-127673761D01*
X122262380Y-128130904D02*
X122110000Y-128130904D01*
X122033809Y-128092809D01*
X121995714Y-128054714D01*
X121919523Y-127940428D01*
X121881428Y-127788047D01*
X121881428Y-127483285D01*
X121919523Y-127407095D01*
X121957619Y-127369000D01*
X122033809Y-127330904D01*
X122186190Y-127330904D01*
X122262380Y-127369000D01*
X122300476Y-127407095D01*
X122338571Y-127483285D01*
X122338571Y-127673761D01*
X122300476Y-127749952D01*
X122262380Y-127788047D01*
X122186190Y-127826142D01*
X122033809Y-127826142D01*
X121957619Y-127788047D01*
X121919523Y-127749952D01*
X121881428Y-127673761D01*
X125037380Y-128105904D02*
X125494523Y-128105904D01*
X125265952Y-128105904D02*
X125265952Y-127305904D01*
X125342142Y-127420190D01*
X125418333Y-127496380D01*
X125494523Y-127534476D01*
X124542142Y-127305904D02*
X124465952Y-127305904D01*
X124389761Y-127344000D01*
X124351666Y-127382095D01*
X124313571Y-127458285D01*
X124275476Y-127610666D01*
X124275476Y-127801142D01*
X124313571Y-127953523D01*
X124351666Y-128029714D01*
X124389761Y-128067809D01*
X124465952Y-128105904D01*
X124542142Y-128105904D01*
X124618333Y-128067809D01*
X124656428Y-128029714D01*
X124694523Y-127953523D01*
X124732619Y-127801142D01*
X124732619Y-127610666D01*
X124694523Y-127458285D01*
X124656428Y-127382095D01*
X124618333Y-127344000D01*
X124542142Y-127305904D01*
X129962380Y-128030904D02*
X130419523Y-128030904D01*
X130190952Y-128030904D02*
X130190952Y-127230904D01*
X130267142Y-127345190D01*
X130343333Y-127421380D01*
X130419523Y-127459476D01*
X129657619Y-127307095D02*
X129619523Y-127269000D01*
X129543333Y-127230904D01*
X129352857Y-127230904D01*
X129276666Y-127269000D01*
X129238571Y-127307095D01*
X129200476Y-127383285D01*
X129200476Y-127459476D01*
X129238571Y-127573761D01*
X129695714Y-128030904D01*
X129200476Y-128030904D01*
X129782619Y-129355904D02*
X129935000Y-129355904D01*
X130011190Y-129394000D01*
X130049285Y-129432095D01*
X130125476Y-129546380D01*
X130163571Y-129698761D01*
X130163571Y-130003523D01*
X130125476Y-130079714D01*
X130087380Y-130117809D01*
X130011190Y-130155904D01*
X129858809Y-130155904D01*
X129782619Y-130117809D01*
X129744523Y-130079714D01*
X129706428Y-130003523D01*
X129706428Y-129813047D01*
X129744523Y-129736857D01*
X129782619Y-129698761D01*
X129858809Y-129660666D01*
X130011190Y-129660666D01*
X130087380Y-129698761D01*
X130125476Y-129736857D01*
X130163571Y-129813047D01*
X124694523Y-129380904D02*
X125075476Y-129380904D01*
X125113571Y-129761857D01*
X125075476Y-129723761D01*
X124999285Y-129685666D01*
X124808809Y-129685666D01*
X124732619Y-129723761D01*
X124694523Y-129761857D01*
X124656428Y-129838047D01*
X124656428Y-130028523D01*
X124694523Y-130104714D01*
X124732619Y-130142809D01*
X124808809Y-130180904D01*
X124999285Y-130180904D01*
X125075476Y-130142809D01*
X125113571Y-130104714D01*
X122132619Y-129622571D02*
X122132619Y-130155904D01*
X122323095Y-129317809D02*
X122513571Y-129889238D01*
X122018333Y-129889238D01*
X120051666Y-129405904D02*
X119556428Y-129405904D01*
X119823095Y-129710666D01*
X119708809Y-129710666D01*
X119632619Y-129748761D01*
X119594523Y-129786857D01*
X119556428Y-129863047D01*
X119556428Y-130053523D01*
X119594523Y-130129714D01*
X119632619Y-130167809D01*
X119708809Y-130205904D01*
X119937380Y-130205904D01*
X120013571Y-130167809D01*
X120051666Y-130129714D01*
X116881428Y-130155904D02*
X117338571Y-130155904D01*
X117110000Y-130155904D02*
X117110000Y-129355904D01*
X117186190Y-129470190D01*
X117262380Y-129546380D01*
X117338571Y-129584476D01*
X122132619Y-129622571D02*
X122132619Y-130155904D01*
X122323095Y-129317809D02*
X122513571Y-129889238D01*
X122018333Y-129889238D01*
X116881428Y-130155904D02*
X117338571Y-130155904D01*
X117110000Y-130155904D02*
X117110000Y-129355904D01*
X117186190Y-129470190D01*
X117262380Y-129546380D01*
X117338571Y-129584476D01*
X117451666Y-127230904D02*
X116918333Y-127230904D01*
X117261190Y-128030904D01*
X119711190Y-127673761D02*
X119787380Y-127635666D01*
X119825476Y-127597571D01*
X119863571Y-127521380D01*
X119863571Y-127483285D01*
X119825476Y-127407095D01*
X119787380Y-127369000D01*
X119711190Y-127330904D01*
X119558809Y-127330904D01*
X119482619Y-127369000D01*
X119444523Y-127407095D01*
X119406428Y-127483285D01*
X119406428Y-127521380D01*
X119444523Y-127597571D01*
X119482619Y-127635666D01*
X119558809Y-127673761D01*
X119711190Y-127673761D01*
X119787380Y-127711857D01*
X119825476Y-127749952D01*
X119863571Y-127826142D01*
X119863571Y-127978523D01*
X119825476Y-128054714D01*
X119787380Y-128092809D01*
X119711190Y-128130904D01*
X119558809Y-128130904D01*
X119482619Y-128092809D01*
X119444523Y-128054714D01*
X119406428Y-127978523D01*
X119406428Y-127826142D01*
X119444523Y-127749952D01*
X119482619Y-127711857D01*
X119558809Y-127673761D01*
X129782619Y-129355904D02*
X129935000Y-129355904D01*
X130011190Y-129394000D01*
X130049285Y-129432095D01*
X130125476Y-129546380D01*
X130163571Y-129698761D01*
X130163571Y-130003523D01*
X130125476Y-130079714D01*
X130087380Y-130117809D01*
X130011190Y-130155904D01*
X129858809Y-130155904D01*
X129782619Y-130117809D01*
X129744523Y-130079714D01*
X129706428Y-130003523D01*
X129706428Y-129813047D01*
X129744523Y-129736857D01*
X129782619Y-129698761D01*
X129858809Y-129660666D01*
X130011190Y-129660666D01*
X130087380Y-129698761D01*
X130125476Y-129736857D01*
X130163571Y-129813047D01*
X129962380Y-128030904D02*
X130419523Y-128030904D01*
X130190952Y-128030904D02*
X130190952Y-127230904D01*
X130267142Y-127345190D01*
X130343333Y-127421380D01*
X130419523Y-127459476D01*
X129657619Y-127307095D02*
X129619523Y-127269000D01*
X129543333Y-127230904D01*
X129352857Y-127230904D01*
X129276666Y-127269000D01*
X129238571Y-127307095D01*
X129200476Y-127383285D01*
X129200476Y-127459476D01*
X129238571Y-127573761D01*
X129695714Y-128030904D01*
X129200476Y-128030904D01*
X125037380Y-128105904D02*
X125494523Y-128105904D01*
X125265952Y-128105904D02*
X125265952Y-127305904D01*
X125342142Y-127420190D01*
X125418333Y-127496380D01*
X125494523Y-127534476D01*
X124542142Y-127305904D02*
X124465952Y-127305904D01*
X124389761Y-127344000D01*
X124351666Y-127382095D01*
X124313571Y-127458285D01*
X124275476Y-127610666D01*
X124275476Y-127801142D01*
X124313571Y-127953523D01*
X124351666Y-128029714D01*
X124389761Y-128067809D01*
X124465952Y-128105904D01*
X124542142Y-128105904D01*
X124618333Y-128067809D01*
X124656428Y-128029714D01*
X124694523Y-127953523D01*
X124732619Y-127801142D01*
X124732619Y-127610666D01*
X124694523Y-127458285D01*
X124656428Y-127382095D01*
X124618333Y-127344000D01*
X124542142Y-127305904D01*
X124694523Y-129380904D02*
X125075476Y-129380904D01*
X125113571Y-129761857D01*
X125075476Y-129723761D01*
X124999285Y-129685666D01*
X124808809Y-129685666D01*
X124732619Y-129723761D01*
X124694523Y-129761857D01*
X124656428Y-129838047D01*
X124656428Y-130028523D01*
X124694523Y-130104714D01*
X124732619Y-130142809D01*
X124808809Y-130180904D01*
X124999285Y-130180904D01*
X125075476Y-130142809D01*
X125113571Y-130104714D01*
X122262380Y-128130904D02*
X122110000Y-128130904D01*
X122033809Y-128092809D01*
X121995714Y-128054714D01*
X121919523Y-127940428D01*
X121881428Y-127788047D01*
X121881428Y-127483285D01*
X121919523Y-127407095D01*
X121957619Y-127369000D01*
X122033809Y-127330904D01*
X122186190Y-127330904D01*
X122262380Y-127369000D01*
X122300476Y-127407095D01*
X122338571Y-127483285D01*
X122338571Y-127673761D01*
X122300476Y-127749952D01*
X122262380Y-127788047D01*
X122186190Y-127826142D01*
X122033809Y-127826142D01*
X121957619Y-127788047D01*
X121919523Y-127749952D01*
X121881428Y-127673761D01*
X120051666Y-129405904D02*
X119556428Y-129405904D01*
X119823095Y-129710666D01*
X119708809Y-129710666D01*
X119632619Y-129748761D01*
X119594523Y-129786857D01*
X119556428Y-129863047D01*
X119556428Y-130053523D01*
X119594523Y-130129714D01*
X119632619Y-130167809D01*
X119708809Y-130205904D01*
X119937380Y-130205904D01*
X120013571Y-130167809D01*
X120051666Y-130129714D01*
%TO.C,K2*%
X139607666Y-127758904D02*
X139074333Y-127758904D01*
X139417190Y-128558904D01*
X141867190Y-128201761D02*
X141943380Y-128163666D01*
X141981476Y-128125571D01*
X142019571Y-128049380D01*
X142019571Y-128011285D01*
X141981476Y-127935095D01*
X141943380Y-127897000D01*
X141867190Y-127858904D01*
X141714809Y-127858904D01*
X141638619Y-127897000D01*
X141600523Y-127935095D01*
X141562428Y-128011285D01*
X141562428Y-128049380D01*
X141600523Y-128125571D01*
X141638619Y-128163666D01*
X141714809Y-128201761D01*
X141867190Y-128201761D01*
X141943380Y-128239857D01*
X141981476Y-128277952D01*
X142019571Y-128354142D01*
X142019571Y-128506523D01*
X141981476Y-128582714D01*
X141943380Y-128620809D01*
X141867190Y-128658904D01*
X141714809Y-128658904D01*
X141638619Y-128620809D01*
X141600523Y-128582714D01*
X141562428Y-128506523D01*
X141562428Y-128354142D01*
X141600523Y-128277952D01*
X141638619Y-128239857D01*
X141714809Y-128201761D01*
X144418380Y-128658904D02*
X144266000Y-128658904D01*
X144189809Y-128620809D01*
X144151714Y-128582714D01*
X144075523Y-128468428D01*
X144037428Y-128316047D01*
X144037428Y-128011285D01*
X144075523Y-127935095D01*
X144113619Y-127897000D01*
X144189809Y-127858904D01*
X144342190Y-127858904D01*
X144418380Y-127897000D01*
X144456476Y-127935095D01*
X144494571Y-128011285D01*
X144494571Y-128201761D01*
X144456476Y-128277952D01*
X144418380Y-128316047D01*
X144342190Y-128354142D01*
X144189809Y-128354142D01*
X144113619Y-128316047D01*
X144075523Y-128277952D01*
X144037428Y-128201761D01*
X147193380Y-128633904D02*
X147650523Y-128633904D01*
X147421952Y-128633904D02*
X147421952Y-127833904D01*
X147498142Y-127948190D01*
X147574333Y-128024380D01*
X147650523Y-128062476D01*
X146698142Y-127833904D02*
X146621952Y-127833904D01*
X146545761Y-127872000D01*
X146507666Y-127910095D01*
X146469571Y-127986285D01*
X146431476Y-128138666D01*
X146431476Y-128329142D01*
X146469571Y-128481523D01*
X146507666Y-128557714D01*
X146545761Y-128595809D01*
X146621952Y-128633904D01*
X146698142Y-128633904D01*
X146774333Y-128595809D01*
X146812428Y-128557714D01*
X146850523Y-128481523D01*
X146888619Y-128329142D01*
X146888619Y-128138666D01*
X146850523Y-127986285D01*
X146812428Y-127910095D01*
X146774333Y-127872000D01*
X146698142Y-127833904D01*
X152118380Y-128558904D02*
X152575523Y-128558904D01*
X152346952Y-128558904D02*
X152346952Y-127758904D01*
X152423142Y-127873190D01*
X152499333Y-127949380D01*
X152575523Y-127987476D01*
X151813619Y-127835095D02*
X151775523Y-127797000D01*
X151699333Y-127758904D01*
X151508857Y-127758904D01*
X151432666Y-127797000D01*
X151394571Y-127835095D01*
X151356476Y-127911285D01*
X151356476Y-127987476D01*
X151394571Y-128101761D01*
X151851714Y-128558904D01*
X151356476Y-128558904D01*
X151938619Y-129883904D02*
X152091000Y-129883904D01*
X152167190Y-129922000D01*
X152205285Y-129960095D01*
X152281476Y-130074380D01*
X152319571Y-130226761D01*
X152319571Y-130531523D01*
X152281476Y-130607714D01*
X152243380Y-130645809D01*
X152167190Y-130683904D01*
X152014809Y-130683904D01*
X151938619Y-130645809D01*
X151900523Y-130607714D01*
X151862428Y-130531523D01*
X151862428Y-130341047D01*
X151900523Y-130264857D01*
X151938619Y-130226761D01*
X152014809Y-130188666D01*
X152167190Y-130188666D01*
X152243380Y-130226761D01*
X152281476Y-130264857D01*
X152319571Y-130341047D01*
X146850523Y-129908904D02*
X147231476Y-129908904D01*
X147269571Y-130289857D01*
X147231476Y-130251761D01*
X147155285Y-130213666D01*
X146964809Y-130213666D01*
X146888619Y-130251761D01*
X146850523Y-130289857D01*
X146812428Y-130366047D01*
X146812428Y-130556523D01*
X146850523Y-130632714D01*
X146888619Y-130670809D01*
X146964809Y-130708904D01*
X147155285Y-130708904D01*
X147231476Y-130670809D01*
X147269571Y-130632714D01*
X144288619Y-130150571D02*
X144288619Y-130683904D01*
X144479095Y-129845809D02*
X144669571Y-130417238D01*
X144174333Y-130417238D01*
X142207666Y-129933904D02*
X141712428Y-129933904D01*
X141979095Y-130238666D01*
X141864809Y-130238666D01*
X141788619Y-130276761D01*
X141750523Y-130314857D01*
X141712428Y-130391047D01*
X141712428Y-130581523D01*
X141750523Y-130657714D01*
X141788619Y-130695809D01*
X141864809Y-130733904D01*
X142093380Y-130733904D01*
X142169571Y-130695809D01*
X142207666Y-130657714D01*
X139037428Y-130683904D02*
X139494571Y-130683904D01*
X139266000Y-130683904D02*
X139266000Y-129883904D01*
X139342190Y-129998190D01*
X139418380Y-130074380D01*
X139494571Y-130112476D01*
X144288619Y-130150571D02*
X144288619Y-130683904D01*
X144479095Y-129845809D02*
X144669571Y-130417238D01*
X144174333Y-130417238D01*
X139037428Y-130683904D02*
X139494571Y-130683904D01*
X139266000Y-130683904D02*
X139266000Y-129883904D01*
X139342190Y-129998190D01*
X139418380Y-130074380D01*
X139494571Y-130112476D01*
X139607666Y-127758904D02*
X139074333Y-127758904D01*
X139417190Y-128558904D01*
X141867190Y-128201761D02*
X141943380Y-128163666D01*
X141981476Y-128125571D01*
X142019571Y-128049380D01*
X142019571Y-128011285D01*
X141981476Y-127935095D01*
X141943380Y-127897000D01*
X141867190Y-127858904D01*
X141714809Y-127858904D01*
X141638619Y-127897000D01*
X141600523Y-127935095D01*
X141562428Y-128011285D01*
X141562428Y-128049380D01*
X141600523Y-128125571D01*
X141638619Y-128163666D01*
X141714809Y-128201761D01*
X141867190Y-128201761D01*
X141943380Y-128239857D01*
X141981476Y-128277952D01*
X142019571Y-128354142D01*
X142019571Y-128506523D01*
X141981476Y-128582714D01*
X141943380Y-128620809D01*
X141867190Y-128658904D01*
X141714809Y-128658904D01*
X141638619Y-128620809D01*
X141600523Y-128582714D01*
X141562428Y-128506523D01*
X141562428Y-128354142D01*
X141600523Y-128277952D01*
X141638619Y-128239857D01*
X141714809Y-128201761D01*
X151938619Y-129883904D02*
X152091000Y-129883904D01*
X152167190Y-129922000D01*
X152205285Y-129960095D01*
X152281476Y-130074380D01*
X152319571Y-130226761D01*
X152319571Y-130531523D01*
X152281476Y-130607714D01*
X152243380Y-130645809D01*
X152167190Y-130683904D01*
X152014809Y-130683904D01*
X151938619Y-130645809D01*
X151900523Y-130607714D01*
X151862428Y-130531523D01*
X151862428Y-130341047D01*
X151900523Y-130264857D01*
X151938619Y-130226761D01*
X152014809Y-130188666D01*
X152167190Y-130188666D01*
X152243380Y-130226761D01*
X152281476Y-130264857D01*
X152319571Y-130341047D01*
X152118380Y-128558904D02*
X152575523Y-128558904D01*
X152346952Y-128558904D02*
X152346952Y-127758904D01*
X152423142Y-127873190D01*
X152499333Y-127949380D01*
X152575523Y-127987476D01*
X151813619Y-127835095D02*
X151775523Y-127797000D01*
X151699333Y-127758904D01*
X151508857Y-127758904D01*
X151432666Y-127797000D01*
X151394571Y-127835095D01*
X151356476Y-127911285D01*
X151356476Y-127987476D01*
X151394571Y-128101761D01*
X151851714Y-128558904D01*
X151356476Y-128558904D01*
X147193380Y-128633904D02*
X147650523Y-128633904D01*
X147421952Y-128633904D02*
X147421952Y-127833904D01*
X147498142Y-127948190D01*
X147574333Y-128024380D01*
X147650523Y-128062476D01*
X146698142Y-127833904D02*
X146621952Y-127833904D01*
X146545761Y-127872000D01*
X146507666Y-127910095D01*
X146469571Y-127986285D01*
X146431476Y-128138666D01*
X146431476Y-128329142D01*
X146469571Y-128481523D01*
X146507666Y-128557714D01*
X146545761Y-128595809D01*
X146621952Y-128633904D01*
X146698142Y-128633904D01*
X146774333Y-128595809D01*
X146812428Y-128557714D01*
X146850523Y-128481523D01*
X146888619Y-128329142D01*
X146888619Y-128138666D01*
X146850523Y-127986285D01*
X146812428Y-127910095D01*
X146774333Y-127872000D01*
X146698142Y-127833904D01*
X146850523Y-129908904D02*
X147231476Y-129908904D01*
X147269571Y-130289857D01*
X147231476Y-130251761D01*
X147155285Y-130213666D01*
X146964809Y-130213666D01*
X146888619Y-130251761D01*
X146850523Y-130289857D01*
X146812428Y-130366047D01*
X146812428Y-130556523D01*
X146850523Y-130632714D01*
X146888619Y-130670809D01*
X146964809Y-130708904D01*
X147155285Y-130708904D01*
X147231476Y-130670809D01*
X147269571Y-130632714D01*
X144418380Y-128658904D02*
X144266000Y-128658904D01*
X144189809Y-128620809D01*
X144151714Y-128582714D01*
X144075523Y-128468428D01*
X144037428Y-128316047D01*
X144037428Y-128011285D01*
X144075523Y-127935095D01*
X144113619Y-127897000D01*
X144189809Y-127858904D01*
X144342190Y-127858904D01*
X144418380Y-127897000D01*
X144456476Y-127935095D01*
X144494571Y-128011285D01*
X144494571Y-128201761D01*
X144456476Y-128277952D01*
X144418380Y-128316047D01*
X144342190Y-128354142D01*
X144189809Y-128354142D01*
X144113619Y-128316047D01*
X144075523Y-128277952D01*
X144037428Y-128201761D01*
X142207666Y-129933904D02*
X141712428Y-129933904D01*
X141979095Y-130238666D01*
X141864809Y-130238666D01*
X141788619Y-130276761D01*
X141750523Y-130314857D01*
X141712428Y-130391047D01*
X141712428Y-130581523D01*
X141750523Y-130657714D01*
X141788619Y-130695809D01*
X141864809Y-130733904D01*
X142093380Y-130733904D01*
X142169571Y-130695809D01*
X142207666Y-130657714D01*
%TO.C,K1*%
X94139264Y-109652333D02*
X94139264Y-110185666D01*
X94939264Y-109842809D01*
X94582121Y-107392809D02*
X94544026Y-107316619D01*
X94505931Y-107278523D01*
X94429740Y-107240428D01*
X94391645Y-107240428D01*
X94315455Y-107278523D01*
X94277360Y-107316619D01*
X94239264Y-107392809D01*
X94239264Y-107545190D01*
X94277360Y-107621380D01*
X94315455Y-107659476D01*
X94391645Y-107697571D01*
X94429740Y-107697571D01*
X94505931Y-107659476D01*
X94544026Y-107621380D01*
X94582121Y-107545190D01*
X94582121Y-107392809D01*
X94620217Y-107316619D01*
X94658312Y-107278523D01*
X94734502Y-107240428D01*
X94886883Y-107240428D01*
X94963074Y-107278523D01*
X95001169Y-107316619D01*
X95039264Y-107392809D01*
X95039264Y-107545190D01*
X95001169Y-107621380D01*
X94963074Y-107659476D01*
X94886883Y-107697571D01*
X94734502Y-107697571D01*
X94658312Y-107659476D01*
X94620217Y-107621380D01*
X94582121Y-107545190D01*
X95039264Y-104841619D02*
X95039264Y-104994000D01*
X95001169Y-105070190D01*
X94963074Y-105108285D01*
X94848788Y-105184476D01*
X94696407Y-105222571D01*
X94391645Y-105222571D01*
X94315455Y-105184476D01*
X94277360Y-105146380D01*
X94239264Y-105070190D01*
X94239264Y-104917809D01*
X94277360Y-104841619D01*
X94315455Y-104803523D01*
X94391645Y-104765428D01*
X94582121Y-104765428D01*
X94658312Y-104803523D01*
X94696407Y-104841619D01*
X94734502Y-104917809D01*
X94734502Y-105070190D01*
X94696407Y-105146380D01*
X94658312Y-105184476D01*
X94582121Y-105222571D01*
X95014264Y-102066619D02*
X95014264Y-101609476D01*
X95014264Y-101838047D02*
X94214264Y-101838047D01*
X94328550Y-101761857D01*
X94404740Y-101685666D01*
X94442836Y-101609476D01*
X94214264Y-102561857D02*
X94214264Y-102638047D01*
X94252360Y-102714238D01*
X94290455Y-102752333D01*
X94366645Y-102790428D01*
X94519026Y-102828523D01*
X94709502Y-102828523D01*
X94861883Y-102790428D01*
X94938074Y-102752333D01*
X94976169Y-102714238D01*
X95014264Y-102638047D01*
X95014264Y-102561857D01*
X94976169Y-102485666D01*
X94938074Y-102447571D01*
X94861883Y-102409476D01*
X94709502Y-102371380D01*
X94519026Y-102371380D01*
X94366645Y-102409476D01*
X94290455Y-102447571D01*
X94252360Y-102485666D01*
X94214264Y-102561857D01*
X94939264Y-97141619D02*
X94939264Y-96684476D01*
X94939264Y-96913047D02*
X94139264Y-96913047D01*
X94253550Y-96836857D01*
X94329740Y-96760666D01*
X94367836Y-96684476D01*
X94215455Y-97446380D02*
X94177360Y-97484476D01*
X94139264Y-97560666D01*
X94139264Y-97751142D01*
X94177360Y-97827333D01*
X94215455Y-97865428D01*
X94291645Y-97903523D01*
X94367836Y-97903523D01*
X94482121Y-97865428D01*
X94939264Y-97408285D01*
X94939264Y-97903523D01*
X96264264Y-97321380D02*
X96264264Y-97169000D01*
X96302360Y-97092809D01*
X96340455Y-97054714D01*
X96454740Y-96978523D01*
X96607121Y-96940428D01*
X96911883Y-96940428D01*
X96988074Y-96978523D01*
X97026169Y-97016619D01*
X97064264Y-97092809D01*
X97064264Y-97245190D01*
X97026169Y-97321380D01*
X96988074Y-97359476D01*
X96911883Y-97397571D01*
X96721407Y-97397571D01*
X96645217Y-97359476D01*
X96607121Y-97321380D01*
X96569026Y-97245190D01*
X96569026Y-97092809D01*
X96607121Y-97016619D01*
X96645217Y-96978523D01*
X96721407Y-96940428D01*
X96289264Y-102409476D02*
X96289264Y-102028523D01*
X96670217Y-101990428D01*
X96632121Y-102028523D01*
X96594026Y-102104714D01*
X96594026Y-102295190D01*
X96632121Y-102371380D01*
X96670217Y-102409476D01*
X96746407Y-102447571D01*
X96936883Y-102447571D01*
X97013074Y-102409476D01*
X97051169Y-102371380D01*
X97089264Y-102295190D01*
X97089264Y-102104714D01*
X97051169Y-102028523D01*
X97013074Y-101990428D01*
X96530931Y-104971380D02*
X97064264Y-104971380D01*
X96226169Y-104780904D02*
X96797598Y-104590428D01*
X96797598Y-105085666D01*
X96314264Y-107052333D02*
X96314264Y-107547571D01*
X96619026Y-107280904D01*
X96619026Y-107395190D01*
X96657121Y-107471380D01*
X96695217Y-107509476D01*
X96771407Y-107547571D01*
X96961883Y-107547571D01*
X97038074Y-107509476D01*
X97076169Y-107471380D01*
X97114264Y-107395190D01*
X97114264Y-107166619D01*
X97076169Y-107090428D01*
X97038074Y-107052333D01*
X97064264Y-110222571D02*
X97064264Y-109765428D01*
X97064264Y-109994000D02*
X96264264Y-109994000D01*
X96378550Y-109917809D01*
X96454740Y-109841619D01*
X96492836Y-109765428D01*
X96530931Y-104971380D02*
X97064264Y-104971380D01*
X96226169Y-104780904D02*
X96797598Y-104590428D01*
X96797598Y-105085666D01*
X97064264Y-110222571D02*
X97064264Y-109765428D01*
X97064264Y-109994000D02*
X96264264Y-109994000D01*
X96378550Y-109917809D01*
X96454740Y-109841619D01*
X96492836Y-109765428D01*
X94139264Y-109652333D02*
X94139264Y-110185666D01*
X94939264Y-109842809D01*
X94582121Y-107392809D02*
X94544026Y-107316619D01*
X94505931Y-107278523D01*
X94429740Y-107240428D01*
X94391645Y-107240428D01*
X94315455Y-107278523D01*
X94277360Y-107316619D01*
X94239264Y-107392809D01*
X94239264Y-107545190D01*
X94277360Y-107621380D01*
X94315455Y-107659476D01*
X94391645Y-107697571D01*
X94429740Y-107697571D01*
X94505931Y-107659476D01*
X94544026Y-107621380D01*
X94582121Y-107545190D01*
X94582121Y-107392809D01*
X94620217Y-107316619D01*
X94658312Y-107278523D01*
X94734502Y-107240428D01*
X94886883Y-107240428D01*
X94963074Y-107278523D01*
X95001169Y-107316619D01*
X95039264Y-107392809D01*
X95039264Y-107545190D01*
X95001169Y-107621380D01*
X94963074Y-107659476D01*
X94886883Y-107697571D01*
X94734502Y-107697571D01*
X94658312Y-107659476D01*
X94620217Y-107621380D01*
X94582121Y-107545190D01*
X96264264Y-97321380D02*
X96264264Y-97169000D01*
X96302360Y-97092809D01*
X96340455Y-97054714D01*
X96454740Y-96978523D01*
X96607121Y-96940428D01*
X96911883Y-96940428D01*
X96988074Y-96978523D01*
X97026169Y-97016619D01*
X97064264Y-97092809D01*
X97064264Y-97245190D01*
X97026169Y-97321380D01*
X96988074Y-97359476D01*
X96911883Y-97397571D01*
X96721407Y-97397571D01*
X96645217Y-97359476D01*
X96607121Y-97321380D01*
X96569026Y-97245190D01*
X96569026Y-97092809D01*
X96607121Y-97016619D01*
X96645217Y-96978523D01*
X96721407Y-96940428D01*
X94939264Y-97141619D02*
X94939264Y-96684476D01*
X94939264Y-96913047D02*
X94139264Y-96913047D01*
X94253550Y-96836857D01*
X94329740Y-96760666D01*
X94367836Y-96684476D01*
X94215455Y-97446380D02*
X94177360Y-97484476D01*
X94139264Y-97560666D01*
X94139264Y-97751142D01*
X94177360Y-97827333D01*
X94215455Y-97865428D01*
X94291645Y-97903523D01*
X94367836Y-97903523D01*
X94482121Y-97865428D01*
X94939264Y-97408285D01*
X94939264Y-97903523D01*
X95014264Y-102066619D02*
X95014264Y-101609476D01*
X95014264Y-101838047D02*
X94214264Y-101838047D01*
X94328550Y-101761857D01*
X94404740Y-101685666D01*
X94442836Y-101609476D01*
X94214264Y-102561857D02*
X94214264Y-102638047D01*
X94252360Y-102714238D01*
X94290455Y-102752333D01*
X94366645Y-102790428D01*
X94519026Y-102828523D01*
X94709502Y-102828523D01*
X94861883Y-102790428D01*
X94938074Y-102752333D01*
X94976169Y-102714238D01*
X95014264Y-102638047D01*
X95014264Y-102561857D01*
X94976169Y-102485666D01*
X94938074Y-102447571D01*
X94861883Y-102409476D01*
X94709502Y-102371380D01*
X94519026Y-102371380D01*
X94366645Y-102409476D01*
X94290455Y-102447571D01*
X94252360Y-102485666D01*
X94214264Y-102561857D01*
X96289264Y-102409476D02*
X96289264Y-102028523D01*
X96670217Y-101990428D01*
X96632121Y-102028523D01*
X96594026Y-102104714D01*
X96594026Y-102295190D01*
X96632121Y-102371380D01*
X96670217Y-102409476D01*
X96746407Y-102447571D01*
X96936883Y-102447571D01*
X97013074Y-102409476D01*
X97051169Y-102371380D01*
X97089264Y-102295190D01*
X97089264Y-102104714D01*
X97051169Y-102028523D01*
X97013074Y-101990428D01*
X95039264Y-104841619D02*
X95039264Y-104994000D01*
X95001169Y-105070190D01*
X94963074Y-105108285D01*
X94848788Y-105184476D01*
X94696407Y-105222571D01*
X94391645Y-105222571D01*
X94315455Y-105184476D01*
X94277360Y-105146380D01*
X94239264Y-105070190D01*
X94239264Y-104917809D01*
X94277360Y-104841619D01*
X94315455Y-104803523D01*
X94391645Y-104765428D01*
X94582121Y-104765428D01*
X94658312Y-104803523D01*
X94696407Y-104841619D01*
X94734502Y-104917809D01*
X94734502Y-105070190D01*
X94696407Y-105146380D01*
X94658312Y-105184476D01*
X94582121Y-105222571D01*
X96314264Y-107052333D02*
X96314264Y-107547571D01*
X96619026Y-107280904D01*
X96619026Y-107395190D01*
X96657121Y-107471380D01*
X96695217Y-107509476D01*
X96771407Y-107547571D01*
X96961883Y-107547571D01*
X97038074Y-107509476D01*
X97076169Y-107471380D01*
X97114264Y-107395190D01*
X97114264Y-107166619D01*
X97076169Y-107090428D01*
X97038074Y-107052333D01*
%TO.C,C65*%
X114987142Y-110457142D02*
X115034761Y-110409523D01*
X115082380Y-110266666D01*
X115082380Y-110171428D01*
X115034761Y-110028571D01*
X114939523Y-109933333D01*
X114844285Y-109885714D01*
X114653809Y-109838095D01*
X114510952Y-109838095D01*
X114320476Y-109885714D01*
X114225238Y-109933333D01*
X114130000Y-110028571D01*
X114082380Y-110171428D01*
X114082380Y-110266666D01*
X114130000Y-110409523D01*
X114177619Y-110457142D01*
X114082380Y-111314285D02*
X114082380Y-111123809D01*
X114130000Y-111028571D01*
X114177619Y-110980952D01*
X114320476Y-110885714D01*
X114510952Y-110838095D01*
X114891904Y-110838095D01*
X114987142Y-110885714D01*
X115034761Y-110933333D01*
X115082380Y-111028571D01*
X115082380Y-111219047D01*
X115034761Y-111314285D01*
X114987142Y-111361904D01*
X114891904Y-111409523D01*
X114653809Y-111409523D01*
X114558571Y-111361904D01*
X114510952Y-111314285D01*
X114463333Y-111219047D01*
X114463333Y-111028571D01*
X114510952Y-110933333D01*
X114558571Y-110885714D01*
X114653809Y-110838095D01*
X114082380Y-112314285D02*
X114082380Y-111838095D01*
X114558571Y-111790476D01*
X114510952Y-111838095D01*
X114463333Y-111933333D01*
X114463333Y-112171428D01*
X114510952Y-112266666D01*
X114558571Y-112314285D01*
X114653809Y-112361904D01*
X114891904Y-112361904D01*
X114987142Y-112314285D01*
X115034761Y-112266666D01*
X115082380Y-112171428D01*
X115082380Y-111933333D01*
X115034761Y-111838095D01*
X114987142Y-111790476D01*
%TO.C,C62*%
X105297142Y-117527142D02*
X105344761Y-117479523D01*
X105392380Y-117336666D01*
X105392380Y-117241428D01*
X105344761Y-117098571D01*
X105249523Y-117003333D01*
X105154285Y-116955714D01*
X104963809Y-116908095D01*
X104820952Y-116908095D01*
X104630476Y-116955714D01*
X104535238Y-117003333D01*
X104440000Y-117098571D01*
X104392380Y-117241428D01*
X104392380Y-117336666D01*
X104440000Y-117479523D01*
X104487619Y-117527142D01*
X104392380Y-118384285D02*
X104392380Y-118193809D01*
X104440000Y-118098571D01*
X104487619Y-118050952D01*
X104630476Y-117955714D01*
X104820952Y-117908095D01*
X105201904Y-117908095D01*
X105297142Y-117955714D01*
X105344761Y-118003333D01*
X105392380Y-118098571D01*
X105392380Y-118289047D01*
X105344761Y-118384285D01*
X105297142Y-118431904D01*
X105201904Y-118479523D01*
X104963809Y-118479523D01*
X104868571Y-118431904D01*
X104820952Y-118384285D01*
X104773333Y-118289047D01*
X104773333Y-118098571D01*
X104820952Y-118003333D01*
X104868571Y-117955714D01*
X104963809Y-117908095D01*
X104487619Y-118860476D02*
X104440000Y-118908095D01*
X104392380Y-119003333D01*
X104392380Y-119241428D01*
X104440000Y-119336666D01*
X104487619Y-119384285D01*
X104582857Y-119431904D01*
X104678095Y-119431904D01*
X104820952Y-119384285D01*
X105392380Y-118812857D01*
X105392380Y-119431904D01*
%TO.C,C58*%
X119437142Y-112957142D02*
X119484761Y-112909523D01*
X119532380Y-112766666D01*
X119532380Y-112671428D01*
X119484761Y-112528571D01*
X119389523Y-112433333D01*
X119294285Y-112385714D01*
X119103809Y-112338095D01*
X118960952Y-112338095D01*
X118770476Y-112385714D01*
X118675238Y-112433333D01*
X118580000Y-112528571D01*
X118532380Y-112671428D01*
X118532380Y-112766666D01*
X118580000Y-112909523D01*
X118627619Y-112957142D01*
X118532380Y-113861904D02*
X118532380Y-113385714D01*
X119008571Y-113338095D01*
X118960952Y-113385714D01*
X118913333Y-113480952D01*
X118913333Y-113719047D01*
X118960952Y-113814285D01*
X119008571Y-113861904D01*
X119103809Y-113909523D01*
X119341904Y-113909523D01*
X119437142Y-113861904D01*
X119484761Y-113814285D01*
X119532380Y-113719047D01*
X119532380Y-113480952D01*
X119484761Y-113385714D01*
X119437142Y-113338095D01*
X118960952Y-114480952D02*
X118913333Y-114385714D01*
X118865714Y-114338095D01*
X118770476Y-114290476D01*
X118722857Y-114290476D01*
X118627619Y-114338095D01*
X118580000Y-114385714D01*
X118532380Y-114480952D01*
X118532380Y-114671428D01*
X118580000Y-114766666D01*
X118627619Y-114814285D01*
X118722857Y-114861904D01*
X118770476Y-114861904D01*
X118865714Y-114814285D01*
X118913333Y-114766666D01*
X118960952Y-114671428D01*
X118960952Y-114480952D01*
X119008571Y-114385714D01*
X119056190Y-114338095D01*
X119151428Y-114290476D01*
X119341904Y-114290476D01*
X119437142Y-114338095D01*
X119484761Y-114385714D01*
X119532380Y-114480952D01*
X119532380Y-114671428D01*
X119484761Y-114766666D01*
X119437142Y-114814285D01*
X119341904Y-114861904D01*
X119151428Y-114861904D01*
X119056190Y-114814285D01*
X119008571Y-114766666D01*
X118960952Y-114671428D01*
%TO.C,C47*%
X102672857Y-113937142D02*
X102720476Y-113984761D01*
X102863333Y-114032380D01*
X102958571Y-114032380D01*
X103101428Y-113984761D01*
X103196666Y-113889523D01*
X103244285Y-113794285D01*
X103291904Y-113603809D01*
X103291904Y-113460952D01*
X103244285Y-113270476D01*
X103196666Y-113175238D01*
X103101428Y-113080000D01*
X102958571Y-113032380D01*
X102863333Y-113032380D01*
X102720476Y-113080000D01*
X102672857Y-113127619D01*
X101815714Y-113365714D02*
X101815714Y-114032380D01*
X102053809Y-112984761D02*
X102291904Y-113699047D01*
X101672857Y-113699047D01*
X101387142Y-113032380D02*
X100720476Y-113032380D01*
X101149047Y-114032380D01*
%TD*%
M02*
