%FSLAX45Y45*%
G04 Gerber Fmt 4.5, Leading zero omitted, Abs format (unit mm)*
G04 Created by KiCad (PCBNEW 5.1.6-c6e7f7d~86~ubuntu18.04.1) date 2020-05-28 18:16:53*
%MOMM*%
%LPD*%
G01*
G04 APERTURE LIST*
%TA.AperFunction,Profile*%
%ADD10C,0.050000*%
%TD*%
%ADD11C,0.200000*%
%ADD12C,0.300000*%
G04 APERTURE END LIST*
D10*
X3754000Y-2792000D02*
X3754000Y-14805000D01*
X18646000Y-2792000D02*
X3754000Y-2792000D01*
X18646000Y-14805000D02*
X18646000Y-2792000D01*
X3754000Y-14805000D02*
X18646000Y-14805000D01*
D11*
X4267000Y-12633000D02*
X4297000Y-12663000D01*
X4297000Y-12633000D02*
X4267000Y-12663000D01*
X4267000Y-12723000D02*
X4297000Y-12753000D01*
X4297000Y-12723000D02*
X4267000Y-12753000D01*
X4314000Y-12571000D02*
X4344000Y-12601000D01*
X4344000Y-12571000D02*
X4314000Y-12601000D01*
X4359000Y-11877000D02*
X4389000Y-11907000D01*
X4389000Y-11877000D02*
X4359000Y-11907000D01*
X4359000Y-11965000D02*
X4389000Y-11995000D01*
X4389000Y-11965000D02*
X4359000Y-11995000D01*
X4392000Y-12971000D02*
X4422000Y-13001000D01*
X4422000Y-12971000D02*
X4392000Y-13001000D01*
X4392000Y-13056000D02*
X4422000Y-13086000D01*
X4422000Y-13056000D02*
X4392000Y-13086000D01*
X4589000Y-3944000D02*
X4619000Y-3974000D01*
X4619000Y-3944000D02*
X4589000Y-3974000D01*
X4720000Y-3945000D02*
X4750000Y-3975000D01*
X4750000Y-3945000D02*
X4720000Y-3975000D01*
X4739000Y-12917000D02*
X4769000Y-12947000D01*
X4769000Y-12917000D02*
X4739000Y-12947000D01*
X4831000Y-9638000D02*
X4861000Y-9668000D01*
X4861000Y-9638000D02*
X4831000Y-9668000D01*
X4854000Y-8134000D02*
X4884000Y-8164000D01*
X4884000Y-8134000D02*
X4854000Y-8164000D01*
X4864000Y-9521000D02*
X4894000Y-9551000D01*
X4894000Y-9521000D02*
X4864000Y-9551000D01*
X4953000Y-8135000D02*
X4983000Y-8165000D01*
X4983000Y-8135000D02*
X4953000Y-8165000D01*
X5035500Y-9016500D02*
X5065500Y-9046500D01*
X5065500Y-9016500D02*
X5035500Y-9046500D01*
X5062000Y-8390000D02*
X5092000Y-8420000D01*
X5092000Y-8390000D02*
X5062000Y-8420000D01*
X5063000Y-8521000D02*
X5093000Y-8551000D01*
X5093000Y-8521000D02*
X5063000Y-8551000D01*
X5091000Y-6006000D02*
X5121000Y-6036000D01*
X5121000Y-6006000D02*
X5091000Y-6036000D01*
X5135000Y-5877000D02*
X5165000Y-5907000D01*
X5165000Y-5877000D02*
X5135000Y-5907000D01*
X5148000Y-8400000D02*
X5178000Y-8430000D01*
X5178000Y-8400000D02*
X5148000Y-8430000D01*
X5149000Y-9017000D02*
X5179000Y-9047000D01*
X5179000Y-9017000D02*
X5149000Y-9047000D01*
X5173000Y-8521000D02*
X5203000Y-8551000D01*
X5203000Y-8521000D02*
X5173000Y-8551000D01*
X5205400Y-13724600D02*
X5235400Y-13754600D01*
X5235400Y-13724600D02*
X5205400Y-13754600D01*
X5233000Y-8623000D02*
X5263000Y-8653000D01*
X5263000Y-8623000D02*
X5233000Y-8653000D01*
X5237000Y-3753000D02*
X5267000Y-3783000D01*
X5267000Y-3753000D02*
X5237000Y-3783000D01*
X5238000Y-3628000D02*
X5268000Y-3658000D01*
X5268000Y-3628000D02*
X5238000Y-3658000D01*
X5273400Y-13724600D02*
X5303400Y-13754600D01*
X5303400Y-13724600D02*
X5273400Y-13754600D01*
X5275000Y-8743000D02*
X5305000Y-8773000D01*
X5305000Y-8743000D02*
X5275000Y-8773000D01*
X5275000Y-8855000D02*
X5305000Y-8885000D01*
X5305000Y-8855000D02*
X5275000Y-8885000D01*
X5336000Y-8599000D02*
X5366000Y-8629000D01*
X5366000Y-8599000D02*
X5336000Y-8629000D01*
X5512000Y-5972000D02*
X5542000Y-6002000D01*
X5542000Y-5972000D02*
X5512000Y-6002000D01*
X5515000Y-6103000D02*
X5545000Y-6133000D01*
X5545000Y-6103000D02*
X5515000Y-6133000D01*
X5590000Y-7440000D02*
X5620000Y-7470000D01*
X5620000Y-7440000D02*
X5590000Y-7470000D01*
X5590000Y-7579000D02*
X5620000Y-7609000D01*
X5620000Y-7579000D02*
X5590000Y-7609000D01*
X5594000Y-4716000D02*
X5624000Y-4746000D01*
X5624000Y-4716000D02*
X5594000Y-4746000D01*
X5613000Y-7067000D02*
X5643000Y-7097000D01*
X5643000Y-7067000D02*
X5613000Y-7097000D01*
X5613000Y-7149000D02*
X5643000Y-7179000D01*
X5643000Y-7149000D02*
X5613000Y-7179000D01*
X5614000Y-6975000D02*
X5644000Y-7005000D01*
X5644000Y-6975000D02*
X5614000Y-7005000D01*
X5618000Y-4600000D02*
X5648000Y-4630000D01*
X5648000Y-4600000D02*
X5618000Y-4630000D01*
X5629000Y-7507000D02*
X5659000Y-7537000D01*
X5659000Y-7507000D02*
X5629000Y-7537000D01*
X5808000Y-4079000D02*
X5838000Y-4109000D01*
X5838000Y-4079000D02*
X5808000Y-4109000D01*
X5810000Y-3962000D02*
X5840000Y-3992000D01*
X5840000Y-3962000D02*
X5810000Y-3992000D01*
X5920000Y-8017000D02*
X5950000Y-8047000D01*
X5950000Y-8017000D02*
X5920000Y-8047000D01*
X5932000Y-9423000D02*
X5962000Y-9453000D01*
X5962000Y-9423000D02*
X5932000Y-9453000D01*
X6013000Y-9506000D02*
X6043000Y-9536000D01*
X6043000Y-9506000D02*
X6013000Y-9536000D01*
X6207000Y-12049000D02*
X6237000Y-12079000D01*
X6237000Y-12049000D02*
X6207000Y-12079000D01*
X6210000Y-11965000D02*
X6240000Y-11995000D01*
X6240000Y-11965000D02*
X6210000Y-11995000D01*
X6299000Y-11978000D02*
X6329000Y-12008000D01*
X6329000Y-11978000D02*
X6299000Y-12008000D01*
X6370000Y-12086000D02*
X6400000Y-12116000D01*
X6400000Y-12086000D02*
X6370000Y-12116000D01*
X6422000Y-9382000D02*
X6452000Y-9412000D01*
X6452000Y-9382000D02*
X6422000Y-9412000D01*
X6497000Y-9314000D02*
X6527000Y-9344000D01*
X6527000Y-9314000D02*
X6497000Y-9344000D01*
X6569000Y-11876000D02*
X6599000Y-11906000D01*
X6599000Y-11876000D02*
X6569000Y-11906000D01*
X6569000Y-11952000D02*
X6599000Y-11982000D01*
X6599000Y-11952000D02*
X6569000Y-11982000D01*
X6596000Y-4121000D02*
X6626000Y-4151000D01*
X6626000Y-4121000D02*
X6596000Y-4151000D01*
X6613000Y-5094000D02*
X6643000Y-5124000D01*
X6643000Y-5094000D02*
X6613000Y-5124000D01*
X6620000Y-4219000D02*
X6650000Y-4249000D01*
X6650000Y-4219000D02*
X6620000Y-4249000D01*
X6641000Y-4058000D02*
X6671000Y-4088000D01*
X6671000Y-4058000D02*
X6641000Y-4088000D01*
X6643000Y-12995000D02*
X6673000Y-13025000D01*
X6673000Y-12995000D02*
X6643000Y-13025000D01*
X6690000Y-6059000D02*
X6720000Y-6089000D01*
X6720000Y-6059000D02*
X6690000Y-6089000D01*
X6690000Y-6142000D02*
X6720000Y-6172000D01*
X6720000Y-6142000D02*
X6690000Y-6172000D01*
X6690000Y-6224000D02*
X6720000Y-6254000D01*
X6720000Y-6224000D02*
X6690000Y-6254000D01*
X6696000Y-11811000D02*
X6726000Y-11841000D01*
X6726000Y-11811000D02*
X6696000Y-11841000D01*
X6707000Y-5094000D02*
X6737000Y-5124000D01*
X6737000Y-5094000D02*
X6707000Y-5124000D01*
X6714000Y-13437000D02*
X6744000Y-13467000D01*
X6744000Y-13437000D02*
X6714000Y-13467000D01*
X6723000Y-4078000D02*
X6753000Y-4108000D01*
X6753000Y-4078000D02*
X6723000Y-4108000D01*
X6732000Y-13038000D02*
X6762000Y-13068000D01*
X6762000Y-13038000D02*
X6732000Y-13068000D01*
X6759000Y-11724000D02*
X6789000Y-11754000D01*
X6789000Y-11724000D02*
X6759000Y-11754000D01*
X6760000Y-13488000D02*
X6790000Y-13518000D01*
X6790000Y-13488000D02*
X6760000Y-13518000D01*
X6769000Y-6433000D02*
X6799000Y-6463000D01*
X6799000Y-6433000D02*
X6769000Y-6463000D01*
X6769000Y-6746000D02*
X6799000Y-6776000D01*
X6799000Y-6746000D02*
X6769000Y-6776000D01*
X6811000Y-13536000D02*
X6841000Y-13566000D01*
X6841000Y-13536000D02*
X6811000Y-13566000D01*
X6822000Y-11811000D02*
X6852000Y-11841000D01*
X6852000Y-11811000D02*
X6822000Y-11841000D01*
X6825000Y-9142000D02*
X6855000Y-9172000D01*
X6855000Y-9142000D02*
X6825000Y-9172000D01*
X6830000Y-6513000D02*
X6860000Y-6543000D01*
X6860000Y-6513000D02*
X6830000Y-6543000D01*
X6834000Y-6673000D02*
X6864000Y-6703000D01*
X6864000Y-6673000D02*
X6834000Y-6703000D01*
X6891000Y-9056000D02*
X6921000Y-9086000D01*
X6921000Y-9056000D02*
X6891000Y-9086000D01*
X6897000Y-6011000D02*
X6927000Y-6041000D01*
X6927000Y-6011000D02*
X6897000Y-6041000D01*
X6898000Y-5926000D02*
X6928000Y-5956000D01*
X6928000Y-5926000D02*
X6898000Y-5956000D01*
X6941000Y-7626000D02*
X6971000Y-7656000D01*
X6971000Y-7626000D02*
X6941000Y-7656000D01*
X6975000Y-7319000D02*
X7005000Y-7349000D01*
X7005000Y-7319000D02*
X6975000Y-7349000D01*
X6976000Y-7554000D02*
X7006000Y-7584000D01*
X7006000Y-7554000D02*
X6976000Y-7584000D01*
X6977000Y-7474000D02*
X7007000Y-7504000D01*
X7007000Y-7474000D02*
X6977000Y-7504000D01*
X6978000Y-7398000D02*
X7008000Y-7428000D01*
X7008000Y-7398000D02*
X6978000Y-7428000D01*
X7033000Y-8482000D02*
X7063000Y-8512000D01*
X7063000Y-8482000D02*
X7033000Y-8512000D01*
X7083000Y-11593000D02*
X7113000Y-11623000D01*
X7113000Y-11593000D02*
X7083000Y-11623000D01*
X7108000Y-8483000D02*
X7138000Y-8513000D01*
X7138000Y-8483000D02*
X7108000Y-8513000D01*
X7145000Y-11725000D02*
X7175000Y-11755000D01*
X7175000Y-11725000D02*
X7145000Y-11755000D01*
X7190000Y-8483000D02*
X7220000Y-8513000D01*
X7220000Y-8483000D02*
X7190000Y-8513000D01*
X7205000Y-11648000D02*
X7235000Y-11678000D01*
X7235000Y-11648000D02*
X7205000Y-11678000D01*
X7215300Y-10284700D02*
X7245300Y-10314700D01*
X7245300Y-10284700D02*
X7215300Y-10314700D01*
X7434300Y-10284700D02*
X7464300Y-10314700D01*
X7464300Y-10284700D02*
X7434300Y-10314700D01*
X7529000Y-13724000D02*
X7559000Y-13754000D01*
X7559000Y-13724000D02*
X7529000Y-13754000D01*
X7549250Y-4685750D02*
X7579250Y-4715750D01*
X7579250Y-4685750D02*
X7549250Y-4715750D01*
X7609000Y-13724000D02*
X7639000Y-13754000D01*
X7639000Y-13724000D02*
X7609000Y-13754000D01*
X7624650Y-10198650D02*
X7654650Y-10228650D01*
X7654650Y-10198650D02*
X7624650Y-10228650D01*
X7660000Y-4662000D02*
X7690000Y-4692000D01*
X7690000Y-4662000D02*
X7660000Y-4692000D01*
X7735000Y-4586000D02*
X7765000Y-4616000D01*
X7765000Y-4586000D02*
X7735000Y-4616000D01*
X7804000Y-4517000D02*
X7834000Y-4547000D01*
X7834000Y-4517000D02*
X7804000Y-4547000D01*
X7862550Y-10141450D02*
X7892550Y-10171450D01*
X7892550Y-10141450D02*
X7862550Y-10171450D01*
X7902000Y-4421000D02*
X7932000Y-4451000D01*
X7932000Y-4421000D02*
X7902000Y-4451000D01*
X8109550Y-10141450D02*
X8139550Y-10171450D01*
X8139550Y-10141450D02*
X8109550Y-10171450D01*
X8257000Y-10755000D02*
X8287000Y-10785000D01*
X8287000Y-10755000D02*
X8257000Y-10785000D01*
X8257000Y-10848000D02*
X8287000Y-10878000D01*
X8287000Y-10848000D02*
X8257000Y-10878000D01*
X8257000Y-10937000D02*
X8287000Y-10967000D01*
X8287000Y-10937000D02*
X8257000Y-10967000D01*
X8292000Y-9522000D02*
X8322000Y-9552000D01*
X8322000Y-9522000D02*
X8292000Y-9552000D01*
X8294000Y-9612000D02*
X8324000Y-9642000D01*
X8324000Y-9612000D02*
X8294000Y-9642000D01*
X8296000Y-9698000D02*
X8326000Y-9728000D01*
X8326000Y-9698000D02*
X8296000Y-9728000D01*
X8296000Y-9796000D02*
X8326000Y-9826000D01*
X8326000Y-9796000D02*
X8296000Y-9826000D01*
X8461000Y-13548000D02*
X8491000Y-13578000D01*
X8491000Y-13548000D02*
X8461000Y-13578000D01*
X8517000Y-10600000D02*
X8547000Y-10630000D01*
X8547000Y-10600000D02*
X8517000Y-10630000D01*
X8517600Y-10678400D02*
X8547600Y-10708400D01*
X8547600Y-10678400D02*
X8517600Y-10708400D01*
X8518000Y-10530000D02*
X8548000Y-10560000D01*
X8548000Y-10530000D02*
X8518000Y-10560000D01*
X8540000Y-13549000D02*
X8570000Y-13579000D01*
X8570000Y-13549000D02*
X8540000Y-13579000D01*
X8614000Y-13549000D02*
X8644000Y-13579000D01*
X8644000Y-13549000D02*
X8614000Y-13579000D01*
X8657000Y-5790000D02*
X8687000Y-5820000D01*
X8687000Y-5790000D02*
X8657000Y-5820000D01*
X8785000Y-5792000D02*
X8815000Y-5822000D01*
X8815000Y-5792000D02*
X8785000Y-5822000D01*
X8883000Y-12678000D02*
X8913000Y-12708000D01*
X8913000Y-12678000D02*
X8883000Y-12708000D01*
X8928500Y-12632500D02*
X8958500Y-12662500D01*
X8958500Y-12632500D02*
X8928500Y-12662500D01*
X8960000Y-13355000D02*
X8990000Y-13385000D01*
X8990000Y-13355000D02*
X8960000Y-13385000D01*
X9032000Y-13355000D02*
X9062000Y-13385000D01*
X9062000Y-13355000D02*
X9032000Y-13385000D01*
X9041500Y-5593500D02*
X9071500Y-5623500D01*
X9071500Y-5593500D02*
X9041500Y-5623500D01*
X9057000Y-6522000D02*
X9087000Y-6552000D01*
X9087000Y-6522000D02*
X9057000Y-6552000D01*
X9057000Y-6643000D02*
X9087000Y-6673000D01*
X9087000Y-6643000D02*
X9057000Y-6673000D01*
X9108000Y-13355000D02*
X9138000Y-13385000D01*
X9138000Y-13355000D02*
X9108000Y-13385000D01*
X9118000Y-7694000D02*
X9148000Y-7724000D01*
X9148000Y-7694000D02*
X9118000Y-7724000D01*
X9147000Y-5593000D02*
X9177000Y-5623000D01*
X9177000Y-5593000D02*
X9147000Y-5623000D01*
X9160000Y-7788000D02*
X9190000Y-7818000D01*
X9190000Y-7788000D02*
X9160000Y-7818000D01*
X9197000Y-7196000D02*
X9227000Y-7226000D01*
X9227000Y-7196000D02*
X9197000Y-7226000D01*
X9219800Y-11544200D02*
X9249800Y-11574200D01*
X9249800Y-11544200D02*
X9219800Y-11574200D01*
X9219800Y-11608200D02*
X9249800Y-11638200D01*
X9249800Y-11608200D02*
X9219800Y-11638200D01*
X9260000Y-7314000D02*
X9290000Y-7344000D01*
X9290000Y-7314000D02*
X9260000Y-7344000D01*
X9263000Y-7237000D02*
X9293000Y-7267000D01*
X9293000Y-7237000D02*
X9263000Y-7267000D01*
X9276000Y-7818000D02*
X9306000Y-7848000D01*
X9306000Y-7818000D02*
X9276000Y-7848000D01*
X9312000Y-5082000D02*
X9342000Y-5112000D01*
X9342000Y-5082000D02*
X9312000Y-5112000D01*
X9332500Y-3794500D02*
X9362500Y-3824500D01*
X9362500Y-3794500D02*
X9332500Y-3824500D01*
X9429000Y-4994000D02*
X9459000Y-5024000D01*
X9459000Y-4994000D02*
X9429000Y-5024000D01*
X9455375Y-3834625D02*
X9485375Y-3864625D01*
X9485375Y-3834625D02*
X9455375Y-3864625D01*
X9528000Y-5094000D02*
X9558000Y-5124000D01*
X9558000Y-5094000D02*
X9528000Y-5124000D01*
X9529000Y-6827000D02*
X9559000Y-6857000D01*
X9559000Y-6827000D02*
X9529000Y-6857000D01*
X9602000Y-11476000D02*
X9632000Y-11506000D01*
X9632000Y-11476000D02*
X9602000Y-11506000D01*
X9618000Y-6826000D02*
X9648000Y-6856000D01*
X9648000Y-6826000D02*
X9618000Y-6856000D01*
X9628000Y-11361000D02*
X9658000Y-11391000D01*
X9658000Y-11361000D02*
X9628000Y-11391000D01*
X9663000Y-9253000D02*
X9693000Y-9283000D01*
X9693000Y-9253000D02*
X9663000Y-9283000D01*
X9674750Y-3936250D02*
X9704750Y-3966250D01*
X9704750Y-3936250D02*
X9674750Y-3966250D01*
X9675000Y-11444000D02*
X9705000Y-11474000D01*
X9705000Y-11444000D02*
X9675000Y-11474000D01*
X9700000Y-6826000D02*
X9730000Y-6856000D01*
X9730000Y-6826000D02*
X9700000Y-6856000D01*
X9736000Y-9255400D02*
X9766000Y-9285400D01*
X9766000Y-9255400D02*
X9736000Y-9285400D01*
X9750000Y-9097000D02*
X9780000Y-9127000D01*
X9780000Y-9097000D02*
X9750000Y-9127000D01*
X9761000Y-13744000D02*
X9791000Y-13774000D01*
X9791000Y-13744000D02*
X9761000Y-13774000D01*
X9793000Y-6824000D02*
X9823000Y-6854000D01*
X9823000Y-6824000D02*
X9793000Y-6854000D01*
X9797000Y-11487000D02*
X9827000Y-11517000D01*
X9827000Y-11487000D02*
X9797000Y-11517000D01*
X9797000Y-11681000D02*
X9827000Y-11711000D01*
X9827000Y-11681000D02*
X9797000Y-11711000D01*
X9813600Y-9255400D02*
X9843600Y-9285400D01*
X9843600Y-9255400D02*
X9813600Y-9285400D01*
X9828000Y-13744000D02*
X9858000Y-13774000D01*
X9858000Y-13744000D02*
X9828000Y-13774000D01*
X9836000Y-8975000D02*
X9866000Y-9005000D01*
X9866000Y-8975000D02*
X9836000Y-9005000D01*
X9838000Y-9100000D02*
X9868000Y-9130000D01*
X9868000Y-9100000D02*
X9838000Y-9130000D01*
X9859500Y-7812500D02*
X9889500Y-7842500D01*
X9889500Y-7812500D02*
X9859500Y-7842500D01*
X9868000Y-11611000D02*
X9898000Y-11641000D01*
X9898000Y-11611000D02*
X9868000Y-11641000D01*
X9876000Y-11503000D02*
X9906000Y-11533000D01*
X9906000Y-11503000D02*
X9876000Y-11533000D01*
X9920000Y-8975000D02*
X9950000Y-9005000D01*
X9950000Y-8975000D02*
X9920000Y-9005000D01*
X9929000Y-9100000D02*
X9959000Y-9130000D01*
X9959000Y-9100000D02*
X9929000Y-9130000D01*
X9962000Y-7830000D02*
X9992000Y-7860000D01*
X9992000Y-7830000D02*
X9962000Y-7860000D01*
X9969400Y-7658600D02*
X9999400Y-7688600D01*
X9999400Y-7658600D02*
X9969400Y-7688600D01*
X9975000Y-5462000D02*
X10005000Y-5492000D01*
X10005000Y-5462000D02*
X9975000Y-5492000D01*
X10005000Y-5280000D02*
X10035000Y-5310000D01*
X10035000Y-5280000D02*
X10005000Y-5310000D01*
X10009000Y-7725000D02*
X10039000Y-7755000D01*
X10039000Y-7725000D02*
X10009000Y-7755000D01*
X10030000Y-5375000D02*
X10060000Y-5405000D01*
X10060000Y-5375000D02*
X10030000Y-5405000D01*
X10153500Y-11407500D02*
X10183500Y-11437500D01*
X10183500Y-11407500D02*
X10153500Y-11437500D01*
X10223000Y-11357000D02*
X10253000Y-11387000D01*
X10253000Y-11357000D02*
X10223000Y-11387000D01*
X10260000Y-8146000D02*
X10290000Y-8176000D01*
X10290000Y-8146000D02*
X10260000Y-8176000D01*
X10277000Y-5246000D02*
X10307000Y-5276000D01*
X10307000Y-5246000D02*
X10277000Y-5276000D01*
X10292000Y-11575000D02*
X10322000Y-11605000D01*
X10322000Y-11575000D02*
X10292000Y-11605000D01*
X10314000Y-5325000D02*
X10344000Y-5355000D01*
X10344000Y-5325000D02*
X10314000Y-5355000D01*
X10344600Y-8146400D02*
X10374600Y-8176400D01*
X10374600Y-8146400D02*
X10344600Y-8176400D01*
X10347000Y-11754000D02*
X10377000Y-11784000D01*
X10377000Y-11754000D02*
X10347000Y-11784000D01*
X10377000Y-11575000D02*
X10407000Y-11605000D01*
X10407000Y-11575000D02*
X10377000Y-11605000D01*
X10420000Y-11754000D02*
X10450000Y-11784000D01*
X10450000Y-11754000D02*
X10420000Y-11784000D01*
X10429000Y-9567000D02*
X10459000Y-9597000D01*
X10459000Y-9567000D02*
X10429000Y-9597000D01*
X10443000Y-9382000D02*
X10473000Y-9412000D01*
X10473000Y-9382000D02*
X10443000Y-9412000D01*
X10452800Y-10467200D02*
X10482800Y-10497200D01*
X10482800Y-10467200D02*
X10452800Y-10497200D01*
X10452800Y-10530200D02*
X10482800Y-10560200D01*
X10482800Y-10530200D02*
X10452800Y-10560200D01*
X10452800Y-10594200D02*
X10482800Y-10624200D01*
X10482800Y-10594200D02*
X10452800Y-10624200D01*
X10533500Y-9568500D02*
X10563500Y-9598500D01*
X10563500Y-9568500D02*
X10533500Y-9598500D01*
X10542000Y-9253000D02*
X10572000Y-9283000D01*
X10572000Y-9253000D02*
X10542000Y-9283000D01*
X10553000Y-9381000D02*
X10583000Y-9411000D01*
X10583000Y-9381000D02*
X10553000Y-9411000D01*
X10621000Y-11038000D02*
X10651000Y-11068000D01*
X10651000Y-11038000D02*
X10621000Y-11068000D01*
X10621000Y-11124000D02*
X10651000Y-11154000D01*
X10651000Y-11124000D02*
X10621000Y-11154000D01*
X10645250Y-11541250D02*
X10675250Y-11571250D01*
X10675250Y-11541250D02*
X10645250Y-11571250D01*
X10674000Y-9223000D02*
X10704000Y-9253000D01*
X10704000Y-9223000D02*
X10674000Y-9253000D01*
X10717000Y-10867000D02*
X10747000Y-10897000D01*
X10747000Y-10867000D02*
X10717000Y-10897000D01*
X10725500Y-11647500D02*
X10755500Y-11677500D01*
X10755500Y-11647500D02*
X10725500Y-11677500D01*
X10787000Y-9840000D02*
X10817000Y-9870000D01*
X10817000Y-9840000D02*
X10787000Y-9870000D01*
X10808000Y-12017000D02*
X10838000Y-12047000D01*
X10838000Y-12017000D02*
X10808000Y-12047000D01*
X10816000Y-10820000D02*
X10846000Y-10850000D01*
X10846000Y-10820000D02*
X10816000Y-10850000D01*
X10856000Y-9900000D02*
X10886000Y-9930000D01*
X10886000Y-9900000D02*
X10856000Y-9930000D01*
X10894000Y-7203000D02*
X10924000Y-7233000D01*
X10924000Y-7203000D02*
X10894000Y-7233000D01*
X10894000Y-7381000D02*
X10924000Y-7411000D01*
X10924000Y-7381000D02*
X10894000Y-7411000D01*
X10896000Y-7286000D02*
X10926000Y-7316000D01*
X10926000Y-7286000D02*
X10896000Y-7316000D01*
X10939000Y-6202000D02*
X10969000Y-6232000D01*
X10969000Y-6202000D02*
X10939000Y-6232000D01*
X10939000Y-6302000D02*
X10969000Y-6332000D01*
X10969000Y-6302000D02*
X10939000Y-6332000D01*
X10940000Y-12019000D02*
X10970000Y-12049000D01*
X10970000Y-12019000D02*
X10940000Y-12049000D01*
X10952000Y-11168000D02*
X10982000Y-11198000D01*
X10982000Y-11168000D02*
X10952000Y-11198000D01*
X10972000Y-4584000D02*
X11002000Y-4614000D01*
X11002000Y-4584000D02*
X10972000Y-4614000D01*
X11002500Y-9962500D02*
X11032500Y-9992500D01*
X11032500Y-9962500D02*
X11002500Y-9992500D01*
X11005000Y-9842000D02*
X11035000Y-9872000D01*
X11035000Y-9842000D02*
X11005000Y-9872000D01*
X11020000Y-7514000D02*
X11050000Y-7544000D01*
X11050000Y-7514000D02*
X11020000Y-7544000D01*
X11036000Y-7372000D02*
X11066000Y-7402000D01*
X11066000Y-7372000D02*
X11036000Y-7402000D01*
X11036000Y-11083000D02*
X11066000Y-11113000D01*
X11066000Y-11083000D02*
X11036000Y-11113000D01*
X11062000Y-4585000D02*
X11092000Y-4615000D01*
X11092000Y-4585000D02*
X11062000Y-4615000D01*
X11065000Y-12018000D02*
X11095000Y-12048000D01*
X11095000Y-12018000D02*
X11065000Y-12048000D01*
X11108000Y-10439000D02*
X11138000Y-10469000D01*
X11138000Y-10439000D02*
X11108000Y-10469000D01*
X11131000Y-9733000D02*
X11161000Y-9763000D01*
X11161000Y-9733000D02*
X11131000Y-9763000D01*
X11139000Y-12669000D02*
X11169000Y-12699000D01*
X11169000Y-12669000D02*
X11139000Y-12699000D01*
X11152000Y-3668000D02*
X11182000Y-3698000D01*
X11182000Y-3668000D02*
X11152000Y-3698000D01*
X11161000Y-13550000D02*
X11191000Y-13580000D01*
X11191000Y-13550000D02*
X11161000Y-13580000D01*
X11165000Y-4584000D02*
X11195000Y-4614000D01*
X11195000Y-4584000D02*
X11165000Y-4614000D01*
X11173000Y-11245000D02*
X11203000Y-11275000D01*
X11203000Y-11245000D02*
X11173000Y-11275000D01*
X11173000Y-11644000D02*
X11203000Y-11674000D01*
X11203000Y-11644000D02*
X11173000Y-11674000D01*
X11175000Y-10922000D02*
X11205000Y-10952000D01*
X11205000Y-10922000D02*
X11175000Y-10952000D01*
X11206000Y-3858000D02*
X11236000Y-3888000D01*
X11236000Y-3858000D02*
X11206000Y-3888000D01*
X11211000Y-12604000D02*
X11241000Y-12634000D01*
X11241000Y-12604000D02*
X11211000Y-12634000D01*
X11223000Y-10437000D02*
X11253000Y-10467000D01*
X11253000Y-10437000D02*
X11223000Y-10467000D01*
X11233000Y-13551000D02*
X11263000Y-13581000D01*
X11263000Y-13551000D02*
X11233000Y-13581000D01*
X11237000Y-9811000D02*
X11267000Y-9841000D01*
X11267000Y-9811000D02*
X11237000Y-9841000D01*
X11244000Y-3668000D02*
X11274000Y-3698000D01*
X11274000Y-3668000D02*
X11244000Y-3698000D01*
X11297000Y-3859000D02*
X11327000Y-3889000D01*
X11327000Y-3859000D02*
X11297000Y-3889000D01*
X11300000Y-13549000D02*
X11330000Y-13579000D01*
X11330000Y-13549000D02*
X11300000Y-13579000D01*
X11535000Y-11732000D02*
X11565000Y-11762000D01*
X11565000Y-11732000D02*
X11535000Y-11762000D01*
X11598000Y-3859000D02*
X11628000Y-3889000D01*
X11628000Y-3859000D02*
X11598000Y-3889000D01*
X11631000Y-11003000D02*
X11661000Y-11033000D01*
X11661000Y-11003000D02*
X11631000Y-11033000D01*
X11646000Y-11730000D02*
X11676000Y-11760000D01*
X11676000Y-11730000D02*
X11646000Y-11760000D01*
X11688000Y-3859000D02*
X11718000Y-3889000D01*
X11718000Y-3859000D02*
X11688000Y-3889000D01*
X11713000Y-11076000D02*
X11743000Y-11106000D01*
X11743000Y-11076000D02*
X11713000Y-11106000D01*
X11714000Y-10640000D02*
X11744000Y-10670000D01*
X11744000Y-10640000D02*
X11714000Y-10670000D01*
X11715000Y-10743000D02*
X11745000Y-10773000D01*
X11745000Y-10743000D02*
X11715000Y-10773000D01*
X11788000Y-11514500D02*
X11818000Y-11544500D01*
X11818000Y-11514500D02*
X11788000Y-11544500D01*
X11821000Y-8219000D02*
X11851000Y-8249000D01*
X11851000Y-8219000D02*
X11821000Y-8249000D01*
X11840500Y-8117500D02*
X11870500Y-8147500D01*
X11870500Y-8117500D02*
X11840500Y-8147500D01*
X11889000Y-11462000D02*
X11919000Y-11492000D01*
X11919000Y-11462000D02*
X11889000Y-11492000D01*
X11936000Y-8187000D02*
X11966000Y-8217000D01*
X11966000Y-8187000D02*
X11936000Y-8217000D01*
X11952000Y-11560000D02*
X11982000Y-11590000D01*
X11982000Y-11560000D02*
X11952000Y-11590000D01*
X12048000Y-9887000D02*
X12078000Y-9917000D01*
X12078000Y-9887000D02*
X12048000Y-9917000D01*
X12065600Y-13753400D02*
X12095600Y-13783400D01*
X12095600Y-13753400D02*
X12065600Y-13783400D01*
X12078000Y-3060000D02*
X12108000Y-3090000D01*
X12108000Y-3060000D02*
X12078000Y-3090000D01*
X12138600Y-13753400D02*
X12168600Y-13783400D01*
X12168600Y-13753400D02*
X12138600Y-13783400D01*
X12155000Y-9887000D02*
X12185000Y-9917000D01*
X12185000Y-9887000D02*
X12155000Y-9917000D01*
X12193000Y-3056000D02*
X12223000Y-3086000D01*
X12223000Y-3056000D02*
X12193000Y-3086000D01*
X12251000Y-9885000D02*
X12281000Y-9915000D01*
X12281000Y-9885000D02*
X12251000Y-9915000D01*
X12802000Y-11742000D02*
X12832000Y-11772000D01*
X12832000Y-11742000D02*
X12802000Y-11772000D01*
X12877000Y-3500000D02*
X12907000Y-3530000D01*
X12907000Y-3500000D02*
X12877000Y-3530000D01*
X12895000Y-11936000D02*
X12925000Y-11966000D01*
X12925000Y-11936000D02*
X12895000Y-11966000D01*
X12896000Y-11742000D02*
X12926000Y-11772000D01*
X12926000Y-11742000D02*
X12896000Y-11772000D01*
X12925000Y-6185000D02*
X12955000Y-6215000D01*
X12955000Y-6185000D02*
X12925000Y-6215000D01*
X12927000Y-6281000D02*
X12957000Y-6311000D01*
X12957000Y-6281000D02*
X12927000Y-6311000D01*
X12944000Y-5129000D02*
X12974000Y-5159000D01*
X12974000Y-5129000D02*
X12944000Y-5159000D01*
X12976000Y-3472000D02*
X13006000Y-3502000D01*
X13006000Y-3472000D02*
X12976000Y-3502000D01*
X13003200Y-11743800D02*
X13033200Y-11773800D01*
X13033200Y-11743800D02*
X13003200Y-11773800D01*
X13006000Y-11937000D02*
X13036000Y-11967000D01*
X13036000Y-11937000D02*
X13006000Y-11967000D01*
X13043000Y-5130000D02*
X13073000Y-5160000D01*
X13073000Y-5130000D02*
X13043000Y-5160000D01*
X13057000Y-5920000D02*
X13087000Y-5950000D01*
X13087000Y-5920000D02*
X13057000Y-5950000D01*
X13067000Y-6047000D02*
X13097000Y-6077000D01*
X13097000Y-6047000D02*
X13067000Y-6077000D01*
X13080000Y-3470000D02*
X13110000Y-3500000D01*
X13110000Y-3470000D02*
X13080000Y-3500000D01*
X13086000Y-6983000D02*
X13116000Y-7013000D01*
X13116000Y-6983000D02*
X13086000Y-7013000D01*
X13179000Y-7029000D02*
X13209000Y-7059000D01*
X13209000Y-7029000D02*
X13179000Y-7059000D01*
X13181000Y-7217000D02*
X13211000Y-7247000D01*
X13211000Y-7217000D02*
X13181000Y-7247000D01*
X13257000Y-3573000D02*
X13287000Y-3603000D01*
X13287000Y-3573000D02*
X13257000Y-3603000D01*
X13324200Y-7625800D02*
X13354200Y-7655800D01*
X13354200Y-7625800D02*
X13324200Y-7655800D01*
X13327000Y-7503000D02*
X13357000Y-7533000D01*
X13357000Y-7503000D02*
X13327000Y-7533000D01*
X13336000Y-3547000D02*
X13366000Y-3577000D01*
X13366000Y-3547000D02*
X13336000Y-3577000D01*
X13354000Y-5130000D02*
X13384000Y-5160000D01*
X13384000Y-5130000D02*
X13354000Y-5160000D01*
X13400000Y-12653000D02*
X13430000Y-12683000D01*
X13430000Y-12653000D02*
X13400000Y-12683000D01*
X13403000Y-3593000D02*
X13433000Y-3623000D01*
X13433000Y-3593000D02*
X13403000Y-3623000D01*
X13418000Y-12747000D02*
X13448000Y-12777000D01*
X13448000Y-12747000D02*
X13418000Y-12777000D01*
X13443000Y-5130000D02*
X13473000Y-5160000D01*
X13473000Y-5130000D02*
X13443000Y-5160000D01*
X13445800Y-9652200D02*
X13475800Y-9682200D01*
X13475800Y-9652200D02*
X13445800Y-9682200D01*
X13445800Y-9793200D02*
X13475800Y-9823200D01*
X13475800Y-9793200D02*
X13445800Y-9823200D01*
X13448000Y-9721000D02*
X13478000Y-9751000D01*
X13478000Y-9721000D02*
X13448000Y-9751000D01*
X13489000Y-12681000D02*
X13519000Y-12711000D01*
X13519000Y-12681000D02*
X13489000Y-12711000D01*
X13599500Y-7471000D02*
X13629500Y-7501000D01*
X13629500Y-7471000D02*
X13599500Y-7501000D01*
X13601000Y-7280000D02*
X13631000Y-7310000D01*
X13631000Y-7280000D02*
X13601000Y-7310000D01*
X13601000Y-7373000D02*
X13631000Y-7403000D01*
X13631000Y-7373000D02*
X13601000Y-7403000D01*
X13853000Y-10559000D02*
X13883000Y-10589000D01*
X13883000Y-10559000D02*
X13853000Y-10589000D01*
X13853000Y-10634000D02*
X13883000Y-10664000D01*
X13883000Y-10634000D02*
X13853000Y-10664000D01*
X13853000Y-10705000D02*
X13883000Y-10735000D01*
X13883000Y-10705000D02*
X13853000Y-10735000D01*
X13871000Y-7896000D02*
X13901000Y-7926000D01*
X13901000Y-7896000D02*
X13871000Y-7926000D01*
X13995000Y-7928000D02*
X14025000Y-7958000D01*
X14025000Y-7928000D02*
X13995000Y-7958000D01*
X13998000Y-11214000D02*
X14028000Y-11244000D01*
X14028000Y-11214000D02*
X13998000Y-11244000D01*
X14015000Y-11129000D02*
X14045000Y-11159000D01*
X14045000Y-11129000D02*
X14015000Y-11159000D01*
X14023000Y-11044000D02*
X14053000Y-11074000D01*
X14053000Y-11044000D02*
X14023000Y-11074000D01*
X14036000Y-7838000D02*
X14066000Y-7868000D01*
X14066000Y-7838000D02*
X14036000Y-7868000D01*
X14041000Y-4436000D02*
X14071000Y-4466000D01*
X14071000Y-4436000D02*
X14041000Y-4466000D01*
X14041000Y-4602000D02*
X14071000Y-4632000D01*
X14071000Y-4602000D02*
X14041000Y-4632000D01*
X14042000Y-4515000D02*
X14072000Y-4545000D01*
X14072000Y-4515000D02*
X14042000Y-4545000D01*
X14242000Y-11418000D02*
X14272000Y-11448000D01*
X14272000Y-11418000D02*
X14242000Y-11448000D01*
X14322000Y-11418000D02*
X14352000Y-11448000D01*
X14352000Y-11418000D02*
X14322000Y-11448000D01*
X14362800Y-13813200D02*
X14392800Y-13843200D01*
X14392800Y-13813200D02*
X14362800Y-13843200D01*
X14408500Y-5348500D02*
X14438500Y-5378500D01*
X14438500Y-5348500D02*
X14408500Y-5378500D01*
X14417200Y-11419800D02*
X14447200Y-11449800D01*
X14447200Y-11419800D02*
X14417200Y-11449800D01*
X14451800Y-13813200D02*
X14481800Y-13843200D01*
X14481800Y-13813200D02*
X14451800Y-13843200D01*
X14489500Y-5348500D02*
X14519500Y-5378500D01*
X14519500Y-5348500D02*
X14489500Y-5378500D01*
X14665000Y-5507000D02*
X14695000Y-5537000D01*
X14695000Y-5507000D02*
X14665000Y-5537000D01*
X14671000Y-5431000D02*
X14701000Y-5461000D01*
X14701000Y-5431000D02*
X14671000Y-5461000D01*
X14731500Y-5542500D02*
X14761500Y-5572500D01*
X14761500Y-5542500D02*
X14731500Y-5572500D01*
X14925000Y-12858000D02*
X14955000Y-12888000D01*
X14955000Y-12858000D02*
X14925000Y-12888000D01*
X15019000Y-12847000D02*
X15049000Y-12877000D01*
X15049000Y-12847000D02*
X15019000Y-12877000D01*
X15104000Y-12837000D02*
X15134000Y-12867000D01*
X15134000Y-12837000D02*
X15104000Y-12867000D01*
X15174000Y-12888000D02*
X15204000Y-12918000D01*
X15204000Y-12888000D02*
X15174000Y-12918000D01*
X15216800Y-10535200D02*
X15246800Y-10565200D01*
X15246800Y-10535200D02*
X15216800Y-10565200D01*
X15216800Y-10693000D02*
X15246800Y-10723000D01*
X15246800Y-10693000D02*
X15216800Y-10723000D01*
X15217000Y-10614000D02*
X15247000Y-10644000D01*
X15247000Y-10614000D02*
X15217000Y-10644000D01*
X15230400Y-6429600D02*
X15260400Y-6459600D01*
X15260400Y-6429600D02*
X15230400Y-6459600D01*
X15231000Y-6581000D02*
X15261000Y-6611000D01*
X15261000Y-6581000D02*
X15231000Y-6611000D01*
X15232000Y-6507000D02*
X15262000Y-6537000D01*
X15262000Y-6507000D02*
X15232000Y-6537000D01*
X15447000Y-12471000D02*
X15477000Y-12501000D01*
X15477000Y-12471000D02*
X15447000Y-12501000D01*
X15454000Y-9955000D02*
X15484000Y-9985000D01*
X15484000Y-9955000D02*
X15454000Y-9985000D01*
X15491000Y-9883000D02*
X15521000Y-9913000D01*
X15521000Y-9883000D02*
X15491000Y-9913000D01*
X15512500Y-12538500D02*
X15542500Y-12568500D01*
X15542500Y-12538500D02*
X15512500Y-12568500D01*
X15522500Y-13723500D02*
X15552500Y-13753500D01*
X15552500Y-13723500D02*
X15522500Y-13753500D01*
X15549000Y-9951000D02*
X15579000Y-9981000D01*
X15579000Y-9951000D02*
X15549000Y-9981000D01*
X15597000Y-13793000D02*
X15627000Y-13823000D01*
X15627000Y-13793000D02*
X15597000Y-13823000D01*
X15628000Y-13070000D02*
X15658000Y-13100000D01*
X15658000Y-13070000D02*
X15628000Y-13100000D01*
X15628600Y-13158400D02*
X15658600Y-13188400D01*
X15658600Y-13158400D02*
X15628600Y-13188400D01*
X15681000Y-13802000D02*
X15711000Y-13832000D01*
X15711000Y-13802000D02*
X15681000Y-13832000D01*
X15692000Y-11954000D02*
X15722000Y-11984000D01*
X15722000Y-11954000D02*
X15692000Y-11984000D01*
X15769000Y-11954000D02*
X15799000Y-11984000D01*
X15799000Y-11954000D02*
X15769000Y-11984000D01*
X15849000Y-11953000D02*
X15879000Y-11983000D01*
X15879000Y-11953000D02*
X15849000Y-11983000D01*
X15853000Y-11707000D02*
X15883000Y-11737000D01*
X15883000Y-11707000D02*
X15853000Y-11737000D01*
X15965000Y-11706000D02*
X15995000Y-11736000D01*
X15995000Y-11706000D02*
X15965000Y-11736000D01*
X16449000Y-13806000D02*
X16479000Y-13836000D01*
X16479000Y-13806000D02*
X16449000Y-13836000D01*
X16486000Y-6262000D02*
X16516000Y-6292000D01*
X16516000Y-6262000D02*
X16486000Y-6292000D01*
X16517000Y-13760000D02*
X16547000Y-13790000D01*
X16547000Y-13760000D02*
X16517000Y-13790000D01*
X16563000Y-6293000D02*
X16593000Y-6323000D01*
X16593000Y-6293000D02*
X16563000Y-6323000D01*
X16613500Y-6344500D02*
X16643500Y-6374500D01*
X16643500Y-6344500D02*
X16613500Y-6374500D01*
X17108000Y-12815000D02*
X17138000Y-12845000D01*
X17138000Y-12815000D02*
X17108000Y-12845000D01*
X17127000Y-12719000D02*
X17157000Y-12749000D01*
X17157000Y-12719000D02*
X17127000Y-12749000D01*
X17224500Y-12763500D02*
X17254500Y-12793500D01*
X17254500Y-12763500D02*
X17224500Y-12793500D01*
X17304500Y-10504500D02*
X17334500Y-10534500D01*
X17334500Y-10504500D02*
X17304500Y-10534500D01*
X17322000Y-13634000D02*
X17352000Y-13664000D01*
X17352000Y-13634000D02*
X17322000Y-13664000D01*
X17323000Y-13547000D02*
X17353000Y-13577000D01*
X17353000Y-13547000D02*
X17323000Y-13577000D01*
X17336000Y-10357000D02*
X17366000Y-10387000D01*
X17366000Y-10357000D02*
X17336000Y-10387000D01*
X17336000Y-10433000D02*
X17366000Y-10463000D01*
X17366000Y-10433000D02*
X17336000Y-10463000D01*
X17382000Y-10903000D02*
X17412000Y-10933000D01*
X17412000Y-10903000D02*
X17382000Y-10933000D01*
X17384000Y-10822000D02*
X17414000Y-10852000D01*
X17414000Y-10822000D02*
X17384000Y-10852000D01*
X17808000Y-13534000D02*
X17838000Y-13564000D01*
X17838000Y-13534000D02*
X17808000Y-13564000D01*
X17808000Y-13645000D02*
X17838000Y-13675000D01*
X17838000Y-13645000D02*
X17808000Y-13675000D01*
X17888000Y-13020000D02*
X17918000Y-13050000D01*
X17918000Y-13020000D02*
X17888000Y-13050000D01*
X17961000Y-12934000D02*
X17991000Y-12964000D01*
X17991000Y-12934000D02*
X17961000Y-12964000D01*
X17961000Y-13010000D02*
X17991000Y-13040000D01*
X17991000Y-13010000D02*
X17961000Y-13040000D01*
X7172500Y-12325000D02*
X7202500Y-12355000D01*
X7202500Y-12325000D02*
X7172500Y-12355000D01*
X7175000Y-13325000D02*
X7205000Y-13355000D01*
X7205000Y-13325000D02*
X7175000Y-13355000D01*
X7429000Y-13325000D02*
X7459000Y-13355000D01*
X7459000Y-13325000D02*
X7429000Y-13355000D01*
X7432500Y-12330000D02*
X7462500Y-12360000D01*
X7462500Y-12330000D02*
X7432500Y-12360000D01*
X7682500Y-12330000D02*
X7712500Y-12360000D01*
X7712500Y-12330000D02*
X7682500Y-12360000D01*
X7683000Y-13325000D02*
X7713000Y-13355000D01*
X7713000Y-13325000D02*
X7683000Y-13355000D01*
X7937000Y-13325000D02*
X7967000Y-13355000D01*
X7967000Y-13325000D02*
X7937000Y-13355000D01*
X7937500Y-12330000D02*
X7967500Y-12360000D01*
X7967500Y-12330000D02*
X7937500Y-12360000D01*
X8430000Y-13325000D02*
X8460000Y-13355000D01*
X8460000Y-13325000D02*
X8430000Y-13355000D01*
X8445000Y-12335000D02*
X8475000Y-12365000D01*
X8475000Y-12335000D02*
X8445000Y-12365000D01*
X7005600Y-10571200D02*
X7035600Y-10601200D01*
X7035600Y-10571200D02*
X7005600Y-10601200D01*
X7005600Y-10671200D02*
X7035600Y-10701200D01*
X7035600Y-10671200D02*
X7005600Y-10701200D01*
X7005600Y-10771200D02*
X7035600Y-10801200D01*
X7035600Y-10771200D02*
X7005600Y-10801200D01*
X7145600Y-10571200D02*
X7175600Y-10601200D01*
X7175600Y-10571200D02*
X7145600Y-10601200D01*
X7145600Y-10671200D02*
X7175600Y-10701200D01*
X7175600Y-10671200D02*
X7145600Y-10701200D01*
X7145600Y-10771200D02*
X7175600Y-10801200D01*
X7175600Y-10771200D02*
X7145600Y-10801200D01*
X4283000Y-6559000D02*
X4313000Y-6589000D01*
X4313000Y-6559000D02*
X4283000Y-6589000D01*
X4283000Y-6813000D02*
X4313000Y-6843000D01*
X4313000Y-6813000D02*
X4283000Y-6843000D01*
X4283000Y-7067000D02*
X4313000Y-7097000D01*
X4313000Y-7067000D02*
X4283000Y-7097000D01*
X4283000Y-7321000D02*
X4313000Y-7351000D01*
X4313000Y-7321000D02*
X4283000Y-7351000D01*
X4283000Y-7814000D02*
X4313000Y-7844000D01*
X4313000Y-7814000D02*
X4283000Y-7844000D01*
X5273000Y-7829000D02*
X5303000Y-7859000D01*
X5303000Y-7829000D02*
X5273000Y-7859000D01*
X5278000Y-6816500D02*
X5308000Y-6846500D01*
X5308000Y-6816500D02*
X5278000Y-6846500D01*
X5278000Y-7066500D02*
X5308000Y-7096500D01*
X5308000Y-7066500D02*
X5278000Y-7096500D01*
X5278000Y-7321500D02*
X5308000Y-7351500D01*
X5308000Y-7321500D02*
X5278000Y-7351500D01*
X5283000Y-6556500D02*
X5313000Y-6586500D01*
X5313000Y-6556500D02*
X5283000Y-6586500D01*
X16065500Y-12410000D02*
X16095500Y-12440000D01*
X16095500Y-12410000D02*
X16065500Y-12440000D01*
X16068000Y-13410000D02*
X16098000Y-13440000D01*
X16098000Y-13410000D02*
X16068000Y-13440000D01*
X16322000Y-13410000D02*
X16352000Y-13440000D01*
X16352000Y-13410000D02*
X16322000Y-13440000D01*
X16325500Y-12415000D02*
X16355500Y-12445000D01*
X16355500Y-12415000D02*
X16325500Y-12445000D01*
X16575500Y-12415000D02*
X16605500Y-12445000D01*
X16605500Y-12415000D02*
X16575500Y-12445000D01*
X16576000Y-13410000D02*
X16606000Y-13440000D01*
X16606000Y-13410000D02*
X16576000Y-13440000D01*
X16830000Y-13410000D02*
X16860000Y-13440000D01*
X16860000Y-13410000D02*
X16830000Y-13440000D01*
X16830500Y-12415000D02*
X16860500Y-12445000D01*
X16860500Y-12415000D02*
X16830500Y-12445000D01*
X17323000Y-13410000D02*
X17353000Y-13440000D01*
X17353000Y-13410000D02*
X17323000Y-13440000D01*
X17338000Y-12420000D02*
X17368000Y-12450000D01*
X17368000Y-12420000D02*
X17338000Y-12450000D01*
X4426000Y-4332000D02*
X4456000Y-4362000D01*
X4456000Y-4332000D02*
X4426000Y-4362000D01*
X4426000Y-4586000D02*
X4456000Y-4616000D01*
X4456000Y-4586000D02*
X4426000Y-4616000D01*
X4426000Y-4840000D02*
X4456000Y-4870000D01*
X4456000Y-4840000D02*
X4426000Y-4870000D01*
X4426000Y-5094000D02*
X4456000Y-5124000D01*
X4456000Y-5094000D02*
X4426000Y-5124000D01*
X4426000Y-5587000D02*
X4456000Y-5617000D01*
X4456000Y-5587000D02*
X4426000Y-5617000D01*
X5416000Y-5602000D02*
X5446000Y-5632000D01*
X5446000Y-5602000D02*
X5416000Y-5632000D01*
X5421000Y-4589500D02*
X5451000Y-4619500D01*
X5451000Y-4589500D02*
X5421000Y-4619500D01*
X5421000Y-4839500D02*
X5451000Y-4869500D01*
X5451000Y-4839500D02*
X5421000Y-4869500D01*
X5421000Y-5094500D02*
X5451000Y-5124500D01*
X5451000Y-5094500D02*
X5421000Y-5124500D01*
X5426000Y-4329500D02*
X5456000Y-4359500D01*
X5456000Y-4329500D02*
X5426000Y-4359500D01*
X12130800Y-11332800D02*
X12160800Y-11362800D01*
X12160800Y-11332800D02*
X12130800Y-11362800D01*
X12145800Y-10342800D02*
X12175800Y-10372800D01*
X12175800Y-10342800D02*
X12145800Y-10372800D01*
X12638300Y-11337800D02*
X12668300Y-11367800D01*
X12668300Y-11337800D02*
X12638300Y-11367800D01*
X12638800Y-10342800D02*
X12668800Y-10372800D01*
X12668800Y-10342800D02*
X12638800Y-10372800D01*
X12892800Y-10342800D02*
X12922800Y-10372800D01*
X12922800Y-10342800D02*
X12892800Y-10372800D01*
X12893300Y-11337800D02*
X12923300Y-11367800D01*
X12923300Y-11337800D02*
X12893300Y-11367800D01*
X13143300Y-11337800D02*
X13173300Y-11367800D01*
X13173300Y-11337800D02*
X13143300Y-11367800D01*
X13146800Y-10342800D02*
X13176800Y-10372800D01*
X13176800Y-10342800D02*
X13146800Y-10372800D01*
X13400800Y-10342800D02*
X13430800Y-10372800D01*
X13430800Y-10342800D02*
X13400800Y-10372800D01*
X13403300Y-11342800D02*
X13433300Y-11372800D01*
X13433300Y-11342800D02*
X13403300Y-11372800D01*
X9060236Y-10981900D02*
X9090236Y-11011900D01*
X9090236Y-10981900D02*
X9060236Y-11011900D01*
X9065236Y-10216900D02*
X9095236Y-10246900D01*
X9095236Y-10216900D02*
X9065236Y-10246900D01*
X9065236Y-10471900D02*
X9095236Y-10501900D01*
X9095236Y-10471900D02*
X9065236Y-10501900D01*
X9065236Y-10721900D02*
X9095236Y-10751900D01*
X9095236Y-10721900D02*
X9065236Y-10751900D01*
X9070236Y-9709400D02*
X9100236Y-9739400D01*
X9100236Y-9709400D02*
X9070236Y-9739400D01*
X10060236Y-9724400D02*
X10090236Y-9754400D01*
X10090236Y-9724400D02*
X10060236Y-9754400D01*
X10060236Y-10217400D02*
X10090236Y-10247400D01*
X10090236Y-10217400D02*
X10060236Y-10247400D01*
X10060236Y-10471400D02*
X10090236Y-10501400D01*
X10090236Y-10471400D02*
X10060236Y-10501400D01*
X10060236Y-10725400D02*
X10090236Y-10755400D01*
X10090236Y-10725400D02*
X10060236Y-10755400D01*
X10060236Y-10979400D02*
X10090236Y-11009400D01*
X10090236Y-10979400D02*
X10060236Y-11009400D01*
X7832000Y-4086000D02*
X7862000Y-4116000D01*
X7862000Y-4086000D02*
X7832000Y-4116000D01*
X7832000Y-4186000D02*
X7862000Y-4216000D01*
X7862000Y-4186000D02*
X7832000Y-4216000D01*
X7832000Y-4286000D02*
X7862000Y-4316000D01*
X7862000Y-4286000D02*
X7832000Y-4316000D01*
X7972000Y-4086000D02*
X8002000Y-4116000D01*
X8002000Y-4086000D02*
X7972000Y-4116000D01*
X7972000Y-4186000D02*
X8002000Y-4216000D01*
X8002000Y-4186000D02*
X7972000Y-4216000D01*
X7972000Y-4286000D02*
X8002000Y-4316000D01*
X8002000Y-4286000D02*
X7972000Y-4316000D01*
X12659000Y-4094000D02*
X12689000Y-4124000D01*
X12689000Y-4094000D02*
X12659000Y-4124000D01*
X12659000Y-4348000D02*
X12689000Y-4378000D01*
X12689000Y-4348000D02*
X12659000Y-4378000D01*
X12659000Y-4602000D02*
X12689000Y-4632000D01*
X12689000Y-4602000D02*
X12659000Y-4632000D01*
X12659000Y-4856000D02*
X12689000Y-4886000D01*
X12689000Y-4856000D02*
X12659000Y-4886000D01*
X12659000Y-5349000D02*
X12689000Y-5379000D01*
X12689000Y-5349000D02*
X12659000Y-5379000D01*
X13649000Y-5364000D02*
X13679000Y-5394000D01*
X13679000Y-5364000D02*
X13649000Y-5394000D01*
X13654000Y-4351500D02*
X13684000Y-4381500D01*
X13684000Y-4351500D02*
X13654000Y-4381500D01*
X13654000Y-4601500D02*
X13684000Y-4631500D01*
X13684000Y-4601500D02*
X13654000Y-4631500D01*
X13654000Y-4856500D02*
X13684000Y-4886500D01*
X13684000Y-4856500D02*
X13654000Y-4886500D01*
X13659000Y-4091500D02*
X13689000Y-4121500D01*
X13689000Y-4091500D02*
X13659000Y-4121500D01*
X15677400Y-11149200D02*
X15707400Y-11179200D01*
X15707400Y-11149200D02*
X15677400Y-11179200D01*
X15692400Y-10159200D02*
X15722400Y-10189200D01*
X15722400Y-10159200D02*
X15692400Y-10189200D01*
X16184900Y-11154200D02*
X16214900Y-11184200D01*
X16214900Y-11154200D02*
X16184900Y-11184200D01*
X16185400Y-10159200D02*
X16215400Y-10189200D01*
X16215400Y-10159200D02*
X16185400Y-10189200D01*
X16439400Y-10159200D02*
X16469400Y-10189200D01*
X16469400Y-10159200D02*
X16439400Y-10189200D01*
X16439900Y-11154200D02*
X16469900Y-11184200D01*
X16469900Y-11154200D02*
X16439900Y-11184200D01*
X16689900Y-11154200D02*
X16719900Y-11184200D01*
X16719900Y-11154200D02*
X16689900Y-11184200D01*
X16693400Y-10159200D02*
X16723400Y-10189200D01*
X16723400Y-10159200D02*
X16693400Y-10189200D01*
X16947400Y-10159200D02*
X16977400Y-10189200D01*
X16977400Y-10159200D02*
X16947400Y-10189200D01*
X16949900Y-11159200D02*
X16979900Y-11189200D01*
X16979900Y-11159200D02*
X16949900Y-11189200D01*
X7363500Y-6355436D02*
X7393500Y-6385436D01*
X7393500Y-6355436D02*
X7363500Y-6385436D01*
X7366000Y-7355436D02*
X7396000Y-7385436D01*
X7396000Y-7355436D02*
X7366000Y-7385436D01*
X7620000Y-7355436D02*
X7650000Y-7385436D01*
X7650000Y-7355436D02*
X7620000Y-7385436D01*
X7623500Y-6360436D02*
X7653500Y-6390436D01*
X7653500Y-6360436D02*
X7623500Y-6390436D01*
X7873500Y-6360436D02*
X7903500Y-6390436D01*
X7903500Y-6360436D02*
X7873500Y-6390436D01*
X7874000Y-7355436D02*
X7904000Y-7385436D01*
X7904000Y-7355436D02*
X7874000Y-7385436D01*
X8128000Y-7355436D02*
X8158000Y-7385436D01*
X8158000Y-7355436D02*
X8128000Y-7385436D01*
X8128500Y-6360436D02*
X8158500Y-6390436D01*
X8158500Y-6360436D02*
X8128500Y-6390436D01*
X8621000Y-7355436D02*
X8651000Y-7385436D01*
X8651000Y-7355436D02*
X8621000Y-7385436D01*
X8636000Y-6365436D02*
X8666000Y-6395436D01*
X8666000Y-6365436D02*
X8636000Y-6395436D01*
X15809000Y-6891000D02*
X15839000Y-6921000D01*
X15839000Y-6891000D02*
X15809000Y-6921000D01*
X15809000Y-7145000D02*
X15839000Y-7175000D01*
X15839000Y-7145000D02*
X15809000Y-7175000D01*
X15809000Y-7399000D02*
X15839000Y-7429000D01*
X15839000Y-7399000D02*
X15809000Y-7429000D01*
X15809000Y-7653000D02*
X15839000Y-7683000D01*
X15839000Y-7653000D02*
X15809000Y-7683000D01*
X15809000Y-8146000D02*
X15839000Y-8176000D01*
X15839000Y-8146000D02*
X15809000Y-8176000D01*
X16799000Y-8161000D02*
X16829000Y-8191000D01*
X16829000Y-8161000D02*
X16799000Y-8191000D01*
X16804000Y-7148500D02*
X16834000Y-7178500D01*
X16834000Y-7148500D02*
X16804000Y-7178500D01*
X16804000Y-7398500D02*
X16834000Y-7428500D01*
X16834000Y-7398500D02*
X16804000Y-7428500D01*
X16804000Y-7653500D02*
X16834000Y-7683500D01*
X16834000Y-7653500D02*
X16804000Y-7683500D01*
X16809000Y-6888500D02*
X16839000Y-6918500D01*
X16839000Y-6888500D02*
X16809000Y-6918500D01*
X4839500Y-12336200D02*
X4869500Y-12366200D01*
X4869500Y-12336200D02*
X4839500Y-12366200D01*
X4842000Y-13336200D02*
X4872000Y-13366200D01*
X4872000Y-13336200D02*
X4842000Y-13366200D01*
X5096000Y-13336200D02*
X5126000Y-13366200D01*
X5126000Y-13336200D02*
X5096000Y-13366200D01*
X5099500Y-12341200D02*
X5129500Y-12371200D01*
X5129500Y-12341200D02*
X5099500Y-12371200D01*
X5349500Y-12341200D02*
X5379500Y-12371200D01*
X5379500Y-12341200D02*
X5349500Y-12371200D01*
X5350000Y-13336200D02*
X5380000Y-13366200D01*
X5380000Y-13336200D02*
X5350000Y-13366200D01*
X5604000Y-13336200D02*
X5634000Y-13366200D01*
X5634000Y-13336200D02*
X5604000Y-13366200D01*
X5604500Y-12341200D02*
X5634500Y-12371200D01*
X5634500Y-12341200D02*
X5604500Y-12371200D01*
X6097000Y-13336200D02*
X6127000Y-13366200D01*
X6127000Y-13336200D02*
X6097000Y-13366200D01*
X6112000Y-12346200D02*
X6142000Y-12376200D01*
X6142000Y-12346200D02*
X6112000Y-12376200D01*
X9394500Y-12353800D02*
X9424500Y-12383800D01*
X9424500Y-12353800D02*
X9394500Y-12383800D01*
X9397000Y-13353800D02*
X9427000Y-13383800D01*
X9427000Y-13353800D02*
X9397000Y-13383800D01*
X9651000Y-13353800D02*
X9681000Y-13383800D01*
X9681000Y-13353800D02*
X9651000Y-13383800D01*
X9654500Y-12358800D02*
X9684500Y-12388800D01*
X9684500Y-12358800D02*
X9654500Y-12388800D01*
X9904500Y-12358800D02*
X9934500Y-12388800D01*
X9934500Y-12358800D02*
X9904500Y-12388800D01*
X9905000Y-13353800D02*
X9935000Y-13383800D01*
X9935000Y-13353800D02*
X9905000Y-13383800D01*
X10159000Y-13353800D02*
X10189000Y-13383800D01*
X10189000Y-13353800D02*
X10159000Y-13383800D01*
X10159500Y-12358800D02*
X10189500Y-12388800D01*
X10189500Y-12358800D02*
X10159500Y-12388800D01*
X10652000Y-13353800D02*
X10682000Y-13383800D01*
X10682000Y-13353800D02*
X10652000Y-13383800D01*
X10667000Y-12363800D02*
X10697000Y-12393800D01*
X10697000Y-12363800D02*
X10667000Y-12393800D01*
X9604200Y-5829200D02*
X9634200Y-5859200D01*
X9634200Y-5829200D02*
X9604200Y-5859200D01*
X9604200Y-6083200D02*
X9634200Y-6113200D01*
X9634200Y-6083200D02*
X9604200Y-6113200D01*
X9604200Y-6337200D02*
X9634200Y-6367200D01*
X9634200Y-6337200D02*
X9604200Y-6367200D01*
X9604200Y-6591200D02*
X9634200Y-6621200D01*
X9634200Y-6591200D02*
X9604200Y-6621200D01*
X9604200Y-7084200D02*
X9634200Y-7114200D01*
X9634200Y-7084200D02*
X9604200Y-7114200D01*
X10594200Y-7099200D02*
X10624200Y-7129200D01*
X10624200Y-7099200D02*
X10594200Y-7129200D01*
X10599200Y-6086700D02*
X10629200Y-6116700D01*
X10629200Y-6086700D02*
X10599200Y-6116700D01*
X10599200Y-6336700D02*
X10629200Y-6366700D01*
X10629200Y-6336700D02*
X10599200Y-6366700D01*
X10599200Y-6591700D02*
X10629200Y-6621700D01*
X10629200Y-6591700D02*
X10599200Y-6621700D01*
X10604200Y-5826700D02*
X10634200Y-5856700D01*
X10634200Y-5826700D02*
X10604200Y-5856700D01*
X11698500Y-12369400D02*
X11728500Y-12399400D01*
X11728500Y-12369400D02*
X11698500Y-12399400D01*
X11701000Y-13369400D02*
X11731000Y-13399400D01*
X11731000Y-13369400D02*
X11701000Y-13399400D01*
X11955000Y-13369400D02*
X11985000Y-13399400D01*
X11985000Y-13369400D02*
X11955000Y-13399400D01*
X11958500Y-12374400D02*
X11988500Y-12404400D01*
X11988500Y-12374400D02*
X11958500Y-12404400D01*
X12208500Y-12374400D02*
X12238500Y-12404400D01*
X12238500Y-12374400D02*
X12208500Y-12404400D01*
X12209000Y-13369400D02*
X12239000Y-13399400D01*
X12239000Y-13369400D02*
X12209000Y-13399400D01*
X12463000Y-13369400D02*
X12493000Y-13399400D01*
X12493000Y-13369400D02*
X12463000Y-13399400D01*
X12463500Y-12374400D02*
X12493500Y-12404400D01*
X12493500Y-12374400D02*
X12463500Y-12404400D01*
X12956000Y-13369400D02*
X12986000Y-13399400D01*
X12986000Y-13369400D02*
X12956000Y-13399400D01*
X12971000Y-12379400D02*
X13001000Y-12409400D01*
X13001000Y-12379400D02*
X12971000Y-12409400D01*
X11594000Y-7871000D02*
X11624000Y-7901000D01*
X11624000Y-7871000D02*
X11594000Y-7901000D01*
X11609000Y-6881000D02*
X11639000Y-6911000D01*
X11639000Y-6881000D02*
X11609000Y-6911000D01*
X12101500Y-7876000D02*
X12131500Y-7906000D01*
X12131500Y-7876000D02*
X12101500Y-7906000D01*
X12102000Y-6881000D02*
X12132000Y-6911000D01*
X12132000Y-6881000D02*
X12102000Y-6911000D01*
X12356000Y-6881000D02*
X12386000Y-6911000D01*
X12386000Y-6881000D02*
X12356000Y-6911000D01*
X12356500Y-7876000D02*
X12386500Y-7906000D01*
X12386500Y-7876000D02*
X12356500Y-7906000D01*
X12606500Y-7876000D02*
X12636500Y-7906000D01*
X12636500Y-7876000D02*
X12606500Y-7906000D01*
X12610000Y-6881000D02*
X12640000Y-6911000D01*
X12640000Y-6881000D02*
X12610000Y-6911000D01*
X12864000Y-6881000D02*
X12894000Y-6911000D01*
X12894000Y-6881000D02*
X12864000Y-6911000D01*
X12866500Y-7881000D02*
X12896500Y-7911000D01*
X12896500Y-7881000D02*
X12866500Y-7911000D01*
X13914100Y-12422200D02*
X13944100Y-12452200D01*
X13944100Y-12422200D02*
X13914100Y-12452200D01*
X13916600Y-13422200D02*
X13946600Y-13452200D01*
X13946600Y-13422200D02*
X13916600Y-13452200D01*
X14170600Y-13422200D02*
X14200600Y-13452200D01*
X14200600Y-13422200D02*
X14170600Y-13452200D01*
X14174100Y-12427200D02*
X14204100Y-12457200D01*
X14204100Y-12427200D02*
X14174100Y-12457200D01*
X14424100Y-12427200D02*
X14454100Y-12457200D01*
X14454100Y-12427200D02*
X14424100Y-12457200D01*
X14424600Y-13422200D02*
X14454600Y-13452200D01*
X14454600Y-13422200D02*
X14424600Y-13452200D01*
X14678600Y-13422200D02*
X14708600Y-13452200D01*
X14708600Y-13422200D02*
X14678600Y-13452200D01*
X14679100Y-12427200D02*
X14709100Y-12457200D01*
X14709100Y-12427200D02*
X14679100Y-12457200D01*
X15171600Y-13422200D02*
X15201600Y-13452200D01*
X15201600Y-13422200D02*
X15171600Y-13452200D01*
X15186600Y-12432200D02*
X15216600Y-12462200D01*
X15216600Y-12432200D02*
X15186600Y-12462200D01*
X13842400Y-6042200D02*
X13872400Y-6072200D01*
X13872400Y-6042200D02*
X13842400Y-6072200D01*
X13842400Y-6296200D02*
X13872400Y-6326200D01*
X13872400Y-6296200D02*
X13842400Y-6326200D01*
X13842400Y-6550200D02*
X13872400Y-6580200D01*
X13872400Y-6550200D02*
X13842400Y-6580200D01*
X13842400Y-6804200D02*
X13872400Y-6834200D01*
X13872400Y-6804200D02*
X13842400Y-6834200D01*
X13842400Y-7297200D02*
X13872400Y-7327200D01*
X13872400Y-7297200D02*
X13842400Y-7327200D01*
X14832400Y-7312200D02*
X14862400Y-7342200D01*
X14862400Y-7312200D02*
X14832400Y-7342200D01*
X14837400Y-6299700D02*
X14867400Y-6329700D01*
X14867400Y-6299700D02*
X14837400Y-6329700D01*
X14837400Y-6549700D02*
X14867400Y-6579700D01*
X14867400Y-6549700D02*
X14837400Y-6579700D01*
X14837400Y-6804700D02*
X14867400Y-6834700D01*
X14867400Y-6804700D02*
X14837400Y-6834700D01*
X14842400Y-6039700D02*
X14872400Y-6069700D01*
X14872400Y-6039700D02*
X14842400Y-6069700D01*
X18068000Y-3269000D02*
G75*
G03*
X18068000Y-3269000I-25000J0D01*
G01*
X18138294Y-3099294D02*
G75*
G03*
X18138294Y-3099294I-25000J0D01*
G01*
X18138294Y-3438706D02*
G75*
G03*
X18138294Y-3438706I-25000J0D01*
G01*
X18308000Y-3029000D02*
G75*
G03*
X18308000Y-3029000I-25000J0D01*
G01*
X18308000Y-3509000D02*
G75*
G03*
X18308000Y-3509000I-25000J0D01*
G01*
X18477706Y-3099294D02*
G75*
G03*
X18477706Y-3099294I-25000J0D01*
G01*
X18477706Y-3438706D02*
G75*
G03*
X18477706Y-3438706I-25000J0D01*
G01*
X18548000Y-3269000D02*
G75*
G03*
X18548000Y-3269000I-25000J0D01*
G01*
X6039500Y-9012000D02*
G75*
G03*
X6039500Y-9012000I-25000J0D01*
G01*
X6098811Y-8868811D02*
G75*
G03*
X6098811Y-8868811I-25000J0D01*
G01*
X6098811Y-9155189D02*
G75*
G03*
X6098811Y-9155189I-25000J0D01*
G01*
X6242000Y-8809500D02*
G75*
G03*
X6242000Y-8809500I-25000J0D01*
G01*
X6242000Y-9214500D02*
G75*
G03*
X6242000Y-9214500I-25000J0D01*
G01*
X6385189Y-8868811D02*
G75*
G03*
X6385189Y-8868811I-25000J0D01*
G01*
X6385189Y-9155189D02*
G75*
G03*
X6385189Y-9155189I-25000J0D01*
G01*
X6444500Y-9012000D02*
G75*
G03*
X6444500Y-9012000I-25000J0D01*
G01*
X10939500Y-3212000D02*
G75*
G03*
X10939500Y-3212000I-25000J0D01*
G01*
X10998811Y-3068811D02*
G75*
G03*
X10998811Y-3068811I-25000J0D01*
G01*
X10998811Y-3355189D02*
G75*
G03*
X10998811Y-3355189I-25000J0D01*
G01*
X11142000Y-3009500D02*
G75*
G03*
X11142000Y-3009500I-25000J0D01*
G01*
X11142000Y-3414500D02*
G75*
G03*
X11142000Y-3414500I-25000J0D01*
G01*
X11285189Y-3068811D02*
G75*
G03*
X11285189Y-3068811I-25000J0D01*
G01*
X11285189Y-3355189D02*
G75*
G03*
X11285189Y-3355189I-25000J0D01*
G01*
X11344500Y-3212000D02*
G75*
G03*
X11344500Y-3212000I-25000J0D01*
G01*
X10939500Y-9012000D02*
G75*
G03*
X10939500Y-9012000I-25000J0D01*
G01*
X10998811Y-8868811D02*
G75*
G03*
X10998811Y-8868811I-25000J0D01*
G01*
X10998811Y-9155189D02*
G75*
G03*
X10998811Y-9155189I-25000J0D01*
G01*
X11142000Y-8809500D02*
G75*
G03*
X11142000Y-8809500I-25000J0D01*
G01*
X11142000Y-9214500D02*
G75*
G03*
X11142000Y-9214500I-25000J0D01*
G01*
X11285189Y-8868811D02*
G75*
G03*
X11285189Y-8868811I-25000J0D01*
G01*
X11285189Y-9155189D02*
G75*
G03*
X11285189Y-9155189I-25000J0D01*
G01*
X11344500Y-9012000D02*
G75*
G03*
X11344500Y-9012000I-25000J0D01*
G01*
X4253000Y-3269000D02*
G75*
G03*
X4253000Y-3269000I-25000J0D01*
G01*
X4323294Y-3099294D02*
G75*
G03*
X4323294Y-3099294I-25000J0D01*
G01*
X4323294Y-3438706D02*
G75*
G03*
X4323294Y-3438706I-25000J0D01*
G01*
X4493000Y-3029000D02*
G75*
G03*
X4493000Y-3029000I-25000J0D01*
G01*
X4493000Y-3509000D02*
G75*
G03*
X4493000Y-3509000I-25000J0D01*
G01*
X4662706Y-3099294D02*
G75*
G03*
X4662706Y-3099294I-25000J0D01*
G01*
X4662706Y-3438706D02*
G75*
G03*
X4662706Y-3438706I-25000J0D01*
G01*
X4733000Y-3269000D02*
G75*
G03*
X4733000Y-3269000I-25000J0D01*
G01*
X18068000Y-14450000D02*
G75*
G03*
X18068000Y-14450000I-25000J0D01*
G01*
X18138294Y-14280294D02*
G75*
G03*
X18138294Y-14280294I-25000J0D01*
G01*
X18138294Y-14619706D02*
G75*
G03*
X18138294Y-14619706I-25000J0D01*
G01*
X18308000Y-14210000D02*
G75*
G03*
X18308000Y-14210000I-25000J0D01*
G01*
X18308000Y-14690000D02*
G75*
G03*
X18308000Y-14690000I-25000J0D01*
G01*
X18477706Y-14280294D02*
G75*
G03*
X18477706Y-14280294I-25000J0D01*
G01*
X18477706Y-14619706D02*
G75*
G03*
X18477706Y-14619706I-25000J0D01*
G01*
X18548000Y-14450000D02*
G75*
G03*
X18548000Y-14450000I-25000J0D01*
G01*
X6039500Y-3212000D02*
G75*
G03*
X6039500Y-3212000I-25000J0D01*
G01*
X6098811Y-3068811D02*
G75*
G03*
X6098811Y-3068811I-25000J0D01*
G01*
X6098811Y-3355189D02*
G75*
G03*
X6098811Y-3355189I-25000J0D01*
G01*
X6242000Y-3009500D02*
G75*
G03*
X6242000Y-3009500I-25000J0D01*
G01*
X6242000Y-3414500D02*
G75*
G03*
X6242000Y-3414500I-25000J0D01*
G01*
X6385189Y-3068811D02*
G75*
G03*
X6385189Y-3068811I-25000J0D01*
G01*
X6385189Y-3355189D02*
G75*
G03*
X6385189Y-3355189I-25000J0D01*
G01*
X6444500Y-3212000D02*
G75*
G03*
X6444500Y-3212000I-25000J0D01*
G01*
X4253000Y-14448000D02*
G75*
G03*
X4253000Y-14448000I-25000J0D01*
G01*
X4323294Y-14278294D02*
G75*
G03*
X4323294Y-14278294I-25000J0D01*
G01*
X4323294Y-14617706D02*
G75*
G03*
X4323294Y-14617706I-25000J0D01*
G01*
X4493000Y-14208000D02*
G75*
G03*
X4493000Y-14208000I-25000J0D01*
G01*
X4493000Y-14688000D02*
G75*
G03*
X4493000Y-14688000I-25000J0D01*
G01*
X4662706Y-14278294D02*
G75*
G03*
X4662706Y-14278294I-25000J0D01*
G01*
X4662706Y-14617706D02*
G75*
G03*
X4662706Y-14617706I-25000J0D01*
G01*
X4733000Y-14448000D02*
G75*
G03*
X4733000Y-14448000I-25000J0D01*
G01*
X6090000Y-3663000D02*
X6090000Y-3763000D01*
X6040000Y-3713000D02*
X6140000Y-3713000D01*
X6090000Y-3917000D02*
X6090000Y-4017000D01*
X6040000Y-3967000D02*
X6140000Y-3967000D01*
X6090000Y-4171000D02*
X6090000Y-4271000D01*
X6040000Y-4221000D02*
X6140000Y-4221000D01*
X6090000Y-4425000D02*
X6090000Y-4525000D01*
X6040000Y-4475000D02*
X6140000Y-4475000D01*
X6090000Y-4679000D02*
X6090000Y-4779000D01*
X6040000Y-4729000D02*
X6140000Y-4729000D01*
X6090000Y-4933000D02*
X6090000Y-5033000D01*
X6040000Y-4983000D02*
X6140000Y-4983000D01*
X6090000Y-5187000D02*
X6090000Y-5287000D01*
X6040000Y-5237000D02*
X6140000Y-5237000D01*
X6090000Y-5441000D02*
X6090000Y-5541000D01*
X6040000Y-5491000D02*
X6140000Y-5491000D01*
X6090000Y-5695000D02*
X6090000Y-5795000D01*
X6040000Y-5745000D02*
X6140000Y-5745000D01*
X6090000Y-5949000D02*
X6090000Y-6049000D01*
X6040000Y-5999000D02*
X6140000Y-5999000D01*
X6090000Y-6203000D02*
X6090000Y-6303000D01*
X6040000Y-6253000D02*
X6140000Y-6253000D01*
X6090000Y-6457000D02*
X6090000Y-6557000D01*
X6040000Y-6507000D02*
X6140000Y-6507000D01*
X6090000Y-6711000D02*
X6090000Y-6811000D01*
X6040000Y-6761000D02*
X6140000Y-6761000D01*
X6090000Y-6965000D02*
X6090000Y-7065000D01*
X6040000Y-7015000D02*
X6140000Y-7015000D01*
X6090000Y-7219000D02*
X6090000Y-7319000D01*
X6040000Y-7269000D02*
X6140000Y-7269000D01*
X6090000Y-7473000D02*
X6090000Y-7573000D01*
X6040000Y-7523000D02*
X6140000Y-7523000D01*
X6090000Y-7727000D02*
X6090000Y-7827000D01*
X6040000Y-7777000D02*
X6140000Y-7777000D01*
X6090000Y-7981000D02*
X6090000Y-8081000D01*
X6040000Y-8031000D02*
X6140000Y-8031000D01*
X6090000Y-8235000D02*
X6090000Y-8335000D01*
X6040000Y-8285000D02*
X6140000Y-8285000D01*
X6090000Y-8489000D02*
X6090000Y-8589000D01*
X6040000Y-8539000D02*
X6140000Y-8539000D01*
X6344000Y-3663000D02*
X6344000Y-3763000D01*
X6294000Y-3713000D02*
X6394000Y-3713000D01*
X6344000Y-3917000D02*
X6344000Y-4017000D01*
X6294000Y-3967000D02*
X6394000Y-3967000D01*
X6344000Y-4171000D02*
X6344000Y-4271000D01*
X6294000Y-4221000D02*
X6394000Y-4221000D01*
X6344000Y-4425000D02*
X6344000Y-4525000D01*
X6294000Y-4475000D02*
X6394000Y-4475000D01*
X6344000Y-4679000D02*
X6344000Y-4779000D01*
X6294000Y-4729000D02*
X6394000Y-4729000D01*
X6344000Y-4933000D02*
X6344000Y-5033000D01*
X6294000Y-4983000D02*
X6394000Y-4983000D01*
X6344000Y-5187000D02*
X6344000Y-5287000D01*
X6294000Y-5237000D02*
X6394000Y-5237000D01*
X6344000Y-5441000D02*
X6344000Y-5541000D01*
X6294000Y-5491000D02*
X6394000Y-5491000D01*
X6344000Y-5695000D02*
X6344000Y-5795000D01*
X6294000Y-5745000D02*
X6394000Y-5745000D01*
X6344000Y-5949000D02*
X6344000Y-6049000D01*
X6294000Y-5999000D02*
X6394000Y-5999000D01*
X6344000Y-6203000D02*
X6344000Y-6303000D01*
X6294000Y-6253000D02*
X6394000Y-6253000D01*
X6344000Y-6457000D02*
X6344000Y-6557000D01*
X6294000Y-6507000D02*
X6394000Y-6507000D01*
X6344000Y-6711000D02*
X6344000Y-6811000D01*
X6294000Y-6761000D02*
X6394000Y-6761000D01*
X6344000Y-6965000D02*
X6344000Y-7065000D01*
X6294000Y-7015000D02*
X6394000Y-7015000D01*
X6344000Y-7219000D02*
X6344000Y-7319000D01*
X6294000Y-7269000D02*
X6394000Y-7269000D01*
X6344000Y-7473000D02*
X6344000Y-7573000D01*
X6294000Y-7523000D02*
X6394000Y-7523000D01*
X6344000Y-7727000D02*
X6344000Y-7827000D01*
X6294000Y-7777000D02*
X6394000Y-7777000D01*
X6344000Y-7981000D02*
X6344000Y-8081000D01*
X6294000Y-8031000D02*
X6394000Y-8031000D01*
X6344000Y-8235000D02*
X6344000Y-8335000D01*
X6294000Y-8285000D02*
X6394000Y-8285000D01*
X6344000Y-8489000D02*
X6344000Y-8589000D01*
X6294000Y-8539000D02*
X6394000Y-8539000D01*
X7119000Y-3330000D02*
X7119000Y-3430000D01*
X7069000Y-3380000D02*
X7169000Y-3380000D01*
X7619000Y-3330000D02*
X7619000Y-3430000D01*
X7569000Y-3380000D02*
X7669000Y-3380000D01*
X5902600Y-10751200D02*
X5902600Y-10851200D01*
X5852600Y-10801200D02*
X5952600Y-10801200D01*
X5902600Y-11251200D02*
X5902600Y-11351200D01*
X5852600Y-11301200D02*
X5952600Y-11301200D01*
X7230659Y-12620659D02*
X7230659Y-12539341D01*
X7149341Y-12539341D01*
X7149341Y-12620659D01*
X7230659Y-12620659D01*
X7230659Y-13128659D02*
X7230659Y-13047341D01*
X7149341Y-13047341D01*
X7149341Y-13128659D01*
X7230659Y-13128659D01*
X7484659Y-12620659D02*
X7484659Y-12539341D01*
X7403341Y-12539341D01*
X7403341Y-12620659D01*
X7484659Y-12620659D01*
X7484659Y-13128659D02*
X7484659Y-13047341D01*
X7403341Y-13047341D01*
X7403341Y-13128659D01*
X7484659Y-13128659D01*
X7738659Y-12620659D02*
X7738659Y-12539341D01*
X7657341Y-12539341D01*
X7657341Y-12620659D01*
X7738659Y-12620659D01*
X7738659Y-13128659D02*
X7738659Y-13047341D01*
X7657341Y-13047341D01*
X7657341Y-13128659D01*
X7738659Y-13128659D01*
X7992659Y-12620659D02*
X7992659Y-12539341D01*
X7911341Y-12539341D01*
X7911341Y-12620659D01*
X7992659Y-12620659D01*
X7992659Y-13128659D02*
X7992659Y-13047341D01*
X7911341Y-13047341D01*
X7911341Y-13128659D01*
X7992659Y-13128659D01*
X8500659Y-12620659D02*
X8500659Y-12539341D01*
X8419341Y-12539341D01*
X8419341Y-12620659D01*
X8500659Y-12620659D01*
X8500659Y-13128659D02*
X8500659Y-13047341D01*
X8419341Y-13047341D01*
X8419341Y-13128659D01*
X8500659Y-13128659D01*
X4590659Y-6614659D02*
X4590659Y-6533341D01*
X4509341Y-6533341D01*
X4509341Y-6614659D01*
X4590659Y-6614659D01*
X4590659Y-6868659D02*
X4590659Y-6787341D01*
X4509341Y-6787341D01*
X4509341Y-6868659D01*
X4590659Y-6868659D01*
X4590659Y-7122659D02*
X4590659Y-7041341D01*
X4509341Y-7041341D01*
X4509341Y-7122659D01*
X4590659Y-7122659D01*
X4590659Y-7376659D02*
X4590659Y-7295341D01*
X4509341Y-7295341D01*
X4509341Y-7376659D01*
X4590659Y-7376659D01*
X4590659Y-7884659D02*
X4590659Y-7803341D01*
X4509341Y-7803341D01*
X4509341Y-7884659D01*
X4590659Y-7884659D01*
X5098659Y-6614659D02*
X5098659Y-6533341D01*
X5017341Y-6533341D01*
X5017341Y-6614659D01*
X5098659Y-6614659D01*
X5098659Y-6868659D02*
X5098659Y-6787341D01*
X5017341Y-6787341D01*
X5017341Y-6868659D01*
X5098659Y-6868659D01*
X5098659Y-7122659D02*
X5098659Y-7041341D01*
X5017341Y-7041341D01*
X5017341Y-7122659D01*
X5098659Y-7122659D01*
X5098659Y-7376659D02*
X5098659Y-7295341D01*
X5017341Y-7295341D01*
X5017341Y-7376659D01*
X5098659Y-7376659D01*
X5098659Y-7884659D02*
X5098659Y-7803341D01*
X5017341Y-7803341D01*
X5017341Y-7884659D01*
X5098659Y-7884659D01*
X16123659Y-12705659D02*
X16123659Y-12624341D01*
X16042341Y-12624341D01*
X16042341Y-12705659D01*
X16123659Y-12705659D01*
X16123659Y-13213659D02*
X16123659Y-13132341D01*
X16042341Y-13132341D01*
X16042341Y-13213659D01*
X16123659Y-13213659D01*
X16377659Y-12705659D02*
X16377659Y-12624341D01*
X16296341Y-12624341D01*
X16296341Y-12705659D01*
X16377659Y-12705659D01*
X16377659Y-13213659D02*
X16377659Y-13132341D01*
X16296341Y-13132341D01*
X16296341Y-13213659D01*
X16377659Y-13213659D01*
X16631659Y-12705659D02*
X16631659Y-12624341D01*
X16550341Y-12624341D01*
X16550341Y-12705659D01*
X16631659Y-12705659D01*
X16631659Y-13213659D02*
X16631659Y-13132341D01*
X16550341Y-13132341D01*
X16550341Y-13213659D01*
X16631659Y-13213659D01*
X16885659Y-12705659D02*
X16885659Y-12624341D01*
X16804341Y-12624341D01*
X16804341Y-12705659D01*
X16885659Y-12705659D01*
X16885659Y-13213659D02*
X16885659Y-13132341D01*
X16804341Y-13132341D01*
X16804341Y-13213659D01*
X16885659Y-13213659D01*
X17393659Y-12705659D02*
X17393659Y-12624341D01*
X17312341Y-12624341D01*
X17312341Y-12705659D01*
X17393659Y-12705659D01*
X17393659Y-13213659D02*
X17393659Y-13132341D01*
X17312341Y-13132341D01*
X17312341Y-13213659D01*
X17393659Y-13213659D01*
X4733659Y-4387659D02*
X4733659Y-4306341D01*
X4652341Y-4306341D01*
X4652341Y-4387659D01*
X4733659Y-4387659D01*
X4733659Y-4641659D02*
X4733659Y-4560341D01*
X4652341Y-4560341D01*
X4652341Y-4641659D01*
X4733659Y-4641659D01*
X4733659Y-4895659D02*
X4733659Y-4814341D01*
X4652341Y-4814341D01*
X4652341Y-4895659D01*
X4733659Y-4895659D01*
X4733659Y-5149659D02*
X4733659Y-5068341D01*
X4652341Y-5068341D01*
X4652341Y-5149659D01*
X4733659Y-5149659D01*
X4733659Y-5657659D02*
X4733659Y-5576341D01*
X4652341Y-5576341D01*
X4652341Y-5657659D01*
X4733659Y-5657659D01*
X5241659Y-4387659D02*
X5241659Y-4306341D01*
X5160341Y-4306341D01*
X5160341Y-4387659D01*
X5241659Y-4387659D01*
X5241659Y-4641659D02*
X5241659Y-4560341D01*
X5160341Y-4560341D01*
X5160341Y-4641659D01*
X5241659Y-4641659D01*
X5241659Y-4895659D02*
X5241659Y-4814341D01*
X5160341Y-4814341D01*
X5160341Y-4895659D01*
X5241659Y-4895659D01*
X5241659Y-5149659D02*
X5241659Y-5068341D01*
X5160341Y-5068341D01*
X5160341Y-5149659D01*
X5241659Y-5149659D01*
X5241659Y-5657659D02*
X5241659Y-5576341D01*
X5160341Y-5576341D01*
X5160341Y-5657659D01*
X5241659Y-5657659D01*
X12186459Y-10650459D02*
X12186459Y-10569141D01*
X12105141Y-10569141D01*
X12105141Y-10650459D01*
X12186459Y-10650459D01*
X12186459Y-11158459D02*
X12186459Y-11077141D01*
X12105141Y-11077141D01*
X12105141Y-11158459D01*
X12186459Y-11158459D01*
X12694459Y-10650459D02*
X12694459Y-10569141D01*
X12613141Y-10569141D01*
X12613141Y-10650459D01*
X12694459Y-10650459D01*
X12694459Y-11158459D02*
X12694459Y-11077141D01*
X12613141Y-11077141D01*
X12613141Y-11158459D01*
X12694459Y-11158459D01*
X12948459Y-10650459D02*
X12948459Y-10569141D01*
X12867141Y-10569141D01*
X12867141Y-10650459D01*
X12948459Y-10650459D01*
X12948459Y-11158459D02*
X12948459Y-11077141D01*
X12867141Y-11077141D01*
X12867141Y-11158459D01*
X12948459Y-11158459D01*
X13202459Y-10650459D02*
X13202459Y-10569141D01*
X13121141Y-10569141D01*
X13121141Y-10650459D01*
X13202459Y-10650459D01*
X13202459Y-11158459D02*
X13202459Y-11077141D01*
X13121141Y-11077141D01*
X13121141Y-11158459D01*
X13202459Y-11158459D01*
X13456459Y-10650459D02*
X13456459Y-10569141D01*
X13375141Y-10569141D01*
X13375141Y-10650459D01*
X13456459Y-10650459D01*
X13456459Y-11158459D02*
X13456459Y-11077141D01*
X13375141Y-11077141D01*
X13375141Y-11158459D01*
X13456459Y-11158459D01*
X9355895Y-9765059D02*
X9355895Y-9683741D01*
X9274577Y-9683741D01*
X9274577Y-9765059D01*
X9355895Y-9765059D01*
X9355895Y-10273059D02*
X9355895Y-10191741D01*
X9274577Y-10191741D01*
X9274577Y-10273059D01*
X9355895Y-10273059D01*
X9355895Y-10527059D02*
X9355895Y-10445741D01*
X9274577Y-10445741D01*
X9274577Y-10527059D01*
X9355895Y-10527059D01*
X9355895Y-10781059D02*
X9355895Y-10699741D01*
X9274577Y-10699741D01*
X9274577Y-10781059D01*
X9355895Y-10781059D01*
X9355895Y-11035059D02*
X9355895Y-10953741D01*
X9274577Y-10953741D01*
X9274577Y-11035059D01*
X9355895Y-11035059D01*
X9863895Y-9765059D02*
X9863895Y-9683741D01*
X9782577Y-9683741D01*
X9782577Y-9765059D01*
X9863895Y-9765059D01*
X9863895Y-10273059D02*
X9863895Y-10191741D01*
X9782577Y-10191741D01*
X9782577Y-10273059D01*
X9863895Y-10273059D01*
X9863895Y-10527059D02*
X9863895Y-10445741D01*
X9782577Y-10445741D01*
X9782577Y-10527059D01*
X9863895Y-10527059D01*
X9863895Y-10781059D02*
X9863895Y-10699741D01*
X9782577Y-10699741D01*
X9782577Y-10781059D01*
X9863895Y-10781059D01*
X9863895Y-11035059D02*
X9863895Y-10953741D01*
X9782577Y-10953741D01*
X9782577Y-11035059D01*
X9863895Y-11035059D01*
X12966659Y-4149659D02*
X12966659Y-4068341D01*
X12885341Y-4068341D01*
X12885341Y-4149659D01*
X12966659Y-4149659D01*
X12966659Y-4403659D02*
X12966659Y-4322341D01*
X12885341Y-4322341D01*
X12885341Y-4403659D01*
X12966659Y-4403659D01*
X12966659Y-4657659D02*
X12966659Y-4576341D01*
X12885341Y-4576341D01*
X12885341Y-4657659D01*
X12966659Y-4657659D01*
X12966659Y-4911659D02*
X12966659Y-4830341D01*
X12885341Y-4830341D01*
X12885341Y-4911659D01*
X12966659Y-4911659D01*
X12966659Y-5419659D02*
X12966659Y-5338341D01*
X12885341Y-5338341D01*
X12885341Y-5419659D01*
X12966659Y-5419659D01*
X13474659Y-4149659D02*
X13474659Y-4068341D01*
X13393341Y-4068341D01*
X13393341Y-4149659D01*
X13474659Y-4149659D01*
X13474659Y-4403659D02*
X13474659Y-4322341D01*
X13393341Y-4322341D01*
X13393341Y-4403659D01*
X13474659Y-4403659D01*
X13474659Y-4657659D02*
X13474659Y-4576341D01*
X13393341Y-4576341D01*
X13393341Y-4657659D01*
X13474659Y-4657659D01*
X13474659Y-4911659D02*
X13474659Y-4830341D01*
X13393341Y-4830341D01*
X13393341Y-4911659D01*
X13474659Y-4911659D01*
X13474659Y-5419659D02*
X13474659Y-5338341D01*
X13393341Y-5338341D01*
X13393341Y-5419659D01*
X13474659Y-5419659D01*
X15733059Y-10466859D02*
X15733059Y-10385541D01*
X15651741Y-10385541D01*
X15651741Y-10466859D01*
X15733059Y-10466859D01*
X15733059Y-10974859D02*
X15733059Y-10893541D01*
X15651741Y-10893541D01*
X15651741Y-10974859D01*
X15733059Y-10974859D01*
X16241059Y-10466859D02*
X16241059Y-10385541D01*
X16159741Y-10385541D01*
X16159741Y-10466859D01*
X16241059Y-10466859D01*
X16241059Y-10974859D02*
X16241059Y-10893541D01*
X16159741Y-10893541D01*
X16159741Y-10974859D01*
X16241059Y-10974859D01*
X16495059Y-10466859D02*
X16495059Y-10385541D01*
X16413741Y-10385541D01*
X16413741Y-10466859D01*
X16495059Y-10466859D01*
X16495059Y-10974859D02*
X16495059Y-10893541D01*
X16413741Y-10893541D01*
X16413741Y-10974859D01*
X16495059Y-10974859D01*
X16749059Y-10466859D02*
X16749059Y-10385541D01*
X16667741Y-10385541D01*
X16667741Y-10466859D01*
X16749059Y-10466859D01*
X16749059Y-10974859D02*
X16749059Y-10893541D01*
X16667741Y-10893541D01*
X16667741Y-10974859D01*
X16749059Y-10974859D01*
X17003059Y-10466859D02*
X17003059Y-10385541D01*
X16921741Y-10385541D01*
X16921741Y-10466859D01*
X17003059Y-10466859D01*
X17003059Y-10974859D02*
X17003059Y-10893541D01*
X16921741Y-10893541D01*
X16921741Y-10974859D01*
X17003059Y-10974859D01*
X7421659Y-6651095D02*
X7421659Y-6569777D01*
X7340341Y-6569777D01*
X7340341Y-6651095D01*
X7421659Y-6651095D01*
X7421659Y-7159095D02*
X7421659Y-7077777D01*
X7340341Y-7077777D01*
X7340341Y-7159095D01*
X7421659Y-7159095D01*
X7675659Y-6651095D02*
X7675659Y-6569777D01*
X7594341Y-6569777D01*
X7594341Y-6651095D01*
X7675659Y-6651095D01*
X7675659Y-7159095D02*
X7675659Y-7077777D01*
X7594341Y-7077777D01*
X7594341Y-7159095D01*
X7675659Y-7159095D01*
X7929659Y-6651095D02*
X7929659Y-6569777D01*
X7848341Y-6569777D01*
X7848341Y-6651095D01*
X7929659Y-6651095D01*
X7929659Y-7159095D02*
X7929659Y-7077777D01*
X7848341Y-7077777D01*
X7848341Y-7159095D01*
X7929659Y-7159095D01*
X8183659Y-6651095D02*
X8183659Y-6569777D01*
X8102341Y-6569777D01*
X8102341Y-6651095D01*
X8183659Y-6651095D01*
X8183659Y-7159095D02*
X8183659Y-7077777D01*
X8102341Y-7077777D01*
X8102341Y-7159095D01*
X8183659Y-7159095D01*
X8691659Y-6651095D02*
X8691659Y-6569777D01*
X8610341Y-6569777D01*
X8610341Y-6651095D01*
X8691659Y-6651095D01*
X8691659Y-7159095D02*
X8691659Y-7077777D01*
X8610341Y-7077777D01*
X8610341Y-7159095D01*
X8691659Y-7159095D01*
X16116659Y-6946659D02*
X16116659Y-6865341D01*
X16035341Y-6865341D01*
X16035341Y-6946659D01*
X16116659Y-6946659D01*
X16116659Y-7200659D02*
X16116659Y-7119341D01*
X16035341Y-7119341D01*
X16035341Y-7200659D01*
X16116659Y-7200659D01*
X16116659Y-7454659D02*
X16116659Y-7373341D01*
X16035341Y-7373341D01*
X16035341Y-7454659D01*
X16116659Y-7454659D01*
X16116659Y-7708659D02*
X16116659Y-7627341D01*
X16035341Y-7627341D01*
X16035341Y-7708659D01*
X16116659Y-7708659D01*
X16116659Y-8216659D02*
X16116659Y-8135341D01*
X16035341Y-8135341D01*
X16035341Y-8216659D01*
X16116659Y-8216659D01*
X16624659Y-6946659D02*
X16624659Y-6865341D01*
X16543341Y-6865341D01*
X16543341Y-6946659D01*
X16624659Y-6946659D01*
X16624659Y-7200659D02*
X16624659Y-7119341D01*
X16543341Y-7119341D01*
X16543341Y-7200659D01*
X16624659Y-7200659D01*
X16624659Y-7454659D02*
X16624659Y-7373341D01*
X16543341Y-7373341D01*
X16543341Y-7454659D01*
X16624659Y-7454659D01*
X16624659Y-7708659D02*
X16624659Y-7627341D01*
X16543341Y-7627341D01*
X16543341Y-7708659D01*
X16624659Y-7708659D01*
X16624659Y-8216659D02*
X16624659Y-8135341D01*
X16543341Y-8135341D01*
X16543341Y-8216659D01*
X16624659Y-8216659D01*
X4897659Y-12631859D02*
X4897659Y-12550541D01*
X4816341Y-12550541D01*
X4816341Y-12631859D01*
X4897659Y-12631859D01*
X4897659Y-13139859D02*
X4897659Y-13058541D01*
X4816341Y-13058541D01*
X4816341Y-13139859D01*
X4897659Y-13139859D01*
X5151659Y-12631859D02*
X5151659Y-12550541D01*
X5070341Y-12550541D01*
X5070341Y-12631859D01*
X5151659Y-12631859D01*
X5151659Y-13139859D02*
X5151659Y-13058541D01*
X5070341Y-13058541D01*
X5070341Y-13139859D01*
X5151659Y-13139859D01*
X5405659Y-12631859D02*
X5405659Y-12550541D01*
X5324341Y-12550541D01*
X5324341Y-12631859D01*
X5405659Y-12631859D01*
X5405659Y-13139859D02*
X5405659Y-13058541D01*
X5324341Y-13058541D01*
X5324341Y-13139859D01*
X5405659Y-13139859D01*
X5659659Y-12631859D02*
X5659659Y-12550541D01*
X5578341Y-12550541D01*
X5578341Y-12631859D01*
X5659659Y-12631859D01*
X5659659Y-13139859D02*
X5659659Y-13058541D01*
X5578341Y-13058541D01*
X5578341Y-13139859D01*
X5659659Y-13139859D01*
X6167659Y-12631859D02*
X6167659Y-12550541D01*
X6086341Y-12550541D01*
X6086341Y-12631859D01*
X6167659Y-12631859D01*
X6167659Y-13139859D02*
X6167659Y-13058541D01*
X6086341Y-13058541D01*
X6086341Y-13139859D01*
X6167659Y-13139859D01*
X9452659Y-12649459D02*
X9452659Y-12568141D01*
X9371341Y-12568141D01*
X9371341Y-12649459D01*
X9452659Y-12649459D01*
X9452659Y-13157459D02*
X9452659Y-13076141D01*
X9371341Y-13076141D01*
X9371341Y-13157459D01*
X9452659Y-13157459D01*
X9706659Y-12649459D02*
X9706659Y-12568141D01*
X9625341Y-12568141D01*
X9625341Y-12649459D01*
X9706659Y-12649459D01*
X9706659Y-13157459D02*
X9706659Y-13076141D01*
X9625341Y-13076141D01*
X9625341Y-13157459D01*
X9706659Y-13157459D01*
X9960659Y-12649459D02*
X9960659Y-12568141D01*
X9879341Y-12568141D01*
X9879341Y-12649459D01*
X9960659Y-12649459D01*
X9960659Y-13157459D02*
X9960659Y-13076141D01*
X9879341Y-13076141D01*
X9879341Y-13157459D01*
X9960659Y-13157459D01*
X10214659Y-12649459D02*
X10214659Y-12568141D01*
X10133341Y-12568141D01*
X10133341Y-12649459D01*
X10214659Y-12649459D01*
X10214659Y-13157459D02*
X10214659Y-13076141D01*
X10133341Y-13076141D01*
X10133341Y-13157459D01*
X10214659Y-13157459D01*
X10722659Y-12649459D02*
X10722659Y-12568141D01*
X10641341Y-12568141D01*
X10641341Y-12649459D01*
X10722659Y-12649459D01*
X10722659Y-13157459D02*
X10722659Y-13076141D01*
X10641341Y-13076141D01*
X10641341Y-13157459D01*
X10722659Y-13157459D01*
X9911859Y-5884859D02*
X9911859Y-5803541D01*
X9830541Y-5803541D01*
X9830541Y-5884859D01*
X9911859Y-5884859D01*
X9911859Y-6138859D02*
X9911859Y-6057541D01*
X9830541Y-6057541D01*
X9830541Y-6138859D01*
X9911859Y-6138859D01*
X9911859Y-6392859D02*
X9911859Y-6311541D01*
X9830541Y-6311541D01*
X9830541Y-6392859D01*
X9911859Y-6392859D01*
X9911859Y-6646859D02*
X9911859Y-6565541D01*
X9830541Y-6565541D01*
X9830541Y-6646859D01*
X9911859Y-6646859D01*
X9911859Y-7154859D02*
X9911859Y-7073541D01*
X9830541Y-7073541D01*
X9830541Y-7154859D01*
X9911859Y-7154859D01*
X10419859Y-5884859D02*
X10419859Y-5803541D01*
X10338541Y-5803541D01*
X10338541Y-5884859D01*
X10419859Y-5884859D01*
X10419859Y-6138859D02*
X10419859Y-6057541D01*
X10338541Y-6057541D01*
X10338541Y-6138859D01*
X10419859Y-6138859D01*
X10419859Y-6392859D02*
X10419859Y-6311541D01*
X10338541Y-6311541D01*
X10338541Y-6392859D01*
X10419859Y-6392859D01*
X10419859Y-6646859D02*
X10419859Y-6565541D01*
X10338541Y-6565541D01*
X10338541Y-6646859D01*
X10419859Y-6646859D01*
X10419859Y-7154859D02*
X10419859Y-7073541D01*
X10338541Y-7073541D01*
X10338541Y-7154859D01*
X10419859Y-7154859D01*
X11756659Y-12665059D02*
X11756659Y-12583741D01*
X11675341Y-12583741D01*
X11675341Y-12665059D01*
X11756659Y-12665059D01*
X11756659Y-13173059D02*
X11756659Y-13091741D01*
X11675341Y-13091741D01*
X11675341Y-13173059D01*
X11756659Y-13173059D01*
X12010659Y-12665059D02*
X12010659Y-12583741D01*
X11929341Y-12583741D01*
X11929341Y-12665059D01*
X12010659Y-12665059D01*
X12010659Y-13173059D02*
X12010659Y-13091741D01*
X11929341Y-13091741D01*
X11929341Y-13173059D01*
X12010659Y-13173059D01*
X12264659Y-12665059D02*
X12264659Y-12583741D01*
X12183341Y-12583741D01*
X12183341Y-12665059D01*
X12264659Y-12665059D01*
X12264659Y-13173059D02*
X12264659Y-13091741D01*
X12183341Y-13091741D01*
X12183341Y-13173059D01*
X12264659Y-13173059D01*
X12518659Y-12665059D02*
X12518659Y-12583741D01*
X12437341Y-12583741D01*
X12437341Y-12665059D01*
X12518659Y-12665059D01*
X12518659Y-13173059D02*
X12518659Y-13091741D01*
X12437341Y-13091741D01*
X12437341Y-13173059D01*
X12518659Y-13173059D01*
X13026659Y-12665059D02*
X13026659Y-12583741D01*
X12945341Y-12583741D01*
X12945341Y-12665059D01*
X13026659Y-12665059D01*
X13026659Y-13173059D02*
X13026659Y-13091741D01*
X12945341Y-13091741D01*
X12945341Y-13173059D01*
X13026659Y-13173059D01*
X11649659Y-7188659D02*
X11649659Y-7107341D01*
X11568341Y-7107341D01*
X11568341Y-7188659D01*
X11649659Y-7188659D01*
X11649659Y-7696659D02*
X11649659Y-7615341D01*
X11568341Y-7615341D01*
X11568341Y-7696659D01*
X11649659Y-7696659D01*
X12157659Y-7188659D02*
X12157659Y-7107341D01*
X12076341Y-7107341D01*
X12076341Y-7188659D01*
X12157659Y-7188659D01*
X12157659Y-7696659D02*
X12157659Y-7615341D01*
X12076341Y-7615341D01*
X12076341Y-7696659D01*
X12157659Y-7696659D01*
X12411659Y-7188659D02*
X12411659Y-7107341D01*
X12330341Y-7107341D01*
X12330341Y-7188659D01*
X12411659Y-7188659D01*
X12411659Y-7696659D02*
X12411659Y-7615341D01*
X12330341Y-7615341D01*
X12330341Y-7696659D01*
X12411659Y-7696659D01*
X12665659Y-7188659D02*
X12665659Y-7107341D01*
X12584341Y-7107341D01*
X12584341Y-7188659D01*
X12665659Y-7188659D01*
X12665659Y-7696659D02*
X12665659Y-7615341D01*
X12584341Y-7615341D01*
X12584341Y-7696659D01*
X12665659Y-7696659D01*
X12919659Y-7188659D02*
X12919659Y-7107341D01*
X12838341Y-7107341D01*
X12838341Y-7188659D01*
X12919659Y-7188659D01*
X12919659Y-7696659D02*
X12919659Y-7615341D01*
X12838341Y-7615341D01*
X12838341Y-7696659D01*
X12919659Y-7696659D01*
X13972259Y-12717859D02*
X13972259Y-12636541D01*
X13890941Y-12636541D01*
X13890941Y-12717859D01*
X13972259Y-12717859D01*
X13972259Y-13225859D02*
X13972259Y-13144541D01*
X13890941Y-13144541D01*
X13890941Y-13225859D01*
X13972259Y-13225859D01*
X14226259Y-12717859D02*
X14226259Y-12636541D01*
X14144941Y-12636541D01*
X14144941Y-12717859D01*
X14226259Y-12717859D01*
X14226259Y-13225859D02*
X14226259Y-13144541D01*
X14144941Y-13144541D01*
X14144941Y-13225859D01*
X14226259Y-13225859D01*
X14480259Y-12717859D02*
X14480259Y-12636541D01*
X14398941Y-12636541D01*
X14398941Y-12717859D01*
X14480259Y-12717859D01*
X14480259Y-13225859D02*
X14480259Y-13144541D01*
X14398941Y-13144541D01*
X14398941Y-13225859D01*
X14480259Y-13225859D01*
X14734259Y-12717859D02*
X14734259Y-12636541D01*
X14652941Y-12636541D01*
X14652941Y-12717859D01*
X14734259Y-12717859D01*
X14734259Y-13225859D02*
X14734259Y-13144541D01*
X14652941Y-13144541D01*
X14652941Y-13225859D01*
X14734259Y-13225859D01*
X15242259Y-12717859D02*
X15242259Y-12636541D01*
X15160941Y-12636541D01*
X15160941Y-12717859D01*
X15242259Y-12717859D01*
X15242259Y-13225859D02*
X15242259Y-13144541D01*
X15160941Y-13144541D01*
X15160941Y-13225859D01*
X15242259Y-13225859D01*
X14150059Y-6097859D02*
X14150059Y-6016541D01*
X14068741Y-6016541D01*
X14068741Y-6097859D01*
X14150059Y-6097859D01*
X14150059Y-6351859D02*
X14150059Y-6270541D01*
X14068741Y-6270541D01*
X14068741Y-6351859D01*
X14150059Y-6351859D01*
X14150059Y-6605859D02*
X14150059Y-6524541D01*
X14068741Y-6524541D01*
X14068741Y-6605859D01*
X14150059Y-6605859D01*
X14150059Y-6859859D02*
X14150059Y-6778541D01*
X14068741Y-6778541D01*
X14068741Y-6859859D01*
X14150059Y-6859859D01*
X14150059Y-7367859D02*
X14150059Y-7286541D01*
X14068741Y-7286541D01*
X14068741Y-7367859D01*
X14150059Y-7367859D01*
X14658059Y-6097859D02*
X14658059Y-6016541D01*
X14576741Y-6016541D01*
X14576741Y-6097859D01*
X14658059Y-6097859D01*
X14658059Y-6351859D02*
X14658059Y-6270541D01*
X14576741Y-6270541D01*
X14576741Y-6351859D01*
X14658059Y-6351859D01*
X14658059Y-6605859D02*
X14658059Y-6524541D01*
X14576741Y-6524541D01*
X14576741Y-6605859D01*
X14658059Y-6605859D01*
X14658059Y-6859859D02*
X14658059Y-6778541D01*
X14576741Y-6778541D01*
X14576741Y-6859859D01*
X14658059Y-6859859D01*
X14658059Y-7367859D02*
X14658059Y-7286541D01*
X14576741Y-7286541D01*
X14576741Y-7367859D01*
X14658059Y-7367859D01*
X7939000Y-5403000D02*
X7999000Y-5343000D01*
X7939000Y-5283000D01*
X7879000Y-5343000D01*
X7939000Y-5403000D01*
X8439000Y-5403000D02*
X8499000Y-5343000D01*
X8439000Y-5283000D01*
X8379000Y-5343000D01*
X8439000Y-5403000D01*
X14904000Y-9325000D02*
X15054000Y-9475000D01*
X15054000Y-9325000D02*
X14904000Y-9475000D01*
X15054000Y-9400000D02*
G75*
G03*
X15054000Y-9400000I-75000J0D01*
G01*
X9254400Y-8681200D02*
X9404400Y-8831200D01*
X9404400Y-8681200D02*
X9254400Y-8831200D01*
X9404400Y-8756200D02*
G75*
G03*
X9404400Y-8756200I-75000J0D01*
G01*
X11587000Y-5824000D02*
X11737000Y-5974000D01*
X11737000Y-5824000D02*
X11587000Y-5974000D01*
X11737000Y-5899000D02*
G75*
G03*
X11737000Y-5899000I-75000J0D01*
G01*
X10099000Y-13808000D02*
X10249000Y-13958000D01*
X10249000Y-13808000D02*
X10099000Y-13958000D01*
X10249000Y-13883000D02*
G75*
G03*
X10249000Y-13883000I-75000J0D01*
G01*
X6020000Y-13779000D02*
X6170000Y-13929000D01*
X6170000Y-13779000D02*
X6020000Y-13929000D01*
X6170000Y-13854000D02*
G75*
G03*
X6170000Y-13854000I-75000J0D01*
G01*
X12144000Y-5806000D02*
X12294000Y-5956000D01*
X12294000Y-5806000D02*
X12144000Y-5956000D01*
X12294000Y-5881000D02*
G75*
G03*
X12294000Y-5881000I-75000J0D01*
G01*
X7882800Y-8681200D02*
X8032800Y-8831200D01*
X8032800Y-8681200D02*
X7882800Y-8831200D01*
X8032800Y-8756200D02*
G75*
G03*
X8032800Y-8756200I-75000J0D01*
G01*
X16830000Y-13848000D02*
X16980000Y-13998000D01*
X16980000Y-13848000D02*
X16830000Y-13998000D01*
X16980000Y-13923000D02*
G75*
G03*
X16980000Y-13923000I-75000J0D01*
G01*
X6968000Y-7925000D02*
X7118000Y-8075000D01*
X7118000Y-7925000D02*
X6968000Y-8075000D01*
X7118000Y-8000000D02*
G75*
G03*
X7118000Y-8000000I-75000J0D01*
G01*
X10620000Y-8655000D02*
X10770000Y-8805000D01*
X10770000Y-8655000D02*
X10620000Y-8805000D01*
X10770000Y-8730000D02*
G75*
G03*
X10770000Y-8730000I-75000J0D01*
G01*
X6968400Y-8706600D02*
X7118400Y-8856600D01*
X7118400Y-8706600D02*
X6968400Y-8856600D01*
X7118400Y-8781600D02*
G75*
G03*
X7118400Y-8781600I-75000J0D01*
G01*
X14617000Y-13931000D02*
X14767000Y-14081000D01*
X14767000Y-13931000D02*
X14617000Y-14081000D01*
X14767000Y-14006000D02*
G75*
G03*
X14767000Y-14006000I-75000J0D01*
G01*
X6943000Y-9468600D02*
X7093000Y-9618600D01*
X7093000Y-9468600D02*
X6943000Y-9618600D01*
X7093000Y-9543600D02*
G75*
G03*
X7093000Y-9543600I-75000J0D01*
G01*
X14473800Y-8645000D02*
X14623800Y-8795000D01*
X14623800Y-8645000D02*
X14473800Y-8795000D01*
X14623800Y-8720000D02*
G75*
G03*
X14623800Y-8720000I-75000J0D01*
G01*
X10646000Y-13800000D02*
X10796000Y-13950000D01*
X10796000Y-13800000D02*
X10646000Y-13950000D01*
X10796000Y-13875000D02*
G75*
G03*
X10796000Y-13875000I-75000J0D01*
G01*
X12057000Y-8655000D02*
X12207000Y-8805000D01*
X12207000Y-8655000D02*
X12057000Y-8805000D01*
X12207000Y-8730000D02*
G75*
G03*
X12207000Y-8730000I-75000J0D01*
G01*
X12757000Y-8655000D02*
X12907000Y-8805000D01*
X12907000Y-8655000D02*
X12757000Y-8805000D01*
X12907000Y-8730000D02*
G75*
G03*
X12907000Y-8730000I-75000J0D01*
G01*
X7882800Y-9468600D02*
X8032800Y-9618600D01*
X8032800Y-9468600D02*
X7882800Y-9618600D01*
X8032800Y-9543600D02*
G75*
G03*
X8032800Y-9543600I-75000J0D01*
G01*
X12757000Y-9355000D02*
X12907000Y-9505000D01*
X12907000Y-9355000D02*
X12757000Y-9505000D01*
X12907000Y-9430000D02*
G75*
G03*
X12907000Y-9430000I-75000J0D01*
G01*
X9991000Y-8655800D02*
X10141000Y-8805800D01*
X10141000Y-8655800D02*
X9991000Y-8805800D01*
X10141000Y-8730800D02*
G75*
G03*
X10141000Y-8730800I-75000J0D01*
G01*
X7798000Y-13799000D02*
X7948000Y-13949000D01*
X7948000Y-13799000D02*
X7798000Y-13949000D01*
X7948000Y-13874000D02*
G75*
G03*
X7948000Y-13874000I-75000J0D01*
G01*
X12057000Y-9353000D02*
X12207000Y-9503000D01*
X12207000Y-9353000D02*
X12057000Y-9503000D01*
X12207000Y-9428000D02*
G75*
G03*
X12207000Y-9428000I-75000J0D01*
G01*
X17400000Y-13845000D02*
X17550000Y-13995000D01*
X17550000Y-13845000D02*
X17400000Y-13995000D01*
X17550000Y-13920000D02*
G75*
G03*
X17550000Y-13920000I-75000J0D01*
G01*
X15457000Y-4865000D02*
X15607000Y-5015000D01*
X15607000Y-4865000D02*
X15457000Y-5015000D01*
X15607000Y-4940000D02*
G75*
G03*
X15607000Y-4940000I-75000J0D01*
G01*
X16582000Y-8619600D02*
X16732000Y-8769600D01*
X16732000Y-8619600D02*
X16582000Y-8769600D01*
X16732000Y-8694600D02*
G75*
G03*
X16732000Y-8694600I-75000J0D01*
G01*
X15190000Y-13923000D02*
X15340000Y-14073000D01*
X15340000Y-13923000D02*
X15190000Y-14073000D01*
X15340000Y-13998000D02*
G75*
G03*
X15340000Y-13998000I-75000J0D01*
G01*
X14700000Y-4891000D02*
X14850000Y-5041000D01*
X14850000Y-4891000D02*
X14700000Y-5041000D01*
X14850000Y-4966000D02*
G75*
G03*
X14850000Y-4966000I-75000J0D01*
G01*
X14138000Y-9325000D02*
X14288000Y-9475000D01*
X14288000Y-9325000D02*
X14138000Y-9475000D01*
X14288000Y-9400000D02*
G75*
G03*
X14288000Y-9400000I-75000J0D01*
G01*
X5512000Y-13798000D02*
X5662000Y-13948000D01*
X5662000Y-13798000D02*
X5512000Y-13948000D01*
X5662000Y-13873000D02*
G75*
G03*
X5662000Y-13873000I-75000J0D01*
G01*
X8568600Y-8681200D02*
X8718600Y-8831200D01*
X8718600Y-8681200D02*
X8568600Y-8831200D01*
X8718600Y-8756200D02*
G75*
G03*
X8718600Y-8756200I-75000J0D01*
G01*
X8326000Y-13773000D02*
X8476000Y-13923000D01*
X8476000Y-13773000D02*
X8326000Y-13923000D01*
X8476000Y-13848000D02*
G75*
G03*
X8476000Y-13848000I-75000J0D01*
G01*
X16218000Y-4851000D02*
X16368000Y-5001000D01*
X16368000Y-4851000D02*
X16218000Y-5001000D01*
X16368000Y-4926000D02*
G75*
G03*
X16368000Y-4926000I-75000J0D01*
G01*
X15134200Y-8645000D02*
X15284200Y-8795000D01*
X15284200Y-8645000D02*
X15134200Y-8795000D01*
X15284200Y-8720000D02*
G75*
G03*
X15284200Y-8720000I-75000J0D01*
G01*
X15845400Y-8619600D02*
X15995400Y-8769600D01*
X15995400Y-8619600D02*
X15845400Y-8769600D01*
X15995400Y-8694600D02*
G75*
G03*
X15995400Y-8694600I-75000J0D01*
G01*
X13788000Y-8645000D02*
X13938000Y-8795000D01*
X13938000Y-8645000D02*
X13788000Y-8795000D01*
X13938000Y-8720000D02*
G75*
G03*
X13938000Y-8720000I-75000J0D01*
G01*
X11497000Y-8653000D02*
X11647000Y-8803000D01*
X11647000Y-8653000D02*
X11497000Y-8803000D01*
X11647000Y-8728000D02*
G75*
G03*
X11647000Y-8728000I-75000J0D01*
G01*
X10381000Y-4049000D02*
X10531000Y-4199000D01*
X10531000Y-4049000D02*
X10381000Y-4199000D01*
X10531000Y-4124000D02*
G75*
G03*
X10531000Y-4124000I-75000J0D01*
G01*
X12923000Y-13809000D02*
X13073000Y-13959000D01*
X13073000Y-13809000D02*
X12923000Y-13959000D01*
X13073000Y-13884000D02*
G75*
G03*
X13073000Y-13884000I-75000J0D01*
G01*
X10886000Y-4049000D02*
X11036000Y-4199000D01*
X11036000Y-4049000D02*
X10886000Y-4199000D01*
X11036000Y-4124000D02*
G75*
G03*
X11036000Y-4124000I-75000J0D01*
G01*
X7883000Y-7925000D02*
X8033000Y-8075000D01*
X8033000Y-7925000D02*
X7883000Y-8075000D01*
X8033000Y-8000000D02*
G75*
G03*
X8033000Y-8000000I-75000J0D01*
G01*
X12383000Y-13815000D02*
X12533000Y-13965000D01*
X12533000Y-13815000D02*
X12383000Y-13965000D01*
X12533000Y-13890000D02*
G75*
G03*
X12533000Y-13890000I-75000J0D01*
G01*
X6082000Y-8877000D02*
X6352000Y-9147000D01*
X6352000Y-8877000D02*
X6082000Y-9147000D01*
X6217000Y-8877000D02*
X6217000Y-9147000D01*
X6082000Y-9012000D02*
X6352000Y-9012000D01*
X10982000Y-3077000D02*
X11252000Y-3347000D01*
X11252000Y-3077000D02*
X10982000Y-3347000D01*
X11117000Y-3077000D02*
X11117000Y-3347000D01*
X10982000Y-3212000D02*
X11252000Y-3212000D01*
X10982000Y-8877000D02*
X11252000Y-9147000D01*
X11252000Y-8877000D02*
X10982000Y-9147000D01*
X11117000Y-8877000D02*
X11117000Y-9147000D01*
X10982000Y-9012000D02*
X11252000Y-9012000D01*
X6082000Y-3077000D02*
X6352000Y-3347000D01*
X6352000Y-3077000D02*
X6082000Y-3347000D01*
X6217000Y-3077000D02*
X6217000Y-3347000D01*
X6082000Y-3212000D02*
X6352000Y-3212000D01*
X18123000Y-14290000D02*
X18443000Y-14610000D01*
X18443000Y-14290000D02*
X18123000Y-14610000D01*
X18396138Y-14563138D02*
X18396138Y-14336862D01*
X18169862Y-14336862D01*
X18169862Y-14563138D01*
X18396138Y-14563138D01*
X4308000Y-14288000D02*
X4628000Y-14608000D01*
X4628000Y-14288000D02*
X4308000Y-14608000D01*
X4581138Y-14561138D02*
X4581138Y-14334862D01*
X4354862Y-14334862D01*
X4354862Y-14561138D01*
X4581138Y-14561138D01*
X18123000Y-3109000D02*
X18443000Y-3429000D01*
X18443000Y-3109000D02*
X18123000Y-3429000D01*
X18396138Y-3382138D02*
X18396138Y-3155862D01*
X18169862Y-3155862D01*
X18169862Y-3382138D01*
X18396138Y-3382138D01*
X4308000Y-3109000D02*
X4628000Y-3429000D01*
X4628000Y-3109000D02*
X4308000Y-3429000D01*
X4581138Y-3382138D02*
X4581138Y-3155862D01*
X4354862Y-3155862D01*
X4354862Y-3382138D01*
X4581138Y-3382138D01*
D12*
X4037928Y-15273214D02*
X4037928Y-14973214D01*
X4109357Y-14973214D01*
X4152214Y-14987500D01*
X4180786Y-15016071D01*
X4195071Y-15044643D01*
X4209357Y-15101786D01*
X4209357Y-15144643D01*
X4195071Y-15201786D01*
X4180786Y-15230357D01*
X4152214Y-15258929D01*
X4109357Y-15273214D01*
X4037928Y-15273214D01*
X4337928Y-15273214D02*
X4337928Y-15073214D01*
X4337928Y-15130357D02*
X4352214Y-15101786D01*
X4366500Y-15087500D01*
X4395071Y-15073214D01*
X4423643Y-15073214D01*
X4523643Y-15273214D02*
X4523643Y-15073214D01*
X4523643Y-14973214D02*
X4509357Y-14987500D01*
X4523643Y-15001786D01*
X4537928Y-14987500D01*
X4523643Y-14973214D01*
X4523643Y-15001786D01*
X4709357Y-15273214D02*
X4680786Y-15258929D01*
X4666500Y-15230357D01*
X4666500Y-14973214D01*
X4866500Y-15273214D02*
X4837928Y-15258929D01*
X4823643Y-15230357D01*
X4823643Y-14973214D01*
X5209357Y-15273214D02*
X5209357Y-14973214D01*
X5309357Y-15187500D01*
X5409357Y-14973214D01*
X5409357Y-15273214D01*
X5680786Y-15273214D02*
X5680786Y-15116071D01*
X5666500Y-15087500D01*
X5637928Y-15073214D01*
X5580786Y-15073214D01*
X5552214Y-15087500D01*
X5680786Y-15258929D02*
X5652214Y-15273214D01*
X5580786Y-15273214D01*
X5552214Y-15258929D01*
X5537928Y-15230357D01*
X5537928Y-15201786D01*
X5552214Y-15173214D01*
X5580786Y-15158929D01*
X5652214Y-15158929D01*
X5680786Y-15144643D01*
X5823643Y-15073214D02*
X5823643Y-15373214D01*
X5823643Y-15087500D02*
X5852214Y-15073214D01*
X5909357Y-15073214D01*
X5937928Y-15087500D01*
X5952214Y-15101786D01*
X5966500Y-15130357D01*
X5966500Y-15216071D01*
X5952214Y-15244643D01*
X5937928Y-15258929D01*
X5909357Y-15273214D01*
X5852214Y-15273214D01*
X5823643Y-15258929D01*
X6095071Y-15244643D02*
X6109357Y-15258929D01*
X6095071Y-15273214D01*
X6080786Y-15258929D01*
X6095071Y-15244643D01*
X6095071Y-15273214D01*
X6095071Y-15087500D02*
X6109357Y-15101786D01*
X6095071Y-15116071D01*
X6080786Y-15101786D01*
X6095071Y-15087500D01*
X6095071Y-15116071D01*
X3721500Y-15752500D02*
X3751500Y-15782500D01*
X3751500Y-15752500D02*
X3721500Y-15782500D01*
X4095071Y-15603214D02*
X4123643Y-15603214D01*
X4152214Y-15617500D01*
X4166500Y-15631786D01*
X4180786Y-15660357D01*
X4195071Y-15717500D01*
X4195071Y-15788929D01*
X4180786Y-15846071D01*
X4166500Y-15874643D01*
X4152214Y-15888929D01*
X4123643Y-15903214D01*
X4095071Y-15903214D01*
X4066500Y-15888929D01*
X4052214Y-15874643D01*
X4037928Y-15846071D01*
X4023643Y-15788929D01*
X4023643Y-15717500D01*
X4037928Y-15660357D01*
X4052214Y-15631786D01*
X4066500Y-15617500D01*
X4095071Y-15603214D01*
X4323643Y-15874643D02*
X4337928Y-15888929D01*
X4323643Y-15903214D01*
X4309357Y-15888929D01*
X4323643Y-15874643D01*
X4323643Y-15903214D01*
X4437928Y-15603214D02*
X4623643Y-15603214D01*
X4523643Y-15717500D01*
X4566500Y-15717500D01*
X4595071Y-15731786D01*
X4609357Y-15746071D01*
X4623643Y-15774643D01*
X4623643Y-15846071D01*
X4609357Y-15874643D01*
X4595071Y-15888929D01*
X4566500Y-15903214D01*
X4480786Y-15903214D01*
X4452214Y-15888929D01*
X4437928Y-15874643D01*
X4809357Y-15603214D02*
X4837928Y-15603214D01*
X4866500Y-15617500D01*
X4880786Y-15631786D01*
X4895071Y-15660357D01*
X4909357Y-15717500D01*
X4909357Y-15788929D01*
X4895071Y-15846071D01*
X4880786Y-15874643D01*
X4866500Y-15888929D01*
X4837928Y-15903214D01*
X4809357Y-15903214D01*
X4780786Y-15888929D01*
X4766500Y-15874643D01*
X4752214Y-15846071D01*
X4737928Y-15788929D01*
X4737928Y-15717500D01*
X4752214Y-15660357D01*
X4766500Y-15631786D01*
X4780786Y-15617500D01*
X4809357Y-15603214D01*
X5037928Y-15903214D02*
X5037928Y-15703214D01*
X5037928Y-15731786D02*
X5052214Y-15717500D01*
X5080786Y-15703214D01*
X5123643Y-15703214D01*
X5152214Y-15717500D01*
X5166500Y-15746071D01*
X5166500Y-15903214D01*
X5166500Y-15746071D02*
X5180786Y-15717500D01*
X5209357Y-15703214D01*
X5252214Y-15703214D01*
X5280786Y-15717500D01*
X5295071Y-15746071D01*
X5295071Y-15903214D01*
X5437928Y-15903214D02*
X5437928Y-15703214D01*
X5437928Y-15731786D02*
X5452214Y-15717500D01*
X5480786Y-15703214D01*
X5523643Y-15703214D01*
X5552214Y-15717500D01*
X5566500Y-15746071D01*
X5566500Y-15903214D01*
X5566500Y-15746071D02*
X5580786Y-15717500D01*
X5609357Y-15703214D01*
X5652214Y-15703214D01*
X5680786Y-15717500D01*
X5695071Y-15746071D01*
X5695071Y-15903214D01*
X6280786Y-15588929D02*
X6023643Y-15974643D01*
X6666500Y-15603214D02*
X6695071Y-15603214D01*
X6723643Y-15617500D01*
X6737928Y-15631786D01*
X6752214Y-15660357D01*
X6766500Y-15717500D01*
X6766500Y-15788929D01*
X6752214Y-15846071D01*
X6737928Y-15874643D01*
X6723643Y-15888929D01*
X6695071Y-15903214D01*
X6666500Y-15903214D01*
X6637928Y-15888929D01*
X6623643Y-15874643D01*
X6609357Y-15846071D01*
X6595071Y-15788929D01*
X6595071Y-15717500D01*
X6609357Y-15660357D01*
X6623643Y-15631786D01*
X6637928Y-15617500D01*
X6666500Y-15603214D01*
X6895071Y-15874643D02*
X6909357Y-15888929D01*
X6895071Y-15903214D01*
X6880786Y-15888929D01*
X6895071Y-15874643D01*
X6895071Y-15903214D01*
X7095071Y-15603214D02*
X7123643Y-15603214D01*
X7152214Y-15617500D01*
X7166500Y-15631786D01*
X7180786Y-15660357D01*
X7195071Y-15717500D01*
X7195071Y-15788929D01*
X7180786Y-15846071D01*
X7166500Y-15874643D01*
X7152214Y-15888929D01*
X7123643Y-15903214D01*
X7095071Y-15903214D01*
X7066500Y-15888929D01*
X7052214Y-15874643D01*
X7037928Y-15846071D01*
X7023643Y-15788929D01*
X7023643Y-15717500D01*
X7037928Y-15660357D01*
X7052214Y-15631786D01*
X7066500Y-15617500D01*
X7095071Y-15603214D01*
X7480786Y-15903214D02*
X7309357Y-15903214D01*
X7395071Y-15903214D02*
X7395071Y-15603214D01*
X7366500Y-15646071D01*
X7337928Y-15674643D01*
X7309357Y-15688929D01*
X7595071Y-15631786D02*
X7609357Y-15617500D01*
X7637928Y-15603214D01*
X7709357Y-15603214D01*
X7737928Y-15617500D01*
X7752214Y-15631786D01*
X7766500Y-15660357D01*
X7766500Y-15688929D01*
X7752214Y-15731786D01*
X7580786Y-15903214D01*
X7766500Y-15903214D01*
X7880786Y-15603214D02*
X7880786Y-15660357D01*
X7995071Y-15603214D02*
X7995071Y-15660357D01*
X8437928Y-16017500D02*
X8423643Y-16003214D01*
X8395071Y-15960357D01*
X8380786Y-15931786D01*
X8366500Y-15888929D01*
X8352214Y-15817500D01*
X8352214Y-15760357D01*
X8366500Y-15688929D01*
X8380786Y-15646071D01*
X8395071Y-15617500D01*
X8423643Y-15574643D01*
X8437928Y-15560357D01*
X8695071Y-15603214D02*
X8552214Y-15603214D01*
X8537928Y-15746071D01*
X8552214Y-15731786D01*
X8580786Y-15717500D01*
X8652214Y-15717500D01*
X8680786Y-15731786D01*
X8695071Y-15746071D01*
X8709357Y-15774643D01*
X8709357Y-15846071D01*
X8695071Y-15874643D01*
X8680786Y-15888929D01*
X8652214Y-15903214D01*
X8580786Y-15903214D01*
X8552214Y-15888929D01*
X8537928Y-15874643D01*
X8809357Y-15603214D02*
X8995071Y-15603214D01*
X8895071Y-15717500D01*
X8937928Y-15717500D01*
X8966500Y-15731786D01*
X8980786Y-15746071D01*
X8995071Y-15774643D01*
X8995071Y-15846071D01*
X8980786Y-15874643D01*
X8966500Y-15888929D01*
X8937928Y-15903214D01*
X8852214Y-15903214D01*
X8823643Y-15888929D01*
X8809357Y-15874643D01*
X9180786Y-15603214D02*
X9209357Y-15603214D01*
X9237928Y-15617500D01*
X9252214Y-15631786D01*
X9266500Y-15660357D01*
X9280786Y-15717500D01*
X9280786Y-15788929D01*
X9266500Y-15846071D01*
X9252214Y-15874643D01*
X9237928Y-15888929D01*
X9209357Y-15903214D01*
X9180786Y-15903214D01*
X9152214Y-15888929D01*
X9137928Y-15874643D01*
X9123643Y-15846071D01*
X9109357Y-15788929D01*
X9109357Y-15717500D01*
X9123643Y-15660357D01*
X9137928Y-15631786D01*
X9152214Y-15617500D01*
X9180786Y-15603214D01*
X9637928Y-15903214D02*
X9637928Y-15603214D01*
X9766500Y-15903214D02*
X9766500Y-15746071D01*
X9752214Y-15717500D01*
X9723643Y-15703214D01*
X9680786Y-15703214D01*
X9652214Y-15717500D01*
X9637928Y-15731786D01*
X9952214Y-15903214D02*
X9923643Y-15888929D01*
X9909357Y-15874643D01*
X9895071Y-15846071D01*
X9895071Y-15760357D01*
X9909357Y-15731786D01*
X9923643Y-15717500D01*
X9952214Y-15703214D01*
X9995071Y-15703214D01*
X10023643Y-15717500D01*
X10037928Y-15731786D01*
X10052214Y-15760357D01*
X10052214Y-15846071D01*
X10037928Y-15874643D01*
X10023643Y-15888929D01*
X9995071Y-15903214D01*
X9952214Y-15903214D01*
X10223643Y-15903214D02*
X10195071Y-15888929D01*
X10180786Y-15860357D01*
X10180786Y-15603214D01*
X10452214Y-15888929D02*
X10423643Y-15903214D01*
X10366500Y-15903214D01*
X10337928Y-15888929D01*
X10323643Y-15860357D01*
X10323643Y-15746071D01*
X10337928Y-15717500D01*
X10366500Y-15703214D01*
X10423643Y-15703214D01*
X10452214Y-15717500D01*
X10466500Y-15746071D01*
X10466500Y-15774643D01*
X10323643Y-15803214D01*
X10580786Y-15888929D02*
X10609357Y-15903214D01*
X10666500Y-15903214D01*
X10695071Y-15888929D01*
X10709357Y-15860357D01*
X10709357Y-15846071D01*
X10695071Y-15817500D01*
X10666500Y-15803214D01*
X10623643Y-15803214D01*
X10595071Y-15788929D01*
X10580786Y-15760357D01*
X10580786Y-15746071D01*
X10595071Y-15717500D01*
X10623643Y-15703214D01*
X10666500Y-15703214D01*
X10695071Y-15717500D01*
X10809357Y-16017500D02*
X10823643Y-16003214D01*
X10852214Y-15960357D01*
X10866500Y-15931786D01*
X10880786Y-15888929D01*
X10895071Y-15817500D01*
X10895071Y-15760357D01*
X10880786Y-15688929D01*
X10866500Y-15646071D01*
X10852214Y-15617500D01*
X10823643Y-15574643D01*
X10809357Y-15560357D01*
X3751500Y-16163500D02*
G75*
G03*
X3751500Y-16163500I-25000J0D01*
G01*
X4095071Y-15999214D02*
X4123643Y-15999214D01*
X4152214Y-16013500D01*
X4166500Y-16027786D01*
X4180786Y-16056357D01*
X4195071Y-16113500D01*
X4195071Y-16184929D01*
X4180786Y-16242071D01*
X4166500Y-16270643D01*
X4152214Y-16284929D01*
X4123643Y-16299214D01*
X4095071Y-16299214D01*
X4066500Y-16284929D01*
X4052214Y-16270643D01*
X4037928Y-16242071D01*
X4023643Y-16184929D01*
X4023643Y-16113500D01*
X4037928Y-16056357D01*
X4052214Y-16027786D01*
X4066500Y-16013500D01*
X4095071Y-15999214D01*
X4323643Y-16270643D02*
X4337928Y-16284929D01*
X4323643Y-16299214D01*
X4309357Y-16284929D01*
X4323643Y-16270643D01*
X4323643Y-16299214D01*
X4609357Y-15999214D02*
X4466500Y-15999214D01*
X4452214Y-16142071D01*
X4466500Y-16127786D01*
X4495071Y-16113500D01*
X4566500Y-16113500D01*
X4595071Y-16127786D01*
X4609357Y-16142071D01*
X4623643Y-16170643D01*
X4623643Y-16242071D01*
X4609357Y-16270643D01*
X4595071Y-16284929D01*
X4566500Y-16299214D01*
X4495071Y-16299214D01*
X4466500Y-16284929D01*
X4452214Y-16270643D01*
X4809357Y-15999214D02*
X4837928Y-15999214D01*
X4866500Y-16013500D01*
X4880786Y-16027786D01*
X4895071Y-16056357D01*
X4909357Y-16113500D01*
X4909357Y-16184929D01*
X4895071Y-16242071D01*
X4880786Y-16270643D01*
X4866500Y-16284929D01*
X4837928Y-16299214D01*
X4809357Y-16299214D01*
X4780786Y-16284929D01*
X4766500Y-16270643D01*
X4752214Y-16242071D01*
X4737928Y-16184929D01*
X4737928Y-16113500D01*
X4752214Y-16056357D01*
X4766500Y-16027786D01*
X4780786Y-16013500D01*
X4809357Y-15999214D01*
X5037928Y-16299214D02*
X5037928Y-16099214D01*
X5037928Y-16127786D02*
X5052214Y-16113500D01*
X5080786Y-16099214D01*
X5123643Y-16099214D01*
X5152214Y-16113500D01*
X5166500Y-16142071D01*
X5166500Y-16299214D01*
X5166500Y-16142071D02*
X5180786Y-16113500D01*
X5209357Y-16099214D01*
X5252214Y-16099214D01*
X5280786Y-16113500D01*
X5295071Y-16142071D01*
X5295071Y-16299214D01*
X5437928Y-16299214D02*
X5437928Y-16099214D01*
X5437928Y-16127786D02*
X5452214Y-16113500D01*
X5480786Y-16099214D01*
X5523643Y-16099214D01*
X5552214Y-16113500D01*
X5566500Y-16142071D01*
X5566500Y-16299214D01*
X5566500Y-16142071D02*
X5580786Y-16113500D01*
X5609357Y-16099214D01*
X5652214Y-16099214D01*
X5680786Y-16113500D01*
X5695071Y-16142071D01*
X5695071Y-16299214D01*
X6280786Y-15984929D02*
X6023643Y-16370643D01*
X6666500Y-15999214D02*
X6695071Y-15999214D01*
X6723643Y-16013500D01*
X6737928Y-16027786D01*
X6752214Y-16056357D01*
X6766500Y-16113500D01*
X6766500Y-16184929D01*
X6752214Y-16242071D01*
X6737928Y-16270643D01*
X6723643Y-16284929D01*
X6695071Y-16299214D01*
X6666500Y-16299214D01*
X6637928Y-16284929D01*
X6623643Y-16270643D01*
X6609357Y-16242071D01*
X6595071Y-16184929D01*
X6595071Y-16113500D01*
X6609357Y-16056357D01*
X6623643Y-16027786D01*
X6637928Y-16013500D01*
X6666500Y-15999214D01*
X6895071Y-16270643D02*
X6909357Y-16284929D01*
X6895071Y-16299214D01*
X6880786Y-16284929D01*
X6895071Y-16270643D01*
X6895071Y-16299214D01*
X7095071Y-15999214D02*
X7123643Y-15999214D01*
X7152214Y-16013500D01*
X7166500Y-16027786D01*
X7180786Y-16056357D01*
X7195071Y-16113500D01*
X7195071Y-16184929D01*
X7180786Y-16242071D01*
X7166500Y-16270643D01*
X7152214Y-16284929D01*
X7123643Y-16299214D01*
X7095071Y-16299214D01*
X7066500Y-16284929D01*
X7052214Y-16270643D01*
X7037928Y-16242071D01*
X7023643Y-16184929D01*
X7023643Y-16113500D01*
X7037928Y-16056357D01*
X7052214Y-16027786D01*
X7066500Y-16013500D01*
X7095071Y-15999214D01*
X7309357Y-16027786D02*
X7323643Y-16013500D01*
X7352214Y-15999214D01*
X7423643Y-15999214D01*
X7452214Y-16013500D01*
X7466500Y-16027786D01*
X7480786Y-16056357D01*
X7480786Y-16084929D01*
X7466500Y-16127786D01*
X7295071Y-16299214D01*
X7480786Y-16299214D01*
X7666500Y-15999214D02*
X7695071Y-15999214D01*
X7723643Y-16013500D01*
X7737928Y-16027786D01*
X7752214Y-16056357D01*
X7766500Y-16113500D01*
X7766500Y-16184929D01*
X7752214Y-16242071D01*
X7737928Y-16270643D01*
X7723643Y-16284929D01*
X7695071Y-16299214D01*
X7666500Y-16299214D01*
X7637928Y-16284929D01*
X7623643Y-16270643D01*
X7609357Y-16242071D01*
X7595071Y-16184929D01*
X7595071Y-16113500D01*
X7609357Y-16056357D01*
X7623643Y-16027786D01*
X7637928Y-16013500D01*
X7666500Y-15999214D01*
X7880786Y-15999214D02*
X7880786Y-16056357D01*
X7995071Y-15999214D02*
X7995071Y-16056357D01*
X8437928Y-16413500D02*
X8423643Y-16399214D01*
X8395071Y-16356357D01*
X8380786Y-16327786D01*
X8366500Y-16284929D01*
X8352214Y-16213500D01*
X8352214Y-16156357D01*
X8366500Y-16084929D01*
X8380786Y-16042071D01*
X8395071Y-16013500D01*
X8423643Y-15970643D01*
X8437928Y-15956357D01*
X8680786Y-15999214D02*
X8623643Y-15999214D01*
X8595071Y-16013500D01*
X8580786Y-16027786D01*
X8552214Y-16070643D01*
X8537928Y-16127786D01*
X8537928Y-16242071D01*
X8552214Y-16270643D01*
X8566500Y-16284929D01*
X8595071Y-16299214D01*
X8652214Y-16299214D01*
X8680786Y-16284929D01*
X8695071Y-16270643D01*
X8709357Y-16242071D01*
X8709357Y-16170643D01*
X8695071Y-16142071D01*
X8680786Y-16127786D01*
X8652214Y-16113500D01*
X8595071Y-16113500D01*
X8566500Y-16127786D01*
X8552214Y-16142071D01*
X8537928Y-16170643D01*
X8966500Y-16099214D02*
X8966500Y-16299214D01*
X8895071Y-15984929D02*
X8823643Y-16199214D01*
X9009357Y-16199214D01*
X9352214Y-16299214D02*
X9352214Y-15999214D01*
X9480786Y-16299214D02*
X9480786Y-16142071D01*
X9466500Y-16113500D01*
X9437928Y-16099214D01*
X9395071Y-16099214D01*
X9366500Y-16113500D01*
X9352214Y-16127786D01*
X9666500Y-16299214D02*
X9637928Y-16284929D01*
X9623643Y-16270643D01*
X9609357Y-16242071D01*
X9609357Y-16156357D01*
X9623643Y-16127786D01*
X9637928Y-16113500D01*
X9666500Y-16099214D01*
X9709357Y-16099214D01*
X9737928Y-16113500D01*
X9752214Y-16127786D01*
X9766500Y-16156357D01*
X9766500Y-16242071D01*
X9752214Y-16270643D01*
X9737928Y-16284929D01*
X9709357Y-16299214D01*
X9666500Y-16299214D01*
X9937928Y-16299214D02*
X9909357Y-16284929D01*
X9895071Y-16256357D01*
X9895071Y-15999214D01*
X10166500Y-16284929D02*
X10137928Y-16299214D01*
X10080786Y-16299214D01*
X10052214Y-16284929D01*
X10037928Y-16256357D01*
X10037928Y-16142071D01*
X10052214Y-16113500D01*
X10080786Y-16099214D01*
X10137928Y-16099214D01*
X10166500Y-16113500D01*
X10180786Y-16142071D01*
X10180786Y-16170643D01*
X10037928Y-16199214D01*
X10295071Y-16284929D02*
X10323643Y-16299214D01*
X10380786Y-16299214D01*
X10409357Y-16284929D01*
X10423643Y-16256357D01*
X10423643Y-16242071D01*
X10409357Y-16213500D01*
X10380786Y-16199214D01*
X10337928Y-16199214D01*
X10309357Y-16184929D01*
X10295071Y-16156357D01*
X10295071Y-16142071D01*
X10309357Y-16113500D01*
X10337928Y-16099214D01*
X10380786Y-16099214D01*
X10409357Y-16113500D01*
X10523643Y-16413500D02*
X10537928Y-16399214D01*
X10566500Y-16356357D01*
X10580786Y-16327786D01*
X10595071Y-16284929D01*
X10609357Y-16213500D01*
X10609357Y-16156357D01*
X10595071Y-16084929D01*
X10580786Y-16042071D01*
X10566500Y-16013500D01*
X10537928Y-15970643D01*
X10523643Y-15956357D01*
X3701500Y-16509500D02*
X3701500Y-16609500D01*
X3651500Y-16559500D02*
X3751500Y-16559500D01*
X4195071Y-16695214D02*
X4023643Y-16695214D01*
X4109357Y-16695214D02*
X4109357Y-16395214D01*
X4080786Y-16438071D01*
X4052214Y-16466643D01*
X4023643Y-16480929D01*
X4323643Y-16666643D02*
X4337928Y-16680929D01*
X4323643Y-16695214D01*
X4309357Y-16680929D01*
X4323643Y-16666643D01*
X4323643Y-16695214D01*
X4523643Y-16395214D02*
X4552214Y-16395214D01*
X4580786Y-16409500D01*
X4595071Y-16423786D01*
X4609357Y-16452357D01*
X4623643Y-16509500D01*
X4623643Y-16580929D01*
X4609357Y-16638071D01*
X4595071Y-16666643D01*
X4580786Y-16680929D01*
X4552214Y-16695214D01*
X4523643Y-16695214D01*
X4495071Y-16680929D01*
X4480786Y-16666643D01*
X4466500Y-16638071D01*
X4452214Y-16580929D01*
X4452214Y-16509500D01*
X4466500Y-16452357D01*
X4480786Y-16423786D01*
X4495071Y-16409500D01*
X4523643Y-16395214D01*
X4809357Y-16395214D02*
X4837928Y-16395214D01*
X4866500Y-16409500D01*
X4880786Y-16423786D01*
X4895071Y-16452357D01*
X4909357Y-16509500D01*
X4909357Y-16580929D01*
X4895071Y-16638071D01*
X4880786Y-16666643D01*
X4866500Y-16680929D01*
X4837928Y-16695214D01*
X4809357Y-16695214D01*
X4780786Y-16680929D01*
X4766500Y-16666643D01*
X4752214Y-16638071D01*
X4737928Y-16580929D01*
X4737928Y-16509500D01*
X4752214Y-16452357D01*
X4766500Y-16423786D01*
X4780786Y-16409500D01*
X4809357Y-16395214D01*
X5037928Y-16695214D02*
X5037928Y-16495214D01*
X5037928Y-16523786D02*
X5052214Y-16509500D01*
X5080786Y-16495214D01*
X5123643Y-16495214D01*
X5152214Y-16509500D01*
X5166500Y-16538071D01*
X5166500Y-16695214D01*
X5166500Y-16538071D02*
X5180786Y-16509500D01*
X5209357Y-16495214D01*
X5252214Y-16495214D01*
X5280786Y-16509500D01*
X5295071Y-16538071D01*
X5295071Y-16695214D01*
X5437928Y-16695214D02*
X5437928Y-16495214D01*
X5437928Y-16523786D02*
X5452214Y-16509500D01*
X5480786Y-16495214D01*
X5523643Y-16495214D01*
X5552214Y-16509500D01*
X5566500Y-16538071D01*
X5566500Y-16695214D01*
X5566500Y-16538071D02*
X5580786Y-16509500D01*
X5609357Y-16495214D01*
X5652214Y-16495214D01*
X5680786Y-16509500D01*
X5695071Y-16538071D01*
X5695071Y-16695214D01*
X6280786Y-16380929D02*
X6023643Y-16766643D01*
X6666500Y-16395214D02*
X6695071Y-16395214D01*
X6723643Y-16409500D01*
X6737928Y-16423786D01*
X6752214Y-16452357D01*
X6766500Y-16509500D01*
X6766500Y-16580929D01*
X6752214Y-16638071D01*
X6737928Y-16666643D01*
X6723643Y-16680929D01*
X6695071Y-16695214D01*
X6666500Y-16695214D01*
X6637928Y-16680929D01*
X6623643Y-16666643D01*
X6609357Y-16638071D01*
X6595071Y-16580929D01*
X6595071Y-16509500D01*
X6609357Y-16452357D01*
X6623643Y-16423786D01*
X6637928Y-16409500D01*
X6666500Y-16395214D01*
X6895071Y-16666643D02*
X6909357Y-16680929D01*
X6895071Y-16695214D01*
X6880786Y-16680929D01*
X6895071Y-16666643D01*
X6895071Y-16695214D01*
X7095071Y-16395214D02*
X7123643Y-16395214D01*
X7152214Y-16409500D01*
X7166500Y-16423786D01*
X7180786Y-16452357D01*
X7195071Y-16509500D01*
X7195071Y-16580929D01*
X7180786Y-16638071D01*
X7166500Y-16666643D01*
X7152214Y-16680929D01*
X7123643Y-16695214D01*
X7095071Y-16695214D01*
X7066500Y-16680929D01*
X7052214Y-16666643D01*
X7037928Y-16638071D01*
X7023643Y-16580929D01*
X7023643Y-16509500D01*
X7037928Y-16452357D01*
X7052214Y-16423786D01*
X7066500Y-16409500D01*
X7095071Y-16395214D01*
X7295071Y-16395214D02*
X7480786Y-16395214D01*
X7380786Y-16509500D01*
X7423643Y-16509500D01*
X7452214Y-16523786D01*
X7466500Y-16538071D01*
X7480786Y-16566643D01*
X7480786Y-16638071D01*
X7466500Y-16666643D01*
X7452214Y-16680929D01*
X7423643Y-16695214D01*
X7337928Y-16695214D01*
X7309357Y-16680929D01*
X7295071Y-16666643D01*
X7623643Y-16695214D02*
X7680786Y-16695214D01*
X7709357Y-16680929D01*
X7723643Y-16666643D01*
X7752214Y-16623786D01*
X7766500Y-16566643D01*
X7766500Y-16452357D01*
X7752214Y-16423786D01*
X7737928Y-16409500D01*
X7709357Y-16395214D01*
X7652214Y-16395214D01*
X7623643Y-16409500D01*
X7609357Y-16423786D01*
X7595071Y-16452357D01*
X7595071Y-16523786D01*
X7609357Y-16552357D01*
X7623643Y-16566643D01*
X7652214Y-16580929D01*
X7709357Y-16580929D01*
X7737928Y-16566643D01*
X7752214Y-16552357D01*
X7766500Y-16523786D01*
X7880786Y-16395214D02*
X7880786Y-16452357D01*
X7995071Y-16395214D02*
X7995071Y-16452357D01*
X8437928Y-16809500D02*
X8423643Y-16795214D01*
X8395071Y-16752357D01*
X8380786Y-16723786D01*
X8366500Y-16680929D01*
X8352214Y-16609500D01*
X8352214Y-16552357D01*
X8366500Y-16480929D01*
X8380786Y-16438071D01*
X8395071Y-16409500D01*
X8423643Y-16366643D01*
X8437928Y-16352357D01*
X8680786Y-16495214D02*
X8680786Y-16695214D01*
X8609357Y-16380929D02*
X8537928Y-16595214D01*
X8723643Y-16595214D01*
X8966500Y-16495214D02*
X8966500Y-16695214D01*
X8895071Y-16380929D02*
X8823643Y-16595214D01*
X9009357Y-16595214D01*
X9352214Y-16695214D02*
X9352214Y-16395214D01*
X9480786Y-16695214D02*
X9480786Y-16538071D01*
X9466500Y-16509500D01*
X9437928Y-16495214D01*
X9395071Y-16495214D01*
X9366500Y-16509500D01*
X9352214Y-16523786D01*
X9666500Y-16695214D02*
X9637928Y-16680929D01*
X9623643Y-16666643D01*
X9609357Y-16638071D01*
X9609357Y-16552357D01*
X9623643Y-16523786D01*
X9637928Y-16509500D01*
X9666500Y-16495214D01*
X9709357Y-16495214D01*
X9737928Y-16509500D01*
X9752214Y-16523786D01*
X9766500Y-16552357D01*
X9766500Y-16638071D01*
X9752214Y-16666643D01*
X9737928Y-16680929D01*
X9709357Y-16695214D01*
X9666500Y-16695214D01*
X9937928Y-16695214D02*
X9909357Y-16680929D01*
X9895071Y-16652357D01*
X9895071Y-16395214D01*
X10166500Y-16680929D02*
X10137928Y-16695214D01*
X10080786Y-16695214D01*
X10052214Y-16680929D01*
X10037928Y-16652357D01*
X10037928Y-16538071D01*
X10052214Y-16509500D01*
X10080786Y-16495214D01*
X10137928Y-16495214D01*
X10166500Y-16509500D01*
X10180786Y-16538071D01*
X10180786Y-16566643D01*
X10037928Y-16595214D01*
X10295071Y-16680929D02*
X10323643Y-16695214D01*
X10380786Y-16695214D01*
X10409357Y-16680929D01*
X10423643Y-16652357D01*
X10423643Y-16638071D01*
X10409357Y-16609500D01*
X10380786Y-16595214D01*
X10337928Y-16595214D01*
X10309357Y-16580929D01*
X10295071Y-16552357D01*
X10295071Y-16538071D01*
X10309357Y-16509500D01*
X10337928Y-16495214D01*
X10380786Y-16495214D01*
X10409357Y-16509500D01*
X10523643Y-16809500D02*
X10537928Y-16795214D01*
X10566500Y-16752357D01*
X10580786Y-16723786D01*
X10595071Y-16680929D01*
X10609357Y-16609500D01*
X10609357Y-16552357D01*
X10595071Y-16480929D01*
X10580786Y-16438071D01*
X10566500Y-16409500D01*
X10537928Y-16366643D01*
X10523643Y-16352357D01*
X3734659Y-16996159D02*
X3734659Y-16914841D01*
X3653341Y-16914841D01*
X3653341Y-16996159D01*
X3734659Y-16996159D01*
X4195071Y-17091214D02*
X4023643Y-17091214D01*
X4109357Y-17091214D02*
X4109357Y-16791214D01*
X4080786Y-16834072D01*
X4052214Y-16862643D01*
X4023643Y-16876929D01*
X4323643Y-17062643D02*
X4337928Y-17076929D01*
X4323643Y-17091214D01*
X4309357Y-17076929D01*
X4323643Y-17062643D01*
X4323643Y-17091214D01*
X4623643Y-17091214D02*
X4452214Y-17091214D01*
X4537928Y-17091214D02*
X4537928Y-16791214D01*
X4509357Y-16834072D01*
X4480786Y-16862643D01*
X4452214Y-16876929D01*
X4895071Y-16791214D02*
X4752214Y-16791214D01*
X4737928Y-16934072D01*
X4752214Y-16919786D01*
X4780786Y-16905500D01*
X4852214Y-16905500D01*
X4880786Y-16919786D01*
X4895071Y-16934072D01*
X4909357Y-16962643D01*
X4909357Y-17034072D01*
X4895071Y-17062643D01*
X4880786Y-17076929D01*
X4852214Y-17091214D01*
X4780786Y-17091214D01*
X4752214Y-17076929D01*
X4737928Y-17062643D01*
X5037928Y-17091214D02*
X5037928Y-16891214D01*
X5037928Y-16919786D02*
X5052214Y-16905500D01*
X5080786Y-16891214D01*
X5123643Y-16891214D01*
X5152214Y-16905500D01*
X5166500Y-16934072D01*
X5166500Y-17091214D01*
X5166500Y-16934072D02*
X5180786Y-16905500D01*
X5209357Y-16891214D01*
X5252214Y-16891214D01*
X5280786Y-16905500D01*
X5295071Y-16934072D01*
X5295071Y-17091214D01*
X5437928Y-17091214D02*
X5437928Y-16891214D01*
X5437928Y-16919786D02*
X5452214Y-16905500D01*
X5480786Y-16891214D01*
X5523643Y-16891214D01*
X5552214Y-16905500D01*
X5566500Y-16934072D01*
X5566500Y-17091214D01*
X5566500Y-16934072D02*
X5580786Y-16905500D01*
X5609357Y-16891214D01*
X5652214Y-16891214D01*
X5680786Y-16905500D01*
X5695071Y-16934072D01*
X5695071Y-17091214D01*
X6280786Y-16776929D02*
X6023643Y-17162643D01*
X6666500Y-16791214D02*
X6695071Y-16791214D01*
X6723643Y-16805500D01*
X6737928Y-16819786D01*
X6752214Y-16848357D01*
X6766500Y-16905500D01*
X6766500Y-16976929D01*
X6752214Y-17034072D01*
X6737928Y-17062643D01*
X6723643Y-17076929D01*
X6695071Y-17091214D01*
X6666500Y-17091214D01*
X6637928Y-17076929D01*
X6623643Y-17062643D01*
X6609357Y-17034072D01*
X6595071Y-16976929D01*
X6595071Y-16905500D01*
X6609357Y-16848357D01*
X6623643Y-16819786D01*
X6637928Y-16805500D01*
X6666500Y-16791214D01*
X6895071Y-17062643D02*
X6909357Y-17076929D01*
X6895071Y-17091214D01*
X6880786Y-17076929D01*
X6895071Y-17062643D01*
X6895071Y-17091214D01*
X7095071Y-16791214D02*
X7123643Y-16791214D01*
X7152214Y-16805500D01*
X7166500Y-16819786D01*
X7180786Y-16848357D01*
X7195071Y-16905500D01*
X7195071Y-16976929D01*
X7180786Y-17034072D01*
X7166500Y-17062643D01*
X7152214Y-17076929D01*
X7123643Y-17091214D01*
X7095071Y-17091214D01*
X7066500Y-17076929D01*
X7052214Y-17062643D01*
X7037928Y-17034072D01*
X7023643Y-16976929D01*
X7023643Y-16905500D01*
X7037928Y-16848357D01*
X7052214Y-16819786D01*
X7066500Y-16805500D01*
X7095071Y-16791214D01*
X7452214Y-16891214D02*
X7452214Y-17091214D01*
X7380786Y-16776929D02*
X7309357Y-16991214D01*
X7495071Y-16991214D01*
X7752214Y-16791214D02*
X7609357Y-16791214D01*
X7595071Y-16934072D01*
X7609357Y-16919786D01*
X7637928Y-16905500D01*
X7709357Y-16905500D01*
X7737928Y-16919786D01*
X7752214Y-16934072D01*
X7766500Y-16962643D01*
X7766500Y-17034072D01*
X7752214Y-17062643D01*
X7737928Y-17076929D01*
X7709357Y-17091214D01*
X7637928Y-17091214D01*
X7609357Y-17076929D01*
X7595071Y-17062643D01*
X7880786Y-16791214D02*
X7880786Y-16848357D01*
X7995071Y-16791214D02*
X7995071Y-16848357D01*
X8437928Y-17205500D02*
X8423643Y-17191214D01*
X8395071Y-17148357D01*
X8380786Y-17119786D01*
X8366500Y-17076929D01*
X8352214Y-17005500D01*
X8352214Y-16948357D01*
X8366500Y-16876929D01*
X8380786Y-16834072D01*
X8395071Y-16805500D01*
X8423643Y-16762643D01*
X8437928Y-16748357D01*
X8709357Y-17091214D02*
X8537928Y-17091214D01*
X8623643Y-17091214D02*
X8623643Y-16791214D01*
X8595071Y-16834072D01*
X8566500Y-16862643D01*
X8537928Y-16876929D01*
X8809357Y-16791214D02*
X9009357Y-16791214D01*
X8880786Y-17091214D01*
X9180786Y-16791214D02*
X9209357Y-16791214D01*
X9237928Y-16805500D01*
X9252214Y-16819786D01*
X9266500Y-16848357D01*
X9280786Y-16905500D01*
X9280786Y-16976929D01*
X9266500Y-17034072D01*
X9252214Y-17062643D01*
X9237928Y-17076929D01*
X9209357Y-17091214D01*
X9180786Y-17091214D01*
X9152214Y-17076929D01*
X9137928Y-17062643D01*
X9123643Y-17034072D01*
X9109357Y-16976929D01*
X9109357Y-16905500D01*
X9123643Y-16848357D01*
X9137928Y-16819786D01*
X9152214Y-16805500D01*
X9180786Y-16791214D01*
X9637928Y-17091214D02*
X9637928Y-16791214D01*
X9766500Y-17091214D02*
X9766500Y-16934072D01*
X9752214Y-16905500D01*
X9723643Y-16891214D01*
X9680786Y-16891214D01*
X9652214Y-16905500D01*
X9637928Y-16919786D01*
X9952214Y-17091214D02*
X9923643Y-17076929D01*
X9909357Y-17062643D01*
X9895071Y-17034072D01*
X9895071Y-16948357D01*
X9909357Y-16919786D01*
X9923643Y-16905500D01*
X9952214Y-16891214D01*
X9995071Y-16891214D01*
X10023643Y-16905500D01*
X10037928Y-16919786D01*
X10052214Y-16948357D01*
X10052214Y-17034072D01*
X10037928Y-17062643D01*
X10023643Y-17076929D01*
X9995071Y-17091214D01*
X9952214Y-17091214D01*
X10223643Y-17091214D02*
X10195071Y-17076929D01*
X10180786Y-17048357D01*
X10180786Y-16791214D01*
X10452214Y-17076929D02*
X10423643Y-17091214D01*
X10366500Y-17091214D01*
X10337928Y-17076929D01*
X10323643Y-17048357D01*
X10323643Y-16934072D01*
X10337928Y-16905500D01*
X10366500Y-16891214D01*
X10423643Y-16891214D01*
X10452214Y-16905500D01*
X10466500Y-16934072D01*
X10466500Y-16962643D01*
X10323643Y-16991214D01*
X10580786Y-17076929D02*
X10609357Y-17091214D01*
X10666500Y-17091214D01*
X10695071Y-17076929D01*
X10709357Y-17048357D01*
X10709357Y-17034072D01*
X10695071Y-17005500D01*
X10666500Y-16991214D01*
X10623643Y-16991214D01*
X10595071Y-16976929D01*
X10580786Y-16948357D01*
X10580786Y-16934072D01*
X10595071Y-16905500D01*
X10623643Y-16891214D01*
X10666500Y-16891214D01*
X10695071Y-16905500D01*
X10809357Y-17205500D02*
X10823643Y-17191214D01*
X10852214Y-17148357D01*
X10866500Y-17119786D01*
X10880786Y-17076929D01*
X10895071Y-17005500D01*
X10895071Y-16948357D01*
X10880786Y-16876929D01*
X10866500Y-16834072D01*
X10852214Y-16805500D01*
X10823643Y-16762643D01*
X10809357Y-16748357D01*
X3691500Y-17411500D02*
X3751500Y-17351500D01*
X3691500Y-17291500D01*
X3631500Y-17351500D01*
X3691500Y-17411500D01*
X4195071Y-17487214D02*
X4023643Y-17487214D01*
X4109357Y-17487214D02*
X4109357Y-17187214D01*
X4080786Y-17230072D01*
X4052214Y-17258643D01*
X4023643Y-17272929D01*
X4323643Y-17458643D02*
X4337928Y-17472929D01*
X4323643Y-17487214D01*
X4309357Y-17472929D01*
X4323643Y-17458643D01*
X4323643Y-17487214D01*
X4452214Y-17215786D02*
X4466500Y-17201500D01*
X4495071Y-17187214D01*
X4566500Y-17187214D01*
X4595071Y-17201500D01*
X4609357Y-17215786D01*
X4623643Y-17244357D01*
X4623643Y-17272929D01*
X4609357Y-17315786D01*
X4437928Y-17487214D01*
X4623643Y-17487214D01*
X4809357Y-17187214D02*
X4837928Y-17187214D01*
X4866500Y-17201500D01*
X4880786Y-17215786D01*
X4895071Y-17244357D01*
X4909357Y-17301500D01*
X4909357Y-17372929D01*
X4895071Y-17430072D01*
X4880786Y-17458643D01*
X4866500Y-17472929D01*
X4837928Y-17487214D01*
X4809357Y-17487214D01*
X4780786Y-17472929D01*
X4766500Y-17458643D01*
X4752214Y-17430072D01*
X4737928Y-17372929D01*
X4737928Y-17301500D01*
X4752214Y-17244357D01*
X4766500Y-17215786D01*
X4780786Y-17201500D01*
X4809357Y-17187214D01*
X5037928Y-17487214D02*
X5037928Y-17287214D01*
X5037928Y-17315786D02*
X5052214Y-17301500D01*
X5080786Y-17287214D01*
X5123643Y-17287214D01*
X5152214Y-17301500D01*
X5166500Y-17330072D01*
X5166500Y-17487214D01*
X5166500Y-17330072D02*
X5180786Y-17301500D01*
X5209357Y-17287214D01*
X5252214Y-17287214D01*
X5280786Y-17301500D01*
X5295071Y-17330072D01*
X5295071Y-17487214D01*
X5437928Y-17487214D02*
X5437928Y-17287214D01*
X5437928Y-17315786D02*
X5452214Y-17301500D01*
X5480786Y-17287214D01*
X5523643Y-17287214D01*
X5552214Y-17301500D01*
X5566500Y-17330072D01*
X5566500Y-17487214D01*
X5566500Y-17330072D02*
X5580786Y-17301500D01*
X5609357Y-17287214D01*
X5652214Y-17287214D01*
X5680786Y-17301500D01*
X5695071Y-17330072D01*
X5695071Y-17487214D01*
X6280786Y-17172929D02*
X6023643Y-17558643D01*
X6666500Y-17187214D02*
X6695071Y-17187214D01*
X6723643Y-17201500D01*
X6737928Y-17215786D01*
X6752214Y-17244357D01*
X6766500Y-17301500D01*
X6766500Y-17372929D01*
X6752214Y-17430072D01*
X6737928Y-17458643D01*
X6723643Y-17472929D01*
X6695071Y-17487214D01*
X6666500Y-17487214D01*
X6637928Y-17472929D01*
X6623643Y-17458643D01*
X6609357Y-17430072D01*
X6595071Y-17372929D01*
X6595071Y-17301500D01*
X6609357Y-17244357D01*
X6623643Y-17215786D01*
X6637928Y-17201500D01*
X6666500Y-17187214D01*
X6895071Y-17458643D02*
X6909357Y-17472929D01*
X6895071Y-17487214D01*
X6880786Y-17472929D01*
X6895071Y-17458643D01*
X6895071Y-17487214D01*
X7095071Y-17187214D02*
X7123643Y-17187214D01*
X7152214Y-17201500D01*
X7166500Y-17215786D01*
X7180786Y-17244357D01*
X7195071Y-17301500D01*
X7195071Y-17372929D01*
X7180786Y-17430072D01*
X7166500Y-17458643D01*
X7152214Y-17472929D01*
X7123643Y-17487214D01*
X7095071Y-17487214D01*
X7066500Y-17472929D01*
X7052214Y-17458643D01*
X7037928Y-17430072D01*
X7023643Y-17372929D01*
X7023643Y-17301500D01*
X7037928Y-17244357D01*
X7052214Y-17215786D01*
X7066500Y-17201500D01*
X7095071Y-17187214D01*
X7452214Y-17287214D02*
X7452214Y-17487214D01*
X7380786Y-17172929D02*
X7309357Y-17387214D01*
X7495071Y-17387214D01*
X7580786Y-17187214D02*
X7780786Y-17187214D01*
X7652214Y-17487214D01*
X7880786Y-17187214D02*
X7880786Y-17244357D01*
X7995071Y-17187214D02*
X7995071Y-17244357D01*
X8437928Y-17601500D02*
X8423643Y-17587214D01*
X8395071Y-17544357D01*
X8380786Y-17515786D01*
X8366500Y-17472929D01*
X8352214Y-17401500D01*
X8352214Y-17344357D01*
X8366500Y-17272929D01*
X8380786Y-17230072D01*
X8395071Y-17201500D01*
X8423643Y-17158643D01*
X8437928Y-17144357D01*
X8537928Y-17215786D02*
X8552214Y-17201500D01*
X8580786Y-17187214D01*
X8652214Y-17187214D01*
X8680786Y-17201500D01*
X8695071Y-17215786D01*
X8709357Y-17244357D01*
X8709357Y-17272929D01*
X8695071Y-17315786D01*
X8523643Y-17487214D01*
X8709357Y-17487214D01*
X9066500Y-17487214D02*
X9066500Y-17187214D01*
X9195071Y-17487214D02*
X9195071Y-17330072D01*
X9180786Y-17301500D01*
X9152214Y-17287214D01*
X9109357Y-17287214D01*
X9080786Y-17301500D01*
X9066500Y-17315786D01*
X9380786Y-17487214D02*
X9352214Y-17472929D01*
X9337928Y-17458643D01*
X9323643Y-17430072D01*
X9323643Y-17344357D01*
X9337928Y-17315786D01*
X9352214Y-17301500D01*
X9380786Y-17287214D01*
X9423643Y-17287214D01*
X9452214Y-17301500D01*
X9466500Y-17315786D01*
X9480786Y-17344357D01*
X9480786Y-17430072D01*
X9466500Y-17458643D01*
X9452214Y-17472929D01*
X9423643Y-17487214D01*
X9380786Y-17487214D01*
X9652214Y-17487214D02*
X9623643Y-17472929D01*
X9609357Y-17444357D01*
X9609357Y-17187214D01*
X9880786Y-17472929D02*
X9852214Y-17487214D01*
X9795071Y-17487214D01*
X9766500Y-17472929D01*
X9752214Y-17444357D01*
X9752214Y-17330072D01*
X9766500Y-17301500D01*
X9795071Y-17287214D01*
X9852214Y-17287214D01*
X9880786Y-17301500D01*
X9895071Y-17330072D01*
X9895071Y-17358643D01*
X9752214Y-17387214D01*
X10009357Y-17472929D02*
X10037928Y-17487214D01*
X10095071Y-17487214D01*
X10123643Y-17472929D01*
X10137928Y-17444357D01*
X10137928Y-17430072D01*
X10123643Y-17401500D01*
X10095071Y-17387214D01*
X10052214Y-17387214D01*
X10023643Y-17372929D01*
X10009357Y-17344357D01*
X10009357Y-17330072D01*
X10023643Y-17301500D01*
X10052214Y-17287214D01*
X10095071Y-17287214D01*
X10123643Y-17301500D01*
X10237928Y-17601500D02*
X10252214Y-17587214D01*
X10280786Y-17544357D01*
X10295071Y-17515786D01*
X10309357Y-17472929D01*
X10323643Y-17401500D01*
X10323643Y-17344357D01*
X10309357Y-17272929D01*
X10295071Y-17230072D01*
X10280786Y-17201500D01*
X10252214Y-17158643D01*
X10237928Y-17144357D01*
X3601500Y-17672500D02*
X3751500Y-17822500D01*
X3751500Y-17672500D02*
X3601500Y-17822500D01*
X3751500Y-17747500D02*
G75*
G03*
X3751500Y-17747500I-75000J0D01*
G01*
X4195071Y-17883214D02*
X4023643Y-17883214D01*
X4109357Y-17883214D02*
X4109357Y-17583214D01*
X4080786Y-17626072D01*
X4052214Y-17654643D01*
X4023643Y-17668929D01*
X4323643Y-17854643D02*
X4337928Y-17868929D01*
X4323643Y-17883214D01*
X4309357Y-17868929D01*
X4323643Y-17854643D01*
X4323643Y-17883214D01*
X4609357Y-17583214D02*
X4466500Y-17583214D01*
X4452214Y-17726072D01*
X4466500Y-17711786D01*
X4495071Y-17697500D01*
X4566500Y-17697500D01*
X4595071Y-17711786D01*
X4609357Y-17726072D01*
X4623643Y-17754643D01*
X4623643Y-17826072D01*
X4609357Y-17854643D01*
X4595071Y-17868929D01*
X4566500Y-17883214D01*
X4495071Y-17883214D01*
X4466500Y-17868929D01*
X4452214Y-17854643D01*
X4809357Y-17583214D02*
X4837928Y-17583214D01*
X4866500Y-17597500D01*
X4880786Y-17611786D01*
X4895071Y-17640357D01*
X4909357Y-17697500D01*
X4909357Y-17768929D01*
X4895071Y-17826072D01*
X4880786Y-17854643D01*
X4866500Y-17868929D01*
X4837928Y-17883214D01*
X4809357Y-17883214D01*
X4780786Y-17868929D01*
X4766500Y-17854643D01*
X4752214Y-17826072D01*
X4737928Y-17768929D01*
X4737928Y-17697500D01*
X4752214Y-17640357D01*
X4766500Y-17611786D01*
X4780786Y-17597500D01*
X4809357Y-17583214D01*
X5037928Y-17883214D02*
X5037928Y-17683214D01*
X5037928Y-17711786D02*
X5052214Y-17697500D01*
X5080786Y-17683214D01*
X5123643Y-17683214D01*
X5152214Y-17697500D01*
X5166500Y-17726072D01*
X5166500Y-17883214D01*
X5166500Y-17726072D02*
X5180786Y-17697500D01*
X5209357Y-17683214D01*
X5252214Y-17683214D01*
X5280786Y-17697500D01*
X5295071Y-17726072D01*
X5295071Y-17883214D01*
X5437928Y-17883214D02*
X5437928Y-17683214D01*
X5437928Y-17711786D02*
X5452214Y-17697500D01*
X5480786Y-17683214D01*
X5523643Y-17683214D01*
X5552214Y-17697500D01*
X5566500Y-17726072D01*
X5566500Y-17883214D01*
X5566500Y-17726072D02*
X5580786Y-17697500D01*
X5609357Y-17683214D01*
X5652214Y-17683214D01*
X5680786Y-17697500D01*
X5695071Y-17726072D01*
X5695071Y-17883214D01*
X6280786Y-17568929D02*
X6023643Y-17954643D01*
X6666500Y-17583214D02*
X6695071Y-17583214D01*
X6723643Y-17597500D01*
X6737928Y-17611786D01*
X6752214Y-17640357D01*
X6766500Y-17697500D01*
X6766500Y-17768929D01*
X6752214Y-17826072D01*
X6737928Y-17854643D01*
X6723643Y-17868929D01*
X6695071Y-17883214D01*
X6666500Y-17883214D01*
X6637928Y-17868929D01*
X6623643Y-17854643D01*
X6609357Y-17826072D01*
X6595071Y-17768929D01*
X6595071Y-17697500D01*
X6609357Y-17640357D01*
X6623643Y-17611786D01*
X6637928Y-17597500D01*
X6666500Y-17583214D01*
X6895071Y-17854643D02*
X6909357Y-17868929D01*
X6895071Y-17883214D01*
X6880786Y-17868929D01*
X6895071Y-17854643D01*
X6895071Y-17883214D01*
X7095071Y-17583214D02*
X7123643Y-17583214D01*
X7152214Y-17597500D01*
X7166500Y-17611786D01*
X7180786Y-17640357D01*
X7195071Y-17697500D01*
X7195071Y-17768929D01*
X7180786Y-17826072D01*
X7166500Y-17854643D01*
X7152214Y-17868929D01*
X7123643Y-17883214D01*
X7095071Y-17883214D01*
X7066500Y-17868929D01*
X7052214Y-17854643D01*
X7037928Y-17826072D01*
X7023643Y-17768929D01*
X7023643Y-17697500D01*
X7037928Y-17640357D01*
X7052214Y-17611786D01*
X7066500Y-17597500D01*
X7095071Y-17583214D01*
X7466500Y-17583214D02*
X7323643Y-17583214D01*
X7309357Y-17726072D01*
X7323643Y-17711786D01*
X7352214Y-17697500D01*
X7423643Y-17697500D01*
X7452214Y-17711786D01*
X7466500Y-17726072D01*
X7480786Y-17754643D01*
X7480786Y-17826072D01*
X7466500Y-17854643D01*
X7452214Y-17868929D01*
X7423643Y-17883214D01*
X7352214Y-17883214D01*
X7323643Y-17868929D01*
X7309357Y-17854643D01*
X7623643Y-17883214D02*
X7680786Y-17883214D01*
X7709357Y-17868929D01*
X7723643Y-17854643D01*
X7752214Y-17811786D01*
X7766500Y-17754643D01*
X7766500Y-17640357D01*
X7752214Y-17611786D01*
X7737928Y-17597500D01*
X7709357Y-17583214D01*
X7652214Y-17583214D01*
X7623643Y-17597500D01*
X7609357Y-17611786D01*
X7595071Y-17640357D01*
X7595071Y-17711786D01*
X7609357Y-17740357D01*
X7623643Y-17754643D01*
X7652214Y-17768929D01*
X7709357Y-17768929D01*
X7737928Y-17754643D01*
X7752214Y-17740357D01*
X7766500Y-17711786D01*
X7880786Y-17583214D02*
X7880786Y-17640357D01*
X7995071Y-17583214D02*
X7995071Y-17640357D01*
X8437928Y-17997500D02*
X8423643Y-17983214D01*
X8395071Y-17940357D01*
X8380786Y-17911786D01*
X8366500Y-17868929D01*
X8352214Y-17797500D01*
X8352214Y-17740357D01*
X8366500Y-17668929D01*
X8380786Y-17626072D01*
X8395071Y-17597500D01*
X8423643Y-17554643D01*
X8437928Y-17540357D01*
X8680786Y-17683214D02*
X8680786Y-17883214D01*
X8609357Y-17568929D02*
X8537928Y-17783214D01*
X8723643Y-17783214D01*
X8995071Y-17883214D02*
X8823643Y-17883214D01*
X8909357Y-17883214D02*
X8909357Y-17583214D01*
X8880786Y-17626072D01*
X8852214Y-17654643D01*
X8823643Y-17668929D01*
X9352214Y-17883214D02*
X9352214Y-17583214D01*
X9480786Y-17883214D02*
X9480786Y-17726072D01*
X9466500Y-17697500D01*
X9437928Y-17683214D01*
X9395071Y-17683214D01*
X9366500Y-17697500D01*
X9352214Y-17711786D01*
X9666500Y-17883214D02*
X9637928Y-17868929D01*
X9623643Y-17854643D01*
X9609357Y-17826072D01*
X9609357Y-17740357D01*
X9623643Y-17711786D01*
X9637928Y-17697500D01*
X9666500Y-17683214D01*
X9709357Y-17683214D01*
X9737928Y-17697500D01*
X9752214Y-17711786D01*
X9766500Y-17740357D01*
X9766500Y-17826072D01*
X9752214Y-17854643D01*
X9737928Y-17868929D01*
X9709357Y-17883214D01*
X9666500Y-17883214D01*
X9937928Y-17883214D02*
X9909357Y-17868929D01*
X9895071Y-17840357D01*
X9895071Y-17583214D01*
X10166500Y-17868929D02*
X10137928Y-17883214D01*
X10080786Y-17883214D01*
X10052214Y-17868929D01*
X10037928Y-17840357D01*
X10037928Y-17726072D01*
X10052214Y-17697500D01*
X10080786Y-17683214D01*
X10137928Y-17683214D01*
X10166500Y-17697500D01*
X10180786Y-17726072D01*
X10180786Y-17754643D01*
X10037928Y-17783214D01*
X10295071Y-17868929D02*
X10323643Y-17883214D01*
X10380786Y-17883214D01*
X10409357Y-17868929D01*
X10423643Y-17840357D01*
X10423643Y-17826072D01*
X10409357Y-17797500D01*
X10380786Y-17783214D01*
X10337928Y-17783214D01*
X10309357Y-17768929D01*
X10295071Y-17740357D01*
X10295071Y-17726072D01*
X10309357Y-17697500D01*
X10337928Y-17683214D01*
X10380786Y-17683214D01*
X10409357Y-17697500D01*
X10523643Y-17997500D02*
X10537928Y-17983214D01*
X10566500Y-17940357D01*
X10580786Y-17911786D01*
X10595071Y-17868929D01*
X10609357Y-17797500D01*
X10609357Y-17740357D01*
X10595071Y-17668929D01*
X10580786Y-17626072D01*
X10566500Y-17597500D01*
X10537928Y-17554643D01*
X10523643Y-17540357D01*
X3481500Y-18008500D02*
X3751500Y-18278500D01*
X3751500Y-18008500D02*
X3481500Y-18278500D01*
X3616500Y-18008500D02*
X3616500Y-18278500D01*
X3481500Y-18143500D02*
X3751500Y-18143500D01*
X4023643Y-18007786D02*
X4037928Y-17993500D01*
X4066500Y-17979214D01*
X4137928Y-17979214D01*
X4166500Y-17993500D01*
X4180786Y-18007786D01*
X4195071Y-18036357D01*
X4195071Y-18064929D01*
X4180786Y-18107786D01*
X4009357Y-18279214D01*
X4195071Y-18279214D01*
X4323643Y-18250643D02*
X4337928Y-18264929D01*
X4323643Y-18279214D01*
X4309357Y-18264929D01*
X4323643Y-18250643D01*
X4323643Y-18279214D01*
X4437928Y-17979214D02*
X4637928Y-17979214D01*
X4509357Y-18279214D01*
X4809357Y-17979214D02*
X4837928Y-17979214D01*
X4866500Y-17993500D01*
X4880786Y-18007786D01*
X4895071Y-18036357D01*
X4909357Y-18093500D01*
X4909357Y-18164929D01*
X4895071Y-18222072D01*
X4880786Y-18250643D01*
X4866500Y-18264929D01*
X4837928Y-18279214D01*
X4809357Y-18279214D01*
X4780786Y-18264929D01*
X4766500Y-18250643D01*
X4752214Y-18222072D01*
X4737928Y-18164929D01*
X4737928Y-18093500D01*
X4752214Y-18036357D01*
X4766500Y-18007786D01*
X4780786Y-17993500D01*
X4809357Y-17979214D01*
X5037928Y-18279214D02*
X5037928Y-18079214D01*
X5037928Y-18107786D02*
X5052214Y-18093500D01*
X5080786Y-18079214D01*
X5123643Y-18079214D01*
X5152214Y-18093500D01*
X5166500Y-18122072D01*
X5166500Y-18279214D01*
X5166500Y-18122072D02*
X5180786Y-18093500D01*
X5209357Y-18079214D01*
X5252214Y-18079214D01*
X5280786Y-18093500D01*
X5295071Y-18122072D01*
X5295071Y-18279214D01*
X5437928Y-18279214D02*
X5437928Y-18079214D01*
X5437928Y-18107786D02*
X5452214Y-18093500D01*
X5480786Y-18079214D01*
X5523643Y-18079214D01*
X5552214Y-18093500D01*
X5566500Y-18122072D01*
X5566500Y-18279214D01*
X5566500Y-18122072D02*
X5580786Y-18093500D01*
X5609357Y-18079214D01*
X5652214Y-18079214D01*
X5680786Y-18093500D01*
X5695071Y-18122072D01*
X5695071Y-18279214D01*
X6280786Y-17964929D02*
X6023643Y-18350643D01*
X6666500Y-17979214D02*
X6695071Y-17979214D01*
X6723643Y-17993500D01*
X6737928Y-18007786D01*
X6752214Y-18036357D01*
X6766500Y-18093500D01*
X6766500Y-18164929D01*
X6752214Y-18222072D01*
X6737928Y-18250643D01*
X6723643Y-18264929D01*
X6695071Y-18279214D01*
X6666500Y-18279214D01*
X6637928Y-18264929D01*
X6623643Y-18250643D01*
X6609357Y-18222072D01*
X6595071Y-18164929D01*
X6595071Y-18093500D01*
X6609357Y-18036357D01*
X6623643Y-18007786D01*
X6637928Y-17993500D01*
X6666500Y-17979214D01*
X6895071Y-18250643D02*
X6909357Y-18264929D01*
X6895071Y-18279214D01*
X6880786Y-18264929D01*
X6895071Y-18250643D01*
X6895071Y-18279214D01*
X7195071Y-18279214D02*
X7023643Y-18279214D01*
X7109357Y-18279214D02*
X7109357Y-17979214D01*
X7080786Y-18022072D01*
X7052214Y-18050643D01*
X7023643Y-18064929D01*
X7380786Y-17979214D02*
X7409357Y-17979214D01*
X7437928Y-17993500D01*
X7452214Y-18007786D01*
X7466500Y-18036357D01*
X7480786Y-18093500D01*
X7480786Y-18164929D01*
X7466500Y-18222072D01*
X7452214Y-18250643D01*
X7437928Y-18264929D01*
X7409357Y-18279214D01*
X7380786Y-18279214D01*
X7352214Y-18264929D01*
X7337928Y-18250643D01*
X7323643Y-18222072D01*
X7309357Y-18164929D01*
X7309357Y-18093500D01*
X7323643Y-18036357D01*
X7337928Y-18007786D01*
X7352214Y-17993500D01*
X7380786Y-17979214D01*
X7737928Y-17979214D02*
X7680786Y-17979214D01*
X7652214Y-17993500D01*
X7637928Y-18007786D01*
X7609357Y-18050643D01*
X7595071Y-18107786D01*
X7595071Y-18222072D01*
X7609357Y-18250643D01*
X7623643Y-18264929D01*
X7652214Y-18279214D01*
X7709357Y-18279214D01*
X7737928Y-18264929D01*
X7752214Y-18250643D01*
X7766500Y-18222072D01*
X7766500Y-18150643D01*
X7752214Y-18122072D01*
X7737928Y-18107786D01*
X7709357Y-18093500D01*
X7652214Y-18093500D01*
X7623643Y-18107786D01*
X7609357Y-18122072D01*
X7595071Y-18150643D01*
X7880786Y-17979214D02*
X7880786Y-18036357D01*
X7995071Y-17979214D02*
X7995071Y-18036357D01*
X8437928Y-18393500D02*
X8423643Y-18379214D01*
X8395071Y-18336357D01*
X8380786Y-18307786D01*
X8366500Y-18264929D01*
X8352214Y-18193500D01*
X8352214Y-18136357D01*
X8366500Y-18064929D01*
X8380786Y-18022072D01*
X8395071Y-17993500D01*
X8423643Y-17950643D01*
X8437928Y-17936357D01*
X8680786Y-18079214D02*
X8680786Y-18279214D01*
X8609357Y-17964929D02*
X8537928Y-18179214D01*
X8723643Y-18179214D01*
X9066500Y-18279214D02*
X9066500Y-17979214D01*
X9195071Y-18279214D02*
X9195071Y-18122072D01*
X9180786Y-18093500D01*
X9152214Y-18079214D01*
X9109357Y-18079214D01*
X9080786Y-18093500D01*
X9066500Y-18107786D01*
X9380786Y-18279214D02*
X9352214Y-18264929D01*
X9337928Y-18250643D01*
X9323643Y-18222072D01*
X9323643Y-18136357D01*
X9337928Y-18107786D01*
X9352214Y-18093500D01*
X9380786Y-18079214D01*
X9423643Y-18079214D01*
X9452214Y-18093500D01*
X9466500Y-18107786D01*
X9480786Y-18136357D01*
X9480786Y-18222072D01*
X9466500Y-18250643D01*
X9452214Y-18264929D01*
X9423643Y-18279214D01*
X9380786Y-18279214D01*
X9652214Y-18279214D02*
X9623643Y-18264929D01*
X9609357Y-18236357D01*
X9609357Y-17979214D01*
X9880786Y-18264929D02*
X9852214Y-18279214D01*
X9795071Y-18279214D01*
X9766500Y-18264929D01*
X9752214Y-18236357D01*
X9752214Y-18122072D01*
X9766500Y-18093500D01*
X9795071Y-18079214D01*
X9852214Y-18079214D01*
X9880786Y-18093500D01*
X9895071Y-18122072D01*
X9895071Y-18150643D01*
X9752214Y-18179214D01*
X10009357Y-18264929D02*
X10037928Y-18279214D01*
X10095071Y-18279214D01*
X10123643Y-18264929D01*
X10137928Y-18236357D01*
X10137928Y-18222072D01*
X10123643Y-18193500D01*
X10095071Y-18179214D01*
X10052214Y-18179214D01*
X10023643Y-18164929D01*
X10009357Y-18136357D01*
X10009357Y-18122072D01*
X10023643Y-18093500D01*
X10052214Y-18079214D01*
X10095071Y-18079214D01*
X10123643Y-18093500D01*
X10237928Y-18393500D02*
X10252214Y-18379214D01*
X10280786Y-18336357D01*
X10295071Y-18307786D01*
X10309357Y-18264929D01*
X10323643Y-18193500D01*
X10323643Y-18136357D01*
X10309357Y-18064929D01*
X10295071Y-18022072D01*
X10280786Y-17993500D01*
X10252214Y-17950643D01*
X10237928Y-17936357D01*
X3431500Y-18383500D02*
X3751500Y-18703500D01*
X3751500Y-18383500D02*
X3431500Y-18703500D01*
X3704638Y-18656638D02*
X3704638Y-18430362D01*
X3478362Y-18430362D01*
X3478362Y-18656638D01*
X3704638Y-18656638D01*
X4009357Y-18379214D02*
X4195071Y-18379214D01*
X4095071Y-18493500D01*
X4137928Y-18493500D01*
X4166500Y-18507786D01*
X4180786Y-18522072D01*
X4195071Y-18550643D01*
X4195071Y-18622072D01*
X4180786Y-18650643D01*
X4166500Y-18664929D01*
X4137928Y-18679214D01*
X4052214Y-18679214D01*
X4023643Y-18664929D01*
X4009357Y-18650643D01*
X4323643Y-18650643D02*
X4337928Y-18664929D01*
X4323643Y-18679214D01*
X4309357Y-18664929D01*
X4323643Y-18650643D01*
X4323643Y-18679214D01*
X4452214Y-18407786D02*
X4466500Y-18393500D01*
X4495071Y-18379214D01*
X4566500Y-18379214D01*
X4595071Y-18393500D01*
X4609357Y-18407786D01*
X4623643Y-18436357D01*
X4623643Y-18464929D01*
X4609357Y-18507786D01*
X4437928Y-18679214D01*
X4623643Y-18679214D01*
X4809357Y-18379214D02*
X4837928Y-18379214D01*
X4866500Y-18393500D01*
X4880786Y-18407786D01*
X4895071Y-18436357D01*
X4909357Y-18493500D01*
X4909357Y-18564929D01*
X4895071Y-18622072D01*
X4880786Y-18650643D01*
X4866500Y-18664929D01*
X4837928Y-18679214D01*
X4809357Y-18679214D01*
X4780786Y-18664929D01*
X4766500Y-18650643D01*
X4752214Y-18622072D01*
X4737928Y-18564929D01*
X4737928Y-18493500D01*
X4752214Y-18436357D01*
X4766500Y-18407786D01*
X4780786Y-18393500D01*
X4809357Y-18379214D01*
X5037928Y-18679214D02*
X5037928Y-18479214D01*
X5037928Y-18507786D02*
X5052214Y-18493500D01*
X5080786Y-18479214D01*
X5123643Y-18479214D01*
X5152214Y-18493500D01*
X5166500Y-18522072D01*
X5166500Y-18679214D01*
X5166500Y-18522072D02*
X5180786Y-18493500D01*
X5209357Y-18479214D01*
X5252214Y-18479214D01*
X5280786Y-18493500D01*
X5295071Y-18522072D01*
X5295071Y-18679214D01*
X5437928Y-18679214D02*
X5437928Y-18479214D01*
X5437928Y-18507786D02*
X5452214Y-18493500D01*
X5480786Y-18479214D01*
X5523643Y-18479214D01*
X5552214Y-18493500D01*
X5566500Y-18522072D01*
X5566500Y-18679214D01*
X5566500Y-18522072D02*
X5580786Y-18493500D01*
X5609357Y-18479214D01*
X5652214Y-18479214D01*
X5680786Y-18493500D01*
X5695071Y-18522072D01*
X5695071Y-18679214D01*
X6280786Y-18364929D02*
X6023643Y-18750643D01*
X6666500Y-18379214D02*
X6695071Y-18379214D01*
X6723643Y-18393500D01*
X6737928Y-18407786D01*
X6752214Y-18436357D01*
X6766500Y-18493500D01*
X6766500Y-18564929D01*
X6752214Y-18622072D01*
X6737928Y-18650643D01*
X6723643Y-18664929D01*
X6695071Y-18679214D01*
X6666500Y-18679214D01*
X6637928Y-18664929D01*
X6623643Y-18650643D01*
X6609357Y-18622072D01*
X6595071Y-18564929D01*
X6595071Y-18493500D01*
X6609357Y-18436357D01*
X6623643Y-18407786D01*
X6637928Y-18393500D01*
X6666500Y-18379214D01*
X6895071Y-18650643D02*
X6909357Y-18664929D01*
X6895071Y-18679214D01*
X6880786Y-18664929D01*
X6895071Y-18650643D01*
X6895071Y-18679214D01*
X7195071Y-18679214D02*
X7023643Y-18679214D01*
X7109357Y-18679214D02*
X7109357Y-18379214D01*
X7080786Y-18422072D01*
X7052214Y-18450643D01*
X7023643Y-18464929D01*
X7309357Y-18407786D02*
X7323643Y-18393500D01*
X7352214Y-18379214D01*
X7423643Y-18379214D01*
X7452214Y-18393500D01*
X7466500Y-18407786D01*
X7480786Y-18436357D01*
X7480786Y-18464929D01*
X7466500Y-18507786D01*
X7295071Y-18679214D01*
X7480786Y-18679214D01*
X7737928Y-18379214D02*
X7680786Y-18379214D01*
X7652214Y-18393500D01*
X7637928Y-18407786D01*
X7609357Y-18450643D01*
X7595071Y-18507786D01*
X7595071Y-18622072D01*
X7609357Y-18650643D01*
X7623643Y-18664929D01*
X7652214Y-18679214D01*
X7709357Y-18679214D01*
X7737928Y-18664929D01*
X7752214Y-18650643D01*
X7766500Y-18622072D01*
X7766500Y-18550643D01*
X7752214Y-18522072D01*
X7737928Y-18507786D01*
X7709357Y-18493500D01*
X7652214Y-18493500D01*
X7623643Y-18507786D01*
X7609357Y-18522072D01*
X7595071Y-18550643D01*
X7880786Y-18379214D02*
X7880786Y-18436357D01*
X7995071Y-18379214D02*
X7995071Y-18436357D01*
X8437928Y-18793500D02*
X8423643Y-18779214D01*
X8395071Y-18736357D01*
X8380786Y-18707786D01*
X8366500Y-18664929D01*
X8352214Y-18593500D01*
X8352214Y-18536357D01*
X8366500Y-18464929D01*
X8380786Y-18422072D01*
X8395071Y-18393500D01*
X8423643Y-18350643D01*
X8437928Y-18336357D01*
X8680786Y-18479214D02*
X8680786Y-18679214D01*
X8609357Y-18364929D02*
X8537928Y-18579214D01*
X8723643Y-18579214D01*
X9066500Y-18679214D02*
X9066500Y-18379214D01*
X9195071Y-18679214D02*
X9195071Y-18522072D01*
X9180786Y-18493500D01*
X9152214Y-18479214D01*
X9109357Y-18479214D01*
X9080786Y-18493500D01*
X9066500Y-18507786D01*
X9380786Y-18679214D02*
X9352214Y-18664929D01*
X9337928Y-18650643D01*
X9323643Y-18622072D01*
X9323643Y-18536357D01*
X9337928Y-18507786D01*
X9352214Y-18493500D01*
X9380786Y-18479214D01*
X9423643Y-18479214D01*
X9452214Y-18493500D01*
X9466500Y-18507786D01*
X9480786Y-18536357D01*
X9480786Y-18622072D01*
X9466500Y-18650643D01*
X9452214Y-18664929D01*
X9423643Y-18679214D01*
X9380786Y-18679214D01*
X9652214Y-18679214D02*
X9623643Y-18664929D01*
X9609357Y-18636357D01*
X9609357Y-18379214D01*
X9880786Y-18664929D02*
X9852214Y-18679214D01*
X9795071Y-18679214D01*
X9766500Y-18664929D01*
X9752214Y-18636357D01*
X9752214Y-18522072D01*
X9766500Y-18493500D01*
X9795071Y-18479214D01*
X9852214Y-18479214D01*
X9880786Y-18493500D01*
X9895071Y-18522072D01*
X9895071Y-18550643D01*
X9752214Y-18579214D01*
X10009357Y-18664929D02*
X10037928Y-18679214D01*
X10095071Y-18679214D01*
X10123643Y-18664929D01*
X10137928Y-18636357D01*
X10137928Y-18622072D01*
X10123643Y-18593500D01*
X10095071Y-18579214D01*
X10052214Y-18579214D01*
X10023643Y-18564929D01*
X10009357Y-18536357D01*
X10009357Y-18522072D01*
X10023643Y-18493500D01*
X10052214Y-18479214D01*
X10095071Y-18479214D01*
X10123643Y-18493500D01*
X10237928Y-18793500D02*
X10252214Y-18779214D01*
X10280786Y-18736357D01*
X10295071Y-18707786D01*
X10309357Y-18664929D01*
X10323643Y-18593500D01*
X10323643Y-18536357D01*
X10309357Y-18464929D01*
X10295071Y-18422072D01*
X10280786Y-18393500D01*
X10252214Y-18350643D01*
X10237928Y-18336357D01*
M02*
