%TF.GenerationSoftware,KiCad,Pcbnew,5.1.6-c6e7f7d~86~ubuntu18.04.1*%
%TF.CreationDate,2020-05-28T18:17:00-07:00*%
%TF.ProjectId,Cal_Station,43616c5f-5374-4617-9469-6f6e2e6b6963,rev?*%
%TF.SameCoordinates,Original*%
%TF.FileFunction,OtherDrawing,Comment*%
%FSLAX46Y46*%
G04 Gerber Fmt 4.6, Leading zero omitted, Abs format (unit mm)*
G04 Created by KiCad (PCBNEW 5.1.6-c6e7f7d~86~ubuntu18.04.1) date 2020-05-28 18:17:00*
%MOMM*%
%LPD*%
G01*
G04 APERTURE LIST*
%ADD10C,0.500000*%
%ADD11C,0.150000*%
G04 APERTURE END LIST*
D10*
X192517142Y-100127857D02*
X192517142Y-101842142D01*
X192517142Y-100985000D02*
X189517142Y-100985000D01*
X189945714Y-101270714D01*
X190231428Y-101556428D01*
X190374285Y-101842142D01*
X189802857Y-98985000D02*
X189660000Y-98842142D01*
X189517142Y-98556428D01*
X189517142Y-97842142D01*
X189660000Y-97556428D01*
X189802857Y-97413571D01*
X190088571Y-97270714D01*
X190374285Y-97270714D01*
X190802857Y-97413571D01*
X192517142Y-99127857D01*
X192517142Y-97270714D01*
X189517142Y-95413571D02*
X189517142Y-95127857D01*
X189660000Y-94842142D01*
X189802857Y-94699285D01*
X190088571Y-94556428D01*
X190660000Y-94413571D01*
X191374285Y-94413571D01*
X191945714Y-94556428D01*
X192231428Y-94699285D01*
X192374285Y-94842142D01*
X192517142Y-95127857D01*
X192517142Y-95413571D01*
X192374285Y-95699285D01*
X192231428Y-95842142D01*
X191945714Y-95985000D01*
X191374285Y-96127857D01*
X190660000Y-96127857D01*
X190088571Y-95985000D01*
X189802857Y-95842142D01*
X189660000Y-95699285D01*
X189517142Y-95413571D01*
X192231428Y-93127857D02*
X192374285Y-92985000D01*
X192517142Y-93127857D01*
X192374285Y-93270714D01*
X192231428Y-93127857D01*
X192517142Y-93127857D01*
X192517142Y-90127857D02*
X192517142Y-91842142D01*
X192517142Y-90985000D02*
X189517142Y-90985000D01*
X189945714Y-91270714D01*
X190231428Y-91556428D01*
X190374285Y-91842142D01*
X189517142Y-89127857D02*
X189517142Y-87270714D01*
X190660000Y-88270714D01*
X190660000Y-87842142D01*
X190802857Y-87556428D01*
X190945714Y-87413571D01*
X191231428Y-87270714D01*
X191945714Y-87270714D01*
X192231428Y-87413571D01*
X192374285Y-87556428D01*
X192517142Y-87842142D01*
X192517142Y-88699285D01*
X192374285Y-88985000D01*
X192231428Y-89127857D01*
X189517142Y-85413571D02*
X189517142Y-85127857D01*
X189660000Y-84842142D01*
X189802857Y-84699285D01*
X190088571Y-84556428D01*
X190660000Y-84413571D01*
X191374285Y-84413571D01*
X191945714Y-84556428D01*
X192231428Y-84699285D01*
X192374285Y-84842142D01*
X192517142Y-85127857D01*
X192517142Y-85413571D01*
X192374285Y-85699285D01*
X192231428Y-85842142D01*
X191945714Y-85985000D01*
X191374285Y-86127857D01*
X190660000Y-86127857D01*
X190088571Y-85985000D01*
X189802857Y-85842142D01*
X189660000Y-85699285D01*
X189517142Y-85413571D01*
X192517142Y-80842142D02*
X190517142Y-80842142D01*
X190802857Y-80842142D02*
X190660000Y-80699285D01*
X190517142Y-80413571D01*
X190517142Y-79985000D01*
X190660000Y-79699285D01*
X190945714Y-79556428D01*
X192517142Y-79556428D01*
X190945714Y-79556428D02*
X190660000Y-79413571D01*
X190517142Y-79127857D01*
X190517142Y-78699285D01*
X190660000Y-78413571D01*
X190945714Y-78270714D01*
X192517142Y-78270714D01*
X192517142Y-76842142D02*
X190517142Y-76842142D01*
X190802857Y-76842142D02*
X190660000Y-76699285D01*
X190517142Y-76413571D01*
X190517142Y-75985000D01*
X190660000Y-75699285D01*
X190945714Y-75556428D01*
X192517142Y-75556428D01*
X190945714Y-75556428D02*
X190660000Y-75413571D01*
X190517142Y-75127857D01*
X190517142Y-74699285D01*
X190660000Y-74413571D01*
X190945714Y-74270714D01*
X192517142Y-74270714D01*
D11*
X189860000Y-148050000D02*
X189860000Y-27920000D01*
X186460000Y-148050000D02*
X190446421Y-148050000D01*
X186460000Y-27920000D02*
X190446421Y-27920000D01*
X189860000Y-27920000D02*
X190446421Y-29046504D01*
X189860000Y-27920000D02*
X189273579Y-29046504D01*
X189860000Y-148050000D02*
X190446421Y-146923496D01*
X189860000Y-148050000D02*
X189273579Y-146923496D01*
D10*
X99857142Y-22947142D02*
X98142857Y-22947142D01*
X99000000Y-22947142D02*
X99000000Y-19947142D01*
X98714285Y-20375714D01*
X98428571Y-20661428D01*
X98142857Y-20804285D01*
X102428571Y-20947142D02*
X102428571Y-22947142D01*
X101714285Y-19804285D02*
X101000000Y-21947142D01*
X102857142Y-21947142D01*
X104428571Y-21232857D02*
X104142857Y-21090000D01*
X104000000Y-20947142D01*
X103857142Y-20661428D01*
X103857142Y-20518571D01*
X104000000Y-20232857D01*
X104142857Y-20090000D01*
X104428571Y-19947142D01*
X105000000Y-19947142D01*
X105285714Y-20090000D01*
X105428571Y-20232857D01*
X105571428Y-20518571D01*
X105571428Y-20661428D01*
X105428571Y-20947142D01*
X105285714Y-21090000D01*
X105000000Y-21232857D01*
X104428571Y-21232857D01*
X104142857Y-21375714D01*
X104000000Y-21518571D01*
X103857142Y-21804285D01*
X103857142Y-22375714D01*
X104000000Y-22661428D01*
X104142857Y-22804285D01*
X104428571Y-22947142D01*
X105000000Y-22947142D01*
X105285714Y-22804285D01*
X105428571Y-22661428D01*
X105571428Y-22375714D01*
X105571428Y-21804285D01*
X105428571Y-21518571D01*
X105285714Y-21375714D01*
X105000000Y-21232857D01*
X106857142Y-22661428D02*
X107000000Y-22804285D01*
X106857142Y-22947142D01*
X106714285Y-22804285D01*
X106857142Y-22661428D01*
X106857142Y-22947142D01*
X108428571Y-22947142D02*
X109000000Y-22947142D01*
X109285714Y-22804285D01*
X109428571Y-22661428D01*
X109714285Y-22232857D01*
X109857142Y-21661428D01*
X109857142Y-20518571D01*
X109714285Y-20232857D01*
X109571428Y-20090000D01*
X109285714Y-19947142D01*
X108714285Y-19947142D01*
X108428571Y-20090000D01*
X108285714Y-20232857D01*
X108142857Y-20518571D01*
X108142857Y-21232857D01*
X108285714Y-21518571D01*
X108428571Y-21661428D01*
X108714285Y-21804285D01*
X109285714Y-21804285D01*
X109571428Y-21661428D01*
X109714285Y-21518571D01*
X109857142Y-21232857D01*
X111000000Y-20232857D02*
X111142857Y-20090000D01*
X111428571Y-19947142D01*
X112142857Y-19947142D01*
X112428571Y-20090000D01*
X112571428Y-20232857D01*
X112714285Y-20518571D01*
X112714285Y-20804285D01*
X112571428Y-21232857D01*
X110857142Y-22947142D01*
X112714285Y-22947142D01*
X114571428Y-19947142D02*
X114857142Y-19947142D01*
X115142857Y-20090000D01*
X115285714Y-20232857D01*
X115428571Y-20518571D01*
X115571428Y-21090000D01*
X115571428Y-21804285D01*
X115428571Y-22375714D01*
X115285714Y-22661428D01*
X115142857Y-22804285D01*
X114857142Y-22947142D01*
X114571428Y-22947142D01*
X114285714Y-22804285D01*
X114142857Y-22661428D01*
X114000000Y-22375714D01*
X113857142Y-21804285D01*
X113857142Y-21090000D01*
X114000000Y-20518571D01*
X114142857Y-20232857D01*
X114285714Y-20090000D01*
X114571428Y-19947142D01*
X119142857Y-22947142D02*
X119142857Y-20947142D01*
X119142857Y-21232857D02*
X119285714Y-21090000D01*
X119571428Y-20947142D01*
X120000000Y-20947142D01*
X120285714Y-21090000D01*
X120428571Y-21375714D01*
X120428571Y-22947142D01*
X120428571Y-21375714D02*
X120571428Y-21090000D01*
X120857142Y-20947142D01*
X121285714Y-20947142D01*
X121571428Y-21090000D01*
X121714285Y-21375714D01*
X121714285Y-22947142D01*
X123142857Y-22947142D02*
X123142857Y-20947142D01*
X123142857Y-21232857D02*
X123285714Y-21090000D01*
X123571428Y-20947142D01*
X124000000Y-20947142D01*
X124285714Y-21090000D01*
X124428571Y-21375714D01*
X124428571Y-22947142D01*
X124428571Y-21375714D02*
X124571428Y-21090000D01*
X124857142Y-20947142D01*
X125285714Y-20947142D01*
X125571428Y-21090000D01*
X125714285Y-21375714D01*
X125714285Y-22947142D01*
D11*
X37540000Y-22890000D02*
X186460000Y-22890000D01*
X37540000Y-27920000D02*
X37540000Y-22303579D01*
X186460000Y-27920000D02*
X186460000Y-22303579D01*
X186460000Y-22890000D02*
X185333496Y-23476421D01*
X186460000Y-22890000D02*
X185333496Y-22303579D01*
X37540000Y-22890000D02*
X38666504Y-23476421D01*
X37540000Y-22890000D02*
X38666504Y-22303579D01*
M02*
