%TF.GenerationSoftware,KiCad,Pcbnew,5.1.6-c6e7f7d~86~ubuntu18.04.1*%
%TF.CreationDate,2020-05-28T18:17:00-07:00*%
%TF.ProjectId,Cal_Station,43616c5f-5374-4617-9469-6f6e2e6b6963,rev?*%
%TF.SameCoordinates,Original*%
%TF.FileFunction,Soldermask,Bot*%
%TF.FilePolarity,Negative*%
%FSLAX46Y46*%
G04 Gerber Fmt 4.6, Leading zero omitted, Abs format (unit mm)*
G04 Created by KiCad (PCBNEW 5.1.6-c6e7f7d~86~ubuntu18.04.1) date 2020-05-28 18:17:00*
%MOMM*%
%LPD*%
G01*
G04 APERTURE LIST*
%ADD10C,1.600000*%
%ADD11C,2.000000*%
%ADD12R,2.000000X2.000000*%
%ADD13C,3.100000*%
%ADD14C,0.900000*%
%ADD15C,6.500000*%
%ADD16C,5.500000*%
%ADD17O,1.800000X1.800000*%
%ADD18R,1.800000X1.800000*%
%ADD19C,2.100000*%
%ADD20R,2.100000X2.100000*%
%ADD21C,2.500000*%
%ADD22R,2.500000X2.500000*%
G04 APERTURE END LIST*
D10*
%TO.C,K17*%
X42980000Y-70820000D03*
X52930000Y-70815000D03*
D11*
X50580000Y-70820000D03*
X45500000Y-70820000D03*
X50580000Y-68280000D03*
X50580000Y-65740000D03*
X50580000Y-73360000D03*
X45500000Y-78440000D03*
D12*
X45500000Y-65740000D03*
D11*
X50580000Y-78440000D03*
X45500000Y-68280000D03*
X45500000Y-73360000D03*
D10*
X52880000Y-78440000D03*
X52930000Y-73365000D03*
X52930000Y-68315000D03*
X52980000Y-65715000D03*
X42980000Y-65740000D03*
X42980000Y-68280000D03*
X42980000Y-73360000D03*
X42980000Y-78290000D03*
%TD*%
%TO.C,K16*%
X44410000Y-48550000D03*
X54360000Y-48545000D03*
D11*
X52010000Y-48550000D03*
X46930000Y-48550000D03*
X52010000Y-46010000D03*
X52010000Y-43470000D03*
X52010000Y-51090000D03*
X46930000Y-56170000D03*
D12*
X46930000Y-43470000D03*
D11*
X52010000Y-56170000D03*
X46930000Y-46010000D03*
X46930000Y-51090000D03*
D10*
X54310000Y-56170000D03*
X54360000Y-51095000D03*
X54360000Y-46045000D03*
X54410000Y-43445000D03*
X44410000Y-43470000D03*
X44410000Y-46010000D03*
X44410000Y-51090000D03*
X44410000Y-56020000D03*
%TD*%
%TO.C,K15*%
X138574000Y-65652000D03*
X148524000Y-65647000D03*
D11*
X146174000Y-65652000D03*
X141094000Y-65652000D03*
X146174000Y-63112000D03*
X146174000Y-60572000D03*
X146174000Y-68192000D03*
X141094000Y-73272000D03*
D12*
X141094000Y-60572000D03*
D11*
X146174000Y-73272000D03*
X141094000Y-63112000D03*
X141094000Y-68192000D03*
D10*
X148474000Y-73272000D03*
X148524000Y-68197000D03*
X148524000Y-63147000D03*
X148574000Y-60547000D03*
X138574000Y-60572000D03*
X138574000Y-63112000D03*
X138574000Y-68192000D03*
X138574000Y-73122000D03*
%TD*%
%TO.C,K14*%
X164544000Y-101742000D03*
X164549000Y-111692000D03*
D11*
X164544000Y-109342000D03*
X164544000Y-104262000D03*
X167084000Y-109342000D03*
X169624000Y-109342000D03*
X162004000Y-109342000D03*
X156924000Y-104262000D03*
D12*
X169624000Y-104262000D03*
D11*
X156924000Y-109342000D03*
X167084000Y-104262000D03*
X162004000Y-104262000D03*
D10*
X156924000Y-111642000D03*
X161999000Y-111692000D03*
X167049000Y-111692000D03*
X169649000Y-111742000D03*
X169624000Y-101742000D03*
X167084000Y-101742000D03*
X162004000Y-101742000D03*
X157074000Y-101742000D03*
%TD*%
%TO.C,K13*%
X126740000Y-46170000D03*
X136690000Y-46165000D03*
D11*
X134340000Y-46170000D03*
X129260000Y-46170000D03*
X134340000Y-43630000D03*
X134340000Y-41090000D03*
X134340000Y-48710000D03*
X129260000Y-53790000D03*
D12*
X129260000Y-41090000D03*
D11*
X134340000Y-53790000D03*
X129260000Y-43630000D03*
X129260000Y-48710000D03*
D10*
X136640000Y-53790000D03*
X136690000Y-48715000D03*
X136690000Y-43665000D03*
X136740000Y-41065000D03*
X126740000Y-41090000D03*
X126740000Y-43630000D03*
X126740000Y-48710000D03*
X126740000Y-53640000D03*
%TD*%
%TO.C,K12*%
X158240000Y-74140000D03*
X168190000Y-74135000D03*
D11*
X165840000Y-74140000D03*
X160760000Y-74140000D03*
X165840000Y-71600000D03*
X165840000Y-69060000D03*
X165840000Y-76680000D03*
X160760000Y-81760000D03*
D12*
X160760000Y-69060000D03*
D11*
X165840000Y-81760000D03*
X160760000Y-71600000D03*
X160760000Y-76680000D03*
D10*
X168140000Y-81760000D03*
X168190000Y-76685000D03*
X168190000Y-71635000D03*
X168240000Y-69035000D03*
X158240000Y-69060000D03*
X158240000Y-71600000D03*
X158240000Y-76680000D03*
X158240000Y-81610000D03*
%TD*%
%TO.C,K11*%
X96192000Y-63522000D03*
X106142000Y-63517000D03*
D11*
X103792000Y-63522000D03*
X98712000Y-63522000D03*
X103792000Y-60982000D03*
X103792000Y-58442000D03*
X103792000Y-66062000D03*
X98712000Y-71142000D03*
D12*
X98712000Y-58442000D03*
D11*
X103792000Y-71142000D03*
X98712000Y-60982000D03*
X98712000Y-66062000D03*
D10*
X106092000Y-71142000D03*
X106142000Y-66067000D03*
X106142000Y-61017000D03*
X106192000Y-58417000D03*
X96192000Y-58442000D03*
X96192000Y-60982000D03*
X96192000Y-66062000D03*
X96192000Y-70992000D03*
%TD*%
%TO.C,K10*%
X123710000Y-68960000D03*
X123715000Y-78910000D03*
D11*
X123710000Y-76560000D03*
X123710000Y-71480000D03*
X126250000Y-76560000D03*
X128790000Y-76560000D03*
X121170000Y-76560000D03*
X116090000Y-71480000D03*
D12*
X128790000Y-71480000D03*
D11*
X116090000Y-76560000D03*
X126250000Y-71480000D03*
X121170000Y-71480000D03*
D10*
X116090000Y-78860000D03*
X121165000Y-78910000D03*
X126215000Y-78910000D03*
X128815000Y-78960000D03*
X128790000Y-68960000D03*
X126250000Y-68960000D03*
X121170000Y-68960000D03*
X116240000Y-68960000D03*
%TD*%
%TO.C,K9*%
X129078000Y-103578000D03*
X129083000Y-113528000D03*
D11*
X129078000Y-111178000D03*
X129078000Y-106098000D03*
X131618000Y-111178000D03*
X134158000Y-111178000D03*
X126538000Y-111178000D03*
X121458000Y-106098000D03*
D12*
X134158000Y-106098000D03*
D11*
X121458000Y-111178000D03*
X131618000Y-106098000D03*
X126538000Y-106098000D03*
D10*
X121458000Y-113478000D03*
X126533000Y-113528000D03*
X131583000Y-113528000D03*
X134183000Y-113578000D03*
X134158000Y-103578000D03*
X131618000Y-103578000D03*
X126538000Y-103578000D03*
X121608000Y-103578000D03*
%TD*%
%TO.C,K8*%
X78890000Y-73704360D03*
X78885000Y-63754360D03*
D11*
X78890000Y-66104360D03*
X78890000Y-71184360D03*
X76350000Y-66104360D03*
X73810000Y-66104360D03*
X81430000Y-66104360D03*
X86510000Y-71184360D03*
D12*
X73810000Y-71184360D03*
D11*
X86510000Y-66104360D03*
X76350000Y-71184360D03*
X81430000Y-71184360D03*
D10*
X86510000Y-63804360D03*
X81435000Y-63754360D03*
X76385000Y-63754360D03*
X73785000Y-63704360D03*
X73810000Y-73704360D03*
X76350000Y-73704360D03*
X81430000Y-73704360D03*
X86360000Y-73704360D03*
%TD*%
%TO.C,K7*%
X165910000Y-134250000D03*
X165905000Y-124300000D03*
D11*
X165910000Y-126650000D03*
X165910000Y-131730000D03*
X163370000Y-126650000D03*
X160830000Y-126650000D03*
X168450000Y-126650000D03*
X173530000Y-131730000D03*
D12*
X160830000Y-131730000D03*
D11*
X173530000Y-126650000D03*
X163370000Y-131730000D03*
X168450000Y-131730000D03*
D10*
X173530000Y-124350000D03*
X168455000Y-124300000D03*
X163405000Y-124300000D03*
X160805000Y-124250000D03*
X160830000Y-134250000D03*
X163370000Y-134250000D03*
X168450000Y-134250000D03*
X173380000Y-134250000D03*
%TD*%
%TO.C,K6*%
X53650000Y-133512000D03*
X53645000Y-123562000D03*
D11*
X53650000Y-125912000D03*
X53650000Y-130992000D03*
X51110000Y-125912000D03*
X48570000Y-125912000D03*
X56190000Y-125912000D03*
X61270000Y-130992000D03*
D12*
X48570000Y-130992000D03*
D11*
X61270000Y-125912000D03*
X51110000Y-130992000D03*
X56190000Y-130992000D03*
D10*
X61270000Y-123612000D03*
X56195000Y-123562000D03*
X51145000Y-123562000D03*
X48545000Y-123512000D03*
X48570000Y-133512000D03*
X51110000Y-133512000D03*
X56190000Y-133512000D03*
X61120000Y-133512000D03*
%TD*%
%TO.C,K5*%
X76980000Y-133400000D03*
X76975000Y-123450000D03*
D11*
X76980000Y-125800000D03*
X76980000Y-130880000D03*
X74440000Y-125800000D03*
X71900000Y-125800000D03*
X79520000Y-125800000D03*
X84600000Y-130880000D03*
D12*
X71900000Y-130880000D03*
D11*
X84600000Y-125800000D03*
X74440000Y-130880000D03*
X79520000Y-130880000D03*
D10*
X84600000Y-123500000D03*
X79525000Y-123450000D03*
X74475000Y-123450000D03*
X71875000Y-123400000D03*
X71900000Y-133400000D03*
X74440000Y-133400000D03*
X79520000Y-133400000D03*
X84450000Y-133400000D03*
%TD*%
%TO.C,K4*%
X99200000Y-133688000D03*
X99195000Y-123738000D03*
D11*
X99200000Y-126088000D03*
X99200000Y-131168000D03*
X96660000Y-126088000D03*
X94120000Y-126088000D03*
X101740000Y-126088000D03*
X106820000Y-131168000D03*
D12*
X94120000Y-131168000D03*
D11*
X106820000Y-126088000D03*
X96660000Y-131168000D03*
X101740000Y-131168000D03*
D10*
X106820000Y-123788000D03*
X101745000Y-123738000D03*
X96695000Y-123738000D03*
X94095000Y-123688000D03*
X94120000Y-133688000D03*
X96660000Y-133688000D03*
X101740000Y-133688000D03*
X106670000Y-133688000D03*
%TD*%
%TO.C,K3*%
X122240000Y-133844000D03*
X122235000Y-123894000D03*
D11*
X122240000Y-126244000D03*
X122240000Y-131324000D03*
X119700000Y-126244000D03*
X117160000Y-126244000D03*
X124780000Y-126244000D03*
X129860000Y-131324000D03*
D12*
X117160000Y-131324000D03*
D11*
X129860000Y-126244000D03*
X119700000Y-131324000D03*
X124780000Y-131324000D03*
D10*
X129860000Y-123944000D03*
X124785000Y-123894000D03*
X119735000Y-123894000D03*
X117135000Y-123844000D03*
X117160000Y-133844000D03*
X119700000Y-133844000D03*
X124780000Y-133844000D03*
X129710000Y-133844000D03*
%TD*%
%TO.C,K2*%
X144396000Y-134372000D03*
X144391000Y-124422000D03*
D11*
X144396000Y-126772000D03*
X144396000Y-131852000D03*
X141856000Y-126772000D03*
X139316000Y-126772000D03*
X146936000Y-126772000D03*
X152016000Y-131852000D03*
D12*
X139316000Y-131852000D03*
D11*
X152016000Y-126772000D03*
X141856000Y-131852000D03*
X146936000Y-131852000D03*
D10*
X152016000Y-124472000D03*
X146941000Y-124422000D03*
X141891000Y-124422000D03*
X139291000Y-124372000D03*
X139316000Y-134372000D03*
X141856000Y-134372000D03*
X146936000Y-134372000D03*
X151866000Y-134372000D03*
%TD*%
%TO.C,K1*%
X100752360Y-104864000D03*
X90802360Y-104869000D03*
D11*
X93152360Y-104864000D03*
X98232360Y-104864000D03*
X93152360Y-107404000D03*
X93152360Y-109944000D03*
X93152360Y-102324000D03*
X98232360Y-97244000D03*
D12*
X98232360Y-109944000D03*
D11*
X93152360Y-97244000D03*
X98232360Y-107404000D03*
X98232360Y-102324000D03*
D10*
X90852360Y-97244000D03*
X90802360Y-102319000D03*
X90802360Y-107369000D03*
X90752360Y-109969000D03*
X100752360Y-109944000D03*
X100752360Y-107404000D03*
X100752360Y-102324000D03*
X100752360Y-97394000D03*
%TD*%
D13*
%TO.C,TP18*%
X109610000Y-41240000D03*
%TD*%
%TO.C,TP17*%
X104560000Y-41240000D03*
%TD*%
%TO.C,C65*%
G36*
G01*
X116021667Y-111925000D02*
X117938333Y-111925000D01*
G75*
G02*
X118205000Y-112191667I0J-266667D01*
G01*
X118205000Y-113258333D01*
G75*
G02*
X117938333Y-113525000I-266667J0D01*
G01*
X116021667Y-113525000D01*
G75*
G02*
X115755000Y-113258333I0J266667D01*
G01*
X115755000Y-112191667D01*
G75*
G02*
X116021667Y-111925000I266667J0D01*
G01*
G37*
G36*
G01*
X116021667Y-108675000D02*
X117938333Y-108675000D01*
G75*
G02*
X118205000Y-108941667I0J-266667D01*
G01*
X118205000Y-110008333D01*
G75*
G02*
X117938333Y-110275000I-266667J0D01*
G01*
X116021667Y-110275000D01*
G75*
G02*
X115755000Y-110008333I0J266667D01*
G01*
X115755000Y-108941667D01*
G75*
G02*
X116021667Y-108675000I266667J0D01*
G01*
G37*
%TD*%
%TO.C,C62*%
G36*
G01*
X106331667Y-118995000D02*
X108248333Y-118995000D01*
G75*
G02*
X108515000Y-119261667I0J-266667D01*
G01*
X108515000Y-120328333D01*
G75*
G02*
X108248333Y-120595000I-266667J0D01*
G01*
X106331667Y-120595000D01*
G75*
G02*
X106065000Y-120328333I0J266667D01*
G01*
X106065000Y-119261667D01*
G75*
G02*
X106331667Y-118995000I266667J0D01*
G01*
G37*
G36*
G01*
X106331667Y-115745000D02*
X108248333Y-115745000D01*
G75*
G02*
X108515000Y-116011667I0J-266667D01*
G01*
X108515000Y-117078333D01*
G75*
G02*
X108248333Y-117345000I-266667J0D01*
G01*
X106331667Y-117345000D01*
G75*
G02*
X106065000Y-117078333I0J266667D01*
G01*
X106065000Y-116011667D01*
G75*
G02*
X106331667Y-115745000I266667J0D01*
G01*
G37*
%TD*%
%TO.C,C58*%
G36*
G01*
X117911667Y-118605000D02*
X119828333Y-118605000D01*
G75*
G02*
X120095000Y-118871667I0J-266667D01*
G01*
X120095000Y-119938333D01*
G75*
G02*
X119828333Y-120205000I-266667J0D01*
G01*
X117911667Y-120205000D01*
G75*
G02*
X117645000Y-119938333I0J266667D01*
G01*
X117645000Y-118871667D01*
G75*
G02*
X117911667Y-118605000I266667J0D01*
G01*
G37*
G36*
G01*
X117911667Y-115355000D02*
X119828333Y-115355000D01*
G75*
G02*
X120095000Y-115621667I0J-266667D01*
G01*
X120095000Y-116688333D01*
G75*
G02*
X119828333Y-116955000I-266667J0D01*
G01*
X117911667Y-116955000D01*
G75*
G02*
X117645000Y-116688333I0J266667D01*
G01*
X117645000Y-115621667D01*
G75*
G02*
X117911667Y-115355000I266667J0D01*
G01*
G37*
%TD*%
%TO.C,C47*%
G36*
G01*
X105275000Y-112761667D02*
X105275000Y-114678333D01*
G75*
G02*
X105008333Y-114945000I-266667J0D01*
G01*
X103941667Y-114945000D01*
G75*
G02*
X103675000Y-114678333I0J266667D01*
G01*
X103675000Y-112761667D01*
G75*
G02*
X103941667Y-112495000I266667J0D01*
G01*
X105008333Y-112495000D01*
G75*
G02*
X105275000Y-112761667I0J-266667D01*
G01*
G37*
G36*
G01*
X108525000Y-112761667D02*
X108525000Y-114678333D01*
G75*
G02*
X108258333Y-114945000I-266667J0D01*
G01*
X107191667Y-114945000D01*
G75*
G02*
X106925000Y-114678333I0J266667D01*
G01*
X106925000Y-112761667D01*
G75*
G02*
X107191667Y-112495000I266667J0D01*
G01*
X108258333Y-112495000D01*
G75*
G02*
X108525000Y-112761667I0J-266667D01*
G01*
G37*
%TD*%
D14*
%TO.C,H8*%
X46377056Y-30992944D03*
X44680000Y-30290000D03*
X42982944Y-30992944D03*
X42280000Y-32690000D03*
X42982944Y-34387056D03*
X44680000Y-35090000D03*
X46377056Y-34387056D03*
X47080000Y-32690000D03*
D15*
X44680000Y-32690000D03*
%TD*%
D14*
%TO.C,H7*%
X184527056Y-30992944D03*
X182830000Y-30290000D03*
X181132944Y-30992944D03*
X180430000Y-32690000D03*
X181132944Y-34387056D03*
X182830000Y-35090000D03*
X184527056Y-34387056D03*
X185230000Y-32690000D03*
D15*
X182830000Y-32690000D03*
%TD*%
D14*
%TO.C,H6*%
X46377056Y-142782944D03*
X44680000Y-142080000D03*
X42982944Y-142782944D03*
X42280000Y-144480000D03*
X42982944Y-146177056D03*
X44680000Y-146880000D03*
X46377056Y-146177056D03*
X47080000Y-144480000D03*
D15*
X44680000Y-144480000D03*
%TD*%
D14*
%TO.C,H5*%
X184527056Y-142802944D03*
X182830000Y-142100000D03*
X181132944Y-142802944D03*
X180430000Y-144500000D03*
X181132944Y-146197056D03*
X182830000Y-146900000D03*
X184527056Y-146197056D03*
X185230000Y-144500000D03*
D15*
X182830000Y-144500000D03*
%TD*%
D14*
%TO.C,H4*%
X112601891Y-30688109D03*
X111170000Y-30095000D03*
X109738109Y-30688109D03*
X109145000Y-32120000D03*
X109738109Y-33551891D03*
X111170000Y-34145000D03*
X112601891Y-33551891D03*
X113195000Y-32120000D03*
D16*
X111170000Y-32120000D03*
%TD*%
D14*
%TO.C,H3*%
X63601891Y-88688109D03*
X62170000Y-88095000D03*
X60738109Y-88688109D03*
X60145000Y-90120000D03*
X60738109Y-91551891D03*
X62170000Y-92145000D03*
X63601891Y-91551891D03*
X64195000Y-90120000D03*
D16*
X62170000Y-90120000D03*
%TD*%
D14*
%TO.C,H2*%
X112601891Y-88688109D03*
X111170000Y-88095000D03*
X109738109Y-88688109D03*
X109145000Y-90120000D03*
X109738109Y-91551891D03*
X111170000Y-92145000D03*
X112601891Y-91551891D03*
X113195000Y-90120000D03*
D16*
X111170000Y-90120000D03*
%TD*%
D14*
%TO.C,H1*%
X63601891Y-30688109D03*
X62170000Y-30095000D03*
X60738109Y-30688109D03*
X60145000Y-32120000D03*
X60738109Y-33551891D03*
X62170000Y-34145000D03*
X63601891Y-33551891D03*
X64195000Y-32120000D03*
D16*
X62170000Y-32120000D03*
%TD*%
D13*
%TO.C,J28*%
X142130000Y-94000000D03*
%TD*%
%TO.C,J27*%
X149790000Y-94000000D03*
%TD*%
%TO.C,J26*%
X162930000Y-49260000D03*
%TD*%
%TO.C,J25*%
X155320000Y-49400000D03*
%TD*%
%TO.C,J24*%
X147750000Y-49660000D03*
%TD*%
%TO.C,J23*%
X159204000Y-86946000D03*
%TD*%
%TO.C,J22*%
X152092000Y-87200000D03*
%TD*%
%TO.C,J20*%
X145488000Y-87200000D03*
%TD*%
%TO.C,J19*%
X116620000Y-58990000D03*
%TD*%
%TO.C,J18*%
X122190000Y-58810000D03*
%TD*%
%TO.C,J17*%
X138630000Y-87200000D03*
%TD*%
%TO.C,J16*%
X79580000Y-80000000D03*
%TD*%
%TO.C,J15*%
X70430000Y-80000000D03*
%TD*%
%TO.C,J14*%
X128320000Y-94300000D03*
%TD*%
%TO.C,J13*%
X128320000Y-87300000D03*
%TD*%
%TO.C,J12*%
X121320000Y-94280000D03*
%TD*%
%TO.C,J11*%
X121320000Y-87300000D03*
%TD*%
%TO.C,J10*%
X166570000Y-86946000D03*
%TD*%
%TO.C,J9*%
X115720000Y-87280000D03*
%TD*%
%TO.C,J8*%
X106950000Y-87300000D03*
%TD*%
%TO.C,J7*%
X100660000Y-87308000D03*
%TD*%
%TO.C,J6*%
X86436000Y-87562000D03*
%TD*%
%TO.C,J5*%
X93294000Y-87562000D03*
%TD*%
%TO.C,J4*%
X79578000Y-95436000D03*
%TD*%
%TO.C,J3*%
X79578000Y-87562000D03*
%TD*%
%TO.C,J2*%
X70180000Y-95436000D03*
%TD*%
%TO.C,J1*%
X70434000Y-87816000D03*
%TD*%
%TO.C,TP14*%
X124580000Y-138900000D03*
%TD*%
%TO.C,TP13*%
X129980000Y-138840000D03*
%TD*%
%TO.C,TP12*%
X146920000Y-140060000D03*
%TD*%
%TO.C,TP11*%
X152650000Y-139980000D03*
%TD*%
%TO.C,TP10*%
X169050000Y-139230000D03*
%TD*%
%TO.C,TP9*%
X174750000Y-139200000D03*
%TD*%
%TO.C,TP8*%
X55870000Y-138730000D03*
%TD*%
%TO.C,TP7*%
X60950000Y-138540000D03*
%TD*%
%TO.C,TP6*%
X78730000Y-138740000D03*
%TD*%
%TO.C,TP5*%
X84010000Y-138480000D03*
%TD*%
%TO.C,TP4*%
X101740000Y-138830000D03*
%TD*%
%TO.C,TP3*%
X107210000Y-138750000D03*
%TD*%
D17*
%TO.C,PI1*%
X60900000Y-37130000D03*
X63440000Y-37130000D03*
X60900000Y-39670000D03*
X63440000Y-39670000D03*
X60900000Y-42210000D03*
X63440000Y-42210000D03*
X60900000Y-44750000D03*
X63440000Y-44750000D03*
X60900000Y-47290000D03*
X63440000Y-47290000D03*
X60900000Y-49830000D03*
X63440000Y-49830000D03*
X60900000Y-52370000D03*
X63440000Y-52370000D03*
X60900000Y-54910000D03*
X63440000Y-54910000D03*
X60900000Y-57450000D03*
X63440000Y-57450000D03*
X60900000Y-59990000D03*
X63440000Y-59990000D03*
X60900000Y-62530000D03*
X63440000Y-62530000D03*
X60900000Y-65070000D03*
X63440000Y-65070000D03*
X60900000Y-67610000D03*
X63440000Y-67610000D03*
X60900000Y-70150000D03*
X63440000Y-70150000D03*
X60900000Y-72690000D03*
X63440000Y-72690000D03*
X60900000Y-75230000D03*
X63440000Y-75230000D03*
X60900000Y-77770000D03*
X63440000Y-77770000D03*
X60900000Y-80310000D03*
X63440000Y-80310000D03*
X60900000Y-82850000D03*
X63440000Y-82850000D03*
X60900000Y-85390000D03*
D18*
X63440000Y-85390000D03*
%TD*%
D19*
%TO.C,C49*%
X71190000Y-33800000D03*
D20*
X76190000Y-33800000D03*
%TD*%
D19*
%TO.C,C48*%
X59026000Y-113012000D03*
D20*
X59026000Y-108012000D03*
%TD*%
D21*
%TO.C,C35*%
X84390000Y-53430000D03*
D22*
X79390000Y-53430000D03*
%TD*%
M02*
